<svg xmlns="http://www.w3.org/2000/svg" width="339.922" height="268.876" viewBox="0 0 339.922 268.876">
  <g id="Grupo_87425" data-name="Grupo 87425" transform="translate(-1043.58 -44.931)">
    <path id="Trazado_110106" data-name="Trazado 110106" d="M1379.8,164.814c13.917,41.423-8.948,159.9-111.765,147.866-29.5-3.453-61.2-34.54-86.117-29.034s-37.764,30.272-83.619,20.407-54.467-52.8-42.988-84.1-14.859-42.293-11.425-69.213c3.14-24.623,38.026-28.874,54.953-47.668s25.248-56.411,61.239-55.52c40.1.993,36.033,51.454,90.129,45.914C1309.993,87.342,1362.254,112.569,1379.8,164.814Z" transform="translate(0 0.273)" fill="#daeef7"/>
    <g id="Grupo_87405" data-name="Grupo 87405" transform="translate(1163.104 114.806)">
      <g id="Grupo_87401" data-name="Grupo 87401">
        <path id="Trazado_110107" data-name="Trazado 110107" d="M1152.928,169.179l169.636.608-.512,102.5-169.637-.608Z" transform="translate(-1151.687 -101.773)" fill="#eb9950"/>
        <path id="Trazado_110108" data-name="Trazado 110108" d="M1151.757,267.957l85.253-68.432,84.5,69.107Z" transform="translate(-1151.757 -98.589)" fill="#c97d3b"/>
        <path id="Trazado_110109" data-name="Trazado 110109" d="M1152.146,267.676l84.806-65.453,84.089,66.125Z" transform="translate(-1151.716 -98.306)" fill="#f1b146"/>
        <path id="Trazado_110110" data-name="Trazado 110110" d="M1152.258,169.567l84.5,69.107,85.25-68.432Z" transform="translate(-1151.704 -101.732)" fill="#c97d3b"/>
        <path id="Trazado_110111" data-name="Trazado 110111" d="M1152.649,176.009l83.891-67.837,85,68.509Z" transform="translate(-1151.663 -108.172)" fill="#c97d3b"/>
        <path id="Trazado_110112" data-name="Trazado 110112" d="M1299.6,122.016H1171.279v69.726l63.488,51.921,64.831-51.921Z" transform="translate(-1149.708 -106.72)" fill="#fff"/>
        <path id="Trazado_110113" data-name="Trazado 110113" d="M1235.511,229.6l-64.232-44.476,63.488,51.92,64.831-51.92Z" transform="translate(-1149.708 -100.1)" fill="#ad6035"/>
      </g>
      <g id="Grupo_87404" data-name="Grupo 87404" transform="translate(41.813 57.493)">
        <path id="Trazado_110114" data-name="Trazado 110114" d="M1223.043,164.35l-33.405.221-.038-4.143,33.405-.221Z" transform="translate(-1189.599 -160.207)" fill="#729edb"/>
        <g id="Grupo_87402" data-name="Grupo 87402" transform="translate(0.085 8.81)">
          <path id="Trazado_110115" data-name="Trazado 110115" d="M1281.267,171.348l-91.562.605-.029-3.167,91.562-.605Z" transform="translate(-1189.676 -168.181)" fill="#729edb"/>
          <path id="Trazado_110116" data-name="Trazado 110116" d="M1250.443,171.505l-17.6.116-.029-3.167,17.6-.116Z" transform="translate(-1185.151 -168.164)" fill="#729edb"/>
          <path id="Trazado_110117" data-name="Trazado 110117" d="M1274.769,171.348l-23.115.153-.029-3.167,23.115-.153Z" transform="translate(-1183.178 -168.181)" fill="#729edb"/>
        </g>
        <g id="Grupo_87403" data-name="Grupo 87403" transform="translate(0.153 16.28)">
          <path id="Trazado_110118" data-name="Trazado 110118" d="M1262.333,178.149l-72.565.48-.029-3.167,72.565-.48Z" transform="translate(-1189.738 -174.937)" fill="#729edb"/>
          <path id="Trazado_110119" data-name="Trazado 110119" d="M1264.869,178.108l-34.208.226-.029-3.167,34.208-.226Z" transform="translate(-1185.448 -174.941)" fill="#729edb"/>
        </g>
      </g>
    </g>
    <g id="Grupo_87420" data-name="Grupo 87420" transform="translate(1085.808 99.626)">
      <path id="Trazado_110120" data-name="Trazado 110120" d="M1103.584,174.155c.365,6.249.073,8.028,1.78,15.958,2.646,12.284,2.348,9.389,2.6,11.113,1.173,3.032,4.636,16.357,5.911,18.916.074,5.194.853,9.279,2.364,15.607,1.807,7.558,7.059,20.37,9.712,27.388l5.243-1.254c-.765-13.987-2.725-33.188-5.706-54.32-1.909-13.535-.067-26.093-2.155-37.075Z" transform="translate(-1079.514 -86.456)" fill="#1e2d54"/>
      <g id="Grupo_87407" data-name="Grupo 87407" transform="translate(10.918 79.303)">
        <g id="Grupo_87406" data-name="Grupo 87406">
          <path id="Trazado_110121" data-name="Trazado 110121" d="M1093.454,172.628c-1.3,6.162-1.521,12.935-1.738,21.044-.335,12.563,1.8,18.3,1.618,20.035a85.212,85.212,0,0,0,1.932,9.039,69.726,69.726,0,0,0-2.131,17.625,168.6,168.6,0,0,0,1.592,24h6.394c2.973-13.783,6.005-32.913,8.392-54.159,1.528-13.608,2.6-26.418,3.223-37.584Z" transform="translate(-1091.681 -165.534)" fill="#153f5e"/>
          <ellipse id="Elipse_4394" data-name="Elipse 4394" cx="13.005" cy="9.931" rx="13.005" ry="9.931" transform="translate(7.602)" fill="#153f5e"/>
        </g>
      </g>
      <g id="Grupo_87408" data-name="Grupo 87408" transform="translate(10.4 176.012)">
        <path id="Trazado_110122" data-name="Trazado 110122" d="M1099.376,260.356h-4.493v-6.621h5.291Z" transform="translate(-1090.827 -253.735)" fill="#ea9f88"/>
        <path id="Trazado_110123" data-name="Trazado 110123" d="M1101.694,265.72v-.455a4.176,4.176,0,0,0-.19-1.279l-1.106-4.433a3.457,3.457,0,0,1-2.014.3c-1-.215-.946-1.655-2-2.366h-.481a3.266,3.266,0,0,0-1.655,1.774c-.491,1.044-.662,3.155-.977,3.844-.361.789-.732,1.537-1.023,2.108a1.941,1.941,0,0,0-.716.981c-.381,0-.462.01-.009.033a2.323,2.323,0,0,0-.113.7v.961h10.64v-.961A2.225,2.225,0,0,0,1101.694,265.72Zm-3.834-.793v.011h-.306l0-.011Z" transform="translate(-1091.212 -253.341)" fill="#16415d"/>
      </g>
      <g id="Grupo_87409" data-name="Grupo 87409" transform="translate(44.767 174.93)">
        <path id="Trazado_110124" data-name="Trazado 110124" d="M1129.971,259.29l-3.747,1.147-1.939-6.33,4.412-1.351Z" transform="translate(-1122.109 -252.756)" fill="#ea9f88"/>
        <path id="Trazado_110125" data-name="Trazado 110125" d="M1122.6,263.5l1.624-4.572a13.708,13.708,0,0,0,3.859.312c1.463-.222,1.459-1.556,2.04-2.439h1.95a12.767,12.767,0,0,0,7.586,5.675h3.763c.878,0,1.6,1.055,1.6,2.343v1.042h-15.828l-.8-1.391h-.443v1.391h-5.63v-1.042A3.142,3.142,0,0,1,1122.6,263.5Z" transform="translate(-1122.316 -252.331)" fill="#16415d"/>
      </g>
      <g id="Grupo_87411" data-name="Grupo 87411" transform="translate(19.187)">
        <path id="Trazado_110126" data-name="Trazado 110126" d="M1101.084,120.835a12.513,12.513,0,0,0,11.458-.362,8.515,8.515,0,0,1-1.118-4.335,7.793,7.793,0,0,1,1.97-5.448v-2.827h-7.19A20.958,20.958,0,0,1,1101.084,120.835Z" transform="translate(-1098.963 -93.025)" fill="#ea9f86"/>
        <g id="Grupo_87410" data-name="Grupo 87410">
          <path id="Trazado_110127" data-name="Trazado 110127" d="M1117.085,104.43c.3-4.116-4.185-4.59-7.486-4.834-2.119-.157-4.038.008-5.428,2.1-.347-.5-1.113.388-1.656.367-1.125-.043-1.828.309-1.886,1.893s.549,3.8,1.673,3.843a1.307,1.307,0,0,0,.161-.017c.039,1.293-.437,2.281.117,3.335a10.414,10.414,0,0,0,5.769,4.359C1114.754,117.326,1116.785,108.547,1117.085,104.43Z" transform="translate(-1099.011 -93.897)" fill="#ebb190"/>
          <path id="Trazado_110128" data-name="Trazado 110128" d="M1121.723,100.795c.349-3.315-.676-5.441-5.988-6.067a50.924,50.924,0,0,0-13.293.3c-3.856.766-3.313,3.769-3.165,5.074.367,3.212,1.324,7.939,2.89,8.447a.981.981,0,0,0,.945-.16,2.852,2.852,0,0,1-1.175-1.667c-.353-1.263.1-2.465,1.006-2.684a1.968,1.968,0,0,1,2.022,1.251c1.2-2.257,3-4.494,7.435-2.445C1117.255,105.082,1121.374,104.11,1121.723,100.795Z" transform="translate(-1099.164 -94.434)" fill="#1c3054"/>
        </g>
      </g>
      <path id="Trazado_110129" data-name="Trazado 110129" d="M1105.914,146.363a262.366,262.366,0,0,0,28.391-1.486c-.481-12.432-8.024-22.831-18.3-26.331a10.168,10.168,0,0,1-6.641,2.281,9.892,9.892,0,0,1-7.112-2.732c-11.172,3-19.52,14.02-19.832,27.266C1089.787,146.01,1097.69,146.363,1105.914,146.363Z" transform="translate(-1081.734 -91.952)" fill="#729edb"/>
      <g id="Grupo_87415" data-name="Grupo 87415" transform="translate(39.342 52.369)">
        <g id="Grupo_87414" data-name="Grupo 87414">
          <g id="Grupo_87413" data-name="Grupo 87413">
            <g id="Grupo_87412" data-name="Grupo 87412">
              <path id="Trazado_110130" data-name="Trazado 110130" d="M1130.07,141.831l.56,9.721c-5.256,1.247-8.624,3.456-9.744,6.882q-2.986-3.267-3.421-10.951a35.683,35.683,0,0,1,0-4.127Z" transform="translate(-1117.406 -141.831)" fill="#ea9f87"/>
            </g>
          </g>
        </g>
        <path id="Trazado_110131" data-name="Trazado 110131" d="M1120.527,158.053c.914-5.691,4.552-6.765,9.165-7.31h0l20.266-1.169a5.609,5.609,0,0,1,3.656-2.25c.323-.078.729.392.747.7.083,1.43-.839,2.766,1.964,2.685a43,43,0,0,0,5.25-.447c.346-.065,1.532-.045.808,1a9.617,9.617,0,0,1-6.919,3.917,5.815,5.815,0,0,1-4.371-1.679c-6.481,2.9-18.3,6.187-25.012,6.382A7.723,7.723,0,0,1,1120.527,158.053Z" transform="translate(-1117.079 -141.256)" fill="#efb290"/>
      </g>
      <path id="Trazado_110132" data-name="Trazado 110132" d="M1094.841,180.234h30.775c.707,0,.565-1.968.472-2.246-.591-1.769-1.2-2.243-1.59-4.246a53.409,53.409,0,0,1-.975-10.3c0-11.6,3.49-22.565,8.073-29.032a27.154,27.154,0,0,0-16.083-15.811,10.164,10.164,0,0,1-6.639,2.282,9.89,9.89,0,0,1-7.112-2.732c-8.427,2.265-15.246,9.092-18.225,17.994,6.648,2.932,11.673,16.365,11.673,32.5,0,2.522-.127,4.975-.362,7.332a9.439,9.439,0,0,1-.74,2.3C1093.922,179.566,1094.471,180.234,1094.841,180.234Z" transform="translate(-1081.617 -91.946)" fill="#729edb"/>
      <g id="Grupo_87419" data-name="Grupo 87419" transform="translate(0 52.463)">
        <g id="Grupo_87418" data-name="Grupo 87418">
          <g id="Grupo_87417" data-name="Grupo 87417">
            <g id="Grupo_87416" data-name="Grupo 87416">
              <path id="Trazado_110133" data-name="Trazado 110133" d="M1095.867,141.916l-.366,11.646c-5.745,1.13-9.566,3.539-11.1,7.553q-2.871-4.1-2.571-13.307a48.151,48.151,0,0,1,.411-4.929Z" transform="translate(-1081.799 -141.916)" fill="#ea9f87"/>
            </g>
          </g>
        </g>
        <path id="Trazado_110134" data-name="Trazado 110134" d="M1084.1,160.5c1.541-6.733,5.54-7.767,10.526-8.1h0l21.79-.014a6.143,6.143,0,0,1,4.132-2.437c.354-.072.741.518.729.893-.054,1.713-1.172,3.245,1.835,3.339a41.374,41.374,0,0,0,5.657-.176c.377-.054,1.644.051.765,1.252-1.387,1.895-4.566,4.306-7.789,4.2a5.781,5.781,0,0,1-4.507-2.3c-7.219,3.019-20.187,6.14-27.382,5.915A7.6,7.6,0,0,1,1084.1,160.5Z" transform="translate(-1081.557 -141.074)" fill="#efb290"/>
      </g>
    </g>
    <circle id="Elipse_4395" data-name="Elipse 4395" cx="13.405" cy="13.405" r="13.405" transform="translate(1237.789 44.931)" fill="#eaf0f9"/>
    <g id="Grupo_87421" data-name="Grupo 87421" transform="translate(1298.493 152.781)">
      <rect id="Rectángulo_34157" data-name="Rectángulo 34157" width="60.762" height="43.371" transform="translate(0.207 11.123) rotate(-10.548)" fill="#def0fb"/>
      <path id="Trazado_110135" data-name="Trazado 110135" d="M1281.395,194.286l24.575-34.162,35.207,23.059Z" transform="translate(-1273.546 -140.697)" fill="#b2c4c7"/>
      <path id="Trazado_110136" data-name="Trazado 110136" d="M1281.532,194.14l24.654-32.893,34.825,21.847Z" transform="translate(-1273.532 -140.58)" fill="#fff"/>
      <path id="Trazado_110137" data-name="Trazado 110137" d="M1274.291,153.866l35.208,23.059,24.574-34.162Z" transform="translate(-1274.291 -142.518)" fill="#95b6b2"/>
      <path id="Trazado_110138" data-name="Trazado 110138" d="M1274.429,153.835l34.334,19.215,25.143-30.261Z" transform="translate(-1274.277 -142.516)" fill="#fff"/>
    </g>
    <g id="Grupo_87424" data-name="Grupo 87424" transform="translate(1156.292 87.519)">
      <g id="Grupo_87422" data-name="Grupo 87422" transform="translate(0 0)">
        <path id="Trazado_110139" data-name="Trazado 110139" d="M1160.561,84.454v7.491h1.62V84.454a.824.824,0,1,0-1.62,0Z" transform="translate(-1144.021 -83.476)" fill="#e5803c"/>
        <path id="Trazado_110140" data-name="Trazado 110140" d="M1160.561,114.667a.824.824,0,1,0,1.62,0v-7.042h-1.62Z" transform="translate(-1144.021 -80.943)" fill="#e5803c"/>
        <path id="Trazado_110141" data-name="Trazado 110141" d="M1145.591,99.256a.906.906,0,0,0,.978.81h7.491v-1.62h-7.491A.906.906,0,0,0,1145.591,99.256Z" transform="translate(-1145.591 -81.906)" fill="#e5803c"/>
        <path id="Trazado_110142" data-name="Trazado 110142" d="M1176.781,98.446h-7.042v1.62h7.042a.824.824,0,1,0,0-1.62Z" transform="translate(-1143.058 -81.906)" fill="#e5803c"/>
      </g>
      <g id="Grupo_87423" data-name="Grupo 87423" transform="translate(4.876 4.876)">
        <path id="Trazado_110143" data-name="Trazado 110143" d="M1150.329,89.359l5.3,5.3,1.146-1.146-5.3-5.3a.824.824,0,1,0-1.145,1.145Z" transform="translate(-1150.004 -87.889)" fill="#e5803c"/>
        <path id="Trazado_110144" data-name="Trazado 110144" d="M1171.727,110.757a.824.824,0,1,0,1.146-1.146l-4.979-4.979-1.146,1.146Z" transform="translate(-1148.248 -86.132)" fill="#e5803c"/>
        <path id="Trazado_110145" data-name="Trazado 110145" d="M1150.211,110.906a.905.905,0,0,0,1.263-.118l5.3-5.3-1.146-1.145-5.3,5.3A.906.906,0,0,0,1150.211,110.906Z" transform="translate(-1150.004 -86.163)" fill="#e5803c"/>
        <path id="Trazado_110146" data-name="Trazado 110146" d="M1171.727,88.214l-4.979,4.979,1.146,1.145,4.979-4.979a.824.824,0,1,0-1.146-1.145Z" transform="translate(-1148.248 -87.889)" fill="#e5803c"/>
      </g>
    </g>
  </g>
</svg>
