<svg xmlns="http://www.w3.org/2000/svg" width="367.79" height="280.914" viewBox="0 0 367.79 280.914">
  <g id="Grupo_87552" data-name="Grupo 87552" transform="translate(-714.86 -8302)">
    <g id="Grupo_87550" data-name="Grupo 87550" transform="translate(58.138 7979.687)">
      <path id="Trazado_110475" data-name="Trazado 110475" d="M1020.781,451.846c14.045,41.806-9.031,161.377-112.8,149.234-29.771-3.484-61.765-34.859-86.915-29.3s-38.114,30.552-84.391,20.6-54.971-53.285-43.387-84.881-15-42.683-11.53-69.853c3.17-24.85,38.378-29.141,55.462-48.108S762.7,332.6,799.026,333.5c40.468,1,36.366,51.929,90.962,46.339C950.323,373.658,1003.066,399.119,1020.781,451.846Z" transform="translate(0 1.286)" fill="#daeef7"/>
      <g id="Grupo_87536" data-name="Grupo 87536" transform="translate(738.621 364.128)">
        <path id="Trazado_110476" data-name="Trazado 110476" d="M900.091,584.194a6.828,6.828,0,0,1-6.916,6.733l-151.239,1.655A6.828,6.828,0,0,1,734.879,586l-2.16-197.417a6.836,6.836,0,0,1,6.911-6.739L890.87,380.19a6.834,6.834,0,0,1,7.062,6.587l2.159,197.417Z" transform="translate(-732.719 -357.465)" fill="#314572"/>
        <path id="Trazado_110477" data-name="Trazado 110477" d="M888.447,576.1a1.587,1.587,0,0,1-1.61,1.565l-141.006,1.542a1.587,1.587,0,0,1-1.645-1.529l-2.021-184.711a1.591,1.591,0,0,1,1.611-1.564l141-1.542a1.593,1.593,0,0,1,1.645,1.529Z" transform="translate(-731.631 -356.352)" fill="#fff"/>
        <path id="Trazado_110478" data-name="Trazado 110478" d="M825.639,379.715a14.015,14.015,0,0,0,1.034-5.414c-.088-8.1-7.053-14.581-15.535-14.489-8.5.094-15.3,6.725-15.215,14.825a14.012,14.012,0,0,0,1.144,5.389l-31.282.342.253,23.144,90.071-.986-.253-23.143Zm-14.208,1.191a6.926,6.926,0,1,1,7.188-7A7.1,7.1,0,0,1,811.431,380.906Z" transform="translate(-728.912 -359.811)" fill="#729edb"/>
        <g id="Grupo_87535" data-name="Grupo 87535" transform="translate(33.274 70.664)">
          <g id="Grupo_87525" data-name="Grupo 87525">
            <path id="Trazado_110479" data-name="Trazado 110479" d="M762.558,423.355l.174,22.367,22.367-.174-.174-22.368Zm2.859,19.639-.133-16.954,16.955-.133.132,16.954Z" transform="translate(-762.558 -423.18)" fill="#f4bb44"/>
            <rect id="Rectángulo_34179" data-name="Rectángulo 34179" width="27.616" height="3.385" transform="matrix(1, -0.008, 0.008, 1, 27.813, 3.411)" fill="#cec5cd"/>
            <g id="Grupo_87523" data-name="Grupo 87523" transform="translate(27.871 10.333)">
              <rect id="Rectángulo_34180" data-name="Rectángulo 34180" width="75.694" height="2.588" transform="matrix(1, -0.008, 0.008, 1, 0, 0.591)" fill="#cec5cd"/>
              <rect id="Rectángulo_34181" data-name="Rectángulo 34181" width="14.55" height="2.588" transform="matrix(1, -0.008, 0.008, 1, 39.402, 0.283)" fill="#cec5cd"/>
              <rect id="Rectángulo_34182" data-name="Rectángulo 34182" width="19.109" height="2.588" transform="matrix(1, -0.008, 0.008, 1, 56.583, 0.149)" fill="#cec5cd"/>
            </g>
            <g id="Grupo_87524" data-name="Grupo 87524" transform="translate(27.919 16.45)">
              <rect id="Rectángulo_34183" data-name="Rectángulo 34183" width="59.99" height="2.588" transform="matrix(1, -0.008, 0.008, 1, 0, 0.513)" fill="#cec5cd"/>
              <rect id="Rectángulo_34184" data-name="Rectángulo 34184" width="28.28" height="2.588" transform="matrix(1, -0.008, 0.008, 1, 37.352, 0.221)" fill="#cec5cd"/>
            </g>
            <path id="Trazado_110480" data-name="Trazado 110480" d="M779.784,430.786l-1.881-1.852-5.252,5.334-3.826-3.767-1.852,1.881,3.826,3.767-.021.022,1.881,1.852.021-.022.021.021,1.852-1.881-.022-.021Z" transform="translate(-762.05 -422.518)" fill="#f4bb44"/>
          </g>
          <g id="Grupo_87528" data-name="Grupo 87528" transform="translate(0.23 29.403)">
            <path id="Trazado_110481" data-name="Trazado 110481" d="M762.764,449.723l.174,22.367,22.367-.175-.174-22.367Zm2.859,19.639-.133-16.955,16.955-.132.132,16.954Z" transform="translate(-762.764 -449.548)" fill="#f0b644"/>
            <rect id="Rectángulo_34185" data-name="Rectángulo 34185" width="27.616" height="3.385" transform="matrix(1, -0.008, 0.008, 1, 27.813, 3.41)" fill="#cec5cd"/>
            <g id="Grupo_87526" data-name="Grupo 87526" transform="translate(27.871 10.333)">
              <rect id="Rectángulo_34186" data-name="Rectángulo 34186" width="75.694" height="2.588" transform="matrix(1, -0.008, 0.008, 1, 0, 0.591)" fill="#cec5cd"/>
              <rect id="Rectángulo_34187" data-name="Rectángulo 34187" width="14.55" height="2.588" transform="matrix(1, -0.008, 0.008, 1, 39.402, 0.283)" fill="#cec5cd"/>
              <rect id="Rectángulo_34188" data-name="Rectángulo 34188" width="19.109" height="2.588" transform="matrix(1, -0.008, 0.008, 1, 56.583, 0.149)" fill="#cec5cd"/>
            </g>
            <g id="Grupo_87527" data-name="Grupo 87527" transform="translate(27.919 16.449)">
              <rect id="Rectángulo_34189" data-name="Rectángulo 34189" width="59.99" height="2.588" transform="matrix(1, -0.008, 0.008, 1, 0, 0.513)" fill="#cec5cd"/>
              <rect id="Rectángulo_34190" data-name="Rectángulo 34190" width="28.28" height="2.588" transform="matrix(1, -0.008, 0.008, 1, 37.352, 0.221)" fill="#cec5cd"/>
            </g>
            <path id="Trazado_110482" data-name="Trazado 110482" d="M779.99,457.154l-1.881-1.852-5.252,5.334-3.826-3.767-1.852,1.881,3.826,3.767-.021.022,1.881,1.852.021-.022.022.021,1.852-1.881-.022-.021Z" transform="translate(-762.256 -448.886)" fill="#f0b644"/>
          </g>
          <g id="Grupo_87531" data-name="Grupo 87531" transform="translate(0.465 59.554)">
            <path id="Trazado_110483" data-name="Trazado 110483" d="M762.975,476.761l.174,22.367,22.368-.174-.175-22.368Zm2.859,19.639-.133-16.954,16.955-.133.133,16.954Z" transform="translate(-762.975 -476.586)" fill="#f4bb44"/>
            <rect id="Rectángulo_34191" data-name="Rectángulo 34191" width="27.616" height="3.385" transform="matrix(1, -0.008, 0.008, 1, 27.813, 3.411)" fill="#cec5cd"/>
            <g id="Grupo_87529" data-name="Grupo 87529" transform="translate(27.872 10.333)">
              <rect id="Rectángulo_34192" data-name="Rectángulo 34192" width="75.694" height="2.588" transform="matrix(1, -0.008, 0.008, 1, 0, 0.591)" fill="#cec5cd"/>
              <rect id="Rectángulo_34193" data-name="Rectángulo 34193" width="14.55" height="2.588" transform="matrix(1, -0.008, 0.008, 1, 39.402, 0.283)" fill="#cec5cd"/>
              <rect id="Rectángulo_34194" data-name="Rectángulo 34194" width="19.109" height="2.588" transform="matrix(1, -0.008, 0.008, 1, 56.583, 0.149)" fill="#cec5cd"/>
            </g>
            <g id="Grupo_87530" data-name="Grupo 87530" transform="translate(27.919 16.45)">
              <rect id="Rectángulo_34195" data-name="Rectángulo 34195" width="59.99" height="2.588" transform="matrix(1, -0.008, 0.008, 1, 0, 0.513)" fill="#cec5cd"/>
              <rect id="Rectángulo_34196" data-name="Rectángulo 34196" width="28.28" height="2.588" transform="matrix(1, -0.008, 0.008, 1, 37.352, 0.221)" fill="#cec5cd"/>
            </g>
            <path id="Trazado_110484" data-name="Trazado 110484" d="M780.2,484.192l-1.881-1.852-5.252,5.334-3.826-3.767-1.852,1.881,3.826,3.767-.021.022,1.881,1.852.021-.022.022.021,1.852-1.881-.022-.021Z" transform="translate(-762.467 -475.924)" fill="#f4bb44"/>
          </g>
          <g id="Grupo_87534" data-name="Grupo 87534" transform="translate(0.874 90.428)">
            <path id="Trazado_110485" data-name="Trazado 110485" d="M763.342,504.448l.174,22.367,22.368-.174-.175-22.368Zm2.859,19.639-.132-16.954L783.024,507l.133,16.954Z" transform="translate(-763.342 -504.273)" fill="#f4bb44"/>
            <rect id="Rectángulo_34197" data-name="Rectángulo 34197" width="27.616" height="3.385" transform="matrix(1, -0.008, 0.008, 1, 27.813, 3.411)" fill="#cec5cd"/>
            <g id="Grupo_87532" data-name="Grupo 87532" transform="translate(27.872 10.333)">
              <rect id="Rectángulo_34198" data-name="Rectángulo 34198" width="75.694" height="2.588" transform="matrix(1, -0.008, 0.008, 1, 0, 0.591)" fill="#cec5cd"/>
              <rect id="Rectángulo_34199" data-name="Rectángulo 34199" width="14.55" height="2.588" transform="matrix(1, -0.008, 0.008, 1, 39.402, 0.283)" fill="#cec5cd"/>
              <rect id="Rectángulo_34200" data-name="Rectángulo 34200" width="19.109" height="2.588" transform="matrix(1, -0.008, 0.008, 1, 56.583, 0.149)" fill="#cec5cd"/>
            </g>
            <g id="Grupo_87533" data-name="Grupo 87533" transform="translate(27.919 16.449)">
              <rect id="Rectángulo_34201" data-name="Rectángulo 34201" width="59.99" height="2.588" transform="matrix(1, -0.008, 0.008, 1, 0, 0.513)" fill="#cec5cd"/>
              <rect id="Rectángulo_34202" data-name="Rectángulo 34202" width="28.28" height="2.588" transform="matrix(1, -0.008, 0.008, 1, 37.352, 0.221)" fill="#cec5cd"/>
            </g>
            <path id="Trazado_110486" data-name="Trazado 110486" d="M780.568,511.879l-1.881-1.852-5.252,5.334-3.826-3.767-1.852,1.881,3.826,3.767-.021.021,1.881,1.852.021-.021.021.021,1.852-1.881-.022-.021Z" transform="translate(-762.834 -503.611)" fill="#f4bb44"/>
          </g>
        </g>
      </g>
      <g id="Grupo_87546" data-name="Grupo 87546" transform="translate(892.661 394.136)">
        <path id="Trazado_110487" data-name="Trazado 110487" d="M904.96,559.171c4.524-9.021,7.795-22.7,8.927-38.566,7.21-11.1,12.225-28.337,13.37-48.153H906.669q-1.211,7.022-2.269,14.334c-3.94,27.285-5.469,52.587-4.814,72.386Z" transform="translate(-867.565 -376.852)" fill="#1e2d54"/>
        <path id="Trazado_110488" data-name="Trazado 110488" d="M942.538,514.057a138.67,138.67,0,0,0,1.37-19.646,136.448,136.448,0,0,0-1.819-22.51H914.523c2.98,13.426,8.465,29.818,16.04,46.866,7.478,16.832,15.754,31.509,23.483,42.338l5.337-2.847a133.736,133.736,0,0,0-6.129-21.94A127.916,127.916,0,0,0,942.538,514.057Z" transform="translate(-865.829 -376.916)" fill="#153f5e"/>
        <g id="Grupo_87540" data-name="Grupo 87540" transform="translate(0 45.559)">
          <g id="Grupo_87539" data-name="Grupo 87539">
            <g id="Grupo_87537" data-name="Grupo 87537" transform="translate(5.359)">
              <path id="Trazado_110489" data-name="Trazado 110489" d="M913.556,438.785a43.241,43.241,0,0,0,2.4-4.968l-11-6.24a41.8,41.8,0,0,0-2.4,3.727,38.65,38.65,0,0,0-3.817,9.1c-.8-.217-1.6-.429-2.431-.629-10.873-2.62-20.106-2.683-20.62-.139s7.883,6.732,18.756,9.353c.664.161,5.377,2.3,7.843,1.809S908.939,446.98,913.556,438.785Z" transform="translate(-875.662 -427.577)" fill="#ea9f87"/>
            </g>
            <g id="Grupo_87538" data-name="Grupo 87538" transform="translate(0 3.795)">
              <path id="Trazado_110490" data-name="Trazado 110490" d="M878.17,435.418s-.522-1.037-1.168-.109c-.757,1.088-1.845,1.192-2.8-.127a22.943,22.943,0,0,1-2.074-3.3c-.194-1-.847-1.134-1.006-.57-.546,1.944-.336,4.256,1.563,6.87s3.855,3.858,5.315,2.594C879.155,439.774,879.165,437.586,878.17,435.418Z" transform="translate(-870.856 -430.98)" fill="#ea9f87"/>
            </g>
          </g>
        </g>
        <path id="Trazado_110491" data-name="Trazado 110491" d="M946.832,436.229l8.948-4.931c-.319-9.969-8.738-18.312-20.161-20.936-1.178,2.088-4.057,3.564-7.428,3.564-3.419,0-6.329-1.521-7.475-3.656-10.809,2.341-19.014,9.785-20.377,18.924l10.948,5.221c-.123,14.837-8.934,39.865-6.983,43.229,2.141,3.691,37.519,4.428,40.561,3.691s-2.335-34.983-.355-44.934Z" transform="translate(-867.462 -384.011)" fill="#729edb"/>
        <g id="Grupo_87541" data-name="Grupo 87541" transform="translate(58.57 46.145)">
          <path id="Trazado_110492" data-name="Trazado 110492" d="M954.488,433.436a46.2,46.2,0,0,0-2.527-5.333l-11.735,6.725a47.122,47.122,0,0,0,1.529,4.575,40.367,40.367,0,0,0,4.983,9.219c-.66.629-1.324,1.271-1.99,1.944-8.748,8.812-14.438,17.616-12.709,19.663s10.226-3.438,18.975-12.25c.533-.537,5.131-3.747,6.244-6.406S958.252,442.863,954.488,433.436Z" transform="translate(-922.419 -428.103)" fill="#efb495"/>
          <path id="Trazado_110493" data-name="Trazado 110493" d="M931.1,462.122s-1.152-.133-.8,1.052a1.845,1.845,0,0,1-1.816,2.608,20.471,20.471,0,0,1-3.917-.029c-.926-.427-1.43.119-1.073.616,1.229,1.711,3.216,2.923,6.477,2.7s5.455-1.335,5.33-3.5C935.2,463.84,933.452,462.494,931.1,462.122Z" transform="translate(-923.38 -424.187)" fill="#efb495"/>
        </g>
        <g id="Grupo_87543" data-name="Grupo 87543" transform="translate(47.691)">
          <path id="Trazado_110494" data-name="Trazado 110494" d="M932.435,414.241a14.206,14.206,0,0,1-13.4-.438,10.565,10.565,0,0,0,1.308-5.244,9.618,9.618,0,0,0-2.3-6.591v-3.421h8.41C926.816,404.924,929.086,410.516,932.435,414.241Z" transform="translate(-913.116 -385.36)" fill="#ea9f86"/>
          <g id="Grupo_87542" data-name="Grupo 87542">
            <path id="Trazado_110495" data-name="Trazado 110495" d="M916.457,395.733c.767-4.212,5.009-3.447,8.1-2.778,1.987.429,3.708,1.124,4.455,3.607.446-.408.924.7,1.428.826,1.045.268,1.6.815,1.253,2.42s-1.467,3.66-2.511,3.392a1.348,1.348,0,0,1-.143-.061c-.364,1.285-.176,2.408-.953,3.312a9.488,9.488,0,0,1-6.4,2.776C915.331,409.312,915.69,399.945,916.457,395.733Z" transform="translate(-913.345 -386.064)" fill="#ebb190"/>
            <path id="Trazado_110496" data-name="Trazado 110496" d="M913.674,390.964c.52-3.421,7.288-4.709,12.354-4.095l1.014.123a7.867,7.867,0,0,1,4.108,2.58,13.437,13.437,0,0,1,2.315,8.86c-.32,3.345-2.222,5.641-3.79,5.718a.909.909,0,0,1-.828-.423,2.784,2.784,0,0,0,1.5-1.347c.643-1.169.534-2.5-.244-2.971a1.779,1.779,0,0,0-2.173.7c-.527-2.595-1.615-5.336-6.211-4.51C916.692,396.5,913.155,394.386,913.674,390.964Z" transform="translate(-913.624 -386.721)" fill="#1c3054"/>
          </g>
        </g>
        <g id="Grupo_87544" data-name="Grupo 87544" transform="translate(18.308 179.088)">
          <path id="Trazado_110497" data-name="Trazado 110497" d="M899.955,554.12l3.571,1.194,1.848-6.586-4.2-1.406Z" transform="translate(-885.814 -547.321)" fill="#ea9f88"/>
          <path id="Trazado_110498" data-name="Trazado 110498" d="M908.64,558.465l-1.548-4.757a11.986,11.986,0,0,1-3.678.323c-1.394-.23-1.389-1.618-1.944-2.537h-1.859s-2.44,4.726-7.229,5.9H888.8c-.836,0-1.521,1.1-1.521,2.439v1.084h15.084l.76-1.447h.422v1.447h5.366v-1.084A3.524,3.524,0,0,0,908.64,558.465Z" transform="translate(-887.274 -546.841)" fill="#16415d"/>
        </g>
        <g id="Grupo_87545" data-name="Grupo 87545" transform="translate(78.929 180.093)">
          <path id="Trazado_110499" data-name="Trazado 110499" d="M951.879,555.411l3.723-.321-.5-6.867-4.384.378Z" transform="translate(-940.591 -548.223)" fill="#ea9f88"/>
          <path id="Trazado_110500" data-name="Trazado 110500" d="M961.268,556.489l-3.04-3.8a12.657,12.657,0,0,1-3.312,1.775c-1.374.344-1.837-.949-2.661-1.581l-1.73.746s-.679,5.373-4.738,8.389l-3.337,1.438c-.778.336-1.046,1.63-.594,2.878l.365,1.008,14.029-6.046.221-1.652.394-.169.486,1.346,4.991-2.151-.365-1.008A3.289,3.289,0,0,0,961.268,556.489Z" transform="translate(-941.637 -547.709)" fill="#16415d"/>
        </g>
      </g>
      <g id="Grupo_87549" data-name="Grupo 87549" transform="translate(886.584 322.313)">
        <g id="Grupo_87547" data-name="Grupo 87547">
          <path id="Trazado_110501" data-name="Trazado 110501" d="M880.377,323.3v7.561h1.635V323.3a.832.832,0,1,0-1.635,0Z" transform="translate(-863.684 -322.313)" fill="#e5803c"/>
          <path id="Trazado_110502" data-name="Trazado 110502" d="M880.377,353.569a.832.832,0,1,0,1.635,0v-7.107h-1.635Z" transform="translate(-863.684 -319.533)" fill="#e5803c"/>
          <path id="Trazado_110503" data-name="Trazado 110503" d="M865.407,338.1a.914.914,0,0,0,.987.817h7.561v-1.635h-7.561A.914.914,0,0,0,865.407,338.1Z" transform="translate(-865.407 -320.59)" fill="#e5803c"/>
          <path id="Trazado_110504" data-name="Trazado 110504" d="M896.662,337.283h-7.105v1.635h7.105a.832.832,0,1,0,0-1.635Z" transform="translate(-862.627 -320.59)" fill="#e5803c"/>
        </g>
        <g id="Grupo_87548" data-name="Grupo 87548" transform="translate(4.92 4.921)">
          <path id="Trazado_110505" data-name="Trazado 110505" d="M870.148,328.209l5.346,5.347,1.156-1.156-5.347-5.346a.831.831,0,1,0-1.155,1.155Z" transform="translate(-869.819 -326.726)" fill="#e5803c"/>
          <path id="Trazado_110506" data-name="Trazado 110506" d="M891.589,349.651a.832.832,0,1,0,1.155-1.156l-5.025-5.025-1.155,1.156Z" transform="translate(-867.892 -324.798)" fill="#e5803c"/>
          <path id="Trazado_110507" data-name="Trazado 110507" d="M870.028,349.8a.915.915,0,0,0,1.276-.119l5.347-5.347-1.156-1.155-5.346,5.346A.914.914,0,0,0,870.028,349.8Z" transform="translate(-869.819 -324.831)" fill="#e5803c"/>
          <path id="Trazado_110508" data-name="Trazado 110508" d="M891.589,327.054l-5.025,5.025,1.155,1.155,5.025-5.025a.831.831,0,1,0-1.155-1.155Z" transform="translate(-867.892 -326.726)" fill="#e5803c"/>
        </g>
      </g>
      <circle id="Elipse_4419" data-name="Elipse 4419" cx="13.529" cy="13.529" r="13.529" transform="translate(692.506 343.939)" fill="#eaf0f9"/>
    </g>
    <g id="Grupo_87551" data-name="Grupo 87551" transform="translate(-369.256 7691.839)">
      <path id="Trazado_110509" data-name="Trazado 110509" d="M1153.2,711.4l-8,20.8s-22.083-17.852-29.232-15.785l.24,10.4L1140.8,742.3s8.309,3.8,11.158-3.722l9.393-24.814Z" transform="translate(3.954 3.545)" fill="#ed971b"/>
      <path id="Trazado_110510" data-name="Trazado 110510" d="M1150.559,701.862l2.375-.632.807,4.159,3.157-5.285.163-2.513,2.872,2.208,1.083,5.677-2.384,5.335-2.764,4.238-5.353-.425Z" transform="translate(8.24 1.832)" fill="#e8bea9"/>
      <path id="Trazado_110511" data-name="Trazado 110511" d="M1114.045,867.952a9.348,9.348,0,0,1-5.609-.076s-.477,1.525-3.029-.628,2.941-3.149,2.941-3.149l8.145-1.253,2.416.316s5.09,2.745,1.594,3.3A35.5,35.5,0,0,0,1114.045,867.952Z" transform="translate(2.558 22.339)" fill="#19132e"/>
      <path id="Trazado_110512" data-name="Trazado 110512" d="M1108.219,813.656h12.549l-8.56,54.576a.582.582,0,0,1,.577.212c.245.4-.158,1.225-.93,2.037l-.013.088-.091.02a7.69,7.69,0,0,1-.576.522c-1.2.972-2.419,1.357-2.727.858a.767.767,0,0,1-.006-.638l-.224.051Z" transform="translate(2.991 16.235)" fill="#ecb5a1"/>
      <path id="Trazado_110513" data-name="Trazado 110513" d="M1098.133,868.456a7.732,7.732,0,0,1-4.5-.193s-.055.165-2.037-1.322,2.263-3.259,2.263-3.259l6.8-.465,1.963.546s3.968,3.222,1.048,3.437S1100.138,867.974,1098.133,868.456Z" transform="translate(0.863 22.385)" fill="#19132e"/>
      <path id="Trazado_110514" data-name="Trazado 110514" d="M1093.9,813.752h12.551l-8.561,54.576a.582.582,0,0,1,.578.214c.244.395-.158,1.224-.93,2.036l-.015.088-.09.02a7.288,7.288,0,0,1-.577.521c-1.2.972-2.418,1.357-2.726.859a.765.765,0,0,1-.006-.64l-.225.051Z" transform="translate(1.214 16.247)" fill="#ecb5a1"/>
      <path id="Trazado_110515" data-name="Trazado 110515" d="M1091.069,824.2s11.421-.558,21.857-.279a55.739,55.739,0,0,0,18.209-2.464,42.133,42.133,0,0,1-2.128-15.8c.443-9.183,1.345-20.746.092-29.386s-7.532-19.955-7.532-19.955h-24.518s-6.191,7.867-7.431,28.1A229.061,229.061,0,0,0,1091.069,824.2Z" transform="translate(0.642 9.119)" fill="#314572"/>
      <path id="Trazado_110516" data-name="Trazado 110516" d="M1094.044,760.306c-3.022,4.537,30.222,1.538,30.222,1.538s4.841-4.666.657-22.626-2.568-23.423-2.568-23.423l-25.538-1.538s-5.081,10.99-4.911,18.023S1097.064,755.77,1094.044,760.306Z" transform="translate(0.966 3.9)" fill="#ed971b"/>
      <path id="Trazado_110517" data-name="Trazado 110517" d="M1084.116,749.716s5.224-27.312,13.942-32.513.461,14.6.461,14.6l-5.764,17.53,4.085,10.354s-1.592,10.082-3.692,9.346S1084.116,749.716,1084.116,749.716Z" transform="translate(0 4.157)" fill="#ed971b"/>
      <ellipse id="Elipse_4420" data-name="Elipse 4420" cx="7.847" cy="4.857" rx="7.847" ry="4.857" transform="matrix(0.06, -0.998, 0.998, 0.06, 1112.949, 711.489)" fill="#ecb5a1"/>
      <path id="Trazado_110518" data-name="Trazado 110518" d="M1098.017,707.211c1.406-2.282.611-3.659-.538-6.293s-.537-5.971-.414-8.026c.359-5.953,6.2-10.445,13.042-10.034s12.1,5.573,11.745,11.526c-.246,4.076-3.487,5.653-5.029,7.967s-.6,3.859,0,6.335,1.507,5.223,1.306,8.576c-.381,6.332-6.326,11.125-13.279,10.706s-12.278-5.89-11.9-12.221C1093.167,712.206,1096.612,709.493,1098.017,707.211Z" transform="translate(1.094)" fill="#314572"/>
    </g>
  </g>
</svg>
