<svg xmlns="http://www.w3.org/2000/svg" xmlns:xlink="http://www.w3.org/1999/xlink" width="620.714" height="307.497" viewBox="0 0 620.714 307.497">
  <defs>
    <linearGradient id="linear-gradient" x1="-40.096" y1="0.505" x2="-40.604" y2="0.545" gradientUnits="objectBoundingBox">
      <stop offset="0" stop-color="#f58e4d"/>
      <stop offset="1" stop-color="#ffb988"/>
    </linearGradient>
  </defs>
  <g id="Grupo_87482" data-name="Grupo 87482" transform="translate(-309.345 -57.711)">
    <path id="Trazado_110242" data-name="Trazado 110242" d="M1126.9,454.122s7.948-63.31-2.386-105.272S1047,295.085,998.775,312.133s-60.12,66.98-38.116,98.2c18.952,26.891,67.958,31.729,99.93,24.267C1107.624,423.621,1126.9,454.122,1126.9,454.122Z" transform="translate(-494.045 -190.39)" fill="#95dbe2"/>
    <g id="Grupo_87457" data-name="Grupo 87457" transform="translate(468.538 226.974)">
      <path id="Trazado_110243" data-name="Trazado 110243" d="M1119.969,806.931s14.2,5.065,1.079,14.906S1119.969,806.931,1119.969,806.931Z" transform="translate(-1089.738 -804.715)" fill="#144665"/>
      <path id="Trazado_110244" data-name="Trazado 110244" d="M1085.555,870.7s-6.356,17.43-6.376,19.461c-1.682,3.609-12.752-9.387-12.752-9.387a8.792,8.792,0,0,0,2.668-5.38c.324-3.35-.953-17.15-.953-17.15Z" transform="translate(-1052.342 -844.284)" fill="#e1b39d"/>
      <path id="Trazado_110245" data-name="Trazado 110245" d="M1087.041,840.989s-2.909-3.331-4.8.41,4.505,5.481,4.505,5.481,3.513,6.717,7.326,6.855c2.281.083,6.188.6,6.57.645a.809.809,0,0,0,.865-.637c.048-.383,1.428-9.267,1.428-9.267s2.315-.525,1.192-1.565c-5.835-5.4-3.188-11.578-9.631-13.69Z" transform="translate(-1064.264 -821.904)" fill="#f0c0a7"/>
      <path id="Trazado_110246" data-name="Trazado 110246" d="M1051.644,819.123a4.12,4.12,0,0,1-3.633-1.791c-1.33-2.016-3.531-2.933-4.671-1.29s1.316,6.282.438,8.728a3.765,3.765,0,0,1-2.4,2.518,14.612,14.612,0,0,0-3.929-2.747c-1.932-.772-8.614-14.648-6.625-16.894s11.5-9.107,18.135-10.239,7.656,3.848,4.793,9.963A23.16,23.16,0,0,0,1051.644,819.123Z" transform="translate(-1024.602 -797.248)" fill="#144665"/>
      <path id="Trazado_110247" data-name="Trazado 110247" d="M1013.344,845.513s-8.205-2.608-8.451,5.738,6,20.733,5.731,23.213-2.673,4.705,3.487,1.826-2.6-18.783-2.052-21.745a9.356,9.356,0,0,1,2.013-4.5Z" transform="translate(-1004.886 -834.169)" fill="#144665"/>
    </g>
    <path id="Trazado_110248" data-name="Trazado 110248" d="M1730.077,226.649s11.682-60.429,4.785-107.165C1726.5,62.82,1651.678,44.4,1605.063,67.3s-52.557,78.413-24.255,115.405,71.259,16.746,88.944,11.716C1699.759,185.881,1730.077,226.649,1730.077,226.649Z" transform="translate(-967.257 0)" fill="#ccefff"/>
    <path id="Trazado_110249" data-name="Trazado 110249" d="M1058.572,238.1s17.362-26.711,44.073-28.047,54-11.128,59.346-45.853-31.3-50.307-84.722-35.616S1058.572,238.1,1058.572,238.1Z" transform="translate(-569.192 -50.394)" fill="#db6e5f"/>
    <g id="Grupo_87458" data-name="Grupo 87458" transform="translate(494.888 104.7)">
      <path id="Trazado_110250" data-name="Trazado 110250" d="M1195.086,265.76a2.747,2.747,0,0,1-2.747,2.747H1122.76a2.747,2.747,0,0,1-2.746-2.747h0a2.746,2.746,0,0,1,2.746-2.747h69.579a2.746,2.746,0,0,1,2.747,2.747Z" transform="translate(-1120.014 -263.013)" fill="#95dbe2"/>
      <path id="Trazado_110251" data-name="Trazado 110251" d="M1195.086,339.76a2.747,2.747,0,0,1-2.747,2.747H1122.76a2.747,2.747,0,0,1-2.746-2.747h0a2.747,2.747,0,0,1,2.746-2.747h69.579a2.747,2.747,0,0,1,2.747,2.747Z" transform="translate(-1120.014 -320.076)" fill="#95dbe2"/>
      <path id="Trazado_110252" data-name="Trazado 110252" d="M1161.67,413.76a2.747,2.747,0,0,1-2.747,2.746H1122.76a2.747,2.747,0,0,1-2.746-2.746h0a2.747,2.747,0,0,1,2.746-2.747h36.163a2.747,2.747,0,0,1,2.747,2.747Z" transform="translate(-1120.014 -377.139)" fill="#95dbe2"/>
    </g>
    <path id="Trazado_110253" data-name="Trazado 110253" d="M477.385,379.159s6.046-58.967,2.809-85.023c-3.14-25.28-13.765-37.671-49.361-47.366s-98.2-12.058-101.1,19.559S317.676,370.212,385.614,366.2c31.838-1.879,73.87-8.426,73.87-8.426Z" transform="translate(-14.117 -140.839)" fill="#f8eeba"/>
    <g id="Grupo_87461" data-name="Grupo 87461" transform="translate(391.436 177.133)">
      <g id="Grupo_87459" data-name="Grupo 87459" transform="translate(1.873 132.621)">
        <path id="Trazado_110254" data-name="Trazado 110254" d="M680.059,1251.448c3.879-18.141-2.083-30.283-.129-38.1s7.456-5.745,7.456-5.745l11.878,43.844Z" transform="translate(-678.763 -1196.271)" fill="#003853"/>
        <path id="Trazado_110255" data-name="Trazado 110255" d="M730.352,1214.1c-2.232-18.443-9.579-52.441-9.579-52.441l-39.862-2.735s-9.018,20.265-2.109,27.174c12.9,12.9,15.206,27.252,15.331,28Z" transform="translate(-676.196 -1158.926)" fill="#144665"/>
      </g>
      <path id="Trazado_110256" data-name="Trazado 110256" d="M762.471,1258.431l22.173,8.77s3.166,2.534,3.66,2.949.13.62-.256.587-4.759-.462-4.759-.462l-21.947-8.81Z" transform="translate(-739.983 -1103.035)" fill="#2b7895"/>
      <g id="Grupo_87460" data-name="Grupo 87460" transform="translate(0)">
        <path id="Trazado_110257" data-name="Trazado 110257" d="M720.543,837.735S731.214,792.216,727,775.1c-2.117-8.591-7.1-15.6-10.653-20.766-.228-.333.814-3.162.557-3.462-7.591-8.85-21.192-12.191-21.192-12.191s-.828,1.794-1.38,3.267c-6.39,7.577-19.654,24.239-18.234,38.583,2.82,28.486,5.787,46.2,5.787,46.2l-1.12,8.2Z" transform="translate(-674.164 -702.246)" fill="#fff"/>
        <path id="Trazado_110258" data-name="Trazado 110258" d="M787.455,1231.441s4.956,4.172,5.8,7.672,2.108,5.877.026,6.49c.016.4.426,1.41.627,2.8s-2.617,2.239-3.394.083c-.437-1.218-1.479.277-2.518-.427s-2.136-1.667-3.015-1.415-1.41-.4-1.755-1.2-2.384-.071-2.6-3,1.265-9.093,1.265-9.093l-.927-2.655,4.954-1.717Z" transform="translate(-754.831 -1080.325)" fill="#f0c0a7"/>
        <path id="Trazado_110259" data-name="Trazado 110259" d="M734.068,919.246l5.8.368s-5.163-19.223-5.48-34.472-5.089-47.042-9.415-36.633C715.377,871.589,734.068,919.246,734.068,919.246Z" transform="translate(-709.823 -785.352)" fill="#d2e8f2"/>
        <path id="Trazado_110260" data-name="Trazado 110260" d="M688.486,752.958s11.137,5.975,6.818,24.2-8.388,35.613-8.388,35.613l13.694,51.145-8.627,3.017s-17.08-34.576-20.662-52.595-4.361-37.14-1.807-46.975C670.713,762.751,688.486,752.958,688.486,752.958Z" transform="translate(-668.015 -713.254)" fill="#fff"/>
        <path id="Trazado_110261" data-name="Trazado 110261" d="M779.625,844.683S795.2,873.017,798.4,879.469c12.332-2.577,16.588-.909,33.59-3.279.234,7.214-.805,9.916-.805,9.916s-26.35,9.542-35.621,8.739-30.612-35.81-30.612-35.81Z" transform="translate(-742.763 -783.985)" fill="#fff"/>
        <path id="Trazado_110262" data-name="Trazado 110262" d="M833.524,794.773s2.053.632,2.727,3.766a5.857,5.857,0,0,1-.2,3.347,60.317,60.317,0,0,1,9.174,26.637c2.563,24.727,4.14,45.829,4.14,45.829L841.6,883.1l-6.863-9.342a399.774,399.774,0,0,0,3.451-45.777c.241-16.822-4.459-25.235-4.459-25.235s-1.659-1.757-3.751-3.615A16.4,16.4,0,0,0,833.524,794.773Z" transform="translate(-792.908 -745.498)" fill="#e8ac4c"/>
        <path id="Trazado_110263" data-name="Trazado 110263" d="M792.788,662.175c-3.828-.315-8.257,7.723-10.321,14.6A58.989,58.989,0,0,0,766,666.189c1.757-3.617,1.125-8.728,1.125-8.728S785.923,622.791,792.788,662.175Z" transform="translate(-743.576 -628.739)" fill="#e1b39d"/>
        <path id="Trazado_110264" data-name="Trazado 110264" d="M805.973,601.414s-2.557-4.422-5.523-.588,3.229,8.076,3.229,8.076,3.044,9.522,7.342,10.511a56.659,56.659,0,0,0,8.535,1.157c.445.013,1.182-.038,1.32-.461s.793-12.336.793-12.336,1.8-.152,1.229-1.828a106.75,106.75,0,0,1-3.69-13.651s-7.314-8.459-10.3-5.36S805.973,601.414,805.973,601.414Z" transform="translate(-769.518 -584.701)" fill="#f0c0a7"/>
        <path id="Trazado_110265" data-name="Trazado 110265" d="M781.516,598.129s-2.488,2.977-3.557.4-3.232-2.632-4.885-1.016-.181,6.463-1.711,9.047c-1,1.693-5.517,2.921-6.279,3.021-.039-4.4-4.08-20.194.482-23.438,2.826-2.012,10.918-6.821,18.7-6.655s11.68,1.406,7.093,7.722C773.634,581.864,781.516,598.129,781.516,598.129Z" transform="translate(-741.565 -579.483)" fill="#144665"/>
        <path id="Trazado_110266" data-name="Trazado 110266" d="M778.831,756.259a15.4,15.4,0,0,1-6.5,4.523c-5.169-12.906-11.116-14.251-11.116-14.251s.123-.644.49-2.086C767.491,746.77,778.831,756.259,778.831,756.259Z" transform="translate(-739.881 -706.69)" fill="#d2e8f2"/>
      </g>
    </g>
    <path id="Trazado_110267" data-name="Trazado 110267" d="M2351.578,406.573s-2.441-57.823,2.338-91.99c3.809-27.232,19.889-41.2,59.635-49.442s77.948-7.035,85.743,27.754c7.443,33.221,17.56,108.382-57.242,104.005-45.456-2.66-69.432-12.295-69.432-12.295Z" transform="translate(-1574.332 -156.699)" fill="#95dbe2"/>
    <g id="Grupo_87462" data-name="Grupo 87462" transform="translate(807.763 201.124)">
      <path id="Trazado_110268" data-name="Trazado 110268" d="M2565.414,687.209a2.906,2.906,0,1,1-2.906-2.906A2.906,2.906,0,0,1,2565.414,687.209Z" transform="translate(-2542.988 -684.303)" fill="#fff"/>
      <path id="Trazado_110269" data-name="Trazado 110269" d="M2529.419,687.209a2.906,2.906,0,1,1-2.906-2.906A2.906,2.906,0,0,1,2529.419,687.209Z" transform="translate(-2515.231 -684.303)" fill="#fff"/>
      <path id="Trazado_110270" data-name="Trazado 110270" d="M2492.823,687.209a2.906,2.906,0,1,1-2.905-2.906A2.905,2.905,0,0,1,2492.823,687.209Z" transform="translate(-2487.012 -684.303)" fill="#fff"/>
    </g>
    <g id="Grupo_87463" data-name="Grupo 87463" transform="translate(386.765 169.082)">
      <path id="Trazado_110271" data-name="Trazado 110271" d="M647.608,547.212a2.906,2.906,0,1,1,2.906,2.906A2.906,2.906,0,0,1,647.608,547.212Z" transform="translate(-647.608 -544.307)" fill="#4cc5d4"/>
      <path id="Trazado_110272" data-name="Trazado 110272" d="M683.6,547.212a2.906,2.906,0,1,1,2.906,2.906A2.906,2.906,0,0,1,683.6,547.212Z" transform="translate(-675.364 -544.307)" fill="#4cc5d4"/>
      <path id="Trazado_110273" data-name="Trazado 110273" d="M720.2,547.212a2.906,2.906,0,1,1,2.906,2.906A2.906,2.906,0,0,1,720.2,547.212Z" transform="translate(-703.584 -544.307)" fill="#4cc5d4"/>
    </g>
    <g id="Grupo_87464" data-name="Grupo 87464" transform="translate(614.96 146.516)">
      <path id="Trazado_110274" data-name="Trazado 110274" d="M1658.905,471.972l-2.061-4.135s-1.216-18.984-.95-21.73c-.854-1.252-2.4.634-2.667,3.381-1.974.647-1.6,1.932-1.471,4.2s.921,6.026-.149,8.245c-.4.836-.835,1.509-2.3-1.232s-3.677-3.733-4.677-3.358c.225,1.142,3.664,8.459,4.29,10.946a3.006,3.006,0,0,0,2.7,2.513l3.408,6.171Z" transform="translate(-1644.627 -445.712)" fill="#f0c0a7"/>
      <path id="Trazado_110275" data-name="Trazado 110275" d="M1900.8,1107.492s29.038,9.047,34.145-2.335-28.454-8.025-28.454-8.025Z" transform="translate(-1842.169 -947.68)" fill="#305d81"/>
      <path id="Trazado_110276" data-name="Trazado 110276" d="M2072.638,548.817a6.574,6.574,0,0,1,8.255-4.223c3.517,1.1,8.15,4.823,10.375,11.062a16.409,16.409,0,0,1,.925,6.076c1.427,1.76,1.415,4.96.508,8.352-4.329,16.184-17.318,13.091-17.318,13.091s-7.451.122-11.751-13.3c-2.345-7.319,1.171-14.073,3.128-17.475C2068.307,550.238,2071.762,551.652,2072.638,548.817Z" transform="translate(-1967.132 -521.716)" fill="#144665"/>
      <path id="Trazado_110277" data-name="Trazado 110277" d="M1681.747,546.281a285.406,285.406,0,0,0,32.172,41.934c4.664,5.072-1.83,19.743-12.327,10.707s-25.673-46.9-25.673-46.9A14.514,14.514,0,0,1,1681.747,546.281Z" transform="translate(-1668.756 -523.263)" fill="#144665"/>
      <path id="Trazado_110278" data-name="Trazado 110278" d="M2186.65,813.285s3.092-39.892,11.441-19.792,15.461,41.129,15.152,48.859-8.24,18.464-11.641,4.858S2186.65,813.285,2186.65,813.285Z" transform="translate(-2062.593 -709.529)" fill="#144665"/>
      <path id="Trazado_110279" data-name="Trazado 110279" d="M1964.372,1109.842c-.168-2.017-.519-39.9-6.173-61.085-8.916-33.4-44.562-31.828-51.617-4.508-5.29,20.486-8.268,58.659-8.268,65.593h30.445c.063-1.1,1.223-16.012,1.532-18.486s3.3,17.562,3.384,18.486Z" transform="translate(-1840.251 -891.427)" fill="#144665"/>
      <path id="Trazado_110280" data-name="Trazado 110280" d="M1999.995,739.114s-12.988-17.729-21.852-21.234-35.048,2.474-35.048,2.474-3.092,17.317-.824,33.191-7.834,54.014-7.834,54.014,35.46,6.6,49.685,4.123C1988.451,775.4,1999.995,739.114,1999.995,739.114Z" transform="translate(-1868.105 -654.738)" fill="#fff"/>
      <path id="Trazado_110281" data-name="Trazado 110281" d="M2145.14,847.448s-6.771-17.695.651-40.167,14.109-35.2,14.772-40.929c.154-7.576-20.6-17.852-20.6-17.852s-12.554,49.16-8.811,90.942c1.223,13.651,8.729,10.17,10.172,9.758A23.96,23.96,0,0,0,2145.14,847.448Z" transform="translate(-2019.261 -679.199)" fill="#144665"/>
      <path id="Trazado_110282" data-name="Trazado 110282" d="M1912.252,718.67l5.916-1.285s-8.736,12.679-12.138,38.346c-2.308,17.415-15.325,46.73-18.625,52.3a163.052,163.052,0,0,0-7.215,14.637s-8.331-7.2-6.475-11.734,14.9-16.545,16.544-34.481-1.427-25.042-2.253-35.556,9.039-21.86,9.039-21.86Z" transform="translate(-1821.074 -655.205)" fill="#144665"/>
      <path id="Trazado_110283" data-name="Trazado 110283" d="M1839.311,721.689c-3.847-1.71-30.206-.635-44.322-1.417-10.516-.584-15.762,12.817-.854,16.361,11.726,2.788,20.5,5.564,30.55,13.63C1829.69,744.57,1843.158,723.4,1839.311,721.689Z" transform="translate(-1752.79 -657.417)" fill="#144665"/>
      <path id="Trazado_110284" data-name="Trazado 110284" d="M2097.813,670.028l-1.867,10.806s-5.863,6.924-11.275,6.357a39.294,39.294,0,0,1-6.03-8.968l3.711-14.431Z" transform="translate(-1979.305 -613.878)" fill="#e1b39d"/>
      <path id="Trazado_110285" data-name="Trazado 110285" d="M2074.376,596.017l-2.174-.916s-2.416.112-1.259,3.2,2.133,5.162,2.133,5.162,1.059,6.957,4.144,10.874c6.218,2.475,7.808,1.856,7.808,1.856s5.946-5.011,8.618-10.331c2.218-.721,5.721-9.2.155-7.035,3.2-13.169-5.753-13.808-15.307-14.535C2076.1,588.009,2074.376,596.017,2074.376,596.017Z" transform="translate(-1973.127 -552.579)" fill="#f0c0a7"/>
      <path id="Trazado_110286" data-name="Trazado 110286" d="M2032.213,769.064s-4.175.078-4.56,3.247a25.881,25.881,0,0,1,1,4.1,80.936,80.936,0,0,0-10.689,29.861c-3.547,25.989-7.154,42.736-7.154,42.736l8.508,12.956,8.879-9.426a421.866,421.866,0,0,1-2.076-48.39c.32-17.746,5.238-26.809,5.238-26.809s2.135-1.444,4.4-3.332A15.389,15.389,0,0,1,2032.213,769.064Z" transform="translate(-1927.002 -695.056)" fill="#e8ac4c"/>
      <path id="Trazado_110287" data-name="Trazado 110287" d="M2054.018,1040.314c-7.753-1.419-6.8-7.215-6.8-7.215s32.306,6.377,31.117,8.539S2061.771,1041.733,2054.018,1040.314Z" transform="translate(-1955.043 -898.659)" fill="#d2e8f2" style="mix-blend-mode: multiply;isolation: isolate"/>
      <path id="Trazado_110288" data-name="Trazado 110288" d="M1946.045,998.7a124.287,124.287,0,0,0-17.933-2.262c.418,3.294,7.289,3.358,7.289,3.358s-15.8,7.166-16.506,7.593-.164,2.056-.164,2.056-1.862,1.276-.268,1.618,9.747-2.109,9.747-2.109-5.312,2.7-5.847,2.855.57,2.044,4.951.754c1.666-.492,13.848-2.516,15.191-7.279.513-.082,3.946-.192,3.946-.192Z" transform="translate(-1855.29 -870.387)" fill="#f0c0a7"/>
      <path id="Trazado_110289" data-name="Trazado 110289" d="M2030.58,865l46.024.583s-6-15.143-10.07-24.608S2083.318,824,2083.318,824s11.582,42.549,11.865,50.793-15.551,9.391-31.92,4.992-32-6.774-32-6.774Z" transform="translate(-1942.244 -737.418)" fill="#144665"/>
      <path id="Trazado_110290" data-name="Trazado 110290" d="M2110.389,744.169s.7,1.98,4.987,4.617c4.258-4.329,8.466-8.7,8.466-8.7s-1.221-3.6-2.1-4.088C2120.584,740.561,2110.389,744.169,2110.389,744.169Z" transform="translate(-2003.787 -669.56)" fill="#d2e8f2"/>
      <path id="Trazado_110291" data-name="Trazado 110291" d="M2135.467,810.1c5.842-8.438,13.238-26.678,13.238-26.678l-3.759-4.958,3.249-3.356-.259-4.513-4.852-5.3S2135.075,796.669,2135.467,810.1Z" transform="translate(-2023.114 -692.151)" fill="#305d81"/>
      <path id="Trazado_110292" data-name="Trazado 110292" d="M2005.214,774.18c-1.545-10.146-1.408-28.758-1.408-28.758l5.554-2.805-1.445-4.442,2.213-3.942,6.624-2.144S2008.018,758.13,2005.214,774.18Z" transform="translate(-1921.595 -666.544)" fill="#305d81"/>
    </g>
    <g id="Grupo_87465" data-name="Grupo 87465" transform="translate(521.48 180.367)">
      <path id="Trazado_110293" data-name="Trazado 110293" d="M1311.562,1009.97c15.219,33.824-.014,72.084,1.278,88.883h-30.562s-28.864-57.01-1.728-88.883A269.427,269.427,0,0,1,1311.562,1009.97Z" transform="translate(-1261.432 -914.327)" fill="#144665"/>
      <path id="Trazado_110294" data-name="Trazado 110294" d="M1257.073,825.776s.4-3.339-5.183-11.113-17.271-22.976-12.985-30.651,13.132-12.888,30.176-12.689,27.76-.017,29.952,12.642-9.369,33.19-11.462,41.362S1257.073,825.776,1257.073,825.776Z" transform="translate(-1237.573 -730.646)" fill="#fff"/>
      <path id="Trazado_110295" data-name="Trazado 110295" d="M1321.386,641.2c3.19-1.462,6.723-3.274,5.128-8.457s-7.829-8.774-7.7-14.356,2.159-12.184-4.884-20.424-13.69-2.244-13.69-2.244-4.563-1.571-8.677,7.107c-2.411,5.085-.487,10.153-2.878,14.006s-.563,5.257-3.822,9.568c-4.618,6.109-.86,10.388-.222,10.915,6.133-2.553,18-3.872,24.908-2.809s6.683,6.567,6.616,9.358Z" transform="translate(-1271.979 -593.615)" fill="#144665"/>
      <path id="Trazado_110296" data-name="Trazado 110296" d="M1304.031,892.891s5.182,6.777,11.362,4.186,10.764-4.186,14.552-2.791,10.365-2.392,10.365-2.392l1.2,18.539-35.881,4.983-3.389-6.179Z" transform="translate(-1287.122 -823.625)" fill="#d2e8f2"/>
      <path id="Trazado_110297" data-name="Trazado 110297" d="M1236.341,818.491c-1.266-7.107,6.155-16.7,11.716-2.382s7.294,20.5,7.109,27.243-7.024,5.5-10.851-.881S1237.607,825.6,1236.341,818.491Z" transform="translate(-1236.198 -759.467)" fill="#e1b39d"/>
      <path id="Trazado_110298" data-name="Trazado 110298" d="M1305.461,969.238c9.7-.531,26.845-4.518,35.482-3.854s14.751,7.575,3.854,9.834-40.964-1.3-40.964-1.3S1304.8,971.1,1305.461,969.238Z" transform="translate(-1288.353 -880.237)" fill="#f0c0a7"/>
      <path id="Trazado_110299" data-name="Trazado 110299" d="M1455.645,802.3c.4-8.372,9.169-18.472,11.3-.8s3.007,26.811,1.279,34.386-8.057,3.887-10.316-4.352S1455.246,810.674,1455.645,802.3Z" transform="translate(-1405.314 -746.392)" fill="#f0c0a7"/>
      <path id="Trazado_110300" data-name="Trazado 110300" d="M1267.668,980.255c-2.89,2.192-6.624,4.58-8.731,5.307s-2.471-1.3-2.267-2.072c.413-1.576-1.676-1.718-1.386-3.115.4-1.909-1.636-2.774.079-3.642a13.561,13.561,0,0,1,4.3-1.1s2.822-2.854,4.959-1.636,2.535,1.628,3.551,1.673S1270.558,978.063,1267.668,980.255Z" transform="translate(-1250.437 -886.705)" fill="#f0c0a7"/>
      <path id="Trazado_110301" data-name="Trazado 110301" d="M1350.011,711.966c-1.007,1.045-2.075,2.316-3.678,1.812-1.789-.568-1.865-.518-3.09.1a4.869,4.869,0,0,1-5.316-.93c1.547,6.62-.564,12.492-3.654,14.286-1.3,2.591,1.3,8.87,9.967,8.87,6.781,0,7.612-6.1,7.612-9.189C1346.57,723.626,1350.162,713.665,1350.011,711.966Z" transform="translate(-1311.584 -684.878)" fill="#e1b39d"/>
      <path id="Trazado_110302" data-name="Trazado 110302" d="M1340.176,635.691a9.908,9.908,0,0,0-.607,3.471c-.061.62-.416.748-.884,1.1-1.452,1.009-.021,3.039,1.05,5.245-.013,1.921,1.108,5.454,4.254,8.835,2.139,2.262,6.938,2.362,8.778-.151s4.017-6.815,4.044-9.84c.113-.856.059-4.9-1.147-6.087-1.145-4.02-2.261-8.112-5-7.841-.839,1.676-.839,2.948-2.934,4.219C1345.142,636.216,1341.9,635.542,1340.176,635.691Z" transform="translate(-1314.753 -621.99)" fill="#f0c0a7"/>
      <path id="Trazado_110303" data-name="Trazado 110303" d="M1299.417,784.534c-1.359,9.62-.217,27.852-2.542,36.2s-11.373,13.237-11.478,2.109,10.432-37.941,10.432-37.941S1297.72,783.522,1299.417,784.534Z" transform="translate(-1274.135 -740.551)" fill="#f0c0a7"/>
      <path id="Trazado_110304" data-name="Trazado 110304" d="M1328.683,741.666a6.56,6.56,0,0,0,2.556-4.28,18.709,18.709,0,0,1,.932-4.358c.143-.525-1.629-.052-2.077,1.18a23.514,23.514,0,0,1-1.577,3.107s-1.661-3.622,1.178-5.291c1.887-1.11,3.685-1.3,3.161-2.662-1.6.4-2.347.581-2.347.581s1.192-1.645.345-2.059a35.091,35.091,0,0,0-6,4.523,7.654,7.654,0,0,0-1.95,7.589,17.618,17.618,0,0,1,.965,4l3.289.665A8.557,8.557,0,0,1,1328.683,741.666Z" transform="translate(-1302.804 -697.151)" fill="#f0c0a7"/>
    </g>
    <g id="Grupo_87469" data-name="Grupo 87469" transform="translate(689.365 296.877)">
      <g id="Grupo_87467" data-name="Grupo 87467" transform="translate(0)">
        <g id="Grupo_87466" data-name="Grupo 87466">
          <path id="Trazado_110305" data-name="Trazado 110305" d="M2010.984,1133.993s-8.038-28.778-8.251-29.7a2.239,2.239,0,0,0-2.518-1.617c-1.624.11-28.808-.058-29.511.08a1.189,1.189,0,0,0-.94,1.507c.216.682,8.661,30.2,8.661,30.2Z" transform="translate(-1969.712 -1102.663)" fill="#003853"/>
          <path id="Trazado_110306" data-name="Trazado 110306" d="M2063.438,1239.945l-23.109-.433-32.547.475s.4,2.752,2.307,2.917c3.28.042,50.433-.048,51.612,0C2063.256,1242.968,2063.438,1239.945,2063.438,1239.945Z" transform="translate(-1999.069 -1208.19)" fill="#003853"/>
        </g>
        <path id="Trazado_110307" data-name="Trazado 110307" d="M2010.684,1111.785l-27.5-.092,8.552,29.618,27.061-.073Z" transform="translate(-1980.097 -1109.626)" fill="#fff"/>
      </g>
      <g id="Grupo_87468" data-name="Grupo 87468" transform="translate(9.864 9.413)">
        <path id="Trazado_110308" data-name="Trazado 110308" d="M2017.086,1203.616h-4.276l1.25,4.435h4.276Z" transform="translate(-2012.811 -1189.924)" fill="#aedeeb"/>
        <path id="Trazado_110309" data-name="Trazado 110309" d="M2040.93,1186.279h-4.275l2.372,8.4h4.274Z" transform="translate(-2031.197 -1176.555)" fill="#68c2d4"/>
        <path id="Trazado_110310" data-name="Trazado 110310" d="M2061.4,1160.784h-4.276l4.018,14.238h4.275Z" transform="translate(-2046.979 -1156.895)" fill="#6ba1c4"/>
        <path id="Trazado_110311" data-name="Trazado 110311" d="M2085.345,1143.792h-4.274l5.114,18.127h4.274Z" transform="translate(-2065.447 -1143.792)" fill="#fcce5b"/>
      </g>
    </g>
    <path id="Trazado_110312" data-name="Trazado 110312" d="M1147.466,1261.667h303.071c3.028,0,3.206-7.075,0-7.075H1147.466C1144.267,1254.592,1144.7,1261.667,1147.466,1261.667Z" transform="translate(-644.567 -922.942)" fill="#2ea5ba"/>
    <path id="Trazado_110313" data-name="Trazado 110313" d="M1028.007,1214.31s24.215,1.416,28.56,1.552a69.389,69.389,0,0,1,12.038,1.44c1.347-1.436-3.068-2.869-3.068-2.869s3.151-.171,5.492-.422c1,.39,1.885.76,2.585,1.1,2.418,1.169,3.38,1.7,4.011.618.053-.829-4.289-3.729-5.164-4.316-3.086-2.062-4.571-2.728-6.476-2.139-1.107.342-8.743,2.328-8.743,2.328l-28.97-5.118Z" transform="translate(-554.177 -885.844)" fill="#f0c0a7"/>
    <g id="Grupo_87471" data-name="Grupo 87471" transform="translate(542.103 296.067)">
      <g id="Grupo_87470" data-name="Grupo 87470" transform="translate(0)">
        <path id="Trazado_110314" data-name="Trazado 110314" d="M1401.384,1131.439s8.292-29.681,8.509-30.638a2.311,2.311,0,0,1,2.6-1.669c1.677.115,29.716-.061,30.442.084a1.224,1.224,0,0,1,.968,1.554c-.221.7-8.933,31.154-8.933,31.154Z" transform="translate(-1384.2 -1099.123)" fill="#003853"/>
        <path id="Trazado_110315" data-name="Trazado 110315" d="M1326.3,1240.737l17.2-.446,33.572.49s-.417,2.838-2.379,3.009c-3.383.04-45.382-.051-46.6,0C1326.493,1243.854,1326.3,1240.737,1326.3,1240.737Z" transform="translate(-1326.304 -1207.981)" fill="#003853"/>
      </g>
      <path id="Trazado_110316" data-name="Trazado 110316" d="M1421.363,1108.536l28.371-.093-8.82,30.55-27.914-.075Z" transform="translate(-1393.157 -1106.31)" fill="#b1dee8"/>
    </g>
    <g id="Grupo_87472" data-name="Grupo 87472" transform="translate(571.652 305.249)">
      <path id="Trazado_110317" data-name="Trazado 110317" d="M1466.749,1154.379l3.938-9.42c3.384,1.484,4.907,6.2,3.4,11.135-1.643,5.387-6.259,8.987-10.313,8.039-2.9-.677-4.714-3.495-4.919-7.013Z" transform="translate(-1458.068 -1143.65)" fill="#e1f2f7"/>
      <path id="Trazado_110318" data-name="Trazado 110318" d="M1459.991,1147.644c.007-.028.014-.057.023-.085,1.588-5.4,6.179-9.064,10.253-8.189a5.472,5.472,0,0,1,.974.317l-3.824,9.4Z" transform="translate(-1458.941 -1139.24)" fill="#fcce5b"/>
      <path id="Trazado_110319" data-name="Trazado 110319" d="M1463.343,1179.8l-.025.059-7.881,2.911a12.669,12.669,0,0,1,.464-4.364Z" transform="translate(-1455.405 -1169.446)" fill="#6ba1c4"/>
    </g>
    <path id="Trazado_110320" data-name="Trazado 110320" d="M1067.964,959.4s-.811-10.977-15.637-15.512c-3.23,4.708-4.853,6.019-4.853,6.019Z" transform="translate(-569.189 -683.355)" fill="#fff"/>
    <path id="Trazado_110321" data-name="Trazado 110321" d="M934.411,997.441c6.987-11.091,23.834-5.952,14.075,12.015s-15.588,27.182-15.588,27.182l8.839,1.271-1.808,12.2s-2.483-.151-10.246-.151-14.367-8.6-9.266-21.245S934.411,997.441,934.411,997.441Z" transform="translate(-469.827 -720.153)" fill="#003853"/>
    <path id="Trazado_110322" data-name="Trazado 110322" d="M1009.552,1037.716a134.772,134.772,0,0,1,3.624-31.7c12.533-2.853.658-34.133-5.188-38.833-3.891-3.128-7.833-5.684-14.152-5.684-4.158,4.158-14.992,13.3-14.992,35.59a304.2,304.2,0,0,1-2.421,39.093Z" transform="translate(-514.4 -696.932)" fill="#fff"/>
    <path id="Trazado_110323" data-name="Trazado 110323" d="M963.063,1049.631s13.018-26.449,17.138-44.3c2.147-9.285,2.947-33.447-2.9-38.146-3.891-3.128-7.833-5.684-14.152-5.684-4.3,1.517-19.4,4.313-17.852,26.55,2.174,31.242-7.638,56.775-8.668,63.3C953.107,1056.84,963.063,1049.631,963.063,1049.631Z" transform="translate(-483.713 -696.932)" fill="#144665"/>
    <path id="Trazado_110324" data-name="Trazado 110324" d="M979.424,1313.228c-9.4-11.425-6.6-25.755-6.6-25.755l33.617,1.546s41.611,13.094,46.26,14.426,8.61,3.036,9.583,10.062Z" transform="translate(-511.321 -948.297)" fill="#144665"/>
    <path id="Trazado_110325" data-name="Trazado 110325" d="M1293.114,1149.017a4.414,4.414,0,0,1,2.2.5c.342.22,3.151,2.531,3.384,2.817s1.235.9.915,1.312a1.318,1.318,0,0,1-1.708.179,26.986,26.986,0,0,1-3.117-2.328l-.808.01a8.656,8.656,0,0,1,1.25,1.034,57.524,57.524,0,0,1,3.208,5.574c-.08.295-.86.767-1.314.4a5,5,0,0,1-1.239-1.393c.219.494.892,2.259.933,2.412s-.49,1.225-1.144.864-2.711-4.094-2.711-4.094l-2.02-1.457s2.358,5.3,2.377,5.5-.476.748-.9.552c-1.533-.7-3.286-4.937-3.286-4.937a26.639,26.639,0,0,0-3.123-1.137c-1.588,1.1-3.741.352-5.907-.744-1.682-.586-40.4-6.539-40.4-6.539s-2.669-11.15-2.185-11.949c11.7,2.429,45.151,12.908,45.151,12.908S1292.422,1149.017,1293.114,1149.017Z" transform="translate(-715.687 -831.181)" fill="#f0c0a7"/>
    <path id="Trazado_110326" data-name="Trazado 110326" d="M1098.777,996.209c13.307,14.417,22.783,23.45,25.776,26.777a28.634,28.634,0,0,1,4.362,1.693l-3.616,13.108a69.679,69.679,0,0,1-10.17-2.712c-2.6-1.977-13-7.855-26.173-21.737C1072.542,996.038,1082.326,978.388,1098.777,996.209Z" transform="translate(-594.658 -717.967)" fill="#144665"/>
    <g id="Grupo_87473" data-name="Grupo 87473" transform="translate(337.12 230.969)">
      <path id="Trazado_110327" data-name="Trazado 110327" d="M430.7,833.141c1.357-.85,6.192-3.375,14.867.763-2.338,20.3,12.114,53.075,19.632,67.651,0,0,.007.005.01,0,2.429-.355,11.833,4.162,11.833,4.162s-.481,2.148-3,1.037c-2.537-1.119-3.007-.093-3.007-.093a22.762,22.762,0,0,1,1.933,2.5c.936,1.412,1.3,2.921.777,3.184-1.037.518-1.5,1.506-2.592,1.666-1.518.222-1.3,1.555-3.184.778a21.341,21.341,0,0,1-4.37-4.273,13.8,13.8,0,0,1-2.253-5.264l-.132-.67C442.4,879.348,432.911,860.986,430.7,833.141Z" transform="translate(-430.7 -827.732)" fill="#f0c0a7"/>
      <path id="Trazado_110328" data-name="Trazado 110328" d="M471.368,875.962s-12.16-38.325-11.389-53.129c-4.148-2.025-8.148-4.242-8.148-4.242L445.5,814.7s-5.555,30.241,18.013,65.881Z" transform="translate(-441.671 -814.703)" fill="#fff"/>
    </g>
    <path id="Trazado_110329" data-name="Trazado 110329" d="M397.124,766.544c2.185-.37,6.094-.677,6.094-.677s29.164,37.109,8.794,50.841c-9.777,19.054-10.733,30.005-10.733,30.005l-32.3-8.542s8.666-13.51,8.676-25c.385-4.953.2-9.423.157-15.6-1.13-5.033-4.2-17.822-3.235-19.712C375.909,775.245,388.761,769.118,397.124,766.544Z" transform="translate(-45.985 -546.075)" fill="#b1dee8"/>
    <path id="Trazado_110330" data-name="Trazado 110330" d="M379.208,788.308c7.22-4.665,11.372-6.183,19.735-8.756a4.757,4.757,0,0,1,2.814.148s22.256,30.841,4.492,49.1c-7.265,14.816-7.158,25.762-7.158,25.762l-29.435-5s8.511-14.452,8.521-25.944c.385-4.953.2-9.424.157-15.6C377.2,802.986,376.784,789.875,379.208,788.308Z" transform="translate(-46.507 -556.528)" fill="#b1dee8"/>
    <path id="Trazado_110331" data-name="Trazado 110331" d="M323.152,1082.816c-24.112,23.7-8.291,54.132-12.956,72.559h45.43c1.847-47.45.956-70.077.956-70.077S343.475,1085.853,323.152,1082.816Z" transform="translate(0 -790.482)" fill="#144665"/>
    <path id="Trazado_110332" data-name="Trazado 110332" d="M500.1,774.9c4.475,2.776,15.619,23.854,9.708,23.543a79.126,79.126,0,0,0-12.073-19.118C496.092,777.133,499.184,774.565,500.1,774.9Z" transform="translate(-144.908 -553.018)" fill="#f0c0a7"/>
    <path id="Trazado_110333" data-name="Trazado 110333" d="M386,895.246c1.518,6.461,1.831,22.43,1.831,22.43s13.733-13.046,12.394-29.255C399.356,877.9,387.907,892.321,386,895.246Z" transform="translate(-59.111 -637.659)" fill="#8ccad7"/>
    <g id="Grupo_87476" data-name="Grupo 87476" transform="translate(311.226 231.414)">
      <g id="Grupo_87474" data-name="Grupo 87474" transform="translate(3.754 0)">
        <path id="Trazado_110334" data-name="Trazado 110334" d="M339.573,961.594c-7.341-30.416-5.22-46.718,3.641-73.029,1.571-.245,5.092-2.752,11.409,4.419-10.074,17.644-11.4,51.153-10.226,67.407a.011.011,0,0,1,0,.005c.723.927,9.932,8.209,9.932,8.209s-1.285,1.447-3.527-.327c-2.16-1.712-3.069-.941-3.069-.941s.512,3.612.815,5.258-6.184.474-6.306.159c-.286-.732-2.1-2.243-2.808-4.8a13.724,13.724,0,0,1-.006-5.692Z" transform="translate(-334.862 -871.625)" fill="#f0c0a7"/>
        <path id="Trazado_110335" data-name="Trazado 110335" d="M343.273,891.564s-.23-34.576,17.814-58.9c-1.818-16.513-12.9-16.791-13.537-15.6s-19.383,33.285-11.765,75.068Z" transform="translate(-333.967 -816.645)" fill="#fff"/>
      </g>
      <g id="Grupo_87475" data-name="Grupo 87475" transform="translate(0 91.06)">
        <path id="Trazado_110336" data-name="Trazado 110336" d="M317.565,1224.869l2.839,23.086a298.723,298.723,0,0,0,34.631-3.536c-.3-10.114-1.015-15.247-6.072-29.917A83.634,83.634,0,0,1,317.565,1224.869Z" transform="translate(-317.565 -1214.502)" fill="#fff"/>
        <path id="Trazado_110337" data-name="Trazado 110337" d="M422.615,1256.24A51.645,51.645,0,0,1,426.022,1271a3.866,3.866,0,0,1-1.565.3c-.386-5.707-3.432-14.676-3.432-14.676Z" transform="translate(-397.345 -1246.687)" fill="#b1dee8" style="mix-blend-mode: multiply;isolation: isolate"/>
        <path id="Trazado_110338" data-name="Trazado 110338" d="M385.159,1255.356s3.9,10.143,4.353,19.656a3.838,3.838,0,0,1-1.56.327c-.58-8.825-4.378-19.572-4.378-19.572Z" transform="translate(-368.466 -1246.005)" fill="#b1dee8" style="mix-blend-mode: multiply;isolation: isolate"/>
        <path id="Trazado_110339" data-name="Trazado 110339" d="M366.309,1267.439a57.1,57.1,0,0,1,3.145,17.7,3.829,3.829,0,0,1-1.572.26,68.393,68.393,0,0,0-3.174-17.622Z" transform="translate(-353.919 -1255.323)" fill="#b1dee8" style="mix-blend-mode: multiply;isolation: isolate"/>
        <path id="Trazado_110340" data-name="Trazado 110340" d="M346.091,1272.079a35.783,35.783,0,0,1,2.286,16.516,3.863,3.863,0,0,1-1.589.106,41.7,41.7,0,0,0-2.324-16.437Z" transform="translate(-338.307 -1258.901)" fill="#b1dee8" style="mix-blend-mode: multiply;isolation: isolate"/>
      </g>
      <path id="Trazado_110341" data-name="Trazado 110341" d="M361.65,1232.423s1.064,5.35,1.382,6.746.49,3.444.108,3.815a3.364,3.364,0,0,1-2.355.8c-.545-.05-1.227-.984-2.359-3.4.2,1.2,1.428,3.006.027,3.073a44.645,44.645,0,0,1-2.533-4.749,59.678,59.678,0,0,1-2.56-5.84Z" transform="translate(-345.168 -1137.261)" fill="#f0c0a7"/>
    </g>
    <path id="Trazado_110342" data-name="Trazado 110342" d="M2202.959,1053.733s.488-.553,1.007-.363.016,2.548.016,2.548Z" transform="translate(-1460.209 -767.745)" fill="#f5bb90"/>
    <path id="Trazado_110343" data-name="Trazado 110343" d="M2201.386,1030.836l-2.7-.42s-.821,1.06,1.2,2.044a25.313,25.313,0,0,0,3.466,1.416Z" transform="translate(-1456.788 -750.075)" fill="#f5bb90"/>
    <path id="Trazado_110344" data-name="Trazado 110344" d="M2329.667,1327.515c.122-3.138,3.177-14.338,8.85-15.335,11.96-2.1,53.034-2.389,53.034-2.389s27.15-2.8,35.694-3.79c.763,3.357,4.23,15.407-.042,21.515Z" transform="translate(-1557.917 -962.584)" fill="#003853"/>
    <path id="Trazado_110345" data-name="Trazado 110345" d="M515.82,690.1c-3.618-.943-12.041,6.088-15.172,12.336-1.727,2.351-3.761,5.519-4.169,5.021-5.6-7.625-9.613-10.528-8.011-13.351,5.226-5.836,3.815-8.774,3.815-8.774S515.839,651.192,515.82,690.1Z" transform="translate(-137.853 -473.289)" fill="#e1b39d"/>
    <path id="Trazado_110346" data-name="Trazado 110346" d="M542.593,638.981s2.58-.979.4,3.2,1.659,5.779,1.659,5.779,2.361,9.964,6.561,10.852a34.411,34.411,0,0,0,6.065.916c.433.021,1.429-.143,1.488-.572s1.193-9.212,1.193-9.212a1.287,1.287,0,0,0,.862-1.963c-1.372-2.477-2.651-5.2-3.728-7.668-1.51-3.457-1.691-3.917-2.346-5.289-2.428-5.086-9.1-4.032-11.181-.4C543.337,635.033,542.593,638.981,542.593,638.981Z" transform="translate(-179.656 -442.505)" fill="#f0c0a7"/>
    <path id="Trazado_110347" data-name="Trazado 110347" d="M431.738,650.189s.376-1.54-4.12-.305c-6.943,1.907-7.214,6.393-10.234,12.742a33.165,33.165,0,0,0-3.258,11.924c-.208,5.138.758,8.068,2.582,8.9,7.019-3.814,9.537-4.043,14.19-6.561,1.3-5.341-1.947-17.488-1.3-20.523a11.045,11.045,0,0,1,1.45-3.586Z" transform="translate(-80.778 -456.268)" fill="#144665"/>
    <path id="Trazado_110348" data-name="Trazado 110348" d="M492.358,620.514a16.631,16.631,0,0,1,1.987-3.75c1.522-2.277,3.474-3.631,8.615-4.861,21.043-5.038,13.147,7.493,13.147,7.493s-5.16-2.319-5.268,2.875c-.059,3.032-.894,4.149-1.564,4.431-3.3-2.828-5.991-.97-5.46,2.756.782,5.533-7.648,9.366-8.769,9.487C490.048,631.074,492.358,620.514,492.358,620.514Z" transform="translate(-140.715 -426.429)" fill="#144665"/>
    <path id="Trazado_110349" data-name="Trazado 110349" d="M488.793,652.628a1.088,1.088,0,0,1-1.262.892h0a1.081,1.081,0,0,1-.892-1.276l.417-2.551a1.087,1.087,0,0,1,1.265-.889h0a1.091,1.091,0,0,1,.891,1.274Z" transform="translate(-136.7 -455.79)" fill="#f8b532"/>
    <g id="Grupo_87480" data-name="Grupo 87480" transform="translate(857.378 180.463)">
      <g id="Grupo_87477" data-name="Grupo 87477" transform="translate(22.765 119.71)">
        <path id="Trazado_110350" data-name="Trazado 110350" d="M2820.552,1181.786c2.924-12.973,14.108-64.719,14.108-64.719l-29.257,2.277s-4.611,55.971-.338,62.442Z" transform="translate(-2803.25 -1117.067)" fill="#e1b39d"/>
        <path id="Trazado_110351" data-name="Trazado 110351" d="M2856.958,1186.122c-2.632-11.774,3.078-42.831,3.078-42.831s1.433-12.372,0-19.456a54.535,54.535,0,0,0-24.662.549c1.659,47.415,2.549,53.741,5.372,61.739Z" transform="translate(-2828.021 -1121.403)" fill="#f0c0a7"/>
      </g>
      <path id="Trazado_110352" data-name="Trazado 110352" d="M2805.283,750.324s-18.027,11.835-6.88,35.229c17.614-9.634,22.018-29.862,22.018-29.862Z" transform="translate(-2773.942 -714.553)" fill="#fff"/>
      <path id="Trazado_110353" data-name="Trazado 110353" d="M2820.319,838.864c3.3,17.959-5.06,22.747-7.812,52.885h-33.065c-.367-9.806,1.9-57.853,2.159-62.038,1.229-37.526-8.389-35.316-5.861-51.206a51.818,51.818,0,0,1,10.088-22.792l2.232-.744s-9.208,15.821-3.829,24.3c4.271-8.809,9.444-16.586,14.855-26.612,6.282,3.9,21.886,11.888,17.646,32.244C2801.065,832.308,2816.238,816.669,2820.319,838.864Z" transform="translate(-2758.944 -716.354)" fill="#144665"/>
      <path id="Trazado_110354" data-name="Trazado 110354" d="M2784.792,819.547l29.182-2.174a96.126,96.126,0,0,1,1.03-16.708c1.373-9.155,2.747-28.266-1.374-34.675a86.564,86.564,0,0,0-10.229-12.469s-11.742,6.06-16.549,15.673c-6.951,13.9-7.1,16.937-4.807,23.574S2784.792,819.547,2784.792,819.547Z" transform="translate(-2763.115 -717.018)" fill="#fff"/>
      <path id="Trazado_110355" data-name="Trazado 110355" d="M2825.552,819.309l20.141-.572s4.234-21.057,6.752-32.958-8.076-21.388-10.9-23.4-5.117-3.382-5.117-3.382-13.5,20.6-14.19,32.5S2825.552,819.309,2825.552,819.309Z" transform="translate(-2795.063 -721.243)" fill="#144665"/>
      <path id="Trazado_110356" data-name="Trazado 110356" d="M2809.265,670.03c-3-2.22-7.084-15.822-7.182-17.16l-11.07-7.621a16.511,16.511,0,0,0,.8,12.52c.907,2.008-1.247,3.794-2.883,5.086-2.788,2.206,5,.764,4.24,1.41,4.519-.4-2.373,1.613-.895,3.524a35.892,35.892,0,0,1,4.688,9.334C2793.517,690.624,2805.833,674.54,2809.265,670.03Z" transform="translate(-2768.978 -633.527)" fill="url(#linear-gradient)"/>
      <path id="Trazado_110357" data-name="Trazado 110357" d="M2757.994,605.537s-8.155-2.072-11.47,6.75c-3.091,8.227,6.235,12.631,6.747,12.818C2753.928,618.537,2757.994,605.537,2757.994,605.537Z" transform="translate(-2736.259 -602.741)" fill="#144665"/>
      <path id="Trazado_110358" data-name="Trazado 110358" d="M2780.584,666.415c3.726-.306,8.2,7.768,10.2,14.461-.458,2.518-1.632,9.728-1.145,9.308,7.629-3.738,9.934-15.118,11.215-15.564-1.709-3.521-1.3-11.825-1.3-11.825S2787.265,628.088,2780.584,666.415Z" transform="translate(-2763.007 -635.948)" fill="#e1b39d"/>
      <path id="Trazado_110359" data-name="Trazado 110359" d="M2777.662,620.336s2.488-4.3,5.374-.572-3.142,7.859-3.142,7.859-2.962,9.267-7.146,10.229a55.108,55.108,0,0,1-8.306,1.126c-.433.013-1.15-.037-1.284-.449s-1.161-9.176-1.161-9.176-1.751-.148-1.2-1.779c.911-2.681,1.687-5.587,2.31-8.207.873-3.671.97-4.154,1.371-5.621,1.488-5.436,9.054-4.676,11.959-1.659S2777.662,620.336,2777.662,620.336Z" transform="translate(-2747.668 -606.143)" fill="#f0c0a7"/>
      <g id="Grupo_87478" data-name="Grupo 87478" transform="translate(0 56.206)">
        <path id="Trazado_110360" data-name="Trazado 110360" d="M2705.5,844.895l5.035-3.395a6.867,6.867,0,0,1,5.493,4.806c1.145,4.234-8.011,2.518-8.011,2.518Z" transform="translate(-2705.108 -841.066)" fill="#fff"/>
        <path id="Trazado_110361" data-name="Trazado 110361" d="M2722.489,880.321s4.73,2.022,6.409,1.259c1-.455,2.136-2.289,1.221-3.357s-13.681-32.87-16.021-36.163a5.832,5.832,0,0,0-5.8-2.365s5.822,2.554,4.234,3.891c-2.174,1.831-7.591,0-8.354-.153s-.305,0,.458,2.136S2722.489,880.321,2722.489,880.321Z" transform="translate(-2703.787 -839.605)" fill="#144665"/>
      </g>
      <g id="Grupo_87479" data-name="Grupo 87479" transform="translate(7.455 43.498)">
        <path id="Trazado_110362" data-name="Trazado 110362" d="M2844.275,808.449c-6.388-10.278-21.639-2.412-15.8,8.307,8.476,15.565,15.755,23.208,15.755,23.208l-28.077-1.706-1.264,5.1s30.145,8.675,37.312,8.718,5.624-9.484.983-21.186S2844.275,808.449,2844.275,808.449Z" transform="translate(-2796.912 -799.174)" fill="#f0c0a7"/>
        <path id="Trazado_110363" data-name="Trazado 110363" d="M2888.658,806.27a122.168,122.168,0,0,0-6.818-14.427c-8.374-13.653-21.579-8.517-15.609,9.391,1.341,4.019,5.033,9.618,7.809,12.672Z" transform="translate(-2835.348 -784.085)" fill="#fff"/>
        <path id="Trazado_110364" data-name="Trazado 110364" d="M2740.911,928.6c.218-1.086-1.427-1.122-1.822-2.268a1.673,1.673,0,0,1,.642-1.884l-2.784-.9c-1.144-.237-.409-2.307.408-2.288,2.561.054,7.191.9,8.948.984.224-.179.582-.916-.382-2.59-1.47-2.554-.928-4.231-.254-4.38.4.54,4.026,4.817,6.123,6.047,1.647.969,3.477,1.658,3.873,3.012l2.838.6-1.253,4.276-2.917.393s-.937.152-3.016.588-3.962,1.578-7.476,1.389C2743.034,931.47,2740.474,930.767,2740.911,928.6Z" transform="translate(-2736.358 -885.249)" fill="#f0c0a7"/>
      </g>
      <path id="Trazado_110365" data-name="Trazado 110365" d="M2814.788,618.182a9.248,9.248,0,0,1-4.494.243,51.415,51.415,0,0,0-9.987-19.024c-7.308-8.413-19.751-5.635-20.713-.511-.026.928-2.462,5.643.052,8.177-.018.043-.033.085-.047.125.073.01.142.023.214.033,1.2,1.071,2.649.973,3.715,1.462a5.582,5.582,0,0,1,1.948,4.083,32.1,32.1,0,0,0,5.141,15.9c2.959,4.7,5.46,5.493,8.258,6.485C2811.138,639.205,2821.427,626.211,2814.788,618.182Z" transform="translate(-2761.407 -594.034)" fill="#144665"/>
    </g>
    <g id="Grupo_87481" data-name="Grupo 87481" transform="translate(725.044 222.259)">
      <path id="Trazado_110366" data-name="Trazado 110366" d="M2277.1,996.435s-17.757,38.312-21.5,45.87c-14.448-3.019-16.445,4.711-41.227,4.273.243,8.067,2.506,9.478,2.506,9.478s30.692.09,41.554-.851,35.865-41.956,35.865-41.956Z" transform="translate(-2194.053 -946.13)" fill="#d2e8f2"/>
      <path id="Trazado_110367" data-name="Trazado 110367" d="M2496.864,1015.4s-19.067-34.355-25.25-50.63c-2.6-6.855-5.045-20.814-2.753-26.57.145-.37-2.093-5.534-1.9-5.875,4.544-8.195,18.312-12.577,18.312-12.577l3.833.343-.813,2.231s18.831,5.647,32.9,30.707c11.692,20.831,10.828,39.683,14.455,56.658C2536.669,1014.506,2496.864,1015.4,2496.864,1015.4Z" transform="translate(-2388.818 -886.997)" fill="#fff"/>
      <path id="Trazado_110368" data-name="Trazado 110368" d="M2417.426,855.008c1.8-.106,13.177,7.289,16.687,12.63,7.576-4.027,13.108-10.057,14.572-10.433a46.947,46.947,0,0,1-5.359-8.368S2427.579,816.129,2417.426,855.008Z" transform="translate(-2350.634 -822.392)" fill="#e1b39d"/>
      <path id="Trazado_110369" data-name="Trazado 110369" d="M2419.406,805.457s2.5-4.145,5.241-.463-3.2,7.6-3.2,7.6-2.8,9.479-6.884,10.342a53.671,53.671,0,0,1-8.105.948c-.422,0-1.118-.057-1.242-.461s-1.248-12.945-1.248-12.945-2.28.488-1.681-1.079c2.589-6.756,3.817-9.981,4.859-12.688,0,0,6.952-8.007,9.725-5.02S2419.406,805.457,2419.406,805.457Z" transform="translate(-2338.884 -787.73)" fill="#f0c0a7"/>
      <path id="Trazado_110370" data-name="Trazado 110370" d="M2425.795,795.595s3.352,3.413,4.408.988,3.109-2.436,4.646-.878-.424,5.053.981,7.528c.921,1.62,6.254.964,6.974,1.071.113-4.168,3.277-19.661.71-21.713s-10.84-5.967-18.217-5.945-11.7,2.9-7.459,8.964C2436.839,772.962,2425.795,795.595,2425.795,795.595Z" transform="translate(-2349.664 -776.646)" fill="#144665"/>
      <path id="Trazado_110371" data-name="Trazado 110371" d="M2560.427,1090.464c-7.8,8.429-32.5.915-32.5.915L2519,1076.045s11.283-4.585,8.628-12.794c-10.311-31.888,7.848-23.175,14.6-14.321C2559.063,1071.014,2561.719,1081.726,2560.427,1090.464Z" transform="translate(-2428.96 -980.293)" fill="#d2e8f2"/>
      <path id="Trazado_110372" data-name="Trazado 110372" d="M2459.349,984.074s-1.958.819-2.316,3.966a5.79,5.79,0,0,0,.523,3.271,59.568,59.568,0,0,0-6.44,27.072c-.127,24.555.366,45.452.366,45.452l8.478,7.85,5.842-9.848a394.981,394.981,0,0,1-7.824-44.666c-1.865-16.512,1.941-25.238,1.941-25.238s1.46-1.888,3.338-3.916A16.208,16.208,0,0,1,2459.349,984.074Z" transform="translate(-2376.596 -936.599)" fill="#177e9d"/>
      <path id="Trazado_110373" data-name="Trazado 110373" d="M2489.667,932.9a15.211,15.211,0,0,0,5.873,5.17c6.524-12.083,12.375-14.18,12.375-14.18A29.648,29.648,0,0,1,2506.6,921C2500.069,923.43,2489.667,932.9,2489.667,932.9Z" transform="translate(-2406.34 -887.961)" fill="#d2e8f2"/>
      <path id="Trazado_110374" data-name="Trazado 110374" d="M2276.857,1136.921a79.613,79.613,0,0,0-12.532-5.714c-.572,3.058,5.532,5.083,5.532,5.083s-16.14,1.857-16.887,2.036-.736,1.786-.736,1.786-2.026.6-.7,1.366,9.291.914,9.291.914-5.509.884-6.03.867-.078,1.987,4.2,2.091c1.626.04,13.063,1.729,15.626-2.131a29.865,29.865,0,0,0,3.791-.747Z" transform="translate(-2222.362 -1050.056)" fill="#f0c0a7"/>
      <path id="Trazado_110375" data-name="Trazado 110375" d="M2360.528,1007.328s50.856,4.229,53.9,4.536c.936-2.351-14.113-21.293-13.313-36.859.495-9.634,9.944-16.528,17.459-6.162,6.827,9.417,12.958,29.8,14.708,43.733.962,7.661.512,14.083-12.456,14.576-18.117.689-59.525-11.271-59.525-11.271Z" transform="translate(-2306.759 -920.872)" fill="#fff"/>
      <path id="Trazado_110376" data-name="Trazado 110376" d="M2145.976,1206.312l-2.6.149s-13.34-9.181-17.775,4.209c.884.742,1.828.419,2.545-.92.686.458,1.948.163,3.759-1.428,1.684-1.479,4.1-1.317,5.124,1.093.385.907-.682.691-3.7.967-3.289.3-3.142.732-3.544,1.792,1.07.62,6.038.018,8.637.83a5.434,5.434,0,0,0,4.795-1.134l3.52-.227Z" transform="translate(-2125.6 -1105.719)" fill="#f0c0a7"/>
    </g>
    <path id="Trazado_110377" data-name="Trazado 110377" d="M2406,1333.466c.229-.458.756-5.248,5.63-6.244,10.274-2.1,40.3-8.651,40.3-8.651s29.242-3.861,36.583-4.852c.656,3.357,2.4,15.628.8,19.748Z" transform="translate(-1616.779 -968.536)" fill="#144665"/>
  </g>
</svg>
