<svg xmlns="http://www.w3.org/2000/svg" width="162.074" height="139.5" viewBox="0 0 162.074 139.5">
  <g id="Grupo_87577" data-name="Grupo 87577" transform="translate(-26.5 -28.771)">
    <path id="Trazado_110558" data-name="Trazado 110558" d="M51.79,91.05l42.751,22.31a2.887,2.887,0,0,0,4.22-2.56V46.056a2.887,2.887,0,0,0-4.22-2.56L51.79,65.807a2.88,2.88,0,0,0-1.551,2.555V88.494A2.88,2.88,0,0,0,51.79,91.05Z" transform="translate(88.313 51.21)" fill="none" stroke="#db6e5f" stroke-miterlimit="10" stroke-width="3"/>
    <path id="Trazado_110559" data-name="Trazado 110559" d="M93.124,61.39A31.119,31.119,0,1,1,62,30.271,31.121,31.121,0,0,1,93.124,61.39Z" transform="translate(11.46 0)" fill="none" stroke="#db6e5f" stroke-miterlimit="10" stroke-width="3"/>
    <path id="Trazado_110560" data-name="Trazado 110560" d="M43.151,54.107A19.253,19.253,0,1,0,62.4,34.854,19.253,19.253,0,0,0,43.151,54.107Z" transform="translate(60.166 18.199)" fill="none" stroke="#db6e5f" stroke-miterlimit="10" stroke-width="3"/>
    <g id="Grupo_87576" data-name="Grupo 87576" transform="translate(28 92.509)">
      <path id="Trazado_110561" data-name="Trazado 110561" d="M30.886,73.592v38.66a4.8,4.8,0,0,0,4.8,4.8h86.606a4.805,4.805,0,0,0,4.8-4.8V47.588a4.8,4.8,0,0,0-4.8-4.8H35.683a4.8,4.8,0,0,0-4.8,4.8v10.39" transform="translate(-16.54 -42.791)" fill="none" stroke="#db6e5f" stroke-miterlimit="10" stroke-width="3"/>
      <path id="Trazado_110562" data-name="Trazado 110562" d="M42.346,45.846H31.167A3.165,3.165,0,0,0,28,49.013v9.281a3.165,3.165,0,0,0,3.167,3.167h11.18" transform="translate(-28 -30.659)" fill="none" stroke="#db6e5f" stroke-miterlimit="10" stroke-width="3"/>
      <path id="Trazado_110563" data-name="Trazado 110563" d="M30.886,61.46H54.727a3.164,3.164,0,0,0,3.162-3.167V49.013a3.164,3.164,0,0,0-3.162-3.167H30.886" transform="translate(-16.54 -30.659)" fill="none" stroke="#db6e5f" stroke-miterlimit="10" stroke-width="3"/>
    </g>
  </g>
</svg>
