<svg xmlns="http://www.w3.org/2000/svg" width="334.704" height="254.009" viewBox="0 0 334.704 254.009">
  <g id="Grupo_87739" data-name="Grupo 87739" transform="translate(-827.648 -10484.688)">
    <g id="Grupo_87602" data-name="Grupo 87602" transform="translate(827.648 10484.688)">
      <path id="Trazado_110649" data-name="Trazado 110649" d="M698.975,824.195c-.3-18.6-7.548-25.843-12.564-38.841-6.128-15.875-10.042-27.294-1.98-44.191,13.173-27.612,36.987-98.47-34.4-104.283-25.585-2.084-51.389,14.411-71.892,32.036-17.446,15-39.534,11.783-58.194,12.057-22.927.337-47.046,3.168-70.264,9.993-47.816,14.054-70.176,44.5-81.564,87.256-3.441,12.918-8.01,33.453,4.316,61.385,16.636,37.7,57.05,39.928,107.8,35.51,11.617-1.011,23.241-4.055,34.872-5.71a143.531,143.531,0,0,1,35.935-.634c27.436,3.029,50.09,24.76,78.268,21.63a95.169,95.169,0,0,0,43.1-16.515C688.915,862.5,699.286,843.827,698.975,824.195Z" transform="translate(-364.365 -636.701)" fill="#daeef7"/>
    </g>
    <g id="Grupo_87619" data-name="Grupo 87619" transform="translate(-603.006 10235.952)">
      <path id="Trazado_110650" data-name="Trazado 110650" d="M2140.129,992.072c-4.827-.293-4.535-6.875-3.8-14.189s6.46-7.9,6.46-7.9l5.682,17.115Z" transform="translate(-506.79 -577.904)" fill="#1c2c4d"/>
      <path id="Trazado_110651" data-name="Trazado 110651" d="M1704.539,1245.978s2.926-22.235,12.141-38.765,60.854-15.8,65.681-4.535,10.679,36.571,10.24,43.3Z" transform="translate(-156.628 -760.132)" fill="#1c2b47"/>
      <path id="Trazado_110652" data-name="Trazado 110652" d="M1654.184,684.89l-23.4-22.82-2.341,65.095s-22.539,13.347-66.051,5.211l-15.283-51s-32.62,16.091-32.182,11.264,5.122-51.782,9.365-59.683c2.358-4.389,15.968-11.086,27.593-16.165,9.29-4.062,17.314-7.093,17.314-7.093l14.335-1.023s7.9.243,17.059.882c9.622.673,20.643,1.782,25.364,3.5,9.216,3.366,52.662,58.66,57.489,66.12S1654.184,684.89,1654.184,684.89Z" transform="translate(-2.706 -284.619)" fill="#3f5175"/>
      <path id="Trazado_110653" data-name="Trazado 110653" d="M1587.452,858.135l-1.02-13.759a.287.287,0,0,0-.571-.014l-1.421,11.45L1563.8,874.069Z" transform="translate(-42.381 -475.729)" fill="#1c2c4d"/>
      <path id="Trazado_110654" data-name="Trazado 110654" d="M2200.424,944.689c-5.614.252-12.018.643-15.452.853l-5.449-5.311,20.966,3.217A.624.624,0,0,1,2200.424,944.689Z" transform="translate(-542.191 -553.753)" fill="#1c2c4d"/>
      <path id="Trazado_110655" data-name="Trazado 110655" d="M1739.314,916.518c2.779-3.218-3.218-15.652-4.974-17.7s-8.046,7.563-8.046,7.563l5.559,11.161Z" transform="translate(-174.289 -519.904)" fill="#1c2c4d"/>
      <path id="Trazado_110656" data-name="Trazado 110656" d="M1565.024,908.3s-20.918,14.776-33.2,20.772-16.529,3.366-18.724.587-2.633-11.7,3.071-15.945,37.447-25.307,37.447-25.307c.851,6.234,2.444,10.528,4.18,13.481C1561.148,907.6,1565.024,908.3,1565.024,908.3Z" transform="translate(0 -511.683)" fill="#3f5175"/>
      <path id="Trazado_110657" data-name="Trazado 110657" d="M1769.044,739.972a2.151,2.151,0,0,1-.458.607c-2.7,2.833-5.274,5.858-7.929,8.752a12.931,12.931,0,0,1-3.873,3.246,8.482,8.482,0,0,1-3.956.673,21.979,21.979,0,0,1-3.991-.668c-3.211,3.369-6.577,6.563-9.823,9.892-1.736-2.953-3.329-7.248-4.18-13.481l3.733-2.269s-.88-.146,1.169-5.85c1.366-3.8,2.7-7.62,4.088-11.416.65-1.785,1.309-3.564,2-5.331a15.569,15.569,0,0,1,2.18-4.455,3.1,3.1,0,0,1,1.464-1.1,1.4,1.4,0,0,1,1.616.579,2.133,2.133,0,0,1,.009,1.449q-1.1,4.714-2.189,9.431c1.676-4.174,3.572-8.19,5.612-12.2a2.109,2.109,0,0,1,1.676-1.137,1.7,1.7,0,0,1,1.971,1.011,2.7,2.7,0,0,1-.175,1.573c-.607,1.894-1.481,4.7-2.088,6.595.9-1.43,4.933-8.88,6.549-9.13a1.651,1.651,0,0,1,1.9,1.212,2.539,2.539,0,0,1-.283,1.315q-2.969,7.228-5.941,14.455c1.177-2.011,2.386-4,3.589-6,.6-1,1.2-2,1.8-3a2.917,2.917,0,0,1,1.974-1.7,1.627,1.627,0,0,1,1.659.834,2.479,2.479,0,0,1-.034,1.785,23.9,23.9,0,0,1-2.131,4.154q-1.22,2.243-2.443,4.483-2.441,4.486-4.884,8.972a4.381,4.381,0,0,0,3.589-1.647,12.886,12.886,0,0,1,3.157-2.836,4.52,4.52,0,0,1,2.822-.364C1767.927,738.548,1769.494,738.949,1769.044,739.972Z" transform="translate(-181.22 -372.272)" fill="#ffa383"/>
      <g id="Grupo_87603" data-name="Grupo 87603" transform="translate(1571.143 353.189)">
        <path id="Trazado_110658" data-name="Trazado 110658" d="M1828.358,771.317a.417.417,0,0,1-.381-.585l3.121-7.07a.417.417,0,1,1,.763.336l-3.121,7.07A.417.417,0,0,1,1828.358,771.317Z" transform="translate(-1827.942 -763.413)" fill="#bf684b"/>
      </g>
      <g id="Grupo_87604" data-name="Grupo 87604" transform="translate(1565.333 369.406)">
        <path id="Trazado_110659" data-name="Trazado 110659" d="M1797.5,851.917a.417.417,0,0,1-.237-.76,11.613,11.613,0,0,1,11.093-.4.417.417,0,0,1-.357.753,10.739,10.739,0,0,0-10.263.335A.416.416,0,0,1,1797.5,851.917Z" transform="translate(-1797.081 -849.551)" fill="#bf684b"/>
      </g>
      <path id="Trazado_110660" data-name="Trazado 110660" d="M1759.958,609.56c-2.295,6.841-8.786,12.287-20.033,14.378-11.94,2.223-21.863.842-28.676-7.145,9.29-4.062,17.314-7.093,17.314-7.093l14.335-1.023S1750.8,608.921,1759.958,609.56Z" transform="translate(-162.075 -284.619)" fill="#ffa383"/>
      <path id="Trazado_110661" data-name="Trazado 110661" d="M1787.443,506.09l-24.868,2.73-1.447-6.11-1.641-6.918-.031-.137,6.239-15.309,13.556-1.951,2.828,9.849Z" transform="translate(-201.206 -178.863)" fill="#ffa383"/>
      <path id="Trazado_110662" data-name="Trazado 110662" d="M1669.624,379c-6.629,3.025-14.627,6.242-16.091,4.927s-4.876-13.312-4.876-13.312-5.46-.584-5.265-1.853,3.022-7.021,2.827-11.507-2.535-13.653-.877-19.211l19.9-6.242,6.532,16.48.312,1.662c.8,4.22,2.885,15.295,3.59,19.208C1676.548,374.024,1676.256,375.974,1669.624,379Z" transform="translate(-106.989 -59.865)" fill="#ffa383"/>
      <path id="Trazado_110663" data-name="Trazado 110663" d="M1769.66,561.446c-1.567,3.541-5.695,6.818-8.4,8.68l-1.641-6.918,2.868-1.762Z" transform="translate(-201.341 -246.279)" fill="#ed7d56"/>
      <path id="Trazado_110664" data-name="Trazado 110664" d="M1569.338,263.058c2.731,8.875,5.754,15.9,9.947,16.579s16.286-1.853,17.651,0,1.268,7.607,4.876,7.607,5.071-.975,5.559,1.073,1.17,5.169,1.17,5.169l5.851,3.413,6.016,1.249s1.2,12.307,2.956,13.769,5.851.585,6.047-2.243-2.145-17.651-1.853-26.819,1.853-13.653-.975-17.749-9.167-2.048-10.045-1.17a7,7,0,0,0-8.484-5.754C1600.642,259.352,1574.116,265.5,1569.338,263.058Z" transform="translate(-46.881)" fill="#915443"/>
      <g id="Grupo_87605" data-name="Grupo 87605" transform="translate(1541.586 297.493)">
        <path id="Trazado_110665" data-name="Trazado 110665" d="M1673.595,470.177a3.194,3.194,0,0,1-2.569-1.2.417.417,0,0,1,.669-.5,2.457,2.457,0,0,0,2.457.806,4.491,4.491,0,0,0,2.4-1.572.417.417,0,1,1,.636.538,5.308,5.308,0,0,1-2.871,1.85A3.611,3.611,0,0,1,1673.595,470.177Z" transform="translate(-1670.944 -467.567)" fill="#a35940"/>
      </g>
      <ellipse id="Elipse_4429" data-name="Elipse 4429" cx="3.665" cy="1.719" rx="3.665" ry="1.719" transform="translate(1539.121 293.564) rotate(-21.536)" fill="#7a4333"/>
      <ellipse id="Elipse_4430" data-name="Elipse 4430" cx="4.827" cy="6.729" rx="4.827" ry="6.729" transform="translate(1564.952 291.144)" fill="#ffa383"/>
      <path id="Trazado_110666" data-name="Trazado 110666" d="M1692.349,451.736c-6.629,3.025-14.627,6.242-16.091,4.927-.6-.544-1.544-2.919-2.438-5.518-.739-2.148-1.45-4.452-1.911-5.993-.327-1.092-.527-1.8-.527-1.8,4.185-1.249,8.511.132,10.522,4.082a.53.53,0,0,0,.845.149c1.836-1.79,7.886-7.723,10.236-10.5.876-1.04-1.61-10.989-1.61-10.989l2.32-4.681,1.111,1.272c.8,4.22,2.885,15.295,3.59,19.208C1699.273,446.763,1698.98,448.714,1692.349,451.736Z" transform="translate(-129.714 -132.605)" fill="#915443"/>
      <path id="Trazado_110667" data-name="Trazado 110667" d="M1682.237,550.862s-1.727,2.083-6.145,2.383c-.739-2.148-1.45-4.452-1.911-5.993C1677.734,546.88,1680.983,548.074,1682.237,550.862Z" transform="translate(-131.987 -234.704)" fill="#ffa383"/>
      <g id="Grupo_87606" data-name="Grupo 87606" transform="translate(1542.739 314.404)">
        <path id="Trazado_110668" data-name="Trazado 110668" d="M1682.315,558.92a.414.414,0,0,1-.187-.045,6.358,6.358,0,0,0-4.493-.359.417.417,0,0,1-.293-.78,7.1,7.1,0,0,1,5.161.4.417.417,0,0,1-.188.789Z" transform="translate(-1677.071 -557.396)" fill="#bf684b"/>
      </g>
      <g id="Grupo_87607" data-name="Grupo 87607" transform="translate(1594.202 449.714)">
        <path id="Trazado_110669" data-name="Trazado 110669" d="M1951.628,1312.674a.417.417,0,0,1-.416-.408l-.785-35.715a.417.417,0,1,1,.833-.018l.785,35.715a.416.416,0,0,1-.408.426Z" transform="translate(-1950.426 -1276.125)"/>
      </g>
      <g id="Grupo_87608" data-name="Grupo 87608" transform="translate(1587.185 449.968)">
        <path id="Trazado_110670" data-name="Trazado 110670" d="M1918.4,1304.764a5.7,5.7,0,0,1-3.356-.859,2.773,2.773,0,0,1-1.11-2.185c-.193-3.86-.775-23.616-.781-23.816a.417.417,0,0,1,.4-.429.421.421,0,0,1,.429.4c.006.2.587,19.946.78,23.8a1.951,1.951,0,0,0,.778,1.56c1.7,1.275,5.488.4,5.527.394a.417.417,0,0,1,.191.811A13.786,13.786,0,0,1,1918.4,1304.764Z" transform="translate(-1913.154 -1277.476)"/>
      </g>
      <g id="Grupo_87609" data-name="Grupo 87609" transform="translate(1549.663 455.246)">
        <path id="Trazado_110671" data-name="Trazado 110671" d="M1715.6,1325.353a6.483,6.483,0,0,1-1.424-.162.417.417,0,0,1,.183-.813,5.382,5.382,0,0,0,4.514-.992c4.039-2.949,6.485-11.136,7.049-17.494a.417.417,0,0,1,.83.073c-.579,6.54-3.138,14.992-7.387,18.094A6.29,6.29,0,0,1,1715.6,1325.353Z" transform="translate(-1713.846 -1305.511)"/>
      </g>
      <g id="Grupo_87610" data-name="Grupo 87610" transform="translate(1622.195 453.296)">
        <path id="Trazado_110672" data-name="Trazado 110672" d="M2109.58,1318.677a8.686,8.686,0,0,1-5.322-1.819c-3.715-2.82-5.081-20.508-5.137-21.259a.417.417,0,0,1,.831-.062c.376,5.016,1.973,18.5,4.81,20.658a7.875,7.875,0,0,0,6.963,1.341.417.417,0,1,1,.28.785A7.741,7.741,0,0,1,2109.58,1318.677Z" transform="translate(-2099.12 -1295.15)"/>
      </g>
      <g id="Grupo_87611" data-name="Grupo 87611" transform="translate(1571.607 449.162)">
        <path id="Trazado_110673" data-name="Trazado 110673" d="M1834.6,1285.766h-3.778a.417.417,0,0,1-.417-.417v-11.741a.417.417,0,1,1,.833,0v11.324h2.945v-10.772a.417.417,0,0,1,.834,0v11.189A.417.417,0,0,1,1834.6,1285.766Z" transform="translate(-1830.407 -1273.192)"/>
      </g>
      <g id="Grupo_87612" data-name="Grupo 87612" transform="translate(1608.682 446.667)">
        <path id="Trazado_110674" data-name="Trazado 110674" d="M2032.007,1275.012h-4.249a.417.417,0,0,1-.417-.417v-13.133a.417.417,0,1,1,.833,0v12.717h3.415V1260.36a.417.417,0,1,1,.833,0v14.235A.417.417,0,0,1,2032.007,1275.012Z" transform="translate(-2027.341 -1259.943)"/>
      </g>
      <path id="Trazado_110675" data-name="Trazado 110675" d="M2204.685,985.808c-5.56,2.928-46.374,1.318-46.374,1.318a24.627,24.627,0,0,0,2.656-7.348,36.68,36.68,0,0,0,0-14.742c1.71,0,4.053-.123,6.783-.289,4.959-.3,11.192-.745,17.22-.839,9.07-.14,17.669.51,20.735,3.615C2211.265,973.155,2210.242,982.883,2204.685,985.808Z" transform="translate(-524.972 -572.958)" fill="#3f5175"/>
      <path id="Trazado_110676" data-name="Trazado 110676" d="M2107.989,981.781a50.477,50.477,0,0,1-8.921-1.57c-4.509-1.261-6.021-3.125-6.021-3.125l9.264-10.728,5.681.682A36.679,36.679,0,0,1,2107.989,981.781Z" transform="translate(-471.995 -574.961)" fill="#ffa383"/>
      <path id="Trazado_110677" data-name="Trazado 110677" d="M2046.77,845.662c.585-3.607,1.073-7.232,1.38-10.873.156-1.839.266-3.682.318-5.527.026-.882.058-1.77.01-2.649a15.707,15.707,0,0,0-.063-2.2,2.271,2.271,0,0,0-1.386-1.795c-1.6-.444-1.754,2.877-1.955,3.827-.395,1.866-.72,3.748-.94,5.643q.049-4.042.1-8.084a37.159,37.159,0,0,0-.176-3.812c-.073-.8-.109-1.772-.853-2.262a1.655,1.655,0,0,0-1.986.276c-.848.819-.641,1.974-.753,3.027-.141,1.318-.293,2.635-.448,3.952s-.312,2.629-.463,3.944a23.946,23.946,0,0,0-.414,3.843l-.772-13.915a5.279,5.279,0,0,0-.281-1.692,1.788,1.788,0,0,0-1.208-1.131,1.631,1.631,0,0,0-1.5.564c-.705.8-.575,1.868-.661,2.854-.1,1.2-.2,2.41-.272,3.616a71.06,71.06,0,0,0-.107,7.363,39.412,39.412,0,0,0-.971-7.149,2.29,2.29,0,0,0-.812-1.423,1.663,1.663,0,0,0-2.172.732c-.717,1.2-.325,2.662-.342,3.971q-.031,2.481-.072,4.962c-.013.831.006,9.792-.139,9.806a2.531,2.531,0,0,1-2.332-1.478,7.732,7.732,0,0,1-.642-2.841,6.9,6.9,0,0,0-.706-2.821,3.236,3.236,0,0,0-3.285-1.52,71.091,71.091,0,0,0,1.706,14.336,11.768,11.768,0,0,0,9.242,9.4,14.953,14.953,0,0,0,4.62.448,8.069,8.069,0,0,0,6.154-4.071A20.826,20.826,0,0,0,2046.77,845.662Z" transform="translate(-415.022 -453.078)" fill="#ffa383"/>
      <g id="Grupo_87613" data-name="Grupo 87613" transform="translate(1618.786 374.4)">
        <path id="Trazado_110678" data-name="Trazado 110678" d="M2081.541,884.81a.417.417,0,0,1-.417-.411l-.113-7.9a.417.417,0,0,1,.411-.423.424.424,0,0,1,.423.411l.113,7.9a.417.417,0,0,1-.411.423Z" transform="translate(-2081.012 -876.077)" fill="#bf684b"/>
      </g>
      <g id="Grupo_87614" data-name="Grupo 87614" transform="translate(1623.669 377.525)">
        <path id="Trazado_110679" data-name="Trazado 110679" d="M2107.365,898.385h-.016a.417.417,0,0,1-.4-.432l.184-4.873a.417.417,0,1,1,.833.031l-.184,4.873A.417.417,0,0,1,2107.365,898.385Z" transform="translate(-2106.948 -892.678)" fill="#bf684b"/>
      </g>
      <g id="Grupo_87615" data-name="Grupo 87615" transform="translate(1628.381 377.718)">
        <path id="Trazado_110680" data-name="Trazado 110680" d="M2132.394,900h-.026a.416.416,0,0,1-.391-.441l.329-5.459a.417.417,0,1,1,.832.05l-.329,5.459A.417.417,0,0,1,2132.394,900Z" transform="translate(-2131.977 -893.703)" fill="#bf684b"/>
      </g>
      <g id="Grupo_87616" data-name="Grupo 87616" transform="translate(1614.264 388.055)">
        <path id="Trazado_110681" data-name="Trazado 110681" d="M2064.834,958.278a.417.417,0,0,1-.41-.346,11.233,11.233,0,0,0-7.156-8.516.417.417,0,1,1,.282-.784,12.08,12.08,0,0,1,7.7,9.157.417.417,0,0,1-.339.482A.408.408,0,0,1,2064.834,958.278Z" transform="translate(-2056.993 -948.608)" fill="#bf684b"/>
      </g>
      <g id="Grupo_87617" data-name="Grupo 87617" transform="translate(1520.997 376.303)">
        <path id="Trazado_110682" data-name="Trazado 110682" d="M1562,908.643a.417.417,0,0,1-.233-.763l32.2-21.62a.417.417,0,0,1,.464.692l-32.2,21.62A.415.415,0,0,1,1562,908.643Z" transform="translate(-1561.581 -886.189)" fill="#1c2c4d"/>
      </g>
      <g id="Grupo_87618" data-name="Grupo 87618" transform="translate(1547.494 396.196)">
        <path id="Trazado_110683" data-name="Trazado 110683" d="M1702.742,1004.552a.417.417,0,0,1-.238-.759l17.114-11.865a.417.417,0,1,1,.475.685l-17.114,11.865A.413.413,0,0,1,1702.742,1004.552Z" transform="translate(-1702.324 -991.853)" fill="#1c2c4d"/>
      </g>
    </g>
  </g>
</svg>
