<svg xmlns="http://www.w3.org/2000/svg" width="102.201" height="139.908" viewBox="0 0 102.201 139.908">
  <g id="Grupo_87585" data-name="Grupo 87585" transform="translate(-271.252 -26.973)">
    <path id="Trazado_110587" data-name="Trazado 110587" d="M300.177,42.481l-13.224,7.635V34.846Z" transform="translate(48.399 21.72)" fill="none" stroke="#db6e5f" stroke-linecap="round" stroke-linejoin="round" stroke-width="3"/>
    <g id="Grupo_87584" data-name="Grupo 87584" transform="translate(272.752 28.473)">
      <g id="Grupo_87582" data-name="Grupo 87582">
        <path id="Trazado_110588" data-name="Trazado 110588" d="M330.48,45.546V28.473q-28.869,4.556-57.728,9.12V65.726l12.1.926V77.416a131.793,131.793,0,0,0,12.2-9.834c4.981.383,9.032.692,12.849.983V42.3Q320.192,43.923,330.48,45.546Z" transform="translate(-272.752 -28.473)" fill="none" stroke="#db6e5f" stroke-linecap="round" stroke-linejoin="round" stroke-width="3"/>
        <path id="Trazado_110589" data-name="Trazado 110589" d="M281.18,55.365v15.4L314.6,68.21h0a132.432,132.432,0,0,0,12.2,9.83V67.276l12.1-.926V38.218l-37.147-5.872" transform="translate(-244.029 -15.273)" fill="none" stroke="#db6e5f" stroke-linecap="round" stroke-linejoin="round" stroke-width="3"/>
        <path id="Trazado_110590" data-name="Trazado 110590" d="M301.757,34.858q-10.289-1.62-20.577-3.249V57.877" transform="translate(-244.029 -17.785)" fill="none" stroke="#db6e5f" stroke-linecap="round" stroke-linejoin="round" stroke-width="3"/>
      </g>
      <g id="Grupo_87583" data-name="Grupo 87583" transform="translate(9.021 58.416)">
        <path id="Trazado_110591" data-name="Trazado 110591" d="M282.65,67.316a45,45,0,0,0,40.7-10.438" transform="translate(-248.04 9.918)" fill="none" stroke="#db6e5f" stroke-linecap="round" stroke-linejoin="round" stroke-width="3"/>
        <path id="Trazado_110592" data-name="Trazado 110592" d="M291.884,74.61a44.814,44.814,0,0,0,13.59-22.935" transform="translate(-216.569 -7.814)" fill="none" stroke="#db6e5f" stroke-linecap="round" stroke-linejoin="round" stroke-width="3"/>
        <path id="Trazado_110593" data-name="Trazado 110593" d="M296.334,72.243a44.835,44.835,0,0,0-1.768-26.6" transform="translate(-207.429 -28.382)" fill="none" stroke="#db6e5f" stroke-linecap="round" stroke-linejoin="round" stroke-width="3"/>
        <path id="Trazado_110594" data-name="Trazado 110594" d="M307.083,80.656a44.985,44.985,0,0,1-31.6-27.692" transform="translate(-272.473 -3.421)" fill="none" stroke="#db6e5f" stroke-linecap="round" stroke-linejoin="round" stroke-width="3"/>
        <path id="Trazado_110595" data-name="Trazado 110595" d="M276.035,46.93a44.821,44.821,0,0,0,1.772,26.6" transform="translate(-274.798 -23.986)" fill="none" stroke="#db6e5f" stroke-linecap="round" stroke-linejoin="round" stroke-width="3"/>
        <path id="Trazado_110596" data-name="Trazado 110596" d="M288.669,41.727a44.845,44.845,0,0,0-13.59,22.935" transform="translate(-273.842 -41.718)" fill="none" stroke="#db6e5f" stroke-linecap="round" stroke-linejoin="round" stroke-width="3"/>
        <path id="Trazado_110597" data-name="Trazado 110597" d="M278.16,41.725l.009.009" transform="translate(-263.342 -41.725)" fill="none" stroke="#db6e5f" stroke-linecap="round" stroke-linejoin="round" stroke-width="3"/>
        <path id="Trazado_110598" data-name="Trazado 110598" d="M294.579,45.64h-.013" transform="translate(-207.429 -28.382)" fill="none" stroke="#db6e5f" stroke-linecap="round" stroke-linejoin="round" stroke-width="3"/>
        <path id="Trazado_110599" data-name="Trazado 110599" d="M292.43,53.273a73.715,73.715,0,0,0-16.949.1" transform="translate(-272.473 -3.832)" fill="none" stroke="#db6e5f" stroke-linecap="round" stroke-linejoin="round" stroke-width="3"/>
        <path id="Trazado_110600" data-name="Trazado 110600" d="M275.477,52.968l.018,0" transform="translate(-272.486 -3.421)" fill="none" stroke="#db6e5f" stroke-linecap="round" stroke-linejoin="round" stroke-width="3"/>
        <path id="Trazado_110601" data-name="Trazado 110601" d="M303.54,62.863a73.61,73.61,0,0,0-15.076-7.741" transform="translate(-228.225 3.933)" fill="none" stroke="#db6e5f" stroke-linecap="round" stroke-linejoin="round" stroke-width="3"/>
        <path id="Trazado_110602" data-name="Trazado 110602" d="M291.889,56.882l0,0" transform="translate(-216.566 9.918)" fill="none" stroke="#db6e5f" stroke-linecap="round" stroke-linejoin="round" stroke-width="3"/>
        <path id="Trazado_110603" data-name="Trazado 110603" d="M283.969,53.721A146.376,146.376,0,0,1,303.783,59.9" transform="translate(-243.545 -0.841)" fill="none" stroke="#db6e5f" stroke-linecap="round" stroke-linejoin="round" stroke-width="3"/>
        <path id="Trazado_110604" data-name="Trazado 110604" d="M279.326,52.941a146.781,146.781,0,0,1,20.467,3.438" transform="translate(-259.368 -3.5)" fill="none" stroke="#db6e5f" stroke-linecap="round" stroke-linejoin="round" stroke-width="3"/>
        <path id="Trazado_110605" data-name="Trazado 110605" d="M291.388,45.663a56.731,56.731,0,0,1-.864,21.829" transform="translate(-221.204 -28.304)" fill="none" stroke="#db6e5f" stroke-linecap="round" stroke-linejoin="round" stroke-width="3"/>
        <path id="Trazado_110606" data-name="Trazado 110606" d="M283.294,73.57a53.7,53.7,0,0,0,22.79-18.448" transform="translate(-245.845 3.933)" fill="none" stroke="#db6e5f" stroke-linecap="round" stroke-linejoin="round" stroke-width="3"/>
        <path id="Trazado_110607" data-name="Trazado 110607" d="M288.464,70.482a56.7,56.7,0,0,0,9.081-19.867h0" transform="translate(-228.225 -11.427)" fill="none" stroke="#db6e5f" stroke-linecap="round" stroke-linejoin="round" stroke-width="3"/>
        <path id="Trazado_110608" data-name="Trazado 110608" d="M279.845,69.815a56.709,56.709,0,0,1,.864-21.825h0" transform="translate(-259.887 -20.373)" fill="none" stroke="#db6e5f" stroke-linecap="round" stroke-linejoin="round" stroke-width="3"/>
        <path id="Trazado_110609" data-name="Trazado 110609" d="M291.329,79.694a53.692,53.692,0,0,1-12-26.753" transform="translate(-259.368 -3.5)" fill="none" stroke="#db6e5f" stroke-linecap="round" stroke-linejoin="round" stroke-width="3"/>
        <path id="Trazado_110610" data-name="Trazado 110610" d="M285.724,44.505a56.346,56.346,0,0,0-6.207,15.349" transform="translate(-258.717 -32.25)" fill="none" stroke="#db6e5f" stroke-linecap="round" stroke-linejoin="round" stroke-width="3"/>
        <line id="Línea_323" data-name="Línea 323" y1="19.477" x2="4.647" transform="translate(40.424 33.402)" fill="none" stroke="#db6e5f" stroke-linecap="round" stroke-linejoin="round" stroke-width="3"/>
        <line id="Línea_324" data-name="Línea 324" x1="6.694" y2="28.053" transform="translate(45.072 5.348)" fill="none" stroke="#db6e5f" stroke-linecap="round" stroke-linejoin="round" stroke-width="3"/>
        <line id="Línea_325" data-name="Línea 325" y1="24.357" x2="5.812" transform="translate(34.612 52.879)" fill="none" stroke="#db6e5f" stroke-linecap="round" stroke-linejoin="round" stroke-width="3"/>
        <line id="Línea_326" data-name="Línea 326" x1="24.249" y1="5.786" transform="translate(20.822 27.615)" fill="none" stroke="#db6e5f" stroke-linecap="round" stroke-linejoin="round" stroke-width="3"/>
        <line id="Línea_327" data-name="Línea 327" x2="19.586" y2="4.673" transform="translate(1.237 22.942)" fill="none" stroke="#db6e5f" stroke-linecap="round" stroke-linejoin="round" stroke-width="3"/>
        <line id="Línea_328" data-name="Línea 328" x1="19.586" y1="4.673" transform="translate(69.321 39.188)" fill="none" stroke="#db6e5f" stroke-linecap="round" stroke-linejoin="round" stroke-width="3"/>
        <line id="Línea_329" data-name="Línea 329" x1="24.249" y1="5.786" transform="translate(45.072 33.402)" fill="none" stroke="#db6e5f" stroke-linecap="round" stroke-linejoin="round" stroke-width="3"/>
      </g>
    </g>
    <line id="Línea_330" data-name="Línea 330" y1="0.735" x2="14.694" transform="translate(284.475 45.191)" fill="none" stroke="#db6e5f" stroke-linecap="round" stroke-linejoin="round" stroke-width="3"/>
    <line id="Línea_331" data-name="Línea 331" x2="15.704" y2="0.367" transform="translate(284.108 55.844)" fill="none" stroke="#db6e5f" stroke-linecap="round" stroke-linejoin="round" stroke-width="3"/>
  </g>
</svg>
