<svg xmlns="http://www.w3.org/2000/svg" width="291.414" height="244.696" viewBox="0 0 291.414 244.696">
  <g id="Grupo_87601" data-name="Grupo 87601" transform="translate(-344 -10360)">
    <g id="Grupo_87600" data-name="Grupo 87600" transform="translate(-3082 10288.597)">
      <path id="Trazado_110611" data-name="Trazado 110611" d="M3657.814,148.86c-63.561-33.735-60.239-100.567-143.481-69.377-57.665,21.606-95.887,93.059-87.07,154.239,6.651,46.153,28.6,80.372,69.571,69.289s75.8,2.368,107.288,11.043c39.627,10.917,101.045-23.214,111.035-70.056S3701.251,171.913,3657.814,148.86Z" fill="#daeef7"/>
      <g id="Grupo_87592" data-name="Grupo 87592">
        <path id="Trazado_110612" data-name="Trazado 110612" d="M3591.91,264.745a34.793,34.793,0,0,0-8.817-.3,27.5,27.5,0,0,0,.6,7.786c1.523,6.992,5.285,12.362,9.2,13.746,1.038.367,2.9-3.6,1.906-5.552a28.2,28.2,0,0,1-2.373-6.777A27.084,27.084,0,0,1,3591.91,264.745Z" fill="#ca865a"/>
        <path id="Trazado_110613" data-name="Trazado 110613" d="M3589.9,303.5h59.509l-2.045-43.233h-56.647Z" fill="#000a11"/>
        <g id="Grupo_87591" data-name="Grupo 87591">
          <path id="Trazado_110614" data-name="Trazado 110614" d="M3592.2,184.683l55.845,2.993s-21.112-11.077-21.112-15.868-.45-12.577-.45-12.577l-16.317,3.594v9.581C3610.164,177.2,3592.2,184.683,3592.2,184.683Z" fill="#ca865a"/>
          <path id="Trazado_110615" data-name="Trazado 110615" d="M3614.729,171.658c5.622,0,9.978-1.766,9.281-5.463-.748-3.968-2.76-4.116-8.383-4.116q-.267,0-.531,0h-4.559v8.919A12.861,12.861,0,0,0,3614.729,171.658Z" fill="#a55443"/>
          <path id="Trazado_110616" data-name="Trazado 110616" d="M3603.723,135.353h24.715s-.934,20.66-.934,23.355-5.843,9.436-11.424,9.436-11.424-6.292-11.424-9.436S3603.723,135.353,3603.723,135.353Z" fill="#d9a172"/>
          <g id="Grupo_87587" data-name="Grupo 87587">
            <g id="Grupo_87586" data-name="Grupo 87586">
              <path id="Trazado_110617" data-name="Trazado 110617" d="M3625.955,148.48c-.539,2.039,0,3.948,1.2,4.264s2.608-1.079,3.145-3.117,0-3.948-1.2-4.265S3626.493,146.441,3625.955,148.48Z" fill="#ca865a"/>
            </g>
          </g>
          <g id="Grupo_87589" data-name="Grupo 87589">
            <path id="Trazado_110618" data-name="Trazado 110618" d="M3620.07,148.042c0,.682.278,1.235.619,1.235s.619-.553.619-1.235-.278-1.236-.619-1.236S3620.07,147.36,3620.07,148.042Z"/>
            <path id="Trazado_110619" data-name="Trazado 110619" d="M3608.268,147.93c0,.682.277,1.235.619,1.235s.619-.553.619-1.235-.278-1.236-.619-1.236S3608.268,147.248,3608.268,147.93Z"/>
            <g id="Grupo_87588" data-name="Grupo 87588">
              <path id="Trazado_110620" data-name="Trazado 110620" d="M3622.621,144.987a12.292,12.292,0,0,0-3.055-.582.485.485,0,0,1,.012-.211c.17-.555,1.411-.664,2.77-.246s2.312,1.2,2.154,1.751A14.883,14.883,0,0,0,3622.621,144.987Z" fill="#d99750"/>
              <path id="Trazado_110621" data-name="Trazado 110621" d="M3607.69,145.206a14.22,14.22,0,0,1,3.465-.937.554.554,0,0,0-.034-.243c-.245-.622-1.681-.64-3.207-.039s-2.555,1.581-2.326,2.2A17.4,17.4,0,0,1,3607.69,145.206Z" fill="#d99750"/>
            </g>
          </g>
          <path id="Trazado_110622" data-name="Trazado 110622" d="M3615.03,156.748a1.263,1.263,0,0,1-.691-.2,2.153,2.153,0,0,1-.823-1.58c-.293-1.945.9-5.463.956-5.612l.425.146c-.012.035-1.214,3.563-.937,5.4a1.789,1.789,0,0,0,.617,1.266.811.811,0,0,0,.61.119l.12.433A1.135,1.135,0,0,1,3615.03,156.748Z" fill="#7c2c13"/>
          <path id="Trazado_110623" data-name="Trazado 110623" d="M3612.219,141.228a23.457,23.457,0,0,0-12.368-6.779c-.013-.171-.022-.343-.022-.517,0-4.3,3.888-7.784,8.683-7.784a12.885,12.885,0,0,1,1.511.1,12.5,12.5,0,0,1,8.224-2.793c5.788,0,10.481,3.284,10.481,7.336a4.79,4.79,0,0,1-.127,1.1c1.991.353,3.533,2.732,3.533,5.621a9.071,9.071,0,0,1-.837,3.64,3.921,3.921,0,0,1,.281,3.386c-.639,1.879-2.3,3.013-3.709,2.534-1.377-.469-2-2.306-1.432-4.142-.211-1.3-.139-3.178-1.377-4.575a9.54,9.54,0,0,1-1.048-1.4,32.415,32.415,0,0,1-5.765,2.524,12.561,12.561,0,0,1-2.236.556A25.526,25.526,0,0,1,3612.219,141.228Z" fill="#d99750"/>
          <path id="Trazado_110624" data-name="Trazado 110624" d="M3598.419,133.182c0,4.837,4.424,8.757,9.881,8.757s9.881-3.92,9.881-8.757-4.424-8.758-9.881-8.758S3598.419,128.345,3598.419,133.182Z" fill="#d99750"/>
          <g id="Grupo_87590" data-name="Grupo 87590">
            <path id="Trazado_110625" data-name="Trazado 110625" d="M3616.315,166.348c-6.277,1.39-10.845-3.44-11.053-6.133.208,2.789,5.314,8.827,10.629,8.827,5.418,0,11.539-5.843,11.539-8.987,0-.516.024-1.494.065-2.767C3626.286,160.392,3621.332,165.237,3616.315,166.348Z" fill="#d99750"/>
          </g>
        </g>
        <path id="Trazado_110626" data-name="Trazado 110626" d="M3660.417,194.1c-1.634-5.647-32.646-19.812-32.646-19.812l-8.837,3.492-9.707-3.456s-23.954,9.778-26.678,17.4c-1.361,3.811-11.129,35.694-11.456,53.183s8.783,20.609,8.783,20.609,2.537,6.911,8.8,6.922c4.209.008,41.338.005,58.937,0l-3.927-58.149,4.139,13.93L3636.914,263c5.4,0,6.3,7.638,6.3,7.638s6.568,1.816,10.464-10.075c1.3-3.972,12.828-22.3,13.279-29.882C3667.909,214.744,3661.524,197.922,3660.417,194.1Z" fill="#ed971b"/>
        <path id="Trazado_110627" data-name="Trazado 110627" d="M3643.568,268.514a37.028,37.028,0,0,0-5-7.489,26.209,26.209,0,0,0-5.727,5.117c-4.558,5.412-6.522,11.719-5.279,15.788.329,1.079,4.536.271,5.469-1.713a27.707,27.707,0,0,1,3.887-5.99A25.689,25.689,0,0,1,3643.568,268.514Z" fill="#ca865a"/>
        <path id="Trazado_110628" data-name="Trazado 110628" d="M3643.878,268.167a22.989,22.989,0,0,0-4.517-3.481,17.189,17.189,0,0,0-2.451,4.309c-1.686,4.241-1.62,8.476-.059,10.678.415.584,2.8-.793,2.973-2.192a18.031,18.031,0,0,1,1.163-4.448A16.934,16.934,0,0,1,3643.878,268.167Z" fill="#ca865a"/>
        <rect id="Rect치ngulo_34207" data-name="Rect치ngulo 34207" width="57.761" height="0.479" transform="translate(3590.405 257.726) rotate(-87.823)" fill="#105959"/>
        <path id="Trazado_110629" data-name="Trazado 110629" d="M3614.563,162.151a3.744,3.744,0,0,0,.752-.075,3.508,3.508,0,0,0,2.219-1.5l-.387-.229a3.1,3.1,0,0,1-1.931,1.29c-1.21.246-2.617-.211-4.179-1.356l-.266.362A6.6,6.6,0,0,0,3614.563,162.151Z" fill="#7c2c13"/>
        <path id="Trazado_110630" data-name="Trazado 110630" d="M3627.1,174.382l-8.838,3.492-9.706-3.457s-1.286.525-3.294,1.426v95.973h25.06V175.893C3628.335,174.946,3627.1,174.382,3627.1,174.382Z" fill="#fff"/>
        <path id="Trazado_110631" data-name="Trazado 110631" d="M3610.919,246.59l4.025,5.994,3.637-5.994.787-55.747,1.46-3.992-3.649-8.383-3.647,8.583,1.789,4.186Z" fill="#001016"/>
      </g>
      <g id="Grupo_87599" data-name="Grupo 87599">
        <g id="Grupo_87598" data-name="Grupo 87598">
          <path id="Trazado_110632" data-name="Trazado 110632" d="M3493.694,155.92V139.089c0-9.4,7.909-17.01,17.666-17.01s17.667,7.615,17.667,17.01V155.92Z" fill="#210600"/>
          <g id="Grupo_87597" data-name="Grupo 87597">
            <path id="Trazado_110633" data-name="Trazado 110633" d="M3533.616,180.521l-25.762,9.681-28.814-6.847s20.633-10.485,20.633-15.02.439-11.905.439-11.905l15.947,3.4V168.9C3516.059,173.437,3533.616,180.521,3533.616,180.521Z" fill="#753321"/>
            <path id="Trazado_110634" data-name="Trazado 110634" d="M3511.6,168.194c-5.494,0-9.751-4.746-9.071-8.246.731-3.755,2.7-.821,8.193-.821.174,0,.347,0,.519,0h4.455v8.441A12.92,12.92,0,0,1,3511.6,168.194Z" fill="#502110"/>
            <path id="Trazado_110635" data-name="Trazado 110635" d="M3522.353,133.83H3498.2s.911,19.555.911,22.106,5.71,8.931,11.165,8.931,11.165-5.956,11.165-8.931S3522.353,133.83,3522.353,133.83Z" fill="#753321"/>
            <g id="Grupo_87594" data-name="Grupo 87594">
              <g id="Grupo_87593" data-name="Grupo 87593">
                <path id="Trazado_110636" data-name="Trazado 110636" d="M3500.627,146.255c.526,1.929,0,3.737-1.169,4.036s-2.549-1.022-3.075-2.951,0-3.737,1.17-4.036S3500.1,144.325,3500.627,146.255Z" fill="#753321"/>
              </g>
            </g>
            <g id="Grupo_87596" data-name="Grupo 87596">
              <path id="Trazado_110637" data-name="Trazado 110637" d="M3507.7,145.84c0,.645-.271,1.169-.6,1.169s-.606-.524-.606-1.169.271-1.169.606-1.169S3507.7,145.194,3507.7,145.84Z"/>
              <path id="Trazado_110638" data-name="Trazado 110638" d="M3519.229,145.734c0,.645-.271,1.169-.6,1.169s-.606-.524-.606-1.169.272-1.169.606-1.169S3519.229,145.088,3519.229,145.734Z"/>
              <g id="Grupo_87595" data-name="Grupo 87595">
                <path id="Trazado_110639" data-name="Trazado 110639" d="M3505.2,142.948a12.411,12.411,0,0,1,2.986-.55.437.437,0,0,0-.012-.2c-.166-.524-1.378-.628-2.707-.232s-2.259,1.134-2.1,1.658A14.9,14.9,0,0,1,3505.2,142.948Z"/>
                <path id="Trazado_110640" data-name="Trazado 110640" d="M3519.794,143.156a14.232,14.232,0,0,0-3.386-.887.494.494,0,0,1,.033-.23c.239-.589,1.643-.606,3.134-.037s2.5,1.5,2.273,2.086A17.03,17.03,0,0,0,3519.794,143.156Z"/>
              </g>
            </g>
            <path id="Trazado_110641" data-name="Trazado 110641" d="M3511.3,153.2a1.29,1.29,0,0,0,.674-.185,1.939,1.939,0,0,0,.8-1.445c.287-1.779-.884-5-.935-5.133l-.415.133c.012.032,1.187,3.26.916,4.938a1.6,1.6,0,0,1-.6,1.159.838.838,0,0,1-.6.108l-.117.4A1.112,1.112,0,0,0,3511.3,153.2Z" fill="#471700"/>
            <path id="Trazado_110642" data-name="Trazado 110642" d="M3508.514,156.409a1.363,1.363,0,0,0,.012.178c.175,1.167,1.824,1.887,3.681,1.608s3.222-1.452,3.047-2.619a1.406,1.406,0,0,0-.041-.174Z" fill="#fff"/>
            <path id="Trazado_110643" data-name="Trazado 110643" d="M3523.064,145.27c.012-.162,3.094-12.62,3.094-12.785,0-4.069-3.8-7.368-8.485-7.368a13.107,13.107,0,0,0-1.476.091,12.477,12.477,0,0,0-8.037-2.643c-5.657,0-10.242,3.109-10.242,6.943a4.413,4.413,0,0,0,.123,1.039c-1.945.333-3.452,2.585-3.452,5.319a8.373,8.373,0,0,0,.816,3.446,3.661,3.661,0,0,0-.712,3.205c.624,1.778-1.266,3.73.111,3.276,1.346-.443,10.1-7.409,10.356-7.82,1.652.932-.343-4.426,1.682-3.758C3507.626,134.473,3520.329,139.418,3523.064,145.27Z" fill="#210600"/>
          </g>
        </g>
        <path id="Trazado_110644" data-name="Trazado 110644" d="M3533.182,259.273a34.047,34.047,0,0,1,8.617-.291,26.876,26.876,0,0,1-.587,7.609c-1.488,6.833-5.164,12.082-8.992,13.433-1.015.359-2.838-3.517-1.863-5.424a27.6,27.6,0,0,0,2.319-6.624A26.463,26.463,0,0,0,3533.182,259.273Z" fill="#753321"/>
        <path id="Trazado_110645" data-name="Trazado 110645" d="M3535.147,297.153h-58.156l2-42.251h55.36Z" fill="#000a11"/>
        <path id="Trazado_110646" data-name="Trazado 110646" d="M3469.092,190.231c1.6-5.52,29.044-19.363,29.044-19.363s5.807,11.3,12.15,12.2,8.168-12.161,8.168-12.161,21.215,9.557,23.876,17.008c1.331,3.725,4.116,21.742,4.436,38.833a251.741,251.741,0,0,1-1.823,33.281s-2.48,6.755-8.6,6.765c-4.113.007-40.4.005-57.6,0l3.838-56.826-4.045,13.613,10.661,33.99c-5.274,0-6.158,7.465-6.158,7.465s-6.419,1.774-10.226-9.846c-1.272-3.881-13.482-10.983-13.923-18.394C3457.965,221.218,3468.01,193.971,3469.092,190.231Z" fill="#729edb"/>
        <path id="Trazado_110647" data-name="Trazado 110647" d="M3482.7,262.957a36.176,36.176,0,0,1,4.886-7.319,25.585,25.585,0,0,1,5.6,5c4.456,5.288,6.375,11.452,5.16,15.429-.322,1.054-4.433.265-5.344-1.675a27.163,27.163,0,0,0-3.8-5.853A25.149,25.149,0,0,0,3482.7,262.957Z" fill="#753321"/>
        <path id="Trazado_110648" data-name="Trazado 110648" d="M3482.4,262.619a22.456,22.456,0,0,1,4.415-3.4,16.848,16.848,0,0,1,2.4,4.211c1.648,4.145,1.584,8.284.057,10.436-.405.57-2.738-.774-2.9-2.143a17.689,17.689,0,0,0-1.137-4.347A16.533,16.533,0,0,0,3482.4,262.619Z" fill="#753321"/>
        <rect id="Rect치ngulo_34208" data-name="Rect치ngulo 34208" width="0.368" height="56.448" transform="translate(3532.092 196.024) rotate(-2.177)" fill="#734734"/>
      </g>
    </g>
  </g>
</svg>
