<svg xmlns="http://www.w3.org/2000/svg" width="502.361" height="254.01" viewBox="0 0 502.361 254.01">
  <g id="Grupo_87695" data-name="Grupo 87695" transform="translate(-344 -12465.067)">
    <path id="Trazado_110808" data-name="Trazado 110808" d="M698.975,824.195c-.3-18.6-7.548-25.843-12.564-38.841-6.128-15.875-10.042-27.294-1.98-44.191,13.173-27.612,36.987-98.47-34.4-104.283-25.585-2.084-51.389,14.411-71.892,32.036-17.446,15-39.534,11.783-58.194,12.057-22.927.337-47.046,3.168-70.264,9.993-47.816,14.054-70.176,44.5-81.564,87.256-3.441,12.918-8.01,33.453,4.316,61.385,16.636,37.7,57.05,39.928,107.8,35.51,11.617-1.011,23.241-4.055,34.872-5.71a143.531,143.531,0,0,1,35.935-.634c27.436,3.029,50.09,24.76,78.268,21.63a95.169,95.169,0,0,0,43.1-16.515C688.915,862.5,699.286,843.827,698.975,824.195Z" transform="translate(85.964 11828.367)" fill="#daeef7"/>
    <g id="Grupo_87694" data-name="Grupo 87694" transform="translate(80.55 12207.02)">
      <g id="Grupo_87637" data-name="Grupo 87637" transform="translate(263.45 258.048)">
        <path id="Trazado_110684" data-name="Trazado 110684" d="M518.153,1307.336H435.089s5.618-21.5,11.4-30.334a15.221,15.221,0,0,1,1.707-2.206c6.327-6.6,56.672.905,56.672.905s.579.717,1.492,2.013C509.619,1282.325,517.165,1294.278,518.153,1307.336Z" transform="translate(-387.48 -1089.654)" fill="#22452e"/>
        <path id="Trazado_110685" data-name="Trazado 110685" d="M558.319,1277.713c-15.506,8.026-47.446,9.075-59.869-.709l0,0a15.227,15.227,0,0,1,1.707-2.206c6.327-6.6,56.672.905,56.672.905S557.405,1276.418,558.319,1277.713Z" transform="translate(-439.44 -1089.654)" fill="#0e1c13"/>
        <path id="Trazado_110686" data-name="Trazado 110686" d="M339.085,772c-2.169.95-10.711,4.745-16,3.592-4.8-1.046-13.735-4.718-23.256-8.127q-1.446-.518-2.91-1.025c-.948,5.669-2.575,37.556-1.763,44.743s2.44,7.32-5.692,15.32c-42.3,6.779-58.571-1.221-59.248-1.763s-4.2-3.526-3.8-6.372a40.807,40.807,0,0,1,2.44-7.594l.406-5.692-8.406-42.911-18.7,21.817-2.042,2.384,5.286,4.067a32.2,32.2,0,0,1-9.441,11.929c-23.949-4.745-27.028-12.609-24.995-18.3s37.147-46.1,44.6-52.2c5.408-4.426,18.089-7.28,26.925-8.775,3.345-.566,6.141-.935,7.782-1.121h17.083s6.04.494,12.8,1.338c6.484.81,13.634,1.943,16.753,3.271,6.372,2.711,35.928,14.507,38.233,16.676s8.406,13.963,8.541,17.083S341.254,771.048,339.085,772Z" transform="translate(-170.45 -638.509)" fill="#df674e"/>
        <path id="Trazado_110687" data-name="Trazado 110687" d="M608.607,723.307c-2.461,6.914-8.39,19.116-20.006,24.286-8.594-5.244-15.264-16.143-17.661-24.5,3.345-.566,6.141-.935,7.782-1.121H595.8S601.845,722.463,608.607,723.307Z" transform="translate(-498.891 -638.509)" fill="#915443"/>
        <g id="Grupo_87620" data-name="Grupo 87620" transform="translate(44.726 92.958)">
          <path id="Trazado_110688" data-name="Trazado 110688" d="M424.745,805.859a.4.4,0,0,1-.392-.33l-5.286-30.3a.4.4,0,1,1,.785-.137l5.286,30.3a.4.4,0,0,1-.324.461A.407.407,0,0,1,424.745,805.859Z" transform="translate(-419.061 -774.76)" fill="#b54229"/>
        </g>
        <g id="Grupo_87621" data-name="Grupo 87621" transform="translate(126.071 89.352)">
          <path id="Trazado_110689" data-name="Trazado 110689" d="M871.627,793.692l-.042,0a.4.4,0,0,1-.354-.438l4.045-38.177a.4.4,0,1,1,.792.084l-4.045,38.177A.4.4,0,0,1,871.627,793.692Z" transform="translate(-871.228 -754.719)" fill="#b54229"/>
        </g>
        <path id="Trazado_110690" data-name="Trazado 110690" d="M876.352,873.184q-1.446-.518-2.91-1.025l2.254-21.275Z" transform="translate(-746.972 -744.232)" fill="#b54229"/>
        <path id="Trazado_110691" data-name="Trazado 110691" d="M270.042,1038,268,1040.38l-14.778-8.677Z" transform="translate(-238.331 -892.521)" fill="#b54229"/>
        <path id="Trazado_110692" data-name="Trazado 110692" d="M965.161,846.157s1.763-3.39,3.932-3.933,6.643,2.223,8.406,3.687,1.9,9.057,1.085,12.989-4,9.219-6.472,10.033-7.222,0-8.171-.814-2.034-5.287-1.762-9.9S965.161,846.157,965.161,846.157Z" transform="translate(-819.71 -737.073)" fill="#ffa383"/>
        <path id="Trazado_110693" data-name="Trazado 110693" d="M330.085,1101.651a16.589,16.589,0,0,0,1.879-6.023,3.834,3.834,0,0,0-2.282-3.772l-3.3-1.474a3.835,3.835,0,0,0-2.746-.156,13.127,13.127,0,0,0-7.663,6.675,17.823,17.823,0,0,0-2.1,8.221,3.845,3.845,0,0,0,2.53,3.568l3.868,1.425a3.846,3.846,0,0,0,3.607-.5A21.5,21.5,0,0,0,330.085,1101.651Z" transform="translate(-288.069 -940.365)" fill="#ffa383"/>
        <path id="Trazado_110694" data-name="Trazado 110694" d="M986.518,861.007l-4.569-.745c2.894,5.925,3.134,14.183-1.376,19.038l1.2.55S990.856,874.295,986.518,861.007Z" transform="translate(-834.83 -751.922)" fill="#703525"/>
        <path id="Trazado_110695" data-name="Trazado 110695" d="M868.753,840.785l-26.207-4.273v11.931l24.831,11.38C871.887,854.967,871.647,846.71,868.753,840.785Z" transform="translate(-721.635 -732.445)" fill="#915443"/>
        <path id="Trazado_110696" data-name="Trazado 110696" d="M358.128,1118.072l-.85-.459s-6.236,1.9-6.1,11.253l3.359.655A11.262,11.262,0,0,1,358.128,1118.072Z" transform="translate(-318.661 -962.975)" fill="#703525"/>
        <path id="Trazado_110697" data-name="Trazado 110697" d="M397.788,1124.9c-.814-1.942-8.27-3.027-10.168-2.891s-4.882,4.067-4.882,4.067l-10.944-5.913a11.262,11.262,0,0,0-3.593,11.448l12.64,2.464s-.678,2.847,5.152,4.61,6.1,2.034,8.27.813S399.428,1128.819,397.788,1124.9Z" transform="translate(-332.327 -965.069)" fill="#915443"/>
        <path id="Trazado_110698" data-name="Trazado 110698" d="M758.479,809.755c-.27,5.612-.309,12.622-4.975,16.512-1.628,1.357-3.51,2.768-4.365,4.781-1.207,2.843-.988,6.014-1.925,8.926-.742,2.3-2.291,4.318-4.972,3.687-2.162-.509-3-2.621-2.628-4.636a13.642,13.642,0,0,1,1.827-4.182,12.314,12.314,0,0,0,1.748-4.21,6.429,6.429,0,0,0-2.631-6.084c-1.21-.841-2.761-1.3-3.584-2.523a6.188,6.188,0,0,1-.636-3.781q.222-4.884.443-9.767c.122-2.691-.021-5.41,2.467-7.138a7.648,7.648,0,0,1,4.556-1.006,27.817,27.817,0,0,1,10.65,2.353C757.762,804.144,758.648,806.227,758.479,809.755Z" transform="translate(-634.511 -702.771)" fill="#915443"/>
        <g id="Grupo_87623" data-name="Grupo 87623" transform="translate(93.058 114.22)">
          <path id="Trazado_110699" data-name="Trazado 110699" d="M703,902.227c-2.6.447-6.1-.383-8.111-.7-1.77-.28-3.734-.783-4.59-2.211a2.675,2.675,0,0,1-.1-2.558c1.036-2.073,4.076-1.594,6.165-1.478,2.329.129,12.376,1.836,9.208,5.649A4.129,4.129,0,0,1,703,902.227Z" transform="translate(-689.527 -894.753)" fill="#915443"/>
          <g id="Grupo_87622" data-name="Grupo 87622">
            <path id="Trazado_110700" data-name="Trazado 110700" d="M699.511,900.949a30.862,30.862,0,0,1-5.285-.626c-.44-.079-.845-.152-1.2-.209-1.764-.279-3.913-.8-4.87-2.4a3.084,3.084,0,0,1-.117-2.941c1.042-2.084,3.813-1.888,5.835-1.745.245.017.482.034.708.047,1.331.074,8.833,1.094,10.029,3.838a2.274,2.274,0,0,1-.537,2.464,4.5,4.5,0,0,1-2.808,1.437A10.42,10.42,0,0,1,699.511,900.949Zm-7.425-7.206c-1.415,0-2.767.248-3.337,1.387a2.282,2.282,0,0,0,.088,2.175c.788,1.313,2.718,1.771,4.311,2.023.363.057.774.131,1.22.212a21.521,21.521,0,0,0,6.761.49h0a3.743,3.743,0,0,0,2.331-1.161,1.528,1.528,0,0,0,.419-1.636c-.893-2.047-7.045-3.234-9.343-3.361-.23-.013-.471-.03-.72-.047C693.261,893.785,692.668,893.743,692.086,893.743Z" transform="translate(-687.719 -892.948)" fill="#703525"/>
          </g>
        </g>
        <g id="Grupo_87625" data-name="Grupo 87625" transform="translate(95.062 101.478)">
          <path id="Trazado_110701" data-name="Trazado 110701" d="M714.559,831.417c-2.685.447-6.294-.383-8.367-.7-1.826-.28-3.852-.783-4.735-2.211a2.6,2.6,0,0,1-.106-2.558c1.069-2.073,4.205-1.594,6.36-1.478,2.4.129,12.767,1.836,9.5,5.649A4.305,4.305,0,0,1,714.559,831.417Z" transform="translate(-700.669 -823.939)" fill="#915443"/>
          <g id="Grupo_87624" data-name="Grupo 87624">
            <path id="Trazado_110702" data-name="Trazado 110702" d="M711.012,830.124a32.786,32.786,0,0,1-5.448-.625c-.453-.079-.872-.152-1.242-.209-1.816-.278-4.028-.8-5.014-2.4a3.011,3.011,0,0,1-.121-2.949c1.072-2.079,3.807-1.891,6-1.74.253.017.5.034.732.047,1.383.074,9.166,1.1,10.349,3.869a2.242,2.242,0,0,1-.57,2.437,4.679,4.679,0,0,1-2.888,1.432h0A11.06,11.06,0,0,1,711.012,830.124Zm-7.663-7.207c-1.464,0-2.863.249-3.453,1.392a2.211,2.211,0,0,0,.09,2.166c.814,1.316,2.81,1.775,4.457,2.027.374.057.8.131,1.258.211a22.908,22.908,0,0,0,6.983.49h0a3.921,3.921,0,0,0,2.414-1.165,1.5,1.5,0,0,0,.442-1.606c-.882-2.062-7.268-3.258-9.66-3.387-.237-.013-.486-.03-.743-.047C704.565,822.959,703.951,822.917,703.349,822.917Z" transform="translate(-698.859 -822.119)" fill="#703525"/>
          </g>
        </g>
        <g id="Grupo_87627" data-name="Grupo 87627" transform="translate(96.803 95.877)">
          <path id="Trazado_110703" data-name="Trazado 110703" d="M723.925,800.264c-2.623.447-6.15-.383-8.175-.7-1.784-.28-3.763-.783-4.627-2.211a2.656,2.656,0,0,1-.1-2.558c1.045-2.073,4.109-1.594,6.214-1.478,2.348.129,12.474,1.836,9.281,5.649A4.172,4.172,0,0,1,723.925,800.264Z" transform="translate(-710.345 -792.79)" fill="#915443"/>
          <g id="Grupo_87626" data-name="Grupo 87626">
            <path id="Trazado_110704" data-name="Trazado 110704" d="M720.419,798.987a31.332,31.332,0,0,1-5.326-.626c-.443-.079-.852-.152-1.213-.209-1.778-.279-3.942-.8-4.906-2.4a3.065,3.065,0,0,1-.118-2.943c1.05-2.083,3.84-1.886,5.877-1.743.247.017.486.034.714.047,1.344.074,8.917,1.1,10.109,3.846a2.266,2.266,0,0,1-.545,2.457,4.548,4.548,0,0,1-2.828,1.436h0A10.566,10.566,0,0,1,720.419,798.987Zm-7.485-7.206c-1.428,0-2.792.248-3.367,1.389a2.263,2.263,0,0,0,.089,2.172c.794,1.314,2.74,1.772,4.347,2.024.366.057.78.132,1.229.212a21.863,21.863,0,0,0,6.817.49h0a3.788,3.788,0,0,0,2.352-1.162,1.52,1.52,0,0,0,.425-1.628c-.89-2.051-7.1-3.24-9.423-3.368-.232-.013-.475-.03-.726-.047C714.12,791.823,713.521,791.781,712.934,791.781Z" transform="translate(-708.536 -790.986)" fill="#703525"/>
          </g>
        </g>
        <g id="Grupo_87629" data-name="Grupo 87629" transform="translate(93.504 107.557)">
          <path id="Trazado_110705" data-name="Trazado 110705" d="M706.13,865.738c-2.732.481-6.4-.412-8.513-.755-1.858-.3-3.919-.843-4.818-2.381a2.946,2.946,0,0,1-.107-2.754c1.088-2.232,4.279-1.716,6.471-1.592,2.445.139,12.991,1.977,9.665,6.083A4.3,4.3,0,0,1,706.13,865.738Z" transform="translate(-692.005 -857.72)" fill="#915443"/>
          <g id="Grupo_87628" data-name="Grupo 87628">
            <path id="Trazado_110706" data-name="Trazado 110706" d="M702.555,864.469a31.6,31.6,0,0,1-5.545-.674c-.462-.085-.888-.164-1.263-.225-1.849-.3-4.1-.864-5.1-2.573a3.357,3.357,0,0,1-.122-3.13c1.087-2.23,3.99-2.02,6.108-1.865.257.019.506.037.743.05,1.385.079,9.205,1.167,10.5,4.086a2.451,2.451,0,0,1-.545,2.646,4.674,4.674,0,0,1-2.937,1.54h0A10.657,10.657,0,0,1,702.555,864.469Zm1.768-.537h0Zm-9.56-7.223c-1.491,0-2.917.269-3.521,1.507a2.552,2.552,0,0,0,.093,2.379c.832,1.422,2.862,1.917,4.538,2.189.381.062.813.141,1.281.228,2.08.384,4.929.91,7.1.528h0a3.913,3.913,0,0,0,2.457-1.257,1.7,1.7,0,0,0,.436-1.822c-.974-2.2-7.415-3.476-9.814-3.613-.241-.014-.495-.032-.756-.051C696,856.755,695.374,856.71,694.763,856.71Z" transform="translate(-690.197 -855.915)" fill="#703525"/>
          </g>
        </g>
        <g id="Grupo_87630" data-name="Grupo 87630" transform="translate(110.292 106.359)">
          <path id="Trazado_110707" data-name="Trazado 110707" d="M783.916,855a.4.4,0,0,1-.318-.637,12.258,12.258,0,0,1,8.98-5.106.4.4,0,0,1,.055.795,11.324,11.324,0,0,0-8.4,4.79A.4.4,0,0,1,783.916,855Z" transform="translate(-783.518 -849.251)" fill="#703525"/>
        </g>
        <path id="Trazado_110708" data-name="Trazado 110708" d="M629.335,640.075v18.346l-22.414,1.808V641.339Z" transform="translate(-528.399 -571.348)" fill="#915443"/>
        <path id="Trazado_110709" data-name="Trazado 110709" d="M629.335,640.075v6.869c-8.451,14.3-17.378,8.743-22.414.812v-6.417Z" transform="translate(-528.399 -571.348)" fill="#703525"/>
        <path id="Trazado_110710" data-name="Trazado 110710" d="M524.394,283.046a8.852,8.852,0,0,0-3.283-2.1,15.55,15.55,0,0,0-7.19-1.075,9.3,9.3,0,0,0,2.184-.576,3.128,3.128,0,0,0,1.627-1.5,2.86,2.86,0,0,0-.738-3.1,4.693,4.693,0,0,0-3.106-1.176,11.178,11.178,0,0,0-3.011.361,20.4,20.4,0,0,0,4.753-1.837,7.85,7.85,0,0,0,3.414-3.677,4.91,4.91,0,0,0-.539-4.842,6.612,6.612,0,0,0-3.87-2.028,17.245,17.245,0,0,0-16.2,5.236,11.384,11.384,0,0,0-6.747-8.078c-1.987-.805-4.483-.937-6.078.5a4.606,4.606,0,0,0-1.373,3.881,6.874,6.874,0,0,0,1.809,3.795,23.5,23.5,0,0,0-18.727-5.869,13.181,13.181,0,0,0-4.7,1.385,7.094,7.094,0,0,0-3.277,3.544,6.845,6.845,0,0,0,1.286,6.631,10.064,10.064,0,0,0,5.066,3.146,10.6,10.6,0,0,0-2.745-.152,6.063,6.063,0,0,0-3.326,1.122,3.35,3.35,0,0,0-1.341,3.112,3.489,3.489,0,0,0,2.115,2.432,7.927,7.927,0,0,0,3.292.508,11.58,11.58,0,0,0-10.306,6.475,6.626,6.626,0,0,0-.583,4.743,5.891,5.891,0,0,0,5.143,3.752,10.441,10.441,0,0,0,5.322-1.109,3.626,3.626,0,0,0-1.22,2.159,3.756,3.756,0,0,0,1.325,3.61A4.942,4.942,0,0,0,467.6,303a13.793,13.793,0,0,0,3.967-1.94c8.656-5.508,20.262-1.471,30.517-1.163a16.637,16.637,0,0,1,7.107,1.677,3.082,3.082,0,0,0,5.6-.879,2.869,2.869,0,0,0-.843-3.107,8.614,8.614,0,0,0,4.209,1.379,3.61,3.61,0,0,0,3.491-2.3,3.688,3.688,0,0,0-1.078-3.465,11.292,11.292,0,0,0-3.189-2.172,11.951,11.951,0,0,0,5.142-.6,4.953,4.953,0,0,0,3.2-3.806A4.692,4.692,0,0,0,524.394,283.046Z" transform="translate(-401.823 -258.048)" fill="#332026"/>
        <path id="Trazado_110711" data-name="Trazado 110711" d="M550.048,422.152c-1.356-3.936-1.9-14.059-1.356-17.945s7.773-12.925,19.523-12.835,19.252,7.683,20.066,13.287-.452,16.721-.452,16.721Z" transform="translate(-480.475 -367.386)" fill="#332026"/>
        <path id="Trazado_110712" data-name="Trazado 110712" d="M567.7,432.879c-.542,5.242-1.356,14.281-.542,20.608.462,3.6,5.875,19.711,17.805,19.711,9.491,0,16.4-14.379,16.4-20.344,0-5.156-.766-19.975-.766-19.975l-16.811-9.852Z" transform="translate(-495.511 -393.347)" fill="#915443"/>
        <ellipse id="Elipse_4431" data-name="Elipse 4431" cx="5.899" cy="4.947" rx="5.899" ry="4.947" transform="translate(101.734 59.447) rotate(-60)" fill="#915443"/>
        <ellipse id="Elipse_4432" data-name="Elipse 4432" cx="4.947" cy="5.899" rx="4.947" ry="5.899" transform="translate(60.609 54.177) rotate(-30)" fill="#915443"/>
        <path id="Trazado_110713" data-name="Trazado 110713" d="M542.407,438.868a47.024,47.024,0,0,1,17.488-14.648,9.54,9.54,0,0,1-.805-3.375,37.433,37.433,0,0,0-18.14,7.7,1.013,1.013,0,0,0-.382.771,75.57,75.57,0,0,0,.017,9.044A1.014,1.014,0,0,0,542.407,438.868Z" transform="translate(-473.872 -391.557)" fill="#df674e"/>
        <path id="Trazado_110714" data-name="Trazado 110714" d="M687.215,438.868a47.026,47.026,0,0,0-17.488-14.648,9.536,9.536,0,0,0,.806-3.375,37.435,37.435,0,0,1,18.14,7.7,1.013,1.013,0,0,1,.382.771,75.57,75.57,0,0,1-.017,9.044A1.014,1.014,0,0,1,687.215,438.868Z" transform="translate(-579.906 -391.557)" fill="#df674e"/>
        <ellipse id="Elipse_4433" data-name="Elipse 4433" cx="4.655" cy="4.248" rx="4.655" ry="4.248" transform="translate(83.402 26.155)" fill="#df674e"/>
        <g id="Grupo_87631" data-name="Grupo 87631" transform="translate(85.159 26.23)">
          <path id="Trazado_110715" data-name="Trazado 110715" d="M644.346,412.083a.4.4,0,0,1-.387-.308,5.465,5.465,0,0,1-.14-1.524,6.994,6.994,0,0,1,2.3-4.686,9.589,9.589,0,0,1,2.556-1.677.4.4,0,1,1,.331.724,8.8,8.8,0,0,0-2.345,1.536,6.194,6.194,0,0,0-2.05,4.142,4.672,4.672,0,0,0,.12,1.3.4.4,0,0,1-.388.489Z" transform="translate(-643.812 -403.852)" fill="#b54229"/>
        </g>
        <g id="Grupo_87632" data-name="Grupo 87632" transform="translate(88.741 26.902)">
          <path id="Trazado_110716" data-name="Trazado 110716" d="M664.748,415.438a.4.4,0,0,1-.357-.221,6.217,6.217,0,0,1-.648-3.237,6.287,6.287,0,0,1,2.219-4.3.4.4,0,0,1,.513.609,5.561,5.561,0,0,0-1.939,3.75,5.422,5.422,0,0,0,.568,2.822.4.4,0,0,1-.356.576Z" transform="translate(-663.725 -407.587)" fill="#b54229"/>
        </g>
        <g id="Grupo_87633" data-name="Grupo 87633" transform="translate(68.126 23.601)">
          <path id="Trazado_110717" data-name="Trazado 110717" d="M588.309,401.406a.4.4,0,0,1-.366-.241c-2.873-6.692-9.912-10.957-18.37-11.13a22.849,22.849,0,0,0-19.7,10.856.4.4,0,1,1-.682-.411,23.652,23.652,0,0,1,20.4-11.241c8.774.18,16.087,4.63,19.086,11.612a.4.4,0,0,1-.366.556Z" transform="translate(-549.133 -389.234)" fill="#1a1013"/>
        </g>
        <g id="Grupo_87634" data-name="Grupo 87634" transform="translate(82.974 55.989)">
          <path id="Trazado_110718" data-name="Trazado 110718" d="M635.368,580.177a4.21,4.21,0,0,1-3.153-1.433,1.9,1.9,0,0,1-.549-1.3,2.376,2.376,0,0,1,1.043-1.6l.056-.049a9.472,9.472,0,0,0,3.179-6.165.4.4,0,0,1,.793.078,10.274,10.274,0,0,1-3.448,6.688l-.057.049c-.371.322-.754.654-.769,1.031a1.152,1.152,0,0,0,.354.749,3.449,3.449,0,0,0,2.7,1.156.4.4,0,1,1,.035.8C635.487,580.176,635.427,580.177,635.368,580.177Z" transform="translate(-631.665 -569.267)" fill="#612e20"/>
        </g>
        <g id="Grupo_87635" data-name="Grupo 87635" transform="translate(85.43 67.721)">
          <path id="Trazado_110719" data-name="Trazado 110719" d="M645.716,640.081a.4.4,0,0,1-.352-.584,9.4,9.4,0,0,1,9.308-4.964.4.4,0,0,1-.084.792,8.6,8.6,0,0,0-8.519,4.543A.4.4,0,0,1,645.716,640.081Z" transform="translate(-645.318 -634.481)" fill="#612e20"/>
        </g>
        <g id="Grupo_87636" data-name="Grupo 87636" transform="translate(89.312 70.644)">
          <path id="Trazado_110720" data-name="Trazado 110720" d="M667.3,653.353a.4.4,0,0,1-.311-.647,5.563,5.563,0,0,1,3.187-1.969.4.4,0,1,1,.165.779,4.83,4.83,0,0,0-2.729,1.686A.4.4,0,0,1,667.3,653.353Z" transform="translate(-666.9 -650.729)" fill="#612e20"/>
        </g>
        <path id="Trazado_110721" data-name="Trazado 110721" d="M680.188,537.869a4,4,0,0,1,1.433-1.985,5.1,5.1,0,0,1,4.833-.735,4,4,0,0,1,1.959,1.469.432.432,0,0,1-.413.668l-.026,0a18.374,18.374,0,0,0-1.951-.173,9.452,9.452,0,0,0-3.408.518,18.386,18.386,0,0,0-1.811.746l-.023.01a.432.432,0,0,1-.594-.515Z" transform="translate(-588.471 -485.046)" fill="#332026"/>
        <path id="Trazado_110722" data-name="Trazado 110722" d="M588.641,529.03a4.319,4.319,0,0,1,1.68-1.8,5.6,5.6,0,0,1,4.873-.454,4.32,4.32,0,0,1,1.983,1.455.435.435,0,0,1-.382.688h-.022c-.754-.052-1.4-.109-2.029-.123a14.475,14.475,0,0,0-3.607.336c-.617.13-1.241.3-1.972.5l-.021.005a.435.435,0,0,1-.5-.605Z" transform="translate(-513.374 -478.142)" fill="#332026"/>
        <ellipse id="Elipse_4434" data-name="Elipse 4434" cx="1.391" cy="2.185" rx="1.391" ry="2.185" transform="translate(79.556 54.505)" fill="#332026"/>
        <ellipse id="Elipse_4435" data-name="Elipse 4435" cx="1.391" cy="2.185" rx="1.391" ry="2.185" transform="translate(94.096 54.505)" fill="#332026"/>
      </g>
      <g id="Grupo_87676" data-name="Grupo 87676" transform="translate(627.457 267.656)">
        <path id="Trazado_110723" data-name="Trazado 110723" d="M2858.663,350.329c-6.508-3.435-9.581-10.846-9.49-14.914s15.727-21.873,26.031-23.681,13.468,5.785,13.468,5.785,6.96-3.706,11.117,1.356,11.479,18.71,10.756,22.687-8.044,10.214-7.637,18.529.226,9.31-1.04,9.671-2.983.723-2.983.723Z" transform="translate(-2824.27 -311.456)" fill="#d14a2e"/>
        <path id="Trazado_110724" data-name="Trazado 110724" d="M2775.158,1316.463l-1.92,27.27h-12.386l-1.6-27.27Z" transform="translate(-2750.527 -1135.66)" fill="#ffa383"/>
        <path id="Trazado_110725" data-name="Trazado 110725" d="M2754.853,1279.764v7.14s9.762,4.5,18.2.9v-8.044l-18.2-1.627Z" transform="translate(-2746.92 -1104.229)" fill="#7fc299"/>
        <path id="Trazado_110726" data-name="Trazado 110726" d="M2939.164,1343.736c-.61-5.287-8.948-19.93-12.812-24s-53.282-4.271-56.536-1.017-11.185,19.523-10.982,25.014Z" transform="translate(-2832.192 -1135.662)" fill="#22452e"/>
        <path id="Trazado_110727" data-name="Trazado 110727" d="M2833.8,800.648c-3.457-.406-9.354-3.255-19.523-13.22-3.247,22.032-3.656,33.674-5.9,39.638-2.215,5.889-16.679,6.412-32.541,6.73-12.168.244-18.023-1.7-27.453-4.474-3.457-1.017-6.712-11.592-6.712-11.592a16.188,16.188,0,0,1-3.68,4.657,4.074,4.074,0,0,1-1.811.834c-2.846.406-15.455-.611-17.489-1.423s-7.729-9.152-7.931-15.253,15.861-63.652,19.318-69.754,32.742-15.253,32.742-15.253l25.624-1.829s33.964,7.931,36.81,10.371,19.013,42.144,23.285,50.889C2852.2,788.469,2837.254,801.054,2833.8,800.648Z" transform="translate(-2710.759 -646.263)" fill="#578569"/>
        <path id="Trazado_110728" data-name="Trazado 110728" d="M2841.441,1044.383a16.189,16.189,0,0,1-3.68,4.657l-5.344-52.464a.45.45,0,0,1,.891-.121Z" transform="translate(-2810.529 -872.915)" fill="#254d34"/>
        <g id="Grupo_87638" data-name="Grupo 87638" transform="translate(52.817 138.243)">
          <path id="Trazado_110729" data-name="Trazado 110729" d="M3032.335,1088.3a.4.4,0,0,1-.261-.1c-9.762-8.475-16.815-8.179-27.272-6.685a.4.4,0,1,1-.113-.788c10.681-1.526,17.889-1.825,27.908,6.872a.4.4,0,0,1-.261.7Z" transform="translate(-3004.346 -1079.891)" fill="#254d34"/>
        </g>
        <g id="Grupo_87639" data-name="Grupo 87639" transform="translate(103.116 131.3)">
          <path id="Trazado_110730" data-name="Trazado 110730" d="M3284.339,1051.561h-.035a.4.4,0,0,1-.362-.432l.836-9.467a.4.4,0,1,1,.793.07l-.836,9.467A.4.4,0,0,1,3284.339,1051.561Z" transform="translate(-3283.94 -1041.298)" fill="#254d34"/>
        </g>
        <g id="Grupo_87657" data-name="Grupo 87657" transform="translate(4.574 73.201)">
          <g id="Grupo_87656" data-name="Grupo 87656">
            <g id="Grupo_87640" data-name="Grupo 87640" transform="translate(123.474 39.852)">
              <path id="Trazado_110731" data-name="Trazado 110731" d="M3422.92,978.942a.4.4,0,0,1-.4-.4V940.271a.4.4,0,1,1,.8,0v38.273A.4.4,0,0,1,3422.92,978.942Z" transform="translate(-3422.522 -939.873)" fill="#254d34"/>
            </g>
            <g id="Grupo_87641" data-name="Grupo 87641" transform="translate(127.132 48.341)">
              <path id="Trazado_110732" data-name="Trazado 110732" d="M3443.256,1014.44a.4.4,0,0,1-.4-.4V987.454a.4.4,0,1,1,.8,0v26.588A.4.4,0,0,1,3443.256,1014.44Z" transform="translate(-3442.858 -987.056)" fill="#254d34"/>
            </g>
            <g id="Grupo_87642" data-name="Grupo 87642" transform="translate(105.833 8.61)">
              <path id="Trazado_110733" data-name="Trazado 110733" d="M3324.865,832.53a.4.4,0,0,1-.4-.4V766.61a.4.4,0,1,1,.8,0v65.522A.4.4,0,0,1,3324.865,832.53Z" transform="translate(-3324.467 -766.212)" fill="#254d34"/>
            </g>
            <g id="Grupo_87643" data-name="Grupo 87643" transform="translate(109.495 10.193)">
              <path id="Trazado_110734" data-name="Trazado 110734" d="M3345.218,842.5a.4.4,0,0,1-.4-.4V775.406a.4.4,0,0,1,.8,0V842.1A.4.4,0,0,1,3345.218,842.5Z" transform="translate(-3344.819 -775.008)" fill="#254d34"/>
            </g>
            <g id="Grupo_87644" data-name="Grupo 87644" transform="translate(88.196 3.64)">
              <path id="Trazado_110735" data-name="Trazado 110735" d="M3226.826,846.72a.4.4,0,0,1-.4-.4V738.983a.4.4,0,0,1,.8,0V846.322A.4.4,0,0,1,3226.826,846.72Z" transform="translate(-3226.428 -738.585)" fill="#254d34"/>
            </g>
            <g id="Grupo_87645" data-name="Grupo 87645" transform="translate(91.854 4.585)">
              <path id="Trazado_110736" data-name="Trazado 110736" d="M3247.162,848.6a.4.4,0,0,1-.4-.4V744.237a.4.4,0,0,1,.8,0V848.2A.4.4,0,0,1,3247.162,848.6Z" transform="translate(-3246.764 -743.839)" fill="#254d34"/>
            </g>
            <g id="Grupo_87646" data-name="Grupo 87646" transform="translate(70.555)">
              <path id="Trazado_110737" data-name="Trazado 110737" d="M3128.771,832.773a.4.4,0,0,1-.4-.4V718.749a.4.4,0,1,1,.8,0V832.375A.4.4,0,0,1,3128.771,832.773Z" transform="translate(-3128.372 -718.351)" fill="#254d34"/>
            </g>
            <g id="Grupo_87647" data-name="Grupo 87647" transform="translate(74.217 0.199)">
              <path id="Trazado_110738" data-name="Trazado 110738" d="M3149.123,828.919a.4.4,0,0,1-.4-.4V719.856a.4.4,0,1,1,.8,0V828.521A.4.4,0,0,1,3149.123,828.919Z" transform="translate(-3148.724 -719.458)" fill="#254d34"/>
            </g>
            <g id="Grupo_87648" data-name="Grupo 87648" transform="translate(52.918 1.258)">
              <path id="Trazado_110739" data-name="Trazado 110739" d="M3030.731,838.68a.4.4,0,0,1-.4-.4V725.744a.4.4,0,0,1,.8,0V838.282A.4.4,0,0,1,3030.731,838.68Z" transform="translate(-3030.333 -725.346)" fill="#254d34"/>
            </g>
            <g id="Grupo_87649" data-name="Grupo 87649" transform="translate(56.576 0.998)">
              <path id="Trazado_110740" data-name="Trazado 110740" d="M3051.067,837.64a.4.4,0,0,1-.4-.4V724.3a.4.4,0,0,1,.8,0V837.242A.4.4,0,0,1,3051.067,837.64Z" transform="translate(-3050.669 -723.9)" fill="#254d34"/>
            </g>
            <g id="Grupo_87650" data-name="Grupo 87650" transform="translate(35.278 5.764)">
              <path id="Trazado_110741" data-name="Trazado 110741" d="M2932.676,855.659a.4.4,0,0,1-.4-.4V750.789a.4.4,0,1,1,.8,0V855.261A.4.4,0,0,1,2932.676,855.659Z" transform="translate(-2932.278 -750.391)" fill="#254d34"/>
            </g>
            <g id="Grupo_87651" data-name="Grupo 87651" transform="translate(38.939 4.426)">
              <path id="Trazado_110742" data-name="Trazado 110742" d="M2953.028,844.335a.4.4,0,0,1-.4-.4V743.351a.4.4,0,1,1,.8,0V843.936A.4.4,0,0,1,2953.028,844.335Z" transform="translate(-2952.63 -742.953)" fill="#254d34"/>
            </g>
            <g id="Grupo_87652" data-name="Grupo 87652" transform="translate(17.64 13.899)">
              <path id="Trazado_110743" data-name="Trazado 110743" d="M2834.636,885.951a.4.4,0,0,1-.4-.4V796.008a.4.4,0,1,1,.8,0v89.545A.4.4,0,0,1,2834.636,885.951Z" transform="translate(-2834.238 -795.61)" fill="#254d34"/>
            </g>
            <g id="Grupo_87653" data-name="Grupo 87653" transform="translate(21.299 11.772)">
              <path id="Trazado_110744" data-name="Trazado 110744" d="M2854.973,875.914a.4.4,0,0,1-.4-.4V784.187a.4.4,0,1,1,.8,0v91.329A.4.4,0,0,1,2854.973,875.914Z" transform="translate(-2854.575 -783.789)" fill="#254d34"/>
            </g>
            <g id="Grupo_87654" data-name="Grupo 87654" transform="translate(0 64.077)">
              <path id="Trazado_110745" data-name="Trazado 110745" d="M2736.582,1110.163a.4.4,0,0,1-.4-.4v-34.837a.4.4,0,1,1,.8,0v34.837A.4.4,0,0,1,2736.582,1110.163Z" transform="translate(-2736.184 -1074.529)" fill="#254d34"/>
            </g>
            <g id="Grupo_87655" data-name="Grupo 87655" transform="translate(3.661 50.563)">
              <path id="Trazado_110746" data-name="Trazado 110746" d="M2756.934,1051.78a.4.4,0,0,1-.4-.4V999.807a.4.4,0,1,1,.8,0v51.575A.4.4,0,0,1,2756.934,1051.78Z" transform="translate(-2756.536 -999.409)" fill="#254d34"/>
            </g>
          </g>
        </g>
        <path id="Trazado_110747" data-name="Trazado 110747" d="M3225.8,931.586l-22.358-17.267-18.653-2.44,27.356,33c3.605-.1,7.3-.16,10.571-1.893C3226.949,940.868,3226.811,935.843,3225.8,931.586Z" transform="translate(-3099.512 -803.862)" fill="#ffa383"/>
        <path id="Trazado_110748" data-name="Trazado 110748" d="M3354.1,1024.2l-3.594-2.775c1.008,4.257,1.146,9.282-3.084,11.4-3.274,1.733-6.966,1.79-10.571,1.893l3.826,4.615s8.271.891,11.66-3.182S3354.1,1024.2,3354.1,1024.2Z" transform="translate(-3224.219 -893.698)" fill="#7fc299"/>
        <g id="Grupo_87658" data-name="Grupo 87658" transform="translate(8.388 164.01)">
          <path id="Trazado_110749" data-name="Trazado 110749" d="M2764.476,1235.989a.4.4,0,0,1-.393-.338,29.635,29.635,0,0,0-2.816-8.842,7.528,7.528,0,0,0-1.848-2.567c-.16-.128-.566-.415-.862-.3-.4.158-.382.943-.366,1.179.244,3.585,2.123,6.926,3.781,9.873a.4.4,0,1,1-.694.39c-1.7-3.021-3.625-6.445-3.881-10.21-.07-1.026.239-1.727.87-1.975a1.678,1.678,0,0,1,1.652.419,8.219,8.219,0,0,1,2.061,2.831,30.434,30.434,0,0,1,2.892,9.079.4.4,0,0,1-.334.454A.407.407,0,0,1,2764.476,1235.989Z" transform="translate(-2757.385 -1223.12)" fill="#254d34"/>
        </g>
        <g id="Grupo_87659" data-name="Grupo 87659" transform="translate(15.221 169.195)">
          <path id="Trazado_110750" data-name="Trazado 110750" d="M2797.647,1259.707a.4.4,0,0,1-.355-.578,11.6,11.6,0,0,0,1.244-5.2,2.038,2.038,0,0,0-.129-.853.524.524,0,0,0-.439-.336c-.182.007-.388.188-.61.539a7.816,7.816,0,0,0-1.074,5.518.4.4,0,1,1-.783.143,8.62,8.62,0,0,1,1.184-6.087,1.708,1.708,0,0,1,1.253-.909,1.321,1.321,0,0,1,1.188.789,2.728,2.728,0,0,1,.207,1.2,12.394,12.394,0,0,1-1.329,5.561A.4.4,0,0,1,2797.647,1259.707Z" transform="translate(-2795.366 -1251.942)" fill="#254d34"/>
        </g>
        <g id="Grupo_87660" data-name="Grupo 87660" transform="translate(39.843 177.195)">
          <path id="Trazado_110751" data-name="Trazado 110751" d="M2940.714,1305.3a.4.4,0,0,1-.354-.216,39.188,39.188,0,0,0-3.787-6.331,4.2,4.2,0,0,0-1.677-1.443,1.448,1.448,0,0,0-1.711.411,1.421,1.421,0,0,0-.058,1.192,4.343,4.343,0,0,0,.762,1.227,48.822,48.822,0,0,0,3.561,3.842.4.4,0,1,1-.564.562,49.255,49.255,0,0,1-3.619-3.907,5.091,5.091,0,0,1-.892-1.463,2.187,2.187,0,0,1,.132-1.872,2.229,2.229,0,0,1,2.671-.738,4.883,4.883,0,0,1,2.022,1.7,39.81,39.81,0,0,1,3.868,6.458.4.4,0,0,1-.354.581Z" transform="translate(-2932.228 -1296.407)" fill="#254d34"/>
        </g>
        <g id="Grupo_87661" data-name="Grupo 87661" transform="translate(48.379 181.79)">
          <path id="Trazado_110752" data-name="Trazado 110752" d="M2984.347,1327.363a.4.4,0,0,1-.387-.3,8.33,8.33,0,0,0-1.969-3.683,2.075,2.075,0,0,0-.768-.586.615.615,0,0,0-.643.106.594.594,0,0,0-.092.473,1.951,1.951,0,0,0,.276.637,6.7,6.7,0,0,0,2.448,2.372.4.4,0,1,1-.39.694,7.5,7.5,0,0,1-2.74-2.655,2.667,2.667,0,0,1-.379-.912,1.365,1.365,0,0,1,.269-1.124,1.383,1.383,0,0,1,1.512-.344,2.776,2.776,0,0,1,1.091.8,9.126,9.126,0,0,1,2.158,4.036.4.4,0,0,1-.387.492Z" transform="translate(-2979.68 -1321.948)" fill="#254d34"/>
        </g>
        <g id="Grupo_87662" data-name="Grupo 87662" transform="translate(70.173 182.631)">
          <path id="Trazado_110753" data-name="Trazado 110753" d="M3103.2,1331.749a.4.4,0,0,1-.355-.577,3.946,3.946,0,0,0,.25-2.893,1.618,1.618,0,0,0-.323-.639.6.6,0,0,0-.467-.217c-.267.025-.484.339-.58.639a2.891,2.891,0,0,0-.017,1.522,9.625,9.625,0,0,0,.56,1.582.4.4,0,1,1-.734.309,10.263,10.263,0,0,1-.6-1.717,3.668,3.668,0,0,1,.036-1.94,1.594,1.594,0,0,1,1.263-1.188,1.385,1.385,0,0,1,1.129.472,2.366,2.366,0,0,1,.5.947,4.75,4.75,0,0,1-.3,3.482A.4.4,0,0,1,3103.2,1331.749Z" transform="translate(-3100.822 -1326.624)" fill="#254d34"/>
        </g>
        <g id="Grupo_87663" data-name="Grupo 87663" transform="translate(75.853 176.668)">
          <path id="Trazado_110754" data-name="Trazado 110754" d="M3133.947,1304.286a.4.4,0,0,1-.168-.759c3.535-1.649,7.542-3.519,10.142-6.757a2.144,2.144,0,0,0,.624-1.4,1.409,1.409,0,0,0-1.382-1.094,3.967,3.967,0,0,0-2.112.708c-2.977,1.776-5.564,4.717-7.908,8.992a.4.4,0,0,1-.7-.383c2.414-4.4,5.1-7.442,8.2-9.293a4.7,4.7,0,0,1,2.558-.819,2.192,2.192,0,0,1,2.138,1.818,2.863,2.863,0,0,1-.8,1.968c-2.717,3.383-6.812,5.294-10.427,6.98A.4.4,0,0,1,3133.947,1304.286Z" transform="translate(-3132.394 -1293.479)" fill="#254d34"/>
        </g>
        <path id="Trazado_110755" data-name="Trazado 110755" d="M3163.721,724.86a6.118,6.118,0,0,1-3.392,3.5,20.905,20.905,0,0,1-2.449.646,18.884,18.884,0,0,1-5.178.639,31.035,31.035,0,0,1-3.393-.5,18.116,18.116,0,0,1-4.1-1.13,12.743,12.743,0,0,1-5.767-4.562,21.314,21.314,0,0,1-2.5-6.435l-1.873-7c-.319-1.192-.672-2.381-.959-3.581a15.534,15.534,0,0,1-.606-2.719,1.822,1.822,0,0,1,.8-1.679,1.8,1.8,0,0,1,1.783.136,4.889,4.889,0,0,1,1.3,1.337,41.344,41.344,0,0,1,5.107,9.185c.52-8.055.975-16.075.712-24.142a4.612,4.612,0,0,1,.108-1.462,2.732,2.732,0,0,1,.874-1.512,1.662,1.662,0,0,1,1.666-.29c1.24.542,1.188,2.326,1.326,3.438q.3,2.395.52,4.8.451,4.889.584,9.8c-.1-3.778.351-7.659.6-11.429q.19-2.887.4-5.774c.1-1.414-.168-3.912,1.078-4.911a1.834,1.834,0,0,1,1.963-.215c1.286.691.784,3.28.829,4.5q.107,2.858.214,5.716l.427,11.432c.835-6.339,1.63-12.749,2.125-19.123.059-.765.1-1.261.755-1.662a1.906,1.906,0,0,1,2.055.08c.914.651.8,2.231.88,3.222.212,2.68-.08,5.206-.064,7.871q.028,4.707-.2,9.41.5-3.679,1.169-7.332a20.945,20.945,0,0,1,.692-3.833c.594-1.542,2.368-2.067,3.006-.119a5.727,5.727,0,0,1,.205,1.6q.272,8.412.318,16.829.028,4.21.012,8.421A15.958,15.958,0,0,1,3163.721,724.86Z" transform="translate(-3057.45 -614.363)" fill="#ffa383"/>
        <g id="Grupo_87664" data-name="Grupo 87664" transform="translate(84.645 97.938)">
          <path id="Trazado_110756" data-name="Trazado 110756" d="M3193.291,864.566a.4.4,0,0,1-.342-.194c-1.728-2.9-5.46-7.725-11.126-7.725h-.157a.4.4,0,0,1-.006-.8c6.152-.084,10.141,5.043,11.972,8.112a.4.4,0,0,1-.342.6Z" transform="translate(-3181.268 -855.85)" fill="#d17252"/>
        </g>
        <g id="Grupo_87665" data-name="Grupo 87665" transform="translate(116.077 118.672)">
          <path id="Trazado_110757" data-name="Trazado 110757" d="M3367.545,975.318a2.574,2.574,0,0,1-.631-.093c-.385-.1-.771-.209-1.143-.317a18.389,18.389,0,0,0-1.983-.5c-1.312-.225-3.092-.287-4.118.7a.4.4,0,1,1-.551-.575c1.265-1.214,3.311-1.163,4.8-.907a19.03,19.03,0,0,1,2.07.516c.366.106.744.216,1.116.309s.609.09.712-.01a.422.422,0,0,0-.025-.482c-1.014-1.542-4.323-1.932-5.313-2.015a13.17,13.17,0,0,0-5.955.908.4.4,0,0,1-.3-.74,13.958,13.958,0,0,1,6.317-.962c1.385.116,4.734.578,5.912,2.371a1.2,1.2,0,0,1-.084,1.49A1.154,1.154,0,0,1,3367.545,975.318Z" transform="translate(-3355.981 -971.106)" fill="#254d34"/>
        </g>
        <path id="Trazado_110758" data-name="Trazado 110758" d="M2999.976,662.716l-.068,10.3s4.881,3.322,13.83,3.051,12.2-3.05,12.744-3.525c0-1.428-.286-7.328-.443-10.449a1.608,1.608,0,0,0-1.968-1.488c-4.552,1.055-16.41,3.276-24.163-.062A5.758,5.758,0,0,0,2999.976,662.716Z" transform="translate(-2947.845 -597.745)" fill="#578569"/>
        <path id="Trazado_110759" data-name="Trazado 110759" d="M3032.089,546.625l2.975,21.512-8.489,4.339h-10.213l-2.892-12.2Z" transform="translate(-2959.011 -504.317)" fill="#ffa383"/>
        <g id="Grupo_87666" data-name="Grupo 87666" transform="translate(57.946 5.665)">
          <path id="Trazado_110760" data-name="Trazado 110760" d="M3033.258,354.134a.4.4,0,0,1-.392-.471c.649-3.522,3.8-8.512,6.184-10.62a.4.4,0,0,1,.528.6c-2.287,2.023-5.308,6.8-5.928,10.168A.4.4,0,0,1,3033.258,354.134Z" transform="translate(-3032.859 -342.943)" fill="#872a17"/>
        </g>
        <path id="Trazado_110761" data-name="Trazado 110761" d="M3037.977,601.426A23.545,23.545,0,0,1,3031,615.707c-2.8,2.885-6.845-2.383-6.845-2.383l6.032-7.386Z" transform="translate(-2967.774 -549.26)" fill="#d17252"/>
        <path id="Trazado_110762" data-name="Trazado 110762" d="M2916.822,398.28c-7.321-3.254-21.6,1.446-25.94,11.569,1.627,15,2.711,21.421,4.158,26.3s6.508,10.123,9.038,11.75,7.342,1.61,10.666,0,12.473-9.219,14.1-14.371.633-14.462.633-14.462S2921.16,419.43,2916.822,398.28Z" transform="translate(-2858.477 -381.823)" fill="#ffa383"/>
        <ellipse id="Elipse_4436" data-name="Elipse 4436" cx="6.512" cy="4.382" rx="6.512" ry="4.382" transform="translate(66.352 42.846) rotate(-67.082)" fill="#ffa383"/>
        <g id="Grupo_87667" data-name="Grupo 87667" transform="translate(42.413 52.488)">
          <path id="Trazado_110763" data-name="Trazado 110763" d="M2946.914,609.535a.4.4,0,0,1-.273-.689,21.5,21.5,0,0,1,12.053-5.628.4.4,0,1,1,.1.791,20.7,20.7,0,0,0-11.6,5.418A.4.4,0,0,1,2946.914,609.535Z" transform="translate(-2946.516 -603.215)" fill="#bf684b"/>
        </g>
        <g id="Grupo_87668" data-name="Grupo 87668" transform="translate(47.172 56.454)">
          <path id="Trazado_110764" data-name="Trazado 110764" d="M2973.365,627.76a.4.4,0,0,1-.275-.687,6.827,6.827,0,0,1,3.764-1.811.4.4,0,1,1,.107.789,6.023,6.023,0,0,0-3.322,1.6A.4.4,0,0,1,2973.365,627.76Z" transform="translate(-2972.967 -625.259)" fill="#bf684b"/>
        </g>
        <g id="Grupo_87669" data-name="Grupo 87669" transform="translate(50.897 51.916)">
          <path id="Trazado_110765" data-name="Trazado 110765" d="M2999.313,602.033a.4.4,0,0,1-.2-.052,8.854,8.854,0,0,0-5.014-1.123.4.4,0,0,1-.062-.794,9.657,9.657,0,0,1,5.47,1.225.4.4,0,0,1-.2.744Z" transform="translate(-2993.672 -600.036)" fill="#bf684b"/>
        </g>
        <g id="Grupo_87670" data-name="Grupo 87670" transform="translate(39.831 38.223)">
          <path id="Trazado_110766" data-name="Trazado 110766" d="M2936.26,536.378a9.134,9.134,0,0,1-2.854-.456c-.972-.321-1.211-.84-1.24-1.219a1.673,1.673,0,0,1,.443-1.11,12.09,12.09,0,0,0,2.118-9.2.4.4,0,0,1,.783-.144,12.9,12.9,0,0,1-2.257,9.813,1.107,1.107,0,0,0-.294.581c.015.189.275.385.7.524a8.329,8.329,0,0,0,3.638.351.4.4,0,1,1,.1.79A8.989,8.989,0,0,1,2936.26,536.378Z" transform="translate(-2932.163 -523.921)" fill="#bf684b"/>
        </g>
        <g id="Grupo_87672" data-name="Grupo 87672" transform="translate(38.857 36.966)">
          <g id="Grupo_87671" data-name="Grupo 87671">
            <path id="Trazado_110767" data-name="Trazado 110767" d="M2999.708,520.617a11.316,11.316,0,0,0-1.649.372,3.044,3.044,0,0,1-.833-1.561c-.276-1.2.072-2.31.778-2.472s1.5.682,1.776,1.888A3.065,3.065,0,0,1,2999.708,520.617Z" transform="translate(-2984.469 -516.936)" fill="#5c291e"/>
            <path id="Trazado_110768" data-name="Trazado 110768" d="M2929.4,532.614a6.592,6.592,0,0,0-2.023.252,3.4,3.4,0,0,1-.534-1.219c-.276-1.2.072-2.31.778-2.472s1.5.682,1.776,1.888A3.245,3.245,0,0,1,2929.4,532.614Z" transform="translate(-2926.748 -526.957)" fill="#5c291e"/>
          </g>
        </g>
        <g id="Grupo_87673" data-name="Grupo 87673" transform="translate(50.488 40.125)">
          <path id="Trazado_110769" data-name="Trazado 110769" d="M2991.8,536.393a.4.4,0,0,1-.173-.758,11.477,11.477,0,0,1,1.618-.627,11.8,11.8,0,0,1,4.232-.486.4.4,0,0,1-.054.795,11.006,11.006,0,0,0-3.945.453,10.642,10.642,0,0,0-1.505.584A.4.4,0,0,1,2991.8,536.393Z" transform="translate(-2991.4 -534.495)" fill="#bf684b"/>
        </g>
        <g id="Grupo_87674" data-name="Grupo 87674" transform="translate(37.08 42.221)">
          <path id="Trazado_110770" data-name="Trazado 110770" d="M2917.268,548.185a.4.4,0,0,1-.237-.718,6.652,6.652,0,0,1,2.134-1.048,7.005,7.005,0,0,1,2.146-.268l.188.006a3.42,3.42,0,0,1,1.02.148.4.4,0,0,1-.217.766,2.664,2.664,0,0,0-.828-.118l-.191-.006a6.2,6.2,0,0,0-1.9.237,5.871,5.871,0,0,0-1.88.922A.4.4,0,0,1,2917.268,548.185Z" transform="translate(-2916.87 -546.148)" fill="#bf684b"/>
        </g>
        <path id="Trazado_110771" data-name="Trazado 110771" d="M2964.339,490.261a10.411,10.411,0,0,1,1.285.3,4.842,4.842,0,0,0,.9.174,1.118,1.118,0,0,0,.639-.112c.267-.116.6-.355,1.044-.605a7.008,7.008,0,0,1,2.834-.89,6.077,6.077,0,0,1,2.848.4.408.408,0,0,1-.129.783h-.011a9.52,9.52,0,0,0-2.391.452,7.751,7.751,0,0,0-2.043,1.022,9.933,9.933,0,0,1-1.189.789,3.083,3.083,0,0,1-1.914.322,3.015,3.015,0,0,1-1.535-.772,3.23,3.23,0,0,1-.845-1.247.461.461,0,0,1,.494-.619Z" transform="translate(-2918.283 -457.141)" fill="#b03e27"/>
        <path id="Trazado_110772" data-name="Trazado 110772" d="M2911.729,503.769a2.673,2.673,0,0,1-.339,1.159,2.62,2.62,0,0,1-.4.543,2.466,2.466,0,0,1-.6.451,2.437,2.437,0,0,1-1.632.23,2.327,2.327,0,0,1-.8-.359,5.248,5.248,0,0,1-.464-.376,2.665,2.665,0,0,0-.249-.2.832.832,0,0,0-.237-.1,1.6,1.6,0,0,0-.685,0,3.314,3.314,0,0,0-.809.3c-.283.146-.578.325-.893.5a.409.409,0,0,1-.538-.587,5.979,5.979,0,0,1,.706-.874,3.6,3.6,0,0,1,1.017-.741,2.855,2.855,0,0,1,1.386-.284,2.36,2.36,0,0,1,.778.172,2.969,2.969,0,0,1,.64.367c.163.119.287.207.376.262a.38.38,0,0,0,.163.064.869.869,0,0,0,.418-.076,2.414,2.414,0,0,0,.278-.124c.1-.056.216-.125.339-.2.244-.16.523-.372.877-.563a.455.455,0,0,1,.617.184A.461.461,0,0,1,2911.729,503.769Z" transform="translate(-2869.244 -468.774)" fill="#b03e27"/>
        <g id="Grupo_87675" data-name="Grupo 87675" transform="translate(51.61 74.403)">
          <path id="Trazado_110773" data-name="Trazado 110773" d="M3009.1,729.462c-4.649,0-8.823-.982-11.312-2.979a.4.4,0,0,1,.5-.621c4.985,4,17.715,3.615,26.195-.788a.4.4,0,1,1,.367.707A35.4,35.4,0,0,1,3009.1,729.462Z" transform="translate(-2997.64 -725.029)" fill="#254d34"/>
        </g>
      </g>
      <g id="Grupo_87693" data-name="Grupo 87693" transform="translate(453.723 258.048)">
        <path id="Trazado_110774" data-name="Trazado 110774" d="M2139.942,991.091c-4.613-.28-4.333-6.57-3.634-13.559s6.173-7.549,6.173-7.549l5.429,16.355Z" transform="translate(-2023.594 -841.904)" fill="#1c2c4d"/>
        <path id="Trazado_110775" data-name="Trazado 110775" d="M1704.539,1243.691s2.8-21.247,11.6-37.043,58.151-15.1,62.764-4.333,10.2,34.947,9.785,41.377Z" transform="translate(-1669.826 -1026.009)" fill="#1c2b47"/>
        <path id="Trazado_110776" data-name="Trazado 110776" d="M1648,681.506,1625.634,659.7l-2.237,62.2s-21.539,12.754-63.118,4.979l-14.6-48.733s-31.172,15.376-30.753,10.764,4.895-49.483,8.949-57.033c2.253-4.194,15.259-10.594,26.367-15.448,8.878-3.882,16.545-6.778,16.545-6.778l13.7-.977s7.547.233,16.3.843c9.2.643,19.726,1.7,24.238,3.348,8.806,3.216,50.323,56.056,54.936,63.184S1648,681.506,1648,681.506Z" transform="translate(-1514.318 -545.599)" fill="#3f5175"/>
        <path id="Trazado_110777" data-name="Trazado 110777" d="M1586.4,857.512l-.974-13.148a.274.274,0,0,0-.546-.013l-1.358,10.942L1563.8,872.739Z" transform="translate(-1554.402 -738.677)" fill="#1c2c4d"/>
        <path id="Trazado_110778" data-name="Trazado 110778" d="M2199.5,944.491c-5.365.241-11.484.615-14.766.815l-5.207-5.075,20.035,3.075A.6.6,0,0,1,2199.5,944.491Z" transform="translate(-2059.359 -817.505)" fill="#1c2c4d"/>
        <path id="Trazado_110779" data-name="Trazado 110779" d="M1738.736,915.719c2.656-3.075-3.075-14.957-4.753-16.914s-7.688,7.228-7.688,7.228l5.312,10.665Z" transform="translate(-1687.668 -783.307)" fill="#1c2c4d"/>
        <path id="Trazado_110780" data-name="Trazado 110780" d="M1562.651,907.412s-19.989,14.12-31.73,19.849-15.8,3.216-17.892.561-2.516-11.185,2.935-15.237,35.784-24.183,35.784-24.183a34.457,34.457,0,0,0,3.994,12.883C1558.947,906.744,1562.651,907.412,1562.651,907.412Z" transform="translate(-1511.584 -775.001)" fill="#3f5175"/>
        <path id="Trazado_110781" data-name="Trazado 110781" d="M1767.525,738.936a2.054,2.054,0,0,1-.438.58c-2.576,2.707-5.04,5.6-7.577,8.363a12.356,12.356,0,0,1-3.7,3.1,8.106,8.106,0,0,1-3.781.643,21.011,21.011,0,0,1-3.813-.638c-3.069,3.219-6.285,6.272-9.387,9.453a34.457,34.457,0,0,1-3.994-12.883l3.567-2.168s-.841-.14,1.117-5.59c1.306-3.635,2.581-7.282,3.906-10.909.621-1.706,1.251-3.406,1.913-5.094a14.878,14.878,0,0,1,2.083-4.257,2.965,2.965,0,0,1,1.4-1.048,1.334,1.334,0,0,1,1.544.553,2.039,2.039,0,0,1,.008,1.385q-1.047,4.5-2.092,9.012c1.6-3.988,3.414-7.826,5.363-11.656a2.015,2.015,0,0,1,1.6-1.087,1.62,1.62,0,0,1,1.883.966,2.576,2.576,0,0,1-.167,1.5c-.58,1.81-1.415,4.492-2,6.3.862-1.366,4.714-8.486,6.258-8.724a1.577,1.577,0,0,1,1.815,1.158,2.426,2.426,0,0,1-.271,1.256q-2.837,6.907-5.677,13.813c1.125-1.922,2.28-3.824,3.43-5.732.575-.953,1.15-1.908,1.716-2.863a2.787,2.787,0,0,1,1.886-1.626,1.555,1.555,0,0,1,1.585.8,2.369,2.369,0,0,1-.033,1.706,22.839,22.839,0,0,1-2.037,3.969q-1.166,2.143-2.335,4.284-2.332,4.287-4.667,8.574a4.186,4.186,0,0,0,3.43-1.574,12.312,12.312,0,0,1,3.017-2.71,4.319,4.319,0,0,1,2.7-.348C1766.458,737.576,1767.955,737.959,1767.525,738.936Z" transform="translate(-1694.671 -634.155)" fill="#ffa383"/>
        <g id="Grupo_87677" data-name="Grupo 87677" transform="translate(56.913 90.916)">
          <path id="Trazado_110782" data-name="Trazado 110782" d="M1828.34,770.966a.4.4,0,0,1-.364-.559l2.982-6.756a.4.4,0,1,1,.729.321l-2.982,6.756A.4.4,0,0,1,1828.34,770.966Z" transform="translate(-1827.942 -763.413)" fill="#bf684b"/>
        </g>
        <g id="Grupo_87678" data-name="Grupo 87678" transform="translate(51.361 106.413)">
          <path id="Trazado_110783" data-name="Trazado 110783" d="M1797.479,851.812a.4.4,0,0,1-.227-.726,11.1,11.1,0,0,1,10.6-.384.4.4,0,0,1-.341.72,10.262,10.262,0,0,0-9.807.32A.4.4,0,0,1,1797.479,851.812Z" transform="translate(-1797.081 -849.551)" fill="#bf684b"/>
        </g>
        <path id="Trazado_110784" data-name="Trazado 110784" d="M1757.795,609.521c-2.193,6.537-8.4,11.741-19.143,13.74-11.41,2.124-20.892.8-27.4-6.827,8.878-3.882,16.545-6.778,16.545-6.778l13.7-.977S1749.04,608.911,1757.795,609.521Z" transform="translate(-1675.329 -545.599)" fill="#ffa383"/>
        <path id="Trazado_110785" data-name="Trazado 110785" d="M1786.2,504.86l-23.764,2.609-1.382-5.839-1.569-6.611-.03-.131,5.962-14.629,12.954-1.864,2.7,9.411Z" transform="translate(-1714.863 -438.753)" fill="#ffa383"/>
        <path id="Trazado_110786" data-name="Trazado 110786" d="M1668.459,376.9c-6.335,2.891-13.978,5.965-15.377,4.709s-4.659-12.721-4.659-12.721-5.218-.558-5.031-1.771,2.888-6.71,2.7-11-2.423-13.047-.838-18.358l19.012-5.965,6.242,15.749.3,1.588c.764,4.032,2.757,14.615,3.43,18.355C1675.075,372.148,1674.8,374.013,1668.459,376.9Z" transform="translate(-1619.675 -318.53)" fill="#ffa383"/>
        <path id="Trazado_110787" data-name="Trazado 110787" d="M1769.214,561.446c-1.5,3.383-5.442,6.515-8.024,8.294l-1.568-6.611,2.74-1.684Z" transform="translate(-1715 -506.864)" fill="#ed7d56"/>
        <path id="Trazado_110788" data-name="Trazado 110788" d="M1569.338,262.835c2.609,8.48,5.5,15.19,9.505,15.843s15.563-1.771,16.868,0,1.211,7.269,4.659,7.269,4.846-.932,5.312,1.025,1.118,4.939,1.118,4.939l5.591,3.262,5.749,1.193s1.148,11.76,2.825,13.158,5.592.559,5.778-2.143-2.05-16.868-1.771-25.628,1.771-13.047-.932-16.961-8.76-1.957-9.6-1.118a6.692,6.692,0,0,0-8.108-5.5C1599.252,259.294,1573.9,265.165,1569.338,262.835Z" transform="translate(-1558.948 -258.048)" fill="#915443"/>
        <g id="Grupo_87679" data-name="Grupo 87679" transform="translate(28.669 37.693)">
          <path id="Trazado_110789" data-name="Trazado 110789" d="M1673.477,470.061a3.052,3.052,0,0,1-2.455-1.146.4.4,0,0,1,.639-.475,2.348,2.348,0,0,0,2.348.771,4.291,4.291,0,0,0,2.3-1.5.4.4,0,1,1,.608.514,5.072,5.072,0,0,1-2.744,1.768A3.447,3.447,0,0,1,1673.477,470.061Z" transform="translate(-1670.944 -467.567)" fill="#a35940"/>
        </g>
        <ellipse id="Elipse_4437" data-name="Elipse 4437" cx="3.502" cy="1.642" rx="3.502" ry="1.642" transform="translate(26.314 33.938) rotate(-21.536)" fill="#7a4333"/>
        <ellipse id="Elipse_4438" data-name="Elipse 4438" cx="4.613" cy="6.43" rx="4.613" ry="6.43" transform="translate(50.998 31.626)" fill="#ffa383"/>
        <path id="Trazado_110790" data-name="Trazado 110790" d="M1691.418,450.39c-6.335,2.891-13.978,5.965-15.377,4.709-.577-.52-1.475-2.79-2.329-5.273-.706-2.053-1.385-4.254-1.826-5.727-.312-1.043-.5-1.722-.5-1.722,4-1.193,8.133.126,10.055,3.9a.507.507,0,0,0,.807.142c1.755-1.711,7.536-7.38,9.781-10.038.838-.994-1.539-10.5-1.539-10.5l2.217-4.473,1.062,1.215c.764,4.032,2.757,14.615,3.43,18.355C1698.034,445.637,1697.755,447.5,1691.418,450.39Z" transform="translate(-1642.634 -392.019)" fill="#915443"/>
        <path id="Trazado_110791" data-name="Trazado 110791" d="M1681.88,550.7s-1.651,1.99-5.872,2.277c-.706-2.053-1.385-4.254-1.826-5.727C1677.576,546.893,1680.681,548.035,1681.88,550.7Z" transform="translate(-1644.93 -495.169)" fill="#ffa383"/>
        <g id="Grupo_87680" data-name="Grupo 87680" transform="translate(29.771 53.853)">
          <path id="Trazado_110792" data-name="Trazado 110792" d="M1682.082,558.853a.4.4,0,0,1-.179-.043,6.076,6.076,0,0,0-4.293-.343.4.4,0,0,1-.28-.746,6.781,6.781,0,0,1,4.932.378.4.4,0,0,1-.18.754Z" transform="translate(-1677.071 -557.396)" fill="#bf684b"/>
        </g>
        <g id="Grupo_87681" data-name="Grupo 87681" transform="translate(78.949 183.154)">
          <path id="Trazado_110793" data-name="Trazado 110793" d="M1951.574,1311.051a.4.4,0,0,1-.4-.39l-.75-34.129a.4.4,0,1,1,.8-.017l.75,34.129a.4.4,0,0,1-.39.407Z" transform="translate(-1950.426 -1276.125)"/>
        </g>
        <g id="Grupo_87682" data-name="Grupo 87682" transform="translate(72.243 183.397)">
          <path id="Trazado_110794" data-name="Trazado 110794" d="M1918.168,1303.552a5.441,5.441,0,0,1-3.207-.821,2.65,2.65,0,0,1-1.061-2.088c-.185-3.689-.74-22.568-.746-22.758a.4.4,0,0,1,.386-.41.4.4,0,0,1,.41.387c.006.19.561,19.061.745,22.742a1.865,1.865,0,0,0,.744,1.49c1.62,1.219,5.245.385,5.281.376a.4.4,0,0,1,.183.775A13.174,13.174,0,0,1,1918.168,1303.552Z" transform="translate(-1913.154 -1277.475)"/>
        </g>
        <g id="Grupo_87683" data-name="Grupo 87683" transform="translate(36.387 188.441)">
          <path id="Trazado_110795" data-name="Trazado 110795" d="M1715.518,1324.472a6.2,6.2,0,0,1-1.361-.155.4.4,0,1,1,.174-.777,5.143,5.143,0,0,0,4.314-.948c3.86-2.818,6.2-10.642,6.736-16.717a.4.4,0,0,1,.793.07c-.554,6.249-3,14.326-7.059,17.291A6.011,6.011,0,0,1,1715.518,1324.472Z" transform="translate(-1713.846 -1305.511)"/>
        </g>
        <g id="Grupo_87684" data-name="Grupo 87684" transform="translate(105.699 186.577)">
          <path id="Trazado_110796" data-name="Trazado 110796" d="M2109.116,1317.632a8.3,8.3,0,0,1-5.086-1.738c-3.55-2.7-4.855-19.6-4.909-20.315a.4.4,0,0,1,.794-.06c.359,4.793,1.885,17.683,4.6,19.74a7.525,7.525,0,0,0,6.653,1.281.4.4,0,1,1,.268.75A7.4,7.4,0,0,1,2109.116,1317.632Z" transform="translate(-2099.12 -1295.15)"/>
        </g>
        <g id="Grupo_87685" data-name="Grupo 87685" transform="translate(57.357 182.627)">
          <path id="Trazado_110797" data-name="Trazado 110797" d="M1834.416,1285.208h-3.61a.4.4,0,0,1-.4-.4V1273.59a.4.4,0,1,1,.8,0v10.821h2.814v-10.293a.4.4,0,0,1,.8,0v10.692A.4.4,0,0,1,1834.416,1285.208Z" transform="translate(-1830.407 -1273.192)"/>
        </g>
        <g id="Grupo_87686" data-name="Grupo 87686" transform="translate(92.786 180.243)">
          <path id="Trazado_110798" data-name="Trazado 110798" d="M2031.8,1274.343h-4.06a.4.4,0,0,1-.4-.4v-12.55a.4.4,0,1,1,.8,0v12.152h3.264v-13.2a.4.4,0,0,1,.8,0v13.6A.4.4,0,0,1,2031.8,1274.343Z" transform="translate(-2027.341 -1259.943)"/>
        </g>
        <path id="Trazado_110799" data-name="Trazado 110799" d="M2202.625,984.835c-5.313,2.8-44.314,1.259-44.314,1.259a23.533,23.533,0,0,0,2.538-7.022,35.047,35.047,0,0,0,0-14.087c1.634,0,3.874-.118,6.482-.276,4.739-.29,10.7-.712,16.455-.8,8.667-.134,16.885.487,19.814,3.455C2208.913,972.743,2207.936,982.04,2202.625,984.835Z" transform="translate(-2041.964 -836.908)" fill="#3f5175"/>
        <path id="Trazado_110800" data-name="Trazado 110800" d="M2107.326,981.1a48.228,48.228,0,0,1-8.524-1.5c-4.309-1.2-5.754-2.987-5.754-2.987l8.853-10.252,5.428.652A35.051,35.051,0,0,1,2107.326,981.1Z" transform="translate(-1988.441 -838.931)" fill="#ffa383"/>
        <path id="Trazado_110801" data-name="Trazado 110801" d="M2045.708,844.354c.559-3.447,1.025-6.91,1.319-10.39.149-1.757.254-3.518.3-5.281.024-.843.056-1.692.009-2.532a15.02,15.02,0,0,0-.061-2.1,2.169,2.169,0,0,0-1.325-1.715c-1.529-.425-1.676,2.749-1.868,3.657-.377,1.783-.688,3.582-.9,5.393q.047-3.862.094-7.725a35.49,35.49,0,0,0-.168-3.643c-.07-.761-.1-1.693-.815-2.162a1.581,1.581,0,0,0-1.9.264c-.81.783-.612,1.887-.719,2.893-.134,1.26-.28,2.518-.428,3.776s-.3,2.512-.443,3.768a22.868,22.868,0,0,0-.4,3.673l-.738-13.3a5.046,5.046,0,0,0-.268-1.617,1.708,1.708,0,0,0-1.154-1.081,1.558,1.558,0,0,0-1.437.539c-.674.764-.55,1.786-.632,2.728-.1,1.151-.19,2.3-.26,3.456a67.951,67.951,0,0,0-.1,7.036,37.669,37.669,0,0,0-.928-6.831,2.188,2.188,0,0,0-.776-1.36,1.589,1.589,0,0,0-2.076.7c-.685,1.149-.311,2.544-.327,3.795q-.03,2.371-.069,4.741c-.012.794.006,9.357-.133,9.37a2.418,2.418,0,0,1-2.228-1.413,7.386,7.386,0,0,1-.614-2.715,6.592,6.592,0,0,0-.675-2.7,3.093,3.093,0,0,0-3.139-1.453,67.936,67.936,0,0,0,1.63,13.7,11.245,11.245,0,0,0,8.832,8.982,14.29,14.29,0,0,0,4.414.428,7.711,7.711,0,0,0,5.88-3.89A19.9,19.9,0,0,0,2045.708,844.354Z" transform="translate(-1930.881 -715.792)" fill="#ffa383"/>
        <g id="Grupo_87687" data-name="Grupo 87687" transform="translate(102.441 111.185)">
          <path id="Trazado_110802" data-name="Trazado 110802" d="M2081.518,884.422a.4.4,0,0,1-.4-.393l-.108-7.549a.4.4,0,0,1,.393-.4.405.405,0,0,1,.4.393l.108,7.549a.4.4,0,0,1-.393.4Z" transform="translate(-2081.012 -876.077)" fill="#bf684b"/>
        </g>
        <g id="Grupo_87688" data-name="Grupo 87688" transform="translate(107.107 114.171)">
          <path id="Trazado_110803" data-name="Trazado 110803" d="M2107.346,898.131h-.015a.4.4,0,0,1-.383-.413l.176-4.656a.4.4,0,1,1,.8.03l-.176,4.656A.4.4,0,0,1,2107.346,898.131Z" transform="translate(-2106.947 -892.678)" fill="#bf684b"/>
        </g>
        <g id="Grupo_87689" data-name="Grupo 87689" transform="translate(111.61 114.356)">
          <path id="Trazado_110804" data-name="Trazado 110804" d="M2132.375,899.716h-.024a.4.4,0,0,1-.374-.421l.314-5.217a.4.4,0,1,1,.795.048l-.314,5.217A.4.4,0,0,1,2132.375,899.716Z" transform="translate(-2131.977 -893.702)" fill="#bf684b"/>
        </g>
        <g id="Grupo_87690" data-name="Grupo 87690" transform="translate(98.12 124.233)">
          <path id="Trazado_110805" data-name="Trazado 110805" d="M2064.486,957.849a.4.4,0,0,1-.392-.33,10.735,10.735,0,0,0-6.838-8.138.4.4,0,1,1,.27-.749,11.544,11.544,0,0,1,7.354,8.751.4.4,0,0,1-.324.461A.385.385,0,0,1,2064.486,957.849Z" transform="translate(-2056.993 -948.608)" fill="#bf684b"/>
        </g>
        <g id="Grupo_87691" data-name="Grupo 87691" transform="translate(8.995 113.004)">
          <path id="Trazado_110806" data-name="Trazado 110806" d="M1561.98,907.646a.4.4,0,0,1-.222-.729l30.771-20.66a.4.4,0,1,1,.444.661l-30.77,20.66A.4.4,0,0,1,1561.98,907.646Z" transform="translate(-1561.581 -886.189)" fill="#1c2c4d"/>
        </g>
        <g id="Grupo_87692" data-name="Grupo 87692" transform="translate(34.315 132.013)">
          <path id="Trazado_110807" data-name="Trazado 110807" d="M1702.723,1003.988a.4.4,0,0,1-.227-.726l16.354-11.338a.4.4,0,1,1,.454.655l-16.354,11.338A.4.4,0,0,1,1702.723,1003.988Z" transform="translate(-1702.324 -991.853)" fill="#1c2c4d"/>
        </g>
      </g>
    </g>
  </g>
</svg>
