<svg xmlns="http://www.w3.org/2000/svg" xmlns:xlink="http://www.w3.org/1999/xlink" width="399" height="441" viewBox="0 0 399 441">
  <defs>
    <clipPath id="clip-path">
      <rect id="Rectángulo_34222" data-name="Rectángulo 34222" width="57.443" height="71.589" transform="translate(81.208 241.867)" fill="none"/>
    </clipPath>
    <clipPath id="clip-path-2">
      <rect id="Rectángulo_34223" data-name="Rectángulo 34223" width="33.671" height="77.706" transform="translate(98.69 200.607)" fill="none"/>
    </clipPath>
  </defs>
  <g id="Grupo_87738" data-name="Grupo 87738" transform="translate(-181 -6063)">
    <rect id="Rectángulo_24402" data-name="Rectángulo 24402" width="399" height="441" transform="translate(181 6063)" fill="none"/>
    <path id="Trazado_111576" data-name="Trazado 111576" d="M-81.211-17.358h-6.4V0h-5.142V-17.358h-6.284v-3.97h17.827Zm-1.729,9.287a9.355,9.355,0,0,1,.923-4.226,6.6,6.6,0,0,1,2.651-2.849,7.985,7.985,0,0,1,4.058-1,7.288,7.288,0,0,1,5.61,2.2,8.46,8.46,0,0,1,2.051,6v.176A8.208,8.208,0,0,1-69.7-1.882,7.307,7.307,0,0,1-75.278.293a7.39,7.39,0,0,1-5.435-2.029,7.935,7.935,0,0,1-2.212-5.5ZM-78-7.764a5.9,5.9,0,0,0,.688,3.223,2.294,2.294,0,0,0,2.036,1.025q2.637,0,2.7-4.058v-.5q0-4.263-2.725-4.263-2.476,0-2.681,3.677Zm17.2-8.086.161,1.86a5.45,5.45,0,0,1,4.526-2.153,4.012,4.012,0,0,1,4.058,2.388A5.275,5.275,0,0,1-47.4-16.143q4.819,0,4.951,5.83V0H-47.4V-10a3.022,3.022,0,0,0-.41-1.772,1.746,1.746,0,0,0-1.494-.557,2.339,2.339,0,0,0-2.183,1.3l.015.205V0h-4.951V-9.976a3.176,3.176,0,0,0-.4-1.8,1.741,1.741,0,0,0-1.509-.557,2.367,2.367,0,0,0-2.168,1.3V0h-4.937V-15.85ZM-30.7,0a5.574,5.574,0,0,1-.469-1.421A4.59,4.59,0,0,1-34.98.293a5.623,5.623,0,0,1-3.809-1.355,4.313,4.313,0,0,1-1.567-3.406,4.433,4.433,0,0,1,1.9-3.9,9.7,9.7,0,0,1,5.537-1.318h1.523v-.839q0-2.193-1.89-2.193a1.545,1.545,0,0,0-1.758,1.737h-4.937a4.425,4.425,0,0,1,1.956-3.731,8.218,8.218,0,0,1,4.988-1.434,7.205,7.205,0,0,1,4.79,1.479,5.144,5.144,0,0,1,1.8,4.058v7.017a7.186,7.186,0,0,0,.674,3.34V0Zm-3.091-3.223a2.754,2.754,0,0,0,1.531-.4,2.479,2.479,0,0,0,.872-.894V-7.046h-1.436q-2.578,0-2.578,2.314a1.413,1.413,0,0,0,.454,1.091A1.643,1.643,0,0,0-33.794-3.223Zm9.463-4.819a9.682,9.682,0,0,1,1.626-5.933,5.352,5.352,0,0,1,4.541-2.168,4.552,4.552,0,0,1,3.574,1.67V-22.5h4.951V0h-4.438l-.249-1.7A4.674,4.674,0,0,1-18.193.293a5.342,5.342,0,0,1-4.482-2.168A9.989,9.989,0,0,1-24.331-8.042Zm4.937.308q0,4.219,2.461,4.219A2.43,2.43,0,0,0-14.59-4.893v-6.035A2.365,2.365,0,0,0-16.9-12.334q-2.285,0-2.476,3.691Zm11.938-.337A9.355,9.355,0,0,1-6.533-12.3a6.6,6.6,0,0,1,2.651-2.849,7.985,7.985,0,0,1,4.058-1,7.288,7.288,0,0,1,5.61,2.2,8.46,8.46,0,0,1,2.051,6v.176A8.208,8.208,0,0,1,5.779-1.882,7.307,7.307,0,0,1,.205.293,7.39,7.39,0,0,1-5.229-1.736a7.935,7.935,0,0,1-2.212-5.5Zm4.937.308a5.9,5.9,0,0,0,.688,3.223A2.294,2.294,0,0,0,.205-3.516q2.637,0,2.7-4.058v-.5q0-4.263-2.725-4.263-2.476,0-2.681,3.677ZM19.6-11.382,17.974-11.5q-2.329,0-2.988,1.465V0H10.049V-15.85h4.629l.161,2.036a3.823,3.823,0,0,1,3.472-2.329,4.814,4.814,0,0,1,1.377.176ZM28.77.293a8.148,8.148,0,0,1-5.9-2.175A7.512,7.512,0,0,1,20.61-7.544v-.41a9.734,9.734,0,0,1,.9-4.292,6.592,6.592,0,0,1,2.629-2.878,7.938,7.938,0,0,1,4.1-1.018,6.861,6.861,0,0,1,5.273,2.073,8.145,8.145,0,0,1,1.934,5.779v1.919H25.635a3.558,3.558,0,0,0,1.157,2.095,3.443,3.443,0,0,0,2.314.762,4.437,4.437,0,0,0,3.662-1.641L35.024-2.49A6.306,6.306,0,0,1,32.41-.461,8.836,8.836,0,0,1,28.77.293Zm-.557-12.627q-2.168,0-2.578,2.871h4.98v-.381a2.445,2.445,0,0,0-.6-1.838A2.39,2.39,0,0,0,28.213-12.334Zm17.52,7.881a1.14,1.14,0,0,0-.659-1.011,10.027,10.027,0,0,0-2.5-.791,11.422,11.422,0,0,1-3.047-1.077A5.1,5.1,0,0,1,37.69-8.95a3.865,3.865,0,0,1-.63-2.183,4.381,4.381,0,0,1,1.8-3.6,7.422,7.422,0,0,1,4.717-1.414,8.223,8.223,0,0,1,5.039,1.421,4.443,4.443,0,0,1,1.9,3.735H45.571q0-1.9-2.007-1.9a1.989,1.989,0,0,0-1.3.432,1.338,1.338,0,0,0-.527,1.077,1.228,1.228,0,0,0,.645,1.069,6.09,6.09,0,0,0,2.058.674,17.785,17.785,0,0,1,2.483.63q3.574,1.23,3.574,4.409a4.151,4.151,0,0,1-1.926,3.53A8.447,8.447,0,0,1,43.579.293a8.62,8.62,0,0,1-3.633-.732,6.075,6.075,0,0,1-2.49-1.992,4.511,4.511,0,0,1-.894-2.651h4.614a1.908,1.908,0,0,0,.732,1.6,3.013,3.013,0,0,0,1.8.505,2.37,2.37,0,0,0,1.516-.41A1.312,1.312,0,0,0,45.732-4.453ZM59.648-8.042a9.682,9.682,0,0,1,1.626-5.933,5.352,5.352,0,0,1,4.541-2.168,4.552,4.552,0,0,1,3.574,1.67V-22.5h4.951V0H69.9l-.249-1.7A4.674,4.674,0,0,1,65.786.293,5.342,5.342,0,0,1,61.3-1.875,9.989,9.989,0,0,1,59.648-8.042Zm4.937.308q0,4.219,2.461,4.219A2.43,2.43,0,0,0,69.39-4.893v-6.035a2.365,2.365,0,0,0-2.314-1.406q-2.285,0-2.476,3.691ZM84.814.293a8.148,8.148,0,0,1-5.9-2.175,7.512,7.512,0,0,1-2.256-5.662v-.41a9.734,9.734,0,0,1,.9-4.292,6.592,6.592,0,0,1,2.629-2.878,7.938,7.938,0,0,1,4.1-1.018,6.861,6.861,0,0,1,5.273,2.073,8.145,8.145,0,0,1,1.934,5.779v1.919H81.68a3.558,3.558,0,0,0,1.157,2.095,3.443,3.443,0,0,0,2.314.762,4.437,4.437,0,0,0,3.662-1.641L91.069-2.49A6.306,6.306,0,0,1,88.455-.461,8.836,8.836,0,0,1,84.814.293Zm-.557-12.627q-2.168,0-2.578,2.871h4.98v-.381a2.445,2.445,0,0,0-.6-1.838A2.39,2.39,0,0,0,84.258-12.334ZM-54.119,26.929A9.355,9.355,0,0,1-53.2,22.7a6.6,6.6,0,0,1,2.651-2.849,7.985,7.985,0,0,1,4.058-1,7.288,7.288,0,0,1,5.61,2.2,8.46,8.46,0,0,1,2.051,6v.176a8.208,8.208,0,0,1-2.058,5.881,7.307,7.307,0,0,1-5.574,2.175,7.39,7.39,0,0,1-5.435-2.029,7.935,7.935,0,0,1-2.212-5.5Zm4.937.308a5.9,5.9,0,0,0,.688,3.223,2.294,2.294,0,0,0,2.036,1.025q2.637,0,2.7-4.058v-.5q0-4.263-2.725-4.263-2.476,0-2.681,3.677ZM-45.813,12.5H-40.6l-4.072,4.6-4.028-.007Zm18.75,11.118-1.626-.117q-2.329,0-2.988,1.465V35h-4.937V19.15h4.629l.161,2.036a3.823,3.823,0,0,1,3.472-2.329,4.814,4.814,0,0,1,1.377.176Zm.879,3.34a9.682,9.682,0,0,1,1.626-5.933,5.352,5.352,0,0,1,4.541-2.168,4.552,4.552,0,0,1,3.574,1.67V12.5h4.951V35H-15.93l-.249-1.7a4.674,4.674,0,0,1-3.867,1.992,5.342,5.342,0,0,1-4.482-2.168A9.989,9.989,0,0,1-26.184,26.958Zm4.937.308q0,4.219,2.461,4.219a2.43,2.43,0,0,0,2.344-1.377V24.072a2.365,2.365,0,0,0-2.314-1.406q-2.285,0-2.476,3.691Zm20.229,8.027a8.148,8.148,0,0,1-5.9-2.175,7.512,7.512,0,0,1-2.256-5.662v-.41a9.734,9.734,0,0,1,.9-4.292,6.592,6.592,0,0,1,2.629-2.878,7.938,7.938,0,0,1,4.1-1.018A6.861,6.861,0,0,1,3.728,20.93a8.145,8.145,0,0,1,1.934,5.779v1.919H-4.153A3.558,3.558,0,0,0-3,30.723a3.443,3.443,0,0,0,2.314.762,4.437,4.437,0,0,0,3.662-1.641L5.237,32.51a6.306,6.306,0,0,1-2.615,2.029A8.836,8.836,0,0,1-1.018,35.293Zm-.557-12.627q-2.168,0-2.578,2.871H.828v-.381a2.445,2.445,0,0,0-.6-1.838A2.39,2.39,0,0,0-1.575,22.666ZM12.18,19.15l.161,1.86a5.375,5.375,0,0,1,4.526-2.153,4.522,4.522,0,0,1,3.7,1.479,7.044,7.044,0,0,1,1.267,4.453V35H16.882V25A2.675,2.675,0,0,0,16.4,23.23a2.236,2.236,0,0,0-1.758-.564,2.354,2.354,0,0,0-2.153,1.143V35H7.551V19.15ZM32.234,35.293a8.148,8.148,0,0,1-5.9-2.175,7.512,7.512,0,0,1-2.256-5.662v-.41a9.734,9.734,0,0,1,.9-4.292A6.592,6.592,0,0,1,27.6,19.875a7.938,7.938,0,0,1,4.1-1.018A6.861,6.861,0,0,1,36.98,20.93a8.145,8.145,0,0,1,1.934,5.779v1.919H29.1a3.558,3.558,0,0,0,1.157,2.095,3.443,3.443,0,0,0,2.314.762,4.437,4.437,0,0,0,3.662-1.641l2.256,2.666a6.306,6.306,0,0,1-2.615,2.029A8.836,8.836,0,0,1,32.234,35.293Zm-.557-12.627q-2.168,0-2.578,2.871h4.98v-.381a2.445,2.445,0,0,0-.6-1.838A2.39,2.39,0,0,0,31.677,22.666ZM49.2,30.547a1.14,1.14,0,0,0-.659-1.011,10.027,10.027,0,0,0-2.5-.791,11.422,11.422,0,0,1-3.047-1.077,5.1,5.1,0,0,1-1.831-1.619,3.865,3.865,0,0,1-.63-2.183,4.381,4.381,0,0,1,1.8-3.6,7.422,7.422,0,0,1,4.717-1.414,8.223,8.223,0,0,1,5.039,1.421,4.443,4.443,0,0,1,1.9,3.735H49.036q0-1.9-2.007-1.9a1.989,1.989,0,0,0-1.3.432,1.338,1.338,0,0,0-.527,1.077,1.228,1.228,0,0,0,.645,1.069,6.09,6.09,0,0,0,2.058.674,17.785,17.785,0,0,1,2.483.63q3.574,1.23,3.574,4.409a4.151,4.151,0,0,1-1.926,3.53,8.447,8.447,0,0,1-4.988,1.362,8.62,8.62,0,0,1-3.633-.732,6.075,6.075,0,0,1-2.49-1.992,4.511,4.511,0,0,1-.894-2.651h4.614a1.908,1.908,0,0,0,.732,1.6,3.013,3.013,0,0,0,1.8.505,2.37,2.37,0,0,0,1.516-.41A1.312,1.312,0,0,0,49.2,30.547Z" transform="translate(381 6132)" fill="#12263f"/>
    <g id="Grupo_87736" data-name="Grupo 87736" transform="translate(-764.467 -280.17)">
      <path id="Trazado_110811" data-name="Trazado 110811" d="M101.766,123.432A101.766,101.766,0,1,1,0,225.2,101.766,101.766,0,0,1,101.766,123.432" transform="translate(1043.468 6411.737)" fill="#c9eeff"/>
      <path id="Trazado_110812" data-name="Trazado 110812" d="M100.514,308.812l-17.758.174s-.155,6.421-.362,16.128a102.245,102.245,0,0,0,50.541-3.02c-.641-10.807-2.581-24.231-2.581-24.231Z" transform="translate(1043.468 6411.737)" fill="#454545"/>
      <path id="Trazado_110813" data-name="Trazado 110813" d="M80.033,212.919c1.645-6.01,36.249-20.2,36.249-20.2s34.56,20.735,36.995,25.388c1.211,2.314-21.215,88.4-21.215,88.4s-20.137,8.369-49.306,2.471c0,.008-5.216-86.945-2.723-96.059" transform="translate(1043.468 6411.737)" fill="#b0ddfc"/>
      <path id="Trazado_110814" data-name="Trazado 110814" d="M135.618,177.479c-.132,0-6.8,21.808-6.8,21.808s-12.806,13.475-21.1,9.144C102.675,205.8,103.6,196,103.6,196l3.642-19.875Z" transform="translate(1043.468 6411.737)" fill="#e6b09e"/>
      <path id="Trazado_110815" data-name="Trazado 110815" d="M114.51,141.018a21.3,21.3,0,0,0-4.489,6.147c-1.534,3.058-2.547,7.353-3.475,11.758-2.147,10.183-4.639,13.46-4.451,18.862.162,4.675,5.182,12.7,13.094,13.428,10.432.954,14.218-5.46,18.428-12.064,0,0,3.5,2.19,7.047-2.349,3.158-4.038,1.715-7.47-1-7.414l-2.715.055s7.041-14.4,2.985-20.158-20.369-13.483-25.424-8.265" transform="translate(1043.468 6411.737)" fill="#ffbcab"/>
      <path id="Trazado_110816" data-name="Trazado 110816" d="M122.928,175.332c.193-.1-3.944,8.642-9.787,6.39-1.9-.732-5.053-4.031-5.173-7.534,0,0,7.372,4.85,14.96,1.144" transform="translate(1043.468 6411.737)" fill="#fff"/>
      <path id="Trazado_110817" data-name="Trazado 110817" d="M144.249,160.708c-2.109,5.919-3.378,8.014-4.345,8.764,0,0-2.623-.473-4.559,3.431,0,0-3.352-.137-2.566-1.847.769-1.686,1.522-16.359,4.72-18.426,2.3-.908,3.364-1.707,6.459-2.551l.126-.287c.5.31,4.073-.043.165,10.916" transform="translate(1043.468 6411.737)" fill="#454545"/>
      <path id="Trazado_110818" data-name="Trazado 110818" d="M112.757,163.679c-.357,1.2-1.179,2.018-1.834,1.823s-.9-1.327-.541-2.528,1.178-2.02,1.834-1.824.9,1.326.541,2.529" transform="translate(1043.468 6411.737)" fill="#454545"/>
      <path id="Trazado_110819" data-name="Trazado 110819" d="M125.813,166.5c-.357,1.2-1.179,2.019-1.834,1.825s-.9-1.328-.54-2.529,1.176-2.02,1.833-1.824.9,1.327.541,2.528" transform="translate(1043.468 6411.737)" fill="#454545"/>
      <path id="Trazado_110820" data-name="Trazado 110820" d="M123.429,158.492a11.492,11.492,0,0,1,6.853,3.818s1.075-.681-1.09-3.059c0,0-3.838-4.438-5.763-.759" transform="translate(1043.468 6411.737)" fill="#454545"/>
      <path id="Trazado_110821" data-name="Trazado 110821" d="M115.3,156.859a8.728,8.728,0,0,0-6.8.135s-.477-1.1,2.211-2.168c0,0,4.868-2.09,4.589,2.033" transform="translate(1043.468 6411.737)" fill="#454545"/>
      <path id="Trazado_110822" data-name="Trazado 110822" d="M82.064,220.193l1.827-11.3S62.68,222.037,39.739,236.386c-3.7,2.312-12.13-33.685-12.13-33.685L17.12,209.156s10.753,44.493,19.31,45.2c15.446,1.28,54.214-19.655,54.214-19.655Z" transform="translate(1043.468 6411.737)" fill="#b0ddfc"/>
      <path id="Trazado_110823" data-name="Trazado 110823" d="M152.833,217.686s12.036,2.361,1.682,69.142c-.794,5.116-24.668,5.138-24.153,2.323,1.032-5.63,7.324-47.287,7.324-47.287Z" transform="translate(1043.468 6411.737)" fill="#b0ddfc"/>
      <path id="Trazado_110824" data-name="Trazado 110824" d="M6.71,265.928,5.264,184.26a1.2,1.2,0,0,1,1.179-1.221l53.571-.948a1.2,1.2,0,0,1,1.22,1.178l1.447,81.668a1.2,1.2,0,0,1-1.178,1.221l-53.572.948a1.2,1.2,0,0,1-1.221-1.178" transform="translate(1043.468 6411.737)" fill="#454545"/>
      <rect id="Rectángulo_34212" data-name="Rectángulo 34212" width="48.782" height="76.882" transform="translate(1052.374 6598.332) rotate(-1.014)" fill="#fff"/>
      <path id="Trazado_110825" data-name="Trazado 110825" d="M24.88,182.859s.477-1.681,1.486-1.7,2.124-1.551,4.248-1.587l2.123-.035a7.783,7.783,0,0,1,3.281-1.232,5.067,5.067,0,0,1,2.928,1.4s2.267-.3,2.53.332S41.391,190.142,40,190.1l-1.646-.288s-.494,4.426-2.584,4.084a2.736,2.736,0,0,1-2.4-2.4l.112.4s-2.089.981-3.247-.353A4.784,4.784,0,0,1,29,189.016a1.543,1.543,0,0,1-2.163-.289,1.519,1.519,0,0,1-.181-.3,28.824,28.824,0,0,1-1.776-5.565" transform="translate(1043.468 6411.737)" fill="#ffbcab"/>
      <rect id="Rectángulo_34213" data-name="Rectángulo 34213" width="7.447" height="7.447" transform="translate(1057.488 6615.1) rotate(-1.016)" fill="#ededed"/>
      <rect id="Rectángulo_34214" data-name="Rectángulo 34214" width="7.448" height="7.447" transform="translate(1057.896 6635.307) rotate(-1.015)" fill="#ededed"/>
      <rect id="Rectángulo_34215" data-name="Rectángulo 34215" width="7.447" height="7.448" transform="translate(1058.255 6655.564) rotate(-1.016)" fill="#ededed"/>
      <rect id="Rectángulo_34216" data-name="Rectángulo 34216" width="26.549" height="2.469" transform="translate(1068.243 6614.908) rotate(-1.014)" fill="#ededed"/>
      <rect id="Rectángulo_34217" data-name="Rectángulo 34217" width="26.553" height="2.469" transform="translate(1068.243 6619.939) rotate(-1.031)" fill="#ededed"/>
      <rect id="Rectángulo_34218" data-name="Rectángulo 34218" width="26.553" height="2.469" transform="translate(1068.243 6635.253) rotate(-1.031)" fill="#ededed"/>
      <rect id="Rectángulo_34219" data-name="Rectángulo 34219" width="26.549" height="2.469" transform="translate(1068.243 6640.283) rotate(-1.014)" fill="#ededed"/>
      <rect id="Rectángulo_34220" data-name="Rectángulo 34220" width="26.549" height="2.469" transform="translate(1068.243 6655.706) rotate(-1.014)" fill="#ededed"/>
      <rect id="Rectángulo_34221" data-name="Rectángulo 34221" width="26.549" height="2.469" transform="translate(1068.243 6660.738) rotate(-1.014)" fill="#ededed"/>
      <path id="Trazado_110826" data-name="Trazado 110826" d="M107.567,155.031s1.667-8.909,4.34-8.979c2.473-.066,4.071,1.366,8.051,2.332,6.906,1.674,17.646-.632,16.413,5.637s8.109-2.76,8.109-2.76,2.505-10.6-9.786-13.153c-11.869-2.462-22.048-2.309-23.237-.826-1.152,1.437-2.122,8.526-3.89,17.749" transform="translate(1043.468 6411.737)" fill="#454545"/>
      <path id="Trazado_110827" data-name="Trazado 110827" d="M84.58,287.644c-.289-.2-11.334-2.1-11.334-2.1L54.8,284.417s-13.2-7.2-11.342-8.23,8.421,2.072,8.421,2.072-5.735-3.235-3.447-3.641c1.879-.332,8.806,2.355,8.806,2.355s.094-1,1.557-1.178,3.565,2.31,9.181.728c4.387-1.237,7.57,1.51,8.85,2.563.722.593,10.857,1.508,10.857,1.508l-2.712,6.568" transform="translate(1043.468 6411.737)" fill="#ffbcab"/>
      <g id="Grupo_87704" data-name="Grupo 87704" transform="translate(1043.468 6411.737)" opacity="0.15" style="isolation: isolate">
        <g id="Grupo_87703" data-name="Grupo 87703">
          <g id="Grupo_87702" data-name="Grupo 87702" clip-path="url(#clip-path)">
            <path id="Trazado_110828" data-name="Trazado 110828" d="M82.756,308.986s35.81,11.544,49.306-2.471c10.034-18.87,5.624-64.648,5.624-64.648s-11.153,23.668-14.378,24.919c-1.934.749-16.991,9.07-42.1,8.6Z" fill="#84a6bd"/>
          </g>
        </g>
      </g>
      <path id="Trazado_110829" data-name="Trazado 110829" d="M136.818,176.434a1.4,1.4,0,0,0,1.043-1.343c.116-1.122-.774-1.219-.774-1.219s1.858-2.514,2.921-1.624.038,3-.967,3.926-3.616.79-2.223.26" transform="translate(1043.468 6411.737)" fill="#e6b09e"/>
      <path id="Trazado_110830" data-name="Trazado 110830" d="M15.05,205.823l2.5,3.072L23,200.427" transform="translate(1043.468 6411.737)" fill="none" stroke="#6bced1" stroke-miterlimit="10" stroke-width="2"/>
      <path id="Trazado_110831" data-name="Trazado 110831" d="M15.05,226.645l2.5,3.072L23,221.249" transform="translate(1043.468 6411.737)" fill="none" stroke="#6bced1" stroke-miterlimit="10" stroke-width="2"/>
      <g id="Grupo_87707" data-name="Grupo 87707" transform="translate(1043.468 6411.737)" opacity="0.4" style="isolation: isolate">
        <g id="Grupo_87706" data-name="Grupo 87706">
          <g id="Grupo_87705" data-name="Grupo 87705" clip-path="url(#clip-path-2)">
            <path id="Trazado_110832" data-name="Trazado 110832" d="M132.361,202.706s-5.7,12.69-15.578,20.581l-3.508-5-2.08,2.674-4.066,53.63L104,278.081l-4.317.232,6.981-63.275-1.986.473-4.586,5.292-.13-1.894L98.69,200.626v-.019l5.339.335c1.336,5.932,5.476,7.956,5.476,7.956,5.319-.956,10.3-3.937,13.972-6.722l8.383.53Z" fill="#b0ddfc"/>
          </g>
        </g>
      </g>
      <path id="Trazado_110833" data-name="Trazado 110833" d="M109.5,208.894l-6.224,2.652,2.878,8.208s-8.614,34.33-12.05,55.09L97.03,284.3s7.785-6.967,8.582-9.717c.79-2.722,2.554-34.958,4.686-54.158l3.5-7.186Z" transform="translate(1043.468 6411.737)" fill="#d90000"/>
      <path id="Trazado_110834" data-name="Trazado 110834" d="M132.139,201.991a4.857,4.857,0,0,1-.279.715c-2.5,5.709-15.828,19.328-15.828,19.328L109.5,208.9c5.319-.956,10.3-3.937,13.972-6.722a49.367,49.367,0,0,0,6.118-5.421Z" transform="translate(1043.468 6411.737)" fill="#fff"/>
      <path id="Trazado_110835" data-name="Trazado 110835" d="M109.5,208.9s-7.6,8.419-9.543,10.016c-.269.223-.436.307-.446.223-1.29-9.673-1.086-15.67-.826-18.511v-.019c.13-1.318.26-1.949.26-1.949l4.772-3.843a18.854,18.854,0,0,0,.307,6.127c1.336,5.932,5.476,7.956,5.476,7.956" transform="translate(1043.468 6411.737)" fill="#fff"/>
      <path id="Trazado_110836" data-name="Trazado 110836" d="M142.362,267.106S127.146,281.118,79.506,278v11.024s60.829,11.448,74.059.22c3.3-2.8-11.2-22.138-11.2-22.138" transform="translate(1043.468 6411.737)" fill="#b0ddfc"/>
      <path id="Trazado_110837" data-name="Trazado 110837" d="M77.538,277.186s-.773,11.044-.193,11.856,13.654,3.787,14,3.172,1.161-14.274.232-14.389-14.039-.639-14.039-.639" transform="translate(1043.468 6411.737)" fill="#fff"/>
      <path id="Trazado_110838" data-name="Trazado 110838" d="M82.58,316.358s16.987,8.417,49.776-1.6l-.3-8.248s-16.123,6.63-49.306,2.471Z" transform="translate(1043.468 6411.737)" fill="#140f10"/>
    </g>
  </g>
</svg>
