<svg xmlns="http://www.w3.org/2000/svg" xmlns:xlink="http://www.w3.org/1999/xlink" width="551.195" height="492" viewBox="0 0 551.195 492">
  <defs>
    <linearGradient id="linear-gradient" y1="0.5" x2="1" y2="0.5" gradientUnits="objectBoundingBox">
      <stop offset="0" stop-color="#fbb040"/>
      <stop offset="0.359" stop-color="#faad3c"/>
      <stop offset="0.673" stop-color="#f9a431"/>
      <stop offset="0.968" stop-color="#f7951f"/>
      <stop offset="0.995" stop-color="#f7941e"/>
    </linearGradient>
  </defs>
  <g id="Grupo_84825" data-name="Grupo 84825" transform="translate(-856.805 -1194)">
    <rect id="Rectángulo_24357" data-name="Rectángulo 24357" width="317" height="492" transform="translate(1091 1194)" fill="#e2f6ff"/>
    <g id="Grupo_84824" data-name="Grupo 84824" transform="translate(1101.504 1083.449)">
      <g id="Grupo_84731" data-name="Grupo 84731" transform="translate(184.606 125.967)">
        <g id="Grupo_84729" data-name="Grupo 84729">
          <g id="Grupo_84727" data-name="Grupo 84727">
            <path id="Trazado_103893" data-name="Trazado 103893" d="M108.5,245.684c2.806-8.824-.887-18.474-6.164-26.081-8.939-12.885-22.662-18.422-26.772-35.2-3.826-15.614-.117-33.17,10.485-45.387,13.733-15.826,42.454-21.456,61.754-13.3s32.164,29.474,30.385,50.35a42.232,42.232,0,0,1-8.223,22.163c-5.426,7.037-13.253,11.849-19.076,18.562s-9.36,16.99-4.424,24.377Z" transform="translate(-74.101 -121.999)" fill="#ffc32e"/>
          </g>
          <g id="Grupo_84728" data-name="Grupo 84728" transform="translate(21.329 39.084)">
            <path id="Trazado_103894" data-name="Trazado 103894" d="M127.337,238.68a317.887,317.887,0,0,1-5.8-53.846,75.472,75.472,0,0,1,.57-13.136,94.562,94.562,0,0,1-11.752-.329c.024.54.046,1.069.069,1.59l2.682,64.956-2.233.092-2.681-64.955c-.027-.632-.053-1.263-.085-1.9-2.05-.215-3.99-.474-5.761-.741a19.324,19.324,0,0,1-8.394-2.883,8.685,8.685,0,0,1-3.913-8.314,7.139,7.139,0,0,1,3.213-4.69,9,9,0,0,1,6.856-1.29c3.711.865,6.914,3.95,8.567,8.251a27.258,27.258,0,0,1,1.539,7.634,91.808,91.808,0,0,0,12.295.355c.2-.926.428-1.852.7-2.769,1.98-6.652,6.067-11.934,11.212-14.491,3.913-1.951,9.517-1.454,12.23,1.081,1.819,1.7,2.223,4.076,1.135,6.689-3.932,7.87-13.391,10.854-23.4,11.582a71.58,71.58,0,0,0-.618,13.218,315.4,315.4,0,0,0,5.758,53.466Zm12.525-85.441a10.169,10.169,0,0,0-4.443.976c-4.592,2.284-8.26,7.068-10.066,13.13q-.293.988-.524,1.989c9.11-.725,17.51-3.435,20.931-10.277a3.43,3.43,0,0,0-.632-4.129A7.9,7.9,0,0,0,139.862,153.24Zm-41.607,2.023a6.953,6.953,0,0,0-3.768,1.126,4.929,4.929,0,0,0-2.245,3.212c-.428,2.448,1.2,4.83,3,6.107a17.3,17.3,0,0,0,7.433,2.5c1.628.245,3.4.485,5.277.691a24.143,24.143,0,0,0-1.367-6.6c-1.367-3.559-4.043-6.19-6.988-6.877A6.029,6.029,0,0,0,98.255,155.262Z" transform="translate(-89.94 -151.023)" fill="#fff"/>
          </g>
        </g>
        <g id="Grupo_84730" data-name="Grupo 84730" transform="translate(30.073 116.778)">
          <path id="Trazado_103895" data-name="Trazado 103895" d="M96.433,208.718V221a15.684,15.684,0,0,0,15.638,15.638h12.845A15.682,15.682,0,0,0,140.553,221V208.718Z" transform="translate(-96.433 -208.718)" fill="#ffc32e"/>
          <path id="Trazado_103896" data-name="Trazado 103896" d="M137.423,213.254H98.7a1.028,1.028,0,0,1-1.023-1.025h0a1.026,1.026,0,0,1,1.023-1.023h38.722a1.025,1.025,0,0,1,1.023,1.023h0A1.026,1.026,0,0,1,137.423,213.254Z" transform="translate(-96.002 -207.856)" fill="#fff"/>
          <path id="Trazado_103897" data-name="Trazado 103897" d="M137.423,216.917H98.7a1.028,1.028,0,0,1-1.023-1.023h0A1.026,1.026,0,0,1,98.7,214.87h38.722a1.025,1.025,0,0,1,1.023,1.023h0A1.026,1.026,0,0,1,137.423,216.917Z" transform="translate(-96.002 -206.586)" fill="#fff"/>
          <path id="Trazado_103898" data-name="Trazado 103898" d="M137.423,220.58H98.7a1.027,1.027,0,0,1-1.023-1.023h0a1.027,1.027,0,0,1,1.023-1.023h38.722a1.026,1.026,0,0,1,1.023,1.023h0A1.026,1.026,0,0,1,137.423,220.58Z" transform="translate(-96.002 -205.316)" fill="#fff"/>
        </g>
      </g>
      <g id="Grupo_84735" data-name="Grupo 84735" transform="translate(178.873 288.764)">
        <g id="Grupo_84734" data-name="Grupo 84734" transform="translate(0)">
          <path id="Trazado_103899" data-name="Trazado 103899" d="M197.468,411.082H69.844l.008-138.022,26.762-2.474-.936-27.7,101.789,0Z" transform="translate(-69.844 -242.891)" fill="#fff"/>
          <g id="Grupo_84733" data-name="Grupo 84733" transform="translate(17.551 20.676)" opacity="0.63">
            <rect id="Rectángulo_24247" data-name="Rectángulo 24247" width="58.117" height="4.446" transform="translate(20.457)" fill="#cbd6f4"/>
            <g id="Grupo_84732" data-name="Grupo 84732" transform="translate(0 25.029)">
              <rect id="Rectángulo_24248" data-name="Rectángulo 24248" width="92.522" height="4.447" fill="#cbd6f4"/>
              <rect id="Rectángulo_24249" data-name="Rectángulo 24249" width="92.522" height="4.447" transform="translate(0 16.229)" fill="#cbd6f4"/>
              <rect id="Rectángulo_24250" data-name="Rectángulo 24250" width="92.522" height="4.446" transform="translate(0 32.457)" fill="#cbd6f4"/>
              <rect id="Rectángulo_24251" data-name="Rectángulo 24251" width="92.522" height="4.446" transform="translate(0 48.684)" fill="#cbd6f4"/>
              <rect id="Rectángulo_24252" data-name="Rectángulo 24252" width="92.522" height="4.447" transform="translate(0 64.912)" fill="#cbd6f4"/>
            </g>
          </g>
          <path id="Trazado_103900" data-name="Trazado 103900" d="M95.695,242.905,69.872,273.058,97.726,271.2Z" transform="translate(-69.834 -242.886)" fill="#cbd6f4"/>
        </g>
      </g>
      <g id="Grupo_84800" data-name="Grupo 84800" transform="translate(-244.699 318.127)">
        <g id="Grupo_84752" data-name="Grupo 84752" transform="translate(78.581 106.307)">
          <g id="Grupo_84737" data-name="Grupo 84737">
            <g id="Grupo_84736" data-name="Grupo 84736">
              <rect id="Rectángulo_24253" data-name="Rectángulo 24253" width="61.531" height="8.932" rx="0.983" transform="translate(61.531 8.932) rotate(180)" fill="#ffc239"/>
              <rect id="Rectángulo_24254" data-name="Rectángulo 24254" width="25.803" height="8.887" transform="translate(53.178 8.891) rotate(180)" fill="#e89c23"/>
              <rect id="Rectángulo_24255" data-name="Rectángulo 24255" width="11.022" height="8.849" transform="translate(15.24 8.891) rotate(180)" fill="#f8d745"/>
            </g>
            <path id="Trazado_103901" data-name="Trazado 103901" d="M-124.814,348.906v.516a1.327,1.327,0,0,1-1.324,1.324h-58.884a1.327,1.327,0,0,1-1.324-1.324v-.516Z" transform="translate(186.345 -341.814)" fill="#e89c23"/>
          </g>
          <g id="Grupo_84739" data-name="Grupo 84739" transform="translate(0 8.822)">
            <g id="Grupo_84738" data-name="Grupo 84738">
              <path id="Rectángulo_24256" data-name="Rectángulo 24256" d="M.982,0H60.548a.983.983,0,0,1,.983.983V7.949a.983.983,0,0,1-.983.983H.983A.983.983,0,0,1,0,7.949V.982A.982.982,0,0,1,.982,0Z" transform="translate(61.531 8.932) rotate(180)" fill="#ffc239"/>
              <rect id="Rectángulo_24257" data-name="Rectángulo 24257" width="25.803" height="8.886" transform="translate(53.178 8.89) rotate(180)" fill="#e89c23"/>
              <rect id="Rectángulo_24258" data-name="Rectángulo 24258" width="11.022" height="8.849" transform="translate(15.24 8.89) rotate(180)" fill="#f8d745"/>
            </g>
            <path id="Trazado_103902" data-name="Trazado 103902" d="M-124.814,355.457v.517a1.327,1.327,0,0,1-1.324,1.322h-58.884a1.327,1.327,0,0,1-1.324-1.322v-.517Z" transform="translate(186.345 -348.365)" fill="#e89c23"/>
          </g>
          <g id="Grupo_84741" data-name="Grupo 84741" transform="translate(0 17.585)">
            <g id="Grupo_84740" data-name="Grupo 84740">
              <path id="Rectángulo_24259" data-name="Rectángulo 24259" d="M.983,0H60.548a.983.983,0,0,1,.983.983V7.95a.982.982,0,0,1-.982.982H.983A.983.983,0,0,1,0,7.949V.983A.983.983,0,0,1,.983,0Z" transform="translate(61.531 8.935) rotate(180)" fill="#ffc239"/>
              <rect id="Rectángulo_24260" data-name="Rectángulo 24260" width="25.803" height="8.894" transform="translate(53.178 8.894) rotate(180)" fill="#e89c23"/>
              <rect id="Rectángulo_24261" data-name="Rectángulo 24261" width="11.022" height="8.849" transform="translate(15.24 8.894) rotate(180)" fill="#f8d745"/>
            </g>
            <path id="Trazado_103903" data-name="Trazado 103903" d="M-124.814,361.967v.517a1.327,1.327,0,0,1-1.324,1.322h-58.884a1.327,1.327,0,0,1-1.324-1.322v-.517Z" transform="translate(186.345 -354.872)" fill="#e89c23"/>
          </g>
          <g id="Grupo_84743" data-name="Grupo 84743" transform="translate(0 26.52)">
            <g id="Grupo_84742" data-name="Grupo 84742">
              <rect id="Rectángulo_24262" data-name="Rectángulo 24262" width="61.531" height="8.932" rx="0.983" transform="translate(61.531 8.932) rotate(180)" fill="#ffc239"/>
              <rect id="Rectángulo_24263" data-name="Rectángulo 24263" width="25.803" height="8.887" transform="translate(53.178 8.891) rotate(180)" fill="#e89c23"/>
              <rect id="Rectángulo_24264" data-name="Rectángulo 24264" width="11.022" height="8.849" transform="translate(15.24 8.891) rotate(180)" fill="#f8d745"/>
            </g>
            <path id="Trazado_103904" data-name="Trazado 103904" d="M-124.814,368.6v.516a1.327,1.327,0,0,1-1.324,1.324h-58.884a1.327,1.327,0,0,1-1.324-1.324V368.6Z" transform="translate(186.345 -361.508)" fill="#e89c23"/>
          </g>
          <g id="Grupo_84745" data-name="Grupo 84745" transform="translate(0 35.342)">
            <g id="Grupo_84744" data-name="Grupo 84744">
              <path id="Rectángulo_24265" data-name="Rectángulo 24265" d="M.982,0H60.548a.983.983,0,0,1,.983.983V7.949a.983.983,0,0,1-.983.983H.983A.983.983,0,0,1,0,7.949V.982A.982.982,0,0,1,.982,0Z" transform="translate(61.531 8.932) rotate(180)" fill="#ffc239"/>
              <rect id="Rectángulo_24266" data-name="Rectángulo 24266" width="25.803" height="8.886" transform="translate(53.178 8.891) rotate(180)" fill="#e89c23"/>
              <rect id="Rectángulo_24267" data-name="Rectángulo 24267" width="11.022" height="8.849" transform="translate(15.24 8.891) rotate(180)" fill="#f8d745"/>
            </g>
            <path id="Trazado_103905" data-name="Trazado 103905" d="M-124.814,375.15v.517a1.327,1.327,0,0,1-1.324,1.324h-58.884a1.327,1.327,0,0,1-1.324-1.324v-.517Z" transform="translate(186.345 -368.059)" fill="#e89c23"/>
          </g>
          <g id="Grupo_84747" data-name="Grupo 84747" transform="translate(0 44.16)">
            <g id="Grupo_84746" data-name="Grupo 84746">
              <path id="Rectángulo_24268" data-name="Rectángulo 24268" d="M.982,0H60.548a.983.983,0,0,1,.983.983V7.949a.983.983,0,0,1-.983.983H.983A.983.983,0,0,1,0,7.949V.982A.982.982,0,0,1,.982,0Z" transform="translate(61.531 8.935) rotate(180)" fill="#ffc239"/>
              <rect id="Rectángulo_24269" data-name="Rectángulo 24269" width="25.803" height="8.894" transform="translate(53.178 8.894) rotate(180)" fill="#e89c23"/>
              <rect id="Rectángulo_24270" data-name="Rectángulo 24270" width="11.022" height="8.849" transform="translate(15.24 8.894) rotate(180)" fill="#f8d745"/>
            </g>
            <path id="Trazado_103906" data-name="Trazado 103906" d="M-124.814,381.7v.517a1.327,1.327,0,0,1-1.324,1.324h-58.884a1.327,1.327,0,0,1-1.324-1.324V381.7Z" transform="translate(186.345 -374.606)" fill="#e89c23"/>
          </g>
          <g id="Grupo_84749" data-name="Grupo 84749" transform="translate(0 53.095)">
            <g id="Grupo_84748" data-name="Grupo 84748">
              <rect id="Rectángulo_24271" data-name="Rectángulo 24271" width="61.531" height="8.932" rx="0.983" transform="translate(61.531 8.932) rotate(180)" fill="#ffc239"/>
              <rect id="Rectángulo_24272" data-name="Rectángulo 24272" width="25.803" height="8.887" transform="translate(53.178 8.891) rotate(180)" fill="#e89c23"/>
              <rect id="Rectángulo_24273" data-name="Rectángulo 24273" width="11.022" height="8.85" transform="translate(15.24 8.891) rotate(180)" fill="#f8d745"/>
            </g>
            <path id="Trazado_103907" data-name="Trazado 103907" d="M-124.814,388.334v.517a1.328,1.328,0,0,1-1.324,1.324h-58.884a1.328,1.328,0,0,1-1.324-1.324v-.517Z" transform="translate(186.345 -381.242)" fill="#e89c23"/>
          </g>
          <g id="Grupo_84751" data-name="Grupo 84751" transform="translate(0 61.917)">
            <g id="Grupo_84750" data-name="Grupo 84750">
              <path id="Rectángulo_24274" data-name="Rectángulo 24274" d="M.982,0H60.548a.983.983,0,0,1,.983.983V7.949a.983.983,0,0,1-.983.983H.983A.983.983,0,0,1,0,7.949V.982A.982.982,0,0,1,.982,0Z" transform="translate(61.531 8.932) rotate(180)" fill="#ffc239"/>
              <rect id="Rectángulo_24275" data-name="Rectángulo 24275" width="25.803" height="8.886" transform="translate(53.178 8.89) rotate(180)" fill="#e89c23"/>
              <rect id="Rectángulo_24276" data-name="Rectángulo 24276" width="11.022" height="8.849" transform="translate(15.24 8.89) rotate(180)" fill="#f8d745"/>
            </g>
            <path id="Trazado_103908" data-name="Trazado 103908" d="M-124.814,394.885v.517a1.327,1.327,0,0,1-1.324,1.322h-58.884a1.327,1.327,0,0,1-1.324-1.322v-.517Z" transform="translate(186.345 -387.793)" fill="#e89c23"/>
          </g>
        </g>
        <g id="Grupo_84769" data-name="Grupo 84769" transform="translate(26.648)">
          <g id="Grupo_84754" data-name="Grupo 84754">
            <g id="Grupo_84753" data-name="Grupo 84753" transform="translate(0)">
              <rect id="Rectángulo_24277" data-name="Rectángulo 24277" width="61.531" height="8.932" rx="0.983" transform="translate(61.531 8.932) rotate(180)" fill="#ffc239"/>
              <rect id="Rectángulo_24278" data-name="Rectángulo 24278" width="25.803" height="8.887" transform="translate(53.178 8.891) rotate(180)" fill="#e89c23"/>
              <rect id="Rectángulo_24279" data-name="Rectángulo 24279" width="11.022" height="8.849" transform="translate(15.24 8.891) rotate(180)" fill="#f8d745"/>
            </g>
            <path id="Trazado_103909" data-name="Trazado 103909" d="M-163.379,269.963v.516A1.327,1.327,0,0,1-164.7,271.8h-58.884a1.328,1.328,0,0,1-1.324-1.324v-.516Z" transform="translate(224.91 -262.871)" fill="#e89c23"/>
          </g>
          <g id="Grupo_84756" data-name="Grupo 84756" transform="translate(0 8.822)">
            <g id="Grupo_84755" data-name="Grupo 84755" transform="translate(0)">
              <path id="Rectángulo_24280" data-name="Rectángulo 24280" d="M.982,0H60.548a.983.983,0,0,1,.983.983V7.949a.983.983,0,0,1-.983.983H.983A.983.983,0,0,1,0,7.949V.982A.982.982,0,0,1,.982,0Z" transform="translate(61.531 8.932) rotate(180)" fill="#ffc239"/>
              <rect id="Rectángulo_24281" data-name="Rectángulo 24281" width="25.803" height="8.886" transform="translate(53.178 8.89) rotate(180)" fill="#e89c23"/>
              <rect id="Rectángulo_24282" data-name="Rectángulo 24282" width="11.022" height="8.849" transform="translate(15.24 8.89) rotate(180)" fill="#f8d745"/>
            </g>
            <path id="Trazado_103910" data-name="Trazado 103910" d="M-163.379,276.513v.518a1.327,1.327,0,0,1-1.324,1.322h-58.884a1.328,1.328,0,0,1-1.324-1.322v-.518Z" transform="translate(224.91 -269.422)" fill="#e89c23"/>
          </g>
          <g id="Grupo_84758" data-name="Grupo 84758" transform="translate(0 17.585)">
            <g id="Grupo_84757" data-name="Grupo 84757" transform="translate(0)">
              <path id="Rectángulo_24283" data-name="Rectángulo 24283" d="M.983,0H60.548a.983.983,0,0,1,.983.983V7.95a.982.982,0,0,1-.982.982H.982A.982.982,0,0,1,0,7.95V.983A.983.983,0,0,1,.983,0Z" transform="translate(61.531 8.935) rotate(180)" fill="#ffc239"/>
              <rect id="Rectángulo_24284" data-name="Rectángulo 24284" width="25.803" height="8.894" transform="translate(53.178 8.894) rotate(180)" fill="#e89c23"/>
              <rect id="Rectángulo_24285" data-name="Rectángulo 24285" width="11.022" height="8.849" transform="translate(15.24 8.894) rotate(180)" fill="#f8d745"/>
            </g>
            <path id="Trazado_103911" data-name="Trazado 103911" d="M-163.379,283.023v.518a1.327,1.327,0,0,1-1.324,1.322h-58.884a1.328,1.328,0,0,1-1.324-1.322v-.518Z" transform="translate(224.91 -275.929)" fill="#e89c23"/>
          </g>
          <g id="Grupo_84760" data-name="Grupo 84760" transform="translate(0 26.52)">
            <g id="Grupo_84759" data-name="Grupo 84759" transform="translate(0)">
              <rect id="Rectángulo_24286" data-name="Rectángulo 24286" width="61.531" height="8.932" rx="0.983" transform="translate(61.531 8.932) rotate(180)" fill="#ffc239"/>
              <rect id="Rectángulo_24287" data-name="Rectángulo 24287" width="25.803" height="8.887" transform="translate(53.178 8.891) rotate(180)" fill="#e89c23"/>
              <rect id="Rectángulo_24288" data-name="Rectángulo 24288" width="11.022" height="8.849" transform="translate(15.24 8.891) rotate(180)" fill="#f8d745"/>
            </g>
            <path id="Trazado_103912" data-name="Trazado 103912" d="M-163.379,289.657v.516A1.327,1.327,0,0,1-164.7,291.5h-58.884a1.328,1.328,0,0,1-1.324-1.324v-.516Z" transform="translate(224.91 -282.564)" fill="#e89c23"/>
          </g>
          <g id="Grupo_84762" data-name="Grupo 84762" transform="translate(0 35.342)">
            <g id="Grupo_84761" data-name="Grupo 84761" transform="translate(0)">
              <path id="Rectángulo_24289" data-name="Rectángulo 24289" d="M.982,0H60.548a.983.983,0,0,1,.983.983V7.949a.983.983,0,0,1-.983.983H.983A.983.983,0,0,1,0,7.949V.982A.982.982,0,0,1,.982,0Z" transform="translate(61.531 8.932) rotate(180)" fill="#ffc239"/>
              <rect id="Rectángulo_24290" data-name="Rectángulo 24290" width="25.803" height="8.886" transform="translate(53.178 8.891) rotate(180)" fill="#e89c23"/>
              <rect id="Rectángulo_24291" data-name="Rectángulo 24291" width="11.022" height="8.849" transform="translate(15.24 8.891) rotate(180)" fill="#f8d745"/>
            </g>
            <path id="Trazado_103913" data-name="Trazado 103913" d="M-163.379,296.207v.517a1.328,1.328,0,0,1-1.324,1.324h-58.884a1.329,1.329,0,0,1-1.324-1.324v-.517Z" transform="translate(224.91 -289.115)" fill="#e89c23"/>
          </g>
          <g id="Grupo_84764" data-name="Grupo 84764" transform="translate(0 44.16)">
            <g id="Grupo_84763" data-name="Grupo 84763" transform="translate(0)">
              <path id="Rectángulo_24292" data-name="Rectángulo 24292" d="M.982,0H60.548a.983.983,0,0,1,.983.983V7.949a.983.983,0,0,1-.983.983H.983A.983.983,0,0,1,0,7.949V.982A.982.982,0,0,1,.982,0Z" transform="translate(61.531 8.935) rotate(180)" fill="#ffc239"/>
              <rect id="Rectángulo_24293" data-name="Rectángulo 24293" width="25.803" height="8.894" transform="translate(53.178 8.894) rotate(180)" fill="#e89c23"/>
              <rect id="Rectángulo_24294" data-name="Rectángulo 24294" width="11.022" height="8.849" transform="translate(15.24 8.894) rotate(180)" fill="#f8d745"/>
            </g>
            <path id="Trazado_103914" data-name="Trazado 103914" d="M-163.379,302.758v.517A1.327,1.327,0,0,1-164.7,304.6h-58.884a1.328,1.328,0,0,1-1.324-1.322v-.517Z" transform="translate(224.91 -295.663)" fill="#e89c23"/>
          </g>
          <g id="Grupo_84766" data-name="Grupo 84766" transform="translate(0 53.095)">
            <g id="Grupo_84765" data-name="Grupo 84765" transform="translate(0)">
              <rect id="Rectángulo_24295" data-name="Rectángulo 24295" width="61.531" height="8.932" rx="0.983" transform="translate(61.531 8.932) rotate(180)" fill="#ffc239"/>
              <rect id="Rectángulo_24296" data-name="Rectángulo 24296" width="25.803" height="8.887" transform="translate(53.178 8.891) rotate(180)" fill="#e89c23"/>
              <rect id="Rectángulo_24297" data-name="Rectángulo 24297" width="11.022" height="8.85" transform="translate(15.24 8.891) rotate(180)" fill="#f8d745"/>
            </g>
            <path id="Trazado_103915" data-name="Trazado 103915" d="M-163.379,309.391v.517a1.327,1.327,0,0,1-1.324,1.322h-58.884a1.328,1.328,0,0,1-1.324-1.322v-.517Z" transform="translate(224.91 -302.299)" fill="#e89c23"/>
          </g>
          <g id="Grupo_84768" data-name="Grupo 84768" transform="translate(0 61.917)">
            <g id="Grupo_84767" data-name="Grupo 84767" transform="translate(0)">
              <rect id="Rectángulo_24298" data-name="Rectángulo 24298" width="61.531" height="8.932" rx="0.983" transform="translate(61.531 8.932) rotate(180)" fill="#ffc239"/>
              <rect id="Rectángulo_24299" data-name="Rectángulo 24299" width="25.803" height="8.886" transform="translate(53.178 8.89) rotate(180)" fill="#e89c23"/>
              <rect id="Rectángulo_24300" data-name="Rectángulo 24300" width="11.022" height="8.849" transform="translate(15.24 8.89) rotate(180)" fill="#f8d745"/>
            </g>
            <path id="Trazado_103916" data-name="Trazado 103916" d="M-163.379,315.942v.517a1.327,1.327,0,0,1-1.324,1.322h-58.884a1.328,1.328,0,0,1-1.324-1.322v-.517Z" transform="translate(224.91 -308.85)" fill="#e89c23"/>
          </g>
        </g>
        <g id="Grupo_84794" data-name="Grupo 84794" transform="translate(26.621 70.797)">
          <g id="Grupo_84771" data-name="Grupo 84771">
            <g id="Grupo_84770" data-name="Grupo 84770">
              <path id="Rectángulo_24301" data-name="Rectángulo 24301" d="M.982,0H60.548a.983.983,0,0,1,.983.983V7.949a.983.983,0,0,1-.983.983H.983A.983.983,0,0,1,0,7.949V.982A.982.982,0,0,1,.982,0Z" transform="translate(61.531 8.935) rotate(180)" fill="#ffc239"/>
              <rect id="Rectángulo_24302" data-name="Rectángulo 24302" width="25.803" height="8.894" transform="translate(53.178 8.894) rotate(180)" fill="#e89c23"/>
              <rect id="Rectángulo_24303" data-name="Rectángulo 24303" width="11.022" height="8.849" transform="translate(15.24 8.894) rotate(180)" fill="#f8d745"/>
            </g>
            <path id="Trazado_103917" data-name="Trazado 103917" d="M-163.4,322.538v.517a1.327,1.327,0,0,1-1.324,1.324h-58.884a1.327,1.327,0,0,1-1.322-1.324v-.517Z" transform="translate(224.931 -315.444)" fill="#e89c23"/>
          </g>
          <g id="Grupo_84773" data-name="Grupo 84773" transform="translate(0 8.935)">
            <g id="Grupo_84772" data-name="Grupo 84772">
              <rect id="Rectángulo_24304" data-name="Rectángulo 24304" width="61.531" height="8.932" rx="0.983" transform="translate(61.531 8.932) rotate(180)" fill="#ffc239"/>
              <rect id="Rectángulo_24305" data-name="Rectángulo 24305" width="25.803" height="8.886" transform="translate(53.178 8.89) rotate(180)" fill="#e89c23"/>
              <rect id="Rectángulo_24306" data-name="Rectángulo 24306" width="11.022" height="8.849" transform="translate(15.24 8.89) rotate(180)" fill="#f8d745"/>
            </g>
            <path id="Trazado_103918" data-name="Trazado 103918" d="M-163.4,329.171v.517a1.327,1.327,0,0,1-1.324,1.322h-58.884a1.326,1.326,0,0,1-1.322-1.322v-.517Z" transform="translate(224.931 -322.079)" fill="#e89c23"/>
          </g>
          <g id="Grupo_84775" data-name="Grupo 84775" transform="translate(0 17.757)">
            <g id="Grupo_84774" data-name="Grupo 84774">
              <rect id="Rectángulo_24307" data-name="Rectángulo 24307" width="61.531" height="8.932" rx="0.983" transform="translate(61.531 8.932) rotate(180)" fill="#ffc239"/>
              <rect id="Rectángulo_24308" data-name="Rectángulo 24308" width="25.803" height="8.886" transform="translate(53.178 8.891) rotate(180)" fill="#e89c23"/>
              <rect id="Rectángulo_24309" data-name="Rectángulo 24309" width="11.022" height="8.849" transform="translate(15.24 8.891) rotate(180)" fill="#f8d745"/>
            </g>
            <path id="Trazado_103919" data-name="Trazado 103919" d="M-163.4,335.722v.517a1.328,1.328,0,0,1-1.324,1.324h-58.884a1.328,1.328,0,0,1-1.322-1.324v-.517Z" transform="translate(224.931 -328.63)" fill="#e89c23"/>
          </g>
          <g id="Grupo_84777" data-name="Grupo 84777" transform="translate(0 26.575)">
            <g id="Grupo_84776" data-name="Grupo 84776">
              <rect id="Rectángulo_24310" data-name="Rectángulo 24310" width="61.531" height="8.932" rx="0.983" transform="translate(61.531 8.935) rotate(180)" fill="#ffc239"/>
              <rect id="Rectángulo_24311" data-name="Rectángulo 24311" width="25.803" height="8.894" transform="translate(53.178 8.894) rotate(180)" fill="#e89c23"/>
              <rect id="Rectángulo_24312" data-name="Rectángulo 24312" width="11.022" height="8.849" transform="translate(15.24 8.894) rotate(180)" fill="#f8d745"/>
            </g>
            <path id="Trazado_103920" data-name="Trazado 103920" d="M-163.4,342.273v.517a1.327,1.327,0,0,1-1.324,1.322h-58.884a1.326,1.326,0,0,1-1.322-1.322v-.517Z" transform="translate(224.931 -335.178)" fill="#e89c23"/>
          </g>
          <g id="Grupo_84779" data-name="Grupo 84779" transform="translate(0 35.51)">
            <g id="Grupo_84778" data-name="Grupo 84778">
              <rect id="Rectángulo_24313" data-name="Rectángulo 24313" width="61.531" height="8.932" rx="0.983" transform="translate(61.531 8.932) rotate(180)" fill="#ffc239"/>
              <rect id="Rectángulo_24314" data-name="Rectángulo 24314" width="25.803" height="8.887" transform="translate(53.178 8.891) rotate(180)" fill="#e89c23"/>
              <rect id="Rectángulo_24315" data-name="Rectángulo 24315" width="11.022" height="8.849" transform="translate(15.24 8.891) rotate(180)" fill="#f8d745"/>
            </g>
            <path id="Trazado_103921" data-name="Trazado 103921" d="M-163.4,348.906v.516a1.327,1.327,0,0,1-1.324,1.324h-58.884a1.327,1.327,0,0,1-1.322-1.324v-.516Z" transform="translate(224.931 -341.814)" fill="#e89c23"/>
          </g>
          <g id="Grupo_84781" data-name="Grupo 84781" transform="translate(0 44.332)">
            <g id="Grupo_84780" data-name="Grupo 84780">
              <path id="Rectángulo_24316" data-name="Rectángulo 24316" d="M.982,0H60.548a.983.983,0,0,1,.983.983V7.949a.982.982,0,0,1-.982.982H.983A.983.983,0,0,1,0,7.949V.982A.982.982,0,0,1,.982,0Z" transform="translate(61.531 8.932) rotate(180)" fill="#ffc239"/>
              <rect id="Rectángulo_24317" data-name="Rectángulo 24317" width="25.803" height="8.886" transform="translate(53.178 8.89) rotate(180)" fill="#e89c23"/>
              <rect id="Rectángulo_24318" data-name="Rectángulo 24318" width="11.022" height="8.849" transform="translate(15.24 8.89) rotate(180)" fill="#f8d745"/>
            </g>
            <path id="Trazado_103922" data-name="Trazado 103922" d="M-163.4,355.457v.517a1.327,1.327,0,0,1-1.324,1.322h-58.884a1.326,1.326,0,0,1-1.322-1.322v-.517Z" transform="translate(224.931 -348.365)" fill="#e89c23"/>
          </g>
          <g id="Grupo_84783" data-name="Grupo 84783" transform="translate(0 53.095)">
            <g id="Grupo_84782" data-name="Grupo 84782">
              <rect id="Rectángulo_24319" data-name="Rectángulo 24319" width="61.531" height="8.932" rx="0.983" transform="translate(61.531 8.935) rotate(180)" fill="#ffc239"/>
              <rect id="Rectángulo_24320" data-name="Rectángulo 24320" width="25.803" height="8.894" transform="translate(53.178 8.894) rotate(180)" fill="#e89c23"/>
              <rect id="Rectángulo_24321" data-name="Rectángulo 24321" width="11.022" height="8.849" transform="translate(15.24 8.894) rotate(180)" fill="#f8d745"/>
            </g>
            <path id="Trazado_103923" data-name="Trazado 103923" d="M-163.4,361.967v.517a1.327,1.327,0,0,1-1.324,1.322h-58.884a1.326,1.326,0,0,1-1.322-1.322v-.517Z" transform="translate(224.931 -354.872)" fill="#e89c23"/>
          </g>
          <g id="Grupo_84785" data-name="Grupo 84785" transform="translate(0 62.03)">
            <g id="Grupo_84784" data-name="Grupo 84784">
              <rect id="Rectángulo_24322" data-name="Rectángulo 24322" width="61.531" height="8.932" rx="0.983" transform="translate(61.531 8.932) rotate(180)" fill="#ffc239"/>
              <rect id="Rectángulo_24323" data-name="Rectángulo 24323" width="25.803" height="8.887" transform="translate(53.178 8.891) rotate(180)" fill="#e89c23"/>
              <rect id="Rectángulo_24324" data-name="Rectángulo 24324" width="11.022" height="8.849" transform="translate(15.24 8.891) rotate(180)" fill="#f8d745"/>
            </g>
            <path id="Trazado_103924" data-name="Trazado 103924" d="M-163.4,368.6v.516a1.327,1.327,0,0,1-1.324,1.324h-58.884a1.327,1.327,0,0,1-1.322-1.324V368.6Z" transform="translate(224.931 -361.508)" fill="#e89c23"/>
          </g>
          <g id="Grupo_84787" data-name="Grupo 84787" transform="translate(0 70.852)">
            <g id="Grupo_84786" data-name="Grupo 84786">
              <path id="Rectángulo_24325" data-name="Rectángulo 24325" d="M.982,0H60.548a.983.983,0,0,1,.983.983V7.949a.983.983,0,0,1-.983.983H.983A.983.983,0,0,1,0,7.949V.982A.982.982,0,0,1,.982,0Z" transform="translate(61.531 8.932) rotate(180)" fill="#ffc239"/>
              <rect id="Rectángulo_24326" data-name="Rectángulo 24326" width="25.803" height="8.886" transform="translate(53.178 8.891) rotate(180)" fill="#e89c23"/>
              <rect id="Rectángulo_24327" data-name="Rectángulo 24327" width="11.022" height="8.849" transform="translate(15.24 8.891) rotate(180)" fill="#f8d745"/>
            </g>
            <path id="Trazado_103925" data-name="Trazado 103925" d="M-163.4,375.15v.517a1.327,1.327,0,0,1-1.324,1.324h-58.884a1.327,1.327,0,0,1-1.322-1.324v-.517Z" transform="translate(224.931 -368.059)" fill="#e89c23"/>
          </g>
          <g id="Grupo_84789" data-name="Grupo 84789" transform="translate(0 79.67)">
            <g id="Grupo_84788" data-name="Grupo 84788">
              <rect id="Rectángulo_24328" data-name="Rectángulo 24328" width="61.531" height="8.931" rx="0.983" transform="translate(61.531 8.935) rotate(180)" fill="#ffc239"/>
              <rect id="Rectángulo_24329" data-name="Rectángulo 24329" width="25.803" height="8.894" transform="translate(53.178 8.894) rotate(180)" fill="#e89c23"/>
              <rect id="Rectángulo_24330" data-name="Rectángulo 24330" width="11.022" height="8.849" transform="translate(15.24 8.894) rotate(180)" fill="#f8d745"/>
            </g>
            <path id="Trazado_103926" data-name="Trazado 103926" d="M-163.4,381.7v.517a1.327,1.327,0,0,1-1.324,1.324h-58.884a1.327,1.327,0,0,1-1.322-1.324V381.7Z" transform="translate(224.931 -374.606)" fill="#e89c23"/>
          </g>
          <g id="Grupo_84791" data-name="Grupo 84791" transform="translate(0 88.605)">
            <g id="Grupo_84790" data-name="Grupo 84790">
              <rect id="Rectángulo_24331" data-name="Rectángulo 24331" width="61.531" height="8.932" rx="0.983" transform="translate(61.531 8.932) rotate(180)" fill="#ffc239"/>
              <rect id="Rectángulo_24332" data-name="Rectángulo 24332" width="25.803" height="8.887" transform="translate(53.178 8.891) rotate(180)" fill="#e89c23"/>
              <rect id="Rectángulo_24333" data-name="Rectángulo 24333" width="11.022" height="8.85" transform="translate(15.24 8.891) rotate(180)" fill="#f8d745"/>
            </g>
            <path id="Trazado_103927" data-name="Trazado 103927" d="M-163.4,388.334v.517a1.328,1.328,0,0,1-1.324,1.324h-58.884a1.328,1.328,0,0,1-1.322-1.324v-.517Z" transform="translate(224.931 -381.242)" fill="#e89c23"/>
          </g>
          <g id="Grupo_84793" data-name="Grupo 84793" transform="translate(0 97.427)">
            <g id="Grupo_84792" data-name="Grupo 84792">
              <rect id="Rectángulo_24334" data-name="Rectángulo 24334" width="61.531" height="8.931" rx="0.983" transform="translate(61.531 8.932) rotate(180)" fill="#ffc239"/>
              <rect id="Rectángulo_24335" data-name="Rectángulo 24335" width="25.803" height="8.886" transform="translate(53.178 8.89) rotate(180)" fill="#e89c23"/>
              <rect id="Rectángulo_24336" data-name="Rectángulo 24336" width="11.022" height="8.849" transform="translate(15.24 8.89) rotate(180)" fill="#f8d745"/>
            </g>
            <path id="Trazado_103928" data-name="Trazado 103928" d="M-163.4,394.885v.517a1.327,1.327,0,0,1-1.324,1.322h-58.884a1.326,1.326,0,0,1-1.322-1.322v-.517Z" transform="translate(224.931 -387.793)" fill="#e89c23"/>
          </g>
        </g>
        <g id="Grupo_84799" data-name="Grupo 84799" transform="translate(0 113.83)">
          <g id="Grupo_84795" data-name="Grupo 84795">
            <path id="Trazado_103929" data-name="Trazado 103929" d="M-244.7,383.343a34.116,34.116,0,0,0,34.115,34.115,34.116,34.116,0,0,0,34.117-34.115,34.117,34.117,0,0,0-34.117-34.117A34.117,34.117,0,0,0-244.7,383.343Z" transform="translate(244.699 -349.226)" fill="#ffc32e"/>
          </g>
          <path id="Trazado_103930" data-name="Trazado 103930" d="M-236.966,358.837a33.977,33.977,0,0,1,23.7-9.611,34.117,34.117,0,0,1,34.117,34.117,33.957,33.957,0,0,1-9,23.03Z" transform="translate(247.379 -349.226)" fill="#ffed91"/>
          <g id="Grupo_84796" data-name="Grupo 84796" transform="translate(6.844 6.844)">
            <path id="Trazado_103931" data-name="Trazado 103931" d="M-238.955,381.352a26.38,26.38,0,0,0,26.38,26.379,26.379,26.379,0,0,0,26.38-26.379,26.38,26.38,0,0,0-26.38-26.382A26.381,26.381,0,0,0-238.955,381.352Z" transform="translate(239.846 -354.079)" fill="#f9b51c"/>
            <path id="Trazado_103932" data-name="Trazado 103932" d="M-239.617,381.581a27.3,27.3,0,0,1,27.272-27.273,27.3,27.3,0,0,1,27.275,27.273,27.3,27.3,0,0,1-27.275,27.272A27.3,27.3,0,0,1-239.617,381.581Zm1.784,0a25.517,25.517,0,0,0,25.488,25.488,25.517,25.517,0,0,0,25.489-25.488,25.517,25.517,0,0,0-25.489-25.488A25.516,25.516,0,0,0-237.833,381.581Z" transform="translate(239.617 -354.308)" fill="#e58e03"/>
          </g>
          <g id="Grupo_84798" data-name="Grupo 84798" transform="translate(21.281 12.533)">
            <g id="Grupo_84797" data-name="Grupo 84797">
              <path id="Trazado_103933" data-name="Trazado 103933" d="M-205.958,393.411q-2.735,2.594-7.922,3.146V401.7h-3.765v-5.1a25.738,25.738,0,0,1-6.427-1.239,14,14,0,0,1-4.824-2.573l2.068-4.638a15.213,15.213,0,0,0,4.133,2.32,18.367,18.367,0,0,0,5.05,1.17v-9.184a33.774,33.774,0,0,1-5.442-1.722,9.392,9.392,0,0,1-3.649-2.755,7.383,7.383,0,0,1-1.469-4.8,8.471,8.471,0,0,1,2.709-6.337q2.7-2.618,7.851-3.123v-5.189h3.765v5.1a21.466,21.466,0,0,1,5.028.873,16.587,16.587,0,0,1,4.3,1.928l-1.885,4.639a19.139,19.139,0,0,0-7.439-2.482v9.278a35.243,35.243,0,0,1,5.487,1.7,9.431,9.431,0,0,1,3.675,2.732,7.315,7.315,0,0,1,1.493,4.8A8.382,8.382,0,0,1-205.958,393.411Zm-15.131-18.07a10.315,10.315,0,0,0,3.443,1.561v-8.174a6.36,6.36,0,0,0-3.489,1.471,3.606,3.606,0,0,0-1.149,2.709A2.917,2.917,0,0,0-221.088,375.34Zm10.813,14.786a3.373,3.373,0,0,0,1.17-2.616,2.986,2.986,0,0,0-1.238-2.5,10.639,10.639,0,0,0-3.538-1.585v8.127A6.82,6.82,0,0,0-210.275,390.126Z" transform="translate(228.896 -358.533)" fill="#ffed91"/>
            </g>
          </g>
          <path id="Trazado_103934" data-name="Trazado 103934" d="M-231.332,363.675a22.961,22.961,0,0,1,16.018-6.495,23.057,23.057,0,0,1,23.057,23.056,22.946,22.946,0,0,1-6.081,15.564Z" transform="translate(249.332 -346.469)" fill="#ffed91" opacity="0.2"/>
        </g>
      </g>
      <g id="Grupo_84804" data-name="Grupo 84804" transform="translate(-234.485 110.551)">
        <path id="Trazado_103935" data-name="Trazado 103935" d="M-138.351,167.146c2.592,2.594,22.042,39.545,22.042,39.545l-43.434-35.656Z" transform="translate(263.933 -90.934)" fill="#ff7676"/>
        <g id="Grupo_84803" data-name="Grupo 84803">
          <path id="Rectángulo_24337" data-name="Rectángulo 24337" d="M13.276,0H156.242a13.277,13.277,0,0,1,13.277,13.277v55.38a13.277,13.277,0,0,1-13.277,13.277H13.277A13.277,13.277,0,0,1,0,68.657V13.276A13.276,13.276,0,0,1,13.276,0Z" fill="#ff7676"/>
          <g id="Grupo_84802" data-name="Grupo 84802" transform="translate(48.565 32.005)">
            <path id="Trazado_103936" data-name="Trazado 103936" d="M-162.9,143.28a8.963,8.963,0,0,1-8.962,8.963,8.962,8.962,0,0,1-8.962-8.963,8.961,8.961,0,0,1,8.962-8.962A8.962,8.962,0,0,1-162.9,143.28Z" transform="translate(208.06 -134.318)" fill="#fff"/>
            <g id="Grupo_84801" data-name="Grupo 84801">
              <path id="Trazado_103937" data-name="Trazado 103937" d="M-183.125,143.28a8.963,8.963,0,0,1-8.963,8.963,8.963,8.963,0,0,1-8.962-8.963,8.962,8.962,0,0,1,8.962-8.962A8.962,8.962,0,0,1-183.125,143.28Z" transform="translate(201.05 -134.318)" fill="#fff"/>
              <path id="Trazado_103938" data-name="Trazado 103938" d="M-142.68,143.28a8.963,8.963,0,0,1-8.962,8.963,8.963,8.963,0,0,1-8.963-8.963,8.962,8.962,0,0,1,8.963-8.962A8.962,8.962,0,0,1-142.68,143.28Z" transform="translate(215.069 -134.318)" fill="#fff"/>
            </g>
          </g>
        </g>
      </g>
      <g id="Grupo_84823" data-name="Grupo 84823" transform="translate(-110.086 194.084)">
        <g id="Grupo_84822" data-name="Grupo 84822">
          <g id="Grupo_84810" data-name="Grupo 84810" transform="translate(176.227 149.805)">
            <g id="Grupo_84809" data-name="Grupo 84809">
              <g id="Grupo_84808" data-name="Grupo 84808">
                <path id="Trazado_103939" data-name="Trazado 103939" d="M.32,289.239H8.735L9.9,283.827l-8.523.108Z" transform="translate(18.789 -283.827)" fill="#fc927a"/>
                <path id="Trazado_103940" data-name="Trazado 103940" d="M-.574,288.714s-1.87,3.524-1.763,5.718l2.3-.648Z" transform="translate(17.867 -282.133)" fill="#fc927a"/>
                <g id="Grupo_84807" data-name="Grupo 84807" transform="translate(0 11.256)">
                  <g id="Grupo_84805" data-name="Grupo 84805" transform="translate(13.018)">
                    <path id="Trazado_103941" data-name="Trazado 103941" d="M-4.2,307.434v-10.07a5.184,5.184,0,0,1,5.179-5.178H11.189a5.184,5.184,0,0,1,5.178,5.178v10.07a5.184,5.184,0,0,1-5.178,5.178H.976A5.184,5.184,0,0,1-4.2,307.434Zm5.179-11.8A1.727,1.727,0,0,0-.75,297.364v10.07A1.728,1.728,0,0,0,.976,309.16H11.189a1.729,1.729,0,0,0,1.726-1.726v-10.07a1.728,1.728,0,0,0-1.726-1.725Z" transform="translate(4.203 -292.186)" fill="#af5a51"/>
                  </g>
                  <g id="Grupo_84806" data-name="Grupo 84806" transform="translate(0 8.775)">
                    <path id="Rectángulo_24338" data-name="Rectángulo 24338" d="M2.564,0h41.48a2.564,2.564,0,0,1,2.564,2.564V30.809a2.563,2.563,0,0,1-2.563,2.563H2.564A2.564,2.564,0,0,1,0,30.809V2.564A2.564,2.564,0,0,1,2.564,0Z" fill="#af5a51"/>
                    <path id="Trazado_103942" data-name="Trazado 103942" d="M-13.87,314.331v-10.4a3.37,3.37,0,0,1,3.451-3.263h39.7a3.372,3.372,0,0,1,3.453,3.263v10.4Z" transform="translate(13.87 -298.021)" fill="#a04740"/>
                    <path id="Trazado_103943" data-name="Trazado 103943" d="M-13.87,313.158v-11a3.461,3.461,0,0,1,3.451-3.451h39.7a3.462,3.462,0,0,1,3.453,3.451v11Z" transform="translate(13.87 -298.702)" fill="#af5a51"/>
                  </g>
                </g>
                <path id="Trazado_103944" data-name="Trazado 103944" d="M-1.16,293.912v-3.7a3.807,3.807,0,0,1,3.795-3.8H7.379a3.807,3.807,0,0,1,3.795,3.8v4.428c0,.034-.008.066-.009.1v3.105A1.369,1.369,0,0,1,9.8,299.211H9.582a1.366,1.366,0,0,1-1.263-.859,1.422,1.422,0,0,1-1.413,1.363h-.36a1.41,1.41,0,0,1-1.357-1.091A1.414,1.414,0,0,1,3.8,299.893h-.36a1.418,1.418,0,0,1-1.4-1.32,1.423,1.423,0,0,1-1.415,1.379H.258a1.429,1.429,0,0,1-1.425-1.425v-4.583C-1.167,293.934-1.16,293.923-1.16,293.912Z" transform="translate(18.274 -282.929)" fill="#fc927a"/>
              </g>
              <path id="Trazado_103945" data-name="Trazado 103945" d="M.4,298.413h0a1.57,1.57,0,0,1-1.565-1.565V292.9A1.57,1.57,0,0,1,.4,291.339h0A1.569,1.569,0,0,1,1.964,292.9v3.944A1.569,1.569,0,0,1,.4,298.413Z" transform="translate(18.275 -281.223)" fill="#fc927a"/>
              <rect id="Rectángulo_24339" data-name="Rectángulo 24339" width="3.322" height="7.074" rx="1.197" transform="translate(20.311 9.936)" fill="#fc927a"/>
              <rect id="Rectángulo_24340" data-name="Rectángulo 24340" width="3.322" height="7.074" rx="1.197" transform="translate(23.332 9.756)" fill="#fc927a"/>
            </g>
            <rect id="Rectángulo_24341" data-name="Rectángulo 24341" width="2.973" height="6.023" rx="1.045" transform="translate(26.497 10.483)" fill="#fc927a"/>
          </g>
          <path id="Trazado_103946" data-name="Trazado 103946" d="M8.517,221.951,5.352,270.859-.977,306.246l12.371.288,5.9-33.229Z" transform="translate(194.567 -155.47)" fill="#ef8989"/>
          <g id="Grupo_84811" data-name="Grupo 84811" transform="translate(138.639 97.304)">
            <path id="Trazado_103947" data-name="Trazado 103947" d="M-10.021,247.641c-.941.141-7.017-.4-7.017-.4s-4.471-1.788-6.446-1.883l-13.6,9.46-.047,2.4s-.141,1.93,2.541,2.024c0,0,.141,2.447,3.247,2.4,0,0-.094,2.353,3.342,1.318,0,0,1.081,1.788,3.717.189l9.272-5.695,7.87.469Z" transform="translate(43.394 -244.659)" fill="#fc927a"/>
            <path id="Trazado_103948" data-name="Trazado 103948" d="M-38.186,247.247l4.642.226a46.83,46.83,0,0,1,6.259-2.541,4.417,4.417,0,0,1,1.976.047l3.859.611a2.179,2.179,0,0,1,1.741,1.554l1.224,3.011S-18.3,251-19.8,251c0,0-3.2-.423-4.282-2.353,0,0-1.977.189-5.224,2.918,0,0-4.988,3.2-6.212,5.835l-1.036-.47-5.226.023Z" transform="translate(41.783 -244.84)" fill="#ef746f"/>
            <rect id="Rectángulo_24342" data-name="Rectángulo 24342" width="3.859" height="2.729" rx="0.839" transform="translate(24.794 14.231) rotate(-36.9)" fill="#fc927a"/>
            <rect id="Rectángulo_24343" data-name="Rectángulo 24343" width="3.859" height="2.73" rx="0.839" transform="translate(21.562 15.426) rotate(-25.912)" fill="#fc927a"/>
            <path id="Rectángulo_24344" data-name="Rectángulo 24344" d="M.839,0H3.02a.839.839,0,0,1,.839.839V1.891a.838.838,0,0,1-.838.838H.839A.839.839,0,0,1,0,1.891V.839A.839.839,0,0,1,.839,0Z" transform="matrix(0.899, -0.437, 0.437, 0.899, 18.362, 17.466)" fill="#fc927a"/>
            <path id="Rectángulo_24345" data-name="Rectángulo 24345" d="M.713,0H2.568a.714.714,0,0,1,.714.714v.895a.713.713,0,0,1-.713.713H.714A.714.714,0,0,1,0,1.608V.713A.713.713,0,0,1,.713,0Z" transform="translate(15.835 18.566) rotate(-12.301)" fill="#fc927a"/>
          </g>
          <g id="Grupo_84814" data-name="Grupo 84814" transform="translate(170.43)">
            <path id="Trazado_103949" data-name="Trazado 103949" d="M57.454,271.884S72.644,341.1,81.714,432.479l-11.134-.826L35.874,315.785,29.9,434.54l-12.1-1.787S2.988,277.164,10.663,269.491Z" transform="translate(27.406 -138.991)" fill="#2f364c"/>
            <path id="Trazado_103950" data-name="Trazado 103950" d="M26.266,419.8s5.58-99.4,5.58-110.565l-7.324-20.84.261,7.063-4.708-4.969,4.708,10.986,1.461,118.315Z" transform="translate(31.434 -132.439)" fill="#1f2433"/>
            <path id="Trazado_103951" data-name="Trazado 103951" d="M42.235,208.171c-2.691-3.05,8.967-1.667,20.69,6.359,0,0,10.816,5.967,2.623,25.57,0,0-8.344,27.431-3.276,46.183,0,0,4.635,9.483-4.157,12.608,0,0-30.072,7.005-48.993-2.118,0,0-3.065-2.467-1.4-11.748,0,0-3.64-18.555-2.611-47.743,0,0-1.491-29.466,26.3-29.278Z" transform="translate(26.183 -160.764)" fill="#ff9f9f"/>
            <path id="Trazado_103952" data-name="Trazado 103952" d="M38.657,195.966l.959,17.914s-10.477,5.594-16.417.465l1.31-15.9Z" transform="translate(32.516 -164.477)" fill="#fc927a"/>
            <path id="Trazado_103953" data-name="Trazado 103953" d="M23.892,203.893l-.234,3.936s14.469-5.2,14.469-10.85l-11.7,3.19Z" transform="translate(32.675 -164.125)" fill="#ef746f"/>
            <g id="Grupo_84813" data-name="Grupo 84813" transform="translate(40.488)">
              <g id="Grupo_84812" data-name="Grupo 84812" transform="translate(5.136 4.541)">
                <path id="Trazado_103954" data-name="Trazado 103954" d="M36.2,202.048l-.259-.027a3.144,3.144,0,0,1-2.79-3.443L34.277,187.9a3.142,3.142,0,0,1,3.443-2.789l.259.027a3.141,3.141,0,0,1,2.789,3.443l-1.12,10.677A3.142,3.142,0,0,1,36.2,202.048Z" transform="translate(-9.663 -172.786)" fill="#004161"/>
                <path id="Trazado_103955" data-name="Trazado 103955" d="M24.428,211.7c2.937.114,11.065-2.915,13.353-4,0,0,4.488-1.512,4.591-9.451,0,0,.986.619,1.85-1.433.024-.124.054-.246.077-.369l1.473-4.892c1.06-5.656-2.246-11.067-7.347-12.024l-4.1-.769a7.136,7.136,0,0,0-4.21-2.7c-2.93-.549-5.959,1.069-8.445,4.083-.137.155.319-1.582-1.2-1.322-3.387.583-4.688,6.725-4.763,12.035-.125,8.8,3.15,19.79,7.608,20.708Z" transform="translate(-15.705 -175.954)" fill="#fc927a"/>
                <path id="Trazado_103956" data-name="Trazado 103956" d="M38.721,191.641c-.68,2.409-2.285,4.065-3.582,3.7s-1.8-2.618-1.116-5.028,2.285-4.065,3.583-3.7S39.4,189.231,38.721,191.641Z" transform="translate(-9.462 -172.277)" fill="#fc927a"/>
              </g>
              <path id="Trazado_103957" data-name="Trazado 103957" d="M28.934,184.176s-17.862,12.1-13.565-1.462c0,0-16.926-15.952,23.9-7.824,0,0,20.141-3.793,7.979,21.581l-.883.032s.883-5-1.733-4.806c0,0-1.765-.065-3.27,4.251C41.359,195.949,42.928,177.768,28.934,184.176Z" transform="translate(-11.891 -172.582)" fill="#004161"/>
            </g>
            <path id="Trazado_103958" data-name="Trazado 103958" d="M25.561,213.15,39.454,204.2l5.315,5.035L31.156,222.475Z" transform="translate(33.335 -161.623)" fill="#fff"/>
            <path id="Trazado_103959" data-name="Trazado 103959" d="M27.793,212.5l-6.434,7.366-2.238-11.562,5.679-2.242A8,8,0,0,0,27.793,212.5Z" transform="translate(31.103 -160.976)" fill="#fff"/>
            <path id="Trazado_103960" data-name="Trazado 103960" d="M5.441,259.43,6.58,269.5l26.037,1.582,29.1-39.831Z" transform="translate(26.361 -152.244)" fill="#ef8989"/>
            <path id="Trazado_103961" data-name="Trazado 103961" d="M60.51,216.424,27.189,256.071l-45.364,1.709.143,12.083,53.884,3.559L75.758,228.8S80.937,206.355,60.51,216.424Z" transform="translate(18.175 -158.286)" fill="#ff9f9f"/>
          </g>
          <g id="Grupo_84821" data-name="Grupo 84821" transform="translate(0 1.531)">
            <path id="Trazado_103962" data-name="Trazado 103962" d="M-75.136,214.127s8.758,14.307,15.766,39.416L-23.02,256.9l-.462,12.355-42.58-.431-13.161-12.362Z" transform="translate(167.445 -159.712)" fill="#5f4b75"/>
            <path id="Trazado_103963" data-name="Trazado 103963" d="M-105.52,271.884s-14.258,63.172-23.326,154.554l10.832,5.276L-83.94,315.785l5.722,114.65,10.953,3.469s16.211-156.741,8.536-164.414Z" transform="translate(150.244 -140.521)" fill="#404066"/>
            <path id="Trazado_103964" data-name="Trazado 103964" d="M-89.919,419.8s-5.58-99.4-5.58-110.565l7.324-20.84-.261,7.063,4.708-4.969-4.708,10.986L-89.9,419.787Z" transform="translate(161.803 -133.969)" fill="#313154"/>
            <path id="Trazado_103965" data-name="Trazado 103965" d="M-92.524,208.171c2.689-3.05-8.967-1.667-20.69,6.359,0,0-10.816,5.967-2.623,25.57,0,0,8.344,27.431,3.276,46.183,0,0-9.412-.427.978,7.133,0,0-11.857.576,3.179,5.475,0,0,30.072,7.005,48.993-2.118,0,0,9.281-6.658,1.678-6.573,0,0,5.971-5.513-.28-5.175,0,0,3.641-18.555,2.611-47.743,0,0,1.492-29.466-26.3-29.278Z" transform="translate(153.69 -162.295)" fill="#e7f0f2"/>
            <path id="Trazado_103966" data-name="Trazado 103966" d="M-101.113,195.966l-.959,17.914s10.477,5.594,16.417.465l-1.31-15.9Z" transform="translate(159.524 -166.007)" fill="#fc927a"/>
            <path id="Trazado_103967" data-name="Trazado 103967" d="M-86.85,203.893l.234,3.936s-14.469-5.2-14.469-10.85l11.7,3.19Z" transform="translate(159.867 -165.656)" fill="#ef746f"/>
            <g id="Grupo_84816" data-name="Grupo 84816" transform="translate(49.839)">
              <g id="Grupo_84815" data-name="Grupo 84815" transform="translate(2.692 3.011)">
                <path id="Rectángulo_24346" data-name="Rectángulo 24346" d="M2.328,0H4.2A2.326,2.326,0,0,1,6.527,2.326V14.677A2.327,2.327,0,0,1,4.2,17H2.323A2.323,2.323,0,0,1,0,14.68V2.328A2.328,2.328,0,0,1,2.328,0Z" transform="translate(0 12.677) rotate(-5.967)" fill="#561d13"/>
                <path id="Trazado_103968" data-name="Trazado 103968" d="M-83.32,211.7c-2.937.114-11.067-2.915-13.353-4,0,0-4.488-1.512-4.592-9.451,0,0-.984.619-1.849-1.433-.024-.124-.054-.246-.077-.369l-1.473-4.892c-1.06-5.656,2.246-11.067,7.347-12.024l4.1-.769a7.136,7.136,0,0,1,4.21-2.7c2.93-.549,5.959,1.069,8.445,4.083.137.155-.319-1.582,1.2-1.322,3.387.583,4.688,6.725,4.763,12.035.125,8.8-3.151,19.79-7.608,20.708Z" transform="translate(106.026 -175.954)" fill="#fc927a"/>
                <path id="Trazado_103969" data-name="Trazado 103969" d="M-104.038,191.641c.681,2.409,2.287,4.065,3.583,3.7s1.8-2.618,1.116-5.028-2.285-4.065-3.583-3.7S-104.718,189.231-104.038,191.641Z" transform="translate(106.207 -172.277)" fill="#fc927a"/>
              </g>
              <path id="Trazado_103970" data-name="Trazado 103970" d="M-85.511,183.782s16.239,6.841,14.009-3.66c0,0-4.675-9.061-24.342-5.626,0,0-20.141-3.793-7.977,21.581l.882.032s-.882-5,1.733-4.806c0,0,1.765-.065,3.27,4.251C-97.936,195.555-99.5,177.374-85.511,183.782Z" transform="translate(107.726 -173.719)" fill="#561d13"/>
            </g>
            <path id="Trazado_103971" data-name="Trazado 103971" d="M-87.3,213.15l-13.894-8.952-5.315,5.035,13.614,13.241Z" transform="translate(157.987 -163.154)" fill="#fff"/>
            <path id="Trazado_103972" data-name="Trazado 103972" d="M-92.243,212.5l6.434,7.366,2.238-11.562-5.679-2.242A8,8,0,0,1-92.243,212.5Z" transform="translate(162.931 -162.507)" fill="#fff"/>
            <path id="Trazado_103973" data-name="Trazado 103973" d="M-101.024,207.937s16.961,49.654,5.454,96.262c0,0-5.754,18.412-26.756,10.069L-113.7,273.7l-7.479-45.744S-125.538,212.587-101.024,207.937Z" transform="translate(152.504 -161.858)" fill="#705a84"/>
            <path id="Trazado_103974" data-name="Trazado 103974" d="M-103.849,207.651a194.391,194.391,0,0,1,9.494,62.412s-10.357-46.284-20.066-59.015C-114.421,211.049-108.057,207.49-103.849,207.651Z" transform="translate(155.244 -161.959)" fill="#5f4b75"/>
            <rect id="Rectángulo_24347" data-name="Rectángulo 24347" width="13.378" height="2.157" transform="translate(42.117 124.072)" fill="#5f4b75"/>
            <path id="Trazado_103975" data-name="Trazado 103975" d="M-85.847,208.2s22.513,13.053,12.443,91.02c0,0-.287,12.37,9.207,13.521,0,0,5.754-86.6-9.782-99.831A31,31,0,0,0-85.847,208.2Z" transform="translate(165.148 -161.767)" fill="#705a84"/>
            <path id="Trazado_103976" data-name="Trazado 103976" d="M-85.94,208.131S-69.416,220.2-70.854,265.94c0,0,5.826-31.432-3.093-53.009C-73.947,212.932-79.467,208.633-85.94,208.131Z" transform="translate(165.116 -161.79)" fill="#5f4b75"/>
            <path id="Trazado_103977" data-name="Trazado 103977" d="M-104.408,307.839a3.52,3.52,0,0,0-.933-.935,3.477,3.477,0,0,0-.587-.319,3.423,3.423,0,0,0-1.34-.272h-9.53c-1.2,7.579-3.489,21.176-5.3,33.375l14.834,0a3.461,3.461,0,0,0,3.451-3.451V309.764A3.426,3.426,0,0,0-104.408,307.839Z" transform="translate(152.581 -127.758)" fill="#313154"/>
            <g id="Grupo_84820" data-name="Grupo 84820" transform="translate(0 156.492)">
              <rect id="Rectángulo_24348" data-name="Rectángulo 24348" width="8.415" height="5.394" transform="translate(19.083)" fill="#fc927a"/>
              <path id="Trazado_103978" data-name="Trazado 103978" d="M-122.828,294.8s1.869,3.524,1.763,5.718l-2.3-.648Z" transform="translate(152.143 -288.24)" fill="#fc927a"/>
              <g id="Grupo_84819" data-name="Grupo 84819" transform="translate(0 11.239)">
                <g id="Grupo_84817" data-name="Grupo 84817" transform="translate(13.019)">
                  <path id="Trazado_103979" data-name="Trazado 103979" d="M-119.677,318.7H-129.89a5.183,5.183,0,0,1-5.178-5.179V303.454a5.183,5.183,0,0,1,5.178-5.179h10.213a5.184,5.184,0,0,1,5.179,5.179v10.067A5.184,5.184,0,0,1-119.677,318.7Zm-10.213-16.973a1.727,1.727,0,0,0-1.726,1.726v10.067a1.727,1.727,0,0,0,1.726,1.726h10.213a1.727,1.727,0,0,0,1.726-1.726V303.454a1.727,1.727,0,0,0-1.726-1.726Z" transform="translate(135.068 -298.275)" fill="#af5a51"/>
                </g>
                <g id="Grupo_84818" data-name="Grupo 84818" transform="translate(0 8.773)">
                  <rect id="Rectángulo_24349" data-name="Rectángulo 24349" width="46.607" height="33.373" rx="2.564" transform="translate(0 0)" fill="#af5a51"/>
                  <path id="Trazado_103980" data-name="Trazado 103980" d="M-98.129,323.339V310.715a3.744,3.744,0,0,0-3.451-3.962h-39.7a3.745,3.745,0,0,0-3.453,3.962v12.625Z" transform="translate(144.736 -304.11)" fill="#a04740"/>
                  <path id="Trazado_103981" data-name="Trazado 103981" d="M-98.129,319.247v-11a3.462,3.462,0,0,0-3.451-3.453h-39.7a3.463,3.463,0,0,0-3.453,3.453v11Z" transform="translate(144.736 -304.79)" fill="#af5a51"/>
                  <rect id="Rectángulo_24350" data-name="Rectángulo 24350" width="6.185" height="6.185" transform="translate(20.211 11.94)" fill="url(#linear-gradient)"/>
                  <rect id="Rectángulo_24351" data-name="Rectángulo 24351" width="1.546" height="5.035" transform="translate(20.833 12.444)" fill="#ffd371"/>
                </g>
              </g>
              <path id="Trazado_103982" data-name="Trazado 103982" d="M-119.659,300v-3.7a3.806,3.806,0,0,0-3.795-3.795H-128.2a3.807,3.807,0,0,0-3.8,3.795v4.428c0,.035.009.067.011.1v3.105a1.371,1.371,0,0,0,1.365,1.365h.217a1.365,1.365,0,0,0,1.263-.86,1.423,1.423,0,0,0,1.413,1.364h.36a1.41,1.41,0,0,0,1.357-1.091,1.414,1.414,0,0,0,1.392,1.268h.36a1.419,1.419,0,0,0,1.4-1.32,1.422,1.422,0,0,0,1.415,1.379h.36a1.429,1.429,0,0,0,1.425-1.425v-4.583C-119.652,300.023-119.659,300.012-119.659,300Z" transform="translate(149.153 -289.036)" fill="#fc927a"/>
            </g>
            <path id="Trazado_103983" data-name="Trazado 103983" d="M-115,214.838s-4.891-.144-16.4,54.374l-.863,49.2h13.379l3.165-46.607,10.357-31.359S-101.189,209.659-115,214.838Z" transform="translate(149.06 -159.669)" fill="#705a84"/>
          </g>
          <path id="Trazado_103984" data-name="Trazado 103984" d="M-91.292,194.839c.013,2.517,1.475,4.525,4.834,4.783a4.069,4.069,0,0,0,3.9-3.617Z" transform="translate(163.261 -164.867)" fill="#fff"/>
          <path id="Trazado_103985" data-name="Trazado 103985" d="M27.07,195.026c-.013,2.517-1.475,4.525-4.834,4.783a4.071,4.071,0,0,1-3.9-3.617Z" transform="translate(201.26 -164.802)" fill="#fff"/>
        </g>
        <path id="Trazado_103986" data-name="Trazado 103986" d="M-92.193,392.061a15.2,15.2,0,0,1,2.437-6.013c.874-.6.856-.049.874,1.682.035,3.231,7.051,4.088,7,.875-.075-4.846,1.313-2.995,1.313-2.995l1.833,1.034a.664.664,0,0,1,.77-.189.669.669,0,0,1,.364.83l.544.307a.666.666,0,0,1,.774-.2.667.667,0,0,1,.362.835l.656.372a.666.666,0,0,1,.8-.232.676.676,0,0,1,.353.882l3.738,2.109s9.6.37,9.564,7.268c0,0,.935.606-.026,1.818H-92.783S-94.254,394.563-92.193,392.061Z" transform="translate(162.568 -98.861)" fill="#404066"/>
        <path id="Trazado_103987" data-name="Trazado 103987" d="M-132.175,399.08c-.005-.151-.02-.3-.02-.451a10.781,10.781,0,0,1,3.659-8.166.8.8,0,0,1,.386-1.01c.162-.078.322-.139.482-.207a3.633,3.633,0,0,1-.116-.9c0-2.39,2.344-4.325,5.238-4.325s5.24,1.935,5.24,4.325a3.66,3.66,0,0,1-.1.859c.329.131.535.23.575.25a.808.808,0,0,1,.362,1.079,10.791,10.791,0,0,1,3.578,8.093c0,.152-.015.3-.023.451a.9.9,0,0,1,.817.89.911.911,0,0,1-.908.909h-19.076a.912.912,0,0,1-.909-.909A.9.9,0,0,1-132.175,399.08Z" transform="translate(148.807 -99.291)" fill="#404066"/>
        <path id="Trazado_103988" data-name="Trazado 103988" d="M33.454,392.061a15.2,15.2,0,0,0-2.437-6.013c-.875-.6-.858-.049-.875,1.682-.034,3.231-7.05,4.088-7,.875.077-4.846-1.313-2.995-1.313-2.995L20,386.645a.661.661,0,0,0-1.134.641l-.544.307a.661.661,0,0,0-1.137.64l-.656.372a.666.666,0,0,0-.8-.232.676.676,0,0,0-.353.882l-3.738,2.109s-9.6.37-9.565,7.268c0,0-.933.606.026,1.818H34.043S35.513,394.563,33.454,392.061Z" transform="translate(195.482 -98.861)" fill="#2f364c"/>
        <path id="Trazado_103989" data-name="Trazado 103989" d="M70.347,399.08c.007-.151.022-.3.022-.451a10.781,10.781,0,0,0-3.659-8.166.8.8,0,0,0-.388-1.01c-.162-.078-.32-.139-.481-.207a3.633,3.633,0,0,0,.116-.9c0-2.39-2.346-4.325-5.238-4.325s-5.24,1.935-5.24,4.325a3.659,3.659,0,0,0,.1.859c-.329.131-.535.23-.575.25a.805.805,0,0,0-.362,1.079,10.791,10.791,0,0,0-3.578,8.093c0,.152.015.3.022.451a.9.9,0,0,0-.817.89.912.912,0,0,0,.909.909H70.256a.911.911,0,0,0,.908-.909A.9.9,0,0,0,70.347,399.08Z" transform="translate(212.331 -99.291)" fill="#2f364c"/>
      </g>
      <rect id="Rectángulo_24352" data-name="Rectángulo 24352" width="27.413" height="27.414" rx="2.889" transform="translate(-169.765 254.458)" fill="#8cf"/>
      <rect id="Rectángulo_24353" data-name="Rectángulo 24353" width="34.411" height="34.412" rx="3.627" transform="translate(51.469 162.109) rotate(18.756)" fill="#ff7676"/>
      <rect id="Rectángulo_24354" data-name="Rectángulo 24354" width="21.301" height="21.301" rx="2.245" transform="translate(165.574 191.471) rotate(61.536)" fill="#ffc32e"/>
      <rect id="Rectángulo_24355" data-name="Rectángulo 24355" width="20.648" height="20.648" rx="2.176" transform="translate(-142.515 300.625) rotate(-35.7)" fill="#fc6e35"/>
      <path id="Rectángulo_24356" data-name="Rectángulo 24356" d="M1.7,0H14.418a1.7,1.7,0,0,1,1.7,1.7V14.418a1.7,1.7,0,0,1-1.7,1.7H1.7a1.7,1.7,0,0,1-1.7-1.7V1.7A1.7,1.7,0,0,1,1.7,0Z" transform="translate(175.889 255.831) rotate(-105.84)" fill="#fc6e35"/>
    </g>
  </g>
</svg>
