<svg xmlns="http://www.w3.org/2000/svg" width="307.651" height="251.915" viewBox="0 0 307.651 251.915">
  <g id="Grupo_84871" data-name="Grupo 84871" transform="translate(-681.445 -322.313)">
    <path id="Trazado_104448" data-name="Trazado 104448" d="M985.75,439.627c12.595,37.49-8.1,144.717-101.154,133.828-26.7-3.124-55.389-31.26-77.942-26.277s-34.179,27.4-75.679,18.469-49.3-47.784-38.908-76.118-13.448-38.277-10.34-62.642c2.843-22.285,34.416-26.133,49.736-43.142s22.851-51.054,55.425-50.248c36.29.9,32.612,46.568,81.572,41.555C922.566,369.511,969.864,392.343,985.75,439.627Z" fill="#b4e8ff"/>
    <g id="Grupo_84857" data-name="Grupo 84857">
      <path id="Trazado_104449" data-name="Trazado 104449" d="M882.812,563.134a6.123,6.123,0,0,1-6.2,6.038l-135.626,1.484a6.123,6.123,0,0,1-6.328-5.9l-1.937-177.037a6.13,6.13,0,0,1,6.2-6.043l135.626-1.484a6.129,6.129,0,0,1,6.333,5.907l1.936,177.037Z" fill="#314572"/>
      <path id="Trazado_104450" data-name="Trazado 104450" d="M873.346,556.873a1.424,1.424,0,0,1-1.444,1.4l-126.449,1.383a1.423,1.423,0,0,1-1.475-1.371l-1.812-165.642a1.427,1.427,0,0,1,1.445-1.4l126.448-1.383a1.429,1.429,0,0,1,1.475,1.371Z" fill="#fff"/>
      <path id="Trazado_104451" data-name="Trazado 104451" d="M819.46,377.66a12.569,12.569,0,0,0,.927-4.855c-.079-7.263-6.325-13.076-13.931-12.993s-13.724,6.031-13.644,13.295a12.565,12.565,0,0,0,1.026,4.833l-28.053.307L766.012,399l80.773-.884-.227-20.754Zm-12.741,1.068a6.211,6.211,0,1,1,6.446-6.281A6.368,6.368,0,0,1,806.719,378.728Z" fill="#729edb"/>
      <g id="Grupo_84856" data-name="Grupo 84856">
        <g id="Grupo_84846" data-name="Grupo 84846">
          <path id="Trazado_104452" data-name="Trazado 104452" d="M762.558,423.337l.156,20.058,20.058-.156-.156-20.059Zm2.564,17.612-.119-15.2,15.205-.119.118,15.2Z" fill="#f4bb44"/>
          <rect id="Rectángulo_24359" data-name="Rectángulo 24359" width="24.765" height="3.036" transform="matrix(1, -0.008, 0.008, 1, 787.5, 426.239)" fill="#cec5cd"/>
          <g id="Grupo_84844" data-name="Grupo 84844">
            <rect id="Rectángulo_24360" data-name="Rectángulo 24360" width="67.88" height="2.321" transform="matrix(1, -0.008, 0.008, 1, 787.552, 432.977)" fill="#cec5cd"/>
            <rect id="Rectángulo_24361" data-name="Rectángulo 24361" width="13.048" height="2.321" transform="matrix(1, -0.008, 0.008, 1, 822.886, 432.701)" fill="#cec5cd"/>
            <rect id="Rectángulo_24362" data-name="Rectángulo 24362" width="17.137" height="2.321" transform="matrix(1, -0.008, 0.008, 1, 838.294, 432.58)" fill="#cec5cd"/>
          </g>
          <g id="Grupo_84845" data-name="Grupo 84845">
            <rect id="Rectángulo_24363" data-name="Rectángulo 24363" width="53.797" height="2.321" transform="matrix(1, -0.008, 0.008, 1, 787.595, 438.391)" fill="#cec5cd"/>
            <rect id="Rectángulo_24364" data-name="Rectángulo 24364" width="25.361" height="2.321" transform="matrix(1, -0.008, 0.008, 1, 821.091, 438.129)" fill="#cec5cd"/>
          </g>
          <path id="Trazado_104453" data-name="Trazado 104453" d="M778.462,430.595l-1.687-1.66-4.709,4.784-3.431-3.378-1.66,1.687,3.431,3.378-.019.019,1.687,1.66.019-.019.019.019,1.66-1.687-.019-.019Z" fill="#f4bb44"/>
        </g>
        <g id="Grupo_84849" data-name="Grupo 84849">
          <path id="Trazado_104454" data-name="Trazado 104454" d="M762.764,449.7l.156,20.058,20.058-.157-.156-20.058Zm2.564,17.612-.119-15.2,15.205-.118.118,15.2Z" fill="#f0b644"/>
          <rect id="Rectángulo_24365" data-name="Rectángulo 24365" width="24.765" height="3.036" transform="matrix(1, -0.008, 0.008, 1, 787.706, 452.606)" fill="#cec5cd"/>
          <g id="Grupo_84847" data-name="Grupo 84847">
            <rect id="Rectángulo_24366" data-name="Rectángulo 24366" width="67.88" height="2.321" transform="matrix(1, -0.008, 0.008, 1, 787.758, 459.344)" fill="#cec5cd"/>
            <rect id="Rectángulo_24367" data-name="Rectángulo 24367" width="13.048" height="2.321" transform="matrix(1, -0.008, 0.008, 1, 823.092, 459.068)" fill="#cec5cd"/>
            <rect id="Rectángulo_24368" data-name="Rectángulo 24368" width="17.137" height="2.321" transform="matrix(1, -0.008, 0.008, 1, 838.5, 458.948)" fill="#cec5cd"/>
          </g>
          <g id="Grupo_84848" data-name="Grupo 84848">
            <rect id="Rectángulo_24369" data-name="Rectángulo 24369" width="53.797" height="2.321" transform="matrix(1, -0.008, 0.008, 1, 787.8, 464.759)" fill="#cec5cd"/>
            <rect id="Rectángulo_24370" data-name="Rectángulo 24370" width="25.361" height="2.321" transform="matrix(1, -0.008, 0.008, 1, 821.297, 464.497)" fill="#cec5cd"/>
          </g>
          <path id="Trazado_104455" data-name="Trazado 104455" d="M778.668,456.962l-1.687-1.66-4.709,4.784-3.431-3.378-1.66,1.687,3.431,3.378-.019.019,1.687,1.66.019-.019.019.019,1.66-1.687-.019-.019Z" fill="#f0b644"/>
        </g>
        <g id="Grupo_84852" data-name="Grupo 84852">
          <path id="Trazado_104456" data-name="Trazado 104456" d="M762.975,476.743l.156,20.058,20.059-.156-.157-20.059Zm2.564,17.612-.119-15.2,15.205-.119.119,15.2Z" fill="#f4bb44"/>
          <rect id="Rectángulo_24371" data-name="Rectángulo 24371" width="24.765" height="3.036" transform="matrix(1, -0.008, 0.008, 1, 787.917, 479.645)" fill="#cec5cd"/>
          <g id="Grupo_84850" data-name="Grupo 84850">
            <rect id="Rectángulo_24372" data-name="Rectángulo 24372" width="67.88" height="2.321" transform="matrix(1, -0.008, 0.008, 1, 787.969, 486.383)" fill="#cec5cd"/>
            <rect id="Rectángulo_24373" data-name="Rectángulo 24373" width="13.048" height="2.321" transform="matrix(1, -0.008, 0.008, 1, 823.304, 486.107)" fill="#cec5cd"/>
            <rect id="Rectángulo_24374" data-name="Rectángulo 24374" width="17.137" height="2.321" transform="matrix(1, -0.008, 0.008, 1, 838.711, 485.986)" fill="#cec5cd"/>
          </g>
          <g id="Grupo_84851" data-name="Grupo 84851">
            <rect id="Rectángulo_24375" data-name="Rectángulo 24375" width="53.797" height="2.321" transform="matrix(1, -0.008, 0.008, 1, 788.012, 491.797)" fill="#cec5cd"/>
            <rect id="Rectángulo_24376" data-name="Rectángulo 24376" width="25.361" height="2.321" transform="matrix(1, -0.008, 0.008, 1, 821.508, 491.535)" fill="#cec5cd"/>
          </g>
          <path id="Trazado_104457" data-name="Trazado 104457" d="M778.879,484l-1.687-1.66-4.709,4.784-3.431-3.378-1.66,1.687,3.431,3.378-.019.019,1.687,1.66.019-.019.019.019,1.66-1.687-.019-.019Z" fill="#f4bb44"/>
        </g>
        <g id="Grupo_84855" data-name="Grupo 84855">
          <path id="Trazado_104458" data-name="Trazado 104458" d="M763.342,504.43l.156,20.058,20.059-.156-.157-20.059Zm2.564,17.612-.118-15.2,15.2-.119.119,15.2Z" fill="#f4bb44"/>
          <rect id="Rectángulo_24377" data-name="Rectángulo 24377" width="24.765" height="3.036" transform="matrix(1, -0.008, 0.008, 1, 788.284, 507.332)" fill="#cec5cd"/>
          <g id="Grupo_84853" data-name="Grupo 84853">
            <rect id="Rectángulo_24378" data-name="Rectángulo 24378" width="67.88" height="2.321" transform="matrix(1, -0.008, 0.008, 1, 788.336, 514.07)" fill="#cec5cd"/>
            <rect id="Rectángulo_24379" data-name="Rectángulo 24379" width="13.048" height="2.321" transform="matrix(1, -0.008, 0.008, 1, 823.671, 513.794)" fill="#cec5cd"/>
            <rect id="Rectángulo_24380" data-name="Rectángulo 24380" width="17.137" height="2.321" transform="matrix(1, -0.008, 0.008, 1, 839.078, 513.673)" fill="#cec5cd"/>
          </g>
          <g id="Grupo_84854" data-name="Grupo 84854">
            <rect id="Rectángulo_24381" data-name="Rectángulo 24381" width="53.797" height="2.321" transform="matrix(1, -0.008, 0.008, 1, 788.379, 519.484)" fill="#cec5cd"/>
            <rect id="Rectángulo_24382" data-name="Rectángulo 24382" width="25.361" height="2.321" transform="matrix(1, -0.008, 0.008, 1, 821.875, 519.222)" fill="#cec5cd"/>
          </g>
          <path id="Trazado_104459" data-name="Trazado 104459" d="M779.246,511.688l-1.687-1.66-4.709,4.783-3.431-3.378-1.66,1.687,3.431,3.378-.019.019,1.687,1.66.019-.019.019.019,1.66-1.687-.019-.019Z" fill="#f4bb44"/>
        </g>
      </g>
    </g>
    <g id="Grupo_84867" data-name="Grupo 84867">
      <path id="Trazado_104460" data-name="Trazado 104460" d="M904.39,550.219c4.057-8.09,6.99-20.359,8.005-34.585,6.466-9.954,10.963-25.412,11.99-43.182H905.923q-1.086,6.3-2.035,12.854c-3.533,24.468-4.9,47.158-4.317,64.913Z" fill="#1e2d54"/>
      <path id="Trazado_104461" data-name="Trazado 104461" d="M939.646,509.7a124.349,124.349,0,0,0,1.229-17.618,122.358,122.358,0,0,0-1.631-20.186H914.523c2.672,12.04,7.591,26.74,14.384,42.028,6.706,15.094,14.128,28.256,21.059,37.967l4.786-2.553a119.928,119.928,0,0,0-5.5-19.675A114.7,114.7,0,0,0,939.646,509.7Z" fill="#153f5e"/>
      <g id="Grupo_84861" data-name="Grupo 84861">
        <g id="Grupo_84860" data-name="Grupo 84860">
          <g id="Grupo_84858" data-name="Grupo 84858">
            <path id="Trazado_104462" data-name="Trazado 104462" d="M909.644,437.628a38.775,38.775,0,0,0,2.151-4.455l-9.867-5.6a37.49,37.49,0,0,0-2.152,3.342,34.66,34.66,0,0,0-3.423,8.165c-.714-.2-1.437-.385-2.18-.564-9.751-2.35-18.03-2.406-18.491-.125s7.069,6.037,16.82,8.387c.595.144,4.822,2.061,7.033,1.622S905.5,444.977,909.644,437.628Z" fill="#ea9f87"/>
          </g>
          <g id="Grupo_84859" data-name="Grupo 84859">
            <path id="Trazado_104463" data-name="Trazado 104463" d="M877.415,434.96s-.468-.93-1.047-.1c-.679.976-1.655,1.069-2.515-.114a20.579,20.579,0,0,1-1.86-2.958c-.174-.9-.76-1.017-.9-.511a6.917,6.917,0,0,0,1.4,6.161c1.7,2.344,3.457,3.46,4.766,2.326C878.3,438.866,878.307,436.9,877.415,434.96Z" fill="#ea9f87"/>
          </g>
        </g>
      </g>
      <path id="Trazado_104464" data-name="Trazado 104464" d="M942.032,433.549l8.024-4.422c-.286-8.94-7.836-16.422-18.08-18.775-1.056,1.872-3.638,3.2-6.661,3.2-3.066,0-5.676-1.364-6.7-3.279-9.693,2.1-17.051,8.775-18.273,16.97l9.818,4.682c-.11,13.305-8.012,35.75-6.262,38.766,1.92,3.31,33.646,3.971,36.374,3.31s-2.094-31.372-.318-40.3Z" fill="#729edb"/>
      <g id="Grupo_84862" data-name="Grupo 84862">
        <path id="Trazado_104465" data-name="Trazado 104465" d="M952.138,432.885a41.414,41.414,0,0,0-2.266-4.782l-10.524,6.031a42.262,42.262,0,0,0,1.371,4.1,36.2,36.2,0,0,0,4.469,8.267c-.592.564-1.187,1.14-1.785,1.743-7.845,7.9-12.948,15.8-11.4,17.633s9.17-3.083,17.016-10.985c.478-.482,4.6-3.36,5.6-5.745S955.514,441.339,952.138,432.885Z" fill="#efb495"/>
        <path id="Trazado_104466" data-name="Trazado 104466" d="M930.3,462.121s-1.033-.119-.718.943a1.655,1.655,0,0,1-1.629,2.339,18.358,18.358,0,0,1-3.513-.026c-.83-.383-1.282.107-.962.552,1.1,1.534,2.884,2.621,5.808,2.421s4.892-1.2,4.78-3.143C933.983,463.662,932.412,462.455,930.3,462.121Z" fill="#efb495"/>
      </g>
      <g id="Grupo_84864" data-name="Grupo 84864">
        <path id="Trazado_104467" data-name="Trazado 104467" d="M930.948,412.621a12.739,12.739,0,0,1-12.02-.393,9.473,9.473,0,0,0,1.173-4.7,8.626,8.626,0,0,0-2.066-5.911v-3.068h7.542A23.167,23.167,0,0,0,930.948,412.621Z" fill="#ea9f86"/>
        <g id="Grupo_84863" data-name="Grupo 84863">
          <path id="Trazado_104468" data-name="Trazado 104468" d="M916.415,395.392c.688-3.777,4.492-3.091,7.266-2.491,1.782.385,3.325,1.008,3.995,3.235.4-.366.829.625,1.281.741.937.24,1.435.731,1.124,2.17s-1.316,3.282-2.252,3.042a1.206,1.206,0,0,1-.128-.055c-.326,1.152-.158,2.159-.855,2.97a8.509,8.509,0,0,1-5.743,2.489C915.405,407.569,915.727,399.169,916.415,395.392Z" fill="#ebb190"/>
          <path id="Trazado_104469" data-name="Trazado 104469" d="M913.669,390.526c.466-3.068,6.536-4.223,11.079-3.672l.909.11a7.055,7.055,0,0,1,3.684,2.314,12.05,12.05,0,0,1,2.076,7.945c-.287,3-1.993,5.059-3.4,5.128a.815.815,0,0,1-.742-.379,2.5,2.5,0,0,0,1.347-1.208c.577-1.048.479-2.241-.219-2.664a1.6,1.6,0,0,0-1.949.624c-.473-2.327-1.448-4.785-5.57-4.044C916.375,395.49,913.2,393.6,913.669,390.526Z" fill="#1c3054"/>
        </g>
      </g>
      <g id="Grupo_84865" data-name="Grupo 84865">
        <path id="Trazado_104470" data-name="Trazado 104470" d="M899.955,553.418l3.2,1.071,1.657-5.906-3.771-1.261Z" fill="#ea9f88"/>
        <path id="Trazado_104471" data-name="Trazado 104471" d="M906.434,557.745l-1.388-4.266a10.748,10.748,0,0,1-3.3.29c-1.25-.206-1.246-1.451-1.743-2.275h-1.667s-2.188,4.238-6.483,5.295h-3.217c-.75,0-1.364.984-1.364,2.187v.972H900.8l.682-1.3h.378v1.3h4.812v-.972A3.16,3.16,0,0,0,906.434,557.745Z" fill="#16415d"/>
      </g>
      <g id="Grupo_84866" data-name="Grupo 84866">
        <path id="Trazado_104472" data-name="Trazado 104472" d="M951.759,554.669l3.338-.288-.445-6.158-3.931.339Z" fill="#ea9f88"/>
        <path id="Trazado_104473" data-name="Trazado 104473" d="M959.241,556.1l-2.726-3.411a11.351,11.351,0,0,1-2.97,1.592c-1.232.308-1.647-.851-2.386-1.418l-1.551.669s-.609,4.818-4.249,7.523l-2.992,1.29c-.7.3-.938,1.462-.533,2.581l.327.9,12.581-5.422.2-1.481.353-.152.436,1.207,4.476-1.929-.327-.9A2.948,2.948,0,0,0,959.241,556.1Z" fill="#16415d"/>
      </g>
    </g>
    <g id="Grupo_84870" data-name="Grupo 84870">
      <g id="Grupo_84868" data-name="Grupo 84868">
        <path id="Trazado_104474" data-name="Trazado 104474" d="M880.377,323.2v6.78h1.466V323.2a.746.746,0,1,0-1.466,0Z" fill="#e5803c"/>
        <path id="Trazado_104475" data-name="Trazado 104475" d="M880.377,352.835a.746.746,0,1,0,1.466,0v-6.373h-1.466Z" fill="#e5803c"/>
        <path id="Trazado_104476" data-name="Trazado 104476" d="M865.407,338.016a.82.82,0,0,0,.885.733h6.78v-1.466h-6.78A.82.82,0,0,0,865.407,338.016Z" fill="#e5803c"/>
        <path id="Trazado_104477" data-name="Trazado 104477" d="M895.928,337.283h-6.372v1.466h6.372a.746.746,0,1,0,0-1.466Z" fill="#e5803c"/>
      </g>
      <g id="Grupo_84869" data-name="Grupo 84869">
        <path id="Trazado_104478" data-name="Trazado 104478" d="M870.114,328.056l4.794,4.8,1.037-1.037-4.795-4.794a.746.746,0,1,0-1.036,1.036Z" fill="#e5803c"/>
        <path id="Trazado_104479" data-name="Trazado 104479" d="M891.07,349.013a.746.746,0,1,0,1.036-1.037L887.6,343.47l-1.036,1.037Z" fill="#e5803c"/>
        <path id="Trazado_104480" data-name="Trazado 104480" d="M870.006,349.12a.82.82,0,0,0,1.144-.107l4.795-4.8-1.037-1.036-4.794,4.794A.82.82,0,0,0,870.006,349.12Z" fill="#e5803c"/>
        <path id="Trazado_104481" data-name="Trazado 104481" d="M891.07,327.02l-4.506,4.506,1.036,1.036,4.506-4.506a.746.746,0,1,0-1.036-1.036Z" fill="#e5803c"/>
      </g>
    </g>
    <circle id="Elipse_4101" data-name="Elipse 4101" cx="12.132" cy="12.132" r="12.132" transform="translate(691.364 341.707)" fill="#eaf0f9"/>
  </g>
</svg>
