<svg xmlns="http://www.w3.org/2000/svg" xmlns:xlink="http://www.w3.org/1999/xlink" width="399" height="441" viewBox="0 0 399 441">
  <defs>
    <clipPath id="clip-path">
      <path id="Trazado_110857" data-name="Trazado 110857" d="M263.661,6.435c-1.992,5.358.288,11.206,4.108,15.13a15.019,15.019,0,0,0,2.86,2.3A17.623,17.623,0,0,0,283.416,25.8a36.009,36.009,0,0,0,8.889-3.215c.554-.273,6.358-3.285,6-2.232,1.411-4.145-.33-8.9-3.468-11.954-3.451-3.358-9.7-6.228-14.574-5.546-1.8.249-3.642,1.75-5.429,1.55-1.736-.2-2.9-1.927-4.548-2.5a3.558,3.558,0,0,0-1.184-.2c-2.374,0-4.553,2.34-5.441,4.729" fill="none"/>
    </clipPath>
    <clipPath id="clip-path-2">
      <rect id="Rectángulo_34225" data-name="Rectángulo 34225" width="18.863" height="20.049" transform="translate(272.15 8.316)" fill="none"/>
    </clipPath>
    <clipPath id="clip-path-3">
      <rect id="Rectángulo_34226" data-name="Rectángulo 34226" width="21.988" height="30.614" transform="translate(260.513)" fill="none"/>
    </clipPath>
  </defs>
  <g id="Grupo_87739" data-name="Grupo 87739" transform="translate(-601 -6063)">
    <rect id="Rectángulo_24403" data-name="Rectángulo 24403" width="399" height="441" transform="translate(601 6063)" fill="none"/>
    <path id="Trazado_111575" data-name="Trazado 111575" d="M-133.594-7.222a7.789,7.789,0,0,1-1.2,3.933,7.249,7.249,0,0,1-3.083,2.644,10.5,10.5,0,0,1-4.534.938,8.375,8.375,0,0,1-6.621-2.739q-2.417-2.739-2.417-7.734v-1.055a12.91,12.91,0,0,1,1.091-5.486,8.269,8.269,0,0,1,3.142-3.633,8.767,8.767,0,0,1,4.746-1.282,9.193,9.193,0,0,1,6.24,2.043,8.074,8.074,0,0,1,2.681,5.632h-5.127a3.82,3.82,0,0,0-.981-2.8,4.037,4.037,0,0,0-2.812-.85,3.071,3.071,0,0,0-2.812,1.436,9.226,9.226,0,0,0-.937,4.585v1.509a10.209,10.209,0,0,0,.857,4.878,3.136,3.136,0,0,0,2.952,1.465,3.948,3.948,0,0,0,2.71-.835,3.544,3.544,0,0,0,1-2.651Zm11.792-4.16-1.626-.117q-2.329,0-2.988,1.465V0h-4.937V-15.85h4.629l.161,2.036a3.823,3.823,0,0,1,3.472-2.329,4.814,4.814,0,0,1,1.377.176Zm9.17,11.675a8.148,8.148,0,0,1-5.9-2.175,7.512,7.512,0,0,1-2.256-5.662v-.41a9.734,9.734,0,0,1,.9-4.292,6.592,6.592,0,0,1,2.629-2.878,7.938,7.938,0,0,1,4.1-1.018,6.861,6.861,0,0,1,5.273,2.073,8.145,8.145,0,0,1,1.934,5.779v1.919h-9.814a3.558,3.558,0,0,0,1.157,2.095,3.443,3.443,0,0,0,2.314.762,4.437,4.437,0,0,0,3.662-1.641l2.256,2.666a6.306,6.306,0,0,1-2.615,2.029A8.836,8.836,0,0,1-112.632.293Zm-.557-12.627q-2.168,0-2.578,2.871h4.98v-.381a2.445,2.445,0,0,0-.6-1.838A2.39,2.39,0,0,0-113.188-12.334ZM-95.039,0a5.574,5.574,0,0,1-.469-1.421A4.59,4.59,0,0,1-99.316.293a5.623,5.623,0,0,1-3.809-1.355,4.313,4.313,0,0,1-1.567-3.406,4.433,4.433,0,0,1,1.9-3.9,9.7,9.7,0,0,1,5.537-1.318h1.523v-.839q0-2.193-1.89-2.193a1.545,1.545,0,0,0-1.758,1.737h-4.937a4.425,4.425,0,0,1,1.956-3.731,8.218,8.218,0,0,1,4.988-1.434,7.205,7.205,0,0,1,4.79,1.479,5.144,5.144,0,0,1,1.8,4.058v7.017A7.186,7.186,0,0,0-90.1-.249V0ZM-98.13-3.223a2.754,2.754,0,0,0,1.531-.4,2.479,2.479,0,0,0,.872-.894V-7.046h-1.436q-2.578,0-2.578,2.314a1.413,1.413,0,0,0,.454,1.091A1.643,1.643,0,0,0-98.13-3.223Zm9.463-4.819a9.682,9.682,0,0,1,1.626-5.933A5.352,5.352,0,0,1-82.5-16.143a4.552,4.552,0,0,1,3.574,1.67V-22.5h4.951V0h-4.438l-.249-1.7A4.674,4.674,0,0,1-82.529.293a5.342,5.342,0,0,1-4.482-2.168A9.989,9.989,0,0,1-88.667-8.042Zm4.937.308q0,4.219,2.461,4.219a2.43,2.43,0,0,0,2.344-1.377v-6.035a2.365,2.365,0,0,0-2.314-1.406q-2.285,0-2.476,3.691Zm11.938-.337a9.355,9.355,0,0,1,.923-4.226,6.6,6.6,0,0,1,2.651-2.849,7.985,7.985,0,0,1,4.058-1,7.288,7.288,0,0,1,5.61,2.2,8.46,8.46,0,0,1,2.051,6v.176a8.208,8.208,0,0,1-2.058,5.881A7.307,7.307,0,0,1-64.131.293a7.39,7.39,0,0,1-5.435-2.029,7.935,7.935,0,0,1-2.212-5.5Zm4.937.308a5.9,5.9,0,0,0,.688,3.223,2.294,2.294,0,0,0,2.036,1.025q2.637,0,2.7-4.058v-.5q0-4.263-2.725-4.263-2.476,0-2.681,3.677Zm22.119-3.618-1.626-.117q-2.329,0-2.988,1.465V0h-4.937V-15.85h4.629l.161,2.036a3.823,3.823,0,0,1,3.472-2.329,4.814,4.814,0,0,1,1.377.176ZM-35.566.293a8.148,8.148,0,0,1-5.9-2.175,7.512,7.512,0,0,1-2.256-5.662v-.41a9.734,9.734,0,0,1,.9-4.292A6.592,6.592,0,0,1-40.2-15.125a7.938,7.938,0,0,1,4.1-1.018A6.861,6.861,0,0,1-30.82-14.07a8.145,8.145,0,0,1,1.934,5.779v1.919H-38.7a3.558,3.558,0,0,0,1.157,2.095,3.443,3.443,0,0,0,2.314.762,4.437,4.437,0,0,0,3.662-1.641l2.256,2.666A6.306,6.306,0,0,1-31.926-.461,8.836,8.836,0,0,1-35.566.293Zm-.557-12.627q-2.168,0-2.578,2.871h4.98v-.381a2.445,2.445,0,0,0-.6-1.838A2.39,2.39,0,0,0-36.123-12.334ZM-18.6-4.453a1.14,1.14,0,0,0-.659-1.011,10.027,10.027,0,0,0-2.5-.791,11.422,11.422,0,0,1-3.047-1.077A5.1,5.1,0,0,1-26.646-8.95a3.865,3.865,0,0,1-.63-2.183,4.381,4.381,0,0,1,1.8-3.6,7.422,7.422,0,0,1,4.717-1.414,8.223,8.223,0,0,1,5.039,1.421,4.443,4.443,0,0,1,1.9,3.735h-4.951q0-1.9-2.007-1.9a1.989,1.989,0,0,0-1.3.432,1.338,1.338,0,0,0-.527,1.077,1.228,1.228,0,0,0,.645,1.069,6.09,6.09,0,0,0,2.058.674,17.785,17.785,0,0,1,2.483.63q3.574,1.23,3.574,4.409a4.151,4.151,0,0,1-1.926,3.53A8.447,8.447,0,0,1-20.757.293,8.62,8.62,0,0,1-24.39-.439a6.075,6.075,0,0,1-2.49-1.992,4.511,4.511,0,0,1-.894-2.651h4.614a1.908,1.908,0,0,0,.732,1.6,3.013,3.013,0,0,0,1.8.505,2.37,2.37,0,0,0,1.516-.41A1.312,1.312,0,0,0-18.6-4.453ZM-4.687-8.042a9.682,9.682,0,0,1,1.626-5.933,5.352,5.352,0,0,1,4.541-2.168,4.552,4.552,0,0,1,3.574,1.67V-22.5H10V0H5.566L5.317-1.7A4.674,4.674,0,0,1,1.45.293,5.342,5.342,0,0,1-3.032-1.875,9.989,9.989,0,0,1-4.687-8.042Zm4.937.308q0,4.219,2.461,4.219A2.43,2.43,0,0,0,5.054-4.893v-6.035a2.365,2.365,0,0,0-2.314-1.406q-2.285,0-2.476,3.691ZM20.479.293a8.148,8.148,0,0,1-5.9-2.175,7.512,7.512,0,0,1-2.256-5.662v-.41a9.734,9.734,0,0,1,.9-4.292,6.592,6.592,0,0,1,2.629-2.878,7.938,7.938,0,0,1,4.1-1.018,6.861,6.861,0,0,1,5.273,2.073,8.145,8.145,0,0,1,1.934,5.779v1.919H17.344A3.558,3.558,0,0,0,18.5-4.277a3.443,3.443,0,0,0,2.314.762,4.437,4.437,0,0,0,3.662-1.641L26.733-2.49A6.306,6.306,0,0,1,24.119-.461,8.836,8.836,0,0,1,20.479.293Zm-.557-12.627q-2.168,0-2.578,2.871h4.98v-.381a2.445,2.445,0,0,0-.6-1.838A2.39,2.39,0,0,0,19.922-12.334ZM35.991-8.071a9.355,9.355,0,0,1,.923-4.226,6.6,6.6,0,0,1,2.651-2.849,7.985,7.985,0,0,1,4.058-1,7.288,7.288,0,0,1,5.61,2.2,8.46,8.46,0,0,1,2.051,6v.176a8.208,8.208,0,0,1-2.058,5.881A7.307,7.307,0,0,1,43.652.293a7.39,7.39,0,0,1-5.435-2.029,7.935,7.935,0,0,1-2.212-5.5Zm4.937.308a5.9,5.9,0,0,0,.688,3.223,2.294,2.294,0,0,0,2.036,1.025q2.637,0,2.7-4.058v-.5q0-4.263-2.725-4.263-2.476,0-2.681,3.677ZM44.3-22.5h5.215l-4.072,4.6-4.028-.007Zm18.75,11.118L61.421-11.5q-2.329,0-2.988,1.465V0H53.5V-15.85h4.629l.161,2.036a3.823,3.823,0,0,1,3.472-2.329,4.814,4.814,0,0,1,1.377.176Zm.879,3.34a9.682,9.682,0,0,1,1.626-5.933,5.352,5.352,0,0,1,4.541-2.168,4.552,4.552,0,0,1,3.574,1.67V-22.5h4.951V0H74.18l-.249-1.7A4.674,4.674,0,0,1,70.063.293a5.342,5.342,0,0,1-4.482-2.168A9.989,9.989,0,0,1,63.926-8.042Zm4.937.308q0,4.219,2.461,4.219a2.43,2.43,0,0,0,2.344-1.377v-6.035a2.365,2.365,0,0,0-2.314-1.406q-2.285,0-2.476,3.691ZM89.092.293a8.148,8.148,0,0,1-5.9-2.175,7.512,7.512,0,0,1-2.256-5.662v-.41a9.734,9.734,0,0,1,.9-4.292,6.592,6.592,0,0,1,2.629-2.878,7.938,7.938,0,0,1,4.1-1.018,6.861,6.861,0,0,1,5.273,2.073,8.145,8.145,0,0,1,1.934,5.779v1.919H85.957a3.558,3.558,0,0,0,1.157,2.095,3.443,3.443,0,0,0,2.314.762,4.437,4.437,0,0,0,3.662-1.641L95.347-2.49A6.306,6.306,0,0,1,92.732-.461,8.836,8.836,0,0,1,89.092.293Zm-.557-12.627q-2.168,0-2.578,2.871h4.98v-.381a2.445,2.445,0,0,0-.6-1.838A2.39,2.39,0,0,0,88.535-12.334ZM102.29-15.85l.161,1.86a5.375,5.375,0,0,1,4.526-2.153,4.522,4.522,0,0,1,3.7,1.479,7.044,7.044,0,0,1,1.267,4.453V0h-4.951V-10a2.675,2.675,0,0,0-.483-1.765,2.236,2.236,0,0,0-1.758-.564,2.354,2.354,0,0,0-2.153,1.143V0H97.661V-15.85ZM122.344.293a8.148,8.148,0,0,1-5.9-2.175,7.512,7.512,0,0,1-2.256-5.662v-.41a9.734,9.734,0,0,1,.9-4.292,6.592,6.592,0,0,1,2.629-2.878,7.938,7.938,0,0,1,4.1-1.018,6.861,6.861,0,0,1,5.273,2.073,8.145,8.145,0,0,1,1.934,5.779v1.919h-9.814a3.558,3.558,0,0,0,1.157,2.095,3.443,3.443,0,0,0,2.314.762,4.437,4.437,0,0,0,3.662-1.641L128.6-2.49a6.306,6.306,0,0,1-2.615,2.029A8.836,8.836,0,0,1,122.344.293Zm-.557-12.627q-2.168,0-2.578,2.871h4.98v-.381a2.445,2.445,0,0,0-.6-1.838A2.39,2.39,0,0,0,121.787-12.334Zm17.52,7.881a1.14,1.14,0,0,0-.659-1.011,10.027,10.027,0,0,0-2.5-.791A11.422,11.422,0,0,1,133.1-7.332a5.1,5.1,0,0,1-1.831-1.619,3.865,3.865,0,0,1-.63-2.183,4.381,4.381,0,0,1,1.8-3.6,7.422,7.422,0,0,1,4.717-1.414,8.223,8.223,0,0,1,5.039,1.421,4.443,4.443,0,0,1,1.9,3.735h-4.951q0-1.9-2.007-1.9a1.989,1.989,0,0,0-1.3.432,1.338,1.338,0,0,0-.527,1.077,1.228,1.228,0,0,0,.645,1.069,6.09,6.09,0,0,0,2.058.674,17.785,17.785,0,0,1,2.483.63q3.574,1.23,3.574,4.409a4.151,4.151,0,0,1-1.926,3.53A8.447,8.447,0,0,1,137.153.293a8.62,8.62,0,0,1-3.633-.732,6.075,6.075,0,0,1-2.49-1.992,4.511,4.511,0,0,1-.894-2.651h4.614a1.908,1.908,0,0,0,.732,1.6,3.013,3.013,0,0,0,1.8.505,2.37,2.37,0,0,0,1.516-.41A1.312,1.312,0,0,0,139.307-4.453ZM-94.27,26.929a9.355,9.355,0,0,1,.923-4.226A6.6,6.6,0,0,1-90.7,19.854a7.985,7.985,0,0,1,4.058-1,7.288,7.288,0,0,1,5.61,2.2,8.46,8.46,0,0,1,2.051,6v.176a8.208,8.208,0,0,1-2.058,5.881,7.307,7.307,0,0,1-5.574,2.175,7.39,7.39,0,0,1-5.435-2.029,7.935,7.935,0,0,1-2.212-5.5Zm4.937.308a5.9,5.9,0,0,0,.688,3.223,2.294,2.294,0,0,0,2.036,1.025q2.637,0,2.7-4.058v-.5q0-4.263-2.725-4.263-2.476,0-2.681,3.677Zm26.323,1.89,2.5-9.976h5.2L-60.476,35h-5.039l-5.171-15.85h5.215Zm16.655,6.167a8.148,8.148,0,0,1-5.9-2.175,7.512,7.512,0,0,1-2.256-5.662v-.41a9.734,9.734,0,0,1,.9-4.292,6.592,6.592,0,0,1,2.629-2.878,7.938,7.938,0,0,1,4.1-1.018,6.861,6.861,0,0,1,5.273,2.073,8.145,8.145,0,0,1,1.934,5.779v1.919H-49.49a3.558,3.558,0,0,0,1.157,2.095,3.443,3.443,0,0,0,2.314.762,4.437,4.437,0,0,0,3.662-1.641L-40.1,32.51a6.306,6.306,0,0,1-2.615,2.029A8.836,8.836,0,0,1-46.355,35.293Zm-.557-12.627q-2.168,0-2.578,2.871h4.98v-.381a2.445,2.445,0,0,0-.6-1.838A2.39,2.39,0,0,0-46.912,22.666Zm13.755-3.516.161,1.86a5.375,5.375,0,0,1,4.526-2.153,4.522,4.522,0,0,1,3.7,1.479A7.044,7.044,0,0,1-23.5,24.79V35h-4.951V25a2.675,2.675,0,0,0-.483-1.765,2.236,2.236,0,0,0-1.758-.564,2.354,2.354,0,0,0-2.153,1.143V35h-4.937V19.15Zm11.763,7.808a9.682,9.682,0,0,1,1.626-5.933,5.352,5.352,0,0,1,4.541-2.168,4.552,4.552,0,0,1,3.574,1.67V12.5H-6.7V35H-11.14l-.249-1.7a4.674,4.674,0,0,1-3.867,1.992,5.342,5.342,0,0,1-4.482-2.168A9.989,9.989,0,0,1-21.394,26.958Zm4.937.308q0,4.219,2.461,4.219a2.43,2.43,0,0,0,2.344-1.377V24.072a2.365,2.365,0,0,0-2.314-1.406q-2.285,0-2.476,3.691ZM3.772,35.293a8.148,8.148,0,0,1-5.9-2.175,7.512,7.512,0,0,1-2.256-5.662v-.41a9.734,9.734,0,0,1,.9-4.292A6.592,6.592,0,0,1-.857,19.875a7.938,7.938,0,0,1,4.1-1.018A6.861,6.861,0,0,1,8.518,20.93a8.145,8.145,0,0,1,1.934,5.779v1.919H.637a3.558,3.558,0,0,0,1.157,2.095,3.443,3.443,0,0,0,2.314.762,4.437,4.437,0,0,0,3.662-1.641l2.256,2.666a6.306,6.306,0,0,1-2.615,2.029A8.836,8.836,0,0,1,3.772,35.293ZM3.215,22.666q-2.168,0-2.578,2.871h4.98v-.381a2.445,2.445,0,0,0-.6-1.838A2.39,2.39,0,0,0,3.215,22.666Zm8.6,4.292a9.682,9.682,0,0,1,1.626-5.933,5.352,5.352,0,0,1,4.541-2.168,4.552,4.552,0,0,1,3.574,1.67V12.5h4.951V35H22.068l-.249-1.7a4.674,4.674,0,0,1-3.867,1.992,5.342,5.342,0,0,1-4.482-2.168A9.989,9.989,0,0,1,11.814,26.958Zm4.937.308q0,4.219,2.461,4.219a2.43,2.43,0,0,0,2.344-1.377V24.072a2.365,2.365,0,0,0-2.314-1.406q-2.285,0-2.476,3.691Zm11.938-.337a9.355,9.355,0,0,1,.923-4.226,6.6,6.6,0,0,1,2.651-2.849,7.985,7.985,0,0,1,4.058-1,7.288,7.288,0,0,1,5.61,2.2,8.46,8.46,0,0,1,2.051,6v.176a8.208,8.208,0,0,1-2.058,5.881,7.307,7.307,0,0,1-5.574,2.175,7.39,7.39,0,0,1-5.435-2.029,7.935,7.935,0,0,1-2.212-5.5Zm4.937.308a5.9,5.9,0,0,0,.688,3.223,2.294,2.294,0,0,0,2.036,1.025q2.637,0,2.7-4.058v-.5q0-4.263-2.725-4.263-2.476,0-2.681,3.677Zm22.119-3.618L54.119,23.5q-2.329,0-2.988,1.465V35H46.194V19.15h4.629l.161,2.036a3.823,3.823,0,0,1,3.472-2.329,4.814,4.814,0,0,1,1.377.176Zm9.17,11.675a8.148,8.148,0,0,1-5.9-2.175,7.512,7.512,0,0,1-2.256-5.662v-.41a9.734,9.734,0,0,1,.9-4.292,6.592,6.592,0,0,1,2.629-2.878,7.938,7.938,0,0,1,4.1-1.018,6.861,6.861,0,0,1,5.273,2.073,8.145,8.145,0,0,1,1.934,5.779v1.919H61.78a3.558,3.558,0,0,0,1.157,2.095,3.443,3.443,0,0,0,2.314.762,4.437,4.437,0,0,0,3.662-1.641l2.256,2.666a6.306,6.306,0,0,1-2.615,2.029A8.836,8.836,0,0,1,64.915,35.293Zm-.557-12.627q-2.168,0-2.578,2.871h4.98v-.381a2.445,2.445,0,0,0-.6-1.838A2.39,2.39,0,0,0,64.358,22.666Zm17.52,7.881a1.14,1.14,0,0,0-.659-1.011,10.027,10.027,0,0,0-2.5-.791,11.422,11.422,0,0,1-3.047-1.077,5.1,5.1,0,0,1-1.831-1.619,3.865,3.865,0,0,1-.63-2.183,4.381,4.381,0,0,1,1.8-3.6,7.422,7.422,0,0,1,4.717-1.414,8.223,8.223,0,0,1,5.039,1.421,4.443,4.443,0,0,1,1.9,3.735H81.716q0-1.9-2.007-1.9a1.989,1.989,0,0,0-1.3.432,1.338,1.338,0,0,0-.527,1.077,1.228,1.228,0,0,0,.645,1.069,6.09,6.09,0,0,0,2.058.674,17.785,17.785,0,0,1,2.483.63q3.574,1.23,3.574,4.409a4.151,4.151,0,0,1-1.926,3.53,8.447,8.447,0,0,1-4.988,1.362,8.62,8.62,0,0,1-3.633-.732,6.075,6.075,0,0,1-2.49-1.992,4.511,4.511,0,0,1-.894-2.651h4.614a1.908,1.908,0,0,0,.732,1.6,3.013,3.013,0,0,0,1.8.505,2.37,2.37,0,0,0,1.516-.41A1.312,1.312,0,0,0,81.877,30.547ZM-69.375,54.15l.161,1.86a5.45,5.45,0,0,1,4.526-2.153,4.012,4.012,0,0,1,4.058,2.388,5.275,5.275,0,0,1,4.658-2.388q4.819,0,4.951,5.83V70h-4.951V60a3.022,3.022,0,0,0-.41-1.772,1.746,1.746,0,0,0-1.494-.557,2.339,2.339,0,0,0-2.183,1.3l.015.205V70H-65V60.024a3.176,3.176,0,0,0-.4-1.8,1.741,1.741,0,0,0-1.509-.557,2.367,2.367,0,0,0-2.168,1.3V70H-74V54.15ZM-42.993,70h-4.951V54.15h4.951Zm-5.244-19.951a2.223,2.223,0,0,1,.762-1.739,2.863,2.863,0,0,1,1.978-.678,2.863,2.863,0,0,1,1.978.678,2.223,2.223,0,0,1,.762,1.739,2.223,2.223,0,0,1-.762,1.739,2.863,2.863,0,0,1-1.978.678,2.863,2.863,0,0,1-1.978-.678A2.223,2.223,0,0,1-48.237,50.049Zm16.582,15.5a1.14,1.14,0,0,0-.659-1.011,10.027,10.027,0,0,0-2.5-.791,11.422,11.422,0,0,1-3.047-1.077A5.1,5.1,0,0,1-39.7,61.05a3.865,3.865,0,0,1-.63-2.183,4.381,4.381,0,0,1,1.8-3.6,7.422,7.422,0,0,1,4.717-1.414,8.223,8.223,0,0,1,5.039,1.421,4.443,4.443,0,0,1,1.9,3.735h-4.951q0-1.9-2.007-1.9a1.989,1.989,0,0,0-1.3.432,1.338,1.338,0,0,0-.527,1.077,1.228,1.228,0,0,0,.645,1.069,6.09,6.09,0,0,0,2.058.674,17.785,17.785,0,0,1,2.483.63q3.574,1.23,3.574,4.409a4.151,4.151,0,0,1-1.926,3.53,8.447,8.447,0,0,1-4.988,1.362,8.62,8.62,0,0,1-3.633-.732,6.075,6.075,0,0,1-2.49-1.992,4.511,4.511,0,0,1-.894-2.651h4.614a1.908,1.908,0,0,0,.732,1.6,3.013,3.013,0,0,0,1.8.505,2.37,2.37,0,0,0,1.516-.41A1.312,1.312,0,0,0-31.655,65.547ZM-19.38,70h-4.951V54.15h4.951Zm-5.244-19.951a2.223,2.223,0,0,1,.762-1.739,2.863,2.863,0,0,1,1.978-.678,2.863,2.863,0,0,1,1.978.678,2.223,2.223,0,0,1,.762,1.739,2.223,2.223,0,0,1-.762,1.739,2.863,2.863,0,0,1-1.978.678,2.863,2.863,0,0,1-1.978-.678A2.223,2.223,0,0,1-24.624,50.049Zm7.661,11.88A9.355,9.355,0,0,1-16.04,57.7a6.6,6.6,0,0,1,2.651-2.849,7.985,7.985,0,0,1,4.058-1,7.288,7.288,0,0,1,5.61,2.2,8.46,8.46,0,0,1,2.051,6v.176a8.208,8.208,0,0,1-2.058,5.881A7.307,7.307,0,0,1-9.3,70.293a7.39,7.39,0,0,1-5.435-2.029,7.935,7.935,0,0,1-2.212-5.5Zm4.937.308a5.9,5.9,0,0,0,.688,3.223A2.294,2.294,0,0,0-9.3,66.484q2.637,0,2.7-4.058v-.5q0-4.263-2.725-4.263-2.476,0-2.681,3.677ZM5.039,54.15l.161,1.86a5.375,5.375,0,0,1,4.526-2.153,4.522,4.522,0,0,1,3.7,1.479,7.044,7.044,0,0,1,1.267,4.453V70H9.741V60a2.675,2.675,0,0,0-.483-1.765A2.236,2.236,0,0,0,7.5,57.666a2.354,2.354,0,0,0-2.153,1.143V70H.41V54.15ZM25.093,70.293a8.148,8.148,0,0,1-5.9-2.175,7.512,7.512,0,0,1-2.256-5.662v-.41a9.734,9.734,0,0,1,.9-4.292,6.592,6.592,0,0,1,2.629-2.878,7.938,7.938,0,0,1,4.1-1.018,6.861,6.861,0,0,1,5.273,2.073,8.145,8.145,0,0,1,1.934,5.779v1.919H21.958a3.558,3.558,0,0,0,1.157,2.095,3.443,3.443,0,0,0,2.314.762,4.437,4.437,0,0,0,3.662-1.641l2.256,2.666a6.306,6.306,0,0,1-2.615,2.029A8.836,8.836,0,0,1,25.093,70.293Zm-.557-12.627q-2.168,0-2.578,2.871h4.98v-.381a2.445,2.445,0,0,0-.6-1.838A2.39,2.39,0,0,0,24.536,57.666Zm18.809.952L41.719,58.5q-2.329,0-2.988,1.465V70H33.794V54.15h4.629l.161,2.036a3.823,3.823,0,0,1,3.472-2.329,4.814,4.814,0,0,1,1.377.176Zm.63,3.311A9.355,9.355,0,0,1,44.9,57.7a6.6,6.6,0,0,1,2.651-2.849,7.985,7.985,0,0,1,4.058-1,7.288,7.288,0,0,1,5.61,2.2,8.46,8.46,0,0,1,2.051,6v.176a8.208,8.208,0,0,1-2.058,5.881,7.307,7.307,0,0,1-5.574,2.175A7.39,7.39,0,0,1,46.2,68.264a7.935,7.935,0,0,1-2.212-5.5Zm4.937.308a5.9,5.9,0,0,0,.688,3.223,2.294,2.294,0,0,0,2.036,1.025q2.637,0,2.7-4.058v-.5q0-4.263-2.725-4.263-2.476,0-2.681,3.677Zm20.83,3.311a1.14,1.14,0,0,0-.659-1.011,10.027,10.027,0,0,0-2.5-.791,11.422,11.422,0,0,1-3.047-1.077A5.1,5.1,0,0,1,61.7,61.05a3.865,3.865,0,0,1-.63-2.183,4.381,4.381,0,0,1,1.8-3.6,7.422,7.422,0,0,1,4.717-1.414,8.223,8.223,0,0,1,5.039,1.421,4.443,4.443,0,0,1,1.9,3.735H69.58q0-1.9-2.007-1.9a1.989,1.989,0,0,0-1.3.432,1.338,1.338,0,0,0-.527,1.077,1.228,1.228,0,0,0,.645,1.069,6.09,6.09,0,0,0,2.058.674,17.785,17.785,0,0,1,2.483.63Q74.5,62.222,74.5,65.4a4.151,4.151,0,0,1-1.926,3.53,8.447,8.447,0,0,1-4.988,1.362,8.62,8.62,0,0,1-3.633-.732,6.075,6.075,0,0,1-2.49-1.992,4.511,4.511,0,0,1-.894-2.651h4.614a1.908,1.908,0,0,0,.732,1.6,3.013,3.013,0,0,0,1.8.505,2.37,2.37,0,0,0,1.516-.41A1.312,1.312,0,0,0,69.741,65.547Z" transform="translate(801 6132)" fill="#12263f"/>
    <g id="Grupo_87737" data-name="Grupo 87737" transform="translate(-634.129 -268.965)">
      <path id="Trazado_110839" data-name="Trazado 110839" d="M277.895,5.437A101.766,101.766,0,1,1,176.129,107.2,101.766,101.766,0,0,1,277.895,5.437" transform="translate(1156 6518.259)" fill="#ffded9"/>
      <path id="Trazado_110840" data-name="Trazado 110840" d="M310.057,203.777l-1.46-14.6c-3.606.548-7.227,1.017-10.866,1.368-3.213.311-6.434.485-9.657.59-.737.026-1.475.057-2.212.073-1.469.031-2.938.042-4.408.042-.283,0-.567.006-.851,0q-2.793-.011-5.583-.083-2.424-.062-4.844-.155c-5.391-.21-11.175-.036-16.734-.6l-1.831.931.726,14.383a102.345,102.345,0,0,0,57.72-1.955" transform="translate(1156 6518.259)" fill="#2e5692"/>
      <path id="Trazado_110841" data-name="Trazado 110841" d="M283.59,77.312h0a9.355,9.355,0,0,1-9.355-9.355V53.925h18.71V67.957a9.355,9.355,0,0,1-9.355,9.355" transform="translate(1156 6518.259)" fill="#e6b09e"/>
      <path id="Trazado_110842" data-name="Trazado 110842" d="M283.382,64.511h0c-9.61,0-15.943-17.4-15.943-17.4L265.981,26.3a17.4,17.4,0,0,1,34.8,0L299.59,47.11s-6.6,17.4-16.208,17.4" transform="translate(1156 6518.259)" fill="#ffbcab"/>
      <path id="Trazado_110843" data-name="Trazado 110843" d="M270.485,23.865a15.014,15.014,0,0,1-2.86-2.3c-3.82-3.924-6.1-9.772-4.109-15.13,1.035-2.784,3.822-5.5,6.626-4.529,1.651.573,2.812,2.3,4.548,2.5,1.787.2,3.631-1.3,5.429-1.549C285,2.174,291.242,5.044,294.693,8.4c3.138,3.053,4.879,7.81,3.468,11.954.358-1.052-5.446,1.959-6,2.232A36.027,36.027,0,0,1,283.27,25.8a17.624,17.624,0,0,1-12.785-1.939" transform="translate(1156 6518.259)" fill="#562409"/>
      <path id="Trazado_110844" data-name="Trazado 110844" d="M297.317,21.179a35.823,35.823,0,0,0,3.051,12.945,25.739,25.739,0,0,0,2.216-14.362c-.286-1.76-1.193-3.862-2.975-3.91-1.867-.051-2.883,2.282-2.7,4.142a7.962,7.962,0,0,0,1.507,3.936" transform="translate(1156 6518.259)" fill="#562409"/>
      <path id="Trazado_110845" data-name="Trazado 110845" d="M266.612,34.589a7.648,7.648,0,0,1-.662-1.41c-.243-.478-.467-.963-.668-1.46a17.993,17.993,0,0,1-1.19-8.67c.13-1.159.335-3.152,1.89-3.194,1.868-.051,1.637.975,1.458,2.835-.136,1.413-.828,11.9-.828,11.9" transform="translate(1156 6518.259)" fill="#87431d"/>
      <path id="Trazado_110846" data-name="Trazado 110846" d="M271.84,34.8a12.625,12.625,0,0,1,6.742-.514" transform="translate(1156 6518.259)" fill="none" stroke="#1a1a1a" stroke-miterlimit="10" stroke-width="1.336"/>
      <path id="Trazado_110847" data-name="Trazado 110847" d="M288.947,34.5a12.641,12.641,0,0,1,6.741-.514" transform="translate(1156 6518.259)" fill="none" stroke="#1a1a1a" stroke-miterlimit="10" stroke-width="1.336"/>
      <path id="Trazado_110848" data-name="Trazado 110848" d="M280.862,51.561a3.458,3.458,0,0,0,4.889-.009c.03-.03.059-.06.087-.091" transform="translate(1156 6518.259)" fill="#ad8477"/>
      <path id="Trazado_110849" data-name="Trazado 110849" d="M269.112,34.8h11.131s1.129,8.208-5.48,8.139c-6.314-.066-6.375-5.8-6.237-7.6A.582.582,0,0,1,269.112,34.8Z" transform="translate(1156 6518.259)" fill="none" stroke="#2e5692" stroke-miterlimit="10" stroke-width="0.668"/>
      <path id="Trazado_110850" data-name="Trazado 110850" d="M287.02,34.8h11.131s1.129,8.208-5.48,8.139c-6.314-.066-6.375-5.8-6.237-7.6A.582.582,0,0,1,287.02,34.8Z" transform="translate(1156 6518.259)" fill="none" stroke="#2e5692" stroke-miterlimit="10" stroke-width="0.668"/>
      <line id="Línea_332" data-name="Línea 332" x1="6.384" transform="translate(1436.278 6554.706)" fill="none" stroke="#7a83f4" stroke-miterlimit="10" stroke-width="0.668"/>
      <path id="Trazado_110851" data-name="Trazado 110851" d="M276.544,37.36a1.225,1.225,0,1,1-1.225-1.225,1.224,1.224,0,0,1,1.225,1.225Z" transform="translate(1156 6518.259)" fill="#210f01"/>
      <path id="Trazado_110852" data-name="Trazado 110852" d="M293.829,37.36a1.225,1.225,0,1,1-1.225-1.225,1.224,1.224,0,0,1,1.225,1.225Z" transform="translate(1156 6518.259)" fill="#210f01"/>
      <line id="Línea_333" data-name="Línea 333" x1="2.544" y1="1.586" transform="translate(1421.981 6552.008)" fill="none" stroke="#2e5692" stroke-miterlimit="10" stroke-width="1.225"/>
      <line id="Línea_334" data-name="Línea 334" x1="2.868" y2="1.494" transform="translate(1453.824 6551.625)" fill="none" stroke="#2e5692" stroke-miterlimit="10" stroke-width="1.225"/>
      <path id="Trazado_110853" data-name="Trazado 110853" d="M265.986,43.688h0c-.667,0-1.213-9.11-1.213-9.11a1.213,1.213,0,1,1,2.426,0v7.9a1.217,1.217,0,0,1-1.213,1.21" transform="translate(1156 6518.259)" fill="#ffbcab"/>
      <path id="Trazado_110854" data-name="Trazado 110854" d="M300.784,43.744h0c.667,0,1.213-9.11,1.213-9.11a1.213,1.213,0,1,0-2.426,0v7.9a1.217,1.217,0,0,0,1.213,1.21" transform="translate(1156 6518.259)" fill="#ffbcab"/>
      <g id="Grupo_87717" data-name="Grupo 87717" transform="translate(1156 6518.259)">
        <g id="Grupo_87716" data-name="Grupo 87716" clip-path="url(#clip-path)">
          <g id="Grupo_87712" data-name="Grupo 87712" opacity="0.49" style="isolation: isolate">
            <g id="Grupo_87711" data-name="Grupo 87711">
              <g id="Grupo_87710" data-name="Grupo 87710" clip-path="url(#clip-path-2)">
                <path id="Trazado_110855" data-name="Trazado 110855" d="M284.593,28.312c1.38.077,6.035.311,6.394-1.522.4-2.049-3.9-3.4-5.22-3.981-2.875-1.274-4.55-4.007-5.652-6.9-.374-.979-.682-1.976-.947-2.94a10.45,10.45,0,0,0-1.324-3.46,2.953,2.953,0,0,0-4.767.034c-1.507,1.77-.865,4.755-.247,6.732,1.7,5.424,6.675,9.832,11.763,12.037" fill="#87431d"/>
              </g>
            </g>
          </g>
          <g id="Grupo_87715" data-name="Grupo 87715" opacity="0.49" style="isolation: isolate">
            <g id="Grupo_87714" data-name="Grupo 87714">
              <g id="Grupo_87713" data-name="Grupo 87713" clip-path="url(#clip-path-3)">
                <path id="Trazado_110856" data-name="Trazado 110856" d="M272.058,6.333a24.737,24.737,0,0,0,.613-2.991,3.945,3.945,0,0,0-.117-2.042c-.706-1.692-3.588-1.246-4.992-1.251a7.192,7.192,0,0,0-5.447,2.158c-1.781,2.022-1.8,5.035-1.37,7.7a30.381,30.381,0,0,0,7.444,15.435,13.079,13.079,0,0,0,5.256,3.827c1.677.572,7.641,2.593,9.056.555-4.876-2.479-9.34-6.738-11.346-11.9-1.554-4.007-.086-7.666.9-11.491" fill="#87431d"/>
              </g>
            </g>
          </g>
        </g>
      </g>
      <path id="Trazado_110858" data-name="Trazado 110858" d="M214.145,195.167l-1.077,1.672s.6-.472,2.217.394c0,0-1.365-1.442-1.14-2.066" transform="translate(1156 6518.259)" fill="#1b2c64"/>
      <path id="Trazado_110859" data-name="Trazado 110859" d="M214.108,195.27l-.988,1.49-.3-.181.926-1.527Z" transform="translate(1156 6518.259)" fill="#ccc"/>
      <path id="Trazado_110860" data-name="Trazado 110860" d="M209.773,179.919c-1.456.753-3.09,1.708-3.419,1.935a3.268,3.268,0,0,0-.713.789c-1.187,1.617-6.22,5.075-6.394,5.1a.958.958,0,0,0-.479.284,3.962,3.962,0,0,1-.626.537c-.341.271-.931.389-1.1.837-.272.729.642,1.561,1,2.084,2.528,3.711,3.339,3.228,9.65,3.565,4.765.255,4.236-6.275,7.285-9.9a71.742,71.742,0,0,1-5.2-5.231" transform="translate(1156 6518.259)" fill="#f4c09d"/>
      <path id="Trazado_110861" data-name="Trazado 110861" d="M214.71,184.9c-.972-.9-1.936-1.827-2.877-2.78-1.885.874-3.834,1.847-4.068,1.892-1.045.2-5.37,1.885-5.313,2.132.691,2.963.322,2.922-.513,2.685a.791.791,0,0,1,.338.325,2.085,2.085,0,0,1,.151.679c.273,1.9,2.1,3.138,3.747,4.125a3.336,3.336,0,0,0,1.352.556,2.4,2.4,0,0,0,1.8-.748c1.072-1.011,3.38-2.269,3.016-3.7-.207-.84,2.155-4.031,2.367-5.166" transform="translate(1156 6518.259)" fill="#ffbcab"/>
      <path id="Trazado_110862" data-name="Trazado 110862" d="M214.021,195.132l-1.1,1.629-7.148-4a25.061,25.061,0,0,1-4.231-2.975l-7.471-6.5.841-1.247,8.045,4.385a26.431,26.431,0,0,1,4.516,3.111Z" transform="translate(1156 6518.259)" fill="#7a83f4"/>
      <path id="Trazado_110863" data-name="Trazado 110863" d="M209.5,179.608a72.525,72.525,0,0,1-9.761,4.923c-1.164.384-2.561-.18-2.5,1.044.084,1.568,2.324,1.945,3.783,1.361s2.5-1.83,4.362-2.171L210,180.178c-.166-.188-.338-.378-.5-.57" transform="translate(1156 6518.259)" fill="#ffbcab"/>
      <path id="Trazado_110864" data-name="Trazado 110864" d="M203.343,186.814a4.815,4.815,0,0,1,2.859,1.117,13.018,13.018,0,0,1,3.113,2.679c.434.663-.209,1.169-.538,1.723a5.767,5.767,0,0,0-.6,1.439c-.112.411.471.8.063.919.012.113.549-.174.655-.13a24.708,24.708,0,0,1-6.84-.736c-1.243-.417-4.307-3.773-3.637-5.264.488-1.086,2.752-1.427,3.76-1.634a5.128,5.128,0,0,1,1.165-.113" transform="translate(1156 6518.259)" fill="#ffbcab"/>
      <path id="Trazado_110868" data-name="Trazado 110868" d="M389.425,153.888c2.932-1.57,1.107-6.923.234-9.2a2.593,2.593,0,0,0-.766-1.222c-1.1-.813-3.089,1.124-3.915,1.683a3.044,3.044,0,0,1-1.208.59c-1.979.287-4.326-2.911-9.292-2.531-.425.032-4.935-.4-5.187.43-.757,2.5-1.429,6.364-1.429,6.364l14.774,7.174s3.061-1.291,6.789-3.288" transform="translate(1156 6518.259)" fill="#ffbcab"/>
      <path id="Trazado_110869" data-name="Trazado 110869" d="M394.571,107.359s-9.075,28.478-17.185,47.316c-3.961,9.2-9.722,16.22-10.157,16.26-1.327.122,42.846,14.583,42.846,14.583l3.9-16.486a124.07,124.07,0,0,1,10.828-29.01l8.6-16.415Z" transform="translate(1156 6518.259)" fill="#f2f2f2"/>
      <path id="Trazado_110870" data-name="Trazado 110870" d="M379.311,146.438c.708-1.414,2.471-1.842,3.861-2.6s2.534-2.739,1.37-3.811c-.909-.836-1.367.611-2.414,1.269-2.824,1.777-5.738,1.439-7.41,1.865" transform="translate(1156 6518.259)" fill="#ffbcab"/>
      <line id="Línea_335" data-name="Línea 335" x2="27.624" y2="11.853" transform="translate(1552.511 6637.903)" fill="none" stroke="#2e5692" stroke-miterlimit="10" stroke-width="0.259"/>
      <line id="Línea_336" data-name="Línea 336" x2="27.624" y2="11.853" transform="translate(1550.662 6642.593)" fill="none" stroke="#406398" stroke-miterlimit="10" stroke-width="0.259"/>
      <line id="Línea_337" data-name="Línea 337" x2="27.624" y2="11.853" transform="translate(1548.813 6647.283)" fill="none" stroke="#51709f" stroke-miterlimit="10" stroke-width="0.259"/>
      <line id="Línea_338" data-name="Línea 338" x2="27.624" y2="11.853" transform="translate(1546.964 6651.973)" fill="none" stroke="#637da5" stroke-miterlimit="10" stroke-width="0.259"/>
      <line id="Línea_339" data-name="Línea 339" x2="27.624" y2="11.853" transform="translate(1545.115 6656.663)" fill="none" stroke="#748aac" stroke-miterlimit="10" stroke-width="0.259"/>
      <line id="Línea_340" data-name="Línea 340" x2="27.624" y2="11.853" transform="translate(1543.266 6661.353)" fill="none" stroke="#8698b2" stroke-miterlimit="10" stroke-width="0.259"/>
      <line id="Línea_341" data-name="Línea 341" x2="27.624" y2="11.853" transform="translate(1541.418 6666.042)" fill="none" stroke="#97a5b9" stroke-miterlimit="10" stroke-width="0.259"/>
      <line id="Línea_342" data-name="Línea 342" x2="27.624" y2="11.853" transform="translate(1539.569 6670.733)" fill="none" stroke="#a9b2bf" stroke-miterlimit="10" stroke-width="0.259"/>
      <line id="Línea_343" data-name="Línea 343" x2="27.624" y2="11.853" transform="translate(1537.72 6675.422)" fill="none" stroke="#babfc6" stroke-miterlimit="10" stroke-width="0.259"/>
      <line id="Línea_344" data-name="Línea 344" x2="27.624" y2="11.853" transform="translate(1535.871 6680.112)" fill="none" stroke="#ccc" stroke-miterlimit="10" stroke-width="0.259"/>
      <path id="Trazado_110871" data-name="Trazado 110871" d="M335.949,131.495S320.713,76.509,313.858,74.02c-11.473-4.165-19.416-3.728-19.416-3.728l-10.854,7.02-15.7-6.976s-6.563,1.86-18.6,5.343c-10.316,2.983-10.719,16.88-12.086,30.534-1,9.937-5.592,29.434-5.592,29.434l-22.63,45.22,5.028,4.788L245.939,140.5l9.411-38.156-3.743,89.009,31.189,2.861,27.8-.661-3.671-91.232,16.763,38.861,43.776,10.4,2.14-8.5Z" transform="translate(1156 6518.259)" fill="#f2f2f2"/>
      <path id="Trazado_110872" data-name="Trazado 110872" d="M286.492,85.56l5.4-5.4-2.528-2.42H278.785l-2.42,2.42,4.89,4.891c-.647,4.52-4.613,62.317-5.012,62.111-.289-.15,4.2,4.64,6.919,7.519a2.388,2.388,0,0,0,3.68-.254l5.184-7.265Z" transform="translate(1156 6518.259)" fill="#4568b1"/>
      <path id="Trazado_110873" data-name="Trazado 110873" d="M282.941,77.742c-1.189.666-8.159,9.357-8.159,9.357l-9.15-17.244,5.9-5.028Z" transform="translate(1156 6518.259)" fill="#e6e6e6"/>
      <path id="Trazado_110874" data-name="Trazado 110874" d="M284.13,77.742c1.189.666,8.158,9.357,8.158,9.357l10.1-17.244-5.9-5.028Z" transform="translate(1156 6518.259)" fill="#e6e6e6"/>
      <path id="Trazado_110875" data-name="Trazado 110875" d="M256.545,96.849,245.938,140.5l6.94-37.324Z" transform="translate(1156 6518.259)" fill="#e6e6e6"/>
      <path id="Trazado_110876" data-name="Trazado 110876" d="M310.949,106.368l12.734,34.817-16.763-38.86Z" transform="translate(1156 6518.259)" fill="#e6e6e6"/>
      <rect id="Rectángulo_34227" data-name="Rectángulo 34227" width="11.63" height="1.475" transform="translate(1522.425 6670.912) rotate(-73.655)" fill="#e6e6e6"/>
      <rect id="Rectángulo_34228" data-name="Rectángulo 34228" width="3.085" height="8.867" transform="translate(1363.994 6698.063) rotate(-49.826)" fill="#e6e6e6"/>
      <path id="Trazado_110877" data-name="Trazado 110877" d="M308.734,147.306c-.585,19.952-.612,41.11-7.95,46.482l9.811-.233Z" transform="translate(1156 6518.259)" fill="#e6e6e6"/>
      <path id="Trazado_110878" data-name="Trazado 110878" d="M253.892,137.049c2.35,26.347,8.553,48.839,28.907,57.169l-31.188-2.861Z" transform="translate(1156 6518.259)" fill="#e6e6e6"/>
      <path id="Trazado_110879" data-name="Trazado 110879" d="M331.763,135.73c.206-1.031,1.359-3.93,4.186-4.235" transform="translate(1156 6518.259)" fill="#f2f2f2"/>
      <path id="Trazado_110880" data-name="Trazado 110880" d="M331.763,135.73c.206-1.031,1.359-3.93,4.186-4.235" transform="translate(1156 6518.259)" fill="none" stroke="#e6e6e6" stroke-miterlimit="10" stroke-width="0.259"/>
      <path id="Trazado_110881" data-name="Trazado 110881" d="M231.6,135.563c.866-.6,3.711-1.877,5.952-.128" transform="translate(1156 6518.259)" fill="#f2f2f2"/>
      <path id="Trazado_110882" data-name="Trazado 110882" d="M231.6,135.563c.866-.6,3.711-1.877,5.952-.128" transform="translate(1156 6518.259)" fill="none" stroke="#e6e6e6" stroke-miterlimit="10" stroke-width="0.259"/>
    </g>
  </g>
</svg>
