<svg xmlns="http://www.w3.org/2000/svg" xmlns:xlink="http://www.w3.org/1999/xlink" width="400" height="441" viewBox="0 0 400 441">
  <defs>
    <clipPath id="clip-path">
      <rect id="Rectángulo_34234" data-name="Rectángulo 34234" width="3.4" height="3.341" transform="translate(145.833 98.264)" fill="none"/>
    </clipPath>
    <clipPath id="clip-path-2">
      <rect id="Rectángulo_34235" data-name="Rectángulo 34235" width="46.82" height="138.847" transform="translate(93.513 116.213)" fill="none"/>
    </clipPath>
    <clipPath id="clip-path-3">
      <path id="Trazado_111573" data-name="Trazado 111573" d="M105.611,138.029a35.543,35.543,0,0,0,8.537,0l3.087,3.3-3.1,4.216,19.416,60.583-10.94,12.065L107.6,209.986l.638-63.786-4.663-4.967Z" fill="none"/>
    </clipPath>
  </defs>
  <g id="Grupo_87740" data-name="Grupo 87740" transform="translate(-1020 -6063)">
    <rect id="Rectángulo_24404" data-name="Rectángulo 24404" width="400" height="441" transform="translate(1020 6063)" fill="none"/>
    <path id="Trazado_111574" data-name="Trazado 111574" d="M-82.822-7.222a7.789,7.789,0,0,1-1.2,3.933A7.249,7.249,0,0,1-87.107-.645a10.5,10.5,0,0,1-4.534.938,8.375,8.375,0,0,1-6.621-2.739q-2.417-2.739-2.417-7.734v-1.055a12.91,12.91,0,0,1,1.091-5.486,8.269,8.269,0,0,1,3.142-3.633A8.767,8.767,0,0,1-91.7-21.636a9.193,9.193,0,0,1,6.24,2.043,8.074,8.074,0,0,1,2.681,5.632h-5.127a3.82,3.82,0,0,0-.981-2.8,4.037,4.037,0,0,0-2.812-.85,3.071,3.071,0,0,0-2.812,1.436,9.226,9.226,0,0,0-.937,4.585v1.509A10.209,10.209,0,0,0-94.592-5.2a3.136,3.136,0,0,0,2.952,1.465,3.948,3.948,0,0,0,2.71-.835,3.544,3.544,0,0,0,1-2.651ZM-71.689,0a5.574,5.574,0,0,1-.469-1.421A4.59,4.59,0,0,1-75.967.293a5.623,5.623,0,0,1-3.809-1.355,4.313,4.313,0,0,1-1.567-3.406,4.433,4.433,0,0,1,1.9-3.9A9.7,9.7,0,0,1-73.9-9.683h1.523v-.839q0-2.193-1.89-2.193a1.545,1.545,0,0,0-1.758,1.737h-4.937a4.425,4.425,0,0,1,1.956-3.731,8.218,8.218,0,0,1,4.988-1.434,7.205,7.205,0,0,1,4.79,1.479,5.144,5.144,0,0,1,1.8,4.058v7.017a7.186,7.186,0,0,0,.674,3.34V0ZM-74.78-3.223a2.754,2.754,0,0,0,1.531-.4,2.479,2.479,0,0,0,.872-.894V-7.046h-1.436q-2.578,0-2.578,2.314a1.413,1.413,0,0,0,.454,1.091A1.643,1.643,0,0,0-74.78-3.223Zm24.8-4.585a9.558,9.558,0,0,1-1.663,5.9,5.331,5.331,0,0,1-4.49,2.2,4.569,4.569,0,0,1-3.589-1.6v7.4h-4.937V-15.85h4.614l.146,1.465a4.57,4.57,0,0,1,3.735-1.758,5.374,5.374,0,0,1,4.556,2.161,9.676,9.676,0,0,1,1.626,5.94Zm-4.937-.308q0-4.219-2.461-4.219a2.323,2.323,0,0,0-2.344,1.26v6.24a2.4,2.4,0,0,0,2.373,1.318q2.358,0,2.432-4.072ZM-42.056-19.79v3.94h2.607v3.428h-2.607v7.251a1.851,1.851,0,0,0,.322,1.245,1.729,1.729,0,0,0,1.274.352,7.242,7.242,0,0,0,1.23-.088v3.53a9.11,9.11,0,0,1-2.783.425,5.171,5.171,0,0,1-3.765-1.2,4.923,4.923,0,0,1-1.216-3.647v-7.866h-2.021V-15.85h2.021v-3.94ZM-28.579,0a5.574,5.574,0,0,1-.469-1.421A4.59,4.59,0,0,1-32.856.293a5.623,5.623,0,0,1-3.809-1.355,4.313,4.313,0,0,1-1.567-3.406,4.433,4.433,0,0,1,1.9-3.9,9.7,9.7,0,0,1,5.537-1.318h1.523v-.839q0-2.193-1.89-2.193a1.545,1.545,0,0,0-1.758,1.737h-4.937A4.425,4.425,0,0,1-35.9-14.709a8.218,8.218,0,0,1,4.988-1.434,7.205,7.205,0,0,1,4.79,1.479,5.144,5.144,0,0,1,1.8,4.058v7.017a7.186,7.186,0,0,0,.674,3.34V0ZM-31.67-3.223a2.754,2.754,0,0,0,1.531-.4,2.479,2.479,0,0,0,.872-.894V-7.046H-30.7q-2.578,0-2.578,2.314a1.413,1.413,0,0,0,.454,1.091A1.643,1.643,0,0,0-31.67-3.223Zm9.463-4.819a9.682,9.682,0,0,1,1.626-5.933,5.352,5.352,0,0,1,4.541-2.168,4.552,4.552,0,0,1,3.574,1.67V-22.5h4.951V0h-4.438L-12.2-1.7A4.674,4.674,0,0,1-16.069.293a5.342,5.342,0,0,1-4.482-2.168A9.989,9.989,0,0,1-22.207-8.042Zm4.937.308q0,4.219,2.461,4.219a2.43,2.43,0,0,0,2.344-1.377v-6.035a2.365,2.365,0,0,0-2.314-1.406q-2.285,0-2.476,3.691Zm11.938-.337A9.355,9.355,0,0,1-4.409-12.3a6.6,6.6,0,0,1,2.651-2.849,7.985,7.985,0,0,1,4.058-1,7.288,7.288,0,0,1,5.61,2.2,8.46,8.46,0,0,1,2.051,6v.176A8.208,8.208,0,0,1,7.9-1.882,7.307,7.307,0,0,1,2.329.293,7.39,7.39,0,0,1-3.105-1.736a7.935,7.935,0,0,1-2.212-5.5ZM-.4-7.764A5.9,5.9,0,0,0,.293-4.541,2.294,2.294,0,0,0,2.329-3.516q2.637,0,2.7-4.058v-.5q0-4.263-2.725-4.263-2.476,0-2.681,3.677Zm22.119-3.618L20.1-11.5q-2.329,0-2.988,1.465V0H12.173V-15.85H16.8l.161,2.036a3.823,3.823,0,0,1,3.472-2.329,4.814,4.814,0,0,1,1.377.176ZM30.894.293a8.148,8.148,0,0,1-5.9-2.175,7.512,7.512,0,0,1-2.256-5.662v-.41a9.734,9.734,0,0,1,.9-4.292,6.592,6.592,0,0,1,2.629-2.878,7.938,7.938,0,0,1,4.1-1.018A6.861,6.861,0,0,1,35.64-14.07a8.145,8.145,0,0,1,1.934,5.779v1.919H27.759a3.558,3.558,0,0,0,1.157,2.095,3.443,3.443,0,0,0,2.314.762,4.437,4.437,0,0,0,3.662-1.641L37.148-2.49A6.306,6.306,0,0,1,34.534-.461,8.836,8.836,0,0,1,30.894.293Zm-.557-12.627q-2.168,0-2.578,2.871h4.98v-.381a2.445,2.445,0,0,0-.6-1.838A2.39,2.39,0,0,0,30.337-12.334Zm17.52,7.881A1.14,1.14,0,0,0,47.2-5.464a10.027,10.027,0,0,0-2.5-.791,11.422,11.422,0,0,1-3.047-1.077A5.1,5.1,0,0,1,39.814-8.95a3.865,3.865,0,0,1-.63-2.183,4.381,4.381,0,0,1,1.8-3.6A7.422,7.422,0,0,1,45.7-16.143a8.223,8.223,0,0,1,5.039,1.421,4.443,4.443,0,0,1,1.9,3.735H47.7q0-1.9-2.007-1.9a1.989,1.989,0,0,0-1.3.432,1.338,1.338,0,0,0-.527,1.077,1.228,1.228,0,0,0,.645,1.069,6.09,6.09,0,0,0,2.058.674,17.785,17.785,0,0,1,2.483.63q3.574,1.23,3.574,4.409a4.151,4.151,0,0,1-1.926,3.53A8.447,8.447,0,0,1,45.7.293,8.62,8.62,0,0,1,42.07-.439a6.075,6.075,0,0,1-2.49-1.992,4.511,4.511,0,0,1-.894-2.651H43.3a1.908,1.908,0,0,0,.732,1.6,3.013,3.013,0,0,0,1.8.505,2.37,2.37,0,0,0,1.516-.41A1.312,1.312,0,0,0,47.856-4.453ZM61.772-8.042A9.682,9.682,0,0,1,63.4-13.975a5.352,5.352,0,0,1,4.541-2.168,4.552,4.552,0,0,1,3.574,1.67V-22.5h4.951V0H72.026l-.249-1.7A4.674,4.674,0,0,1,67.91.293a5.342,5.342,0,0,1-4.482-2.168A9.989,9.989,0,0,1,61.772-8.042Zm4.937.308q0,4.219,2.461,4.219a2.43,2.43,0,0,0,2.344-1.377v-6.035A2.365,2.365,0,0,0,69.2-12.334q-2.285,0-2.476,3.691ZM86.938.293a8.148,8.148,0,0,1-5.9-2.175,7.512,7.512,0,0,1-2.256-5.662v-.41a9.734,9.734,0,0,1,.9-4.292,6.592,6.592,0,0,1,2.629-2.878,7.938,7.938,0,0,1,4.1-1.018,6.861,6.861,0,0,1,5.273,2.073,8.145,8.145,0,0,1,1.934,5.779v1.919H83.8a3.558,3.558,0,0,0,1.157,2.095,3.443,3.443,0,0,0,2.314.762,4.437,4.437,0,0,0,3.662-1.641L93.193-2.49A6.306,6.306,0,0,1,90.579-.461,8.836,8.836,0,0,1,86.938.293Zm-.557-12.627q-2.168,0-2.578,2.871h4.98v-.381a2.445,2.445,0,0,0-.6-1.838A2.39,2.39,0,0,0,86.382-12.334ZM-57.854,26.929a9.355,9.355,0,0,1,.923-4.226,6.6,6.6,0,0,1,2.651-2.849,7.985,7.985,0,0,1,4.058-1,7.288,7.288,0,0,1,5.61,2.2,8.46,8.46,0,0,1,2.051,6v.176a8.208,8.208,0,0,1-2.058,5.881,7.307,7.307,0,0,1-5.574,2.175,7.39,7.39,0,0,1-5.435-2.029,7.935,7.935,0,0,1-2.212-5.5Zm4.937.308a5.9,5.9,0,0,0,.688,3.223,2.294,2.294,0,0,0,2.036,1.025q2.637,0,2.7-4.058v-.5q0-4.263-2.725-4.263-2.476,0-2.681,3.677ZM-49.548,12.5h5.215l-4.072,4.6-4.028-.007ZM-30.8,23.618l-1.626-.117q-2.329,0-2.988,1.465V35h-4.937V19.15h4.629l.161,2.036a3.823,3.823,0,0,1,3.472-2.329,4.814,4.814,0,0,1,1.377.176Zm.879,3.34a9.682,9.682,0,0,1,1.626-5.933,5.352,5.352,0,0,1,4.541-2.168,4.552,4.552,0,0,1,3.574,1.67V12.5h4.951V35h-4.438l-.249-1.7a4.674,4.674,0,0,1-3.867,1.992,5.342,5.342,0,0,1-4.482-2.168A9.989,9.989,0,0,1-29.919,26.958Zm4.937.308q0,4.219,2.461,4.219a2.43,2.43,0,0,0,2.344-1.377V24.072a2.365,2.365,0,0,0-2.314-1.406q-2.285,0-2.476,3.691Zm20.229,8.027a8.148,8.148,0,0,1-5.9-2.175,7.512,7.512,0,0,1-2.256-5.662v-.41a9.734,9.734,0,0,1,.9-4.292,6.592,6.592,0,0,1,2.629-2.878,7.938,7.938,0,0,1,4.1-1.018A6.861,6.861,0,0,1-.007,20.93a8.145,8.145,0,0,1,1.934,5.779v1.919H-7.888a3.558,3.558,0,0,0,1.157,2.095,3.443,3.443,0,0,0,2.314.762A4.437,4.437,0,0,0-.754,29.844L1.5,32.51a6.306,6.306,0,0,1-2.615,2.029A8.836,8.836,0,0,1-4.753,35.293ZM-5.31,22.666q-2.168,0-2.578,2.871h4.98v-.381a2.445,2.445,0,0,0-.6-1.838A2.39,2.39,0,0,0-5.31,22.666ZM8.445,19.15l.161,1.86a5.375,5.375,0,0,1,4.526-2.153,4.522,4.522,0,0,1,3.7,1.479A7.044,7.044,0,0,1,18.1,24.79V35H13.147V25a2.675,2.675,0,0,0-.483-1.765,2.236,2.236,0,0,0-1.758-.564,2.354,2.354,0,0,0-2.153,1.143V35H3.816V19.15ZM28.5,35.293a8.148,8.148,0,0,1-5.9-2.175,7.512,7.512,0,0,1-2.256-5.662v-.41a9.734,9.734,0,0,1,.9-4.292,6.592,6.592,0,0,1,2.629-2.878,7.938,7.938,0,0,1,4.1-1.018,6.861,6.861,0,0,1,5.273,2.073,8.145,8.145,0,0,1,1.934,5.779v1.919H25.364a3.558,3.558,0,0,0,1.157,2.095,3.443,3.443,0,0,0,2.314.762A4.437,4.437,0,0,0,32.5,29.844l2.256,2.666a6.306,6.306,0,0,1-2.615,2.029A8.836,8.836,0,0,1,28.5,35.293Zm-.557-12.627q-2.168,0-2.578,2.871h4.98v-.381a2.445,2.445,0,0,0-.6-1.838A2.39,2.39,0,0,0,27.942,22.666Zm17.52,7.881a1.14,1.14,0,0,0-.659-1.011,10.027,10.027,0,0,0-2.5-.791,11.422,11.422,0,0,1-3.047-1.077,5.1,5.1,0,0,1-1.831-1.619,3.865,3.865,0,0,1-.63-2.183,4.381,4.381,0,0,1,1.8-3.6,7.422,7.422,0,0,1,4.717-1.414,8.223,8.223,0,0,1,5.039,1.421,4.443,4.443,0,0,1,1.9,3.735H45.3q0-1.9-2.007-1.9a1.989,1.989,0,0,0-1.3.432,1.338,1.338,0,0,0-.527,1.077,1.228,1.228,0,0,0,.645,1.069,6.09,6.09,0,0,0,2.058.674,17.785,17.785,0,0,1,2.483.63q3.574,1.23,3.574,4.409a4.151,4.151,0,0,1-1.926,3.53,8.447,8.447,0,0,1-4.988,1.362,8.62,8.62,0,0,1-3.633-.732,6.075,6.075,0,0,1-2.49-1.992,4.511,4.511,0,0,1-.894-2.651h4.614a1.908,1.908,0,0,0,.732,1.6,3.013,3.013,0,0,0,1.8.505,2.37,2.37,0,0,0,1.516-.41A1.312,1.312,0,0,0,45.461,30.547Z" transform="translate(1220 6132)" fill="#12263f"/>
    <g id="Grupo_87735" data-name="Grupo 87735" transform="translate(34.5 -300.324)">
      <path id="Trazado_111241" data-name="Trazado 111241" d="M123.266,42.779A101.766,101.766,0,1,1,21.5,144.545,101.766,101.766,0,0,1,123.266,42.779" transform="translate(1062 6504)" fill="#fff6ce"/>
      <path id="Trazado_111242" data-name="Trazado 111242" d="M123.266,246.311a102.137,102.137,0,0,0,21.034-2.182c-1.056-5.888-1.979-10.476-2.692-13.468l-1.4-12.775-.839.079c-3.606-7.34-12.886-6.726-22-3.832-9.051-2.767-18.193-3.244-21.718,4.051l-.84-.074-1.292,12.5c-.581,2.505-1.19,6.129-1.826,10.7a101.644,101.644,0,0,0,31.573,5" transform="translate(1062 6504)" fill="#d8c295"/>
      <path id="Trazado_111243" data-name="Trazado 111243" d="M121.028,232.877l-5.965,1.2.726,11.96q2.689.2,5.418.248Z" transform="translate(1062 6504)" fill="#c6ad81"/>
      <path id="Trazado_111244" data-name="Trazado 111244" d="M151.062,83.542s11.193,4.6,7.424,13.442l6.925,8.112-7.261,3.3-3.752-4.753s-1.643,4.457-6.67.462,3.334-20.563,3.334-20.563" transform="translate(1062 6504)" fill="#e5ab93"/>
      <path id="Trazado_111245" data-name="Trazado 111245" d="M128.385,69.93l26.32,21.364s2.626,1.3.9,4.538-7.048,12.639-7.048,12.639-1.4,2.451-3.77,1.477-24.009-19.627-24.009-19.627Z" transform="translate(1062 6504)" fill="#2b3838"/>
      <path id="Trazado_111246" data-name="Trazado 111246" d="M154.705,91.294,128.387,69.93l-.87,2.331L151.3,91.686s2.626,1.3.9,4.539-7.048,12.638-7.048,12.638a4.181,4.181,0,0,1-.744.891,3.634,3.634,0,0,0,.384.194c2.365.975,3.77-1.477,3.77-1.477s5.319-9.4,7.048-12.639-.9-4.538-.9-4.538" transform="translate(1062 6504)" fill="#1e2828"/>
      <path id="Trazado_111247" data-name="Trazado 111247" d="M126.806,73.761c.115.092,22.216,18.172,22.216,18.172l-7.169,13.6L121.5,88.433Z" transform="translate(1062 6504)" fill="#6e7c7c"/>
      <g id="Grupo_87729" data-name="Grupo 87729" transform="translate(1062 6504)" opacity="0.2" style="isolation: isolate">
        <g id="Grupo_87728" data-name="Grupo 87728">
          <g id="Grupo_87727" data-name="Grupo 87727" clip-path="url(#clip-path)">
            <path id="Trazado_111248" data-name="Trazado 111248" d="M145.857,99.619a1.7,1.7,0,1,0,2.32-1.288,1.9,1.9,0,0,0-2.32,1.288" fill="#6e7c7c"/>
          </g>
        </g>
      </g>
      <path id="Trazado_111249" data-name="Trazado 111249" d="M142.022,84.577s-1.4-1.956,3.872-4.743a1.7,1.7,0,0,1,2.1,1c.553,1.47-4.666,6.127-5.972,3.743" transform="translate(1062 6504)" fill="#ffbfa1"/>
      <path id="Trazado_111250" data-name="Trazado 111250" d="M145.715,88.057s-3.026-2.1,2.938-7.135a2.945,2.945,0,0,1,3.5.693c1.565,1.714-3.323,9.116-6.438,6.442" transform="translate(1062 6504)" fill="#ffbfa1"/>
      <path id="Trazado_111251" data-name="Trazado 111251" d="M148.85,90.557s-2.516-1.769,2.515-6.108a2.417,2.417,0,0,1,2.923.562c1.291,1.45-2.857,7.8-5.438,5.546" transform="translate(1062 6504)" fill="#ffbfa1"/>
      <path id="Trazado_111252" data-name="Trazado 111252" d="M86,102.494c1.529-5.224-2.467-11.615-5.009-15.886-2.123-1.513-4.8-2.4-7.563-.662-6.182,3.891,2.443,20.373,12.313,15.548Z" transform="translate(1062 6504)" fill="#ffbfa1"/>
      <path id="Trazado_111253" data-name="Trazado 111253" d="M75.1,88.584c3.489-2.319,6.963,2.9,7.482,3.72-2.222,2.068-1.98,5.665.074,7.149-5.912,2.424-11.258-8.409-7.556-10.869" transform="translate(1062 6504)" fill="#d69f8a"/>
      <path id="Trazado_111254" data-name="Trazado 111254" d="M124.581,110.731l-1.366,35.984L94.946,133.077,88.533,104.6Z" transform="translate(1062 6504)" fill="#d69f8a"/>
      <path id="Trazado_111255" data-name="Trazado 111255" d="M81.411,71.48c.666-6.828-5.917-7.89,17.5-14.282,8.118-2.215,19.492-.246,19.492-.246s15.308,44.972,13.565,51.35c-1.444,5.28-7.11,13.606-15.255,14.979s-23.843.483-26.131-8.2c-.513-1.947-9.171-43.6-9.171-43.6" transform="translate(1062 6504)" fill="#ffbfa1"/>
      <path id="Trazado_111256" data-name="Trazado 111256" d="M123.215,101.675,101.633,104.8s4.17,5.222,12.763,4.183,8.819-7.308,8.819-7.308" transform="translate(1062 6504)" fill="#a05252"/>
      <path id="Trazado_111257" data-name="Trazado 111257" d="M103.131,106.191a11,11,0,0,1,4.7-1.27,17.8,17.8,0,0,1,10.807,2.887,7.633,7.633,0,0,0,4.579-6.133L101.635,104.8a9.435,9.435,0,0,0,1.5,1.391" transform="translate(1062 6504)" fill="#472626"/>
      <path id="Trazado_111258" data-name="Trazado 111258" d="M153.04,143.692s-9.99,55.119-12.173,80.2c0,0-10.244,4.467-29.294,4.389-13.457-.055-17.439-2.841-17.439-2.841L61.495,139.593a288.816,288.816,0,0,1,40.159-4.653l9.833,8.621s2.316-7.067,7.357-8.645c7.739.254,25.142.882,34.2,2.057Z" transform="translate(1062 6504)" fill="#d2f9f3"/>
      <path id="Trazado_111259" data-name="Trazado 111259" d="M54.982,199.042l35.374-40.475L61.494,139.592,37.688,190.63Z" transform="translate(1062 6504)" fill="#d2f9f3"/>
      <path id="Trazado_111260" data-name="Trazado 111260" d="M153.039,136.973l24.019,2.587,4.261,3.35c3.458,3.608,6.8,1.368,10.319,4.914-3.737,10.35-3.352,16.518-6.16,16.84-14.278,1.631-52.045,8.835-52.045,8.835Z" transform="translate(1062 6504)" fill="#d2f9f3"/>
      <path id="Trazado_111261" data-name="Trazado 111261" d="M133.432,227.278c3.873-.86,7.092-1.7,7.135-1.717,1.132-.378,1.527.57,1.678,1.674.2,1.457.366,2.081-.651,2.4-.186.058-3.363.988-7.217,1.938q-.477-2.146-.945-4.295" transform="translate(1062 6504)" fill="#845d2f"/>
      <path id="Trazado_111262" data-name="Trazado 111262" d="M105.582,228.941a127.776,127.776,0,0,0,14.194.107,77.641,77.641,0,0,0,10.459-1.136,18.6,18.6,0,0,0,.466,4.456,73.946,73.946,0,0,1-10.74,1.214q-2.5.1-4.9.1c-3.574,0-6.87-.128-9.968-.411a20.283,20.283,0,0,0,.489-4.33" transform="translate(1062 6504)" fill="#845d2f"/>
      <path id="Trazado_111263" data-name="Trazado 111263" d="M92.894,228.792c.2-1.1.317-2.075,1.462-1.73a48.033,48.033,0,0,0,8.385,1.63c-.073,1.43-.267,2.849-.466,4.268a48.5,48.5,0,0,1-8.8-1.928c-.8-.266-.782-1.128-.581-2.24" transform="translate(1062 6504)" fill="#845d2f"/>
      <path id="Trazado_111264" data-name="Trazado 111264" d="M112.681,228.525v5.814l10.05-.659v-5.394Zm1.7.945,6.643-.158v3.566l-6.643.435Z" transform="translate(1062 6504)" fill="#adadad"/>
      <path id="Trazado_111265" data-name="Trazado 111265" d="M112.5,142.909l-3.8-7.992-5.367,2.758Z" transform="translate(1062 6504)" fill="#a7cec7"/>
      <path id="Trazado_111266" data-name="Trazado 111266" d="M111.889,135.556l-1.035,8,4.892-5.816Z" transform="translate(1062 6504)" fill="#a7cec7"/>
      <path id="Trazado_111267" data-name="Trazado 111267" d="M127.614,134.568l-8.106,9.46-7.618-8.471,11.036-6.353Z" transform="translate(1062 6504)" fill="#c5eae3"/>
      <path id="Trazado_111268" data-name="Trazado 111268" d="M88.535,133.879l13.881,10,6.279-8.962L93.18,128.379Z" transform="translate(1062 6504)" fill="#c5eae3"/>
      <path id="Trazado_111269" data-name="Trazado 111269" d="M105.611,138.029a35.543,35.543,0,0,0,8.537,0l3.087,3.3-3.1,4.216,19.416,60.583-10.94,12.065L107.6,209.986l.638-63.786-4.663-4.967Z" transform="translate(1062 6504)" fill="#00323b"/>
      <path id="Trazado_111270" data-name="Trazado 111270" d="M37.688,190.63s9.281,23.393,44.841,34.846l4.8-11.946a113.491,113.491,0,0,1-28.4-26.04Z" transform="translate(1062 6504)" fill="#d2f9f3"/>
      <path id="Trazado_111272" data-name="Trazado 111272" d="M136.324,108.668c-1.155-10.236-4.458-12.159-8.454-21.275,0,0,4.21,20.2-2.937,24.748s-8.061-1.662-8.061-1.662l-3.453.836s.984,4.385-4.045,5.493-15.039,2.56-20.436-18.893c-1.268-6.083-2.388-14.55-2.388-14.55a29.885,29.885,0,0,0-.742-19.341s5.372-3.1,14.935-.31c11,3.212,25.989,4.08,29.173-13.582,0,0-2.917,6.213-7.269,8.057,0,0,8.552-7.648,3.288-17.666a10.024,10.024,0,0,1-.321,5.276c.472-3.627-.828-8.192-6.988-12.926,0,0,3.537,4.745,1.938,6.789,0,0,.075-11.579-14.2-8.95,1.628-.247,9.569-1.014,8.356,7.8-1.08,7.851-34.546-9.961-37.729,14.41,0,0-12.386,3.146-5.636,14.99C78.531,80.5,81.03,86.263,84.739,96.043c0,0,2.6,15.345,3.466,22.641s12.088,12.958,22.62,13.165l-2.6-1.73a28.185,28.185,0,0,0,10.43,2.956s7.779-3.959,11.47-11.117l-.622,3.685s7.977-6.738,6.821-16.975" transform="translate(1062 6504)" fill="#ba6b31"/>
      <path id="Trazado_111273" data-name="Trazado 111273" d="M96.38,72.034c5.313-.2,9.81,4.644,10.045,10.825s-3.881,11.355-9.194,11.557-9.81-4.645-10.045-10.825,3.881-11.355,9.194-11.557" transform="translate(1062 6504)" fill="#c0e2dc"/>
      <path id="Trazado_111274" data-name="Trazado 111274" d="M96.38,72.034c5.313-.2,9.81,4.644,10.045,10.825s-3.881,11.355-9.194,11.557-9.81-4.645-10.045-10.825S91.067,72.236,96.38,72.034Z" transform="translate(1062 6504)" fill="none" stroke="#724d35" stroke-miterlimit="9.997" stroke-width="1.99"/>
      <path id="Trazado_111275" data-name="Trazado 111275" d="M112.72,79.261c.237,6.182,4.738,11.029,10.051,10.825s9.429-5.381,9.192-11.563S127.226,67.5,121.913,67.7s-9.43,5.38-9.193,11.563" transform="translate(1062 6504)" fill="#c0e2dc"/>
      <path id="Trazado_111276" data-name="Trazado 111276" d="M112.72,79.261c.237,6.182,4.738,11.029,10.051,10.825s9.429-5.381,9.192-11.563S127.226,67.5,121.913,67.7,112.483,73.078,112.72,79.261Z" transform="translate(1062 6504)" fill="none" stroke="#724d35" stroke-miterlimit="10" stroke-width="1.991"/>
      <path id="Trazado_111277" data-name="Trazado 111277" d="M108.695,78.891s8.283,6.756,10.6,14.853l-6.886,3.034Z" transform="translate(1062 6504)" fill="#d69f8a"/>
      <path id="Trazado_111278" data-name="Trazado 111278" d="M125.162,95.333c-2.1-1.024-10.4.875-12.75,1.446-3.279.1-9.985.462-11.532,1.79-2.068,1.775-.683,6.032-.683,6.032-.179-2.662,9.849-1.674,12.872-3.01a3.43,3.43,0,0,0,.626-.364,3.643,3.643,0,0,0,.436.106c3.262.53,12.716-2.957,13.215-.336,0,0,.264-4.469-2.184-5.664" transform="translate(1062 6504)" fill="#ba6b31"/>
      <path id="Trazado_111279" data-name="Trazado 111279" d="M106.416,82.419s2.22-4.193,6.694-1.244" transform="translate(1062 6504)" fill="none" stroke="#724d35" stroke-miterlimit="10" stroke-width="2.002"/>
      <line id="Línea_356" data-name="Línea 356" y1="0.431" x2="9.376" transform="translate(1139.988 6589.278)" fill="none" stroke="#724d35" stroke-miterlimit="10" stroke-width="2.138"/>
      <path id="Trazado_111280" data-name="Trazado 111280" d="M74.3,86.888c2.66-.1,5.589,1.784,7.909,2.677-.3-.511-.935-2.49-1.212-2.956-2.123-1.513-4.8-2.4-7.563-.662a4.082,4.082,0,0,0-1.245,1.234,10.808,10.808,0,0,1,2.111-.293" transform="translate(1062 6504)" fill="#ffbfa1"/>
      <path id="Trazado_111281" data-name="Trazado 111281" d="M93.819,86.309s-.572-5.815,2.064-6.015,4.153,5.528,4.153,5.528" transform="translate(1062 6504)" fill="none" stroke="#2b2d2d" stroke-miterlimit="10" stroke-width="1.737"/>
      <path id="Trazado_111282" data-name="Trazado 111282" d="M119.35,81.974s-.572-5.814,2.064-6.015,4.153,5.528,4.153,5.528" transform="translate(1062 6504)" fill="none" stroke="#2b2d2d" stroke-miterlimit="10" stroke-width="1.737"/>
      <path id="Trazado_111283" data-name="Trazado 111283" d="M104.576,221.908s3.833.724,2.2-1.4c-1.5-1.953-6.373-3.235-9.589-1.983a13.355,13.355,0,0,1,7.061-1.175s2.223-.343-.261-2.272c-2.23-1.734-6.3-1-11.068,2.352-.125-2.306-.547-5.473-1.931-5-1.685.574-1.054,4.19-.7,5.721L86.3,216.109l-3.335,8.3s5.429,4.946,10.226,4.038,5.757-5.5,8.5-3.746,7.1,1.948,2.239-1.856c0,0-3.133-1.621-4.371-1.077-.005-.006,2.015-1.741,5.013.14M96.585,218.8c-.07.037-.144.067-.212.107,0,0,.077-.046.212-.108Z" transform="translate(1062 6504)" fill="#ffbfa1"/>
      <path id="Trazado_111284" data-name="Trazado 111284" d="M170.629,142.909l-14.864-34.515,9.646-9.328s37.81,58.67,29.484,62.886a71.762,71.762,0,0,1-9.417,2.711c-26.146,4.98-14.849-21.754-14.849-21.754" transform="translate(1062 6504)" fill="#d2f9f3"/>
      <g id="Grupo_87734" data-name="Grupo 87734" transform="translate(1062 6504)" opacity="0.2">
        <g id="Grupo_87733" data-name="Grupo 87733">
          <g id="Grupo_87732" data-name="Grupo 87732" clip-path="url(#clip-path-2)">
            <g id="Grupo_87731" data-name="Grupo 87731">
              <g id="Grupo_87730" data-name="Grupo 87730" clip-path="url(#clip-path-3)">
                <path id="Trazado_111285" data-name="Trazado 111285" d="M94.735,120.239a.615.615,0,1,1-.708-.5.615.615,0,0,1,.708.5" fill="#d2f9f3"/>
                <path id="Trazado_111286" data-name="Trazado 111286" d="M98.932,119.537a.615.615,0,1,1-.708-.505.615.615,0,0,1,.708.505" fill="#d2f9f3"/>
                <path id="Trazado_111287" data-name="Trazado 111287" d="M103.125,118.834a.615.615,0,1,1-.708-.5.615.615,0,0,1,.708.5v0" fill="#d2f9f3"/>
                <path id="Trazado_111288" data-name="Trazado 111288" d="M107.32,118.132a.616.616,0,1,1-.71-.505h0a.616.616,0,0,1,.709.505" fill="#d2f9f3"/>
                <path id="Trazado_111289" data-name="Trazado 111289" d="M111.516,117.432a.616.616,0,1,1-.71-.5h0a.616.616,0,0,1,.709.5" fill="#d2f9f3"/>
                <path id="Trazado_111290" data-name="Trazado 111290" d="M115.709,116.726a.616.616,0,1,1-.71-.5h0a.616.616,0,0,1,.709.5" fill="#d2f9f3"/>
                <path id="Trazado_111291" data-name="Trazado 111291" d="M97.293,122.638a.615.615,0,1,1-.708-.5.615.615,0,0,1,.708.5" fill="#d2f9f3"/>
                <path id="Trazado_111292" data-name="Trazado 111292" d="M101.488,121.932a.615.615,0,1,1-.708-.5.615.615,0,0,1,.708.5" fill="#d2f9f3"/>
                <path id="Trazado_111293" data-name="Trazado 111293" d="M105.683,121.232a.615.615,0,1,1-.708-.505.615.615,0,0,1,.708.505" fill="#d2f9f3"/>
                <path id="Trazado_111294" data-name="Trazado 111294" d="M109.879,120.53a.616.616,0,1,1-.71-.5h0a.616.616,0,0,1,.709.5" fill="#d2f9f3"/>
                <path id="Trazado_111295" data-name="Trazado 111295" d="M114.074,119.828a.616.616,0,1,1-.71-.505h0a.615.615,0,0,1,.709.5h0" fill="#d2f9f3"/>
                <path id="Trazado_111296" data-name="Trazado 111296" d="M118.268,119.125a.616.616,0,1,1-.71-.5h0a.615.615,0,0,1,.709.5h0" fill="#d2f9f3"/>
                <path id="Trazado_111297" data-name="Trazado 111297" d="M95.7,125.992a.615.615,0,1,1-.708-.5.615.615,0,0,1,.708.5" fill="#d2f9f3"/>
                <path id="Trazado_111298" data-name="Trazado 111298" d="M99.894,125.29a.615.615,0,1,1-.708-.5.615.615,0,0,1,.708.5" fill="#d2f9f3"/>
                <path id="Trazado_111299" data-name="Trazado 111299" d="M104.088,124.587a.615.615,0,1,1-.708-.5.615.615,0,0,1,.708.5" fill="#d2f9f3"/>
                <path id="Trazado_111300" data-name="Trazado 111300" d="M108.283,123.884a.615.615,0,1,1-.708-.505.615.615,0,0,1,.708.505v0" fill="#d2f9f3"/>
                <path id="Trazado_111301" data-name="Trazado 111301" d="M112.478,123.182a.616.616,0,1,1-.71-.5h0a.616.616,0,0,1,.709.5" fill="#d2f9f3"/>
                <path id="Trazado_111302" data-name="Trazado 111302" d="M116.673,122.484a.616.616,0,1,1-.71-.505h0a.616.616,0,0,1,.709.505" fill="#d2f9f3"/>
                <path id="Trazado_111303" data-name="Trazado 111303" d="M98.257,128.39a.615.615,0,1,1-.708-.5.615.615,0,0,1,.708.5" fill="#d2f9f3"/>
                <path id="Trazado_111304" data-name="Trazado 111304" d="M102.452,127.688a.615.615,0,1,1-.708-.505.615.615,0,0,1,.708.505" fill="#d2f9f3"/>
                <path id="Trazado_111305" data-name="Trazado 111305" d="M106.647,126.984a.615.615,0,1,1-.708-.506.614.614,0,0,1,.708.506h0" fill="#d2f9f3"/>
                <path id="Trazado_111306" data-name="Trazado 111306" d="M110.841,126.283a.615.615,0,1,1-.708-.5.615.615,0,0,1,.708.5v0" fill="#d2f9f3"/>
                <path id="Trazado_111307" data-name="Trazado 111307" d="M115.037,125.581a.616.616,0,1,1-.71-.505h0a.616.616,0,0,1,.709.505" fill="#d2f9f3"/>
                <path id="Trazado_111308" data-name="Trazado 111308" d="M119.231,124.878a.616.616,0,1,1-.71-.5h0a.615.615,0,0,1,.709.5h0" fill="#d2f9f3"/>
                <path id="Trazado_111309" data-name="Trazado 111309" d="M96.662,131.745a.615.615,0,1,1-.708-.5.615.615,0,0,1,.708.5" fill="#d2f9f3"/>
                <path id="Trazado_111310" data-name="Trazado 111310" d="M100.861,131.042a.615.615,0,1,1-.708-.505.615.615,0,0,1,.708.505" fill="#d2f9f3"/>
                <path id="Trazado_111311" data-name="Trazado 111311" d="M105.052,130.339a.615.615,0,1,1-.708-.505.615.615,0,0,1,.708.505" fill="#d2f9f3"/>
                <path id="Trazado_111312" data-name="Trazado 111312" d="M109.247,129.637a.615.615,0,1,1-.708-.5.615.615,0,0,1,.708.5" fill="#d2f9f3"/>
                <path id="Trazado_111313" data-name="Trazado 111313" d="M113.445,128.934a.616.616,0,1,1-.71-.505h0a.616.616,0,0,1,.709.505" fill="#d2f9f3"/>
                <path id="Trazado_111314" data-name="Trazado 111314" d="M117.637,128.231a.616.616,0,1,1-.71-.505h0a.616.616,0,0,1,.709.505" fill="#d2f9f3"/>
                <path id="Trazado_111315" data-name="Trazado 111315" d="M99.22,134.143a.616.616,0,1,1-.71-.505h0a.616.616,0,0,1,.708.505" fill="#d2f9f3"/>
                <path id="Trazado_111316" data-name="Trazado 111316" d="M103.415,133.441a.615.615,0,1,1-.708-.506.614.614,0,0,1,.708.506h0" fill="#d2f9f3"/>
                <path id="Trazado_111317" data-name="Trazado 111317" d="M107.61,132.739a.615.615,0,1,1-.708-.506.614.614,0,0,1,.708.506h0" fill="#d2f9f3"/>
                <path id="Trazado_111318" data-name="Trazado 111318" d="M111.805,132.036a.615.615,0,1,1-.708-.5.615.615,0,0,1,.708.5" fill="#d2f9f3"/>
                <path id="Trazado_111319" data-name="Trazado 111319" d="M116,131.333a.615.615,0,1,1-.708-.5.615.615,0,0,1,.708.5v0" fill="#d2f9f3"/>
                <path id="Trazado_111320" data-name="Trazado 111320" d="M120.195,130.631a.616.616,0,1,1-.71-.5h0a.616.616,0,0,1,.709.5" fill="#d2f9f3"/>
                <path id="Trazado_111321" data-name="Trazado 111321" d="M97.611,137.41a.615.615,0,1,1-.708-.505.615.615,0,0,1,.708.505" fill="#d2f9f3"/>
                <path id="Trazado_111322" data-name="Trazado 111322" d="M101.806,136.707a.615.615,0,1,1-.708-.505.615.615,0,0,1,.708.505" fill="#d2f9f3"/>
                <path id="Trazado_111323" data-name="Trazado 111323" d="M106,136.005a.615.615,0,1,1-.708-.505.615.615,0,0,1,.708.505" fill="#d2f9f3"/>
                <path id="Trazado_111324" data-name="Trazado 111324" d="M110.2,135.3a.615.615,0,1,1-.708-.505.615.615,0,0,1,.708.505" fill="#d2f9f3"/>
                <path id="Trazado_111325" data-name="Trazado 111325" d="M114.391,134.6a.616.616,0,1,1-.709-.506.615.615,0,0,1,.709.506" fill="#d2f9f3"/>
                <path id="Trazado_111326" data-name="Trazado 111326" d="M118.588,133.9a.616.616,0,1,1-.71-.5h0a.616.616,0,0,1,.709.5" fill="#d2f9f3"/>
                <path id="Trazado_111327" data-name="Trazado 111327" d="M100.169,139.809a.616.616,0,1,1-.71-.505h0a.615.615,0,0,1,.708.505" fill="#d2f9f3"/>
                <path id="Trazado_111328" data-name="Trazado 111328" d="M104.364,139.109a.615.615,0,1,1-.708-.5.615.615,0,0,1,.708.5" fill="#d2f9f3"/>
                <path id="Trazado_111329" data-name="Trazado 111329" d="M108.559,138.4a.615.615,0,1,1-.708-.505.615.615,0,0,1,.708.505" fill="#d2f9f3"/>
                <path id="Trazado_111330" data-name="Trazado 111330" d="M112.754,137.7a.615.615,0,1,1-.708-.505.615.615,0,0,1,.708.505" fill="#d2f9f3"/>
                <path id="Trazado_111331" data-name="Trazado 111331" d="M116.948,137a.616.616,0,1,1-.71-.505h0a.615.615,0,0,1,.709.5h0" fill="#d2f9f3"/>
                <path id="Trazado_111332" data-name="Trazado 111332" d="M121.144,136.3a.616.616,0,1,1-.71-.505h0a.617.617,0,0,1,.709.505" fill="#d2f9f3"/>
                <path id="Trazado_111333" data-name="Trazado 111333" d="M98.574,143.163a.616.616,0,1,1-.71-.5h0a.616.616,0,0,1,.708.5" fill="#d2f9f3"/>
                <path id="Trazado_111334" data-name="Trazado 111334" d="M102.769,142.46a.615.615,0,1,1-.708-.505.615.615,0,0,1,.708.505" fill="#d2f9f3"/>
                <path id="Trazado_111335" data-name="Trazado 111335" d="M106.964,141.757a.615.615,0,1,1-.708-.505.615.615,0,0,1,.708.505" fill="#d2f9f3"/>
                <path id="Trazado_111336" data-name="Trazado 111336" d="M111.159,141.056a.615.615,0,1,1-.708-.506.614.614,0,0,1,.708.506h0" fill="#d2f9f3"/>
                <path id="Trazado_111337" data-name="Trazado 111337" d="M115.354,140.353a.615.615,0,1,1-.708-.506.614.614,0,0,1,.708.506v0" fill="#d2f9f3"/>
                <path id="Trazado_111338" data-name="Trazado 111338" d="M119.55,139.65a.616.616,0,1,1-.71-.5h0a.616.616,0,0,1,.709.5" fill="#d2f9f3"/>
                <path id="Trazado_111339" data-name="Trazado 111339" d="M101.137,145.562a.616.616,0,1,1-.71-.5h0a.615.615,0,0,1,.709.5h0" fill="#d2f9f3"/>
                <path id="Trazado_111340" data-name="Trazado 111340" d="M105.328,144.859a.615.615,0,1,1-.708-.5.615.615,0,0,1,.708.5" fill="#d2f9f3"/>
                <path id="Trazado_111341" data-name="Trazado 111341" d="M109.522,144.161a.615.615,0,1,1-.708-.5.615.615,0,0,1,.708.5" fill="#d2f9f3"/>
                <path id="Trazado_111342" data-name="Trazado 111342" d="M113.72,143.454a.615.615,0,1,1-.708-.5.615.615,0,0,1,.708.5" fill="#d2f9f3"/>
                <path id="Trazado_111343" data-name="Trazado 111343" d="M117.912,142.751a.615.615,0,1,1-.708-.505.615.615,0,0,1,.708.505" fill="#d2f9f3"/>
                <path id="Trazado_111344" data-name="Trazado 111344" d="M122.107,142.048a.616.616,0,1,1-.71-.505h0a.616.616,0,0,1,.709.505" fill="#d2f9f3"/>
                <path id="Trazado_111345" data-name="Trazado 111345" d="M99.538,148.915a.616.616,0,1,1-.71-.5h0a.616.616,0,0,1,.709.5" fill="#d2f9f3"/>
                <path id="Trazado_111346" data-name="Trazado 111346" d="M103.733,148.213a.616.616,0,1,1-.71-.505h0a.616.616,0,0,1,.708.505" fill="#d2f9f3"/>
                <path id="Trazado_111347" data-name="Trazado 111347" d="M107.928,147.51a.615.615,0,1,1-.708-.5.615.615,0,0,1,.708.5" fill="#d2f9f3"/>
                <path id="Trazado_111348" data-name="Trazado 111348" d="M112.123,146.808a.615.615,0,1,1-.708-.505.615.615,0,0,1,.708.505" fill="#d2f9f3"/>
                <path id="Trazado_111349" data-name="Trazado 111349" d="M116.317,146.106a.615.615,0,1,1-.708-.505.615.615,0,0,1,.708.505" fill="#d2f9f3"/>
                <path id="Trazado_111350" data-name="Trazado 111350" d="M120.512,145.4a.615.615,0,1,1-.708-.505.615.615,0,0,1,.708.505v0" fill="#d2f9f3"/>
                <path id="Trazado_111351" data-name="Trazado 111351" d="M102.1,151.314a.616.616,0,1,1-.71-.5h0a.615.615,0,0,1,.709.5h0" fill="#d2f9f3"/>
                <path id="Trazado_111352" data-name="Trazado 111352" d="M106.29,150.612a.616.616,0,1,1-.71-.505h0a.615.615,0,0,1,.708.505" fill="#d2f9f3"/>
                <path id="Trazado_111353" data-name="Trazado 111353" d="M110.486,149.909a.615.615,0,1,1-.708-.5.615.615,0,0,1,.708.5" fill="#d2f9f3"/>
                <path id="Trazado_111354" data-name="Trazado 111354" d="M114.681,149.207a.615.615,0,1,1-.708-.505.615.615,0,0,1,.708.505" fill="#d2f9f3"/>
                <path id="Trazado_111355" data-name="Trazado 111355" d="M118.875,148.5a.615.615,0,1,1-.708-.505.615.615,0,0,1,.708.505" fill="#d2f9f3"/>
                <path id="Trazado_111356" data-name="Trazado 111356" d="M123.07,147.8a.615.615,0,1,1-.708-.5.615.615,0,0,1,.708.5" fill="#d2f9f3"/>
                <path id="Trazado_111357" data-name="Trazado 111357" d="M100.487,154.581a.616.616,0,1,1-.71-.5h0a.616.616,0,0,1,.709.5" fill="#d2f9f3"/>
                <path id="Trazado_111358" data-name="Trazado 111358" d="M104.682,153.879a.616.616,0,1,1-.71-.505h0a.615.615,0,0,1,.708.505" fill="#d2f9f3"/>
                <path id="Trazado_111359" data-name="Trazado 111359" d="M108.877,153.176a.615.615,0,1,1-.708-.5.615.615,0,0,1,.708.5" fill="#d2f9f3"/>
                <path id="Trazado_111360" data-name="Trazado 111360" d="M113.071,152.474a.615.615,0,1,1-.708-.505.615.615,0,0,1,.708.505" fill="#d2f9f3"/>
                <path id="Trazado_111361" data-name="Trazado 111361" d="M117.266,151.771a.615.615,0,1,1-.708-.5.615.615,0,0,1,.708.5" fill="#d2f9f3"/>
                <path id="Trazado_111362" data-name="Trazado 111362" d="M121.461,151.068a.615.615,0,1,1-.708-.5.615.615,0,0,1,.708.5" fill="#d2f9f3"/>
                <path id="Trazado_111363" data-name="Trazado 111363" d="M103.045,156.98a.616.616,0,1,1-.71-.5h0a.615.615,0,0,1,.709.5h0" fill="#d2f9f3"/>
                <path id="Trazado_111364" data-name="Trazado 111364" d="M107.24,156.277a.616.616,0,1,1-.71-.5h0a.616.616,0,0,1,.708.5" fill="#d2f9f3"/>
                <path id="Trazado_111365" data-name="Trazado 111365" d="M111.435,155.575a.615.615,0,1,1-.708-.5.615.615,0,0,1,.708.5" fill="#d2f9f3"/>
                <path id="Trazado_111366" data-name="Trazado 111366" d="M115.629,154.872a.615.615,0,1,1-.708-.5.615.615,0,0,1,.708.5" fill="#d2f9f3"/>
                <path id="Trazado_111367" data-name="Trazado 111367" d="M119.824,154.172a.615.615,0,1,1-.708-.5.615.615,0,0,1,.708.5" fill="#d2f9f3"/>
                <path id="Trazado_111368" data-name="Trazado 111368" d="M124.019,153.467a.615.615,0,1,1-.708-.5.615.615,0,0,1,.708.5v0" fill="#d2f9f3"/>
                <path id="Trazado_111369" data-name="Trazado 111369" d="M101.451,160.334a.616.616,0,1,1-.709-.506.615.615,0,0,1,.709.506v0" fill="#d2f9f3"/>
                <path id="Trazado_111370" data-name="Trazado 111370" d="M105.645,159.632a.616.616,0,1,1-.71-.505h0a.615.615,0,0,1,.709.5h0" fill="#d2f9f3"/>
                <path id="Trazado_111371" data-name="Trazado 111371" d="M109.84,158.929a.616.616,0,1,1-.71-.505h0a.615.615,0,0,1,.708.505" fill="#d2f9f3"/>
                <path id="Trazado_111372" data-name="Trazado 111372" d="M114.035,158.226a.615.615,0,1,1-.708-.505.615.615,0,0,1,.708.505" fill="#d2f9f3"/>
                <path id="Trazado_111373" data-name="Trazado 111373" d="M118.23,157.524a.615.615,0,1,1-.708-.505.615.615,0,0,1,.708.505" fill="#d2f9f3"/>
                <path id="Trazado_111374" data-name="Trazado 111374" d="M122.425,156.821a.615.615,0,1,1-.708-.505.615.615,0,0,1,.708.505" fill="#d2f9f3"/>
                <path id="Trazado_111375" data-name="Trazado 111375" d="M104.008,162.732a.616.616,0,1,1-.71-.5h0a.616.616,0,0,1,.709.5" fill="#d2f9f3"/>
                <path id="Trazado_111376" data-name="Trazado 111376" d="M108.2,162.03a.616.616,0,1,1-.71-.505h0a.616.616,0,0,1,.709.505" fill="#d2f9f3"/>
                <path id="Trazado_111377" data-name="Trazado 111377" d="M112.4,161.327a.616.616,0,1,1-.71-.5h0a.616.616,0,0,1,.708.5" fill="#d2f9f3"/>
                <path id="Trazado_111378" data-name="Trazado 111378" d="M116.593,160.624a.615.615,0,1,1-.708-.5.615.615,0,0,1,.708.5" fill="#d2f9f3"/>
                <path id="Trazado_111379" data-name="Trazado 111379" d="M120.788,159.923a.615.615,0,1,1-.708-.505.615.615,0,0,1,.708.505" fill="#d2f9f3"/>
                <path id="Trazado_111380" data-name="Trazado 111380" d="M124.983,159.224a.615.615,0,1,1-.708-.505.615.615,0,0,1,.708.505" fill="#d2f9f3"/>
                <path id="Trazado_111381" data-name="Trazado 111381" d="M102.414,166.087a.616.616,0,1,1-.71-.505h0a.616.616,0,0,1,.709.505" fill="#d2f9f3"/>
                <path id="Trazado_111382" data-name="Trazado 111382" d="M106.609,165.384a.616.616,0,1,1-.71-.505h0a.615.615,0,0,1,.709.5h0" fill="#d2f9f3"/>
                <path id="Trazado_111383" data-name="Trazado 111383" d="M110.8,164.681a.616.616,0,1,1-.71-.505h0a.615.615,0,0,1,.709.5h0" fill="#d2f9f3"/>
                <path id="Trazado_111384" data-name="Trazado 111384" d="M115,163.979a.616.616,0,1,1-.71-.505h0a.615.615,0,0,1,.708.505" fill="#d2f9f3"/>
                <path id="Trazado_111385" data-name="Trazado 111385" d="M119.193,163.276a.615.615,0,1,1-.708-.505.615.615,0,0,1,.708.505" fill="#d2f9f3"/>
                <path id="Trazado_111386" data-name="Trazado 111386" d="M123.388,162.574a.615.615,0,1,1-.708-.505.615.615,0,0,1,.708.505" fill="#d2f9f3"/>
                <path id="Trazado_111387" data-name="Trazado 111387" d="M104.972,168.485a.616.616,0,1,1-.71-.505h0a.616.616,0,0,1,.709.505" fill="#d2f9f3"/>
                <path id="Trazado_111388" data-name="Trazado 111388" d="M109.167,167.782a.616.616,0,1,1-.71-.505h0a.616.616,0,0,1,.709.505" fill="#d2f9f3"/>
                <path id="Trazado_111389" data-name="Trazado 111389" d="M113.362,167.081a.616.616,0,1,1-.709-.506.615.615,0,0,1,.709.506v0" fill="#d2f9f3"/>
                <path id="Trazado_111390" data-name="Trazado 111390" d="M117.556,166.378a.616.616,0,1,1-.71-.505h0a.615.615,0,0,1,.708.505" fill="#d2f9f3"/>
                <path id="Trazado_111391" data-name="Trazado 111391" d="M121.751,165.675a.615.615,0,1,1-.708-.505.615.615,0,0,1,.708.505" fill="#d2f9f3"/>
                <path id="Trazado_111392" data-name="Trazado 111392" d="M125.946,164.973a.615.615,0,1,1-.708-.505.615.615,0,0,1,.708.505" fill="#d2f9f3"/>
                <path id="Trazado_111393" data-name="Trazado 111393" d="M103.363,171.752a.616.616,0,1,1-.71-.505h0a.616.616,0,0,1,.709.505" fill="#d2f9f3"/>
                <path id="Trazado_111394" data-name="Trazado 111394" d="M107.557,171.05a.616.616,0,1,1-.71-.505h0a.615.615,0,0,1,.709.5h0" fill="#d2f9f3"/>
                <path id="Trazado_111395" data-name="Trazado 111395" d="M111.752,170.347a.616.616,0,1,1-.71-.505h0a.616.616,0,0,1,.709.505" fill="#d2f9f3"/>
                <path id="Trazado_111396" data-name="Trazado 111396" d="M115.947,169.644a.616.616,0,1,1-.71-.5h0a.616.616,0,0,1,.708.5" fill="#d2f9f3"/>
                <path id="Trazado_111397" data-name="Trazado 111397" d="M120.142,168.943a.615.615,0,1,1-.708-.506.614.614,0,0,1,.708.506h0" fill="#d2f9f3"/>
                <path id="Trazado_111398" data-name="Trazado 111398" d="M124.337,168.24a.615.615,0,1,1-.708-.506.614.614,0,0,1,.708.506h0" fill="#d2f9f3"/>
                <path id="Trazado_111399" data-name="Trazado 111399" d="M105.921,174.151a.616.616,0,1,1-.709-.506.615.615,0,0,1,.709.506" fill="#d2f9f3"/>
                <path id="Trazado_111400" data-name="Trazado 111400" d="M110.116,173.449a.616.616,0,1,1-.709-.506.615.615,0,0,1,.709.506v0" fill="#d2f9f3"/>
                <path id="Trazado_111401" data-name="Trazado 111401" d="M114.311,172.746a.616.616,0,1,1-.71-.505h0a.615.615,0,0,1,.709.5h0" fill="#d2f9f3"/>
                <path id="Trazado_111402" data-name="Trazado 111402" d="M118.5,172.043a.616.616,0,1,1-.71-.505h0a.615.615,0,0,1,.708.505" fill="#d2f9f3"/>
                <path id="Trazado_111403" data-name="Trazado 111403" d="M122.7,171.341a.615.615,0,1,1-.708-.505.615.615,0,0,1,.708.505" fill="#d2f9f3"/>
                <path id="Trazado_111404" data-name="Trazado 111404" d="M126.895,170.638a.615.615,0,1,1-.708-.505.615.615,0,0,1,.708.505" fill="#d2f9f3"/>
                <path id="Trazado_111405" data-name="Trazado 111405" d="M104.325,177.5a.616.616,0,1,1-.71-.505h0a.615.615,0,0,1,.709.5h0" fill="#d2f9f3"/>
                <path id="Trazado_111406" data-name="Trazado 111406" d="M108.521,176.8a.616.616,0,1,1-.71-.505h0a.616.616,0,0,1,.709.505" fill="#d2f9f3"/>
                <path id="Trazado_111407" data-name="Trazado 111407" d="M112.716,176.1a.616.616,0,1,1-.71-.505h0a.616.616,0,0,1,.709.505" fill="#d2f9f3"/>
                <path id="Trazado_111408" data-name="Trazado 111408" d="M116.911,175.4a.616.616,0,1,1-.71-.505h0a.616.616,0,0,1,.709.505" fill="#d2f9f3"/>
                <path id="Trazado_111409" data-name="Trazado 111409" d="M121.106,174.7a.615.615,0,1,1-.708-.506.614.614,0,0,1,.708.506h0" fill="#d2f9f3"/>
                <path id="Trazado_111410" data-name="Trazado 111410" d="M125.3,173.992a.615.615,0,1,1-.708-.505.615.615,0,0,1,.708.505" fill="#d2f9f3"/>
                <path id="Trazado_111411" data-name="Trazado 111411" d="M106.884,179.9a.616.616,0,1,1-.71-.505h0a.616.616,0,0,1,.709.505" fill="#d2f9f3"/>
                <path id="Trazado_111412" data-name="Trazado 111412" d="M111.079,179.2a.616.616,0,1,1-.71-.505h0a.616.616,0,0,1,.709.505" fill="#d2f9f3"/>
                <path id="Trazado_111413" data-name="Trazado 111413" d="M115.274,178.5a.616.616,0,1,1-.71-.5h0a.615.615,0,0,1,.709.5h0" fill="#d2f9f3"/>
                <path id="Trazado_111414" data-name="Trazado 111414" d="M119.469,177.8a.616.616,0,1,1-.71-.505h0a.615.615,0,0,1,.709.5h0" fill="#d2f9f3"/>
                <path id="Trazado_111415" data-name="Trazado 111415" d="M123.664,177.093a.616.616,0,1,1-.71-.505h0a.616.616,0,0,1,.708.505" fill="#d2f9f3"/>
                <path id="Trazado_111416" data-name="Trazado 111416" d="M127.858,176.391a.615.615,0,1,1-.708-.505.615.615,0,0,1,.708.505" fill="#d2f9f3"/>
                <path id="Trazado_111417" data-name="Trazado 111417" d="M105.289,183.257a.615.615,0,1,1-.708-.505.615.615,0,0,1,.708.505" fill="#d2f9f3"/>
                <path id="Trazado_111418" data-name="Trazado 111418" d="M109.484,182.554a.616.616,0,1,1-.71-.505h0a.616.616,0,0,1,.709.505" fill="#d2f9f3"/>
                <path id="Trazado_111419" data-name="Trazado 111419" d="M113.679,181.852a.616.616,0,1,1-.71-.505h0a.616.616,0,0,1,.709.505" fill="#d2f9f3"/>
                <path id="Trazado_111420" data-name="Trazado 111420" d="M117.873,181.15a.616.616,0,1,1-.709-.506.615.615,0,0,1,.709.506v0" fill="#d2f9f3"/>
                <path id="Trazado_111421" data-name="Trazado 111421" d="M122.069,180.448a.616.616,0,1,1-.71-.505h0a.615.615,0,0,1,.708.505" fill="#d2f9f3"/>
                <path id="Trazado_111422" data-name="Trazado 111422" d="M126.264,179.745a.615.615,0,1,1-.708-.5.615.615,0,0,1,.708.5" fill="#d2f9f3"/>
                <path id="Trazado_111423" data-name="Trazado 111423" d="M107.847,185.657a.615.615,0,1,1-.708-.505.615.615,0,0,1,.708.505v0" fill="#d2f9f3"/>
                <path id="Trazado_111424" data-name="Trazado 111424" d="M112.043,184.954a.616.616,0,1,1-.71-.5h0a.616.616,0,0,1,.709.5" fill="#d2f9f3"/>
                <path id="Trazado_111425" data-name="Trazado 111425" d="M116.238,184.251a.616.616,0,1,1-.71-.505h0a.616.616,0,0,1,.709.505" fill="#d2f9f3"/>
                <path id="Trazado_111426" data-name="Trazado 111426" d="M120.432,183.549a.616.616,0,1,1-.71-.5h0a.616.616,0,0,1,.709.5" fill="#d2f9f3"/>
                <path id="Trazado_111427" data-name="Trazado 111427" d="M124.627,182.846a.616.616,0,1,1-.71-.5h0a.616.616,0,0,1,.709.5" fill="#d2f9f3"/>
                <path id="Trazado_111428" data-name="Trazado 111428" d="M128.822,182.143a.615.615,0,1,1-.708-.505.615.615,0,0,1,.708.505" fill="#d2f9f3"/>
                <path id="Trazado_111429" data-name="Trazado 111429" d="M106.238,188.923a.615.615,0,1,1-.708-.505.615.615,0,0,1,.708.505" fill="#d2f9f3"/>
                <path id="Trazado_111430" data-name="Trazado 111430" d="M110.433,188.22a.616.616,0,1,1-.71-.505h0a.616.616,0,0,1,.709.505" fill="#d2f9f3"/>
                <path id="Trazado_111431" data-name="Trazado 111431" d="M114.628,187.518a.616.616,0,1,1-.71-.505h0a.615.615,0,0,1,.709.5h0" fill="#d2f9f3"/>
                <path id="Trazado_111432" data-name="Trazado 111432" d="M118.823,186.816a.616.616,0,1,1-.71-.5h0a.615.615,0,0,1,.709.5h0" fill="#d2f9f3"/>
                <path id="Trazado_111433" data-name="Trazado 111433" d="M123.017,186.113a.616.616,0,1,1-.71-.505h0a.615.615,0,0,1,.708.505" fill="#d2f9f3"/>
                <path id="Trazado_111434" data-name="Trazado 111434" d="M127.213,185.41a.615.615,0,1,1-.708-.505.615.615,0,0,1,.708.505" fill="#d2f9f3"/>
                <path id="Trazado_111435" data-name="Trazado 111435" d="M108.8,191.322a.615.615,0,1,1-.708-.505.615.615,0,0,1,.708.505v0" fill="#d2f9f3"/>
                <path id="Trazado_111436" data-name="Trazado 111436" d="M112.992,190.619a.616.616,0,1,1-.71-.505h0a.617.617,0,0,1,.709.505" fill="#d2f9f3"/>
                <path id="Trazado_111437" data-name="Trazado 111437" d="M117.186,189.917a.616.616,0,1,1-.71-.505h0a.616.616,0,0,1,.709.505" fill="#d2f9f3"/>
                <path id="Trazado_111438" data-name="Trazado 111438" d="M121.381,189.214a.616.616,0,1,1-.71-.505h0a.616.616,0,0,1,.709.505" fill="#d2f9f3"/>
                <path id="Trazado_111439" data-name="Trazado 111439" d="M125.576,188.511a.616.616,0,1,1-.71-.505h0a.616.616,0,0,1,.709.505" fill="#d2f9f3"/>
                <path id="Trazado_111440" data-name="Trazado 111440" d="M129.771,187.81a.615.615,0,1,1-.708-.505.615.615,0,0,1,.708.505" fill="#d2f9f3"/>
                <path id="Trazado_111441" data-name="Trazado 111441" d="M107.2,194.678a.615.615,0,1,1-.708-.5.615.615,0,0,1,.708.5" fill="#d2f9f3"/>
                <path id="Trazado_111442" data-name="Trazado 111442" d="M111.4,193.974a.615.615,0,1,1-.708-.505.615.615,0,0,1,.708.505v0" fill="#d2f9f3"/>
                <path id="Trazado_111443" data-name="Trazado 111443" d="M115.591,193.271a.616.616,0,1,1-.71-.5h0a.616.616,0,0,1,.709.5" fill="#d2f9f3"/>
                <path id="Trazado_111444" data-name="Trazado 111444" d="M119.782,192.565a.616.616,0,1,1-.71-.505h0a.615.615,0,0,1,.709.5h0" fill="#d2f9f3"/>
                <path id="Trazado_111445" data-name="Trazado 111445" d="M123.981,191.866a.616.616,0,1,1-.71-.505h0a.615.615,0,0,1,.709.5h0" fill="#d2f9f3"/>
                <path id="Trazado_111446" data-name="Trazado 111446" d="M128.176,191.163a.616.616,0,1,1-.71-.5h0a.616.616,0,0,1,.708.5" fill="#d2f9f3"/>
                <path id="Trazado_111447" data-name="Trazado 111447" d="M109.759,197.074a.615.615,0,1,1-.708-.505.615.615,0,0,1,.708.505" fill="#d2f9f3"/>
                <path id="Trazado_111448" data-name="Trazado 111448" d="M113.954,196.372a.615.615,0,1,1-.708-.5.615.615,0,0,1,.708.5" fill="#d2f9f3"/>
                <path id="Trazado_111449" data-name="Trazado 111449" d="M118.15,195.669a.616.616,0,1,1-.71-.505h0a.616.616,0,0,1,.709.505" fill="#d2f9f3"/>
                <path id="Trazado_111450" data-name="Trazado 111450" d="M122.345,194.966a.616.616,0,1,1-.71-.505h0a.616.616,0,0,1,.709.505" fill="#d2f9f3"/>
                <path id="Trazado_111451" data-name="Trazado 111451" d="M126.54,194.265a.616.616,0,1,1-.71-.505h0a.615.615,0,0,1,.709.5h0" fill="#d2f9f3"/>
                <path id="Trazado_111452" data-name="Trazado 111452" d="M130.733,193.562a.616.616,0,1,1-.71-.5h0a.615.615,0,0,1,.708.5" fill="#d2f9f3"/>
                <path id="Trazado_111453" data-name="Trazado 111453" d="M108.165,200.429a.615.615,0,1,1-.708-.506.614.614,0,0,1,.708.506h0" fill="#d2f9f3"/>
                <path id="Trazado_111454" data-name="Trazado 111454" d="M112.36,199.73a.615.615,0,1,1-.708-.5.615.615,0,0,1,.708.5" fill="#d2f9f3"/>
                <path id="Trazado_111455" data-name="Trazado 111455" d="M116.554,199.024a.615.615,0,1,1-.708-.505.615.615,0,0,1,.708.505v0" fill="#d2f9f3"/>
                <path id="Trazado_111456" data-name="Trazado 111456" d="M120.749,198.321a.616.616,0,1,1-.71-.505h0a.616.616,0,0,1,.709.505" fill="#d2f9f3"/>
                <path id="Trazado_111457" data-name="Trazado 111457" d="M124.945,197.617a.616.616,0,1,1-.71-.505h0a.616.616,0,0,1,.709.505" fill="#d2f9f3"/>
                <path id="Trazado_111458" data-name="Trazado 111458" d="M129.14,196.916a.616.616,0,1,1-.71-.505h0a.616.616,0,0,1,.709.505" fill="#d2f9f3"/>
                <path id="Trazado_111459" data-name="Trazado 111459" d="M110.723,202.827a.615.615,0,1,1-.708-.5.615.615,0,0,1,.708.5" fill="#d2f9f3"/>
                <path id="Trazado_111460" data-name="Trazado 111460" d="M114.914,202.124a.615.615,0,1,1-.708-.5.615.615,0,0,1,.708.5" fill="#d2f9f3"/>
                <path id="Trazado_111461" data-name="Trazado 111461" d="M119.112,201.423a.615.615,0,1,1-.708-.506.614.614,0,0,1,.708.506h0" fill="#d2f9f3"/>
                <path id="Trazado_111462" data-name="Trazado 111462" d="M123.307,200.72a.616.616,0,1,1-.709-.506.615.615,0,0,1,.709.506" fill="#d2f9f3"/>
                <path id="Trazado_111463" data-name="Trazado 111463" d="M127.5,200.017a.616.616,0,1,1-.71-.505h0a.615.615,0,0,1,.709.5h0" fill="#d2f9f3"/>
                <path id="Trazado_111464" data-name="Trazado 111464" d="M131.7,199.315a.616.616,0,1,1-.71-.505h0a.615.615,0,0,1,.709.5h0" fill="#d2f9f3"/>
                <path id="Trazado_111465" data-name="Trazado 111465" d="M109.114,206.094a.615.615,0,1,1-.708-.5.615.615,0,0,1,.708.5" fill="#d2f9f3"/>
                <path id="Trazado_111466" data-name="Trazado 111466" d="M113.308,205.392a.615.615,0,1,1-.708-.505.615.615,0,0,1,.708.505" fill="#d2f9f3"/>
                <path id="Trazado_111467" data-name="Trazado 111467" d="M117.5,204.69a.615.615,0,1,1-.708-.505.615.615,0,0,1,.708.505v0" fill="#d2f9f3"/>
                <path id="Trazado_111468" data-name="Trazado 111468" d="M121.7,203.986a.616.616,0,1,1-.71-.5h0a.616.616,0,0,1,.709.5" fill="#d2f9f3"/>
                <path id="Trazado_111469" data-name="Trazado 111469" d="M125.894,203.284a.616.616,0,1,1-.71-.5h0a.616.616,0,0,1,.709.5" fill="#d2f9f3"/>
                <path id="Trazado_111470" data-name="Trazado 111470" d="M130.089,202.577a.616.616,0,1,1-.71-.5h0a.616.616,0,0,1,.709.5" fill="#d2f9f3"/>
                <path id="Trazado_111471" data-name="Trazado 111471" d="M111.672,208.492a.615.615,0,1,1-.708-.505.615.615,0,0,1,.708.505" fill="#d2f9f3"/>
                <path id="Trazado_111472" data-name="Trazado 111472" d="M115.866,207.791a.615.615,0,1,1-.708-.505.615.615,0,0,1,.708.505" fill="#d2f9f3"/>
                <path id="Trazado_111473" data-name="Trazado 111473" d="M120.057,207.088a.615.615,0,1,1-.708-.505.615.615,0,0,1,.708.505v0" fill="#d2f9f3"/>
                <path id="Trazado_111474" data-name="Trazado 111474" d="M124.257,206.385a.616.616,0,1,1-.71-.5h0a.616.616,0,0,1,.709.5" fill="#d2f9f3"/>
                <path id="Trazado_111475" data-name="Trazado 111475" d="M128.451,205.683a.616.616,0,1,1-.71-.505h0a.615.615,0,0,1,.709.5h0" fill="#d2f9f3"/>
                <path id="Trazado_111476" data-name="Trazado 111476" d="M132.646,204.98a.616.616,0,1,1-.71-.5h0a.615.615,0,0,1,.709.5h0" fill="#d2f9f3"/>
                <path id="Trazado_111477" data-name="Trazado 111477" d="M110.077,211.847a.615.615,0,1,1-.708-.505.615.615,0,0,1,.708.505" fill="#d2f9f3"/>
                <path id="Trazado_111478" data-name="Trazado 111478" d="M114.271,211.144a.615.615,0,1,1-.708-.5.615.615,0,0,1,.708.5" fill="#d2f9f3"/>
                <path id="Trazado_111479" data-name="Trazado 111479" d="M118.467,210.441a.615.615,0,1,1-.708-.5.615.615,0,0,1,.708.5" fill="#d2f9f3"/>
                <path id="Trazado_111480" data-name="Trazado 111480" d="M122.663,209.742a.616.616,0,1,1-.71-.505h0a.616.616,0,0,1,.709.505" fill="#d2f9f3"/>
                <path id="Trazado_111481" data-name="Trazado 111481" d="M126.854,209.037a.616.616,0,1,1-.709-.506.615.615,0,0,1,.709.506" fill="#d2f9f3"/>
                <path id="Trazado_111482" data-name="Trazado 111482" d="M131.052,208.335a.616.616,0,1,1-.709-.506.615.615,0,0,1,.709.506v0" fill="#d2f9f3"/>
                <path id="Trazado_111483" data-name="Trazado 111483" d="M112.635,214.242a.615.615,0,1,1-.708-.506.614.614,0,0,1,.708.506h0" fill="#d2f9f3"/>
                <path id="Trazado_111484" data-name="Trazado 111484" d="M116.83,213.543a.615.615,0,1,1-.708-.505.615.615,0,0,1,.708.505" fill="#d2f9f3"/>
                <path id="Trazado_111485" data-name="Trazado 111485" d="M121.025,212.841a.615.615,0,1,1-.708-.505.615.615,0,0,1,.708.505" fill="#d2f9f3"/>
                <path id="Trazado_111486" data-name="Trazado 111486" d="M125.22,212.138a.615.615,0,1,1-.708-.505.615.615,0,0,1,.708.505v0" fill="#d2f9f3"/>
                <path id="Trazado_111487" data-name="Trazado 111487" d="M129.415,211.435a.616.616,0,1,1-.71-.505h0a.616.616,0,0,1,.709.505" fill="#d2f9f3"/>
                <path id="Trazado_111488" data-name="Trazado 111488" d="M133.61,210.733a.616.616,0,1,1-.71-.505h0a.616.616,0,0,1,.709.505" fill="#d2f9f3"/>
                <path id="Trazado_111489" data-name="Trazado 111489" d="M111.041,217.6a.615.615,0,1,1-.708-.505.615.615,0,0,1,.708.505" fill="#d2f9f3"/>
                <path id="Trazado_111490" data-name="Trazado 111490" d="M115.235,216.9a.615.615,0,1,1-.708-.505.615.615,0,0,1,.708.505" fill="#d2f9f3"/>
                <path id="Trazado_111491" data-name="Trazado 111491" d="M119.43,216.194a.615.615,0,1,1-.708-.505.615.615,0,0,1,.708.505" fill="#d2f9f3"/>
                <path id="Trazado_111492" data-name="Trazado 111492" d="M123.625,215.492a.615.615,0,1,1-.708-.506.614.614,0,0,1,.708.506h0" fill="#d2f9f3"/>
                <path id="Trazado_111493" data-name="Trazado 111493" d="M127.821,214.794a.616.616,0,1,1-.709-.506.615.615,0,0,1,.709.506" fill="#d2f9f3"/>
                <path id="Trazado_111494" data-name="Trazado 111494" d="M132.016,214.087a.616.616,0,1,1-.71-.505h0a.616.616,0,0,1,.709.505" fill="#d2f9f3"/>
                <path id="Trazado_111495" data-name="Trazado 111495" d="M113.6,220a.616.616,0,1,1-.71-.5h0a.615.615,0,0,1,.708.5" fill="#d2f9f3"/>
                <path id="Trazado_111496" data-name="Trazado 111496" d="M117.793,219.294a.615.615,0,1,1-.708-.505.615.615,0,0,1,.708.505" fill="#d2f9f3"/>
                <path id="Trazado_111497" data-name="Trazado 111497" d="M121.986,218.593a.615.615,0,1,1-.708-.505.615.615,0,0,1,.708.505" fill="#d2f9f3"/>
                <path id="Trazado_111498" data-name="Trazado 111498" d="M126.183,217.891a.615.615,0,1,1-.708-.505.615.615,0,0,1,.708.505" fill="#d2f9f3"/>
                <path id="Trazado_111499" data-name="Trazado 111499" d="M130.378,217.188a.616.616,0,1,1-.71-.505h0a.616.616,0,0,1,.709.505" fill="#d2f9f3"/>
                <path id="Trazado_111500" data-name="Trazado 111500" d="M134.57,216.485a.616.616,0,1,1-.71-.505h0a.616.616,0,0,1,.709.505" fill="#d2f9f3"/>
                <path id="Trazado_111501" data-name="Trazado 111501" d="M111.989,223.265a.615.615,0,1,1-.708-.505.615.615,0,0,1,.708.505" fill="#d2f9f3"/>
                <path id="Trazado_111502" data-name="Trazado 111502" d="M116.184,222.562a.615.615,0,1,1-.708-.5.615.615,0,0,1,.708.5" fill="#d2f9f3"/>
                <path id="Trazado_111503" data-name="Trazado 111503" d="M120.379,221.86a.615.615,0,1,1-.708-.505.615.615,0,0,1,.708.505" fill="#d2f9f3"/>
                <path id="Trazado_111504" data-name="Trazado 111504" d="M124.574,221.158a.615.615,0,1,1-.708-.505.615.615,0,0,1,.708.505v0" fill="#d2f9f3"/>
                <path id="Trazado_111505" data-name="Trazado 111505" d="M128.769,220.455a.616.616,0,1,1-.71-.505h0a.615.615,0,0,1,.709.5h0" fill="#d2f9f3"/>
                <path id="Trazado_111506" data-name="Trazado 111506" d="M132.964,219.753a.616.616,0,1,1-.71-.505h0a.616.616,0,0,1,.709.505" fill="#d2f9f3"/>
                <path id="Trazado_111507" data-name="Trazado 111507" d="M114.547,225.664a.616.616,0,1,1-.71-.505h0a.615.615,0,0,1,.708.505" fill="#d2f9f3"/>
                <path id="Trazado_111508" data-name="Trazado 111508" d="M118.742,224.961a.615.615,0,1,1-.708-.505.615.615,0,0,1,.708.505" fill="#d2f9f3"/>
                <path id="Trazado_111509" data-name="Trazado 111509" d="M122.937,224.259a.615.615,0,1,1-.708-.505.615.615,0,0,1,.708.505" fill="#d2f9f3"/>
                <path id="Trazado_111510" data-name="Trazado 111510" d="M127.13,223.556a.615.615,0,1,1-.708-.505.615.615,0,0,1,.708.505" fill="#d2f9f3"/>
                <path id="Trazado_111511" data-name="Trazado 111511" d="M131.328,222.853a.616.616,0,1,1-.71-.5h0a.616.616,0,0,1,.709.5" fill="#d2f9f3"/>
                <path id="Trazado_111512" data-name="Trazado 111512" d="M135.523,222.152a.616.616,0,1,1-.71-.5h0a.616.616,0,0,1,.709.5" fill="#d2f9f3"/>
                <path id="Trazado_111513" data-name="Trazado 111513" d="M112.953,229.017a.616.616,0,1,1-.71-.505h0a.616.616,0,0,1,.708.505" fill="#d2f9f3"/>
                <path id="Trazado_111514" data-name="Trazado 111514" d="M117.148,228.316a.615.615,0,1,1-.708-.506.614.614,0,0,1,.708.506h0" fill="#d2f9f3"/>
                <path id="Trazado_111515" data-name="Trazado 111515" d="M121.344,227.613a.615.615,0,1,1-.708-.505.615.615,0,0,1,.708.505" fill="#d2f9f3"/>
                <path id="Trazado_111516" data-name="Trazado 111516" d="M125.537,226.91a.615.615,0,1,1-.708-.505.615.615,0,0,1,.708.505" fill="#d2f9f3"/>
                <path id="Trazado_111517" data-name="Trazado 111517" d="M129.732,226.208a.615.615,0,1,1-.708-.5.615.615,0,0,1,.708.5v0" fill="#d2f9f3"/>
                <path id="Trazado_111518" data-name="Trazado 111518" d="M133.927,225.505a.616.616,0,1,1-.71-.505h0a.617.617,0,0,1,.709.505" fill="#d2f9f3"/>
                <path id="Trazado_111519" data-name="Trazado 111519" d="M115.51,231.419a.616.616,0,1,1-.71-.505h0a.615.615,0,0,1,.709.5h0" fill="#d2f9f3"/>
                <path id="Trazado_111520" data-name="Trazado 111520" d="M119.706,230.714a.615.615,0,1,1-.708-.505.615.615,0,0,1,.708.505" fill="#d2f9f3"/>
                <path id="Trazado_111521" data-name="Trazado 111521" d="M123.9,230.011a.615.615,0,1,1-.708-.505.615.615,0,0,1,.708.505" fill="#d2f9f3"/>
                <path id="Trazado_111522" data-name="Trazado 111522" d="M128.1,229.306a.615.615,0,1,1-.708-.505.615.615,0,0,1,.708.505" fill="#d2f9f3"/>
                <path id="Trazado_111523" data-name="Trazado 111523" d="M132.29,228.606a.615.615,0,1,1-.708-.505.615.615,0,0,1,.708.505" fill="#d2f9f3"/>
                <path id="Trazado_111524" data-name="Trazado 111524" d="M136.485,227.9a.616.616,0,1,1-.71-.505h0a.616.616,0,0,1,.709.505" fill="#d2f9f3"/>
                <path id="Trazado_111525" data-name="Trazado 111525" d="M113.917,234.771a.616.616,0,1,1-.709-.506.615.615,0,0,1,.709.506v0" fill="#d2f9f3"/>
                <path id="Trazado_111526" data-name="Trazado 111526" d="M118.111,234.068a.616.616,0,1,1-.71-.5h0a.615.615,0,0,1,.708.5" fill="#d2f9f3"/>
                <path id="Trazado_111527" data-name="Trazado 111527" d="M122.306,233.366a.615.615,0,1,1-.708-.505.615.615,0,0,1,.708.505" fill="#d2f9f3"/>
                <path id="Trazado_111528" data-name="Trazado 111528" d="M126.5,232.663a.615.615,0,1,1-.708-.5.615.615,0,0,1,.708.5" fill="#d2f9f3"/>
                <path id="Trazado_111529" data-name="Trazado 111529" d="M130.7,231.96a.615.615,0,1,1-.708-.505.615.615,0,0,1,.708.505" fill="#d2f9f3"/>
                <path id="Trazado_111530" data-name="Trazado 111530" d="M134.891,231.258a.615.615,0,1,1-.708-.5.615.615,0,0,1,.708.5" fill="#d2f9f3"/>
                <path id="Trazado_111531" data-name="Trazado 111531" d="M116.476,237.169a.616.616,0,1,1-.71-.505h0a.615.615,0,0,1,.709.5h0" fill="#d2f9f3"/>
                <path id="Trazado_111532" data-name="Trazado 111532" d="M120.669,236.47a.616.616,0,1,1-.71-.505h0a.616.616,0,0,1,.708.505" fill="#d2f9f3"/>
                <path id="Trazado_111533" data-name="Trazado 111533" d="M124.864,235.764a.615.615,0,1,1-.708-.505.615.615,0,0,1,.708.505" fill="#d2f9f3"/>
                <path id="Trazado_111534" data-name="Trazado 111534" d="M129.059,235.062a.615.615,0,1,1-.708-.506.614.614,0,0,1,.708.506h0" fill="#d2f9f3"/>
                <path id="Trazado_111535" data-name="Trazado 111535" d="M133.254,234.357a.615.615,0,1,1-.708-.5.615.615,0,0,1,.708.5" fill="#d2f9f3"/>
                <path id="Trazado_111536" data-name="Trazado 111536" d="M137.449,233.657a.615.615,0,1,1-.708-.505.615.615,0,0,1,.708.505v0" fill="#d2f9f3"/>
                <path id="Trazado_111537" data-name="Trazado 111537" d="M114.864,240.436a.616.616,0,1,1-.71-.505h0a.615.615,0,0,1,.709.5h0" fill="#d2f9f3"/>
                <path id="Trazado_111538" data-name="Trazado 111538" d="M119.06,239.734a.616.616,0,1,1-.71-.5h0a.615.615,0,0,1,.708.5" fill="#d2f9f3"/>
                <path id="Trazado_111539" data-name="Trazado 111539" d="M123.255,239.031a.615.615,0,1,1-.708-.505.615.615,0,0,1,.708.505" fill="#d2f9f3"/>
                <path id="Trazado_111540" data-name="Trazado 111540" d="M127.45,238.328a.615.615,0,1,1-.708-.505.615.615,0,0,1,.708.505" fill="#d2f9f3"/>
                <path id="Trazado_111541" data-name="Trazado 111541" d="M131.645,237.626a.615.615,0,1,1-.708-.505.615.615,0,0,1,.708.505" fill="#d2f9f3"/>
                <path id="Trazado_111542" data-name="Trazado 111542" d="M135.839,236.924a.615.615,0,1,1-.708-.506.614.614,0,0,1,.708.506h0" fill="#d2f9f3"/>
                <path id="Trazado_111543" data-name="Trazado 111543" d="M117.423,242.834a.616.616,0,1,1-.71-.505h0a.616.616,0,0,1,.709.505" fill="#d2f9f3"/>
                <path id="Trazado_111544" data-name="Trazado 111544" d="M121.619,242.133a.616.616,0,1,1-.709-.506h0a.615.615,0,0,1,.708.505h0" fill="#d2f9f3"/>
                <path id="Trazado_111545" data-name="Trazado 111545" d="M125.813,241.43a.615.615,0,1,1-.708-.506.614.614,0,0,1,.708.506h0" fill="#d2f9f3"/>
                <path id="Trazado_111546" data-name="Trazado 111546" d="M130.008,240.727a.615.615,0,1,1-.708-.505.615.615,0,0,1,.708.505" fill="#d2f9f3"/>
                <path id="Trazado_111547" data-name="Trazado 111547" d="M134.2,240.025a.615.615,0,1,1-.708-.5.615.615,0,0,1,.708.5" fill="#d2f9f3"/>
                <path id="Trazado_111548" data-name="Trazado 111548" d="M138.4,239.322a.615.615,0,1,1-.708-.505.615.615,0,0,1,.708.505v0" fill="#d2f9f3"/>
                <path id="Trazado_111549" data-name="Trazado 111549" d="M115.833,246.189a.616.616,0,1,1-.71-.5h0a.615.615,0,0,1,.709.5h0" fill="#d2f9f3"/>
                <path id="Trazado_111550" data-name="Trazado 111550" d="M120.023,245.486a.616.616,0,1,1-.71-.5h0a.615.615,0,0,1,.709.5h0" fill="#d2f9f3"/>
                <path id="Trazado_111551" data-name="Trazado 111551" d="M124.218,244.783a.616.616,0,1,1-.71-.505h0a.616.616,0,0,1,.708.505" fill="#d2f9f3"/>
                <path id="Trazado_111552" data-name="Trazado 111552" d="M128.416,244.081a.615.615,0,1,1-.708-.5.615.615,0,0,1,.708.5" fill="#d2f9f3"/>
                <path id="Trazado_111553" data-name="Trazado 111553" d="M132.608,243.378a.615.615,0,1,1-.708-.505.615.615,0,0,1,.708.505" fill="#d2f9f3"/>
                <path id="Trazado_111554" data-name="Trazado 111554" d="M136.8,242.677a.615.615,0,1,1-.708-.506.614.614,0,0,1,.708.506h0" fill="#d2f9f3"/>
                <path id="Trazado_111555" data-name="Trazado 111555" d="M118.387,248.588a.616.616,0,1,1-.709-.506.615.615,0,0,1,.709.506v0" fill="#d2f9f3"/>
                <path id="Trazado_111556" data-name="Trazado 111556" d="M122.582,247.885a.616.616,0,1,1-.71-.5h0a.615.615,0,0,1,.709.5h0" fill="#d2f9f3"/>
                <path id="Trazado_111557" data-name="Trazado 111557" d="M126.777,247.183a.616.616,0,1,1-.71-.505h0a.615.615,0,0,1,.708.505" fill="#d2f9f3"/>
                <path id="Trazado_111558" data-name="Trazado 111558" d="M130.971,246.482a.615.615,0,1,1-.708-.5.615.615,0,0,1,.708.5" fill="#d2f9f3"/>
                <path id="Trazado_111559" data-name="Trazado 111559" d="M135.166,245.777a.615.615,0,1,1-.708-.5.615.615,0,0,1,.708.5" fill="#d2f9f3"/>
                <path id="Trazado_111560" data-name="Trazado 111560" d="M139.361,245.075a.615.615,0,1,1-.708-.5.615.615,0,0,1,.708.5" fill="#d2f9f3"/>
                <path id="Trazado_111561" data-name="Trazado 111561" d="M116.791,251.941a.616.616,0,1,1-.71-.5h0a.615.615,0,0,1,.709.5h0" fill="#d2f9f3"/>
                <path id="Trazado_111562" data-name="Trazado 111562" d="M120.986,251.239a.616.616,0,1,1-.71-.505h0a.616.616,0,0,1,.709.505" fill="#d2f9f3"/>
                <path id="Trazado_111563" data-name="Trazado 111563" d="M125.181,250.536a.616.616,0,1,1-.71-.5h0a.616.616,0,0,1,.709.5" fill="#d2f9f3"/>
                <path id="Trazado_111564" data-name="Trazado 111564" d="M129.377,249.833a.616.616,0,1,1-.71-.5h0a.616.616,0,0,1,.708.5" fill="#d2f9f3"/>
                <path id="Trazado_111565" data-name="Trazado 111565" d="M133.572,249.131a.615.615,0,1,1-.712-.5h0a.616.616,0,0,1,.708.5" fill="#d2f9f3"/>
                <path id="Trazado_111566" data-name="Trazado 111566" d="M137.766,248.429a.615.615,0,1,1-.708-.505.615.615,0,0,1,.708.505" fill="#d2f9f3"/>
                <path id="Trazado_111567" data-name="Trazado 111567" d="M119.35,254.341a.616.616,0,1,1-.71-.505h0a.616.616,0,0,1,.709.505" fill="#d2f9f3"/>
                <path id="Trazado_111568" data-name="Trazado 111568" d="M123.548,253.638a.616.616,0,1,1-.71-.505h0a.615.615,0,0,1,.709.5h0" fill="#d2f9f3"/>
                <path id="Trazado_111569" data-name="Trazado 111569" d="M127.74,252.935a.616.616,0,1,1-.71-.505h0a.615.615,0,0,1,.709.5h0" fill="#d2f9f3"/>
                <path id="Trazado_111570" data-name="Trazado 111570" d="M131.935,252.233a.616.616,0,1,1-.71-.505h0a.615.615,0,0,1,.708.505" fill="#d2f9f3"/>
                <path id="Trazado_111571" data-name="Trazado 111571" d="M136.132,251.534a.615.615,0,1,1-.708-.5.615.615,0,0,1,.708.5" fill="#d2f9f3"/>
                <path id="Trazado_111572" data-name="Trazado 111572" d="M140.324,250.827a.615.615,0,1,1-.708-.5.615.615,0,0,1,.708.5" fill="#d2f9f3"/>
              </g>
            </g>
          </g>
        </g>
      </g>
    </g>
  </g>
</svg>
