<svg xmlns="http://www.w3.org/2000/svg" xmlns:xlink="http://www.w3.org/1999/xlink" width="574" height="912" viewBox="0 0 574 912">
  <defs>
    <linearGradient id="linear-gradient" x1="0.096" y1="0.023" x2="0.955" y2="0.985" gradientUnits="objectBoundingBox">
      <stop offset="0" stop-color="#ffecea"/>
      <stop offset="1" stop-color="#fff5c7"/>
    </linearGradient>
  </defs>
  <g id="Grupo_85107" data-name="Grupo 85107" transform="translate(-846 -10017)">
    <rect id="Rectángulo_33845" data-name="Rectángulo 33845" width="574" height="912" rx="19" transform="translate(846 10017)" fill="url(#linear-gradient)"/>
    <g id="Grupo_85093" data-name="Grupo 85093" transform="translate(617.287 9953.463)">
      <path id="Trazado_105442" data-name="Trazado 105442" d="M410.175,128.458,440,255.347,285.324,336.859l5.368-159.047Z" transform="translate(121.93 86.678)" fill="#fff"/>
      <path id="Trazado_105443" data-name="Trazado 105443" d="M228.713,145.8S408.446,74.627,444.829,90.532s56.662,27.836,56.662,63.619v35.786s-15.507,2.384-18.491-5.964v13.12s-13.719,5.964-19.087-4.772v14.911s-16.7,5.964-18.488-6.56v16.7s-22.663,7.755-23.855-23.259l-.6-9.543-8.348-1.788S394.73,212.6,351.188,204.252l-122.475,63.02Z" transform="translate(0 0)" fill="#91dcff"/>
      <path id="Trazado_105444" data-name="Trazado 105444" d="M259.353,114.858s.4,19.481,25.842,32.008" transform="translate(65.993 57.386)" fill="none" stroke="#222" stroke-miterlimit="10" stroke-width="0.5"/>
      <path id="Trazado_105445" data-name="Trazado 105445" d="M294.358,130.622s-7.156-4.772-10.736-18.191" transform="translate(118.264 52.159)" fill="none" stroke="#222" stroke-miterlimit="10" stroke-width="0.5"/>
      <path id="Trazado_105446" data-name="Trazado 105446" d="M281.447,114.322s2.984,6.3,12.227,6.282" transform="translate(113.58 56.231)" fill="none" stroke="#222" stroke-miterlimit="10" stroke-width="0.5"/>
      <path id="Trazado_105447" data-name="Trazado 105447" d="M292.951,106.159s13.918,17.958,14.117,32.935.281,24.3.281,24.3" transform="translate(138.357 38.65)" fill="none" stroke="#222" stroke-miterlimit="10" stroke-width="0.5"/>
      <path id="Trazado_105448" data-name="Trazado 105448" d="M299.129,102.063c.795.987,12.126,18.087,12.126,31.207s.993,29.223.993,29.223" transform="translate(151.663 29.828)" fill="none" stroke="#222" stroke-miterlimit="10" stroke-width="0.5"/>
      <path id="Trazado_105449" data-name="Trazado 105449" d="M304.739,98.972s13.322,19.087,13.322,31.213,1.192,30.617,1.192,30.617" transform="translate(163.746 23.17)" fill="none" stroke="#222" stroke-miterlimit="10" stroke-width="0.5"/>
      <circle id="Elipse_4143" data-name="Elipse 4143" cx="5.947" cy="5.947" r="5.947" transform="translate(433.811 261.326)" fill="#222"/>
      <circle id="Elipse_4144" data-name="Elipse 4144" cx="5.947" cy="5.947" r="5.947" transform="translate(501.489 234.387)" fill="#222"/>
      <path id="Trazado_105450" data-name="Trazado 105450" d="M271.077,166.079l135.985-41.773,3.181,10.362,30.616,2.733L321.376,186.755,300.1,172.044Z" transform="translate(91.245 77.735)" fill="#1f2f6d"/>
      <path id="Trazado_105451" data-name="Trazado 105451" d="M297.976,137.551s-40.555,145.924-39.363,145.924,84.3,33.8,84.3,33.8l5.368-159.047L327,143.515Z" transform="translate(64.345 106.262)" fill="#e4e4e4"/>
      <line id="Línea_243" data-name="Línea 243" x1="21.869" y2="121.67" transform="translate(369.48 249.778)" fill="none" stroke="#222" stroke-miterlimit="10" stroke-width="0.5"/>
      <path id="Trazado_105452" data-name="Trazado 105452" d="M258.6,196.311l46.521-18.29,37.773,52.088" transform="translate(64.363 193.427)" fill="none" stroke="#222" stroke-miterlimit="10" stroke-width="0.5"/>
      <path id="Trazado_105453" data-name="Trazado 105453" d="M328.689,202.214c-27.135-27.634-23.878-83.794-23.878-83.794s-17.374,24.385-24.53,50.909" transform="translate(111.068 65.058)" fill="none" stroke="#222" stroke-miterlimit="10" stroke-width="0.5"/>
      <path id="Trazado_105454" data-name="Trazado 105454" d="M315.2,120.468s10.436,25.051,6.26,50.4" transform="translate(186.286 69.469)" fill="none" stroke="#222" stroke-miterlimit="10" stroke-width="0.5"/>
    </g>
    <g id="Grupo_85094" data-name="Grupo 85094" transform="translate(834.872 10262.715)">
      <path id="Trazado_105455" data-name="Trazado 105455" d="M255.522,296.12,360.51,308.356l-5.4-5.854,20.263-2.589L270,288.092l8.953,4.052Z" transform="translate(28.302 36.466)" fill="#1f2f6d"/>
      <path id="Trazado_105456" data-name="Trazado 105456" d="M277.946,290.918l-34.6,163.536,152.2,3.6-12.608-154.9Z" transform="translate(5.877 41.668)" fill="#fff"/>
      <path id="Trazado_105457" data-name="Trazado 105457" d="M310.838,292.253l25.217,144.884-12.608,1.8L308.586,455.6,295.978,300.7l-5.4-5.854Z" transform="translate(92.834 44.125)" fill="#e4e4e4"/>
      <path id="Trazado_105458" data-name="Trazado 105458" d="M294.061,299.029c0,1.35,19.325,118.29,19.325,118.29" transform="translate(99.254 56.601)" fill="none" stroke="#222" stroke-miterlimit="10" stroke-width="0.5"/>
      <path id="Trazado_105459" data-name="Trazado 105459" d="M287.231,300.805a4.391,4.391,0,1,1-4.392-4.392A4.391,4.391,0,0,1,287.231,300.805Z" transform="translate(70.511 51.785)" fill="#222"/>
      <path id="Trazado_105460" data-name="Trazado 105460" d="M274.551,299.257a4.391,4.391,0,1,1-4.389-4.389A4.391,4.391,0,0,1,274.551,299.257Z" transform="translate(47.167 48.94)" fill="#222"/>
      <path id="Trazado_105461" data-name="Trazado 105461" d="M269.711,348.863s-21.39-80.578,38.723-80.578-2.7,84.305-2.7,84.305" transform="translate(47.617 0)" fill="none" stroke="#222" stroke-miterlimit="10" stroke-width="0.5"/>
      <path id="Trazado_105462" data-name="Trazado 105462" d="M269.6,322.354c-1.014-21.637,4.659-50.593,42.317-50.593,39.036,0,26.237,32.553,12.461,55.383" transform="translate(54.02 6.399)" fill="none" stroke="#222" stroke-miterlimit="10" stroke-width="0.5"/>
      <path id="Trazado_105463" data-name="Trazado 105463" d="M324.382,348.007l-16.249-7.341-11.219,25.8" transform="translate(104.506 133.255)" fill="none" stroke="#222" stroke-miterlimit="10" stroke-width="0.5"/>
      <path id="Trazado_105464" data-name="Trazado 105464" d="M330.272,325.345c1.352.452,18.012,4.5,13.06,21.615s-6.071,25.217-6.071,25.217,53.8-22.515,79.47,16.66l168.4-17.56V489.705s-258.907-22.064-261.16-22.964-51.784-15.31-75.648-55.838,12.157-82.4,12.157-82.4,12.609-.9,13.509,12.609l14.41-15.762s13.057,2.253,9.907,14.41l10.807-14.41s15.31-.9,12.609,14.862Z" transform="translate(0 105.033)" fill="#f2df85"/>
      <path id="Trazado_105465" data-name="Trazado 105465" d="M278.233,330.57s-19.813,36.828-13.06,57.363" transform="translate(43.485 114.669)" fill="none" stroke="#222" stroke-miterlimit="10" stroke-width="0.5"/>
      <path id="Trazado_105466" data-name="Trazado 105466" d="M272.015,330.411S248.6,361.481,255.8,390.752" transform="translate(26.286 114.376)" fill="none" stroke="#222" stroke-miterlimit="10" stroke-width="0.5"/>
      <path id="Trazado_105467" data-name="Trazado 105467" d="M262.769,330.887s-24.316,30.169-13.958,60.79" transform="translate(11.217 115.253)" fill="none" stroke="#222" stroke-miterlimit="10" stroke-width="0.5"/>
      <path id="Trazado_105468" data-name="Trazado 105468" d="M275.211,341.823s-5.188,9.455,4.719,18.913" transform="translate(62.05 135.386)" fill="none" stroke="#222" stroke-miterlimit="10" stroke-width="0.5"/>
      <path id="Trazado_105469" data-name="Trazado 105469" d="M302.3,347.687s13.057,15.31,9.006,45.482" transform="translate(114.427 146.182)" fill="none" stroke="#222" stroke-miterlimit="10" stroke-width="0.5"/>
      <path id="Trazado_105470" data-name="Trazado 105470" d="M306.582,350.761s12.722,25.987,3.154,52.059" transform="translate(122.305 151.842)" fill="none" stroke="#222" stroke-miterlimit="10" stroke-width="0.5"/>
    </g>
    <g id="Grupo_85100" data-name="Grupo 85100" transform="translate(767.819 10015.902)">
      <g id="Grupo_85095" data-name="Grupo 85095" transform="translate(430.257 194.864)">
        <rect id="Rectángulo_33846" data-name="Rectángulo 33846" width="71.92" height="18.303" fill="#3a60e5"/>
        <rect id="Rectángulo_33847" data-name="Rectángulo 33847" width="64.292" height="32.724" transform="translate(3.814 18.303)" fill="#3a60e5"/>
        <rect id="Rectángulo_33848" data-name="Rectángulo 33848" width="64.292" height="5.547" transform="translate(3.814 18.303)" fill="#222"/>
      </g>
      <g id="Grupo_85097" data-name="Grupo 85097" transform="translate(498.363 181.097)">
        <g id="Grupo_85096" data-name="Grupo 85096">
          <path id="Trazado_105471" data-name="Trazado 105471" d="M474.59,188.716l-6.824,49.5,69.93,4.907,10.888-8.588-7.668-52.14Z" transform="translate(-467.766 -180.55)" fill="#fff"/>
          <path id="Trazado_105472" data-name="Trazado 105472" d="M524.541,219.019" transform="translate(-443.723 -165.039)" fill="#e4e4e4"/>
          <path id="Trazado_105473" data-name="Trazado 105473" d="M519.07,243.118,514.623,190.9l-2.875-4.6,9.891-3.911h.652l7.668,52.14-10.888,8.588" transform="translate(-449.141 -180.55)" fill="#e4e4e4"/>
          <path id="Trazado_105474" data-name="Trazado 105474" d="M488.659,192.7a2.07,2.07,0,1,1-2.07-2.07A2.07,2.07,0,0,1,488.659,192.7Z" transform="translate(-460.672 -177.06)" fill="#222"/>
          <path id="Trazado_105475" data-name="Trazado 105475" d="M506.124,192.7a2.07,2.07,0,1,1-2.07-2.07A2.07,2.07,0,0,1,506.124,192.7Z" transform="translate(-453.275 -177.06)" fill="#222"/>
          <path id="Trazado_105476" data-name="Trazado 105476" d="M475.435,181.1l62.8,1.84-9.891,3.911,2.875,4.6-58.658-2.185,7.246-4.141Z" transform="translate(-465.736 -181.097)" fill="#1f2f6d"/>
          <path id="Trazado_105477" data-name="Trazado 105477" d="M515.814,189.608l4.1,34.811-2.569,15.642" transform="translate(-447.418 -177.493)" fill="none" stroke="#222" stroke-miterlimit="10" stroke-width="0.5"/>
          <line id="Línea_244" data-name="Línea 244" x2="8.319" y2="7.054" transform="translate(72.498 46.926)" fill="none" stroke="#222" stroke-miterlimit="10" stroke-width="0.5"/>
        </g>
        <path id="Trazado_105478" data-name="Trazado 105478" d="M486.018,192.086s-2.213,25.752,10.24,25.752,14.621-25.752,14.621-25.752" transform="translate(-460.101 -176.444)" fill="none" stroke="#222" stroke-miterlimit="10" stroke-width="0.5"/>
      </g>
      <g id="Grupo_85098" data-name="Grupo 85098" transform="translate(464.054 213.819)">
        <rect id="Rectángulo_33849" data-name="Rectángulo 33849" width="90.432" height="70.085" transform="matrix(0.977, -0.215, 0.215, 0.977, 0, 40.291)" fill="#ff7cad"/>
        <line id="Línea_245" data-name="Línea 245" x2="15.043" y2="68.452" transform="translate(65.017 26.003)" fill="none" stroke="#222" stroke-miterlimit="10" stroke-width="0.5"/>
        <line id="Línea_246" data-name="Línea 246" x1="88.325" y2="19.41" transform="translate(7.521 55.107)" fill="none" stroke="#222" stroke-miterlimit="10" stroke-width="0.5"/>
        <path id="Trazado_105479" data-name="Trazado 105479" d="M489.416,230.088s-2.406-13.9,7.458-23.114c8.643-8.072,20.2,2.376,13.97,11.7-2.645,3.96-5.818,7.987-5.818,7.987Z" transform="translate(-424.399 -204.085)" fill="none" stroke="#222" stroke-miterlimit="10" stroke-width="0.5"/>
        <path id="Trazado_105480" data-name="Trazado 105480" d="M494.324,225.528s-2.108-7.882-9.522-10.327a5.278,5.278,0,0,0-4.5,9.529c2.349,1.438,4.992,2.783,4.992,2.783Z" transform="translate(-429.307 -199.525)" fill="none" stroke="#222" stroke-miterlimit="10" stroke-width="0.5"/>
        <path id="Trazado_105481" data-name="Trazado 105481" d="M485.463,223.746s-9.883,6.373-8.068,14.632,9.768,5.826,4.088,14.7" transform="translate(-429.474 -195.759)" fill="none" stroke="#222" stroke-miterlimit="10" stroke-width="0.5"/>
      </g>
      <g id="Grupo_85099" data-name="Grupo 85099" transform="translate(395.513 212.382)">
        <path id="Trazado_105482" data-name="Trazado 105482" d="M395.513,203.075h11.86a23.506,23.506,0,0,1,15.86,6.156l1.082.989a23.5,23.5,0,0,1,7.345,13.608l16.115,100.05a23.51,23.51,0,0,0,9.8,15.568h0a23.5,23.5,0,0,0,13.406,4.2h84.9" transform="translate(-395.513 -203.075)" fill="none" stroke="#222" stroke-miterlimit="10" stroke-width="0.5"/>
        <path id="Trazado_105483" data-name="Trazado 105483" d="M421.247,219.765H577.752L555.367,289.81a23.543,23.543,0,0,1-22.427,16.377H435.167" transform="translate(-384.615 -196.007)" fill="none" stroke="#222" stroke-miterlimit="10" stroke-width="0.5"/>
        <line id="Línea_247" data-name="Línea 247" x2="107.456" transform="translate(39.946 23.758)" fill="none" stroke="#222" stroke-miterlimit="10" stroke-width="0.5"/>
        <line id="Línea_248" data-name="Línea 248" x2="111.613" transform="translate(39.946 44.918)" fill="none" stroke="#222" stroke-miterlimit="10" stroke-width="0.5"/>
        <line id="Línea_249" data-name="Línea 249" x2="135.457" transform="translate(43.685 67.549)" fill="none" stroke="#222" stroke-miterlimit="10" stroke-width="0.5"/>
        <line id="Línea_250" data-name="Línea 250" x2="124.579" transform="translate(47.33 90.181)" fill="none" stroke="#222" stroke-miterlimit="10" stroke-width="0.5"/>
        <circle id="Elipse_4145" data-name="Elipse 4145" cx="12.572" cy="12.572" r="12.572" transform="translate(73.502 140.571)" fill="none" stroke="#222" stroke-miterlimit="10" stroke-width="0.5"/>
        <path id="Trazado_105484" data-name="Trazado 105484" d="M464.137,312.529a6.286,6.286,0,1,1-6.286-6.286A6.286,6.286,0,0,1,464.137,312.529Z" transform="translate(-371.777 -159.386)" fill="#222"/>
        <circle id="Elipse_4146" data-name="Elipse 4146" cx="12.572" cy="12.572" r="12.572" transform="translate(135.437 140.571)" fill="none" stroke="#222" stroke-miterlimit="10" stroke-width="0.5"/>
        <path id="Trazado_105485" data-name="Trazado 105485" d="M507.647,312.529a6.286,6.286,0,1,1-6.286-6.286A6.286,6.286,0,0,1,507.647,312.529Z" transform="translate(-353.351 -159.386)" fill="#222"/>
      </g>
    </g>
    <g id="Grupo_85106" data-name="Grupo 85106" transform="translate(367.055 10204.371)">
      <path id="Trazado_105486" data-name="Trazado 105486" d="M564.031,306.608,625.956,275.6l62.37,32.019-62.37,30.759Z" transform="translate(4.766 36.592)" fill="#fcc167"/>
      <path id="Trazado_105487" data-name="Trazado 105487" d="M564.031,358.946c0,.756,61.924,31.767,61.924,31.767V328.44l-61.924-31.767Z" transform="translate(4.766 46.528)" fill="#f9a22f"/>
      <path id="Trazado_105488" data-name="Trazado 105488" d="M668.485,297.358v62.273s-62.37,32.02-62.37,30.759V328.117Z" transform="translate(24.606 46.851)" fill="#fab140"/>
      <path id="Trazado_105489" data-name="Trazado 105489" d="M647.22,286.478l-62.148,30.885V379.92" transform="translate(14.686 41.722)" fill="none" stroke="#222" stroke-miterlimit="10" stroke-width="0.5"/>
      <path id="Trazado_105490" data-name="Trazado 105490" d="M585.073,286.478l62.148,30.885V379.92" transform="translate(14.686 41.722)" fill="none" stroke="#222" stroke-miterlimit="10" stroke-width="0.5"/>
      <g id="Grupo_85103" data-name="Grupo 85103" transform="translate(607.151 409.134)">
        <g id="Grupo_85101" data-name="Grupo 85101">
          <line id="Línea_251" data-name="Línea 251" y2="8.575" fill="none" stroke="#222" stroke-miterlimit="10" stroke-width="0.5"/>
          <line id="Línea_252" data-name="Línea 252" y2="8.575" transform="translate(1.838 0.897)" fill="none" stroke="#222" stroke-miterlimit="10" stroke-width="0.5"/>
          <line id="Línea_253" data-name="Línea 253" y2="8.575" transform="translate(3.677 1.827)" fill="none" stroke="#222" stroke-miterlimit="10" stroke-width="0.5"/>
          <line id="Línea_254" data-name="Línea 254" y2="8.575" transform="translate(5.515 2.755)" fill="none" stroke="#222" stroke-miterlimit="10" stroke-width="0.5"/>
          <line id="Línea_255" data-name="Línea 255" y2="8.575" transform="translate(7.354 3.684)" fill="none" stroke="#222" stroke-miterlimit="10" stroke-width="0.5"/>
          <line id="Línea_256" data-name="Línea 256" y2="8.575" transform="translate(9.192 4.582)" fill="none" stroke="#222" stroke-miterlimit="10" stroke-width="0.5"/>
          <line id="Línea_257" data-name="Línea 257" y2="8.575" transform="translate(11.03 5.542)" fill="none" stroke="#222" stroke-miterlimit="10" stroke-width="0.5"/>
          <line id="Línea_258" data-name="Línea 258" y2="8.575" transform="translate(12.869 6.471)" fill="none" stroke="#222" stroke-miterlimit="10" stroke-width="0.5"/>
          <line id="Línea_259" data-name="Línea 259" y2="8.575" transform="translate(14.707 7.337)" fill="none" stroke="#222" stroke-miterlimit="10" stroke-width="0.5"/>
          <line id="Línea_260" data-name="Línea 260" y2="8.575" transform="translate(16.545 8.424)" fill="none" stroke="#222" stroke-miterlimit="10" stroke-width="0.5"/>
        </g>
        <g id="Grupo_85102" data-name="Grupo 85102" transform="translate(0.919 0.37)">
          <line id="Línea_261" data-name="Línea 261" y2="8.575" fill="none" stroke="#222" stroke-miterlimit="10" stroke-width="0.5"/>
          <line id="Línea_262" data-name="Línea 262" y2="8.575" transform="translate(1.838 0.898)" fill="none" stroke="#222" stroke-miterlimit="10" stroke-width="0.5"/>
          <line id="Línea_263" data-name="Línea 263" y2="8.575" transform="translate(3.677 1.827)" fill="none" stroke="#222" stroke-miterlimit="10" stroke-width="0.5"/>
          <line id="Línea_264" data-name="Línea 264" y2="8.575" transform="translate(5.515 2.755)" fill="none" stroke="#222" stroke-miterlimit="10" stroke-width="0.5"/>
          <line id="Línea_265" data-name="Línea 265" y2="8.575" transform="translate(7.354 3.684)" fill="none" stroke="#222" stroke-miterlimit="10" stroke-width="0.5"/>
          <line id="Línea_266" data-name="Línea 266" y2="8.575" transform="translate(9.192 4.582)" fill="none" stroke="#222" stroke-miterlimit="10" stroke-width="0.5"/>
          <line id="Línea_267" data-name="Línea 267" y2="8.575" transform="translate(11.03 5.542)" fill="none" stroke="#222" stroke-miterlimit="10" stroke-width="0.5"/>
          <line id="Línea_268" data-name="Línea 268" y2="8.575" transform="translate(12.869 6.471)" fill="none" stroke="#222" stroke-miterlimit="10" stroke-width="0.5"/>
          <line id="Línea_269" data-name="Línea 269" y2="8.575" transform="translate(14.707 7.337)" fill="none" stroke="#222" stroke-miterlimit="10" stroke-width="0.5"/>
          <line id="Línea_270" data-name="Línea 270" y2="8.575" transform="translate(16.545 8.424)" fill="none" stroke="#222" stroke-miterlimit="10" stroke-width="0.5"/>
        </g>
      </g>
      <path id="Trazado_105491" data-name="Trazado 105491" d="M566.964,322.969c0,.24,19.629,10.071,19.629,10.071V313.3l-19.629-10.07Z" transform="translate(6.149 49.618)" fill="#fff"/>
      <g id="Grupo_85104" data-name="Grupo 85104" transform="translate(574.587 357.805)">
        <path id="Trazado_105492" data-name="Trazado 105492" d="M567.966,309.391c0,.2,16.679,8.556,16.679,8.556" transform="translate(-567.966 -305.281)" fill="none" stroke="#222" stroke-miterlimit="10" stroke-width="0.5"/>
        <line id="Línea_271" data-name="Línea 271" x1="16.679" y1="8.556" transform="translate(0.001)" fill="none" stroke="#222" stroke-miterlimit="10" stroke-width="0.5"/>
        <path id="Trazado_105493" data-name="Trazado 105493" d="M567.966,314.978c0,.2,16.679,8.555,16.679,8.555" transform="translate(-567.966 -302.647)" fill="none" stroke="#222" stroke-miterlimit="10" stroke-width="0.5"/>
        <line id="Línea_272" data-name="Línea 272" x1="16.679" y1="8.556" transform="translate(0.001 8.22)" fill="none" stroke="#222" stroke-miterlimit="10" stroke-width="0.5"/>
      </g>
      <g id="Grupo_85105" data-name="Grupo 85105" transform="translate(554.112 260.253)">
        <path id="Trazado_105494" data-name="Trazado 105494" d="M652.606,240.3l-46.5,83.326,77.26-83.326" transform="translate(-529.511 -240.301)" fill="none" stroke="#222" stroke-miterlimit="10" stroke-width="0.5"/>
        <line id="Línea_273" data-name="Línea 273" x1="15.491" y2="83.326" transform="translate(76.594)" fill="none" stroke="#222" stroke-miterlimit="10" stroke-width="0.5"/>
        <path id="Trazado_105495" data-name="Trazado 105495" d="M584.809,240.3l46.5,83.326L554.051,240.3" transform="translate(-554.051 -240.301)" fill="none" stroke="#222" stroke-miterlimit="10" stroke-width="0.5"/>
        <line id="Línea_274" data-name="Línea 274" x2="15.491" y2="83.326" transform="translate(61.769)" fill="none" stroke="#222" stroke-miterlimit="10" stroke-width="0.5"/>
      </g>
      <path id="Trazado_105496" data-name="Trazado 105496" d="M630.944,197.98c-63.156,0-77.023,62.273-77.023,62.273,15.633-14.623,30.759,0,30.759,0,16.9-14.941,31.011,0,31.011,0,4.791-6.051,15.253-7.312,15.253-7.312s10.464,1.261,15.254,7.312c0,0,14.105-14.941,31.011,0,0,0,15.126-14.623,30.758,0C707.966,260.253,694.1,197.98,630.944,197.98Z" fill="#db6e5f"/>
    </g>
  </g>
</svg>
