<svg xmlns="http://www.w3.org/2000/svg" width="315.359" height="495.305" viewBox="0 0 315.359 495.305">
  <g id="Grupo_85119" data-name="Grupo 85119" transform="translate(-1050.641 -17407.695)">
    <ellipse id="Elipse_4166" data-name="Elipse 4166" cx="153" cy="18" rx="153" ry="18" transform="translate(1060 17867)" fill="#3a3a3a" opacity="0.05"/>
    <g id="Grupo_85118" data-name="Grupo 85118" transform="translate(926.946 17342.266)">
      <path id="Trazado_105503" data-name="Trazado 105503" d="M261.338,166.033l-9.358,52.454c-19.419,26.542-29.706,45.437-55.109,42.753-31.865-3.374-49.305-49.876-49.305-49.876l6.194-5.863s1.064,1.53,2.864,3.945c6.118,8.292,20.664,27.037,29.376,30.5,12.326,4.9,26.992-2.924,40.712-33.335C244.587,167.008,261.338,166.033,261.338,166.033Z" transform="translate(5.814 24.501)" fill="#68c2dd"/>
      <path id="Trazado_105504" data-name="Trazado 105504" d="M261.338,166.033l-9.358,52.454c-19.419,26.542-29.706,45.437-55.109,42.753-31.865-3.374-49.305-49.876-49.305-49.876l6.194-5.863s1.064,1.53,2.864,3.945c6.118,8.292,20.664,27.037,29.376,30.5,12.326,4.9,26.992-2.924,40.712-33.335C244.587,167.008,261.338,166.033,261.338,166.033Z" transform="translate(5.814 24.501)" fill="#808083" opacity="0.3"/>
      <path id="Trazado_105505" data-name="Trazado 105505" d="M303.529,293.171c-65.2,26.491-95.759,1.6-95.759,1.6-.741-57.009,30.543-122.954,37.415-127.018A50.54,50.54,0,0,1,259.363,162c12.6-2.992,24.214-.45,32.357,2.608a58.473,58.473,0,0,1,11.809,5.9C331.6,190.447,303.529,293.171,303.529,293.171Z" transform="translate(20.473 23.192)" fill="#68c2dd"/>
      <path id="Trazado_105506" data-name="Trazado 105506" d="M294.887,302.211c-4.476,4.859-11.055,8.512-20.666,9.492l-2.49.239q-5.6.5-10.75.635a120.35,120.35,0,0,1-13.675-.358c-18.019-1.588-30.556-7.811-36.7-19.766a37.061,37.061,0,0,1-3.336-9.81A53.5,53.5,0,0,1,206.276,272c0-9.717,2.211-13.914,2.211-13.914s9.294,4.7,35.084,7.4a518.84,518.84,0,0,0,60.756,2.291C304.5,273.548,305.214,291.05,294.887,302.211Z" transform="translate(20.112 46.92)" fill="#404041"/>
      <path id="Trazado_105507" data-name="Trazado 105507" d="M292.071,476.189,280.486,472.3s3.734-43.425-10.75-87.393c-10.418-31.616-16.549-64.025-19.171-79.74-.185-1.047-.343-2.026-.49-2.926-.7-4.33-1.032-6.792-1.032-6.792l35.693-6.924s-.146,2.2-.265,6.276c-.424,14.219-.53,51.341,7,98.9q.813,5.2,1.456,10.049C299.352,452.888,292.071,476.189,292.071,476.189Z" transform="translate(30.528 54.333)" fill="#404041"/>
      <path id="Trazado_105508" data-name="Trazado 105508" d="M254.422,474.732l-10.089-4.713s2.462-42.935-12.021-86.889c-11.095-33.7-19.117-77.186-22.268-95.655-.49-2.94-.874-5.243-1.113-6.779-.225-1.416-.343-2.171-.343-2.171l38.724,8.209s-.49,6.209-.556,17.211c0,1.059-.012,2.159-.012,3.3a527.947,527.947,0,0,0,7.321,84.679C262.537,442.719,254.422,474.732,254.422,474.732Z" transform="translate(20.675 51.898)" fill="#404041"/>
      <path id="Trazado_105509" data-name="Trazado 105509" d="M284.807,164.6c-.5,1.324-3.84,9.334-14.418,17.2,0,0-1.006-5.123-4.4-6.779,0,0-3.389,3.191-5.044,4.793l-7.6,72.22-10.764,11.531L236.14,248.5l20.017-72.313-.994-5.681s-6.844,5.177-8.049,8.646c0,0-1.231-10.155,5.336-17.158C265.054,159,276.665,161.546,284.807,164.6Z" transform="translate(27.385 23.192)" fill="#808083" opacity="0.3"/>
      <path id="Trazado_105510" data-name="Trazado 105510" d="M152.9,196.736s4.032,3.867,4.243,5.766c0,0-.067,8.722-8.987,8.5S152.9,196.736,152.9,196.736Z" transform="translate(5.22 31.979)" fill="#68c2dd"/>
      <path id="Trazado_105511" data-name="Trazado 105511" d="M208.788,258.857s25.981,11.9,93.337,9.419v4.633s-62.953,8.771-94.363-9.764Z" transform="translate(20.474 47.108)" fill="#231f20"/>
      <path id="Trazado_105512" data-name="Trazado 105512" d="M228.932,265.765l-.511,4.144a2.312,2.312,0,0,0,1.97,2.572l12.5,1.775a2.312,2.312,0,0,0,2.623-2.032l.475-4.244a2.311,2.311,0,0,0-1.99-2.548l-12.462-1.674A2.311,2.311,0,0,0,228.932,265.765Z" transform="translate(25.501 48.297)" fill="#6d6e70"/>
      <path id="Trazado_105513" data-name="Trazado 105513" d="M261.02,266.165a28.729,28.729,0,0,1,0,9.047h3.53s.994-5.738,0-9.047Z" transform="translate(33.445 48.888)" fill="#404041"/>
      <path id="Trazado_105514" data-name="Trazado 105514" d="M219.181,261.54a28.739,28.739,0,0,0-1.691,8.888l-3.468-.659s.1-5.822,1.691-8.888Z" transform="translate(21.999 47.601)" fill="#404041"/>
      <path id="Trazado_105515" data-name="Trazado 105515" d="M268.894,272.734s0,14.654,10.146,23.647c0,0,7.379-8.3,6-25.493C285.036,270.889,279.271,272.734,268.894,272.734Z" transform="translate(35.363 50.039)" fill="#353535"/>
      <path id="Trazado_105516" data-name="Trazado 105516" d="M262.187,198.325a53.067,53.067,0,0,1,21.4,4.35l-3.484,19.45a5.555,5.555,0,0,1-4.408,4.472l-8.767,1.7-5.836-3.746a5.553,5.553,0,0,1-2.471-5.622Z" transform="translate(32.839 32.362)" fill="#808083" opacity="0.3"/>
      <path id="Trazado_105517" data-name="Trazado 105517" d="M279.072,169.975s-13.53,4.845-23.049,3.879a36.761,36.761,0,0,1-4.78-.7c-5.613-1.51,5.468-4.926,2.781-24.943L276.98,137.63s-.132.609-.317,1.681c-.3,1.788-.782,4.832-1.086,8.382C274.942,155.225,275.048,165.063,279.072,169.975Z" transform="translate(30.671 17.584)" fill="#eaa688"/>
      <path id="Trazado_105518" data-name="Trazado 105518" d="M276.98,137.63s-.132.609-.317,1.681c-.3,1.788-.782,4.832-1.086,8.382-5.071,9.426-13.6,21.937-24.335,25.459-5.613-1.51,5.468-4.926,2.781-24.943Z" transform="translate(30.671 17.584)" fill="#cc8569"/>
      <path id="Trazado_105519" data-name="Trazado 105519" d="M259.582,166.033S231.405,197.959,228.6,222c0,0-9,28.492-29.992,29.5s-43.816-34-43.816-34,1.409-2.549,0-7.512a.914.914,0,0,1,.075-.54c6.118,8.292,20.664,27.037,29.376,30.5,12.326,4.9,26.992-2.924,40.712-33.335C242.831,167.008,259.582,166.033,259.582,166.033Z" transform="translate(7.57 24.501)" fill="#68c2dd"/>
      <path id="Trazado_105520" data-name="Trazado 105520" d="M261.326,202.568a42.231,42.231,0,0,1,18.817,3.275l.662-2.958s-6.454-4.636-18.756-4.323Z" transform="translate(33.519 32.42)" fill="#68c2dd"/>
      <path id="Trazado_105521" data-name="Trazado 105521" d="M261.837,202.2s12.031.276,18.541,3.752c0,0-1.544,16.162-4.633,17.707a47.651,47.651,0,0,1-8.716,2.758s-6.832-4.135-7.668-6.509S261.837,202.2,261.837,202.2Z" transform="translate(33.008 33.309)" fill="#68c2dd"/>
      <path id="Trazado_105522" data-name="Trazado 105522" d="M235.2,272.307s-3.417,21.951,8.027,36.754l-1.194-.187s-10.943-12.149-8.212-37.05Z" transform="translate(26.715 50.267)" fill="#353535"/>
      <path id="Trazado_105523" data-name="Trazado 105523" d="M229.476,271.551s-1.573,13.488,0,18.37,7.872,6.041,7.872,6.041l.65,1.406s-7.673-.5-9.421-7.448,0-19.031,0-19.031Z" transform="translate(25.354 50.039)" fill="#353535"/>
      <path id="Trazado_105524" data-name="Trazado 105524" d="M302.292,478.793,290.707,474.9s3.734-43.425-10.75-87.393c-10.418-31.616-16.549-64.025-19.171-79.74a120.356,120.356,0,0,1-13.675-.358,527.944,527.944,0,0,0,7.321,84.679c8.474,50.8.358,82.811.358,82.811L244.7,470.187s2.462-42.935-12.021-86.889c-11.095-33.7-19.117-77.186-22.268-95.655a37.061,37.061,0,0,1-3.336-9.81c.688.98,1.43,2,2.223,3.032,6.262,8.169,15.808,17.449,28.65,21.183a73.262,73.262,0,0,0,9.175,2.066,62.249,62.249,0,0,0,13.173.729c11.413-.6,17.834-4.342,17.834-4.342a24.84,24.84,0,0,1-6.593,6.633,11.95,11.95,0,0,1-5.428,1.946,24.527,24.527,0,0,0,10.035,7.731,20.024,20.024,0,0,1-8.592-2.687s4.725,82.811,32.317,90.968a22.579,22.579,0,0,1,3.283,1.257C309.573,455.491,302.292,478.793,302.292,478.793Z" transform="translate(20.307 51.73)" fill="#353535"/>
      <path id="Trazado_105525" data-name="Trazado 105525" d="M276.078,163.968c-2.1,1.92-4.09,3.615-5.878,5.085a112.731,112.731,0,0,1-9.757,7.308c-.066.343-.146.741-.211,1.164-2.5,13.862-9.493,71.387-9.493,71.387l-10.326,12.577-5.561-14.338c3.972-24.718,21.62-71.214,21.62-71.214a32.421,32.421,0,0,1-2.105-6.394v-.014a28.713,28.713,0,0,1-.7-7.838,8.693,8.693,0,0,0,.715,2.794c2.237,5.07,8.99,4.183,14.378,2.476A48.253,48.253,0,0,0,276.078,163.968Z" transform="translate(27.072 23.444)" fill="#fe4543"/>
      <path id="Trazado_105526" data-name="Trazado 105526" d="M266.378,168.506a112.724,112.724,0,0,1-9.757,7.308c-.066.343-.146.741-.211,1.164a6.989,6.989,0,0,1-1.775.888c-1.165.08-1.986-2.476-1.986-2.476a4.988,4.988,0,0,0,3.389.424l4.145-3.655a7.981,7.981,0,0,0-.861-2.45c-.53-.714-4.185.384-4.185.384a10.258,10.258,0,0,0-2.237-2.158c-.807-.344-2.357,1.06-2.357,1.06V163.95l.014-.012c2.237,5.07,8.99,4.183,14.378,2.476Z" transform="translate(30.894 23.991)" fill="#9e0404"/>
      <path id="Trazado_105527" data-name="Trazado 105527" d="M277.107,157.618c-5.362-1.271-19.873,10.76-19.873,10.76s-3.084-7.43-2.757-10.308c0,0-2.067-1.261-7.315,7.055-2.825,4.476-2.123,11.182-2.123,11.182,3.361-7.333,8.363-9.679,9.355-7.638a11.507,11.507,0,0,0,2.1,2.98,25.618,25.618,0,0,0,3.476-2.287c1.048-.847,5.4,1.51,8.3,8.018,0,0,12.51-6.8,14.466-12.213C282.731,165.168,279.4,158.162,277.107,157.618Z" transform="translate(29.534 22.429)" fill="#68c2dd"/>
      <path id="Trazado_105528" data-name="Trazado 105528" d="M255.35,433.353c-1.392-4.025-8.2-1.571-8.2-1.571a6.974,6.974,0,0,0-6.26-4.413c-.075,6.213-7.114,9.078-18.275,13.46-8.537,3.351-8.471,7.823-8.471,7.823,12.974,3.239,33.793-2.916,33.793-2.916s-.04,1.961,8.788,1.078c0,0,1.538-8.215-1.712-12.647C255.008,434.167,255.142,433.862,255.35,433.353Z" transform="translate(22.027 88.149)" fill="#231f20"/>
      <path id="Trazado_105529" data-name="Trazado 105529" d="M293.7,437.614c-1.392-4.025-8.2-1.571-8.2-1.571a6.974,6.974,0,0,0-6.26-4.413c-.075,6.213-7.114,9.078-18.275,13.46-8.537,3.353-8.471,7.823-8.471,7.823,12.975,3.241,33.795-2.916,33.795-2.916s-.04,1.961,8.787,1.078c0,0,1.54-8.215-1.712-12.646C293.359,438.43,293.493,438.123,293.7,437.614Z" transform="translate(31.367 89.186)" fill="#231f20"/>
      <g id="Grupo_85116" data-name="Grupo 85116" transform="translate(257.732 65.431)">
        <path id="Trazado_105530" data-name="Trazado 105530" d="M299.726,96.443c0,45.769-20.124,72.83-44.3,75a34.619,34.619,0,0,1-4.078.133c-7.6-.185-16.284-19-16.5-44.656-.146-17.609,1.641-41.161,23.513-49.741,1.179-.464,2.41-.887,3.707-1.257C285.308,69.263,299.726,83.8,299.726,96.443Z" transform="translate(-230.662 -63.283)" fill="#eaa688"/>
        <path id="Trazado_105531" data-name="Trazado 105531" d="M246.567,84.2a1.265,1.265,0,0,0-.79-.618,6.926,6.926,0,0,0-5.851.48,6.064,6.064,0,0,0-2.237,2.344,3.63,3.63,0,0,0-2.756,1.762,8.168,8.168,0,0,0-1.058,3.974c-.281,4.765.94,9.477,2.151,14.094.081-.388.159-.776.24-1.164a38.177,38.177,0,0,0,1.9,10.032c2.018,5.761,3.8-3.659,4.1-5.392.553-3.171.94-6.372,1.282-9.572.15-1.4.356-2.818.418-4.224a9.507,9.507,0,0,1,1.226-4.607,10.734,10.734,0,0,0,.783-2.894q.3-1.735.6-3.469A1.392,1.392,0,0,0,246.567,84.2Z" transform="translate(-230.908 -61.116)" fill="#49260a"/>
        <g id="Grupo_85113" data-name="Grupo 85113" transform="translate(0 50.482)">
          <path id="Trazado_105532" data-name="Trazado 105532" d="M243.51,111.049S230.145,98.092,231.59,113.8s11.756,16.115,11.756,16.115Z" transform="translate(-231.481 -106.026)" fill="#eaa688"/>
          <path id="Trazado_105533" data-name="Trazado 105533" d="M239.516,113.236c-4.876-9.4-6.507-1.632-6.507-1.632,1.3-3.984,4.1-.56,5.652,3.676-1.112-.17-2.434.142-2.026,2.855,0,0,.275-2.73,2.5-1.4.063.225.129.45.184.674,1.186,4.864-.916,3.178-.321,6.725C240.919,125.572,242.362,118.722,239.516,113.236Z" transform="translate(-231.109 -105.402)" fill="#cc8569"/>
        </g>
        <path id="Trazado_105534" data-name="Trazado 105534" d="M289.081,98.583c0,38.83-14.5,64.21-33.654,72.338a34.619,34.619,0,0,1-4.078.133c-7.6-.185-16.284-19-16.5-44.656-.146-17.609,1.641-41.161,23.513-49.741C277.5,74.394,289.081,87.25,289.081,98.583Z" transform="translate(-230.662 -62.76)" fill="#ffbf9c"/>
        <g id="Grupo_85114" data-name="Grupo 85114" transform="translate(58.807 57.198)">
          <path id="Trazado_105535" data-name="Trazado 105535" d="M281.685,115.387s20.414-11.248,15.829,4.167-18.743,14.577-18.743,14.577Z" transform="translate(-278.771 -111.426)" fill="#eaa688"/>
          <path id="Trazado_105536" data-name="Trazado 105536" d="M285.388,118.013c8.226-8.746,9.162-.833,9.162-.833-1.111-4.112-5.513-1.051-8.333,2.966,1.548-.035,3.3.435,2.293,3.079,0,0,.078-2.743-3.179-1.69-.124.215-.25.43-.363.647-2.429,4.684.724,3.266-.679,6.714C281.421,130.09,280.588,123.115,285.388,118.013Z" transform="translate(-277.994 -110.824)" fill="#cc8569"/>
        </g>
        <path id="Trazado_105537" data-name="Trazado 105537" d="M258.965,98.72s9.019-5.792,14.149,2.978c0,0-3.972-4.633-13.736-1.737Z" transform="translate(-224.788 -57.78)" fill="#49260a"/>
        <path id="Trazado_105538" data-name="Trazado 105538" d="M249.638,96.835s-7.078-6.539-12.319,1.747c0,0,3.84-4.269,11.842-.548Z" transform="translate(-230.059 -58.379)" fill="#49260a"/>
        <path id="Trazado_105539" data-name="Trazado 105539" d="M297.089,111.217c-10.326-2.542-13-10.9-13-10.9a23.475,23.475,0,0,0,2.422,8.817C278.078,104.69,270.9,89.2,273.935,85.611s11.756-7,11.756-7,9.7,1.548,12.8,15.012A32.017,32.017,0,0,1,297.089,111.217Z" transform="translate(-221.314 -62.221)" fill="#ffbd5c"/>
        <path id="Trazado_105540" data-name="Trazado 105540" d="M269.524,83.6s.752,26.414,15.467,27.214c-1.424,2.654-1.937,6.269-2.8,9.138-1.49,4.962-3.083,9.771-4.885,14.625l2.1.915q3.637-5.26,7.273-10.52a16.231,16.231,0,0,1,3.731-4.383,28.229,28.229,0,0,0,7.635-8.066,23.421,23.421,0,0,0,3.136-14.4,27.622,27.622,0,0,0-5.325-13.706c-2.17-2.941-5.69-6.264-11.824-5.8C283.825,78.005,269.524,83.6,269.524,83.6Z" transform="translate(-222.216 -62.23)" fill="#49260a"/>
        <path id="Trazado_105541" data-name="Trazado 105541" d="M286.1,69.755c-6.225-4.711-14.318-4.8-21.745-3.84q-7.459.964-14.809,2.618c-2.2.5-4.4,1.042-6.552,1.751-1.946.643-4.565,1.37-6.169,2.7-2.786,2.3-2.226,7.043-1.811,10.17q.459,3.442.915,6.886c.168,1.256.012,3.6.874,4.672-.3.188-.594.372-.9.543.527-.007,1.051-.039,1.6-.075-.092.282-.2.561-.284.843l1.023-.747a23.227,23.227,0,0,0,4.974-1.153c2.056-.526,4.076-1.175,6.11-1.78,9.361-2.787,18.063-3.682,27.467-.713,1.22.385,2.488.926,2.961,2.2a19.88,19.88,0,0,0,3.859-7.147l1.067-.255,7.254-4.258A15.187,15.187,0,0,0,286.1,69.755Z" transform="translate(-230.704 -65.431)" fill="#49260a"/>
        <path id="Trazado_105542" data-name="Trazado 105542" d="M276.53,100a23.16,23.16,0,0,0,9.5,8.107,15.631,15.631,0,0,1-6.207-7.719,37.522,37.522,0,0,1-2.169-9.815c1.62,3.32,4.361,5.933,6.581,8.888a29.165,29.165,0,0,1,4.813,9.567,58.09,58.09,0,0,0-4.336-14.75,24.9,24.9,0,0,1,3.921,4.181c1.967,2.866,2.682,6.4,3.1,9.849a36.167,36.167,0,0,0-1.588-17.374,16.759,16.759,0,0,1,4.122,9.2c.556,3.954.817,7.989,1.3,11.963a38.5,38.5,0,0,0,1.013-13.061,21.374,21.374,0,0,1,1.2,7.216,32.513,32.513,0,0,0-5.933-22.468,8.031,8.031,0,0,1,.8,4.229,16.244,16.244,0,0,0-6.2-6.767,12.471,12.471,0,0,1,2.713,5.005c-1.783-2.364-4.8-2.986-6.864-4.846a15.428,15.428,0,0,1,4.393,6.9,18.82,18.82,0,0,0-6.837-4.507,17.368,17.368,0,0,1,3.994,7.638,33.305,33.305,0,0,0-5.7-4.769,20.518,20.518,0,0,1,3.026,6.607q-2.97-3.29-5.626-6.844l.231,5.694c-.014-.354-.813-1.189-1-1.533a12.5,12.5,0,0,1-.851-1.9c-.235-.67-.251-1.9-.719-2.4-.813,1.24-.4,3.856-.139,5.224A23.086,23.086,0,0,0,276.53,100Z" transform="translate(-221.438 -61.578)" fill="#58320e"/>
        <path id="Trazado_105543" data-name="Trazado 105543" d="M243.419,74.234a5.454,5.454,0,0,0-4.085,2.1,7.785,7.785,0,0,0-.962,2.8,4.613,4.613,0,0,1,4.1-3.418,5.08,5.08,0,0,1,4.7,2.69,8.2,8.2,0,0,1,.776,3.711c.031,2.109-.425,4.436-2.181,5.8,3.313-.6,4.625-2.753,4.428-5.968-.15-2.481-.851-5.154-3.013-6.634A6.151,6.151,0,0,0,243.419,74.234Z" transform="translate(-229.803 -63.288)" fill="#58320e"/>
        <path id="Trazado_105544" data-name="Trazado 105544" d="M251.1,77.249c-1.318-3.082-4.645-5.36-7.967-4.921a13.156,13.156,0,0,1,9.72,1.276,9.874,9.874,0,0,1,4.895,8.266,11.047,11.047,0,0,0-3.819-10.561,12.792,12.792,0,0,1,6.955,7.515,6.549,6.549,0,0,0-.429-8.345,11.02,11.02,0,0,1,4.04,7.939,6.576,6.576,0,0,0-.8-9.345,8.729,8.729,0,0,1,5.45,9.9,7.962,7.962,0,0,0,2.519-7.762c-.362-1.493-1.358-3.006-2.871-3.269,4.065.775,5.948,5.508,5.346,9.335,2.12-2.636.73-6.887-1.3-8.952,2.845,2.466,5.906,5.339,6.169,9.1.2,2.869-1.3,5.547-2.761,8.028a10.686,10.686,0,0,0-.143-4.25,12.9,12.9,0,0,1-3.931,5.684,3.9,3.9,0,0,0-1.872-4.3,5.666,5.666,0,0,1-.8,4.188,4.261,4.261,0,0,0-2.089-2.976,12.58,12.58,0,0,0-3.5-1.326,5.747,5.747,0,0,1,1.254,4.09,6.907,6.907,0,0,0-5.917-2.8,6.129,6.129,0,0,1,1.78,3.724,12.734,12.734,0,0,0-6.312-1.685,7.55,7.55,0,0,1,2.079,2.206,19.061,19.061,0,0,0-8.566.965C252.266,87.536,252.44,80.38,251.1,77.249Z" transform="translate(-228.643 -64.819)" fill="#58320e"/>
        <path id="Trazado_105545" data-name="Trazado 105545" d="M245.588,82.476a2.933,2.933,0,0,0-.974-2.312,2.768,2.768,0,0,0-1-.415,4.758,4.758,0,0,0-2.792.128,4.4,4.4,0,0,0-2.62,3.456,5.936,5.936,0,0,0,1.165,4.277,6.861,6.861,0,0,1-.434-3.1,3.617,3.617,0,0,1,1.556-2.629,2.482,2.482,0,0,1,2.93.179,3.153,3.153,0,0,1,.815,1.51,4.577,4.577,0,0,1,.087,2.277,2.879,2.879,0,0,1-1.3,1.824A5.232,5.232,0,0,0,245.588,82.476Z" transform="translate(-229.858 -61.98)" fill="#58320e"/>
        <path id="Trazado_105546" data-name="Trazado 105546" d="M240.341,91.151a3.061,3.061,0,0,0,.975,1.949,6.709,6.709,0,0,0,1.867,1.2,4.561,4.561,0,0,1-1.3-2.069,3.143,3.143,0,0,1,.267-2.391,3.985,3.985,0,0,1,1.068-1.125,7.622,7.622,0,0,1,3.074-1.379c-.24.049-.786-.213-1.067-.229a4.634,4.634,0,0,0-1.2.131,5.211,5.211,0,0,0-1.474.322A4.452,4.452,0,0,0,240.341,91.151Z" transform="translate(-229.324 -60.153)" fill="#49260a"/>
        <path id="Trazado_105547" data-name="Trazado 105547" d="M269.89,68.916a13.32,13.32,0,0,1,5.188,6.355q-.39-1.742-.9-3.456a4.788,4.788,0,0,0-1.337-2.46c2.577,1.719,3.9,4.752,4.99,7.653a9.073,9.073,0,0,0-2.149-6.045c1.84,2.15,3.738,4.426,4.341,7.19a7.264,7.264,0,0,0-.485-4.346,16.947,16.947,0,0,1,1.885,8.345q-.52-1.5-1.043-3a11.607,11.607,0,0,1-2.262,7.06,13.929,13.929,0,0,0,.42-5.1,7.344,7.344,0,0,1-2.722,4.346,6.248,6.248,0,0,0,.567-4.018c-.347,1.975-1.9,3.483-3.372,4.846a20.359,20.359,0,0,0,.8-3.513,5.786,5.786,0,0,1-3.841,3.726,13.946,13.946,0,0,1,1.96-2.967,7.122,7.122,0,0,0,1.252-3.268,13.67,13.67,0,0,0-.9-7.661A12.531,12.531,0,0,0,269.89,68.916Z" transform="translate(-222.127 -64.582)" fill="#58320e"/>
        <path id="Trazado_105548" data-name="Trazado 105548" d="M235.274,93.782a7.278,7.278,0,0,1,1.037-2.046,21.124,21.124,0,0,0-.849,7.867,37.042,37.042,0,0,1,1.882-7.92,2.192,2.192,0,0,0-.517.795,5.72,5.72,0,0,1,1.513-3.46,2.062,2.062,0,0,0-2.551.67C235.086,90.965,235.684,92.5,235.274,93.782Z" transform="translate(-230.557 -59.724)" fill="#58320e"/>
        <circle id="Elipse_4164" data-name="Elipse 4164" cx="11.303" cy="11.303" r="11.303" transform="translate(25.487 64.52) rotate(-76.77)" fill="none" stroke="#404041" stroke-miterlimit="10" stroke-width="1"/>
        <circle id="Elipse_4165" data-name="Elipse 4165" cx="11.303" cy="11.303" r="11.303" transform="translate(1.176 40.775)" fill="none" stroke="#404041" stroke-miterlimit="10" stroke-width="1"/>
        <path id="Trazado_105549" data-name="Trazado 105549" d="M245.411,123.98c-.063,1.128.165,2.471,1.292,3.008.7.335,1.485-.133,2.073-.5a2.262,2.262,0,0,1,2.068-.242,4.453,4.453,0,0,0,1.928.3,3.143,3.143,0,0,0,1.605-1,2.069,2.069,0,0,0,.451-.593,4.491,4.491,0,0,0-.02-1.6c-.011-.752-.05-1.5-.087-2.256-.249-5.009-.6-10-1-15-.029-.358-.053-.884-.379-1.082-1.261,1.477-1.955,3.571-2.773,5.315q-1.393,2.968-2.614,6.01c-1,2.5-2.347,4.789-2.542,7.55Z" transform="translate(-228.091 -55.789)" fill="#f27864"/>
        <path id="Trazado_105550" data-name="Trazado 105550" d="M250.063,104.706a3.84,3.84,0,0,1,6.128,1.679" transform="translate(-226.956 -56.089)" fill="none" stroke="#404041" stroke-miterlimit="10" stroke-width="1"/>
        <line id="Línea_275" data-name="Línea 275" x2="2.845" y2="0.363" transform="translate(2.059 47.696)" fill="none" stroke="#404041" stroke-miterlimit="10" stroke-width="1"/>
        <path id="Trazado_105551" data-name="Trazado 105551" d="M271.885,108.093l-.18,1.23,18.56,3.788-.066.147,2.05-.585.123-1.279Z" transform="translate(-221.685 -55.04)" fill="#404041"/>
        <path id="Trazado_105552" data-name="Trazado 105552" d="M265.519,107.962a1.3,1.3,0,1,1-1.3-1.3A1.3,1.3,0,0,1,265.519,107.962Z" transform="translate(-223.827 -55.39)" fill="#404041"/>
        <path id="Trazado_105553" data-name="Trazado 105553" d="M246.961,105.864a1.3,1.3,0,1,1-1.3-1.3A1.3,1.3,0,0,1,246.961,105.864Z" transform="translate(-228.346 -55.901)" fill="#404041"/>
        <g id="Grupo_85115" data-name="Grupo 85115" transform="translate(13.281 75.404)">
          <path id="Trazado_105554" data-name="Trazado 105554" d="M242.617,127.124s6.128,7.4,28.528-1.057c0,.634-3.17,17.54-22.189,15.849C248.957,141.7,240.08,141.7,242.617,127.124Z" transform="translate(-242.161 -126.067)" fill="#a52a16"/>
          <path id="Trazado_105555" data-name="Trazado 105555" d="M270.4,126.067a59.172,59.172,0,0,1-15.8,3.931c-7.116,3.5-9.144,7.569-9.354,10.815a9.649,9.649,0,0,0,2.966,1.1C267.226,143.607,270.4,126.7,270.4,126.067Z" transform="translate(-241.411 -126.067)" fill="#e35f6c"/>
          <path id="Trazado_105556" data-name="Trazado 105556" d="M268.95,131.261a18.1,18.1,0,0,0,1.733-5.194c-15.73,5.937-23.43,4.056-26.624,2.411h0V132.7S257.349,137.153,268.95,131.261Z" transform="translate(-241.699 -126.067)" fill="#fff"/>
        </g>
      </g>
      <g id="Grupo_85117" data-name="Grupo 85117" transform="translate(123.695 202.294)">
        <path id="Trazado_105557" data-name="Trazado 105557" d="M160.509,207.182a8.8,8.8,0,0,0,.476-1.591,23.071,23.071,0,0,0,.3-6.253c-.183-2.11-.642-4.186-.858-6.292-.363-3.543.036-7.334,2.088-10.244.612-.868,1.359-1.641,1.883-2.564a3.544,3.544,0,0,0,.394-3.048,3.144,3.144,0,0,0-3.079-1.7,6.718,6.718,0,0,0-3.42,1.4,16.651,16.651,0,0,0-6.866,14.7c-.119-.165-.245-.326-.374-.479-3.135-3.7-7.142-6.545-11.1-9.346-.41-.288-.828-.573-1.253-.847-.228-.154-.455-.308-.683-.46a3.855,3.855,0,0,0-2.537-.919c-1.327.187-2.053,1.649-2.319,2.963a7.437,7.437,0,0,1-.793,2.69,5.967,5.967,0,0,1-1.576,1.438c-1.389,1.007-2.837,2.3-2.941,4.013a6.627,6.627,0,0,1-.1,1.738c-.327.964-1.436,1.378-2.153,2.1a4.244,4.244,0,0,0-.833,3.986,4.023,4.023,0,0,1,.205,1.18c-.062,1.063-1.18,1.83-1.271,2.891a2.972,2.972,0,0,0,.933,2.058c4.514,5.274,11.378,7.827,18.015,9.861a20,20,0,0,0,5.015,1.058,12.722,12.722,0,0,0,7.6-2.378A13.975,13.975,0,0,0,160.509,207.182Z" transform="translate(-123.695 -175.489)" fill="#ffbf9c"/>
        <path id="Trazado_105558" data-name="Trazado 105558" d="M136.509,188.372c2.082,1.546,4.977,4.606,7.316,1.712a4.484,4.484,0,0,0,.806-3.629,3.4,3.4,0,0,1,0,3.369,3.935,3.935,0,0,1-.65,1.025c-1.734,1.876-4.582.9-6.2-.487-1.837-1.586-4.89-2.917-5.324-5.6A21.966,21.966,0,0,0,136.509,188.372Z" transform="translate(-121.561 -173.231)" fill="#eaa688"/>
        <path id="Trazado_105559" data-name="Trazado 105559" d="M133.458,192.981a25.193,25.193,0,0,0,2.221,1.4c1.328.741,2.981,1.276,4.336.586a3.694,3.694,0,0,0,1.592-1.776,10.964,10.964,0,0,0,.69-2.324,3.938,3.938,0,0,1-.817,3.6,4.07,4.07,0,0,1-3.078,1.991,4.984,4.984,0,0,1-2.538-1.047,13.28,13.28,0,0,1-2.7-1.854c-.917-.915-2.369-1.643-2.542-3.069A15.7,15.7,0,0,0,133.458,192.981Z" transform="translate(-122.009 -171.839)" fill="#eaa688"/>
        <path id="Trazado_105560" data-name="Trazado 105560" d="M136.365,181.113a1.129,1.129,0,0,0,.463.7q2,1.785,4.033,3.538a6.3,6.3,0,0,0,1.644,1.139c-.163-.067-.45-.776-.57-.946a8.376,8.376,0,0,0-.7-.861c-.357-.387-.76-.719-1.148-1.072A13.983,13.983,0,0,0,136.365,181.113Z" transform="translate(-120.61 -174.12)" fill="#eaa688"/>
        <path id="Trazado_105561" data-name="Trazado 105561" d="M130.791,197.505a14.976,14.976,0,0,0,2.841,2.041,5.061,5.061,0,0,0,3.392.538,3.761,3.761,0,0,0,2.764-4.671,3.255,3.255,0,0,1,.057,3.29,4.049,4.049,0,0,1-2.769,2.468,4.992,4.992,0,0,1-3.105-.776,21.8,21.8,0,0,1-5.835-4.529,2.357,2.357,0,0,1-.6-.917A35.161,35.161,0,0,1,130.791,197.505Z" transform="translate(-122.76 -170.749)" fill="#eaa688"/>
        <path id="Trazado_105562" data-name="Trazado 105562" d="M130.8,203.215c1.741.923,3.89,1.619,5.626.689a3.587,3.587,0,0,0,1.445-4.616,4.435,4.435,0,0,1,.516,3.239,3.357,3.357,0,0,1-2.16,2.385,5.077,5.077,0,0,1-3.1-.272c-2.537-.862-5.5-2.453-7.134-4.632C127.672,200.943,129.082,202.3,130.8,203.215Z" transform="translate(-123.135 -169.693)" fill="#eaa688"/>
        <path id="Trazado_105563" data-name="Trazado 105563" d="M144.389,186.639a34.13,34.13,0,0,0,3.729,9.584c-.473-.823-.262-3.187-.546-4.275-.377-1.451-.787-2.895-1.17-4.346-.017-.061-.039-.119-.055-.18-.006.485,0,.971.042,1.456-.119-.165-.245-.326-.374-.479C145.5,187.788,144.95,187.207,144.389,186.639Z" transform="translate(-118.655 -172.774)" fill="#eaa688"/>
      </g>
      <path id="Trazado_105564" data-name="Trazado 105564" d="M270.19,273.481a6.474,6.474,0,0,0,2.932-1.4" transform="translate(35.678 50.329)" fill="none"/>
      <path id="Trazado_105565" data-name="Trazado 105565" d="M282.11,267.7c2.718.843,5.643.453,8.486.576a2.078,2.078,0,0,1,1.288.362,2.427,2.427,0,0,1,.6,1.229,10.42,10.42,0,0,0,3.6,5.291,180.7,180.7,0,0,1-15.45,20.751,29.328,29.328,0,0,1-9.835-19.766l3.789-1.874c.216-1.416-1.033-2.676-2.373-3.183s-2.818-.527-4.183-.958a7.287,7.287,0,0,1-3.665-2.628c-.563-.769-.924-1.954-.216-2.592a2.225,2.225,0,0,1,1.547-.384,32.181,32.181,0,0,1,5.263.388c.9.158,1.842.165,2.746.259a15.717,15.717,0,0,1,4.436.831C279.468,266.548,280.727,267.289,282.11,267.7Z" transform="translate(34.11 48.489)" fill="#ffbf9c"/>
      <path id="Trazado_105566" data-name="Trazado 105566" d="M287.241,169.538a7.085,7.085,0,0,0-4.245-.163,5.2,5.2,0,0,0-2.359,2.02c-4.985,6.787-4.417,16.874,2,21.865a125.207,125.207,0,0,1,29.419,33.233c5.378,8.738,18.518,28.278,12.225,39.153-1.874,3.238-4.717,5.56-7.545,7.716a188.167,188.167,0,0,1-18.174,12.46c-3.124,1.848-6.323,3.567-9.613,5.1-.551.257-2.011.6-2.375,1.053-.379.469-.214,1.436-.148,2.058a22.448,22.448,0,0,0,2.865,8.261.258.258,0,0,0,.106.121.242.242,0,0,0,.146,0,9.587,9.587,0,0,0,1.972-.6,50.134,50.134,0,0,1,4.763-1.756,38.232,38.232,0,0,0,4.694-1.869c2.74-1.273,5.357-2.776,8.011-4.212.3-.162.6-.322.9-.476a122.579,122.579,0,0,0,22.384-14.7c4.84-4.005,12.6-9.518,11.788-17.385A127.641,127.641,0,0,0,324.1,205.1a114.765,114.765,0,0,0-18.932-22.307C301.472,179.45,293.549,171.457,287.241,169.538Z" transform="translate(37.411 25.253)" fill="#68c2dd"/>
      <path id="Trazado_105567" data-name="Trazado 105567" d="M274.268,271.665a13.981,13.981,0,0,0-2.722-1.574,2.973,2.973,0,0,1,1.658,2.825l-3.789,1.874c.024.327.06.653.095.98.468-.025.934-.045,1.392-.066a49.467,49.467,0,0,0,8.393-1.118C277.781,274.921,275.376,272.429,274.268,271.665Z" transform="translate(35.489 49.844)" fill="#eaa688"/>
      <path id="Trazado_105568" data-name="Trazado 105568" d="M265.358,264.99a.7.7,0,0,0-.312-.006.545.545,0,0,0-.267.215,1.417,1.417,0,0,0-.153,1.392,2.2,2.2,0,0,0,.681.8,5.174,5.174,0,0,0,3.492,1.093c-.369-1.017.371-2.19,0-3.207C267.662,265.186,266.486,265.179,265.358,264.99Z" transform="translate(34.295 48.597)" fill="#fff" opacity="0.2"/>
      <path id="Trazado_105569" data-name="Trazado 105569" d="M271.268,269.859a7.227,7.227,0,0,0,.844-1.992,3.084,3.084,0,0,0-.224-2.115c-.068.7.116,1.4.047,2.1A4.88,4.88,0,0,1,271.268,269.859Z" transform="translate(35.941 48.787)" fill="#eaa688"/>
      <path id="Trazado_105570" data-name="Trazado 105570" d="M330.613,254.181c-1.1-5.651-2.133-12.047-4.448-17.3a160.441,160.441,0,0,0-7.953-15.3c-5.678-9.834-12.552-19.163-21.579-26.182q-.423-.328-.853-.652a103.77,103.77,0,0,0-11.408-7.247c-1.489-3.938-3.477-11.855,1.144-18.315a5.923,5.923,0,0,0-2.521.188,5.2,5.2,0,0,0-2.359,2.02c-4.985,6.787-4.417,16.874,2,21.865a125.207,125.207,0,0,1,29.419,33.233c5.378,8.738,18.518,28.278,12.225,39.153-1.874,3.238-4.717,5.56-7.545,7.716a188.167,188.167,0,0,1-18.174,12.46q-2.537,1.5-5.146,2.869v.1c-.005-.031-.015-.061-.021-.092-.339.179-.689.339-1.031.515.063.4.144.8.184,1.112a18.643,18.643,0,0,0,1.276,4.76,18.982,18.982,0,0,0,2.906,4.81c.27-.09.536-.192.8-.29a31.516,31.516,0,0,1-3.386-7.72c4.985-2.24,35.507-16.427,37.79-29.272C332.365,260.185,331.07,256.534,330.613,254.181Z" transform="translate(37.411 25.256)" fill="#808083" opacity="0.3"/>
    </g>
  </g>
</svg>
