<svg xmlns="http://www.w3.org/2000/svg" width="399.5" height="282.641" viewBox="0 0 399.5 282.641">
  <g id="Grupo_85156" data-name="Grupo 85156" transform="translate(-181 -18138.66)">
    <g id="Grupo_85155" data-name="Grupo 85155" transform="translate(181 18172.92)">
      <g id="Grupo_85154" data-name="Grupo 85154" transform="translate(0 0)">
        <g id="Grupo_85125" data-name="Grupo 85125" transform="translate(103.74 91.317)">
          <g id="Grupo_85121" data-name="Grupo 85121" transform="translate(133.022 4.325)">
            <path id="Trazado_105571" data-name="Trazado 105571" d="M285.378,194.188l-16.324,32.095,30.33-19.646Z" transform="translate(-262.048 -194.188)" fill="#fcb614"/>
            <path id="Trazado_105572" data-name="Trazado 105572" d="M263.81,221.065l9.138-19.916-12.673-1.962Z" transform="translate(-260.274 -195.198)" fill="#fcb614"/>
          </g>
          <g id="Grupo_85122" data-name="Grupo 85122" transform="translate(35.02 0)">
            <path id="Trazado_105573" data-name="Trazado 105573" d="M153.7,188.768l9.486,34.735-25.723-25.382Z" transform="translate(-137.464 -188.768)" fill="#fcb614"/>
            <path id="Trazado_105574" data-name="Trazado 105574" d="M175.668,220.073l-4.915-21.354,12.808.645Z" transform="translate(-144.189 -190.778)" fill="#fcb614"/>
          </g>
          <g id="Grupo_85123" data-name="Grupo 85123" transform="translate(0 111.838)">
            <path id="Trazado_105575" data-name="Trazado 105575" d="M124.968,328.916H93.58l4.256,12.768Z" transform="translate(-93.58 -328.916)" fill="#fcb614"/>
            <path id="Trazado_105576" data-name="Trazado 105576" d="M128.86,335.583l-21.28,17.556,10.108,5.32Z" transform="translate(-96.408 -330.262)" fill="#fcb614"/>
          </g>
          <g id="Grupo_85124" data-name="Grupo 85124" transform="translate(163.856 120.35)">
            <path id="Trazado_105577" data-name="Trazado 105577" d="M300.247,339.582h31.388l-4.256,12.768Z" transform="translate(-299.183 -339.582)" fill="#fcb614"/>
            <path id="Trazado_105578" data-name="Trazado 105578" d="M298.913,346.249l21.28,17.556-10.108,5.32Z" transform="translate(-298.913 -340.929)" fill="#fcb614"/>
          </g>
        </g>
        <g id="Grupo_85153" data-name="Grupo 85153">
          <g id="Grupo_85134" data-name="Grupo 85134" transform="translate(189.456 5.027)">
            <path id="Trazado_105579" data-name="Trazado 105579" d="M327.332,196.936c-1.139,5.836,27.047,54.562,49.8,60.257C384.181,221.923,339.908,196.685,327.332,196.936Z" transform="translate(-226.507 -104.128)" fill="#233942"/>
            <path id="Trazado_105580" data-name="Trazado 105580" d="M314.548,223.118c1.8,7.381,30.324,42.893,34.314,44.489s5.387.2,6.384-.8-29.709-48.945-36.908-50.673C313.351,214.939,314.548,223.118,314.548,223.118Z" transform="translate(-223.906 -107.983)" fill="#233942"/>
            <g id="Grupo_85128" data-name="Grupo 85128" transform="translate(0 106.892)">
              <g id="Grupo_85126" data-name="Grupo 85126" transform="translate(58.986)">
                <path id="Trazado_105581" data-name="Trazado 105581" d="M350.72,256.609c-19.727,14.7-43.443,30.077-53.809,36.692-3.328,2.123-5.283,3.336-5.283,3.336l-5.418-16.16-11.3-33.708a32.857,32.857,0,0,1,4.038-3.168c11.084-8.124,41.185-29.015,41.185-29.015a140.7,140.7,0,0,1,17.013,16.024c1.229,1.381,2.442,2.817,3.607,4.293C346.2,241.806,350.616,249.546,350.72,256.609Z" transform="translate(-274.91 -214.586)" fill="#fbc08b"/>
                <path id="Trazado_105582" data-name="Trazado 105582" d="M353.58,261.725c-19.727,14.7-43.443,30.077-53.809,36.692-3.328,2.123-5.283,3.336-5.283,3.336l-5.418-16.159,8.682-8.5,45.861-37.075.128-.1C350.7,247.76,353.453,253.155,353.58,261.725Z" transform="translate(-277.77 -219.703)" fill="#f7a079"/>
              </g>
              <g id="Grupo_85127" data-name="Grupo 85127" transform="translate(0 8.452)">
                <path id="Trazado_105583" data-name="Trazado 105583" d="M279.961,274.118c-3.583-11.7-10.278-20.94-13.8-25.807a23.623,23.623,0,0,0-2.147-2.57,38.788,38.788,0,0,0-3.368-3.112c-6.9-5.73-17.652-12.68-26.206-15.266-8.985-2.721-18.729-3.783-26.462,2.131-4.245,3.24-1.373,12.72-2.45,17.6l-.056,1.444-4.482,25.845c5.177,3.787,10.317,7.634,15.162,11.838,6.01,5.216,11.361,11.148,17.028,16.726a150.792,150.792,0,0,1,15.511,17.222c1.173,1.574,2.259,3.234,3.336,4.907.421-.306.841-.611,1.262-.92,11.731-8.61,23.525-18.186,27.411-22.312q.168-.61.311-1.221a45.4,45.4,0,0,0,.966-5.187A50.388,50.388,0,0,0,279.961,274.118Z" transform="translate(-200.993 -225.178)" fill="#fbc08b"/>
                <path id="Trazado_105584" data-name="Trazado 105584" d="M213.83,246.416l-8.3,4.972-.056,1.444-4.482,25.845c5.177,3.787,10.317,7.634,15.162,11.838,6.01,5.216,11.361,11.148,17.028,16.726a150.795,150.795,0,0,1,15.511,17.222c1.172,1.574,2.257,3.233,3.334,4.9,12.141-8.839,24.65-18.953,28.675-23.23q.168-.61.311-1.221C276.473,254,213.447,246.416,213.83,246.416Z" transform="translate(-200.993 -229.468)" fill="#f7a079"/>
              </g>
            </g>
            <g id="Grupo_85129" data-name="Grupo 85129" transform="translate(90.203 94.341)">
              <path id="Trazado_105585" data-name="Trazado 105585" d="M376.912,250.375c-.982,2.25-7.11,6.472-13.925,10.733-2.857,1.78-5.841,3.575-8.618,5.227-1.6-.2-5.586-2.194-5.586-2.194a6.563,6.563,0,0,0,3.99-.2c-3.392-14.165-34.122-47.976-35.112-48.08-3.3-.359-3.248,2.953-3.208,3.663a20.39,20.39,0,0,1-.383-4.66c.1-.782,3.854-4.509,8.084-8.164,4.373-3.783,9.241-7.493,11.068-7.8,3.591-.6,12.321,4.668,20.549,13.965C362.947,223.243,374.917,240,376.912,250.375Z" transform="translate(-314.029 -198.858)" fill="#fff"/>
              <path id="Trazado_105586" data-name="Trazado 105586" d="M378.969,250.375c-.982,2.25-7.11,6.472-13.925,10.733-10.789-24.826-30.212-44.736-40.834-54.408,4.373-3.783,9.241-7.493,11.068-7.8,3.591-.6,12.321,4.668,20.548,13.965C365,223.243,376.974,240,378.969,250.375Z" transform="translate(-316.086 -198.858)" fill="#eee1d7"/>
            </g>
            <g id="Grupo_85132" data-name="Grupo 85132" transform="translate(65.37 123.379)">
              <g id="Grupo_85130" data-name="Grupo 85130" transform="translate(5.586)">
                <path id="Trazado_105587" data-name="Trazado 105587" d="M335.931,283.126l-2.993,1.907-2.857,1.819L289.91,237.64l2.035-1.668.894-.726Z" transform="translate(-289.91 -235.246)" fill="#ee7e22"/>
                <path id="Trazado_105588" data-name="Trazado 105588" d="M332.938,285.217l-2.857,1.819L289.91,237.824l2.035-1.668Z" transform="translate(-289.91 -235.43)" fill="#b54f26"/>
              </g>
              <g id="Grupo_85131" data-name="Grupo 85131" transform="translate(0 4.525)">
                <path id="Trazado_105589" data-name="Trazado 105589" d="M325.2,291.988l-2.179,1.939-2.609,2.314-37.506-52.4,1.4-1.189,2.059-1.74Z" transform="translate(-282.91 -240.916)" fill="#ee7e22"/>
                <path id="Trazado_105590" data-name="Trazado 105590" d="M323.026,294.367l-2.609,2.314-37.506-52.4,1.4-1.189Z" transform="translate(-282.91 -241.356)" fill="#b54f26"/>
              </g>
            </g>
            <g id="Grupo_85133" data-name="Grupo 85133" transform="translate(100.825)">
              <path id="Trazado_105591" data-name="Trazado 105591" d="M436.06,80.636V197.958c-12.64,7.781-33.189,20.349-58.924,35.742a125.856,125.856,0,0,0-9.249-19.751A113.02,113.02,0,0,0,343.4,184.368c-9.121-7.757-16.056-10.925-16.056-10.925Z" transform="translate(-327.34 -80.636)" fill="#524460"/>
              <path id="Trazado_105592" data-name="Trazado 105592" d="M436.06,80.636v30.739c-28.959,23-76.8,60.9-92.664,72.993-9.121-7.757-16.056-10.925-16.056-10.925Z" transform="translate(-327.34 -80.636)" fill="#6d627b"/>
              <path id="Trazado_105593" data-name="Trazado 105593" d="M446.323,182.606v35.95c-12.64,7.781-33.189,20.349-58.924,35.743a125.854,125.854,0,0,0-9.249-19.751Z" transform="translate(-337.604 -101.234)" fill="#41344f"/>
            </g>
          </g>
          <path id="Trazado_105594" data-name="Trazado 105594" d="M57.483,277.437s14.9-17.823,45.486-84.855c-42.683,1.764-58.27,64.569-45.486,84.855" transform="translate(18.327 -98.222)" fill="#233942"/>
          <g id="Grupo_85144" data-name="Grupo 85144">
            <g id="Grupo_85135" data-name="Grupo 85135" transform="translate(78.954 103.205)">
              <path id="Trazado_105595" data-name="Trazado 105595" d="M253.29,299.961s-1.029,1.564-2.458,3.312a25.123,25.123,0,0,1-2.9,3.064c-1.2,1.037-2.41,1.716-3.383,1.524a13.754,13.754,0,0,1-3.264-1.708c-.694-.447-1.213-.822-1.293-.87a.041.041,0,0,1,.016.032c.207.415,1.907,3.775,1.907,5.3a10.869,10.869,0,0,1-1.125,2.1,28.25,28.25,0,0,1-2.043,2.7c-1.54,1.811-3.2,3.352-3.982,3.479-2.386-.12-16.3-6.5-17.588-7.094a.03.03,0,0,1-.024-.008c.774.606,8.882,6.879,9.72,9.863.136,2.609-1.229,5.251-2.929,7.262a10.829,10.829,0,0,1-4.469,3.391c-3.439.247-14.819-5.163-15.282-5.371l.136.12c.99.87,6.392,5.7,6.623,7.637a14.346,14.346,0,0,1-2.641,3.878c-1.843,1.947-3.926,3.136-5.131,3.136-1.883,0-49.38-11.419-72.786-33.763a76.284,76.284,0,0,1-16.758-21.817l-4.086-1.7L96.1,278.83,62.52,264.857s2.163-7.677,5.961-17.748c5.674-15,14.986-35.327,26.206-43.443l27.411,19.79L136,233.487l12.489,9.017a.126.126,0,0,0,.032-.008c.974-.375,24.969-9.361,50.505.535,26.071,10.111,42.557,30.324,47.88,38.839A48.433,48.433,0,0,1,253.29,299.961Z" transform="translate(-62.52 -203.666)" fill="#fbc08b"/>
              <path id="Trazado_105596" data-name="Trazado 105596" d="M279.115,329.416a10.867,10.867,0,0,1-1.125,2.1c-5.514-9.329-31.329-34.769-31.329-34.769,6.552,1.564,24.57,18.394,24.874,18.793,1.149,1.5,4.206,5.658,6.951,9.416-.694-.447-1.213-.822-1.293-.87a.042.042,0,0,1,.016.032C277.415,324.532,279.115,327.892,279.115,329.416Z" transform="translate(-99.716 -222.468)" fill="#f8cdaa"/>
              <path id="Trazado_105597" data-name="Trazado 105597" d="M275.059,308.753s-1.029,1.564-2.458,3.312c-4.062-9.768-13.813-29.6-37.841-46.14-30.156-20.756-63.257-14.859-64.47-14.635.974-.375,24.969-9.361,50.505.535,26.071,10.111,42.557,30.324,47.88,38.839A48.434,48.434,0,0,1,275.059,308.753Z" transform="translate(-84.29 -212.459)" fill="#f8cdaa"/>
              <path id="Trazado_105598" data-name="Trazado 105598" d="M137.3,247.315c2.394,4.253,3.854,13.829-1.333,20.876a18.694,18.694,0,0,1-13.031,7.453l-4.525,11.97s-.1.734-.359,1.819L104.6,283.839c4.565-18.186,20.612-46.26,26-55.373L144.5,238.5A60.743,60.743,0,0,1,137.3,247.315Z" transform="translate(-71.02 -208.676)" fill="#f7a079"/>
              <path id="Trazado_105599" data-name="Trazado 105599" d="M208.315,349.565c-1.843,1.947-3.926,3.136-5.131,3.136-1.883,0-49.38-11.419-72.786-33.763A76.283,76.283,0,0,1,113.64,297.12L62.52,275.854s2.163-7.677,5.961-17.748c12.92,8.586,35.974,23.182,51.742,28.576C125.985,294.942,152.622,335.345,208.315,349.565Z" transform="translate(-62.52 -214.663)" fill="#f7a079"/>
              <path id="Trazado_105600" data-name="Trazado 105600" d="M146.33,315.526s5.786-9.377,11.97-8.379,5.985,12.768,3.79,19.751c3.99-8.579,7.98-8.579,9.776-8.18s7.182,4.389,4.588,19.751c4.389-11.97,8.978-12.369,11.571-12.17s6.982,4.19,4.389,21.546c4.788-12.768,6.184-13.566,10.773-13.766s7.98,10.573,4.589,20.748C192.016,355.426,155.108,340.065,146.33,315.526Z" transform="translate(-79.45 -224.554)" fill="#f7a079"/>
              <path id="Trazado_105601" data-name="Trazado 105601" d="M285.2,325.206c-1.205,1.037-2.41,1.716-3.384,1.524-1.373-.319-4.373-2.45-4.557-2.578a.008.008,0,0,1-.008-.008s-10.2-13.7-30.587-27.4c2.827.931,11.771,2.992,20.548,9.376A82.968,82.968,0,0,1,285.2,325.206Z" transform="translate(-99.717 -222.469)" fill="#f7a079"/>
              <path id="Trazado_105602" data-name="Trazado 105602" d="M272.193,336.7c-1.54,1.811-3.2,3.352-3.982,3.479-2.386-.12-16.3-6.5-17.588-7.094-.016,0-.032-.016-.048-.024-17.173-10.885-21.7-20.588-22.5-24.315,11.6,10.9,27.577,20.624,37.243,25.273A48.327,48.327,0,0,0,272.193,336.7Z" transform="translate(-95.963 -224.893)" fill="#f7a079"/>
              <path id="Trazado_105603" data-name="Trazado 105603" d="M254.884,356a10.83,10.83,0,0,1-4.469,3.392c-3.439.247-14.819-5.163-15.282-5.371,0,0-13.766-7.214-18.8-16.6C225.287,343.093,244.47,353.5,254.884,356Z" transform="translate(-93.59 -230.684)" fill="#f7a079"/>
              <path id="Trazado_105604" data-name="Trazado 105604" d="M221.943,356.544c-1.165.947-2.328,1.912-3.415,2.948a25.263,25.263,0,0,0-3.254,3.062c-1.3,1.784,1.682,4.116,3.084,2.38A25.26,25.26,0,0,0,220.485,361c.723-1.317,1.357-2.69,1.973-4.06A.329.329,0,0,0,221.943,356.544Z" transform="translate(-93.311 -234.53)" fill="#f7a079"/>
              <path id="Trazado_105605" data-name="Trazado 105605" d="M238.312,365.624a21.749,21.749,0,0,0-3.382,2.426,31.145,31.145,0,0,0-3.284,2.718c-1.315,1.361.643,3.243,2.05,2.05a30.256,30.256,0,0,0,2.963-3.144,21.626,21.626,0,0,0,2.561-3.142A.669.669,0,0,0,238.312,365.624Z" transform="translate(-96.596 -236.366)" fill="#f7a079"/>
              <path id="Trazado_105606" data-name="Trazado 105606" d="M254.728,344.785a19.182,19.182,0,0,0-3.661,3.66,30.256,30.256,0,0,0-3.19,4.487c-1.053,1.8,1.618,4.04,2.982,2.3a30.288,30.288,0,0,0,3.06-4.587,19.868,19.868,0,0,0,2.141-4.837C256.211,345.086,255.433,344.322,254.728,344.785Z" transform="translate(-99.914 -232.143)" fill="#f7a079"/>
              <path id="Trazado_105607" data-name="Trazado 105607" d="M279.5,293.445c-1.14,1.255-2.8,1.948-4.162,2.921a8.828,8.828,0,0,0-3.037,3.721,1.11,1.11,0,0,0,1.235,1.607,6.659,6.659,0,0,0,4.222-2.908c1.014-1.546,1.338-3.382,2.182-5C280.079,293.514,279.72,293.2,279.5,293.445Z" transform="translate(-104.872 -221.783)" fill="#f7a079"/>
              <path id="Trazado_105608" data-name="Trazado 105608" d="M275.606,331.511a7.625,7.625,0,0,0-2.71,1.736,4.156,4.156,0,0,0-.862,1.275,8.776,8.776,0,0,0-.393,1.441.293.293,0,0,0,.357.357,8.643,8.643,0,0,0,1.329-.328,4.411,4.411,0,0,0,1.412-.9,7.611,7.611,0,0,0,1.763-2.683A.661.661,0,0,0,275.606,331.511Z" transform="translate(-104.761 -229.476)" fill="#f7a079"/>
              <path id="Trazado_105609" data-name="Trazado 105609" d="M294.856,317.386a7.626,7.626,0,0,0-2.71,1.736,4.156,4.156,0,0,0-.862,1.275,8.772,8.772,0,0,0-.393,1.441.293.293,0,0,0,.357.357,8.635,8.635,0,0,0,1.329-.328,4.411,4.411,0,0,0,1.412-.9,7.611,7.611,0,0,0,1.763-2.683A.661.661,0,0,0,294.856,317.386Z" transform="translate(-108.649 -226.623)" fill="#f7a079"/>
              <path id="Trazado_105610" data-name="Trazado 105610" d="M235.632,333.444c-1.432.065-2.309,1.308-3.02,2.428a12.875,12.875,0,0,0-1.513,4.484c-.037.181.2.374.344.2.925-1.145,1.99-2.1,2.894-3.261.781-1,1.817-2.056,1.736-3.411A.446.446,0,0,0,235.632,333.444Z" transform="translate(-96.572 -229.881)" fill="#f7a079"/>
              <path id="Trazado_105611" data-name="Trazado 105611" d="M252.025,317.187a6.166,6.166,0,0,0-1.19,3.966.925.925,0,0,0,.193.608c.3.306.811.125,1.171-.1a7.833,7.833,0,0,0,3.544-4.893C256.157,313.892,252.827,316.1,252.025,317.187Z" transform="translate(-100.558 -226.226)" fill="#f7a079"/>
            </g>
            <g id="Grupo_85136" data-name="Grupo 85136" transform="translate(76.408 98.018)">
              <path id="Trazado_105612" data-name="Trazado 105612" d="M110.4,209.934S98.831,223.1,91.649,235.47s-10.374,25.137-12.768,36.908c-2.242-.1-6.99-1.971-11.244-3.854-4.421-1.955-8.307-3.926-8.307-3.926,2-25.735,28.927-66.434,33.316-67.431,1.117.2,5.682,3.5,9.9,6.687C106.635,206.942,110.4,209.934,110.4,209.934Z" transform="translate(-59.33 -197.166)" fill="#fff"/>
              <path id="Trazado_105613" data-name="Trazado 105613" d="M102.55,203.853c-6.408,7.23-18.1,21.307-24.267,34.21a143.174,143.174,0,0,0-10.645,30.46c-4.421-1.955-8.307-3.926-8.307-3.926,2-25.735,28.927-66.434,33.316-67.431C93.764,197.366,98.328,200.661,102.55,203.853Z" transform="translate(-59.33 -197.166)" fill="#eee1d7"/>
            </g>
            <g id="Grupo_85137" data-name="Grupo 85137">
              <path id="Trazado_105614" data-name="Trazado 105614" d="M84.876,168.7a49.972,49.972,0,0,0-9.624,6.057c-7.844,6.049-18.873,17.181-26.661,35.83-4.748,11.356-8.3,25.488-9.2,42.964C13.8,240.041-16.43,230.7-36.42,218.08V74.336C-13.1,92.052,76.768,161.557,84.876,168.7Z" transform="translate(36.42 -74.336)" fill="#31474d"/>
              <path id="Trazado_105615" data-name="Trazado 105615" d="M48.591,233.374c-4.748,11.356-8.3,25.488-9.2,42.964-25.592-13.51-55.82-22.847-75.81-35.471V187.146C-9.894,201.478,24.1,220.008,48.591,233.374Z" transform="translate(36.42 -97.124)" fill="#233942"/>
              <path id="Trazado_105616" data-name="Trazado 105616" d="M84.876,168.7a49.972,49.972,0,0,0-9.624,6.057L-36.42,101.54v-27.2C-13.1,92.052,76.768,161.557,84.876,168.7Z" transform="translate(36.42 -74.336)" fill="#506a84"/>
            </g>
            <g id="Grupo_85143" data-name="Grupo 85143" transform="translate(105.277 118.431)">
              <g id="Grupo_85138" data-name="Grupo 85138" transform="translate(18.812)">
                <path id="Trazado_105617" data-name="Trazado 105617" d="M144.353,232.992l-5.5,7.932-3.814,5.5-15.96-9.041a56.559,56.559,0,0,1,3.846-6.9,48.043,48.043,0,0,1,5.73-7.733C133.577,225.276,144.353,232.992,144.353,232.992Z" transform="translate(-119.08 -222.746)" fill="#31474d"/>
                <path id="Trazado_105618" data-name="Trazado 105618" d="M138.854,242.882l-3.814,5.5-15.96-9.041a56.562,56.562,0,0,1,3.846-6.9A25.307,25.307,0,0,1,138.854,242.882Z" transform="translate(-119.08 -224.703)" fill="#233942"/>
              </g>
              <g id="Grupo_85139" data-name="Grupo 85139" transform="translate(0 40.211)">
                <path id="Trazado_105619" data-name="Trazado 105619" d="M117.933,280.829l-2.226,7.868-2.57,9.073s-11.619-4.006-17.62-7.2c-.144-1.333,1.181-5.817,2.53-9.911,1.293-3.95,2.6-7.525,2.6-7.525Z" transform="translate(-95.507 -273.136)" fill="#31474d"/>
                <path id="Trazado_105620" data-name="Trazado 105620" d="M101.291,273.136l17.285,7.693L116.35,288.7a22.953,22.953,0,0,1-11.5-3.232,34.438,34.438,0,0,1-6.161-4.8C99.983,276.711,101.291,273.136,101.291,273.136Z" transform="translate(-96.15 -273.136)" fill="#233942"/>
              </g>
              <g id="Grupo_85142" data-name="Grupo 85142" transform="translate(0.123 12.156)">
                <g id="Grupo_85140" data-name="Grupo 85140">
                  <path id="Trazado_105621" data-name="Trazado 105621" d="M124.258,240.854c-8.446-5.187-20.416-3.591-26.334,6.717-3.5,6.1-4.855,22.544,10.573,27.6,15.92,5.216,24.738-7.448,25.536-16.891C134.717,250.184,130.026,244.4,124.258,240.854Z" transform="translate(-95.661 -237.979)" fill="#31474d"/>
                  <path id="Trazado_105622" data-name="Trazado 105622" d="M122.832,247.549a12.765,12.765,0,0,0-18.014,4.594c-2.394,4.17-3.32,15.421,7.233,18.878,10.89,3.568,16.922-5.094,17.468-11.554C129.987,253.931,126.778,249.973,122.832,247.549Z" transform="translate(-97.198 -239.515)" fill="#fff"/>
                  <path id="Trazado_105623" data-name="Trazado 105623" d="M105.9,261.662s3.724-7.98,12.237-7.049,9.443,7.448,9.443,7.448a12.6,12.6,0,0,0-3.591-11.7c-5.32-4.92-12.1-2.793-15.428,1.065S105.9,261.662,105.9,261.662Z" transform="translate(-97.718 -239.901)" fill="#eee1d7"/>
                </g>
                <g id="Grupo_85141" data-name="Grupo 85141" transform="translate(14.1 16.636)">
                  <path id="Trazado_105624" data-name="Trazado 105624" d="M119.016,258.9c-1.542-1-5.486,8.778-5.686,12.469C114.128,270.868,121.011,260.195,119.016,258.9Z" transform="translate(-113.33 -258.826)" fill="#36465a"/>
                  <path id="Trazado_105625" data-name="Trazado 105625" d="M120.3,258.9c-1.718-.918.524,7.382,3.754,10.774C123.413,264.182,122.2,259.912,120.3,258.9Z" transform="translate(-114.619 -258.827)" fill="#36465a"/>
                </g>
              </g>
            </g>
          </g>
          <g id="Grupo_85149" data-name="Grupo 85149" transform="translate(142.958 189.704)">
            <g id="Grupo_85145" data-name="Grupo 85145">
              <path id="Trazado_105626" data-name="Trazado 105626" d="M154.188,314.138c-3.711-.1-6.876,3.449-9.471,9.891s-3.158,14.353,1.394,16.745,7.856.3,10.34-4.831S162.863,314.38,154.188,314.138Z" transform="translate(-142.726 -312.48)" fill="#fbc08b"/>
              <path id="Trazado_105627" data-name="Trazado 105627" d="M151.125,317.044s-4.154,5.365-3.763,11.375a4.168,4.168,0,0,0,2.981,3.126c1.62.622,4.712.889,6.165-.277s4.146-7.986,2.625-11.2C154.991,318.318,151.125,317.044,151.125,317.044Z" transform="translate(-143.657 -313.067)" fill="#f7a079"/>
              <path id="Trazado_105628" data-name="Trazado 105628" d="M157.146,312.168c-2.519-.563-4.972.99-7.361,7.083s-1.114,8.708,1.976,9.645,5.735.19,7.1-4.33C160.488,319.214,160.84,312.995,157.146,312.168Z" transform="translate(-143.901 -312.061)" fill="#f8cdaa"/>
              <path id="Trazado_105629" data-name="Trazado 105629" d="M149.5,329.163s.116,1.1,2.215,1.65c1.669.434,3.257,1.183,4.273.373s.186-2.7-1.411-3.858S149.2,327.206,149.5,329.163Z" transform="translate(-144.09 -315.047)" fill="#f7e2d2"/>
            </g>
            <g id="Grupo_85146" data-name="Grupo 85146" transform="translate(16.342 11.934)">
              <path id="Trazado_105630" data-name="Trazado 105630" d="M172.848,328.916c-3.545.055-6.316,3.352-8.346,9.2s-2.018,12.936,2.486,14.89,7.509-.047,9.523-4.723S181.133,328.787,172.848,328.916Z" transform="translate(-163.204 -327.399)" fill="#fbc08b"/>
              <path id="Trazado_105631" data-name="Trazado 105631" d="M169.979,331.708s-3.589,4.954-2.8,10.3a4.026,4.026,0,0,0,3.058,2.671c1.587.492,4.553.607,5.858-.492s3.4-7.293,1.729-10.1C173.752,332.691,169.979,331.708,169.979,331.708Z" transform="translate(-163.984 -327.963)" fill="#f7a079"/>
              <path id="Trazado_105632" data-name="Trazado 105632" d="M175.42,327.077c-2.44-.4-4.671,1.081-6.528,6.614s-.46,7.816,2.55,8.531,5.481-.059,6.473-4.147C179.092,333.233,179,327.668,175.42,327.077Z" transform="translate(-164.184 -327.015)" fill="#f8cdaa"/>
              <path id="Trazado_105633" data-name="Trazado 105633" d="M169.123,342.593s.186.981,2.226,1.385c1.622.321,3.186.926,4.1.162s-.01-2.421-1.612-3.388S168.706,340.858,169.123,342.593Z" transform="translate(-164.393 -329.716)" fill="#f7e2d2"/>
            </g>
            <g id="Grupo_85147" data-name="Grupo 85147" transform="translate(32.89 19.074)">
              <path id="Trazado_105634" data-name="Trazado 105634" d="M193.4,337.868c-3.443.075-6.153,3.384-8.157,9.242s-2.034,12.933,2.329,14.86,7.295-.09,9.276-4.772S201.45,337.691,193.4,337.868Z" transform="translate(-183.941 -336.347)" fill="#fbc08b"/>
              <path id="Trazado_105635" data-name="Trazado 105635" d="M190.611,340.682s-3.515,4.969-2.78,10.307a3.893,3.893,0,0,0,2.955,2.651c1.539.482,4.42.58,5.694-.525s3.344-7.3,1.736-10.1C194.269,341.643,190.611,340.682,190.611,340.682Z" transform="translate(-184.706 -336.916)" fill="#f7a079"/>
              <path id="Trazado_105636" data-name="Trazado 105636" d="M195.918,336.02c-2.368-.389-4.543,1.107-6.378,6.644s-.492,7.81,2.428,8.506,5.323-.089,6.311-4.178C199.449,342.149,199.39,336.59,195.918,336.02Z" transform="translate(-184.902 -335.962)" fill="#f8cdaa"/>
              <path id="Trazado_105637" data-name="Trazado 105637" d="M189.727,351.56s.175.978,2.154,1.371c1.573.311,3.089.907,3.98.139s0-2.419-1.547-3.375S189.331,349.829,189.727,351.56Z" transform="translate(-185.103 -338.665)" fill="#f7e2d2"/>
            </g>
            <g id="Grupo_85148" data-name="Grupo 85148" transform="translate(49.762 25.937)">
              <path id="Trazado_105638" data-name="Trazado 105638" d="M213.834,346.479c-3.16.132-5.7,3.474-7.635,9.345s-1.5,11.3,2.473,13.147,6.116,1.418,8.01-3.281S221.223,346.172,213.834,346.479Z" transform="translate(-205.084 -344.949)" fill="#fbc08b"/>
              <path id="Trazado_105639" data-name="Trazado 105639" d="M211.209,349.358s-3.306,5.011-2.719,10.32a3.532,3.532,0,0,0,2.668,2.594c1.4.455,4.045.506,5.232-.616s3.188-7.334,1.759-10.1C214.55,350.257,211.209,349.358,211.209,349.358Z" transform="translate(-205.758 -345.532)" fill="#f7a079"/>
              <path id="Trazado_105640" data-name="Trazado 105640" d="M216.146,344.61c-2.166-.349-4.186,1.177-5.96,6.726s-.579,7.792,2.089,8.439,4.885-.176,5.859-4.268C219.287,350.661,219.322,345.121,216.146,344.61Z" transform="translate(-205.945 -344.563)" fill="#f8cdaa"/>
              <path id="Trazado_105641" data-name="Trazado 105641" d="M210.25,360.214s.144.973,1.954,1.331c1.438.285,2.82.854,3.649.074s.044-2.411-1.364-3.339S209.915,358.5,210.25,360.214Z" transform="translate(-206.122 -347.267)" fill="#f7e2d2"/>
            </g>
          </g>
          <g id="Grupo_85152" data-name="Grupo 85152" transform="translate(169.442 121.804)">
            <g id="Grupo_85150" data-name="Grupo 85150">
              <path id="Trazado_105642" data-name="Trazado 105642" d="M175.913,265.333s.333,13.965,24.218,3.88c22.8-9.626,14.394-29.8,14.394-29.8l-7.828-4.04Z" transform="translate(-175.913 -228.669)" fill="#f7a079"/>
              <path id="Trazado_105643" data-name="Trazado 105643" d="M206.436,252.962c-6.52,6.919-9.642,11.471-20.016,14.065-9.1,2.275-10.507-3.392-10.507-3.392s3.008-4.956,10.326-11.523c10.156-19.732,15.208-22.192,19.732-24.586s7.049,3.527,7.847,7.246S211.623,246.052,206.436,252.962Z" transform="translate(-175.913 -226.972)" fill="#fbc08b"/>
            </g>
            <g id="Grupo_85151" data-name="Grupo 85151" transform="translate(0.995 25.027)">
              <path id="Trazado_105644" data-name="Trazado 105644" d="M191.987,262.924a21.751,21.751,0,0,1-9.839,7.445s-2.458-.662-4.988-1.6c0,0,1.58-2.961,7.046-8.219.207-.192.415-.391.63-.591.519-.487,1.069-.99,1.652-1.516C186.489,258.447,189.721,257.211,191.987,262.924Z" transform="translate(-177.16 -258.335)" fill="#f8cdaa"/>
              <path id="Trazado_105645" data-name="Trazado 105645" d="M193.771,262.924a24.861,24.861,0,0,1-7.781-2.37c.207-.192.415-.391.63-.591.519-.487,1.069-.99,1.652-1.516C188.272,258.447,191.5,257.211,193.771,262.924Z" transform="translate(-178.944 -258.335)" fill="#f7e2d2"/>
            </g>
          </g>
        </g>
      </g>
    </g>
    <path id="Trazado_105646" data-name="Trazado 105646" d="M-8724,6411v282.641" transform="translate(9304 11727.661)" fill="none" stroke="#db6e5f" stroke-width="1"/>
  </g>
</svg>
