<svg xmlns="http://www.w3.org/2000/svg" width="823" height="353.5" viewBox="0 0 823 353.5">
  <g id="Grupo_85528" data-name="Grupo 85528" transform="translate(-356 -23548.5)">
    <path id="Trazado_106358" data-name="Trazado 106358" d="M0,0H364V76H0Z" transform="translate(376 23580)" fill="#91dcff"/>
    <path id="Trazado_106357" data-name="Trazado 106357" d="M11.32-4.333a4.673,4.673,0,0,1-.721,2.36A4.35,4.35,0,0,1,8.75-.387a6.3,6.3,0,0,1-2.72.563A5.025,5.025,0,0,1,2.057-1.468,6.786,6.786,0,0,1,.606-6.108v-.633a7.746,7.746,0,0,1,.655-3.292,4.961,4.961,0,0,1,1.885-2.18,5.26,5.26,0,0,1,2.848-.769,5.516,5.516,0,0,1,3.744,1.226,4.844,4.844,0,0,1,1.608,3.379H8.271a2.292,2.292,0,0,0-.589-1.679,2.422,2.422,0,0,0-1.687-.51A1.843,1.843,0,0,0,4.307-9.7a5.536,5.536,0,0,0-.562,2.751v.905A6.126,6.126,0,0,0,4.258-3.12a1.882,1.882,0,0,0,1.771.879,2.369,2.369,0,0,0,1.626-.5,2.126,2.126,0,0,0,.6-1.591ZM15.768,0H12.8V-9.51h2.971ZM12.621-11.962A1.322,1.322,0,0,1,13.078-13a1.724,1.724,0,0,1,1.187-.4,1.724,1.724,0,0,1,1.187.4,1.322,1.322,0,0,1,.457,1.037,1.322,1.322,0,0,1-.457,1.037,1.724,1.724,0,0,1-1.187.4,1.724,1.724,0,0,1-1.187-.4A1.322,1.322,0,0,1,12.621-11.962Zm8.991,9.853a1.317,1.317,0,0,0,.967-.338,1.241,1.241,0,0,0,.334-.945H25.69A3.288,3.288,0,0,1,24.57-.826a4.168,4.168,0,0,1-2.887,1,4.22,4.22,0,0,1-3.27-1.3,5.125,5.125,0,0,1-1.2-3.6v-.123A5.792,5.792,0,0,1,17.75-7.4a3.872,3.872,0,0,1,1.534-1.7,4.573,4.573,0,0,1,2.373-.593A4.116,4.116,0,0,1,24.6-8.657a3.647,3.647,0,0,1,1.09,2.786H22.913A1.626,1.626,0,0,0,22.553-7a1.244,1.244,0,0,0-.967-.4q-1.151,0-1.345,1.468a10.357,10.357,0,0,0-.062,1.283,4.068,4.068,0,0,0,.343,1.986A1.187,1.187,0,0,0,21.612-2.109ZM30.067,0H27.1V-13.5h2.971Zm1.45-4.843a5.613,5.613,0,0,1,.554-2.536,3.96,3.96,0,0,1,1.591-1.709,4.791,4.791,0,0,1,2.435-.6,4.373,4.373,0,0,1,3.366,1.323,5.076,5.076,0,0,1,1.23,3.6v.105a4.925,4.925,0,0,1-1.235,3.529A4.384,4.384,0,0,1,36.114.176a4.434,4.434,0,0,1-3.261-1.217,4.761,4.761,0,0,1-1.327-3.3Zm2.962.185a3.538,3.538,0,0,0,.413,1.934,1.376,1.376,0,0,0,1.222.615q1.582,0,1.617-2.435v-.3Q37.731-7.4,36.1-7.4q-1.485,0-1.608,2.206Zm11.628-.167a5.809,5.809,0,0,1,.976-3.56,3.211,3.211,0,0,1,2.725-1.3,2.731,2.731,0,0,1,2.145,1V-13.5h2.971V0H52.26L52.11-1.02a2.8,2.8,0,0,1-2.32,1.2,3.205,3.205,0,0,1-2.689-1.3A5.993,5.993,0,0,1,46.107-4.825Zm2.962.185q0,2.531,1.477,2.531a1.458,1.458,0,0,0,1.406-.826V-6.557A1.419,1.419,0,0,0,50.563-7.4q-1.371,0-1.485,2.215ZM61.207.176a4.889,4.889,0,0,1-3.542-1.305,4.507,4.507,0,0,1-1.354-3.4v-.246a5.84,5.84,0,0,1,.541-2.575A3.955,3.955,0,0,1,58.43-9.075a4.763,4.763,0,0,1,2.461-.611,4.117,4.117,0,0,1,3.164,1.244,4.887,4.887,0,0,1,1.16,3.467v1.151H59.326a2.135,2.135,0,0,0,.694,1.257,2.066,2.066,0,0,0,1.389.457,2.662,2.662,0,0,0,2.2-.984l1.354,1.6A3.784,3.784,0,0,1,63.391-.277,5.3,5.3,0,0,1,61.207.176ZM60.873-7.4q-1.3,0-1.547,1.723h2.988v-.229a1.467,1.467,0,0,0-.36-1.1A1.434,1.434,0,0,0,60.873-7.4ZM74.013,0H71.042V-13.5h2.971Zm7.181,0a3.344,3.344,0,0,1-.281-.853A2.754,2.754,0,0,1,78.627.176a3.374,3.374,0,0,1-2.285-.813,2.588,2.588,0,0,1-.94-2.043,2.66,2.66,0,0,1,1.143-2.338,5.821,5.821,0,0,1,3.322-.791h.914v-.5q0-1.31-1.134-1.31a.925.925,0,0,0-1.055,1.037H75.63A2.659,2.659,0,0,1,76.8-8.824,4.927,4.927,0,0,1,79.8-9.686,4.323,4.323,0,0,1,82.67-8.8a3.086,3.086,0,0,1,1.081,2.435v4.21a4.311,4.311,0,0,0,.4,2V0ZM79.339-1.934a1.652,1.652,0,0,0,.918-.237,1.487,1.487,0,0,0,.523-.536V-4.228h-.861q-1.547,0-1.547,1.389a.848.848,0,0,0,.272.655A.986.986,0,0,0,79.339-1.934Zm14.555-.176a1.317,1.317,0,0,0,.967-.338,1.241,1.241,0,0,0,.334-.945h2.777A3.288,3.288,0,0,1,96.851-.826a4.168,4.168,0,0,1-2.887,1,4.22,4.22,0,0,1-3.27-1.3,5.125,5.125,0,0,1-1.2-3.6v-.123A5.792,5.792,0,0,1,90.031-7.4a3.872,3.872,0,0,1,1.534-1.7,4.573,4.573,0,0,1,2.373-.593,4.116,4.116,0,0,1,2.944,1.028,3.647,3.647,0,0,1,1.09,2.786H95.194A1.626,1.626,0,0,0,94.834-7a1.244,1.244,0,0,0-.967-.4q-1.151,0-1.345,1.468a10.357,10.357,0,0,0-.062,1.283A4.068,4.068,0,0,0,92.8-2.663,1.187,1.187,0,0,0,93.894-2.109Zm4.957-2.733A5.613,5.613,0,0,1,99.4-7.378,3.96,3.96,0,0,1,101-9.088a4.791,4.791,0,0,1,2.435-.6A4.373,4.373,0,0,1,106.8-8.363a5.076,5.076,0,0,1,1.23,3.6v.105a4.925,4.925,0,0,1-1.235,3.529A4.384,4.384,0,0,1,103.447.176a4.434,4.434,0,0,1-3.261-1.217,4.761,4.761,0,0,1-1.327-3.3Zm2.962.185a3.538,3.538,0,0,0,.413,1.934,1.376,1.376,0,0,0,1.222.615q1.582,0,1.617-2.435v-.3q0-2.558-1.635-2.558-1.485,0-1.608,2.206ZM112.131-9.51l.1,1.116a3.27,3.27,0,0,1,2.716-1.292,2.407,2.407,0,0,1,2.435,1.433,3.165,3.165,0,0,1,2.795-1.433q2.892,0,2.971,3.5V0h-2.971V-6a1.813,1.813,0,0,0-.246-1.063,1.048,1.048,0,0,0-.9-.334,1.4,1.4,0,0,0-1.31.782l.009.123V0h-2.971V-5.985a1.906,1.906,0,0,0-.237-1.081,1.045,1.045,0,0,0-.905-.334,1.42,1.42,0,0,0-1.3.782V0h-2.962V-9.51Zm21.533,4.825a5.735,5.735,0,0,1-1,3.538A3.2,3.2,0,0,1,129.973.176a2.742,2.742,0,0,1-2.153-.958V3.656h-2.962V-9.51h2.769l.088.879a2.742,2.742,0,0,1,2.241-1.055,3.224,3.224,0,0,1,2.733,1.3,5.805,5.805,0,0,1,.976,3.564ZM130.7-4.869q0-2.531-1.477-2.531a1.394,1.394,0,0,0-1.406.756V-2.9a1.439,1.439,0,0,0,1.424.791q1.415,0,1.459-2.443Zm10.02-1.96-.976-.07a1.752,1.752,0,0,0-1.793.879V0h-2.962V-9.51h2.777l.1,1.222a2.294,2.294,0,0,1,2.083-1.4,2.888,2.888,0,0,1,.826.105ZM146.883,0a3.344,3.344,0,0,1-.281-.853A2.754,2.754,0,0,1,144.316.176a3.374,3.374,0,0,1-2.285-.813,2.588,2.588,0,0,1-.94-2.043,2.66,2.66,0,0,1,1.143-2.338,5.821,5.821,0,0,1,3.322-.791h.914v-.5q0-1.31-1.134-1.31a.925.925,0,0,0-1.055,1.037h-2.962a2.659,2.659,0,0,1,1.173-2.241,4.927,4.927,0,0,1,2.993-.861,4.323,4.323,0,0,1,2.874.888,3.086,3.086,0,0,1,1.081,2.435v4.21a4.311,4.311,0,0,0,.4,2V0Zm-1.854-1.934a1.652,1.652,0,0,0,.918-.237,1.487,1.487,0,0,0,.523-.536V-4.228h-.861q-1.547,0-1.547,1.389a.848.848,0,0,0,.272.655A.986.986,0,0,0,145.028-1.934Z" transform="translate(477 23562)" fill="#12263f"/>
    <path id="Trazado_106359" data-name="Trazado 106359" d="M10.547-11H6.557V0H4.351V-11H.4V-12.8H10.547ZM9.791-4.843a5.607,5.607,0,0,1,.554-2.518A4.044,4.044,0,0,1,11.9-9.083a4.383,4.383,0,0,1,2.3-.6,4.154,4.154,0,0,1,3.125,1.239,4.874,4.874,0,0,1,1.3,3.287l.009.5a5.658,5.658,0,0,1-.541,2.514A4,4,0,0,1,16.545-.431a4.415,4.415,0,0,1-2.325.606A4.125,4.125,0,0,1,11-1.165,5.133,5.133,0,0,1,9.791-4.737Zm2.136.185a3.832,3.832,0,0,0,.606,2.3,1.971,1.971,0,0,0,1.688.831A1.95,1.95,0,0,0,15.9-2.373a4.232,4.232,0,0,0,.6-2.47,3.782,3.782,0,0,0-.62-2.285A1.979,1.979,0,0,0,14.2-7.972a1.96,1.96,0,0,0-1.661.831A4.152,4.152,0,0,0,11.927-4.658ZM22.447-9.51l.062.993a3.422,3.422,0,0,1,2.742-1.169,2.629,2.629,0,0,1,2.61,1.459,3.373,3.373,0,0,1,2.918-1.459,2.965,2.965,0,0,1,2.342.87,3.831,3.831,0,0,1,.787,2.566V0H31.772V-6.187a1.891,1.891,0,0,0-.4-1.327,1.731,1.731,0,0,0-1.31-.422,1.778,1.778,0,0,0-1.191.391,2.063,2.063,0,0,0-.646,1.024L28.239,0H26.1V-6.258A1.523,1.523,0,0,0,24.39-7.937,1.88,1.88,0,0,0,22.57-6.891V0H20.435V-9.51ZM41.783,0a3.3,3.3,0,0,1-.246-.888,3.325,3.325,0,0,1-2.5,1.063A3.355,3.355,0,0,1,36.7-.642,2.615,2.615,0,0,1,35.8-2.663,2.7,2.7,0,0,1,36.927-5a5.473,5.473,0,0,1,3.23-.813h1.31v-.624a1.666,1.666,0,0,0-.413-1.182A1.638,1.638,0,0,0,39.8-8.06a1.881,1.881,0,0,0-1.2.365,1.129,1.129,0,0,0-.466.927H36a2.37,2.37,0,0,1,.519-1.463A3.455,3.455,0,0,1,37.929-9.3a4.955,4.955,0,0,1,1.991-.387,3.99,3.99,0,0,1,2.663.839,2.993,2.993,0,0,1,1.02,2.36V-2.2a4.861,4.861,0,0,0,.36,2.048V0ZM39.437-1.538a2.429,2.429,0,0,0,1.191-.308,2.055,2.055,0,0,0,.839-.826V-4.465H40.315a3.148,3.148,0,0,0-1.784.413,1.338,1.338,0,0,0-.6,1.169,1.248,1.248,0,0,0,.409.98A1.583,1.583,0,0,0,39.437-1.538ZM49.922-4.825a5.654,5.654,0,0,1,1.02-3.529,3.267,3.267,0,0,1,2.733-1.332,3.1,3.1,0,0,1,2.443,1.055V-13.5h2.136V0H56.32l-.105-.984A3.148,3.148,0,0,1,53.657.176a3.248,3.248,0,0,1-2.7-1.345A5.861,5.861,0,0,1,49.922-4.825Zm2.136.185a3.958,3.958,0,0,0,.558,2.263,1.811,1.811,0,0,0,1.586.813,2.017,2.017,0,0,0,1.916-1.169V-6.794a1.986,1.986,0,0,0-1.9-1.143,1.824,1.824,0,0,0-1.6.822A4.408,4.408,0,0,0,52.058-4.641ZM64.67.176A4.419,4.419,0,0,1,61.378-1.1a4.639,4.639,0,0,1-1.261-3.406v-.264a5.706,5.706,0,0,1,.549-2.544,4.181,4.181,0,0,1,1.542-1.745,4.078,4.078,0,0,1,2.215-.624,3.733,3.733,0,0,1,3,1.239,5.24,5.24,0,0,1,1.059,3.507v.861H62.271a2.856,2.856,0,0,0,.787,1.863,2.362,2.362,0,0,0,1.736.686,2.892,2.892,0,0,0,2.391-1.187l1.151,1.1A3.845,3.845,0,0,1,66.81-.294,4.774,4.774,0,0,1,64.67.176Zm-.255-8.147A1.8,1.8,0,0,0,63-7.356a3.189,3.189,0,0,0-.69,1.714h4.069V-5.8A2.6,2.6,0,0,0,65.8-7.422,1.785,1.785,0,0,0,64.415-7.972ZM78.53-1.529A1.931,1.931,0,0,0,79.857-2a1.591,1.591,0,0,0,.563-1.151h2.013a3.137,3.137,0,0,1-.554,1.657A3.632,3.632,0,0,1,80.473-.272a4.191,4.191,0,0,1-1.916.448,4.055,4.055,0,0,1-3.164-1.292,5.124,5.124,0,0,1-1.169-3.568V-4.9a5.039,5.039,0,0,1,1.16-3.476,4.018,4.018,0,0,1,3.164-1.305,3.907,3.907,0,0,1,2.764.989,3.542,3.542,0,0,1,1.121,2.6H80.42a1.956,1.956,0,0,0-.558-1.345,1.8,1.8,0,0,0-1.332-.527,1.879,1.879,0,0,0-1.6.751,3.834,3.834,0,0,0-.571,2.281V-4.6a3.9,3.9,0,0,0,.558,2.307A1.878,1.878,0,0,0,78.53-1.529Zm5.115-3.313A5.607,5.607,0,0,1,84.2-7.361a4.044,4.044,0,0,1,1.556-1.723,4.383,4.383,0,0,1,2.3-.6,4.154,4.154,0,0,1,3.125,1.239,4.874,4.874,0,0,1,1.3,3.287l.009.5a5.658,5.658,0,0,1-.541,2.514A4,4,0,0,1,90.4-.431a4.415,4.415,0,0,1-2.325.606,4.125,4.125,0,0,1-3.221-1.34,5.133,5.133,0,0,1-1.208-3.573Zm2.136.185a3.832,3.832,0,0,0,.606,2.3,1.971,1.971,0,0,0,1.688.831,1.95,1.95,0,0,0,1.683-.844,4.232,4.232,0,0,0,.6-2.47,3.782,3.782,0,0,0-.62-2.285,1.979,1.979,0,0,0-1.683-.844,1.96,1.96,0,0,0-1.661.831A4.152,4.152,0,0,0,85.781-4.658ZM96.275-9.51l.062,1.1a3.419,3.419,0,0,1,2.769-1.274q2.971,0,3.023,3.4V0H99.993V-6.161A1.958,1.958,0,0,0,99.6-7.5a1.645,1.645,0,0,0-1.279-.435A2.058,2.058,0,0,0,96.4-6.768V0H94.263V-9.51Zm11.936,7.98A1.931,1.931,0,0,0,109.538-2a1.591,1.591,0,0,0,.563-1.151h2.013a3.137,3.137,0,0,1-.554,1.657,3.632,3.632,0,0,1-1.406,1.217,4.191,4.191,0,0,1-1.916.448,4.055,4.055,0,0,1-3.164-1.292A5.124,5.124,0,0,1,103.9-4.685V-4.9a5.039,5.039,0,0,1,1.16-3.476,4.018,4.018,0,0,1,3.164-1.305,3.907,3.907,0,0,1,2.764.989,3.542,3.542,0,0,1,1.121,2.6H110.1a1.956,1.956,0,0,0-.558-1.345,1.8,1.8,0,0,0-1.332-.527,1.879,1.879,0,0,0-1.6.751,3.834,3.834,0,0,0-.571,2.281V-4.6A3.9,3.9,0,0,0,106.6-2.29,1.878,1.878,0,0,0,108.211-1.529ZM116,0h-2.136V-9.51H116ZM113.73-11.979a1.133,1.133,0,0,1,.312-.817,1.179,1.179,0,0,1,.892-.325,1.193,1.193,0,0,1,.9.325,1.125,1.125,0,0,1,.316.817,1.1,1.1,0,0,1-.316.8,1.2,1.2,0,0,1-.9.321,1.188,1.188,0,0,1-.892-.321A1.107,1.107,0,0,1,113.73-11.979ZM122.511.176A4.419,4.419,0,0,1,119.219-1.1a4.639,4.639,0,0,1-1.261-3.406v-.264a5.706,5.706,0,0,1,.549-2.544,4.181,4.181,0,0,1,1.542-1.745,4.078,4.078,0,0,1,2.215-.624,3.733,3.733,0,0,1,3,1.239,5.24,5.24,0,0,1,1.059,3.507v.861h-6.214a2.856,2.856,0,0,0,.787,1.863,2.362,2.362,0,0,0,1.736.686,2.892,2.892,0,0,0,2.391-1.187l1.151,1.1a3.845,3.845,0,0,1-1.525,1.323A4.774,4.774,0,0,1,122.511.176Zm-.255-8.147a1.8,1.8,0,0,0-1.419.615,3.189,3.189,0,0,0-.69,1.714h4.069V-5.8a2.6,2.6,0,0,0-.571-1.622A1.785,1.785,0,0,0,122.256-7.972Zm7.708-1.538.062,1.1a3.419,3.419,0,0,1,2.769-1.274q2.971,0,3.023,3.4V0h-2.136V-6.161a1.958,1.958,0,0,0-.391-1.34,1.645,1.645,0,0,0-1.279-.435,2.058,2.058,0,0,0-1.925,1.169V0h-2.136V-9.51ZM141.9-1.529A1.931,1.931,0,0,0,143.227-2a1.591,1.591,0,0,0,.563-1.151H145.8a3.137,3.137,0,0,1-.554,1.657,3.632,3.632,0,0,1-1.406,1.217,4.191,4.191,0,0,1-1.916.448,4.055,4.055,0,0,1-3.164-1.292,5.124,5.124,0,0,1-1.169-3.568V-4.9a5.039,5.039,0,0,1,1.16-3.476,4.018,4.018,0,0,1,3.164-1.305,3.907,3.907,0,0,1,2.764.989A3.542,3.542,0,0,1,145.8-6.1h-2.013a1.956,1.956,0,0,0-.558-1.345,1.8,1.8,0,0,0-1.332-.527,1.879,1.879,0,0,0-1.6.751,3.834,3.834,0,0,0-.571,2.281V-4.6a3.9,3.9,0,0,0,.558,2.307A1.878,1.878,0,0,0,141.9-1.529ZM149.687,0h-2.136V-9.51h2.136Zm-2.268-11.979a1.133,1.133,0,0,1,.312-.817,1.179,1.179,0,0,1,.892-.325,1.193,1.193,0,0,1,.9.325,1.125,1.125,0,0,1,.316.817,1.1,1.1,0,0,1-.316.8,1.2,1.2,0,0,1-.9.321,1.188,1.188,0,0,1-.892-.321A1.107,1.107,0,0,1,147.419-11.979ZM157.693,0a3.3,3.3,0,0,1-.246-.888,3.325,3.325,0,0,1-2.5,1.063,3.355,3.355,0,0,1-2.338-.817,2.615,2.615,0,0,1-.905-2.021A2.7,2.7,0,0,1,152.837-5a5.473,5.473,0,0,1,3.23-.813h1.31v-.624a1.666,1.666,0,0,0-.413-1.182,1.638,1.638,0,0,0-1.257-.444,1.881,1.881,0,0,0-1.2.365,1.129,1.129,0,0,0-.466.927H151.91a2.37,2.37,0,0,1,.519-1.463A3.455,3.455,0,0,1,153.839-9.3a4.955,4.955,0,0,1,1.991-.387,3.99,3.99,0,0,1,2.663.839,2.993,2.993,0,0,1,1.02,2.36V-2.2a4.861,4.861,0,0,0,.36,2.048V0Zm-2.347-1.538a2.429,2.429,0,0,0,1.191-.308,2.055,2.055,0,0,0,.839-.826V-4.465h-1.151a3.148,3.148,0,0,0-1.784.413,1.338,1.338,0,0,0-.6,1.169,1.248,1.248,0,0,0,.409.98A1.583,1.583,0,0,0,155.347-1.538Z" transform="translate(478 23625)" fill="#12263f"/>
    <g id="Trazado_106360" data-name="Trazado 106360" transform="translate(356 23592)" fill="#dbbe36">
      <path d="M 26 50.5 C 22.69186019897461 50.5 19.48347091674805 49.8524284362793 16.46396064758301 48.57527923583984 C 13.54668998718262 47.34138870239258 10.92640972137451 45.57463836669922 8.67588996887207 43.3241081237793 C 6.425360202789307 41.07358932495117 4.658609867095947 38.45330810546875 3.424720048904419 35.53604125976562 C 2.147569894790649 32.51652908325195 1.5 29.30813980102539 1.5 26 C 1.5 22.69186019897461 2.147569894790649 19.48347091674805 3.424720048904419 16.46396064758301 C 4.658609867095947 13.54668998718262 6.425360202789307 10.92640972137451 8.67588996887207 8.67588996887207 C 10.92640972137451 6.425360202789307 13.54668998718262 4.658609867095947 16.46396064758301 3.424720048904419 C 19.48347091674805 2.147569894790649 22.69186019897461 1.5 26 1.5 C 29.30813980102539 1.5 32.51652908325195 2.147569894790649 35.53604125976562 3.424720048904419 C 38.45330810546875 4.658609867095947 41.07358932495117 6.425360202789307 43.3241081237793 8.67588996887207 C 45.57463836669922 10.92640972137451 47.34138870239258 13.54668998718262 48.57527923583984 16.46396064758301 C 49.8524284362793 19.48347091674805 50.5 22.69186019897461 50.5 26 C 50.5 29.30813980102539 49.8524284362793 32.51652908325195 48.57527923583984 35.53604125976562 C 47.34138870239258 38.45330810546875 45.57463836669922 41.07358932495117 43.3241081237793 43.3241081237793 C 41.07358932495117 45.57463836669922 38.45330810546875 47.34138870239258 35.53604125976562 48.57527923583984 C 32.51652908325195 49.8524284362793 29.30813980102539 50.5 26 50.5 Z" stroke="none"/>
      <path d="M 26 3 C 22.89369964599609 3 19.88190841674805 3.607700347900391 17.04827880859375 4.806221008300781 C 14.30981826782227 5.964500427246094 11.84978866577148 7.623298645019531 9.736549377441406 9.736549377441406 C 7.623298645019531 11.84978866577148 5.964500427246094 14.30981826782227 4.806221008300781 17.04827880859375 C 3.607700347900391 19.88190841674805 3 22.89369964599609 3 26 C 3 29.10630035400391 3.607700347900391 32.11808776855469 4.806221008300781 34.95172119140625 C 5.964500427246094 37.69017791748047 7.623298645019531 40.15021133422852 9.736549377441406 42.26345062255859 C 11.84978866577148 44.37670135498047 14.30981826782227 46.03549957275391 17.04827880859375 47.19377899169922 C 19.88190841674805 48.39229965209961 22.89369964599609 49 26 49 C 29.10630035400391 49 32.11808776855469 48.39229965209961 34.95172119140625 47.19377899169922 C 37.69017791748047 46.03549957275391 40.15021133422852 44.37670135498047 42.26345062255859 42.26345062255859 C 44.37670135498047 40.15021133422852 46.03549957275391 37.69017791748047 47.19377899169922 34.95172119140625 C 48.39229965209961 32.11808776855469 49 29.10630035400391 49 26 C 49 22.89369964599609 48.39229965209961 19.88190841674805 47.19377899169922 17.04827880859375 C 46.03549957275391 14.30981826782227 44.37670135498047 11.84978866577148 42.26345062255859 9.736549377441406 C 40.15021133422852 7.623298645019531 37.69017791748047 5.964500427246094 34.95172119140625 4.806221008300781 C 32.11808776855469 3.607700347900391 29.10630035400391 3 26 3 M 26 0 C 40.35939788818359 0 52 11.64059829711914 52 26 C 52 40.35939788818359 40.35939788818359 52 26 52 C 11.64059829711914 52 0 40.35939788818359 0 26 C 0 11.64059829711914 11.64059829711914 0 26 0 Z" stroke="none" fill="#fff"/>
    </g>
    <path id="Trazado_106361" data-name="Trazado 106361" d="M7.348,0H4.377V-9.457L1.459-8.6v-2.25L7.075-12.8h.272Z" transform="translate(377 23624)" fill="#12263f"/>
    <path id="Trazado_106362" data-name="Trazado 106362" d="M0,0H364V76H0Z" transform="translate(376 23662)" fill="#91dcff"/>
    <path id="Trazado_106365" data-name="Trazado 106365" d="M1.3,0V-12.8H5.687a5.354,5.354,0,0,1,3.3.87,3.065,3.065,0,0,1,1.134,2.593A2.763,2.763,0,0,1,9.65-7.752a3.055,3.055,0,0,1-1.389,1.09A2.825,2.825,0,0,1,9.866-5.6a3.085,3.085,0,0,1,.567,1.868A3.407,3.407,0,0,1,9.277-.967,5.025,5.025,0,0,1,5.968,0ZM3.524-5.774v4h2.47a2.39,2.39,0,0,0,1.635-.519,1.82,1.82,0,0,0,.589-1.441A1.826,1.826,0,0,0,6.179-5.774Zm0-1.635H5.7a2.521,2.521,0,0,0,1.622-.47A1.611,1.611,0,0,0,7.91-9.211a1.633,1.633,0,0,0-.541-1.371A2.73,2.73,0,0,0,5.687-11H3.524ZM18.211-.932A3.312,3.312,0,0,1,15.539.176,2.952,2.952,0,0,1,13.2-.729a3.851,3.851,0,0,1-.8-2.619V-9.51h2.136v6.135q0,1.811,1.5,1.811a2.111,2.111,0,0,0,2.1-1.116V-9.51h2.136V0H18.264ZM16.989-13.5h2.435l-2.435,2.663H15.275ZM27.782-2.584a.968.968,0,0,0-.47-.87,5,5,0,0,0-1.56-.527,8.02,8.02,0,0,1-1.819-.58,2.428,2.428,0,0,1-1.6-2.241A2.531,2.531,0,0,1,23.37-8.859a4.1,4.1,0,0,1,2.637-.826,4.266,4.266,0,0,1,2.755.844,2.677,2.677,0,0,1,1.05,2.188H27.677a1.316,1.316,0,0,0-.457-1.024,1.752,1.752,0,0,0-1.213-.409,1.893,1.893,0,0,0-1.147.325,1.025,1.025,0,0,0-.444.87.866.866,0,0,0,.413.765,5.68,5.68,0,0,0,1.67.549,7.9,7.9,0,0,1,1.973.659A2.794,2.794,0,0,1,29.536-4a2.342,2.342,0,0,1,.347,1.3A2.478,2.478,0,0,1,28.819-.62a4.535,4.535,0,0,1-2.786.8A4.917,4.917,0,0,1,23.95-.246a3.428,3.428,0,0,1-1.424-1.16A2.746,2.746,0,0,1,22.017-3h2.074a1.5,1.5,0,0,0,.571,1.165,2.22,2.22,0,0,0,1.4.409,2.16,2.16,0,0,0,1.283-.321A.993.993,0,0,0,27.782-2.584Zm3.56-2.25a5.619,5.619,0,0,1,1.02-3.542,3.313,3.313,0,0,1,2.76-1.31,3.114,3.114,0,0,1,2.522,1.116l.123-.94h1.9V3.656H37.529V-.809A3.188,3.188,0,0,1,35.1.176,3.282,3.282,0,0,1,32.37-1.156,5.884,5.884,0,0,1,31.342-4.834Zm2.136.185a3.968,3.968,0,0,0,.576,2.29,1.835,1.835,0,0,0,1.6.831A2.023,2.023,0,0,0,37.529-2.61V-6.935a2.025,2.025,0,0,0-1.863-1.037,1.866,1.866,0,0,0-1.6.817A4.33,4.33,0,0,0,33.478-4.649ZM47.725-.932A3.312,3.312,0,0,1,45.053.176,2.952,2.952,0,0,1,42.71-.729a3.851,3.851,0,0,1-.8-2.619V-9.51h2.136v6.135q0,1.811,1.5,1.811a2.111,2.111,0,0,0,2.1-1.116V-9.51H49.79V0H47.777ZM56.153.176A4.419,4.419,0,0,1,52.862-1.1,4.639,4.639,0,0,1,51.6-4.509v-.264a5.706,5.706,0,0,1,.549-2.544,4.181,4.181,0,0,1,1.542-1.745,4.078,4.078,0,0,1,2.215-.624,3.733,3.733,0,0,1,3,1.239,5.24,5.24,0,0,1,1.059,3.507v.861H53.754a2.856,2.856,0,0,0,.787,1.863,2.362,2.362,0,0,0,1.736.686,2.892,2.892,0,0,0,2.391-1.187l1.151,1.1A3.845,3.845,0,0,1,58.293-.294,4.774,4.774,0,0,1,56.153.176ZM55.9-7.972a1.8,1.8,0,0,0-1.419.615,3.189,3.189,0,0,0-.69,1.714h4.069V-5.8a2.6,2.6,0,0,0-.571-1.622A1.785,1.785,0,0,0,55.9-7.972Zm5.326,3.146a5.654,5.654,0,0,1,1.02-3.529,3.267,3.267,0,0,1,2.733-1.332,3.1,3.1,0,0,1,2.443,1.055V-13.5h2.136V0H67.623l-.105-.984A3.148,3.148,0,0,1,64.96.176a3.248,3.248,0,0,1-2.7-1.345A5.861,5.861,0,0,1,61.225-4.825Zm2.136.185a3.958,3.958,0,0,0,.558,2.263,1.811,1.811,0,0,0,1.586.813,2.017,2.017,0,0,0,1.916-1.169V-6.794a1.986,1.986,0,0,0-1.9-1.143,1.824,1.824,0,0,0-1.6.822A4.408,4.408,0,0,0,63.36-4.641ZM77.467,0a3.3,3.3,0,0,1-.246-.888,3.325,3.325,0,0,1-2.5,1.063,3.355,3.355,0,0,1-2.338-.817,2.615,2.615,0,0,1-.905-2.021A2.7,2.7,0,0,1,72.611-5a5.473,5.473,0,0,1,3.23-.813h1.31v-.624a1.666,1.666,0,0,0-.413-1.182A1.638,1.638,0,0,0,75.48-8.06a1.881,1.881,0,0,0-1.2.365,1.129,1.129,0,0,0-.466.927H71.684A2.37,2.37,0,0,1,72.2-8.231,3.455,3.455,0,0,1,73.613-9.3,4.955,4.955,0,0,1,75.6-9.686a3.99,3.99,0,0,1,2.663.839,2.993,2.993,0,0,1,1.02,2.36V-2.2a4.861,4.861,0,0,0,.36,2.048V0ZM75.12-1.538a2.429,2.429,0,0,0,1.191-.308,2.055,2.055,0,0,0,.839-.826V-4.465H76a3.148,3.148,0,0,0-1.784.413,1.338,1.338,0,0,0-.6,1.169,1.248,1.248,0,0,0,.409.98A1.583,1.583,0,0,0,75.12-1.538ZM85.605-4.825a5.654,5.654,0,0,1,1.02-3.529,3.267,3.267,0,0,1,2.733-1.332A3.1,3.1,0,0,1,91.8-8.631V-13.5h2.136V0H92L91.9-.984A3.148,3.148,0,0,1,89.341.176a3.248,3.248,0,0,1-2.7-1.345A5.861,5.861,0,0,1,85.605-4.825Zm2.136.185A3.958,3.958,0,0,0,88.3-2.377a1.811,1.811,0,0,0,1.586.813A2.017,2.017,0,0,0,91.8-2.733V-6.794a1.986,1.986,0,0,0-1.9-1.143,1.824,1.824,0,0,0-1.6.822A4.408,4.408,0,0,0,87.741-4.641ZM100.354.176A4.419,4.419,0,0,1,97.062-1.1,4.639,4.639,0,0,1,95.8-4.509v-.264a5.706,5.706,0,0,1,.549-2.544,4.181,4.181,0,0,1,1.542-1.745,4.078,4.078,0,0,1,2.215-.624,3.733,3.733,0,0,1,3,1.239,5.24,5.24,0,0,1,1.059,3.507v.861H97.954a2.856,2.856,0,0,0,.787,1.863,2.362,2.362,0,0,0,1.736.686,2.892,2.892,0,0,0,2.391-1.187l1.151,1.1a3.845,3.845,0,0,1-1.525,1.323A4.774,4.774,0,0,1,100.354.176ZM100.1-7.972a1.8,1.8,0,0,0-1.419.615,3.189,3.189,0,0,0-.69,1.714h4.069V-5.8a2.6,2.6,0,0,0-.571-1.622A1.785,1.785,0,0,0,100.1-7.972ZM112.579,0h-2.136V-9.51h2.136Zm-2.268-11.979a1.133,1.133,0,0,1,.312-.817,1.179,1.179,0,0,1,.892-.325,1.193,1.193,0,0,1,.9.325,1.125,1.125,0,0,1,.316.817,1.1,1.1,0,0,1-.316.8,1.2,1.2,0,0,1-.9.321,1.188,1.188,0,0,1-.892-.321A1.107,1.107,0,0,1,110.312-11.979Zm6.574,2.47.062,1.1a3.419,3.419,0,0,1,2.769-1.274q2.971,0,3.023,3.4V0H120.6V-6.161a1.958,1.958,0,0,0-.391-1.34,1.645,1.645,0,0,0-1.279-.435,2.058,2.058,0,0,0-1.925,1.169V0h-2.136V-9.51ZM125.666,0V-7.928h-1.45V-9.51h1.45v-.87a3.266,3.266,0,0,1,.879-2.443,3.367,3.367,0,0,1,2.461-.861,4.936,4.936,0,0,1,1.2.158l-.053,1.67a4.207,4.207,0,0,0-.817-.07,1.371,1.371,0,0,0-1.529,1.573v.844h1.934v1.582H127.8V0ZM130.9-4.843a5.607,5.607,0,0,1,.554-2.518A4.044,4.044,0,0,1,133-9.083a4.383,4.383,0,0,1,2.3-.6,4.154,4.154,0,0,1,3.125,1.239,4.874,4.874,0,0,1,1.3,3.287l.009.5a5.658,5.658,0,0,1-.541,2.514A4,4,0,0,1,137.65-.431a4.415,4.415,0,0,1-2.325.606,4.125,4.125,0,0,1-3.221-1.34A5.133,5.133,0,0,1,130.9-4.737Zm2.136.185a3.832,3.832,0,0,0,.606,2.3,1.971,1.971,0,0,0,1.688.831,1.95,1.95,0,0,0,1.683-.844,4.232,4.232,0,0,0,.6-2.47,3.782,3.782,0,0,0-.62-2.285,1.979,1.979,0,0,0-1.683-.844,1.96,1.96,0,0,0-1.661.831A4.152,4.152,0,0,0,133.031-4.658Zm13.491-2.9a5.285,5.285,0,0,0-.87-.07A1.959,1.959,0,0,0,143.675-6.5V0h-2.136V-9.51h2.039l.053,1.063a2.406,2.406,0,0,1,2.145-1.239,2,2,0,0,1,.756.123ZM149.88-9.51l.062.993a3.422,3.422,0,0,1,2.742-1.169,2.629,2.629,0,0,1,2.61,1.459,3.373,3.373,0,0,1,2.918-1.459,2.965,2.965,0,0,1,2.342.87,3.831,3.831,0,0,1,.787,2.566V0h-2.136V-6.187a1.891,1.891,0,0,0-.4-1.327,1.731,1.731,0,0,0-1.31-.422,1.778,1.778,0,0,0-1.191.391,2.063,2.063,0,0,0-.646,1.024L155.672,0h-2.136V-6.258a1.523,1.523,0,0,0-1.714-1.679A1.88,1.88,0,0,0,150-6.891V0h-2.136V-9.51ZM169.216,0a3.3,3.3,0,0,1-.246-.888,3.325,3.325,0,0,1-2.5,1.063,3.355,3.355,0,0,1-2.338-.817,2.615,2.615,0,0,1-.905-2.021A2.7,2.7,0,0,1,164.36-5a5.473,5.473,0,0,1,3.23-.813h1.31v-.624a1.666,1.666,0,0,0-.413-1.182,1.638,1.638,0,0,0-1.257-.444,1.881,1.881,0,0,0-1.2.365,1.129,1.129,0,0,0-.466.927h-2.136a2.37,2.37,0,0,1,.519-1.463A3.455,3.455,0,0,1,165.362-9.3a4.955,4.955,0,0,1,1.991-.387,3.99,3.99,0,0,1,2.663.839,2.993,2.993,0,0,1,1.02,2.36V-2.2a4.861,4.861,0,0,0,.36,2.048V0Zm-2.347-1.538a2.429,2.429,0,0,0,1.191-.308,2.055,2.055,0,0,0,.839-.826V-4.465h-1.151a3.148,3.148,0,0,0-1.784.413,1.338,1.338,0,0,0-.6,1.169,1.248,1.248,0,0,0,.409.98A1.583,1.583,0,0,0,166.869-1.538Zm10.31.009A1.931,1.931,0,0,0,178.506-2a1.591,1.591,0,0,0,.563-1.151h2.013a3.137,3.137,0,0,1-.554,1.657,3.632,3.632,0,0,1-1.406,1.217,4.191,4.191,0,0,1-1.916.448,4.055,4.055,0,0,1-3.164-1.292,5.124,5.124,0,0,1-1.169-3.568V-4.9a5.039,5.039,0,0,1,1.16-3.476A4.018,4.018,0,0,1,177.2-9.686a3.907,3.907,0,0,1,2.764.989,3.542,3.542,0,0,1,1.121,2.6h-2.013a1.956,1.956,0,0,0-.558-1.345,1.8,1.8,0,0,0-1.332-.527,1.879,1.879,0,0,0-1.6.751,3.834,3.834,0,0,0-.571,2.281V-4.6a3.9,3.9,0,0,0,.558,2.307A1.878,1.878,0,0,0,177.179-1.529ZM184.966,0H182.83V-9.51h2.136ZM182.7-11.979a1.133,1.133,0,0,1,.312-.817,1.179,1.179,0,0,1,.892-.325,1.193,1.193,0,0,1,.9.325,1.125,1.125,0,0,1,.316.817,1.1,1.1,0,0,1-.316.8,1.2,1.2,0,0,1-.9.321,1.188,1.188,0,0,1-.892-.321A1.107,1.107,0,0,1,182.7-11.979Zm4.192,7.137a5.607,5.607,0,0,1,.554-2.518A4.044,4.044,0,0,1,189-9.083a4.383,4.383,0,0,1,2.3-.6,4.154,4.154,0,0,1,3.125,1.239,4.874,4.874,0,0,1,1.3,3.287l.009.5a5.658,5.658,0,0,1-.541,2.514,4,4,0,0,1-1.547,1.714,4.415,4.415,0,0,1-2.325.606,4.125,4.125,0,0,1-3.221-1.34,5.133,5.133,0,0,1-1.208-3.573Zm2.136.185a3.832,3.832,0,0,0,.606,2.3,1.971,1.971,0,0,0,1.688.831A1.95,1.95,0,0,0,193-2.373a4.232,4.232,0,0,0,.6-2.47,3.782,3.782,0,0,0-.62-2.285,1.979,1.979,0,0,0-1.683-.844,1.96,1.96,0,0,0-1.661.831A4.152,4.152,0,0,0,189.026-4.658Zm2.865-8.842h2.435l-2.435,2.663h-1.714Zm7.629,3.99.062,1.1a3.419,3.419,0,0,1,2.769-1.274q2.971,0,3.023,3.4V0h-2.136V-6.161a1.958,1.958,0,0,0-.391-1.34,1.645,1.645,0,0,0-1.279-.435,2.058,2.058,0,0,0-1.925,1.169V0h-2.136V-9.51Z" transform="translate(478 23707)" fill="#12263f"/>
    <g id="Trazado_106363" data-name="Trazado 106363" transform="translate(356 23674)" fill="#dbbe36">
      <path d="M 26 50.5 C 22.69186019897461 50.5 19.48347091674805 49.8524284362793 16.46396064758301 48.57527923583984 C 13.54668998718262 47.34138870239258 10.92640972137451 45.57463836669922 8.67588996887207 43.3241081237793 C 6.425360202789307 41.07358932495117 4.658609867095947 38.45330810546875 3.424720048904419 35.53604125976562 C 2.147569894790649 32.51652908325195 1.5 29.30813980102539 1.5 26 C 1.5 22.69186019897461 2.147569894790649 19.48347091674805 3.424720048904419 16.46396064758301 C 4.658609867095947 13.54668998718262 6.425360202789307 10.92640972137451 8.67588996887207 8.67588996887207 C 10.92640972137451 6.425360202789307 13.54668998718262 4.658609867095947 16.46396064758301 3.424720048904419 C 19.48347091674805 2.147569894790649 22.69186019897461 1.5 26 1.5 C 29.30813980102539 1.5 32.51652908325195 2.147569894790649 35.53604125976562 3.424720048904419 C 38.45330810546875 4.658609867095947 41.07358932495117 6.425360202789307 43.3241081237793 8.67588996887207 C 45.57463836669922 10.92640972137451 47.34138870239258 13.54668998718262 48.57527923583984 16.46396064758301 C 49.8524284362793 19.48347091674805 50.5 22.69186019897461 50.5 26 C 50.5 29.30813980102539 49.8524284362793 32.51652908325195 48.57527923583984 35.53604125976562 C 47.34138870239258 38.45330810546875 45.57463836669922 41.07358932495117 43.3241081237793 43.3241081237793 C 41.07358932495117 45.57463836669922 38.45330810546875 47.34138870239258 35.53604125976562 48.57527923583984 C 32.51652908325195 49.8524284362793 29.30813980102539 50.5 26 50.5 Z" stroke="none"/>
      <path d="M 26 3 C 22.89369964599609 3 19.88190841674805 3.607700347900391 17.04827880859375 4.806221008300781 C 14.30981826782227 5.964500427246094 11.84978866577148 7.623298645019531 9.736549377441406 9.736549377441406 C 7.623298645019531 11.84978866577148 5.964500427246094 14.30981826782227 4.806221008300781 17.04827880859375 C 3.607700347900391 19.88190841674805 3 22.89369964599609 3 26 C 3 29.10630035400391 3.607700347900391 32.11808776855469 4.806221008300781 34.95172119140625 C 5.964500427246094 37.69017791748047 7.623298645019531 40.15021133422852 9.736549377441406 42.26345062255859 C 11.84978866577148 44.37670135498047 14.30981826782227 46.03549957275391 17.04827880859375 47.19377899169922 C 19.88190841674805 48.39229965209961 22.89369964599609 49 26 49 C 29.10630035400391 49 32.11808776855469 48.39229965209961 34.95172119140625 47.19377899169922 C 37.69017791748047 46.03549957275391 40.15021133422852 44.37670135498047 42.26345062255859 42.26345062255859 C 44.37670135498047 40.15021133422852 46.03549957275391 37.69017791748047 47.19377899169922 34.95172119140625 C 48.39229965209961 32.11808776855469 49 29.10630035400391 49 26 C 49 22.89369964599609 48.39229965209961 19.88190841674805 47.19377899169922 17.04827880859375 C 46.03549957275391 14.30981826782227 44.37670135498047 11.84978866577148 42.26345062255859 9.736549377441406 C 40.15021133422852 7.623298645019531 37.69017791748047 5.964500427246094 34.95172119140625 4.806221008300781 C 32.11808776855469 3.607700347900391 29.10630035400391 3 26 3 M 26 0 C 40.35939788818359 0 52 11.64059829711914 52 26 C 52 40.35939788818359 40.35939788818359 52 26 52 C 11.64059829711914 52 0 40.35939788818359 0 26 C 0 11.64059829711914 11.64059829711914 0 26 0 Z" stroke="none" fill="#fff"/>
    </g>
    <path id="Trazado_106366" data-name="Trazado 106366" d="M9.712,0H.782V-1.934L4.9-6.258A4.909,4.909,0,0,0,6.416-9.009a1.913,1.913,0,0,0-.36-1.257A1.287,1.287,0,0,0,5.01-10.7a1.3,1.3,0,0,0-1.1.576,2.366,2.366,0,0,0-.422,1.437H.519a4.2,4.2,0,0,1,.589-2.175,4.129,4.129,0,0,1,1.635-1.56,4.856,4.856,0,0,1,2.338-.562,4.777,4.777,0,0,1,3.195.958A3.42,3.42,0,0,1,9.4-9.272,4,4,0,0,1,9.114-7.8,6.456,6.456,0,0,1,8.24-6.3a22.029,22.029,0,0,1-1.912,2.1L4.676-2.285H9.712Z" transform="translate(377 23706)" fill="#12263f"/>
    <path id="Trazado_106369" data-name="Trazado 106369" d="M0,0H364V76H0Z" transform="translate(376 23744)" fill="#91dcff"/>
    <path id="Trazado_106375" data-name="Trazado 106375" d="M8.78-5.713H3.524v3.938H9.668V0H1.3V-12.8H9.606V-11H3.524v3.533H8.78ZM14.4-2.707l2.013-6.8h2.206L15.319,0H13.465L10.143-9.51h2.215ZM25.5,0a3.3,3.3,0,0,1-.246-.888,3.325,3.325,0,0,1-2.5,1.063,3.355,3.355,0,0,1-2.338-.817,2.615,2.615,0,0,1-.905-2.021A2.7,2.7,0,0,1,20.641-5a5.473,5.473,0,0,1,3.23-.813h1.31v-.624a1.666,1.666,0,0,0-.413-1.182,1.638,1.638,0,0,0-1.257-.444,1.881,1.881,0,0,0-1.2.365,1.129,1.129,0,0,0-.466.927H19.714a2.37,2.37,0,0,1,.519-1.463A3.455,3.455,0,0,1,21.643-9.3a4.955,4.955,0,0,1,1.991-.387,3.99,3.99,0,0,1,2.663.839,2.993,2.993,0,0,1,1.02,2.36V-2.2a4.861,4.861,0,0,0,.36,2.048V0ZM23.15-1.538a2.429,2.429,0,0,0,1.191-.308,2.055,2.055,0,0,0,.839-.826V-4.465H24.029a3.148,3.148,0,0,0-1.784.413,1.338,1.338,0,0,0-.6,1.169,1.248,1.248,0,0,0,.409.98A1.583,1.583,0,0,0,23.15-1.538ZM31.825,0H29.689V-13.5h2.136Zm8.086-.932A3.312,3.312,0,0,1,37.239.176,2.952,2.952,0,0,1,34.9-.729a3.851,3.851,0,0,1-.8-2.619V-9.51h2.136v6.135q0,1.811,1.5,1.811a2.111,2.111,0,0,0,2.1-1.116V-9.51h2.136V0H39.964ZM49.834,0a3.3,3.3,0,0,1-.246-.888,3.325,3.325,0,0,1-2.5,1.063,3.355,3.355,0,0,1-2.338-.817,2.615,2.615,0,0,1-.905-2.021A2.7,2.7,0,0,1,44.978-5a5.473,5.473,0,0,1,3.23-.813h1.31v-.624A1.666,1.666,0,0,0,49.1-7.616a1.638,1.638,0,0,0-1.257-.444,1.881,1.881,0,0,0-1.2.365,1.129,1.129,0,0,0-.466.927H44.051a2.37,2.37,0,0,1,.519-1.463A3.455,3.455,0,0,1,45.98-9.3a4.955,4.955,0,0,1,1.991-.387,3.99,3.99,0,0,1,2.663.839,2.993,2.993,0,0,1,1.02,2.36V-2.2a4.861,4.861,0,0,0,.36,2.048V0ZM47.487-1.538a2.429,2.429,0,0,0,1.191-.308,2.055,2.055,0,0,0,.839-.826V-4.465H48.366a3.148,3.148,0,0,0-1.784.413,1.338,1.338,0,0,0-.6,1.169,1.248,1.248,0,0,0,.409.98A1.583,1.583,0,0,0,47.487-1.538Zm10.31.009A1.931,1.931,0,0,0,59.124-2a1.591,1.591,0,0,0,.563-1.151H61.7a3.137,3.137,0,0,1-.554,1.657A3.632,3.632,0,0,1,59.739-.272a4.191,4.191,0,0,1-1.916.448,4.055,4.055,0,0,1-3.164-1.292A5.124,5.124,0,0,1,53.49-4.685V-4.9A5.039,5.039,0,0,1,54.65-8.38a4.018,4.018,0,0,1,3.164-1.305,3.907,3.907,0,0,1,2.764.989A3.542,3.542,0,0,1,61.7-6.1H59.687a1.956,1.956,0,0,0-.558-1.345A1.8,1.8,0,0,0,57.8-7.972a1.879,1.879,0,0,0-1.6.751,3.834,3.834,0,0,0-.571,2.281V-4.6a3.9,3.9,0,0,0,.558,2.307A1.878,1.878,0,0,0,57.8-1.529ZM65.584,0H63.448V-9.51h2.136ZM63.316-11.979a1.133,1.133,0,0,1,.312-.817,1.179,1.179,0,0,1,.892-.325,1.193,1.193,0,0,1,.9.325,1.125,1.125,0,0,1,.316.817,1.1,1.1,0,0,1-.316.8,1.2,1.2,0,0,1-.9.321,1.188,1.188,0,0,1-.892-.321A1.107,1.107,0,0,1,63.316-11.979Zm4.192,7.137a5.607,5.607,0,0,1,.554-2.518,4.044,4.044,0,0,1,1.556-1.723,4.383,4.383,0,0,1,2.3-.6,4.154,4.154,0,0,1,3.125,1.239,4.874,4.874,0,0,1,1.3,3.287l.009.5a5.658,5.658,0,0,1-.541,2.514A4,4,0,0,1,74.263-.431a4.415,4.415,0,0,1-2.325.606,4.125,4.125,0,0,1-3.221-1.34,5.133,5.133,0,0,1-1.208-3.573Zm2.136.185a3.832,3.832,0,0,0,.606,2.3,1.971,1.971,0,0,0,1.688.831,1.95,1.95,0,0,0,1.683-.844,4.232,4.232,0,0,0,.6-2.47,3.782,3.782,0,0,0-.62-2.285,1.979,1.979,0,0,0-1.683-.844,1.96,1.96,0,0,0-1.661.831A4.152,4.152,0,0,0,69.645-4.658ZM72.51-13.5h2.435L72.51-10.837H70.8Zm7.629,3.99.062,1.1a3.419,3.419,0,0,1,2.769-1.274q2.971,0,3.023,3.4V0H83.856V-6.161a1.958,1.958,0,0,0-.391-1.34,1.645,1.645,0,0,0-1.279-.435,2.058,2.058,0,0,0-1.925,1.169V0H78.126V-9.51ZM92.25-4.825a5.654,5.654,0,0,1,1.02-3.529A3.267,3.267,0,0,1,96-9.686a3.1,3.1,0,0,1,2.443,1.055V-13.5h2.136V0H98.648l-.105-.984A3.148,3.148,0,0,1,95.985.176a3.248,3.248,0,0,1-2.7-1.345A5.861,5.861,0,0,1,92.25-4.825Zm2.136.185a3.958,3.958,0,0,0,.558,2.263,1.811,1.811,0,0,0,1.586.813,2.017,2.017,0,0,0,1.916-1.169V-6.794a1.986,1.986,0,0,0-1.9-1.143,1.824,1.824,0,0,0-1.6.822A4.408,4.408,0,0,0,94.386-4.641ZM107,.176A4.419,4.419,0,0,1,103.707-1.1a4.639,4.639,0,0,1-1.261-3.406v-.264a5.706,5.706,0,0,1,.549-2.544,4.181,4.181,0,0,1,1.542-1.745,4.078,4.078,0,0,1,2.215-.624,3.733,3.733,0,0,1,3,1.239,5.24,5.24,0,0,1,1.059,3.507v.861H104.6a2.856,2.856,0,0,0,.787,1.863,2.362,2.362,0,0,0,1.736.686,2.892,2.892,0,0,0,2.391-1.187l1.151,1.1a3.845,3.845,0,0,1-1.525,1.323A4.774,4.774,0,0,1,107,.176Zm-.255-8.147a1.8,1.8,0,0,0-1.419.615,3.189,3.189,0,0,0-.69,1.714H108.7V-5.8a2.6,2.6,0,0,0-.571-1.622A1.785,1.785,0,0,0,106.743-7.972ZM122.634,0a3.3,3.3,0,0,1-.246-.888,3.325,3.325,0,0,1-2.5,1.063,3.355,3.355,0,0,1-2.338-.817,2.615,2.615,0,0,1-.905-2.021A2.7,2.7,0,0,1,117.778-5a5.473,5.473,0,0,1,3.23-.813h1.31v-.624a1.666,1.666,0,0,0-.413-1.182,1.638,1.638,0,0,0-1.257-.444,1.881,1.881,0,0,0-1.2.365,1.129,1.129,0,0,0-.466.927h-2.136a2.37,2.37,0,0,1,.519-1.463A3.455,3.455,0,0,1,118.78-9.3a4.955,4.955,0,0,1,1.991-.387,3.99,3.99,0,0,1,2.663.839,2.993,2.993,0,0,1,1.02,2.36V-2.2a4.861,4.861,0,0,0,.36,2.048V0Zm-2.347-1.538a2.429,2.429,0,0,0,1.191-.308,2.055,2.055,0,0,0,.839-.826V-4.465h-1.151a3.148,3.148,0,0,0-1.784.413,1.338,1.338,0,0,0-.6,1.169,1.248,1.248,0,0,0,.409.98A1.583,1.583,0,0,0,120.287-1.538ZM128.962,0h-2.136V-13.5h2.136Zm5-11.821V-9.51h1.679v1.582h-1.679v5.309a1.169,1.169,0,0,0,.215.787,1,1,0,0,0,.769.242,3.29,3.29,0,0,0,.747-.088V-.026a5.26,5.26,0,0,1-1.406.2q-2.461,0-2.461-2.716V-7.928h-1.564V-9.51h1.564v-2.312Zm7.5,12A4.419,4.419,0,0,1,138.168-1.1a4.639,4.639,0,0,1-1.261-3.406v-.264a5.706,5.706,0,0,1,.549-2.544A4.181,4.181,0,0,1,139-9.062a4.078,4.078,0,0,1,2.215-.624,3.733,3.733,0,0,1,3,1.239,5.24,5.24,0,0,1,1.059,3.507v.861h-6.214a2.856,2.856,0,0,0,.787,1.863,2.362,2.362,0,0,0,1.736.686,2.892,2.892,0,0,0,2.391-1.187l1.151,1.1A3.845,3.845,0,0,1,143.6-.294,4.774,4.774,0,0,1,141.46.176Zm-.255-8.147a1.8,1.8,0,0,0-1.419.615,3.189,3.189,0,0,0-.69,1.714h4.069V-5.8a2.6,2.6,0,0,0-.571-1.622A1.785,1.785,0,0,0,141.205-7.972Zm10.705.413a5.285,5.285,0,0,0-.87-.07A1.959,1.959,0,0,0,149.063-6.5V0h-2.136V-9.51h2.039l.053,1.063a2.406,2.406,0,0,1,2.145-1.239,2,2,0,0,1,.756.123Zm3.331-1.951.062,1.1a3.419,3.419,0,0,1,2.769-1.274q2.971,0,3.023,3.4V0h-2.136V-6.161a1.958,1.958,0,0,0-.391-1.34,1.645,1.645,0,0,0-1.279-.435,2.058,2.058,0,0,0-1.925,1.169V0h-2.136V-9.51ZM168.952,0a3.3,3.3,0,0,1-.246-.888,3.325,3.325,0,0,1-2.5,1.063,3.355,3.355,0,0,1-2.338-.817,2.615,2.615,0,0,1-.905-2.021A2.7,2.7,0,0,1,164.1-5a5.473,5.473,0,0,1,3.23-.813h1.31v-.624a1.666,1.666,0,0,0-.413-1.182,1.638,1.638,0,0,0-1.257-.444,1.881,1.881,0,0,0-1.2.365,1.129,1.129,0,0,0-.466.927h-2.136a2.37,2.37,0,0,1,.519-1.463A3.455,3.455,0,0,1,165.1-9.3a4.955,4.955,0,0,1,1.991-.387,3.99,3.99,0,0,1,2.663.839,2.993,2.993,0,0,1,1.02,2.36V-2.2a4.861,4.861,0,0,0,.36,2.048V0Zm-2.347-1.538a2.429,2.429,0,0,0,1.191-.308,2.055,2.055,0,0,0,.839-.826V-4.465h-1.151a3.148,3.148,0,0,0-1.784.413,1.338,1.338,0,0,0-.6,1.169,1.248,1.248,0,0,0,.409.98A1.583,1.583,0,0,0,166.605-1.538Zm9.079-10.283V-9.51h1.679v1.582h-1.679v5.309a1.169,1.169,0,0,0,.215.787,1,1,0,0,0,.769.242,3.29,3.29,0,0,0,.747-.088V-.026a5.26,5.26,0,0,1-1.406.2q-2.461,0-2.461-2.716V-7.928h-1.564V-9.51h1.564v-2.312ZM181.266,0H179.13V-9.51h2.136ZM179-11.979a1.133,1.133,0,0,1,.312-.817,1.179,1.179,0,0,1,.892-.325,1.193,1.193,0,0,1,.9.325,1.125,1.125,0,0,1,.316.817,1.1,1.1,0,0,1-.316.8,1.2,1.2,0,0,1-.9.321,1.188,1.188,0,0,1-.892-.321A1.107,1.107,0,0,1,179-11.979Zm7.945,9.272,2.013-6.8h2.206L187.866,0h-1.854l-3.322-9.51H184.9ZM198.044,0a3.3,3.3,0,0,1-.246-.888A3.325,3.325,0,0,1,195.3.176a3.355,3.355,0,0,1-2.338-.817,2.615,2.615,0,0,1-.905-2.021A2.7,2.7,0,0,1,193.188-5a5.473,5.473,0,0,1,3.23-.813h1.31v-.624a1.666,1.666,0,0,0-.413-1.182,1.638,1.638,0,0,0-1.257-.444,1.881,1.881,0,0,0-1.2.365,1.129,1.129,0,0,0-.466.927h-2.136a2.37,2.37,0,0,1,.519-1.463A3.455,3.455,0,0,1,194.19-9.3a4.955,4.955,0,0,1,1.991-.387,3.99,3.99,0,0,1,2.663.839,2.993,2.993,0,0,1,1.02,2.36V-2.2a4.861,4.861,0,0,0,.36,2.048V0ZM195.7-1.538a2.429,2.429,0,0,0,1.191-.308,2.055,2.055,0,0,0,.839-.826V-4.465h-1.151a3.148,3.148,0,0,0-1.784.413,1.338,1.338,0,0,0-.6,1.169,1.248,1.248,0,0,0,.409.98A1.583,1.583,0,0,0,195.7-1.538Zm11.733-1.046a.968.968,0,0,0-.47-.87,5,5,0,0,0-1.56-.527,8.02,8.02,0,0,1-1.819-.58,2.428,2.428,0,0,1-1.6-2.241,2.531,2.531,0,0,1,1.037-2.057,4.1,4.1,0,0,1,2.637-.826,4.266,4.266,0,0,1,2.755.844,2.677,2.677,0,0,1,1.05,2.188h-2.136a1.316,1.316,0,0,0-.457-1.024,1.752,1.752,0,0,0-1.213-.409,1.893,1.893,0,0,0-1.147.325,1.025,1.025,0,0,0-.444.87.866.866,0,0,0,.413.765,5.68,5.68,0,0,0,1.67.549,7.9,7.9,0,0,1,1.973.659A2.794,2.794,0,0,1,209.184-4a2.342,2.342,0,0,1,.347,1.3A2.478,2.478,0,0,1,208.468-.62a4.535,4.535,0,0,1-2.786.8A4.917,4.917,0,0,1,203.6-.246a3.428,3.428,0,0,1-1.424-1.16A2.746,2.746,0,0,1,201.665-3h2.074a1.5,1.5,0,0,0,.571,1.165,2.22,2.22,0,0,0,1.4.409,2.16,2.16,0,0,0,1.283-.321A.993.993,0,0,0,207.431-2.584Z" transform="translate(478 23789)" fill="#12263f"/>
    <g id="Trazado_106370" data-name="Trazado 106370" transform="translate(356 23756)" fill="#dbbe36">
      <path d="M 26 50.5 C 22.69186019897461 50.5 19.48347091674805 49.8524284362793 16.46396064758301 48.57527923583984 C 13.54668998718262 47.34138870239258 10.92640972137451 45.57463836669922 8.67588996887207 43.3241081237793 C 6.425360202789307 41.07358932495117 4.658609867095947 38.45330810546875 3.424720048904419 35.53604125976562 C 2.147569894790649 32.51652908325195 1.5 29.30813980102539 1.5 26 C 1.5 22.69186019897461 2.147569894790649 19.48347091674805 3.424720048904419 16.46396064758301 C 4.658609867095947 13.54668998718262 6.425360202789307 10.92640972137451 8.67588996887207 8.67588996887207 C 10.92640972137451 6.425360202789307 13.54668998718262 4.658609867095947 16.46396064758301 3.424720048904419 C 19.48347091674805 2.147569894790649 22.69186019897461 1.5 26 1.5 C 29.30813980102539 1.5 32.51652908325195 2.147569894790649 35.53604125976562 3.424720048904419 C 38.45330810546875 4.658609867095947 41.07358932495117 6.425360202789307 43.3241081237793 8.67588996887207 C 45.57463836669922 10.92640972137451 47.34138870239258 13.54668998718262 48.57527923583984 16.46396064758301 C 49.8524284362793 19.48347091674805 50.5 22.69186019897461 50.5 26 C 50.5 29.30813980102539 49.8524284362793 32.51652908325195 48.57527923583984 35.53604125976562 C 47.34138870239258 38.45330810546875 45.57463836669922 41.07358932495117 43.3241081237793 43.3241081237793 C 41.07358932495117 45.57463836669922 38.45330810546875 47.34138870239258 35.53604125976562 48.57527923583984 C 32.51652908325195 49.8524284362793 29.30813980102539 50.5 26 50.5 Z" stroke="none"/>
      <path d="M 26 3 C 22.89369964599609 3 19.88190841674805 3.607700347900391 17.04827880859375 4.806221008300781 C 14.30981826782227 5.964500427246094 11.84978866577148 7.623298645019531 9.736549377441406 9.736549377441406 C 7.623298645019531 11.84978866577148 5.964500427246094 14.30981826782227 4.806221008300781 17.04827880859375 C 3.607700347900391 19.88190841674805 3 22.89369964599609 3 26 C 3 29.10630035400391 3.607700347900391 32.11808776855469 4.806221008300781 34.95172119140625 C 5.964500427246094 37.69017791748047 7.623298645019531 40.15021133422852 9.736549377441406 42.26345062255859 C 11.84978866577148 44.37670135498047 14.30981826782227 46.03549957275391 17.04827880859375 47.19377899169922 C 19.88190841674805 48.39229965209961 22.89369964599609 49 26 49 C 29.10630035400391 49 32.11808776855469 48.39229965209961 34.95172119140625 47.19377899169922 C 37.69017791748047 46.03549957275391 40.15021133422852 44.37670135498047 42.26345062255859 42.26345062255859 C 44.37670135498047 40.15021133422852 46.03549957275391 37.69017791748047 47.19377899169922 34.95172119140625 C 48.39229965209961 32.11808776855469 49 29.10630035400391 49 26 C 49 22.89369964599609 48.39229965209961 19.88190841674805 47.19377899169922 17.04827880859375 C 46.03549957275391 14.30981826782227 44.37670135498047 11.84978866577148 42.26345062255859 9.736549377441406 C 40.15021133422852 7.623298645019531 37.69017791748047 5.964500427246094 34.95172119140625 4.806221008300781 C 32.11808776855469 3.607700347900391 29.10630035400391 3 26 3 M 26 0 C 40.35939788818359 0 52 11.64059829711914 52 26 C 52 40.35939788818359 40.35939788818359 52 26 52 C 11.64059829711914 52 0 40.35939788818359 0 26 C 0 11.64059829711914 11.64059829711914 0 26 0 Z" stroke="none" fill="#fff"/>
    </g>
    <path id="Trazado_106376" data-name="Trazado 106376" d="M3.489-7.638h1.4A1.453,1.453,0,0,0,6.548-9.264a1.406,1.406,0,0,0-.4-1.033,1.5,1.5,0,0,0-1.116-.4,1.606,1.606,0,0,0-1.024.343,1.046,1.046,0,0,0-.435.853H.615a3.032,3.032,0,0,1,.563-1.8,3.715,3.715,0,0,1,1.56-1.235,5.334,5.334,0,0,1,2.193-.444,5.241,5.241,0,0,1,3.357.976A3.243,3.243,0,0,1,9.51-9.325,2.7,2.7,0,0,1,9-7.765,3.6,3.6,0,0,1,7.532-6.574a3.441,3.441,0,0,1,1.6,1.121,2.951,2.951,0,0,1,.58,1.859A3.3,3.3,0,0,1,8.394-.853,5.472,5.472,0,0,1,4.931.176,5.675,5.675,0,0,1,2.6-.3,3.656,3.656,0,0,1,.967-1.63,3.45,3.45,0,0,1,.413-3.56H3.393a1.334,1.334,0,0,0,.475,1.02,1.676,1.676,0,0,0,1.169.431,1.755,1.755,0,0,0,1.248-.435A1.454,1.454,0,0,0,6.75-3.656a1.7,1.7,0,0,0-.483-1.371,2.021,2.021,0,0,0-1.336-.4H3.489Z" transform="translate(377 23788)" fill="#12263f"/>
    <path id="Trazado_106381" data-name="Trazado 106381" d="M0,0H364V76H0Z" transform="translate(376 23826)" fill="#91dcff"/>
    <path id="Trazado_106386" data-name="Trazado 106386" d="M1.3,0V-12.8H5.08a5.928,5.928,0,0,1,3.01.756A5.154,5.154,0,0,1,10.125-9.9a6.807,6.807,0,0,1,.721,3.182v.642a6.779,6.779,0,0,1-.725,3.2A5.092,5.092,0,0,1,8.055-.747,6.2,6.2,0,0,1,4.983,0ZM3.524-11v9.229h1.45A3.339,3.339,0,0,0,7.66-2.87a4.766,4.766,0,0,0,.954-3.142v-.712a4.891,4.891,0,0,0-.905-3.182A3.209,3.209,0,0,0,5.08-11ZM17.042.176A4.419,4.419,0,0,1,13.75-1.1a4.639,4.639,0,0,1-1.261-3.406v-.264a5.706,5.706,0,0,1,.549-2.544,4.181,4.181,0,0,1,1.542-1.745A4.078,4.078,0,0,1,16.8-9.686a3.733,3.733,0,0,1,3,1.239,5.24,5.24,0,0,1,1.059,3.507v.861H14.643a2.856,2.856,0,0,0,.787,1.863,2.362,2.362,0,0,0,1.736.686,2.892,2.892,0,0,0,2.391-1.187l1.151,1.1A3.845,3.845,0,0,1,19.182-.294,4.774,4.774,0,0,1,17.042.176Zm-.255-8.147a1.8,1.8,0,0,0-1.419.615,3.189,3.189,0,0,0-.69,1.714h4.069V-5.8a2.6,2.6,0,0,0-.571-1.622A1.785,1.785,0,0,0,16.787-7.972ZM26.42-1.529A1.931,1.931,0,0,0,27.747-2a1.591,1.591,0,0,0,.563-1.151h2.013a3.137,3.137,0,0,1-.554,1.657A3.632,3.632,0,0,1,28.362-.272a4.191,4.191,0,0,1-1.916.448,4.055,4.055,0,0,1-3.164-1.292,5.124,5.124,0,0,1-1.169-3.568V-4.9a5.039,5.039,0,0,1,1.16-3.476,4.018,4.018,0,0,1,3.164-1.305A3.907,3.907,0,0,1,29.2-8.7a3.542,3.542,0,0,1,1.121,2.6H28.31a1.956,1.956,0,0,0-.558-1.345,1.8,1.8,0,0,0-1.332-.527,1.879,1.879,0,0,0-1.6.751,3.834,3.834,0,0,0-.571,2.281V-4.6a3.9,3.9,0,0,0,.558,2.307A1.878,1.878,0,0,0,26.42-1.529ZM34.207,0H32.071V-9.51h2.136ZM31.939-11.979a1.133,1.133,0,0,1,.312-.817,1.179,1.179,0,0,1,.892-.325,1.193,1.193,0,0,1,.9.325,1.125,1.125,0,0,1,.316.817,1.1,1.1,0,0,1-.316.8,1.2,1.2,0,0,1-.9.321,1.188,1.188,0,0,1-.892-.321A1.107,1.107,0,0,1,31.939-11.979Zm9.923,9.4a.968.968,0,0,0-.47-.87,5,5,0,0,0-1.56-.527,8.02,8.02,0,0,1-1.819-.58,2.428,2.428,0,0,1-1.6-2.241A2.531,2.531,0,0,1,37.45-8.859a4.1,4.1,0,0,1,2.637-.826,4.266,4.266,0,0,1,2.755.844,2.677,2.677,0,0,1,1.05,2.188H41.757A1.316,1.316,0,0,0,41.3-7.677a1.752,1.752,0,0,0-1.213-.409,1.893,1.893,0,0,0-1.147.325,1.025,1.025,0,0,0-.444.87.866.866,0,0,0,.413.765,5.68,5.68,0,0,0,1.67.549,7.9,7.9,0,0,1,1.973.659A2.794,2.794,0,0,1,43.616-4a2.342,2.342,0,0,1,.347,1.3A2.478,2.478,0,0,1,42.9-.62a4.535,4.535,0,0,1-2.786.8A4.917,4.917,0,0,1,38.03-.246a3.428,3.428,0,0,1-1.424-1.16A2.746,2.746,0,0,1,36.1-3h2.074a1.5,1.5,0,0,0,.571,1.165,2.22,2.22,0,0,0,1.4.409,2.16,2.16,0,0,0,1.283-.321A.993.993,0,0,0,41.862-2.584ZM48.094,0H45.958V-9.51h2.136ZM45.826-11.979a1.133,1.133,0,0,1,.312-.817,1.179,1.179,0,0,1,.892-.325,1.193,1.193,0,0,1,.9.325,1.125,1.125,0,0,1,.316.817,1.1,1.1,0,0,1-.316.8,1.2,1.2,0,0,1-.9.321,1.188,1.188,0,0,1-.892-.321A1.107,1.107,0,0,1,45.826-11.979Zm4.192,7.137a5.607,5.607,0,0,1,.554-2.518,4.044,4.044,0,0,1,1.556-1.723,4.383,4.383,0,0,1,2.3-.6,4.154,4.154,0,0,1,3.125,1.239,4.874,4.874,0,0,1,1.3,3.287l.009.5a5.658,5.658,0,0,1-.541,2.514A4,4,0,0,1,56.773-.431a4.415,4.415,0,0,1-2.325.606,4.125,4.125,0,0,1-3.221-1.34,5.133,5.133,0,0,1-1.208-3.573Zm2.136.185a3.832,3.832,0,0,0,.606,2.3,1.971,1.971,0,0,0,1.688.831,1.95,1.95,0,0,0,1.683-.844,4.232,4.232,0,0,0,.6-2.47,3.782,3.782,0,0,0-.62-2.285,1.979,1.979,0,0,0-1.683-.844,1.96,1.96,0,0,0-1.661.831A4.152,4.152,0,0,0,52.154-4.658ZM55.02-13.5h2.435L55.02-10.837H53.306Zm7.629,3.99.062,1.1a3.419,3.419,0,0,1,2.769-1.274q2.971,0,3.023,3.4V0H66.366V-6.161a1.958,1.958,0,0,0-.391-1.34A1.645,1.645,0,0,0,64.7-7.937a2.058,2.058,0,0,0-1.925,1.169V0H60.636V-9.51ZM74.76-4.825a5.654,5.654,0,0,1,1.02-3.529,3.267,3.267,0,0,1,2.733-1.332,3.1,3.1,0,0,1,2.443,1.055V-13.5h2.136V0H81.158l-.105-.984A3.148,3.148,0,0,1,78.5.176a3.248,3.248,0,0,1-2.7-1.345A5.861,5.861,0,0,1,74.76-4.825Zm2.136.185a3.958,3.958,0,0,0,.558,2.263,1.811,1.811,0,0,0,1.586.813,2.017,2.017,0,0,0,1.916-1.169V-6.794a1.986,1.986,0,0,0-1.9-1.143,1.824,1.824,0,0,0-1.6.822A4.408,4.408,0,0,0,76.9-4.641ZM89.508.176A4.419,4.419,0,0,1,86.216-1.1a4.639,4.639,0,0,1-1.261-3.406v-.264A5.706,5.706,0,0,1,85.5-7.317a4.181,4.181,0,0,1,1.542-1.745,4.078,4.078,0,0,1,2.215-.624,3.733,3.733,0,0,1,3,1.239,5.24,5.24,0,0,1,1.059,3.507v.861H87.108A2.856,2.856,0,0,0,87.9-2.215a2.362,2.362,0,0,0,1.736.686,2.892,2.892,0,0,0,2.391-1.187l1.151,1.1A3.845,3.845,0,0,1,91.648-.294,4.774,4.774,0,0,1,89.508.176Zm-.255-8.147a1.8,1.8,0,0,0-1.419.615,3.189,3.189,0,0,0-.69,1.714h4.069V-5.8a2.6,2.6,0,0,0-.571-1.622A1.785,1.785,0,0,0,89.253-7.972Zm14.115,6.442A1.931,1.931,0,0,0,104.7-2a1.591,1.591,0,0,0,.563-1.151h2.013a3.137,3.137,0,0,1-.554,1.657,3.632,3.632,0,0,1-1.406,1.217,4.191,4.191,0,0,1-1.916.448,4.055,4.055,0,0,1-3.164-1.292,5.124,5.124,0,0,1-1.169-3.568V-4.9a5.039,5.039,0,0,1,1.16-3.476,4.018,4.018,0,0,1,3.164-1.305,3.907,3.907,0,0,1,2.764.989,3.542,3.542,0,0,1,1.121,2.6h-2.013a1.956,1.956,0,0,0-.558-1.345,1.8,1.8,0,0,0-1.332-.527,1.879,1.879,0,0,0-1.6.751,3.834,3.834,0,0,0-.571,2.281V-4.6a3.9,3.9,0,0,0,.558,2.307A1.878,1.878,0,0,0,103.368-1.529Zm5.115-3.313a5.607,5.607,0,0,1,.554-2.518,4.044,4.044,0,0,1,1.556-1.723,4.383,4.383,0,0,1,2.3-.6,4.154,4.154,0,0,1,3.125,1.239,4.874,4.874,0,0,1,1.3,3.287l.009.5a5.658,5.658,0,0,1-.541,2.514,4,4,0,0,1-1.547,1.714,4.415,4.415,0,0,1-2.325.606,4.125,4.125,0,0,1-3.221-1.34,5.133,5.133,0,0,1-1.208-3.573Zm2.136.185a3.832,3.832,0,0,0,.606,2.3,1.971,1.971,0,0,0,1.688.831,1.95,1.95,0,0,0,1.683-.844,4.232,4.232,0,0,0,.6-2.47,3.782,3.782,0,0,0-.62-2.285,1.979,1.979,0,0,0-1.683-.844,1.96,1.96,0,0,0-1.661.831A4.152,4.152,0,0,0,110.619-4.658ZM121.14-9.51l.062.993a3.422,3.422,0,0,1,2.742-1.169,2.629,2.629,0,0,1,2.61,1.459,3.373,3.373,0,0,1,2.918-1.459,2.965,2.965,0,0,1,2.342.87,3.831,3.831,0,0,1,.787,2.566V0h-2.136V-6.187a1.891,1.891,0,0,0-.4-1.327,1.731,1.731,0,0,0-1.31-.422,1.778,1.778,0,0,0-1.191.391,2.063,2.063,0,0,0-.646,1.024L126.932,0H124.8V-6.258a1.523,1.523,0,0,0-1.714-1.679,1.88,1.88,0,0,0-1.819,1.046V0h-2.136V-9.51Zm21.981,4.852a5.662,5.662,0,0,1-1,3.52A3.209,3.209,0,0,1,139.43.176a3.23,3.23,0,0,1-2.5-1.028V3.656h-2.136V-9.51h1.969l.088.967A3.137,3.137,0,0,1,139.4-9.686a3.242,3.242,0,0,1,2.729,1.3,5.813,5.813,0,0,1,.989,3.6Zm-2.127-.185a3.966,3.966,0,0,0-.567-2.259,1.843,1.843,0,0,0-1.622-.835,1.965,1.965,0,0,0-1.881,1.081v4.219a1.983,1.983,0,0,0,1.9,1.107,1.841,1.841,0,0,0,1.6-.822A4.366,4.366,0,0,0,140.994-4.843Zm8.912-2.716a5.285,5.285,0,0,0-.87-.07A1.959,1.959,0,0,0,147.059-6.5V0h-2.136V-9.51h2.039l.053,1.063a2.406,2.406,0,0,1,2.145-1.239,2,2,0,0,1,.756.123ZM156.674,0a3.3,3.3,0,0,1-.246-.888,3.325,3.325,0,0,1-2.5,1.063,3.355,3.355,0,0,1-2.338-.817,2.615,2.615,0,0,1-.905-2.021A2.7,2.7,0,0,1,151.818-5a5.473,5.473,0,0,1,3.23-.813h1.31v-.624a1.666,1.666,0,0,0-.413-1.182,1.638,1.638,0,0,0-1.257-.444,1.881,1.881,0,0,0-1.2.365,1.129,1.129,0,0,0-.466.927h-2.136a2.37,2.37,0,0,1,.519-1.463A3.455,3.455,0,0,1,152.82-9.3a4.955,4.955,0,0,1,1.991-.387,3.99,3.99,0,0,1,2.663.839,2.993,2.993,0,0,1,1.02,2.36V-2.2a4.861,4.861,0,0,0,.36,2.048V0Zm-2.347-1.538a2.429,2.429,0,0,0,1.191-.308,2.055,2.055,0,0,0,.839-.826V-4.465h-1.151a3.148,3.148,0,0,0-1.784.413,1.338,1.338,0,0,0-.6,1.169,1.248,1.248,0,0,0,.409.98A1.583,1.583,0,0,0,154.327-1.538Z" transform="translate(478 23871)" fill="#12263f"/>
    <g id="Trazado_106382" data-name="Trazado 106382" transform="translate(356 23838)" fill="#dbbe36">
      <path d="M 26 50.5 C 22.69186019897461 50.5 19.48347091674805 49.8524284362793 16.46396064758301 48.57527923583984 C 13.54668998718262 47.34138870239258 10.92640972137451 45.57463836669922 8.67588996887207 43.3241081237793 C 6.425360202789307 41.07358932495117 4.658609867095947 38.45330810546875 3.424720048904419 35.53604125976562 C 2.147569894790649 32.51652908325195 1.5 29.30813980102539 1.5 26 C 1.5 22.69186019897461 2.147569894790649 19.48347091674805 3.424720048904419 16.46396064758301 C 4.658609867095947 13.54668998718262 6.425360202789307 10.92640972137451 8.67588996887207 8.67588996887207 C 10.92640972137451 6.425360202789307 13.54668998718262 4.658609867095947 16.46396064758301 3.424720048904419 C 19.48347091674805 2.147569894790649 22.69186019897461 1.5 26 1.5 C 29.30813980102539 1.5 32.51652908325195 2.147569894790649 35.53604125976562 3.424720048904419 C 38.45330810546875 4.658609867095947 41.07358932495117 6.425360202789307 43.3241081237793 8.67588996887207 C 45.57463836669922 10.92640972137451 47.34138870239258 13.54668998718262 48.57527923583984 16.46396064758301 C 49.8524284362793 19.48347091674805 50.5 22.69186019897461 50.5 26 C 50.5 29.30813980102539 49.8524284362793 32.51652908325195 48.57527923583984 35.53604125976562 C 47.34138870239258 38.45330810546875 45.57463836669922 41.07358932495117 43.3241081237793 43.3241081237793 C 41.07358932495117 45.57463836669922 38.45330810546875 47.34138870239258 35.53604125976562 48.57527923583984 C 32.51652908325195 49.8524284362793 29.30813980102539 50.5 26 50.5 Z" stroke="none"/>
      <path d="M 26 3 C 22.89369964599609 3 19.88190841674805 3.607700347900391 17.04827880859375 4.806221008300781 C 14.30981826782227 5.964500427246094 11.84978866577148 7.623298645019531 9.736549377441406 9.736549377441406 C 7.623298645019531 11.84978866577148 5.964500427246094 14.30981826782227 4.806221008300781 17.04827880859375 C 3.607700347900391 19.88190841674805 3 22.89369964599609 3 26 C 3 29.10630035400391 3.607700347900391 32.11808776855469 4.806221008300781 34.95172119140625 C 5.964500427246094 37.69017791748047 7.623298645019531 40.15021133422852 9.736549377441406 42.26345062255859 C 11.84978866577148 44.37670135498047 14.30981826782227 46.03549957275391 17.04827880859375 47.19377899169922 C 19.88190841674805 48.39229965209961 22.89369964599609 49 26 49 C 29.10630035400391 49 32.11808776855469 48.39229965209961 34.95172119140625 47.19377899169922 C 37.69017791748047 46.03549957275391 40.15021133422852 44.37670135498047 42.26345062255859 42.26345062255859 C 44.37670135498047 40.15021133422852 46.03549957275391 37.69017791748047 47.19377899169922 34.95172119140625 C 48.39229965209961 32.11808776855469 49 29.10630035400391 49 26 C 49 22.89369964599609 48.39229965209961 19.88190841674805 47.19377899169922 17.04827880859375 C 46.03549957275391 14.30981826782227 44.37670135498047 11.84978866577148 42.26345062255859 9.736549377441406 C 40.15021133422852 7.623298645019531 37.69017791748047 5.964500427246094 34.95172119140625 4.806221008300781 C 32.11808776855469 3.607700347900391 29.10630035400391 3 26 3 M 26 0 C 40.35939788818359 0 52 11.64059829711914 52 26 C 52 40.35939788818359 40.35939788818359 52 26 52 C 11.64059829711914 52 0 40.35939788818359 0 26 C 0 11.64059829711914 11.64059829711914 0 26 0 Z" stroke="none" fill="#fff"/>
    </g>
    <path id="Trazado_106387" data-name="Trazado 106387" d="M8.6-5h1.3v2.285H8.6V0H5.643V-2.716H.694L.519-4.526l5.124-8.244V-12.8H8.6ZM3.34-5h2.3V-8.938l-.185.3Z" transform="translate(377 23870)" fill="#12263f"/>
    <path id="Trazado_106380" data-name="Trazado 106380" d="M5.019-12.8l2.856,8.9,2.848-8.9h4.061V0H11.689V-2.988l.3-6.117L8.895,0H6.855l-3.1-9.114.3,6.126V0H.967V-12.8ZM16.233-4.843a5.613,5.613,0,0,1,.554-2.536,3.96,3.96,0,0,1,1.591-1.709,4.791,4.791,0,0,1,2.435-.6,4.373,4.373,0,0,1,3.366,1.323,5.076,5.076,0,0,1,1.23,3.6v.105a4.925,4.925,0,0,1-1.235,3.529A4.384,4.384,0,0,1,20.83.176a4.434,4.434,0,0,1-3.261-1.217,4.761,4.761,0,0,1-1.327-3.3Zm2.962.185a3.538,3.538,0,0,0,.413,1.934,1.376,1.376,0,0,0,1.222.615q1.582,0,1.617-2.435v-.3q0-2.558-1.635-2.558-1.485,0-1.608,2.206Zm7.146-.167a5.809,5.809,0,0,1,.976-3.56,3.211,3.211,0,0,1,2.725-1.3,2.731,2.731,0,0,1,2.145,1V-13.5h2.971V0H32.493l-.149-1.02a2.8,2.8,0,0,1-2.32,1.2,3.205,3.205,0,0,1-2.689-1.3A5.993,5.993,0,0,1,26.341-4.825Zm2.962.185q0,2.531,1.477,2.531a1.458,1.458,0,0,0,1.406-.826V-6.557A1.419,1.419,0,0,0,30.8-7.4q-1.371,0-1.485,2.215ZM41.44.176A4.889,4.889,0,0,1,37.9-1.129a4.507,4.507,0,0,1-1.354-3.4v-.246a5.84,5.84,0,0,1,.541-2.575,3.955,3.955,0,0,1,1.578-1.727,4.763,4.763,0,0,1,2.461-.611,4.117,4.117,0,0,1,3.164,1.244,4.887,4.887,0,0,1,1.16,3.467v1.151H39.56a2.135,2.135,0,0,0,.694,1.257,2.066,2.066,0,0,0,1.389.457,2.662,2.662,0,0,0,2.2-.984l1.354,1.6A3.784,3.784,0,0,1,43.625-.277,5.3,5.3,0,0,1,41.44.176ZM41.106-7.4q-1.3,0-1.547,1.723h2.988v-.229a1.467,1.467,0,0,0-.36-1.1A1.434,1.434,0,0,0,41.106-7.4ZM49.764,0H46.793V-13.5h2.971Zm1.45-4.843a5.613,5.613,0,0,1,.554-2.536,3.96,3.96,0,0,1,1.591-1.709,4.791,4.791,0,0,1,2.435-.6,4.373,4.373,0,0,1,3.366,1.323,5.076,5.076,0,0,1,1.23,3.6v.105a4.925,4.925,0,0,1-1.235,3.529A4.384,4.384,0,0,1,55.811.176,4.434,4.434,0,0,1,52.55-1.042a4.761,4.761,0,0,1-1.327-3.3Zm2.962.185a3.538,3.538,0,0,0,.413,1.934,1.376,1.376,0,0,0,1.222.615q1.582,0,1.617-2.435v-.3q0-2.558-1.635-2.558-1.485,0-1.608,2.206ZM73.582-2.391H69.354L68.616,0h-3.3l4.693-12.8h2.9L77.643,0H74.329ZM70.093-4.772h2.751l-1.38-4.438ZM81.861,0H78.785V-12.8h3.076Zm2.145,0V-12.8h4.122a6.064,6.064,0,0,1,3.05.769,5.406,5.406,0,0,1,2.114,2.171,6.554,6.554,0,0,1,.769,3.142v.589a6.592,6.592,0,0,1-.743,3.151A5.429,5.429,0,0,1,91.226-.8a5.93,5.93,0,0,1-3.01.8Zm3.085-10.415v8.042h1.072A2.4,2.4,0,0,0,90.2-3.318a4.63,4.63,0,0,0,.712-2.808V-6.68A4.592,4.592,0,0,0,90.2-9.475a2.442,2.442,0,0,0-2.074-.94Zm15.636,8.024H98.5L97.761,0h-3.3l4.693-12.8h2.9L106.787,0h-3.313ZM99.237-4.772h2.751l-1.38-4.438Z" transform="translate(1014 23562)" fill="#12263f"/>
    <path id="Trazado_106368" data-name="Trazado 106368" d="M153.5,0,307,266H0Z" transform="translate(1179 23846) rotate(180)" fill="#91dcff"/>
    <path id="Trazado_105716" data-name="Trazado 105716" d="M-8460.23,11918.5h191.1" transform="translate(9228 11700)" fill="none" stroke="#727997" stroke-width="3"/>
    <path id="Trazado_106364" data-name="Trazado 106364" d="M12,0,24,21H0Z" transform="translate(752.5 23631) rotate(-90)" fill="#727997"/>
    <path id="Trazado_106371" data-name="Trazado 106371" d="M12,0,24,21H0Z" transform="translate(969.367 23607) rotate(90)" fill="#727997"/>
    <path id="Trazado_105717" data-name="Trazado 105717" d="M-8460.23,11918.5h191.1" transform="translate(9228 11780)" fill="none" stroke="#727997" stroke-width="3"/>
    <path id="Trazado_106367" data-name="Trazado 106367" d="M12,0,24,21H0Z" transform="translate(752.5 23711) rotate(-90)" fill="#727997"/>
    <path id="Trazado_106372" data-name="Trazado 106372" d="M12,0,24,21H0Z" transform="translate(969.367 23687) rotate(90)" fill="#727997"/>
    <path id="Trazado_105718" data-name="Trazado 105718" d="M-8460.23,11918.5h191.1" transform="translate(9228 11860)" fill="none" stroke="#727997" stroke-width="3"/>
    <path id="Trazado_106373" data-name="Trazado 106373" d="M12,0,24,21H0Z" transform="translate(752.5 23791) rotate(-90)" fill="#727997"/>
    <path id="Trazado_106374" data-name="Trazado 106374" d="M12,0,24,21H0Z" transform="translate(969.367 23767) rotate(90)" fill="#727997"/>
    <path id="Trazado_105719" data-name="Trazado 105719" d="M-8460.23,11918.5h191.1" transform="translate(9228 11940)" fill="none" stroke="#727997" stroke-width="3"/>
    <path id="Trazado_106383" data-name="Trazado 106383" d="M12,0,24,21H0Z" transform="translate(752.5 23871) rotate(-90)" fill="#727997"/>
    <path id="Trazado_106384" data-name="Trazado 106384" d="M12,0,24,21H0Z" transform="translate(969.367 23847) rotate(90)" fill="#727997"/>
    <path id="Trazado_106377" data-name="Trazado 106377" d="M11.065-4.166A4.621,4.621,0,0,1,9.554-.971,5.154,5.154,0,0,1,6.047.176,4.99,4.99,0,0,1,3.353-.549a4.759,4.759,0,0,1-1.8-2.061A7.438,7.438,0,0,1,.9-5.713v-1.2a7.491,7.491,0,0,1,.642-3.19,4.835,4.835,0,0,1,1.841-2.127,5.136,5.136,0,0,1,2.773-.747,4.934,4.934,0,0,1,3.41,1.151,4.81,4.81,0,0,1,1.5,3.252H8.851a3.161,3.161,0,0,0-.8-1.991,2.658,2.658,0,0,0-1.894-.611,2.6,2.6,0,0,0-2.228,1.059A5.289,5.289,0,0,0,3.129-7v1.134a5.611,5.611,0,0,0,.743,3.164,2.465,2.465,0,0,0,2.175,1.09,2.875,2.875,0,0,0,1.969-.589,3.071,3.071,0,0,0,.835-1.96Zm1.38-.677A5.607,5.607,0,0,1,13-7.361a4.044,4.044,0,0,1,1.556-1.723,4.383,4.383,0,0,1,2.3-.6,4.154,4.154,0,0,1,3.125,1.239,4.874,4.874,0,0,1,1.3,3.287l.009.5a5.658,5.658,0,0,1-.541,2.514A4,4,0,0,1,19.2-.431a4.415,4.415,0,0,1-2.325.606,4.125,4.125,0,0,1-3.221-1.34,5.133,5.133,0,0,1-1.208-3.573Zm2.136.185a3.832,3.832,0,0,0,.606,2.3,1.971,1.971,0,0,0,1.688.831,1.95,1.95,0,0,0,1.683-.844,4.232,4.232,0,0,0,.6-2.47,3.782,3.782,0,0,0-.62-2.285,1.979,1.979,0,0,0-1.683-.844,1.96,1.96,0,0,0-1.661.831A4.152,4.152,0,0,0,14.581-4.658ZM25.075-9.51l.062,1.1a3.419,3.419,0,0,1,2.769-1.274q2.971,0,3.023,3.4V0H28.793V-6.161A1.958,1.958,0,0,0,28.4-7.5a1.645,1.645,0,0,0-1.279-.435A2.058,2.058,0,0,0,25.2-6.768V0H23.063V-9.51Zm11.936,7.98A1.931,1.931,0,0,0,38.338-2,1.591,1.591,0,0,0,38.9-3.146h2.013a3.137,3.137,0,0,1-.554,1.657A3.632,3.632,0,0,1,38.953-.272a4.191,4.191,0,0,1-1.916.448,4.055,4.055,0,0,1-3.164-1.292A5.124,5.124,0,0,1,32.7-4.685V-4.9a5.039,5.039,0,0,1,1.16-3.476,4.018,4.018,0,0,1,3.164-1.305,3.907,3.907,0,0,1,2.764.989,3.542,3.542,0,0,1,1.121,2.6H38.9a1.956,1.956,0,0,0-.558-1.345,1.8,1.8,0,0,0-1.332-.527,1.879,1.879,0,0,0-1.6.751,3.834,3.834,0,0,0-.571,2.281V-4.6A3.9,3.9,0,0,0,35.4-2.29,1.878,1.878,0,0,0,37.011-1.529ZM44.8,0H42.662V-9.51H44.8ZM42.53-11.979a1.133,1.133,0,0,1,.312-.817,1.179,1.179,0,0,1,.892-.325,1.193,1.193,0,0,1,.9.325,1.125,1.125,0,0,1,.316.817,1.1,1.1,0,0,1-.316.8,1.2,1.2,0,0,1-.9.321,1.188,1.188,0,0,1-.892-.321A1.107,1.107,0,0,1,42.53-11.979ZM51.311.176A4.419,4.419,0,0,1,48.019-1.1a4.639,4.639,0,0,1-1.261-3.406v-.264a5.706,5.706,0,0,1,.549-2.544A4.181,4.181,0,0,1,48.85-9.062a4.078,4.078,0,0,1,2.215-.624,3.733,3.733,0,0,1,3,1.239,5.24,5.24,0,0,1,1.059,3.507v.861H48.911A2.856,2.856,0,0,0,49.7-2.215a2.362,2.362,0,0,0,1.736.686,2.892,2.892,0,0,0,2.391-1.187l1.151,1.1A3.845,3.845,0,0,1,53.451-.294,4.774,4.774,0,0,1,51.311.176Zm-.255-8.147a1.8,1.8,0,0,0-1.419.615,3.189,3.189,0,0,0-.69,1.714h4.069V-5.8a2.6,2.6,0,0,0-.571-1.622A1.785,1.785,0,0,0,51.056-7.972ZM58.764-9.51l.062,1.1a3.419,3.419,0,0,1,2.769-1.274q2.971,0,3.023,3.4V0H62.481V-6.161A1.958,1.958,0,0,0,62.09-7.5a1.645,1.645,0,0,0-1.279-.435,2.058,2.058,0,0,0-1.925,1.169V0H56.751V-9.51ZM70.7-1.529A1.931,1.931,0,0,0,72.026-2a1.591,1.591,0,0,0,.563-1.151H74.6a3.137,3.137,0,0,1-.554,1.657A3.632,3.632,0,0,1,72.642-.272a4.191,4.191,0,0,1-1.916.448,4.055,4.055,0,0,1-3.164-1.292,5.124,5.124,0,0,1-1.169-3.568V-4.9a5.039,5.039,0,0,1,1.16-3.476,4.018,4.018,0,0,1,3.164-1.305,3.907,3.907,0,0,1,2.764.989A3.542,3.542,0,0,1,74.6-6.1H72.589a1.956,1.956,0,0,0-.558-1.345A1.8,1.8,0,0,0,70.7-7.972a1.879,1.879,0,0,0-1.6.751,3.834,3.834,0,0,0-.571,2.281V-4.6a3.9,3.9,0,0,0,.558,2.307A1.878,1.878,0,0,0,70.7-1.529ZM78.486,0H76.351V-9.51h2.136ZM76.219-11.979a1.133,1.133,0,0,1,.312-.817,1.179,1.179,0,0,1,.892-.325,1.193,1.193,0,0,1,.9.325,1.125,1.125,0,0,1,.316.817,1.1,1.1,0,0,1-.316.8,1.2,1.2,0,0,1-.9.321,1.188,1.188,0,0,1-.892-.321A1.107,1.107,0,0,1,76.219-11.979ZM86.493,0a3.3,3.3,0,0,1-.246-.888,3.325,3.325,0,0,1-2.5,1.063,3.355,3.355,0,0,1-2.338-.817,2.615,2.615,0,0,1-.905-2.021A2.7,2.7,0,0,1,81.637-5a5.473,5.473,0,0,1,3.23-.813h1.31v-.624a1.666,1.666,0,0,0-.413-1.182,1.638,1.638,0,0,0-1.257-.444,1.881,1.881,0,0,0-1.2.365,1.129,1.129,0,0,0-.466.927H80.71a2.37,2.37,0,0,1,.519-1.463A3.455,3.455,0,0,1,82.639-9.3a4.955,4.955,0,0,1,1.991-.387,3.99,3.99,0,0,1,2.663.839,2.993,2.993,0,0,1,1.02,2.36V-2.2a4.861,4.861,0,0,0,.36,2.048V0ZM84.146-1.538a2.429,2.429,0,0,0,1.191-.308,2.055,2.055,0,0,0,.839-.826V-4.465H85.025a3.148,3.148,0,0,0-1.784.413,1.338,1.338,0,0,0-.6,1.169,1.248,1.248,0,0,0,.409.98A1.583,1.583,0,0,0,84.146-1.538Z" transform="translate(997 23625)" fill="#12263f"/>
    <path id="Trazado_106378" data-name="Trazado 106378" d="M1.3,0V-12.8H5.08a5.928,5.928,0,0,1,3.01.756A5.154,5.154,0,0,1,10.125-9.9a6.807,6.807,0,0,1,.721,3.182v.642a6.779,6.779,0,0,1-.725,3.2A5.092,5.092,0,0,1,8.055-.747,6.2,6.2,0,0,1,4.983,0ZM3.524-11v9.229h1.45A3.339,3.339,0,0,0,7.66-2.87a4.766,4.766,0,0,0,.954-3.142v-.712a4.891,4.891,0,0,0-.905-3.182A3.209,3.209,0,0,0,5.08-11ZM17.042.176A4.419,4.419,0,0,1,13.75-1.1a4.639,4.639,0,0,1-1.261-3.406v-.264a5.706,5.706,0,0,1,.549-2.544,4.181,4.181,0,0,1,1.542-1.745A4.078,4.078,0,0,1,16.8-9.686a3.733,3.733,0,0,1,3,1.239,5.24,5.24,0,0,1,1.059,3.507v.861H14.643a2.856,2.856,0,0,0,.787,1.863,2.362,2.362,0,0,0,1.736.686,2.892,2.892,0,0,0,2.391-1.187l1.151,1.1A3.845,3.845,0,0,1,19.182-.294,4.774,4.774,0,0,1,17.042.176Zm-.255-8.147a1.8,1.8,0,0,0-1.419.615,3.189,3.189,0,0,0-.69,1.714h4.069V-5.8a2.6,2.6,0,0,0-.571-1.622A1.785,1.785,0,0,0,16.787-7.972ZM27.844-2.584a.968.968,0,0,0-.47-.87,5,5,0,0,0-1.56-.527,8.02,8.02,0,0,1-1.819-.58,2.428,2.428,0,0,1-1.6-2.241,2.531,2.531,0,0,1,1.037-2.057,4.1,4.1,0,0,1,2.637-.826,4.266,4.266,0,0,1,2.755.844,2.677,2.677,0,0,1,1.05,2.188H27.738a1.316,1.316,0,0,0-.457-1.024,1.752,1.752,0,0,0-1.213-.409,1.893,1.893,0,0,0-1.147.325,1.025,1.025,0,0,0-.444.87.866.866,0,0,0,.413.765,5.68,5.68,0,0,0,1.67.549,7.9,7.9,0,0,1,1.973.659A2.794,2.794,0,0,1,29.6-4a2.342,2.342,0,0,1,.347,1.3A2.478,2.478,0,0,1,28.881-.62a4.535,4.535,0,0,1-2.786.8,4.917,4.917,0,0,1-2.083-.422,3.428,3.428,0,0,1-1.424-1.16A2.746,2.746,0,0,1,22.078-3h2.074a1.5,1.5,0,0,0,.571,1.165,2.22,2.22,0,0,0,1.4.409A2.16,2.16,0,0,0,27.4-1.745.993.993,0,0,0,27.844-2.584ZM35.991.176A4.419,4.419,0,0,1,32.7-1.1a4.639,4.639,0,0,1-1.261-3.406v-.264a5.706,5.706,0,0,1,.549-2.544A4.181,4.181,0,0,1,33.53-9.062a4.078,4.078,0,0,1,2.215-.624,3.733,3.733,0,0,1,3,1.239,5.24,5.24,0,0,1,1.059,3.507v.861H33.592a2.856,2.856,0,0,0,.787,1.863,2.362,2.362,0,0,0,1.736.686A2.892,2.892,0,0,0,38.5-2.716l1.151,1.1A3.845,3.845,0,0,1,38.131-.294,4.774,4.774,0,0,1,35.991.176Zm-.255-8.147a1.8,1.8,0,0,0-1.419.615,3.189,3.189,0,0,0-.69,1.714H37.7V-5.8a2.6,2.6,0,0,0-.571-1.622A1.785,1.785,0,0,0,35.736-7.972Zm5.326,3.129a5.607,5.607,0,0,1,.554-2.518,4.044,4.044,0,0,1,1.556-1.723,4.383,4.383,0,0,1,2.3-.6A4.154,4.154,0,0,1,48.6-8.446a4.874,4.874,0,0,1,1.3,3.287l.009.5a5.658,5.658,0,0,1-.541,2.514A4,4,0,0,1,47.817-.431a4.415,4.415,0,0,1-2.325.606,4.125,4.125,0,0,1-3.221-1.34,5.133,5.133,0,0,1-1.208-3.573Zm2.136.185a3.832,3.832,0,0,0,.606,2.3,1.971,1.971,0,0,0,1.688.831,1.95,1.95,0,0,0,1.683-.844,4.232,4.232,0,0,0,.6-2.47,3.782,3.782,0,0,0-.62-2.285,1.979,1.979,0,0,0-1.683-.844,1.96,1.96,0,0,0-1.661.831A4.152,4.152,0,0,0,43.2-4.658Z" transform="translate(997 23704)" fill="#12263f"/>
    <path id="Trazado_106379" data-name="Trazado 106379" d="M3.647,0H1.433V-12.8H3.647ZM8.156-9.51l.062,1.1a3.419,3.419,0,0,1,2.769-1.274q2.971,0,3.023,3.4V0H11.874V-6.161a1.958,1.958,0,0,0-.391-1.34A1.645,1.645,0,0,0,10.2-7.937,2.058,2.058,0,0,0,8.279-6.768V0H6.144V-9.51Zm10.705-2.312V-9.51H20.54v1.582H18.861v5.309a1.169,1.169,0,0,0,.215.787,1,1,0,0,0,.769.242,3.29,3.29,0,0,0,.747-.088V-.026a5.26,5.26,0,0,1-1.406.2q-2.461,0-2.461-2.716V-7.928H15.161V-9.51h1.564v-2.312Zm7.5,12A4.419,4.419,0,0,1,23.067-1.1a4.639,4.639,0,0,1-1.261-3.406v-.264a5.706,5.706,0,0,1,.549-2.544A4.181,4.181,0,0,1,23.9-9.062a4.078,4.078,0,0,1,2.215-.624,3.733,3.733,0,0,1,3,1.239,5.24,5.24,0,0,1,1.059,3.507v.861H23.959a2.856,2.856,0,0,0,.787,1.863,2.362,2.362,0,0,0,1.736.686,2.892,2.892,0,0,0,2.391-1.187l1.151,1.1A3.845,3.845,0,0,1,28.5-.294,4.774,4.774,0,0,1,26.358.176ZM26.1-7.972a1.8,1.8,0,0,0-1.419.615,3.189,3.189,0,0,0-.69,1.714h4.069V-5.8a2.6,2.6,0,0,0-.571-1.622A1.785,1.785,0,0,0,26.1-7.972Zm10.705.413a5.285,5.285,0,0,0-.87-.07A1.959,1.959,0,0,0,33.961-6.5V0H31.825V-9.51h2.039l.053,1.063a2.406,2.406,0,0,1,2.145-1.239,2,2,0,0,1,.756.123ZM42.179.176A4.419,4.419,0,0,1,38.887-1.1a4.639,4.639,0,0,1-1.261-3.406v-.264a5.706,5.706,0,0,1,.549-2.544,4.181,4.181,0,0,1,1.542-1.745,4.078,4.078,0,0,1,2.215-.624,3.733,3.733,0,0,1,3,1.239,5.24,5.24,0,0,1,1.059,3.507v.861H39.779a2.856,2.856,0,0,0,.787,1.863,2.362,2.362,0,0,0,1.736.686,2.892,2.892,0,0,0,2.391-1.187l1.151,1.1A3.845,3.845,0,0,1,44.319-.294,4.774,4.774,0,0,1,42.179.176Zm-.255-8.147a1.8,1.8,0,0,0-1.419.615,3.189,3.189,0,0,0-.69,1.714h4.069V-5.8a2.6,2.6,0,0,0-.571-1.622A1.785,1.785,0,0,0,41.924-7.972Zm.483-5.528h2.435l-2.435,2.663H40.693ZM52.98-2.584a.968.968,0,0,0-.47-.87,5,5,0,0,0-1.56-.527,8.02,8.02,0,0,1-1.819-.58,2.428,2.428,0,0,1-1.6-2.241,2.531,2.531,0,0,1,1.037-2.057,4.1,4.1,0,0,1,2.637-.826,4.266,4.266,0,0,1,2.755.844,2.677,2.677,0,0,1,1.05,2.188H52.875a1.316,1.316,0,0,0-.457-1.024,1.752,1.752,0,0,0-1.213-.409,1.893,1.893,0,0,0-1.147.325,1.025,1.025,0,0,0-.444.87.866.866,0,0,0,.413.765,5.68,5.68,0,0,0,1.67.549,7.9,7.9,0,0,1,1.973.659A2.794,2.794,0,0,1,54.734-4a2.342,2.342,0,0,1,.347,1.3A2.478,2.478,0,0,1,54.018-.62a4.535,4.535,0,0,1-2.786.8,4.917,4.917,0,0,1-2.083-.422,3.428,3.428,0,0,1-1.424-1.16A2.746,2.746,0,0,1,47.215-3h2.074a1.5,1.5,0,0,0,.571,1.165,2.22,2.22,0,0,0,1.4.409,2.16,2.16,0,0,0,1.283-.321A.993.993,0,0,0,52.98-2.584Z" transform="translate(997 23783)" fill="#12263f"/>
    <path id="Trazado_106385" data-name="Trazado 106385" d="M8.464-2.979H3.507L2.47,0H.158L4.992-12.8h2L11.83,0H9.51ZM4.131-4.772H7.84L5.985-10.081ZM16.98-1.529A1.931,1.931,0,0,0,18.308-2a1.591,1.591,0,0,0,.563-1.151h2.013a3.137,3.137,0,0,1-.554,1.657A3.632,3.632,0,0,1,18.923-.272a4.191,4.191,0,0,1-1.916.448,4.055,4.055,0,0,1-3.164-1.292,5.124,5.124,0,0,1-1.169-3.568V-4.9a5.039,5.039,0,0,1,1.16-3.476A4.018,4.018,0,0,1,17-9.686a3.907,3.907,0,0,1,2.764.989,3.542,3.542,0,0,1,1.121,2.6H18.87a1.956,1.956,0,0,0-.558-1.345,1.8,1.8,0,0,0-1.332-.527,1.879,1.879,0,0,0-1.6.751,3.834,3.834,0,0,0-.571,2.281V-4.6a3.9,3.9,0,0,0,.558,2.307A1.878,1.878,0,0,0,16.98-1.529Zm9.422,0A1.931,1.931,0,0,0,27.729-2a1.591,1.591,0,0,0,.563-1.151H30.3a3.137,3.137,0,0,1-.554,1.657A3.632,3.632,0,0,1,28.345-.272a4.191,4.191,0,0,1-1.916.448,4.055,4.055,0,0,1-3.164-1.292A5.124,5.124,0,0,1,22.1-4.685V-4.9a5.039,5.039,0,0,1,1.16-3.476A4.018,4.018,0,0,1,26.42-9.686a3.907,3.907,0,0,1,2.764.989A3.542,3.542,0,0,1,30.3-6.1H28.292a1.956,1.956,0,0,0-.558-1.345A1.8,1.8,0,0,0,26.4-7.972a1.879,1.879,0,0,0-1.6.751,3.834,3.834,0,0,0-.571,2.281V-4.6A3.9,3.9,0,0,0,24.79-2.29,1.878,1.878,0,0,0,26.4-1.529ZM34.189,0H32.054V-9.51h2.136ZM31.922-11.979a1.133,1.133,0,0,1,.312-.817,1.179,1.179,0,0,1,.892-.325,1.193,1.193,0,0,1,.9.325,1.125,1.125,0,0,1,.316.817,1.1,1.1,0,0,1-.316.8,1.2,1.2,0,0,1-.9.321,1.188,1.188,0,0,1-.892-.321A1.107,1.107,0,0,1,31.922-11.979Zm4.192,7.137a5.607,5.607,0,0,1,.554-2.518,4.044,4.044,0,0,1,1.556-1.723,4.383,4.383,0,0,1,2.3-.6,4.154,4.154,0,0,1,3.125,1.239,4.874,4.874,0,0,1,1.3,3.287l.009.5a5.658,5.658,0,0,1-.541,2.514A4,4,0,0,1,42.869-.431a4.415,4.415,0,0,1-2.325.606,4.125,4.125,0,0,1-3.221-1.34,5.133,5.133,0,0,1-1.208-3.573Zm2.136.185a3.832,3.832,0,0,0,.606,2.3,1.971,1.971,0,0,0,1.688.831,1.95,1.95,0,0,0,1.683-.844,4.232,4.232,0,0,0,.6-2.47,3.782,3.782,0,0,0-.62-2.285,1.979,1.979,0,0,0-1.683-.844,1.96,1.96,0,0,0-1.661.831A4.152,4.152,0,0,0,38.25-4.658ZM41.115-13.5H43.55l-2.435,2.663H39.4Zm7.629,3.99.062,1.1a3.419,3.419,0,0,1,2.769-1.274q2.971,0,3.023,3.4V0H52.462V-6.161a1.958,1.958,0,0,0-.391-1.34,1.645,1.645,0,0,0-1.279-.435,2.058,2.058,0,0,0-1.925,1.169V0H46.731V-9.51Z" transform="translate(997 23865)" fill="#12263f"/>
  </g>
</svg>
