<?xml version="1.0" encoding="utf-8"?>
<!-- Generator: Adobe Illustrator 26.0.1, SVG Export Plug-In . SVG Version: 6.00 Build 0)  -->
<svg version="1.1" id="Capa_1" xmlns="http://www.w3.org/2000/svg" xmlns:xlink="http://www.w3.org/1999/xlink" x="0px" y="0px"
	 viewBox="0 0 1328 885.3" style="enable-background:new 0 0 1328 885.3;" xml:space="preserve">
<style type="text/css">
	.st0{fill:#F0FCFF;}
	.st1{fill:#CCFAFF;}
	.st2{clip-path:url(#SVGID_00000017515767748063498560000009393529725838003584_);}
	.st3{fill:#447AF2;}
	.st4{fill:#312782;}
	.st5{fill:#53BCED;}
	.st6{fill:none;stroke:#FFFFFF;stroke-width:1.166;stroke-miterlimit:10;}
	.st7{fill:none;stroke:#FFFFFF;stroke-width:1.1661;stroke-miterlimit:10.0005;}
	.st8{fill:#F2DF85;stroke:#447AF2;stroke-width:0.389;stroke-miterlimit:10;}
	.st9{fill:none;stroke:#312782;stroke-width:0.194;stroke-miterlimit:10;}
	.st10{fill:#DB6E5F;}
	.st11{fill:#0D66BF;}
	.st12{fill:#49BD97;}
	.st13{fill:#1F9874;}
	.st14{fill:none;stroke:#49BD97;stroke-width:2.03;stroke-linecap:round;stroke-miterlimit:10;}
	.st15{fill:none;stroke:#1F9874;stroke-width:1.073;stroke-miterlimit:10;}
	.st16{fill:none;stroke:#49BD97;stroke-width:2.392;stroke-linecap:round;stroke-miterlimit:10;}
	.st17{fill:#C69A42;}
	.st18{fill:#AD843B;}
	.st19{fill:#F2DF85;}
	.st20{opacity:0.66;fill:#C69A42;enable-background:new    ;}
	.st21{fill:#C73C27;}
	.st22{opacity:0.22;fill:#ECEDEE;enable-background:new    ;}
	.st23{fill:#34251E;}
	.st24{fill:#D18E86;}
	.st25{fill:#91DCFF;}
	.st26{fill:#F7A89C;}
	.st27{fill:#EF7D6E;}
	.st28{fill:none;stroke:#983533;stroke-width:0.909;stroke-miterlimit:10;}
	.st29{fill:#4D3529;}
	.st30{fill:#983533;}
	.st31{fill:none;stroke:#4D3529;stroke-width:0.909;stroke-linecap:round;stroke-miterlimit:10;}
	.st32{opacity:0.41;fill:#FFFFFF;enable-background:new    ;}
	.st33{opacity:0.41;fill:none;stroke:#34251E;stroke-miterlimit:10;enable-background:new    ;}
</style>
<g id="Grupo_87741" transform="translate(-136 -26209)">
	<g id="Grupo_85486" transform="translate(136 26209)">
		<g id="BACKGROUND">
			<g id="Grupo_85229">
				<path id="Trazado_105792" class="st0" d="M1328,0v394.2c-27.6-3.3-55-2-80.3,9c-25.8,11.2-46.8,31.3-72.1,43.4
					c-48.3,23-106.1,13.8-155.6-6.3s-94.4-50.5-143.9-70.7s-107.2-29.7-155.6-7C673,384.7,640,435,588.8,445.6
					c-87.1,18-155-87-243.7-93.4c-58.4-4.2-109.9,34.9-155.6,71.6S91.1,498.6,33,491.8c-11.3-1.3-22.4-4.3-33-8.7V0H1328z"/>
				<path id="Trazado_105793" class="st1" d="M1328,394.2v491.1H0V483.2c10.5,4.4,21.6,7.3,33,8.7c58.1,6.7,110.9-31.5,156.6-68.1
					s97.2-75.8,155.6-71.6c88.7,6.4,156.6,111.4,243.7,93.4C640,435,673,384.7,720.4,362.5c48.4-22.7,106.2-13.2,155.6,7
					s94.4,50.6,143.9,70.7s107.4,29.4,155.6,6.3c25.4-12.1,46.3-32.3,72.1-43.4C1273,392.2,1300.4,390.9,1328,394.2z"/>
			</g>
		</g>
		<g id="OBJECTS">
			<g id="Grupo_85479">
				<g>
					<defs>
						<rect id="SVGID_1_" y="0" width="1328" height="885.3"/>
					</defs>
					<clipPath id="SVGID_00000147910947042293336450000013231501323850642836_">
						<use xlink:href="#SVGID_1_"  style="overflow:visible;"/>
					</clipPath>
					<g id="Grupo_85478" style="clip-path:url(#SVGID_00000147910947042293336450000013231501323850642836_);">
						<g id="Grupo_85477" transform="translate(-47.921 -86.772)">
							<g id="Grupo_85232" transform="translate(684.801 922.55)">
								<path id="Trazado_105797" class="st3" d="M9.3,0.4c3.8-1,7.8-0.1,10.8,2.4c2.2,1.7,3.7,4.1,4.3,6.8
									c1.3,5.5-1.4,11.3-6.5,13.8c-6.1,3-13.6,0.5-16.6-5.6c0,0,0,0,0,0c-1.8-3.6-1.7-7.9,0.3-11.4c1.2-2.1,3-3.9,5.2-5
									C7.6,1,8.4,0.6,9.3,0.4z"/>
								<g id="Grupo_85231" transform="translate(2.957 4.346)">
									<path id="Trazado_105798" class="st1" d="M4.3,0.1c0.5-0.2,1-0.2,1.5,0C6.7,0.4,7.2,1.3,7,2.2C6.9,2.7,6.7,3.1,6.4,3.5
										C6.1,3.7,5.9,3.9,5.6,4.1C4.8,4.6,4,5.4,3.4,6.2C3.2,6.5,3,6.8,2.7,7.1C2.6,7.3,2.4,7.5,2.2,7.7C1.7,8.1,0.9,8,0.5,7.5
										c0,0,0,0,0,0C0.3,7.2,0.1,6.9,0,6.5C0,5.9,0,5.3,0.2,4.7c0.2-0.6,0.4-1.1,0.7-1.6c0.6-0.9,1.4-1.8,2.3-2.4
										C3.5,0.4,3.9,0.2,4.3,0.1z"/>
								</g>
							</g>
							<g id="Grupo_85248" transform="translate(686.061 44.546)">
								<path id="Trazado_105859" class="st4" d="M111.5,976.4h-2.8V804.1c0-31.3,25.4-56.6,56.7-56.7h86.8
									c28.3,0.1,51.3-22.7,51.4-51c0.1-28.3-22.7-51.3-51-51.4c-0.1,0-0.3,0-0.4,0H110.1v-2.8h142.1c29.8,0,53.9,24.1,54,53.9
									c0,29.8-24.1,53.9-53.9,54c0,0,0,0,0,0h-86.8c-29.8,0-53.9,24.2-53.9,53.9V976.4z"/>
								<path id="Trazado_105860" class="st4" d="M231.2,645.1H89.1c-29.8,0-53.9-24.2-53.9-54c0-29.8,24.1-53.9,53.9-53.9h142.1
									v2.8H89.1c-28.3,0-51.2,22.9-51.2,51.2s22.9,51.2,51.2,51.2c0,0,0,0,0.1,0h142.1V645.1z"/>
								<path id="Trazado_105861" class="st4" d="M303.9,540H161.7v-2.8h142.1c28.3-0.1,51.1-23.1,51-51.4
									c-0.1-28.1-22.9-50.8-51-51H161.7v-2.8h142.1c29.8,0,53.9,24.1,53.9,53.9C357.8,515.8,333.7,540,303.9,540z"/>
								<path id="Trazado_105862" class="st4" d="M196.1,434.9H53.9c-29.8,0-53.9-24.1-54-53.9c0-29.8,24.1-53.9,53.9-54
									c0,0,0,0,0,0h142.1v2.8H53.9c-28.3,0-51.2,22.9-51.2,51.2c0,28.3,22.9,51.2,51.2,51.2c0,0,0,0,0,0h142.1V434.9z"/>
								<path id="Trazado_105863" class="st4" d="M247.9,329.7H105.7V327h142.1c28.3-0.1,51.1-23.1,51-51.4
									c-0.1-28.1-22.9-50.8-51-51h-86.5c-31.5,0-57-25.5-57-57V0h2.8v167.6c0,30,24.3,54.2,54.3,54.3h86.5
									c29.8,0,53.9,24.1,54,53.9C301.8,305.6,277.7,329.7,247.9,329.7C247.9,329.7,247.9,329.7,247.9,329.7L247.9,329.7z"/>
							</g>
							<g id="Elipse_4185" transform="translate(879.164 353.16) rotate(-76.571)">
								<circle class="st5" cx="44.3" cy="44.3" r="44.3"/>
								<circle class="st6" cx="44.3" cy="44.3" r="43.7"/>
							</g>
							<g id="Elipse_4186" transform="matrix(0.987, -0.161, 0.161, 0.987, 690.083, 388.892)">
								<circle class="st5" cx="44.3" cy="44.3" r="44.3"/>
								<circle class="st7" cx="44.3" cy="44.3" r="43.7"/>
							</g>
							<g id="Elipse_4187" transform="translate(930.511 553.865) rotate(-67.133)">
								<circle class="st5" cx="44.3" cy="44.3" r="44.3"/>
								<circle class="st6" cx="44.3" cy="44.3" r="43.7"/>
							</g>
							<g id="Elipse_4188" transform="translate(732.208 591.401)">
								<circle class="st5" cx="44.3" cy="44.3" r="44.3"/>
								<circle class="st6" cx="44.3" cy="44.3" r="43.7"/>
							</g>
							<path id="Trazado_105940" class="st8" d="M611,937.1c-3.8,13.5-8.8,26.7-14.9,39.3H47.9V509.6c12.9-3.5,26.4-3.6,39.3-0.5
								c31.7,8,56.7,32.9,73.6,60.8c17,27.9,27.3,59.2,40.3,89.2s29.6,59.6,55.5,79.4c47.5,36.4,113.4,31.9,173.2,29.6
								c59.8-2.3,128.5,3.6,164.7,51.3C619.4,852,621.9,897.5,611,937.1z"/>
							<path id="Trazado_105941" class="st9" d="M0,513.2c39.8-33.3,103.5-33.2,143.2,0.1c58.2,48.8,54.7,143.4,107.4,198.1
								c36,37.3,91.4,48.6,143.2,48.9s103.8-8.2,155.3-2.2c25.7,3,52.5,10.4,70.2,29.2c31.5,33.4,23,86.6,11.4,131
								s-22.9,96.2,5.3,132.4"/>
							<path id="Trazado_105953" class="st10" d="M1375.9,86.8v171.6c-17.8,6.9-37.9,7-54.5-2.2c-38.3-21.4-45.5-80.3-86.3-96.6
								c-26.6-10.6-56.1,1.6-83.1,11.1c-27,9.6-60.5,15.2-81.2-4.5c-13.3-12.7-17-32.4-18.1-50.8c-0.6-9.5-0.8-19.2-1.8-28.6
								L1375.9,86.8z"/>
							<path id="Trazado_105954" class="st9" d="M1013.7,30.8c42.3,37,3,122.5,48.7,155.2c24.9,17.8,59.4,7.1,87.8-4.3
								c28.5-11.4,62.7-22.4,87.9-4.9c25.6,17.9,26.9,55,43.1,81.7c17.1,28.3,53.4,43.5,85.6,35.8c32.2-7.6,57.8-37.5,60.4-70.5"/>
							<g id="Grupo_85427" transform="translate(70.423 685.772)">
								<circle id="Elipse_4193" class="st0" cx="128.4" cy="191.3" r="4.8"/>
								<circle id="Elipse_4194" class="st0" cx="97.5" cy="191.3" r="4.8"/>
								<circle id="Elipse_4195" class="st0" cx="66.6" cy="191.3" r="4.8"/>
								<circle id="Elipse_4196" class="st0" cx="35.7" cy="191.3" r="4.8"/>
								<path id="Trazado_105955" class="st0" d="M0,191.3c0-2.7,2.2-4.8,4.8-4.8c2.7,0,4.8,2.2,4.8,4.8c0,2.7-2.2,4.8-4.8,4.8
									c0,0,0,0,0,0C2.2,196.1,0,194,0,191.3z"/>
								<circle id="Elipse_4197" class="st0" cx="128.4" cy="164.6" r="4.8"/>
								<circle id="Elipse_4198" class="st0" cx="97.5" cy="164.6" r="4.8"/>
								<circle id="Elipse_4199" class="st0" cx="66.6" cy="164.6" r="4.8"/>
								<circle id="Elipse_4200" class="st0" cx="35.7" cy="164.6" r="4.8"/>
								<path id="Trazado_105956" class="st0" d="M0,164.6c0-2.7,2.2-4.8,4.8-4.8c2.7,0,4.8,2.2,4.8,4.8c0,2.7-2.2,4.8-4.8,4.8
									c0,0,0,0,0,0C2.2,169.5,0,167.3,0,164.6z"/>
								<circle id="Elipse_4201" class="st0" cx="128.4" cy="138" r="4.8"/>
								<circle id="Elipse_4202" class="st0" cx="97.5" cy="138" r="4.8"/>
								<circle id="Elipse_4203" class="st0" cx="66.6" cy="138" r="4.8"/>
								<circle id="Elipse_4204" class="st0" cx="35.7" cy="138" r="4.8"/>
								<path id="Trazado_105957" class="st0" d="M0,138c0-2.7,2.2-4.8,4.8-4.8c2.7,0,4.8,2.2,4.8,4.8c0,2.7-2.2,4.8-4.8,4.8
									c0,0,0,0,0,0C2.2,142.9,0,140.7,0,138z"/>
								<circle id="Elipse_4205" class="st0" cx="128.4" cy="111.4" r="4.8"/>
								<circle id="Elipse_4206" class="st0" cx="97.5" cy="111.4" r="4.8"/>
								<circle id="Elipse_4207" class="st0" cx="66.6" cy="111.4" r="4.8"/>
								<circle id="Elipse_4208" class="st0" cx="35.7" cy="111.4" r="4.8"/>
								<path id="Trazado_105958" class="st0" d="M0,111.4c0-2.7,2.2-4.8,4.9-4.8c2.7,0,4.8,2.2,4.8,4.9c0,2.7-2.2,4.8-4.8,4.8
									C2.2,116.2,0,114.1,0,111.4C0,111.4,0,111.4,0,111.4z"/>
								<circle id="Elipse_4209" class="st0" cx="128.4" cy="84.7" r="4.8"/>
								<circle id="Elipse_4210" class="st0" cx="97.5" cy="84.7" r="4.8"/>
								<circle id="Elipse_4211" class="st0" cx="66.6" cy="84.7" r="4.8"/>
								<circle id="Elipse_4212" class="st0" cx="35.7" cy="84.7" r="4.8"/>
								<path id="Trazado_105959" class="st0" d="M0,84.7c0-2.7,2.2-4.8,4.8-4.8c2.7,0,4.8,2.2,4.8,4.8c0,2.7-2.2,4.8-4.8,4.8
									c0,0,0,0,0,0C2.2,89.6,0,87.4,0,84.7z"/>
								<circle id="Elipse_4213" class="st0" cx="128.4" cy="58.1" r="4.8"/>
								<circle id="Elipse_4214" class="st0" cx="97.5" cy="58.1" r="4.8"/>
								<circle id="Elipse_4215" class="st0" cx="66.6" cy="58.1" r="4.8"/>
								<circle id="Elipse_4216" class="st0" cx="35.7" cy="58.1" r="4.8"/>
								<path id="Trazado_105960" class="st0" d="M0,58.1c0-2.7,2.2-4.8,4.8-4.8c2.7,0,4.8,2.2,4.8,4.8c0,2.7-2.2,4.8-4.8,4.8
									c0,0,0,0,0,0C2.2,63,0,60.8,0,58.1z"/>
								<circle id="Elipse_4217" class="st0" cx="128.4" cy="31.5" r="4.8"/>
								<circle id="Elipse_4218" class="st0" cx="97.5" cy="31.5" r="4.8"/>
								<circle id="Elipse_4219" class="st0" cx="66.6" cy="31.5" r="4.8"/>
								<circle id="Elipse_4220" class="st0" cx="35.7" cy="31.5" r="4.8"/>
								<path id="Trazado_105961" class="st0" d="M0,31.5c0-2.7,2.2-4.8,4.8-4.8c2.7,0,4.8,2.2,4.8,4.8c0,2.7-2.2,4.8-4.8,4.8
									c0,0,0,0,0,0C2.2,36.3,0,34.2,0,31.5z"/>
								<circle id="Elipse_4221" class="st0" cx="128.4" cy="4.8" r="4.8"/>
								<circle id="Elipse_4222" class="st0" cx="97.5" cy="4.8" r="4.8"/>
								<circle id="Elipse_4223" class="st0" cx="66.6" cy="4.8" r="4.8"/>
								<circle id="Elipse_4224" class="st0" cx="35.7" cy="4.8" r="4.8"/>
								<path id="Trazado_105962" class="st0" d="M0,4.8C0,2.2,2.2,0,4.8,0c2.7,0,4.8,2.2,4.8,4.8c0,2.7-2.2,4.8-4.8,4.8
									c0,0,0,0,0,0C2.2,9.7,0,7.5,0,4.8z"/>
							</g>
							<g id="Grupo_85428" transform="translate(1150.537)">
								<path id="Trazado_105963" class="st4" d="M5.2,132.7c2.9,0,5.2,2.3,5.2,5.2s-2.3,5.2-5.2,5.2S0,140.8,0,138l0,0
									C0,135.1,2.3,132.7,5.2,132.7z"/>
								<path id="Trazado_105964" class="st4" d="M5.2,99.6c2.9,0,5.2,2.3,5.2,5.2S8.1,110,5.2,110S0,107.6,0,104.8c0,0,0,0,0,0
									C0,101.9,2.3,99.6,5.2,99.6z"/>
								<path id="Trazado_105965" class="st4" d="M5.2,66.4c2.9,0,5.2,2.3,5.2,5.2c0,2.9-2.3,5.2-5.2,5.2c-2.9,0-5.2-2.3-5.2-5.2
									c0,0,0,0,0,0C0,68.7,2.3,66.4,5.2,66.4z"/>
								<path id="Trazado_105966" class="st4" d="M5.2,33.2c2.9,0,5.2,2.3,5.2,5.2c0,2.9-2.3,5.2-5.2,5.2c-2.9,0-5.2-2.3-5.2-5.2
									C0,35.5,2.3,33.2,5.2,33.2C5.2,33.2,5.2,33.2,5.2,33.2z"/>
								<path id="Trazado_105967" class="st4" d="M5.2,0c2.9,0,5.2,2.3,5.2,5.2c0,2.9-2.3,5.2-5.2,5.2C2.3,10.4,0,8.1,0,5.2
									S2.3,0,5.2,0z"/>
								<path id="Trazado_105968" class="st4" d="M33.8,132.7c2.9,0,5.2,2.3,5.2,5.2s-2.3,5.2-5.2,5.2s-5.2-2.3-5.2-5.2l0,0
									C28.6,135.1,31,132.7,33.8,132.7z"/>
								<path id="Trazado_105969" class="st4" d="M33.8,99.6c2.9,0,5.2,2.3,5.2,5.2s-2.3,5.2-5.2,5.2s-5.2-2.3-5.2-5.2c0,0,0,0,0,0
									C28.6,101.9,31,99.6,33.8,99.6z"/>
								<path id="Trazado_105970" class="st4" d="M33.8,66.4c2.9,0,5.2,2.3,5.2,5.2c0,2.9-2.3,5.2-5.2,5.2c0,0,0,0,0,0
									c-2.9,0-5.2-2.3-5.2-5.2C28.6,68.7,31,66.4,33.8,66.4z"/>
								<path id="Trazado_105971" class="st4" d="M33.8,33.2c2.9,0,5.2,2.3,5.2,5.2c0,2.9-2.3,5.2-5.2,5.2c-2.9,0-5.2-2.3-5.2-5.2
									C28.6,35.5,31,33.2,33.8,33.2z"/>
								<path id="Trazado_105972" class="st4" d="M33.8,0C36.7,0,39,2.3,39,5.2c0,2.9-2.3,5.2-5.2,5.2c-2.9,0-5.2-2.3-5.2-5.2
									C28.6,2.3,31,0,33.8,0z"/>
								<path id="Trazado_105973" class="st4" d="M62.5,132.7c2.9,0,5.2,2.3,5.2,5.2s-2.3,5.2-5.2,5.2s-5.2-2.3-5.2-5.2l0,0
									C57.2,135.1,59.6,132.7,62.5,132.7C62.5,132.7,62.5,132.7,62.5,132.7z"/>
								<path id="Trazado_105974" class="st4" d="M62.5,99.6c2.9,0,5.2,2.3,5.2,5.2s-2.3,5.2-5.2,5.2s-5.2-2.3-5.2-5.2c0,0,0,0,0,0
									C57.2,101.9,59.6,99.6,62.5,99.6z"/>
								<path id="Trazado_105975" class="st4" d="M62.5,66.4c2.9,0,5.2,2.3,5.2,5.2c0,2.9-2.3,5.2-5.2,5.2c0,0,0,0,0,0
									c-2.9,0-5.2-2.3-5.2-5.2C57.2,68.7,59.6,66.4,62.5,66.4z"/>
								<path id="Trazado_105976" class="st4" d="M62.5,33.2c2.9,0,5.2,2.3,5.2,5.2c0,0,0,0,0,0c0,2.9-2.3,5.2-5.2,5.2
									c-2.9,0-5.2-2.3-5.2-5.2C57.2,35.5,59.6,33.2,62.5,33.2z"/>
								<path id="Trazado_105977" class="st4" d="M62.5,0c2.9,0,5.2,2.3,5.2,5.2s-2.3,5.2-5.2,5.2c-2.9,0-5.2-2.3-5.2-5.2
									C57.2,2.3,59.6,0,62.5,0z"/>
								<path id="Trazado_105978" class="st4" d="M91.1,132.7c2.9,0,5.2,2.3,5.2,5.2s-2.3,5.2-5.2,5.2s-5.2-2.3-5.2-5.2l0,0
									C85.9,135.1,88.2,132.7,91.1,132.7z"/>
								<path id="Trazado_105979" class="st4" d="M91.1,99.6c2.9,0,5.2,2.3,5.2,5.2S94,110,91.1,110s-5.2-2.3-5.2-5.2c0,0,0,0,0,0
									C85.9,101.9,88.2,99.6,91.1,99.6z"/>
								<path id="Trazado_105980" class="st4" d="M91.1,66.4c2.9,0,5.2,2.3,5.2,5.2c0,2.9-2.3,5.2-5.2,5.2c-2.9,0-5.2-2.3-5.2-5.2
									c0,0,0,0,0,0C85.9,68.7,88.2,66.4,91.1,66.4z"/>
								<path id="Trazado_105981" class="st4" d="M91.1,33.2c2.9,0,5.2,2.3,5.2,5.2c0,2.9-2.3,5.2-5.2,5.2c-2.9,0-5.2-2.3-5.2-5.2
									C85.9,35.5,88.2,33.2,91.1,33.2C91.1,33.2,91.1,33.2,91.1,33.2z"/>
								<path id="Trazado_105982" class="st4" d="M91.1,0c2.9,0,5.2,2.3,5.2,5.2c0,2.9-2.3,5.2-5.2,5.2c-2.9,0-5.2-2.3-5.2-5.2
									S88.2,0,91.1,0z"/>
								<path id="Trazado_105983" class="st4" d="M119.7,132.7c2.9,0,5.2,2.3,5.2,5.2s-2.3,5.2-5.2,5.2s-5.2-2.3-5.2-5.2l0,0
									C114.5,135.1,116.8,132.7,119.7,132.7z"/>
								<path id="Trazado_105984" class="st4" d="M119.7,99.6c2.9,0,5.2,2.3,5.2,5.2s-2.3,5.2-5.2,5.2s-5.2-2.3-5.2-5.2c0,0,0,0,0,0
									C114.5,101.9,116.8,99.6,119.7,99.6z"/>
								<path id="Trazado_105985" class="st4" d="M119.7,66.4c2.9,0,5.2,2.3,5.2,5.2c0,0,0,0,0,0c0,2.9-2.3,5.2-5.2,5.2c0,0,0,0,0,0
									c-2.9,0-5.2-2.3-5.2-5.2C114.5,68.7,116.8,66.4,119.7,66.4z"/>
								<path id="Trazado_105986" class="st4" d="M119.7,33.2c2.9,0,5.2,2.3,5.2,5.2c0,2.9-2.3,5.2-5.2,5.2c-2.9,0-5.2-2.3-5.2-5.2
									C114.5,35.5,116.8,33.2,119.7,33.2z"/>
								<path id="Trazado_105987" class="st4" d="M119.7,0c2.9,0,5.2,2.3,5.2,5.2c0,2.9-2.3,5.2-5.2,5.2c-2.9,0-5.2-2.3-5.2-5.2
									C114.5,2.3,116.8,0,119.7,0z"/>
								<path id="Trazado_105988" class="st4" d="M148.3,132.7c2.9,0,5.2,2.3,5.2,5.2s-2.3,5.2-5.2,5.2s-5.2-2.3-5.2-5.2l0,0
									C143.1,135.1,145.4,132.7,148.3,132.7C148.3,132.7,148.3,132.7,148.3,132.7z"/>
								<path id="Trazado_105989" class="st4" d="M148.3,99.6c2.9,0,5.2,2.3,5.2,5.2s-2.3,5.2-5.2,5.2s-5.2-2.3-5.2-5.2c0,0,0,0,0,0
									C143.1,101.9,145.4,99.6,148.3,99.6z"/>
								<path id="Trazado_105990" class="st4" d="M148.3,66.4c2.9,0,5.2,2.3,5.2,5.2c0,2.9-2.3,5.2-5.2,5.2c0,0,0,0,0,0
									c-2.9,0-5.2-2.3-5.2-5.2C143.1,68.7,145.4,66.4,148.3,66.4z"/>
								<path id="Trazado_105991" class="st4" d="M148.3,33.2c2.9,0,5.2,2.3,5.2,5.2c0,0,0,0,0,0c0,2.9-2.3,5.2-5.2,5.2
									c-2.9,0-5.2-2.3-5.2-5.2C143.1,35.5,145.4,33.2,148.3,33.2z"/>
								<path id="Trazado_105992" class="st4" d="M148.3,0c2.9,0,5.2,2.3,5.2,5.2s-2.3,5.2-5.2,5.2c-2.9,0-5.2-2.3-5.2-5.2
									C143.1,2.3,145.4,0,148.3,0z"/>
								<path id="Trazado_105993" class="st4" d="M177,132.7c2.9,0,5.2,2.3,5.2,5.2s-2.3,5.2-5.2,5.2s-5.2-2.3-5.2-5.2l0,0
									C171.7,135.1,174.1,132.7,177,132.7C176.9,132.7,177,132.7,177,132.7z"/>
								<path id="Trazado_105994" class="st4" d="M177,99.6c2.9,0,5.2,2.3,5.2,5.2s-2.3,5.2-5.2,5.2s-5.2-2.3-5.2-5.2c0,0,0,0,0,0
									C171.7,101.9,174.1,99.6,177,99.6C177,99.6,177,99.6,177,99.6z"/>
								<path id="Trazado_105995" class="st4" d="M177,66.4c2.9,0,5.2,2.3,5.2,5.2c0,2.9-2.3,5.2-5.2,5.2c0,0,0,0,0,0
									c-2.9,0-5.2-2.3-5.2-5.2c0,0,0,0,0,0C171.7,68.7,174.1,66.4,177,66.4C176.9,66.4,177,66.4,177,66.4z"/>
								<path id="Trazado_105996" class="st4" d="M177,33.2c2.9,0,5.2,2.3,5.2,5.2c0,0,0,0,0,0c0,2.9-2.3,5.2-5.2,5.2
									c-2.9,0-5.2-2.3-5.2-5.2C171.7,35.5,174.1,33.2,177,33.2C177,33.2,177,33.2,177,33.2z"/>
								<path id="Trazado_105997" class="st4" d="M177,0c2.9,0,5.2,2.3,5.2,5.2c0,2.9-2.3,5.2-5.2,5.2c-2.9,0-5.2-2.3-5.2-5.2
									S174.1,0,177,0z"/>
								<path id="Trazado_105998" class="st4" d="M205.6,132.7c2.9,0,5.2,2.3,5.2,5.2s-2.3,5.2-5.2,5.2s-5.2-2.3-5.2-5.2l0,0
									C200.4,135.1,202.7,132.7,205.6,132.7z"/>
								<path id="Trazado_105999" class="st4" d="M205.6,99.6c2.9,0,5.2,2.3,5.2,5.2s-2.3,5.2-5.2,5.2s-5.2-2.3-5.2-5.2c0,0,0,0,0,0
									C200.4,101.9,202.7,99.6,205.6,99.6z"/>
								<path id="Trazado_106000" class="st4" d="M205.6,66.4c2.9,0,5.2,2.3,5.2,5.2c0,2.9-2.3,5.2-5.2,5.2c-2.9,0-5.2-2.3-5.2-5.2
									c0,0,0,0,0,0C200.4,68.7,202.7,66.4,205.6,66.4z"/>
								<path id="Trazado_106001" class="st4" d="M205.6,33.2c2.9,0,5.2,2.3,5.2,5.2c0,2.9-2.3,5.2-5.2,5.2c-2.9,0-5.2-2.3-5.2-5.2
									C200.4,35.5,202.7,33.2,205.6,33.2C205.6,33.2,205.6,33.2,205.6,33.2z"/>
								<path id="Trazado_106002" class="st4" d="M205.6,0c2.9,0,5.2,2.3,5.2,5.2c0,2.9-2.3,5.2-5.2,5.2c-2.9,0-5.2-2.3-5.2-5.2
									S202.7,0,205.6,0z"/>
							</g>
							<g id="Grupo_85429" transform="translate(80.363 309.059)">
								<circle id="Elipse_4225" class="st4" cx="116.7" cy="3.2" r="3"/>
								<path id="Trazado_106003" class="st4" d="M116.7,25c-1.6,0-3-1.3-3-3c0-1.6,1.3-3,3-3c1.6,0,3,1.3,3,3l0,0
									C119.7,23.6,118.4,25,116.7,25C116.7,25,116.7,25,116.7,25z"/>
								<path id="Trazado_106004" class="st4" d="M116.7,43.8c-1.6,0-3-1.3-3-3s1.3-3,3-3s3,1.3,3,3c0,0,0,0,0,0
									C119.7,42.5,118.4,43.8,116.7,43.8z"/>
								<circle id="Elipse_4226" class="st4" cx="116.7" cy="59.7" r="3"/>
								<circle id="Elipse_4227" class="st4" cx="116.7" cy="78.5" r="3"/>
								<circle id="Elipse_4228" class="st4" cx="100.5" cy="3.2" r="3"/>
								<path id="Trazado_106005" class="st4" d="M100.5,25c-1.6,0-3-1.3-3-3c0-1.6,1.3-3,3-3c1.6,0,3,1.3,3,3c0,0,0,0,0,0
									C103.5,23.6,102.1,25,100.5,25C100.5,25,100.5,25,100.5,25z"/>
								<path id="Trazado_106006" class="st4" d="M100.5,43.8c-1.6,0-3-1.3-3-3s1.3-3,3-3s3,1.3,3,3l0,0
									C103.5,42.5,102.1,43.8,100.5,43.8C100.5,43.8,100.5,43.8,100.5,43.8z"/>
								<circle id="Elipse_4229" class="st4" cx="100.5" cy="59.7" r="3"/>
								<circle id="Elipse_4230" class="st4" cx="100.5" cy="78.5" r="3"/>
								<circle id="Elipse_4231" class="st4" cx="84.2" cy="3.2" r="3"/>
								<path id="Trazado_106007" class="st4" d="M84.2,25c-1.6,0-3-1.3-3-3c0-1.6,1.3-3,3-3c1.6,0,3,1.3,3,3c0,0,0,0,0,0
									C87.2,23.6,85.9,25,84.2,25z"/>
								<path id="Trazado_106008" class="st4" d="M84.2,43.8c-1.6,0-3-1.3-3-3s1.3-3,3-3s3,1.3,3,3l0,0
									C87.2,42.5,85.9,43.8,84.2,43.8z"/>
								<circle id="Elipse_4232" class="st4" cx="84.2" cy="59.7" r="3"/>
								<circle id="Elipse_4233" class="st4" cx="84.2" cy="78.5" r="3"/>
								<circle id="Elipse_4234" class="st4" cx="68" cy="3.2" r="3"/>
								<path id="Trazado_106009" class="st4" d="M68,25c-1.6,0-3-1.3-3-3s1.3-3,3-3s3,1.3,3,3c0,0,0,0,0,0C70.9,23.6,69.6,25,68,25
									z"/>
								<path id="Trazado_106010" class="st4" d="M68,43.8c-1.6,0-3-1.3-3-3s1.3-3,3-3s3,1.3,3,3l0,0C70.9,42.5,69.6,43.8,68,43.8z"
									/>
								<circle id="Elipse_4235" class="st4" cx="68" cy="59.7" r="3"/>
								<circle id="Elipse_4236" class="st4" cx="68" cy="78.5" r="3"/>
								<circle id="Elipse_4237" class="st4" cx="51.7" cy="3.2" r="3"/>
								<path id="Trazado_106011" class="st4" d="M51.7,25c-1.6,0-3-1.3-3-3c0-1.6,1.3-3,3-3c1.6,0,3,1.3,3,3l0,0
									C54.7,23.6,53.4,25,51.7,25C51.7,25,51.7,25,51.7,25z"/>
								<path id="Trazado_106012" class="st4" d="M51.7,43.8c-1.6,0-3-1.3-3-3s1.3-3,3-3c1.6,0,3,1.3,3,3
									C54.7,42.5,53.4,43.8,51.7,43.8C51.7,43.8,51.7,43.8,51.7,43.8z"/>
								<circle id="Elipse_4238" class="st4" cx="51.7" cy="59.7" r="3"/>
								<circle id="Elipse_4239" class="st4" cx="51.7" cy="78.5" r="3"/>
								<circle id="Elipse_4240" class="st4" cx="35.5" cy="3.2" r="3"/>
								<path id="Trazado_106013" class="st4" d="M35.5,25c-1.6,0-3-1.3-3-3c0-1.6,1.3-3,3-3c1.6,0,3,1.3,3,3c0,0,0,0,0,0
									C38.4,23.6,37.1,25,35.5,25C35.5,25,35.5,25,35.5,25z"/>
								<path id="Trazado_106014" class="st4" d="M35.5,43.8c-1.6,0-3-1.3-3-3c0-1.6,1.3-3,3-3c1.6,0,3,1.3,3,3c0,0,0,0,0,0
									C38.4,42.5,37.1,43.8,35.5,43.8C35.5,43.8,35.5,43.8,35.5,43.8z"/>
								<circle id="Elipse_4241" class="st4" cx="35.5" cy="59.7" r="3"/>
								<circle id="Elipse_4242" class="st4" cx="35.5" cy="78.5" r="3"/>
								<circle id="Elipse_4243" class="st4" cx="19.2" cy="3.2" r="3"/>
								<path id="Trazado_106015" class="st4" d="M19.2,25c-1.6,0-3-1.3-3-3s1.3-3,3-3s3,1.3,3,3c0,0,0,0,0,0
									C22.2,23.6,20.9,25,19.2,25C19.2,25,19.2,25,19.2,25z"/>
								<path id="Trazado_106016" class="st4" d="M19.2,43.8c-1.6,0-3-1.3-3-3c0-1.6,1.3-3,3-3c1.6,0,3,1.3,3,3
									C22.2,42.5,20.9,43.8,19.2,43.8C19.2,43.8,19.2,43.8,19.2,43.8z"/>
								<circle id="Elipse_4244" class="st4" cx="19.2" cy="59.7" r="3"/>
								<circle id="Elipse_4245" class="st4" cx="19.2" cy="78.5" r="3"/>
								<path id="Trazado_106017" class="st4" d="M3,6.1c-1.6,0-3-1.3-3-3c0-1.6,1.3-3,3-3c1.6,0,3,1.3,3,3l0,0
									C5.9,4.8,4.6,6.1,3,6.1z"/>
								<path id="Trazado_106018" class="st4" d="M3,25c-1.6,0-3-1.3-3-3c0-1.6,1.3-3,3-3c1.6,0,3,1.3,3,3c0,0,0,0,0,0
									C5.9,23.6,4.6,25,3,25z"/>
								<path id="Trazado_106019" class="st4" d="M3,43.8c-1.6,0-3-1.3-3-3c0-1.6,1.3-3,3-3s3,1.3,3,3l0,0C5.9,42.5,4.6,43.8,3,43.8
									z"/>
								<path id="Trazado_106020" class="st4" d="M3,62.7c-1.6,0-3-1.3-3-3c0-1.6,1.3-3,3-3c1.6,0,3,1.3,3,3l0,0
									C5.9,61.3,4.6,62.7,3,62.7z"/>
								<path id="Trazado_106021" class="st4" d="M3,81.5c-1.6,0-3-1.3-3-3c0-1.6,1.3-3,3-3c1.6,0,3,1.3,3,3c0,0,0,0,0,0
									C5.9,80.2,4.6,81.5,3,81.5z"/>
							</g>
							<path id="Trazado_106055" class="st9" d="M11.4,339.6c31.5-41.6,85.3-65.1,137.2-60c33.7,3.3,66.1,17.7,99.9,17.1
								c33.9-0.6,71.9-25.5,68-59.1c-3-26.2-30.3-49.9-20.5-74.3c6-14.8,23-21.3,35.1-31.7c18.4-15.7,25.7-43.3,17.5-66
								s-31.4-39.3-55.6-39.7"/>
						</g>
					</g>
				</g>
			</g>
		</g>
	</g>
	<path id="Trazado_106337" class="st11" d="M277.7,26315.3h-5.8v-26.2h5.8V26315.3z M291.7,26315.3c-0.3-0.5-0.4-1.1-0.5-1.7
		c-1.1,1.3-2.7,2.1-4.4,2c-1.6,0-3.2-0.5-4.4-1.6c-1.2-1-1.9-2.4-1.8-4c-0.1-1.8,0.7-3.5,2.2-4.5c2-1.1,4.2-1.7,6.5-1.5h1.8v-1
		c0-1.7-0.7-2.5-2.2-2.5c-1-0.2-1.9,0.5-2.1,1.5c0,0.2,0,0.3,0,0.5h-5.8c0-1.7,0.8-3.4,2.3-4.4c1.7-1.2,3.7-1.8,5.8-1.7
		c2-0.1,4,0.5,5.6,1.7c1.4,1.2,2.2,2.9,2.1,4.7v8.2c-0.1,1.3,0.2,2.7,0.8,3.9v0.3H291.7z M288,26311.6c0.6,0,1.2-0.1,1.8-0.5
		c0.4-0.3,0.8-0.6,1-1v-3h-1.7c-2,0-3,0.9-3,2.7c0,0.5,0.2,0.9,0.5,1.3C287.1,26311.4,287.6,26311.6,288,26311.6L288,26311.6z
		 M309.5,26310.1c0-0.5-0.3-1-0.8-1.2c-0.9-0.4-1.9-0.7-2.9-0.9c-1.2-0.2-2.4-0.7-3.6-1.3c-0.9-0.4-1.6-1.1-2.1-1.9
		c-0.5-0.8-0.8-1.6-0.7-2.5c0-1.7,0.8-3.2,2.1-4.2c1.6-1.2,3.5-1.7,5.5-1.7c2.1-0.1,4.2,0.5,5.9,1.7c1.4,1,2.3,2.6,2.2,4.4h-5.8
		c0-1.5-0.8-2.2-2.3-2.2c-0.6,0-1.1,0.2-1.5,0.5c-0.4,0.3-0.6,0.8-0.6,1.3c0,0.5,0.3,1,0.8,1.2c0.7,0.4,1.6,0.7,2.4,0.8
		c1,0.2,2,0.4,2.9,0.7c2.8,1,4.2,2.7,4.2,5.1c0,1.7-0.8,3.2-2.3,4.1c-1.7,1.1-3.8,1.7-5.8,1.6c-1.5,0-2.9-0.3-4.2-0.9
		c-1.2-0.5-2.2-1.3-2.9-2.3c-0.7-0.9-1-2-1-3.1h5.4c0,0.7,0.3,1.4,0.9,1.9c0.6,0.4,1.4,0.6,2.1,0.6c0.6,0,1.3-0.1,1.8-0.5
		C309.3,26311.1,309.5,26310.6,309.5,26310.1z M334.3,26311.2c0.7,0,1.4-0.2,1.9-0.7c0.5-0.5,0.7-1.2,0.6-1.8h5.4
		c0.1,1.9-0.7,3.7-2.2,5c-1.6,1.3-3.6,2-5.6,1.9c-2.4,0.1-4.7-0.8-6.4-2.5c-1.6-2-2.5-4.5-2.3-7v-0.2c0-1.7,0.3-3.4,1-4.9
		c0.6-1.4,1.7-2.5,3-3.3c1.4-0.8,3-1.2,4.6-1.2c2.1-0.1,4.2,0.6,5.7,2c1.5,1.4,2.2,3.4,2.1,5.4h-5.4c0.1-0.8-0.2-1.6-0.7-2.2
		c-0.5-0.5-1.2-0.8-1.9-0.8c-1.5,0-2.4,1-2.6,2.9c-0.1,0.8-0.1,1.7-0.1,2.5c-0.1,1.3,0.1,2.7,0.7,3.9
		C332.6,26310.9,333.4,26311.3,334.3,26311.2z M355.7,26313.3c-1.2,1.5-3,2.4-4.9,2.3c-1.7,0.1-3.4-0.5-4.6-1.8
		c-1.1-1.4-1.7-3.3-1.6-5.1v-12h5.8v12c-0.2,1.1,0.6,2.2,1.7,2.4c0.2,0,0.4,0,0.6,0c1.1,0.1,2.2-0.5,2.8-1.4v-13h5.8v18.5h-5.4
		L355.7,26313.3z M374.8,26315.3c-0.3-0.5-0.4-1.1-0.5-1.7c-1.1,1.3-2.7,2.1-4.4,2c-1.6,0-3.2-0.5-4.4-1.6c-1.2-1-1.9-2.4-1.8-4
		c-0.1-1.8,0.7-3.5,2.2-4.5c2-1.1,4.2-1.7,6.5-1.5h1.8v-1c0-1.7-0.7-2.5-2.2-2.5c-1-0.2-1.9,0.5-2.1,1.5c0,0.2,0,0.3,0,0.5H364
		c0-1.7,0.8-3.4,2.3-4.4c1.7-1.2,3.7-1.8,5.8-1.7c2-0.1,4,0.5,5.6,1.7c1.4,1.2,2.2,2.9,2.1,4.7v8.2c-0.1,1.3,0.2,2.7,0.8,3.9v0.3
		H374.8z M371.2,26311.6c0.6,0,1.2-0.1,1.8-0.5c0.4-0.3,0.8-0.6,1-1v-3h-1.7c-2,0-3,0.9-3,2.7c0,0.5,0.2,0.9,0.5,1.3
		C370.2,26311.4,370.7,26311.6,371.2,26311.6z M389.7,26292.2v4.6h3v4h-3v8.5c-0.1,0.5,0.1,1,0.4,1.5c0.4,0.3,1,0.5,1.5,0.4
		c0.5,0,1,0,1.4-0.1v4.1c-1,0.3-2.1,0.5-3.2,0.5c-1.6,0.1-3.2-0.4-4.4-1.4c-1-1.2-1.5-2.7-1.4-4.3v-9.2h-2.4v-4h2.4v-4.6
		L389.7,26292.2z M406.2,26302.1l-1.9-0.1c-1.8,0-3,0.6-3.5,1.7v11.7H395v-18.5h5.4l0.2,2.4c0.7-1.6,2.3-2.7,4-2.7
		c0.5,0,1.1,0.1,1.6,0.2L406.2,26302.1z M406.9,26305.9c0-1.7,0.3-3.4,1.1-4.9c0.7-1.4,1.8-2.6,3.1-3.3c1.4-0.8,3.1-1.2,4.7-1.2
		c2.5-0.1,4.8,0.8,6.5,2.6c1.7,1.9,2.5,4.4,2.4,7v0.2c0.1,2.5-0.7,5-2.4,6.9c-1.7,1.7-4.1,2.7-6.5,2.5c-2.3,0.1-4.6-0.7-6.3-2.4
		c-1.7-1.7-2.6-4-2.6-6.4L406.9,26305.9z M412.6,26306.3c-0.1,1.3,0.2,2.6,0.8,3.8c0.5,0.8,1.4,1.2,2.4,1.2c2.1,0,3.1-1.6,3.1-4.7
		v-0.6c0-3.3-1.1-5-3.2-5c-1.9,0-3,1.4-3.1,4.3L412.6,26306.3z M453.1,26306.2c0.1,2.4-0.6,4.9-1.9,6.9c-1.2,1.7-3.2,2.6-5.2,2.6
		c-1.6,0-3.1-0.6-4.2-1.9v8.6H436v-25.6h5.4l0.2,1.7c1-1.3,2.7-2.1,4.4-2.1c2.1-0.1,4.1,0.8,5.3,2.5c1.4,2,2,4.5,1.9,6.9
		L453.1,26306.2z M447.4,26305.9c0-3.3-1-4.9-2.9-4.9c-1.1-0.1-2.2,0.5-2.7,1.5v7.3c0.5,1,1.6,1.6,2.8,1.5c1.8,0,2.8-1.6,2.8-4.8
		L447.4,26305.9z M466.9,26302.1l-1.9-0.1c-1.8,0-3,0.6-3.5,1.7v11.7h-5.8v-18.5h5.4l0.2,2.4c0.7-1.6,2.3-2.7,4-2.7
		c0.5,0,1.1,0.1,1.6,0.2L466.9,26302.1z M477.6,26315.7c-2.5,0.1-5-0.8-6.9-2.5c-1.8-1.7-2.7-4.1-2.6-6.6v-0.5c0-1.7,0.3-3.4,1.1-5
		c0.7-1.4,1.7-2.6,3.1-3.4c1.5-0.8,3.1-1.2,4.8-1.2c2.3-0.1,4.5,0.8,6.2,2.4c1.6,1.9,2.4,4.3,2.3,6.7v2.2h-11.5
		c0.2,0.9,0.6,1.8,1.4,2.4c0.8,0.6,1.7,0.9,2.7,0.9c1.6,0.1,3.2-0.6,4.3-1.9l2.6,3.1c-0.8,1-1.8,1.9-3.1,2.4
		C480.5,26315.4,479,26315.7,477.6,26315.7L477.6,26315.7z M476.9,26300.9c-1.7,0-2.7,1.1-3,3.4h5.8v-0.4c0.1-0.8-0.2-1.6-0.7-2.1
		C478.5,26301.2,477.7,26300.9,476.9,26300.9L476.9,26300.9z M487,26306c0-1.7,0.3-3.4,0.9-5c0.5-1.3,1.5-2.5,2.6-3.3
		c1.2-0.8,2.6-1.2,4-1.2c1.7-0.1,3.4,0.6,4.5,1.9l0.2-1.6h5.2v17.8c0,1.5-0.4,3-1.1,4.2c-0.8,1.2-1.9,2.2-3.3,2.8
		c-1.6,0.7-3.3,1-5,1c-1.4,0-2.7-0.3-3.9-0.8c-1.1-0.4-2.1-1.1-2.9-2l2.4-3.4c1,1.3,2.6,2,4.2,1.9c2.6,0,3.8-1.3,3.8-3.9v-0.6
		c-1.1,1.2-2.6,1.9-4.2,1.8c-2.1,0.1-4.2-0.9-5.5-2.6c-1.5-2-2.2-4.4-2.1-6.9L487,26306z M492.8,26306.3c-0.1,1.3,0.2,2.5,0.9,3.6
		c0.5,0.8,1.4,1.3,2.4,1.3c1.1,0.1,2.1-0.4,2.7-1.2v-7.8c-0.6-0.9-1.6-1.3-2.7-1.3c-1,0-1.9,0.5-2.4,1.4
		C493,26303.5,492.7,26304.9,492.8,26306.3L492.8,26306.3z M518.8,26313.3c-1.2,1.5-3,2.4-4.9,2.3c-1.7,0.1-3.4-0.5-4.6-1.8
		c-1.1-1.4-1.7-3.3-1.6-5.1v-12h5.8v12c-0.2,1.1,0.6,2.2,1.7,2.4c0.2,0,0.4,0,0.6,0c1.1,0.1,2.2-0.5,2.8-1.4v-13h5.8v18.5H519
		L518.8,26313.3z M532.8,26296.8l0.2,2.2c1.2-1.7,3.2-2.6,5.3-2.5c1.6-0.1,3.2,0.5,4.3,1.7c1.1,1.5,1.6,3.3,1.5,5.2v11.9h-5.8v-11.7
		c0.1-0.7-0.1-1.5-0.6-2.1c-0.6-0.5-1.3-0.7-2.1-0.7c-1-0.1-2,0.5-2.5,1.3v13.1h-5.8v-18.5L532.8,26296.8z M554,26292.2v4.6h3v4h-3
		v8.5c-0.1,0.5,0.1,1,0.4,1.5c0.4,0.3,1,0.5,1.5,0.4c0.5,0,1,0,1.4-0.1v4.1c-1,0.3-2.1,0.5-3.2,0.5c-1.6,0.1-3.2-0.4-4.4-1.4
		c-1-1.2-1.5-2.7-1.4-4.3v-9.2h-2.4v-4h2.4v-4.6L554,26292.2z M569.7,26315.3c-0.3-0.5-0.4-1.1-0.5-1.7c-1.1,1.3-2.7,2.1-4.4,2
		c-1.6,0-3.2-0.5-4.4-1.6c-1.2-1-1.9-2.4-1.8-4c-0.1-1.8,0.7-3.5,2.2-4.5c2-1.1,4.2-1.7,6.5-1.5h1.8v-1c0-1.7-0.7-2.5-2.2-2.5
		c-1-0.1-1.9,0.5-2,1.5c0,0.2,0,0.3,0,0.5h-5.8c0-1.7,0.8-3.4,2.3-4.4c1.7-1.2,3.7-1.8,5.8-1.7c2-0.1,4,0.5,5.6,1.7
		c1.4,1.2,2.2,2.9,2.1,4.7v8.2c-0.1,1.3,0.2,2.7,0.8,3.9v0.3H569.7z M566.1,26311.6c0.6,0,1.2-0.1,1.8-0.5c0.4-0.3,0.8-0.6,1-1v-3
		h-1.7c-2,0-3,0.9-3,2.7c0,0.5,0.2,0.9,0.5,1.3C565.1,26311.4,565.6,26311.6,566.1,26311.6z M587.6,26310.1c0-0.5-0.3-1-0.8-1.2
		c-0.9-0.4-1.9-0.7-2.9-0.9c-1.2-0.2-2.4-0.7-3.6-1.3c-0.9-0.4-1.6-1.1-2.1-1.9c-0.5-0.8-0.8-1.6-0.7-2.5c0-1.7,0.8-3.2,2.1-4.2
		c1.6-1.2,3.5-1.7,5.5-1.7c2.1-0.1,4.2,0.5,5.9,1.7c1.4,1,2.3,2.6,2.2,4.4h-5.8c0-1.5-0.8-2.2-2.3-2.2c-0.6,0-1.1,0.2-1.5,0.5
		c-0.4,0.3-0.6,0.8-0.6,1.3c0,0.5,0.3,1,0.8,1.2c0.7,0.4,1.6,0.7,2.4,0.8c1,0.2,2,0.4,2.9,0.7c2.8,1,4.2,2.7,4.2,5.1
		c0,1.7-0.8,3.2-2.2,4.1c-1.7,1.1-3.8,1.7-5.8,1.6c-1.5,0-2.9-0.3-4.2-0.9c-1.2-0.5-2.2-1.3-2.9-2.3c-0.7-0.9-1-2-1-3.1h5.4
		c0,0.7,0.3,1.4,0.9,1.9c0.6,0.4,1.4,0.6,2.1,0.6c0.6,0,1.3-0.1,1.8-0.5C587.4,26311.1,587.6,26310.6,587.6,26310.1z M603.8,26305.9
		c-0.1-2.4,0.5-4.9,1.9-6.9c1.2-1.7,3.2-2.6,5.3-2.5c1.8,0,3.5,0.8,4.5,2.3l0.4-2h5v25.6h-5.8v-8.6c-1,1.2-2.6,1.9-4.2,1.9
		c-2.1,0.1-4-0.9-5.2-2.5C604.4,26311.4,603.8,26309,603.8,26305.9z M609.6,26306.3c0,3.3,1,5,2.9,5c1.1,0.1,2.2-0.5,2.7-1.5v-7.3
		c-0.5-1-1.6-1.6-2.7-1.5c-1.8,0-2.8,1.4-2.9,4.3L609.6,26306.3z M635.2,26313.3c-1.2,1.5-3,2.4-4.9,2.3c-1.7,0.1-3.4-0.5-4.6-1.8
		c-1.1-1.4-1.7-3.3-1.6-5.1v-12h5.8v12c-0.2,1.1,0.6,2.2,1.7,2.4c0.2,0,0.4,0,0.6,0c1.1,0.1,2.2-0.5,2.8-1.4v-13h5.8v18.5h-5.4
		L635.2,26313.3z M652.9,26315.7c-2.5,0.1-5-0.8-6.9-2.5c-1.8-1.7-2.7-4.1-2.6-6.6v-0.5c0-1.7,0.3-3.4,1.1-5
		c0.7-1.4,1.7-2.6,3.1-3.4c1.5-0.8,3.1-1.2,4.8-1.2c2.3-0.1,4.5,0.8,6.2,2.4c1.6,1.9,2.4,4.3,2.3,6.7v2.2h-11.5
		c0.2,0.9,0.6,1.8,1.4,2.4c0.8,0.6,1.7,0.9,2.7,0.9c1.6,0.1,3.2-0.6,4.3-1.9l2.6,3.1c-0.8,1-1.8,1.9-3.1,2.4
		C655.8,26315.4,654.3,26315.7,652.9,26315.7L652.9,26315.7z M652.2,26300.9c-1.7,0-2.7,1.1-3,3.4h5.8v-0.4c0.1-0.8-0.2-1.6-0.7-2.1
		C653.8,26301.2,653,26300.9,652.2,26300.9L652.2,26300.9z M279.4,26346.2c0.7,0,1.4-0.2,1.9-0.7c0.5-0.5,0.7-1.2,0.6-1.8h5.4
		c0.1,1.9-0.7,3.7-2.2,5c-1.6,1.3-3.6,2-5.6,1.9c-2.4,0.1-4.7-0.8-6.4-2.5c-1.6-2-2.5-4.5-2.3-7v-0.2c0-1.7,0.3-3.4,1-4.9
		c0.6-1.4,1.7-2.5,3-3.3c1.4-0.8,3-1.2,4.6-1.2c2.1-0.1,4.2,0.6,5.7,2c1.4,1.4,2.2,3.4,2.1,5.4H282c0.1-0.8-0.2-1.6-0.7-2.2
		c-0.5-0.5-1.2-0.8-1.9-0.8c-1.5,0-2.4,1-2.6,2.9c-0.1,0.8-0.1,1.7-0.1,2.5c-0.1,1.3,0.1,2.7,0.7,3.9
		C277.8,26345.9,278.6,26346.3,279.4,26346.2z M289.1,26340.9c0-1.7,0.3-3.4,1.1-4.9c0.7-1.4,1.8-2.6,3.1-3.3
		c1.4-0.8,3.1-1.2,4.7-1.2c2.5-0.1,4.8,0.8,6.5,2.6c1.7,1.9,2.5,4.4,2.4,7v0.2c0.1,2.5-0.7,5-2.4,6.9c-1.7,1.7-4.1,2.7-6.5,2.5
		c-2.3,0.1-4.6-0.7-6.3-2.4c-1.7-1.7-2.6-4-2.6-6.4L289.1,26340.9z M294.8,26341.3c-0.1,1.3,0.2,2.6,0.8,3.8
		c0.5,0.8,1.4,1.2,2.4,1.2c2.1,0,3.1-1.6,3.1-4.7v-0.6c0-3.3-1.1-5-3.2-5c-1.9,0-3,1.4-3.1,4.3L294.8,26341.3z M314.7,26331.8
		l0.2,2.2c1.2-1.7,3.2-2.6,5.3-2.5c1.6-0.1,3.2,0.5,4.3,1.7c1.1,1.5,1.6,3.3,1.5,5.2v11.9h-5.8v-11.7c0.1-0.7-0.1-1.5-0.6-2.1
		c-0.6-0.5-1.3-0.7-2.1-0.7c-1-0.1-2,0.5-2.5,1.3v13.1h-5.8v-18.5H314.7z M328.5,26341c-0.1-2.5,0.5-4.9,1.9-6.9
		c1.2-1.7,3.2-2.6,5.3-2.5c1.6,0,3.1,0.7,4.2,1.9v-9.4h5.8v26.2h-5.2l-0.3-2c-1,1.5-2.7,2.3-4.5,2.3c-2.1,0.1-4-0.9-5.2-2.5
		C329.1,26346.5,328.5,26344.1,328.5,26341L328.5,26341z M334.2,26341.3c0,3.3,1,4.9,2.9,4.9c1.2,0.1,2.2-0.6,2.7-1.6v-7
		c-0.5-1.1-1.5-1.7-2.7-1.6c-1.8,0-2.7,1.4-2.9,4.3L334.2,26341.3z M359.9,26348.3c-1.2,1.5-3,2.4-4.9,2.3c-1.7,0.1-3.4-0.5-4.6-1.8
		c-1.1-1.4-1.7-3.3-1.6-5.1v-12h5.8v12c-0.2,1.1,0.6,2.2,1.7,2.4c0.2,0,0.4,0,0.6,0c1.1,0.1,2.2-0.5,2.8-1.4v-13h5.8v18.5h-5.4
		L359.9,26348.3z M376.4,26346.2c0.7,0,1.4-0.2,1.9-0.7c0.5-0.5,0.7-1.2,0.6-1.8h5.4c0.1,1.9-0.7,3.7-2.2,5c-1.6,1.3-3.6,2-5.6,1.9
		c-2.4,0.1-4.7-0.8-6.4-2.5c-1.6-2-2.5-4.5-2.3-7v-0.2c0-1.7,0.3-3.4,1-4.9c0.6-1.4,1.7-2.5,3-3.3c1.4-0.8,3-1.2,4.6-1.2
		c2.1-0.1,4.2,0.6,5.7,2c1.4,1.4,2.2,3.4,2.1,5.4H379c0.1-0.8-0.2-1.6-0.7-2.2c-0.5-0.5-1.2-0.8-1.9-0.8c-1.5,0-2.4,1-2.6,2.9
		c-0.1,0.8-0.1,1.7-0.1,2.5c-0.1,1.3,0.1,2.7,0.7,3.9C374.8,26345.9,375.6,26346.3,376.4,26346.2z M395.7,26350.7
		c-2.5,0.1-5-0.8-6.9-2.5c-1.8-1.7-2.7-4.1-2.6-6.6v-0.5c0-1.7,0.3-3.4,1.1-5c0.7-1.4,1.7-2.6,3.1-3.4c1.5-0.8,3.1-1.2,4.8-1.2
		c2.3-0.1,4.5,0.8,6.2,2.4c1.6,1.9,2.4,4.3,2.3,6.7v2.2h-11.5c0.2,0.9,0.6,1.8,1.4,2.4c0.8,0.6,1.7,0.9,2.7,0.9
		c1.6,0.1,3.2-0.6,4.3-1.9l2.6,3.1c-0.8,1-1.8,1.9-3.1,2.4C398.7,26350.4,397.2,26350.7,395.7,26350.7L395.7,26350.7z
		 M395.1,26335.9c-1.7,0-2.7,1.1-3,3.4h5.8v-0.4c0.1-0.8-0.2-1.6-0.7-2.1C396.6,26336.2,395.9,26335.9,395.1,26335.9z
		 M411.1,26331.8l0.2,2.2c1.2-1.7,3.2-2.6,5.3-2.5c1.6-0.1,3.2,0.5,4.3,1.7c1.1,1.5,1.6,3.3,1.5,5.2v11.9h-5.8v-11.7
		c0.1-0.7-0.1-1.5-0.6-2.1c-0.6-0.5-1.3-0.7-2.1-0.7c-1-0.1-2,0.5-2.5,1.3v13.1h-5.8v-18.5H411.1z M444.7,26350.3
		c-0.3-0.5-0.4-1.1-0.5-1.7c-1.1,1.3-2.7,2.1-4.4,2c-1.6,0-3.2-0.5-4.4-1.6c-1.2-1-1.9-2.4-1.8-4c-0.1-1.8,0.7-3.5,2.2-4.5
		c2-1.1,4.2-1.7,6.5-1.5h1.8v-1c0-1.7-0.7-2.5-2.2-2.5c-1-0.1-1.9,0.5-2,1.5c0,0.2,0,0.3,0,0.5h-5.8c0-1.7,0.8-3.4,2.3-4.4
		c1.7-1.2,3.7-1.8,5.8-1.7c2-0.1,4,0.5,5.6,1.7c1.4,1.2,2.2,2.9,2.1,4.7v8.2c-0.1,1.3,0.2,2.7,0.8,3.9v0.3H444.7z M441.1,26346.6
		c0.6,0,1.2-0.1,1.8-0.5c0.4-0.3,0.8-0.6,1-1v-3h-1.7c-2,0-3,0.9-3,2.7c0,0.5,0.2,0.9,0.5,1.3
		C440.1,26346.4,440.6,26346.6,441.1,26346.6z M459,26350.3h-5.8v-26.2h5.8V26350.3z M480.2,26350.7c-2.5,0.1-5-0.8-6.9-2.5
		c-1.8-1.7-2.7-4.1-2.6-6.6v-0.5c0-1.7,0.3-3.4,1.1-5c0.7-1.4,1.7-2.6,3.1-3.4c1.5-0.8,3.1-1.2,4.8-1.2c2.3-0.1,4.5,0.8,6.2,2.4
		c1.6,1.9,2.4,4.3,2.3,6.7v2.2h-11.5c0.2,0.9,0.6,1.8,1.4,2.4c0.8,0.6,1.7,0.9,2.7,0.9c1.6,0.1,3.2-0.6,4.3-1.9l2.6,3.1
		c-0.8,1-1.8,1.9-3.1,2.4C483.1,26350.4,481.6,26350.7,480.2,26350.7L480.2,26350.7z M479.5,26335.9c-1.7,0-2.7,1.1-3,3.3h5.8v-0.4
		c0.1-0.8-0.2-1.6-0.7-2.1C481.1,26336.2,480.3,26335.9,479.5,26335.9L479.5,26335.9z M479.5,26324.1h6.1l-4.8,5.4h-4.7
		L479.5,26324.1z M497.8,26336.9l2.7-5.1h6l-4.9,9l5.1,9.5h-6l-2.9-5.5l-2.9,5.5h-6l5.1-9.5l-4.9-9h6.1L497.8,26336.9z
		 M514.4,26350.3h-5.8v-18.5h5.8V26350.3z M508.2,26327.1c0-0.8,0.3-1.5,0.9-2c1.4-1,3.3-1,4.6,0c1.1,1,1.2,2.7,0.2,3.9
		c-0.1,0.1-0.1,0.1-0.2,0.2c-1.4,1-3.3,1-4.6,0C508.6,26328.6,508.2,26327.8,508.2,26327.1z M524.6,26327.2v4.6h3v4h-3v8.5
		c-0.1,0.5,0.1,1,0.4,1.4c0.4,0.3,1,0.5,1.5,0.4c0.5,0,1,0,1.4-0.1v4.1c-1,0.3-2.1,0.5-3.2,0.5c-1.6,0.1-3.2-0.4-4.4-1.4
		c-1-1.2-1.5-2.7-1.4-4.3v-9.2h-2.4v-4h2.4v-4.6L524.6,26327.2z M528.7,26340.9c0-1.7,0.3-3.4,1.1-4.9c0.7-1.4,1.8-2.6,3.1-3.3
		c1.4-0.8,3.1-1.2,4.7-1.2c2.5-0.1,4.8,0.8,6.5,2.6c1.7,1.9,2.5,4.4,2.4,7v0.2c0.1,2.5-0.7,5-2.4,6.9c-1.7,1.7-4.1,2.7-6.5,2.5
		c-2.3,0.1-4.6-0.7-6.3-2.4c-1.7-1.7-2.6-4-2.6-6.4L528.7,26340.9z M534.4,26341.3c-0.1,1.3,0.2,2.6,0.8,3.8
		c0.5,0.8,1.4,1.2,2.4,1.2c2.1,0,3.1-1.6,3.1-4.7v-0.6c0-3.3-1.1-5-3.2-5c-1.9,0-3,1.4-3.1,4.3L534.4,26341.3z M566.7,26350.7
		c-2.5,0.1-5-0.8-6.9-2.5c-1.8-1.7-2.7-4.1-2.6-6.6v-0.5c0-1.7,0.3-3.4,1.1-5c0.7-1.4,1.7-2.6,3.1-3.4c1.5-0.8,3.1-1.2,4.8-1.2
		c2.3-0.1,4.5,0.8,6.2,2.4c1.6,1.9,2.4,4.3,2.3,6.7v2.2h-11.5c0.2,0.9,0.6,1.8,1.3,2.4c0.8,0.6,1.7,0.9,2.7,0.9
		c1.6,0.1,3.2-0.6,4.3-1.9l2.6,3.1c-0.8,1-1.8,1.9-3.1,2.4C569.6,26350.4,568.2,26350.7,566.7,26350.7L566.7,26350.7z
		 M566.1,26335.9c-1.7,0-2.7,1.1-3,3.4h5.8v-0.4c0.1-0.8-0.2-1.6-0.7-2.1C567.6,26336.2,566.9,26335.9,566.1,26335.9L566.1,26335.9z
		 M582.1,26331.8l0.2,2.2c1.2-1.7,3.2-2.6,5.3-2.5c1.6-0.1,3.2,0.5,4.3,1.7c1.1,1.5,1.6,3.3,1.5,5.2v11.9h-5.8v-11.7
		c0.1-0.7-0.1-1.5-0.6-2.1c-0.6-0.5-1.3-0.7-2.1-0.7c-1-0.1-2,0.5-2.5,1.3v13.1h-5.8v-18.5L582.1,26331.8z M611.4,26350.3h-5.8
		v-26.2h5.8V26350.3z M625.3,26350.3c-0.3-0.5-0.4-1.1-0.5-1.7c-1.1,1.3-2.7,2.1-4.4,2c-1.6,0-3.2-0.5-4.4-1.6c-1.2-1-1.9-2.4-1.8-4
		c-0.1-1.8,0.7-3.5,2.2-4.5c2-1.1,4.2-1.7,6.5-1.5h1.8v-1c0-1.7-0.7-2.5-2.2-2.5c-1-0.1-1.9,0.5-2,1.5c0,0.2,0,0.3,0,0.5h-5.8
		c0-1.7,0.8-3.4,2.3-4.4c1.7-1.2,3.7-1.8,5.8-1.7c2-0.1,4,0.5,5.6,1.7c1.4,1.2,2.2,2.9,2.1,4.7v8.2c-0.1,1.3,0.2,2.7,0.8,3.9v0.3
		H625.3z M621.7,26346.6c0.6,0,1.2-0.1,1.8-0.5c0.4-0.3,0.8-0.6,1-1v-3h-1.7c-2,0-3,0.9-3,2.7c0,0.5,0.2,0.9,0.5,1.3
		C620.7,26346.4,621.2,26346.6,621.7,26346.6z M649.6,26343.5l2.9-11.6h6.1l-6,18.5h-5.9l-6-18.5h6.1L649.6,26343.5z M669,26350.7
		c-2.5,0.1-5-0.8-6.9-2.5c-1.8-1.7-2.7-4.1-2.6-6.6v-0.5c0-1.7,0.3-3.4,1.1-5c0.7-1.4,1.7-2.6,3.1-3.4c1.5-0.8,3.1-1.2,4.8-1.2
		c2.3-0.1,4.5,0.8,6.2,2.4c1.6,1.9,2.4,4.3,2.3,6.7v2.2h-11.5c0.2,0.9,0.6,1.8,1.4,2.4c0.8,0.6,1.7,0.9,2.7,0.9
		c1.6,0.1,3.2-0.6,4.3-1.9l2.6,3.1c-0.8,1-1.8,1.9-3.1,2.4C671.9,26350.4,670.5,26350.7,669,26350.7L669,26350.7z M668.4,26335.9
		c-1.7,0-2.7,1.1-3,3.3h5.8v-0.4c0.1-0.8-0.2-1.6-0.7-2.1C669.9,26336.2,669.1,26335.9,668.4,26335.9L668.4,26335.9z M684.4,26331.8
		l0.2,2.2c1.2-1.7,3.2-2.6,5.3-2.5c1.6-0.1,3.2,0.5,4.3,1.7c1.1,1.5,1.6,3.3,1.5,5.2v11.9h-5.8v-11.7c0.1-0.7-0.1-1.5-0.6-2.1
		c-0.6-0.5-1.3-0.7-2.1-0.7c-1-0.1-2,0.5-2.5,1.3v13.1H679v-18.5L684.4,26331.8z M705.6,26327.2v4.6h3v4h-3v8.5
		c-0.1,0.5,0.1,1,0.4,1.5c0.4,0.3,1,0.5,1.5,0.4c0.5,0,1,0,1.4-0.1v4.1c-1,0.3-2.1,0.5-3.2,0.5c-1.6,0.1-3.2-0.4-4.4-1.4
		c-1-1.2-1.5-2.7-1.4-4.3v-9.2h-2.4v-4h2.4v-4.6L705.6,26327.2z M721.3,26350.3c-0.3-0.5-0.4-1.1-0.5-1.7c-1.1,1.3-2.7,2.1-4.4,2
		c-1.6,0-3.2-0.5-4.4-1.6c-1.2-1-1.9-2.4-1.8-4c-0.1-1.8,0.7-3.5,2.2-4.5c2-1.1,4.2-1.7,6.5-1.5h1.8v-1c0-1.7-0.7-2.5-2.2-2.5
		c-1-0.1-1.9,0.5-2,1.5c0,0.2,0,0.3,0,0.5h-5.8c0-1.7,0.8-3.4,2.3-4.4c1.7-1.2,3.7-1.8,5.8-1.7c2-0.1,4,0.5,5.6,1.7
		c1.4,1.2,2.2,2.9,2.1,4.7v8.2c-0.1,1.3,0.2,2.7,0.8,3.9v0.3H721.3z M717.7,26346.6c0.6,0,1.2-0.1,1.8-0.5c0.4-0.3,0.8-0.6,1-1v-3
		h-1.7c-2,0-3,0.9-3,2.7c0,0.5,0.2,0.9,0.5,1.3C716.7,26346.4,717.2,26346.6,717.7,26346.6z M284.7,26378.7c0-0.8-0.3-1.6-0.9-2.1
		c-1-0.7-2.1-1.2-3.3-1.5c-1.3-0.4-2.6-0.9-3.8-1.5c-3.2-1.6-4.8-3.8-4.8-6.5c0-1.3,0.4-2.6,1.2-3.7c0.9-1.1,2.1-2,3.4-2.5
		c1.6-0.6,3.3-0.9,5-0.9c1.7,0,3.3,0.3,4.8,1c1.3,0.6,2.5,1.5,3.3,2.7c0.8,1.2,1.2,2.6,1.2,4h-6c0.1-0.9-0.3-1.7-0.9-2.4
		c-0.7-0.6-1.6-0.9-2.5-0.8c-0.9,0-1.8,0.2-2.5,0.7c-1,0.6-1.2,1.9-0.6,2.9c0.2,0.3,0.4,0.5,0.7,0.6c1.1,0.7,2.3,1.3,3.6,1.6
		c1.5,0.4,2.9,1,4.2,1.8c2.7,1.6,4,3.7,4,6.4c0.1,2-0.8,3.9-2.5,5.1c-2,1.3-4.4,2-6.8,1.9c-1.9,0-3.7-0.3-5.5-1.1
		c-1.5-0.6-2.8-1.6-3.7-3c-0.8-1.3-1.3-2.8-1.2-4.3h6c-0.1,1.1,0.3,2.2,1,2.9c1,0.7,2.2,1.1,3.4,0.9c0.8,0,1.7-0.2,2.4-0.6
		C284.4,26380.1,284.7,26379.4,284.7,26378.7z M299.8,26376.9v8.4h-6v-24.9h9.9c1.7,0,3.5,0.3,5,1.1c1.4,0.6,2.6,1.7,3.4,3
		c0.8,1.3,1.2,2.8,1.2,4.4c0.1,2.2-0.9,4.4-2.6,5.8c-2,1.6-4.6,2.3-7.2,2.2H299.8z M299.8,26372.3h3.9c1,0.1,1.9-0.2,2.7-0.9
		c0.6-0.7,1-1.5,0.9-2.5c0.1-1-0.3-2-0.9-2.8c-0.7-0.7-1.6-1.1-2.6-1.1h-4L299.8,26372.3z M323,26385.3h-6v-24.9h6V26385.3z
		 M347.9,26385.3h-6l-8.8-15.5v15.5h-6v-24.9h6l8.8,15.5v-15.5h6L347.9,26385.3z M369.8,26380.1c0-0.5-0.3-1-0.8-1.2
		c-0.9-0.4-1.9-0.7-2.9-0.9c-1.2-0.2-2.4-0.7-3.6-1.3c-0.9-0.4-1.6-1.1-2.1-1.9c-0.5-0.8-0.8-1.6-0.7-2.5c0-1.7,0.8-3.2,2.1-4.2
		c1.6-1.2,3.5-1.7,5.5-1.7c2.1-0.1,4.2,0.5,5.9,1.7c1.4,1,2.3,2.6,2.2,4.4h-5.8c0-1.5-0.8-2.2-2.3-2.2c-0.6,0-1.1,0.2-1.5,0.5
		c-0.4,0.3-0.6,0.8-0.6,1.3c0,0.5,0.3,1,0.8,1.2c0.7,0.4,1.6,0.7,2.4,0.8c1,0.2,2,0.4,2.9,0.7c2.8,1,4.2,2.7,4.2,5.1
		c0,1.7-0.8,3.2-2.2,4.1c-1.7,1.1-3.8,1.7-5.8,1.6c-1.5,0-2.9-0.3-4.2-0.9c-1.2-0.5-2.2-1.3-2.9-2.3c-0.7-0.9-1-2-1-3.1h5.4
		c0,0.7,0.3,1.4,0.9,1.9c0.6,0.4,1.4,0.6,2.1,0.6c0.6,0,1.3-0.1,1.8-0.5C369.6,26381.1,369.8,26380.6,369.8,26380.1L369.8,26380.1z
		 M377.4,26375.9c0-1.7,0.3-3.4,1.1-4.9c0.7-1.4,1.8-2.6,3.1-3.3c1.4-0.8,3.1-1.2,4.7-1.2c2.5-0.1,4.8,0.8,6.5,2.6
		c1.7,1.9,2.5,4.4,2.4,7v0.2c0.1,2.5-0.7,5-2.4,6.9c-1.7,1.7-4.1,2.7-6.5,2.5c-2.3,0.1-4.6-0.7-6.3-2.4c-1.7-1.7-2.6-4-2.6-6.4
		L377.4,26375.9z M383.1,26376.3c-0.1,1.3,0.2,2.6,0.8,3.8c0.5,0.8,1.4,1.2,2.4,1.2c2.1,0,3.1-1.6,3.1-4.7v-0.6c0-3.3-1.1-5-3.2-5
		c-1.9,0-3,1.4-3.1,4.3L383.1,26376.3z M403,26366.8l0.2,2.2c1.2-1.7,3.2-2.6,5.3-2.5c1.6-0.1,3.2,0.5,4.3,1.7
		c1.1,1.5,1.6,3.3,1.5,5.2v11.9h-5.8v-11.7c0.1-0.7-0.1-1.5-0.6-2.1c-0.6-0.5-1.3-0.7-2.1-0.7c-1-0.1-2,0.5-2.5,1.3v13.1h-5.8v-18.5
		L403,26366.8z M421.1,26379.7c0.8,0,1.6,0.3,2.3,0.8c1.1,1.1,1.2,2.9,0.1,4c0,0.1-0.1,0.1-0.1,0.2c-1.3,1.1-3.2,1.1-4.6,0
		c-1.1-1.1-1.2-2.9-0.1-4c0,0,0.1-0.1,0.1-0.1C419.4,26380,420.2,26379.7,421.1,26379.7L421.1,26379.7z M421.1,26366.1
		c0.8,0,1.6,0.3,2.3,0.8c1.1,1.1,1.2,2.9,0.1,4c0,0.1-0.1,0.1-0.1,0.1c-1.3,1.1-3.2,1.1-4.6,0c-1.1-1.1-1.2-2.9-0.1-4
		c0,0,0.1-0.1,0.1-0.1C419.4,26366.4,420.2,26366.1,421.1,26366.1L421.1,26366.1z"/>
	<g id="Grupo_85504" transform="translate(1038.088 26495.084)">
		<g id="Grupo_85503" transform="translate(98.69 74.754)">
			<g id="Grupo_85500" transform="translate(0 139.505)">
				<g id="Grupo_85495" transform="translate(16.408 169.411)">
					<g id="Grupo_85490" transform="translate(174.017 32.621)">
						<g id="Grupo_85487" transform="translate(37.752 22.294)">
							<path id="Trazado_106166" class="st12" d="M39.9,11.4c0,0-9.9,19.4-25.8,14.8C18.2,10.1,39.9,11.4,39.9,11.4z"/>
							<path id="Trazado_106167" class="st13" d="M0.1,0c0,0-1.9,21.7,14.1,26.2C19.2,10.4,0.1,0,0.1,0z"/>
						</g>
						<g id="Grupo_85488" transform="translate(31.465 44.489)">
							<path id="Trazado_106168" class="st12" d="M38.2,18.6c0,0-13.3,17.2-28.1,9.8C17.1,13.3,38.2,18.6,38.2,18.6z"/>
							<path id="Trazado_106169" class="st13" d="M1.1,0c0,0-5.9,21,9,28.3C18,13.8,1.1,0,1.1,0z"/>
						</g>
						<g id="Grupo_85489" transform="translate(20.704 64.804)">
							<path id="Trazado_106170" class="st12" d="M36.5,24.5c0,0-16,14.8-29.3,4.9C16.6,15.8,36.5,24.5,36.5,24.5z"/>
							<path id="Trazado_106171" class="st13" d="M3.1,0c0,0-9.3,19.7,4.1,29.5C17.4,16.4,3.1,0,3.1,0z"/>
						</g>
						<path id="Trazado_106172" class="st14" d="M0,122.5c0,0,48.5-36.2,57.3-97.5"/>
						<path id="Trazado_106173" class="st12" d="M60.7,0c0,0,9,19.8-4.5,29.4C46.1,16.2,60.7,0,60.7,0z"/>
					</g>
					<path id="Trazado_106174" class="st12" d="M129.9,176.2c0,0,12-108.7,59.4-118.6s5.6,63.8-7.5,86.2s12.6,4.1,28.1-7.8
						C222.2,126.5,226.2,181.8,129.9,176.2z"/>
					<path id="Trazado_106175" class="st13" d="M164.6,97c4.2-20.1,38.6-39.4,38.6-39.4c-3.4-1.1-7.9-1.2-13.9,0
						c-47.4,9.8-59.4,118.6-59.4,118.6c1.8,0.1,3.6,0.2,5.4,0.2c0.3,0,0.5-0.1,0.8-0.1C185.9,168.7,163.3,111.6,164.6,97z"/>
					<path id="Trazado_106176" class="st15" d="M206.2,59.1c0,0-33.7,23.7-50.9,93.7"/>
					<path id="Trazado_106177" class="st13" d="M209.9,136c-10.4,8-25.4,18.8-30.2,18.3c5.8,9.7,28.6-9.3,36.2-16.1
						C215.1,135,212.7,133.8,209.9,136z"/>
					<path id="Trazado_106178" class="st15" d="M204.6,98.9c-10.7-0.9-21.4,0.6-31.5,4.3"/>
					<g id="Grupo_85494">
						<g id="Grupo_85491" transform="translate(0 29.874)">
							<path id="Trazado_106179" class="st12" d="M0,6.5c0,0,8.2,24.3,27.5,21.6C25.6,8.7,0,6.5,0,6.5z"/>
							<path id="Trazado_106180" class="st13" d="M48.4,0c0,0-1.5,25.6-20.9,28.1C24.3,8.9,48.4,0,48.4,0z"/>
						</g>
						<g id="Grupo_85492" transform="translate(4.339 56.633)">
							<path id="Trazado_106181" class="st12" d="M0,15.3c0,0,12.6,22.4,31.1,16.2C25.5,12.8,0,15.3,0,15.3z"/>
							<path id="Trazado_106182" class="st13" d="M46.4,0c0,0,3.3,25.4-15.3,31.5C24.4,13.2,46.4,0,46.4,0z"/>
						</g>
						<g id="Grupo_85493" transform="translate(14.328 81.802)">
							<path id="Trazado_106183" class="st12" d="M0,22.9c0,0,16.1,19.9,33.3,10.7C24.7,16.1,0,22.9,0,22.9z"/>
							<path id="Trazado_106184" class="st13" d="M43.1,0c0,0,7.5,24.5-9.8,33.6C23.7,16.7,43.1,0,43.1,0z"/>
						</g>
						<path id="Trazado_106185" class="st16" d="M75.4,153.1c0,0-50.4-50.4-50.2-123.4"/>
						<path id="Trazado_106186" class="st12" d="M25.6,0c0,0-13.8,21.6,0.3,35C39.8,21.4,25.6,0,25.6,0z"/>
					</g>
				</g>
				<ellipse id="Elipse_4246" class="st17" cx="129" cy="346.4" rx="84" ry="4.7"/>
				<g id="Grupo_85499">
					<g id="Grupo_85498">
						<g id="Grupo_85496">
							<path id="Trazado_106187" class="st18" d="M0,62C33.6,23.1,76.9,0,124.9,0c63.9,0,114.4,33.6,114.4,98.5
								c0,62.5-76.4,77.8-76.4,106.7v26.4H74l-0.5-38.4c0-44.2,76.4-69.2,76.4-95.6c0-18.3-18.7-22.6-35.6-22.6
								c-20.7,0-46.1,20.2-62.5,39.4L0,62z M115.8,243.6c34.1,0,57.2,23.5,57.2,50.9c0,26.9-22.1,49.5-57.2,49.5
								C84.6,344,61,319.5,61,294.5C61,270.5,81.2,243.6,115.8,243.6L115.8,243.6z"/>
						</g>
						<g id="Grupo_85497" transform="translate(11.09)">
							<path id="Trazado_106188" class="st19" d="M0,62C33.6,23.1,76.9,0,124.9,0c63.9,0,114.4,33.6,114.4,98.5
								c0,62.5-76.4,77.8-76.4,106.7v26.4H74l-0.5-38.4c0-44.2,76.4-69.2,76.4-95.6c0-18.3-18.7-22.6-35.6-22.6
								c-20.7,0-46.1,20.2-62.5,39.4L0,62z M115.8,243.6c34.1,0,57.2,23.5,57.2,50.9c0,26.9-22.1,49.5-57.2,49.5
								C84.6,344,61,319.5,61,294.5C61,270.5,81.2,243.6,115.8,243.6L115.8,243.6z"/>
						</g>
						<path id="Trazado_106189" class="st18" d="M51.9,114.4H63L51.7,103L51.9,114.4z"/>
					</g>
					<path id="Trazado_106190" class="st20" d="M96.4,85l-7.7-59.1l14.2-24.3c-11.8,1.8-23.4,5-34.4,9.6c-6.4,11.1-14.2,28-11,39.4
						C62.4,68.9,78,94.7,78,94.7L96.4,85z"/>
					<path id="Trazado_106191" class="st20" d="M184.1,103c0,0-3.9,14.2-12.6,8.3s-22.2-19-22.2-19l14.4-53.8L125.2,15l7.6-15
						l58.6,35L184.1,103z"/>
				</g>
			</g>
			<g id="Grupo_85502" transform="translate(70.344)">
				<g id="Grupo_85501">
					<path id="Trazado_106192" class="st21" d="M63.3,132.5v22l14.9,2.5l28.1,15.6l-21.5,56l28.5,17.6c2.4,1.5,5.5,0.7,6.9-1.6
						c0.5-0.8,0.8-1.8,0.7-2.8c-0.1-4.2-0.8-8.4-2-12.5l19.2-49.5c4.4-11.4-0.5-24.2-11.3-29.9L89,130.4L63.3,132.5z"/>
					<path id="Trazado_106193" class="st13" d="M84.8,228.7l28.5,17.6c2.4,1.5,5.5,0.7,6.9-1.6c0.5-0.8,0.8-1.8,0.7-2.8
						c-0.1-4.2-0.8-8.4-2-12.5c-10.7-2.7-20.4-8.2-28.3-15.9L84.8,228.7z"/>
					<path id="Trazado_106194" class="st21" d="M63.3,154.5h-8.5l-23,27.4l8.2,55.3l-29.3,13.2c-2.2,1-4.8,0-5.8-2.2
						c-0.2-0.5-0.4-1-0.4-1.6c-0.2-4.2,0.1-9.8,2.6-14.7l-6.8-52.2c-0.9-6.6,1.4-13.3,6.1-18l31.2-31.2l25.7,2.1V154.5z"/>
					<path id="Trazado_106195" class="st13" d="M39.9,237.2l-2.9-19.5l0,0C22.1,234,7,231.9,7,231.9c-2.4,4.9-2.8,10.5-2.6,14.7
						c0.1,2.4,2.2,4.3,4.6,4.2c0.6,0,1.1-0.2,1.6-0.4L39.9,237.2z"/>
					<path id="Trazado_106196" class="st22" d="M129.4,151.6c-6.6,7-6.3,18,0.7,24.6c2.2,2.1,4.9,3.5,7.8,4.3l0.2-0.6
						C142.1,169.6,138.5,157.9,129.4,151.6z"/>
					<path id="Trazado_106197" class="st22" d="M15.3,171.3c0-4.9-2.4-9.5-6.4-12.2l-2.6,2.6c-4.7,4.7-7,11.4-6.1,18l0.8,6.5
						C9,185.8,15.3,179.3,15.3,171.3z"/>
					<path id="Trazado_106198" class="st23" d="M89,130.4l-22.9,1.9c-2,7.5-2.6,17.2-2.8,22.3l14.9,2.5l17.5,9.7
						c2.8-9.4,7.3-18.2,13.2-26.1L89,130.4z"/>
					<path id="Trazado_106199" class="st23" d="M120.1,233.6c-0.3-1.4-0.7-2.9-1.1-4.3c-5.6-1.4-11.1-3.6-16.1-6.6
						C104.1,226.3,108.1,231.6,120.1,233.6z"/>
					<path id="Trazado_106200" class="st23" d="M22.8,228.5c-9,4.3-15.9,3.4-15.9,3.4c-0.8,1.7-1.5,3.5-1.9,5.3
						C10.5,236.8,18.7,235.2,22.8,228.5z"/>
					<path id="Trazado_106201" class="st22" d="M37.5,130.4L6.3,161.6c-4.7,4.7-7,11.4-6.1,18l0.1,0.9c25.4-3.9,46.1-35.6,53.7-48.8
						L37.5,130.4z"/>
					<path id="Trazado_106202" class="st24" d="M37.5,49.6c0,0-8.9,3.7-13.6,14.9S11.8,99.3,11.8,99.3l25.8-9.9V49.6z"/>
					<path id="Trazado_106203" class="st25" d="M63.3,39.5L37.5,49.6v80.8c0,0,9,2.1,25.7,2.1s25.7-2.1,25.7-2.1V49.6L63.3,39.5z"/>
					<path id="Trazado_106204" class="st25" d="M37.5,49.6c0,0-8.9,3.7-13.6,14.9c-1.4,3.4-3.1,7.9-4.8,12.6
						c4.9,1.1,12.6,3.4,18.4,7.8L37.5,49.6z"/>
					<path id="Trazado_106205" class="st13" d="M65.5,55.5l-28,57.4V89.3L65.5,55.5z"/>
					<path id="Trazado_106206" class="st13" d="M80.5,71.7c0,0,1.6,35.1,0,43.1s-6.3,18.3-6.3,28.9S89,122.4,89,122.4v-32L80.5,71.7
						z"/>
					<path id="Trazado_106207" class="st26" d="M89,49.6l0.1,0.1c8,3.6,13.7,11.1,14.9,19.8l5.9,42.1c0.7,5.3-0.6,10.7-3.7,15.1
						l-14,19.3v18.6c0,2-1.6,3.7-3.7,3.7c-0.3,0-0.6,0-0.9-0.1c-5.3-1.4-13.4-4.3-13.4-9.1v-15.2c0-4.1,1.1-8.2,3.3-11.7L89,112.8
						l-8.2-38.3C80.8,74.6,77.6,53.3,89,49.6z"/>
					<path id="Trazado_106208" class="st25" d="M106.3,85.7l-2.3-16.3c-1.2-8.7-6.9-16.2-14.9-19.8L89,49.6c-11.4,3.7-8.2,25-8.2,25
						l2.9,13.6C90.9,85.5,98.7,84.7,106.3,85.7z"/>
					<path id="Trazado_106209" class="st27" d="M102.3,117.6c0,3.3,1.6,6.4,4.2,8.3c2.9-4.2,4.1-9.4,3.4-14.5l-0.5-3.7
						C105.2,109.2,102.3,113.2,102.3,117.6z"/>
					<line id="Línea_276" class="st28" x1="89" y1="112.8" x2="93.3" y2="106.1"/>
					<path id="Trazado_106210" class="st26" d="M63.3,47.8h-0.1c-3.4,0-6.1-2.7-6.1-6.1V31.6h12.3v10.1
						C69.4,45.1,66.7,47.8,63.3,47.8z"/>
					<path id="Trazado_106211" class="st29" d="M72.1,23.1c1.1-1.5,1.6-3.3,1.6-5.1c0-3.3,0.7-10.2-4.2-13S54.7-2.2,56.3,1.4
						s0.4,3.1-2.9,3s-2.7,11.4,0,15.9S72.1,23.1,72.1,23.1z"/>
					<path id="Trazado_106212" class="st26" d="M57.1,23.5c-0.2,1.6-1.6,2.8-3.3,2.6s-2.8-1.6-2.6-3.3c0.2-1.5,1.4-2.6,2.9-2.6
						C55.9,20.4,57.2,21.8,57.1,23.5z"/>
					<path id="Trazado_106213" class="st26" d="M69.4,23.5c0.2,1.6,1.6,2.8,3.3,2.6c1.6-0.2,2.8-1.6,2.6-3.3
						c-0.2-1.5-1.4-2.6-2.9-2.6C70.7,20.4,69.3,21.8,69.4,23.5z"/>
					<path id="Trazado_106214" class="st26" d="M63.4,36.8h-0.2c-4.8,0-8.7-3.9-8.7-8.7V15.7c0-3.5,2.8-6.3,6.3-6.3h4.9
						c3.5,0,6.3,2.8,6.3,6.3v12.4C72.1,32.9,68.2,36.8,63.4,36.8z"/>
					<path id="Trazado_106215" class="st30" d="M57.1,31.6v10.1c0,0.2,0,0.3,0,0.5c8,0,12.3-7.8,12.3-7.8l-6.8-2.8L57.1,31.6z"/>
					<path id="Trazado_106216" class="st29" d="M60,19.8c0,0.7-0.3,1.2-0.7,1.2s-0.7-0.6-0.7-1.2s0.3-1.2,0.7-1.2S60,19.1,60,19.8z"
						/>
					<path id="Trazado_106217" class="st31" d="M61,15.7c0,0-2.2-1-3.9,0"/>
					<ellipse id="Elipse_4247" class="st29" cx="67.2" cy="19.8" rx="0.7" ry="1.2"/>
					<path id="Trazado_106218" class="st31" d="M65.5,15.7c0,0,2.2-1,3.9,0"/>
					<path id="Trazado_106219" class="st29" d="M67.2,26.5c-4-0.6-2.4-0.6-4-0.6s0,0-4,0.6s-4.8-6.3-4.8-6.3v7.8
						c0,4.8,3.9,8.7,8.7,8.7h0.2c4.8,0,8.7-3.9,8.7-8.7v0v-7.8C72.1,20.3,71.2,27.1,67.2,26.5z"/>
					<path id="Trazado_106220" class="st26" d="M12.5,98.1l47.3-65.6c0.6-0.8,1.6-0.9,2.4-0.4c0,0,0.1,0.1,0.1,0.1l0,0
						c0.6,0.5,0.7,1.3,0.4,2l-3,6.6l2.7,2.4c4.1,3.6,4.9,9.7,1.9,14.3L29.8,110c-3.2,4.8-9.6,6.1-14.4,2.9c-0.3-0.2-0.6-0.5-0.9-0.7
						l-0.2-0.1C10.1,108.6,9.3,102.5,12.5,98.1z"/>
					<path id="Trazado_106221" class="st27" d="M13.9,100.6c-1,0-1.9,0.1-2.8,0.4c-1.3,4,0,8.4,3.2,11.2l0.2,0.1
						c3.2,2.7,7.8,3.2,11.5,1.2c0-0.3,0-0.5,0-0.8C26,106,20.6,100.6,13.9,100.6z"/>
					<line id="Línea_277" class="st28" x1="80.4" y1="165.4" x2="80.4" y2="151.6"/>
					<path id="Trazado_106222" class="st32" d="M106.2,126.5c3.1-4.3,4.5-9.7,3.7-15.1l-5.9-42.1c-0.9-6.2-4-11.8-8.7-15.8
						c-1.2,5.1-3,18.4,0.7,40.9c4.9,30-3.8,51.3-3.8,51.3L106.2,126.5z"/>
					<path id="Trazado_106223" class="st32" d="M75.3,23.5c0-1.3-0.8-2.6-2-3.1c0.2-0.8,0.3-1.6,0.3-2.5c0-3.3,0.7-10.2-4.2-13
						c-0.1,0-0.1-0.1-0.2-0.1c-0.1,1.7-0.5,3.4-1.3,4.9c-1,2.7-4.6,20.2,0,25.8c2.6-1.6,4.2-4.4,4.2-7.5v-1.3c0.1,0,0.2,0,0.3,0
						C74.1,26.7,75.4,25.3,75.3,23.5z"/>
					<path id="Trazado_106224" class="st32" d="M62.6,43.3c0,0-31.7,40.6-30.2,62.9l0,0l32.1-48.6C67.5,53,66.7,46.9,62.6,43.3z"/>
					<path id="Trazado_106225" class="st12" d="M66.8,86c-3.9,8.5-20.7,24.1-29.3,31.8v12.6C66.7,122.2,72.2,74.4,66.8,86z"/>
				</g>
				<path id="Trazado_106226" class="st33" d="M28.3,225.3l-5.5-44.9l32-34.7h11.8"/>
				<path id="Trazado_106227" class="st33" d="M95.2,155.5l20.3,12.6L97,218.9"/>
			</g>
		</g>
	</g>
</g>
</svg>
