<?xml version="1.0" encoding="utf-8"?>
<!-- Generator: Adobe Illustrator 26.0.1, SVG Export Plug-In . SVG Version: 6.00 Build 0)  -->
<svg version="1.1" id="Capa_1" xmlns="http://www.w3.org/2000/svg" xmlns:xlink="http://www.w3.org/1999/xlink" x="0px" y="0px"
	 viewBox="0 0 1328 885.3" style="enable-background:new 0 0 1328 885.3;" xml:space="preserve">
<style type="text/css">
	.st0{fill:#F0FCFF;}
	.st1{fill:#CCFAFF;}
	.st2{clip-path:url(#SVGID_00000035499503806813940680000002828269212188059019_);}
	.st3{fill:#447AF2;}
	.st4{fill:#312782;}
	.st5{fill:#53BCED;}
	.st6{fill:none;stroke:#FFFFFF;stroke-width:1.166;stroke-miterlimit:10;}
	.st7{fill:none;stroke:#FFFFFF;stroke-width:1.1662;stroke-miterlimit:10.0009;}
	.st8{fill:#F2DF85;stroke:#447AF2;stroke-width:0.389;stroke-miterlimit:10;}
	.st9{fill:none;stroke:#312782;stroke-width:0.194;stroke-miterlimit:10;}
	.st10{fill:#DB6E5F;}
	.st11{fill:#0D66BF;}
	.st12{fill:#49BD97;}
	.st13{fill:#1F9874;}
	.st14{fill:none;stroke:#49BD97;stroke-width:2.03;stroke-linecap:round;stroke-miterlimit:10;}
	.st15{fill:none;stroke:#1F9874;stroke-width:1.073;stroke-miterlimit:10;}
	.st16{fill:none;stroke:#49BD97;stroke-width:2.392;stroke-linecap:round;stroke-miterlimit:10;}
	.st17{fill:#C69A42;}
	.st18{fill:#AD843B;}
	.st19{fill:#F2DF85;}
	.st20{opacity:0.66;fill:#C69A42;enable-background:new    ;}
	.st21{fill:#C73C27;}
	.st22{opacity:0.22;fill:#ECEDEE;enable-background:new    ;}
	.st23{fill:#34251E;}
	.st24{fill:#D18E86;}
	.st25{fill:#91DCFF;}
	.st26{fill:#F7A89C;}
	.st27{fill:#EF7D6E;}
	.st28{fill:none;stroke:#983533;stroke-width:0.909;stroke-miterlimit:10;}
	.st29{fill:#4D3529;}
	.st30{fill:#983533;}
	.st31{fill:none;stroke:#4D3529;stroke-width:0.909;stroke-linecap:round;stroke-miterlimit:10;}
	.st32{opacity:0.41;fill:#FFFFFF;enable-background:new    ;}
	.st33{opacity:0.41;fill:none;stroke:#34251E;stroke-miterlimit:10;enable-background:new    ;}
</style>
<g id="Grupo_85486" transform="translate(136 26209)">
	<g id="BACKGROUND">
		<g id="Grupo_85229">
			<path id="Trazado_105792" class="st0" d="M1192-26209v394.2c-27.6-3.3-55-2-80.3,9c-25.8,11.2-46.8,31.3-72.1,43.4
				c-48.3,23-106.1,13.8-155.6-6.3c-49.5-20.1-94.4-50.5-143.9-70.7c-49.5-20.2-107.2-29.7-155.6-7c-47.5,22.1-80.5,72.4-131.7,83
				c-87.1,18-155-87-243.7-93.4c-58.4-4.2-109.9,34.9-155.6,71.6c-45.7,36.7-98.4,74.8-156.5,68c-11.3-1.3-22.4-4.3-33-8.7v-483.1
				H1192z"/>
			<path id="Trazado_105793" class="st1" d="M1192-25814.8v491.1H-136v-402.1c10.5,4.4,21.6,7.3,33,8.7
				c58.1,6.7,110.9-31.5,156.6-68.1c45.7-36.6,97.2-75.8,155.6-71.6c88.7,6.4,156.6,111.4,243.7,93.4
				c51.1-10.6,84.1-60.9,131.5-83.1c48.4-22.7,106.2-13.2,155.6,7s94.4,50.6,143.9,70.7c49.5,20.1,107.4,29.4,155.6,6.3
				c25.4-12.1,46.3-32.3,72.1-43.4C1137-25816.8,1164.4-25818.1,1192-25814.8z"/>
		</g>
	</g>
	<g id="OBJECTS">
		<g id="Grupo_85479">
			<g>
				<g>
					<defs>
						<rect id="SVGID_1_" x="-136" y="-26209" width="1328" height="885.3"/>
					</defs>
					<clipPath id="SVGID_00000172400321103092176720000008625193842388439697_">
						<use xlink:href="#SVGID_1_"  style="overflow:visible;"/>
					</clipPath>
					<g id="Grupo_85478" style="clip-path:url(#SVGID_00000172400321103092176720000008625193842388439697_);">
						<g id="Grupo_85477" transform="translate(-47.921 -86.772)">
							<g id="Grupo_85232" transform="translate(684.801 922.55)">
								<path id="Trazado_105797" class="st3" d="M-126.7-26208.6c3.8-1,7.8-0.1,10.8,2.4c2.2,1.7,3.7,4.1,4.3,6.8
									c1.3,5.5-1.4,11.3-6.5,13.8c-6.1,3-13.6,0.5-16.6-5.6l0,0c-1.8-3.6-1.7-7.9,0.3-11.4c1.2-2.1,3-3.9,5.2-5
									C-128.4-26208-127.6-26208.4-126.7-26208.6z"/>
								<g id="Grupo_85231" transform="translate(2.957 4.346)">
									<path id="Trazado_105798" class="st1" d="M-131.7-26208.9c0.5-0.2,1-0.2,1.5,0c0.9,0.3,1.4,1.2,1.2,2.1
										c-0.1,0.5-0.3,0.9-0.6,1.3c-0.3,0.2-0.5,0.4-0.8,0.6c-0.8,0.5-1.6,1.3-2.2,2.1c-0.2,0.3-0.4,0.6-0.7,0.9
										c-0.1,0.2-0.3,0.4-0.5,0.6c-0.5,0.4-1.3,0.3-1.7-0.2l0,0c-0.2-0.3-0.4-0.6-0.5-1c0-0.6,0-1.2,0.2-1.8
										c0.2-0.6,0.4-1.1,0.7-1.6c0.6-0.9,1.4-1.8,2.3-2.4C-132.5-26208.6-132.1-26208.8-131.7-26208.9z"/>
								</g>
							</g>
							<g id="Grupo_85248" transform="translate(686.061 44.546)">
								<path id="Trazado_105859" class="st4" d="M-24.5-25232.6h-2.8v-172.3c0-31.3,25.4-56.6,56.7-56.7h86.8
									c28.3,0.1,51.3-22.7,51.4-51c0.1-28.3-22.7-51.3-51-51.4c-0.1,0-0.3,0-0.4,0H-25.9v-2.8h142.1c29.8,0,53.9,24.1,54,53.9
									c0,29.8-24.1,53.9-53.9,54l0,0H29.5c-29.8,0-53.9,24.2-53.9,53.9v172.4H-24.5z"/>
								<path id="Trazado_105860" class="st4" d="M95.2-25563.9H-46.9c-29.8,0-53.9-24.2-53.9-54c0-29.8,24.1-53.9,53.9-53.9H95.2
									v2.8H-46.9c-28.3,0-51.2,22.9-51.2,51.2c0,28.3,22.9,51.2,51.2,51.2c0,0,0,0,0.1,0H95.3v2.7H95.2z"/>
								<path id="Trazado_105861" class="st4" d="M167.9-25669H25.7v-2.8h142.1c28.3-0.1,51.1-23.1,51-51.4
									c-0.1-28.1-22.9-50.8-51-51H25.7v-2.8h142.1c29.8,0,53.9,24.1,53.9,53.9C221.8-25693.2,197.7-25669,167.9-25669z"/>
								<path id="Trazado_105862" class="st4" d="M60.1-25774.1H-82.1c-29.8,0-53.9-24.1-54-53.9c0-29.8,24.1-53.9,53.9-54l0,0H59.9
									v2.8h-142c-28.3,0-51.2,22.9-51.2,51.2s22.9,51.2,51.2,51.2l0,0H60v2.7H60.1z"/>
								<path id="Trazado_105863" class="st4" d="M111.9-25879.3H-30.3v-2.7h142.1c28.3-0.1,51.1-23.1,51-51.4
									c-0.1-28.1-22.9-50.8-51-51H25.3c-31.5,0-57-25.5-57-57v-167.6h2.8v167.6c0,30,24.3,54.2,54.3,54.3h86.5
									c29.8,0,53.9,24.1,54,53.9C165.8-25903.4,141.7-25879.3,111.9-25879.3L111.9-25879.3L111.9-25879.3z"/>
							</g>
							<g id="Elipse_4185" transform="translate(879.164 353.16) rotate(-76.571)">
								<circle class="st5" cx="25505.1" cy="-6174.8" r="44.3"/>
								<circle class="st6" cx="25505.1" cy="-6174.8" r="43.7"/>
							</g>
							<g id="Elipse_4186" transform="matrix(0.987, -0.161, 0.161, 0.987, 690.083, 388.892)">
								<circle class="st5" cx="4129.3" cy="-25843.5" r="44.3"/>
								<circle class="st7" cx="4129.3" cy="-25843.5" r="43.7"/>
							</g>
							<g id="Elipse_4187" transform="translate(930.511 553.865) rotate(-67.133)">
								<circle class="st5" cx="24140.7" cy="-10265.7" r="44.3"/>
								<circle class="st6" cx="24140.7" cy="-10265.7" r="43.7"/>
							</g>
							<g id="Elipse_4188" transform="translate(732.208 591.401)">
								<circle class="st5" cx="-91.7" cy="-26164.7" r="44.3"/>
								<circle class="st6" cx="-91.7" cy="-26164.7" r="43.7"/>
							</g>
							<path id="Trazado_105940" class="st8" d="M475-25271.9c-3.8,13.5-8.8,26.7-14.9,39.3H-88.1v-466.8
								c12.9-3.5,26.4-3.6,39.3-0.5c31.7,8,56.7,32.9,73.6,60.8c17,27.9,27.3,59.2,40.3,89.2s29.6,59.6,55.5,79.4
								c47.5,36.4,113.4,31.9,173.2,29.6c59.8-2.3,128.5,3.6,164.7,51.3C483.4-25357,485.9-25311.5,475-25271.9z"/>
							<path id="Trazado_105941" class="st9" d="M-136-25695.8c39.8-33.3,103.5-33.2,143.2,0.1c58.2,48.8,54.7,143.4,107.4,198.1
								c36,37.3,91.4,48.6,143.2,48.9c51.8,0.3,103.8-8.2,155.3-2.2c25.7,3,52.5,10.4,70.2,29.2c31.5,33.4,23,86.6,11.4,131
								c-11.6,44.4-22.9,96.2,5.3,132.4"/>
							<path id="Trazado_105953" class="st10" d="M1239.9-26122.2v171.6c-17.8,6.9-37.9,7-54.5-2.2c-38.3-21.4-45.5-80.3-86.3-96.6
								c-26.6-10.6-56.1,1.6-83.1,11.1c-27,9.6-60.5,15.2-81.2-4.5c-13.3-12.7-17-32.4-18.1-50.8c-0.6-9.5-0.8-19.2-1.8-28.6H1239.9
								z"/>
							<path id="Trazado_105954" class="st9" d="M877.7-26178.2c42.3,37,3,122.5,48.7,155.2c24.9,17.8,59.4,7.1,87.8-4.3
								c28.5-11.4,62.7-22.4,87.9-4.9c25.6,17.9,26.9,55,43.1,81.7c17.1,28.3,53.4,43.5,85.6,35.8c32.2-7.6,57.8-37.5,60.4-70.5"/>
							<g id="Grupo_85427" transform="translate(70.423 685.772)">
								<circle id="Elipse_4193" class="st0" cx="-7.6" cy="-26017.7" r="4.8"/>
								<circle id="Elipse_4194" class="st0" cx="-38.5" cy="-26017.7" r="4.8"/>
								<circle id="Elipse_4195" class="st0" cx="-69.4" cy="-26017.7" r="4.8"/>
								<circle id="Elipse_4196" class="st0" cx="-100.3" cy="-26017.7" r="4.8"/>
								<path id="Trazado_105955" class="st0" d="M-136-26017.7c0-2.7,2.2-4.8,4.8-4.8c2.7,0,4.8,2.2,4.8,4.8c0,2.7-2.2,4.8-4.8,4.8
									l0,0C-133.8-26012.9-136-26015-136-26017.7z"/>
								<circle id="Elipse_4197" class="st0" cx="-7.6" cy="-26044.4" r="4.8"/>
								<circle id="Elipse_4198" class="st0" cx="-38.5" cy="-26044.4" r="4.8"/>
								<circle id="Elipse_4199" class="st0" cx="-69.4" cy="-26044.4" r="4.8"/>
								<circle id="Elipse_4200" class="st0" cx="-100.3" cy="-26044.4" r="4.8"/>
								<path id="Trazado_105956" class="st0" d="M-136-26044.4c0-2.7,2.2-4.8,4.8-4.8c2.7,0,4.8,2.2,4.8,4.8c0,2.7-2.2,4.8-4.8,4.8
									l0,0C-133.8-26039.5-136-26041.7-136-26044.4z"/>
								<circle id="Elipse_4201" class="st0" cx="-7.6" cy="-26071" r="4.8"/>
								<circle id="Elipse_4202" class="st0" cx="-38.5" cy="-26071" r="4.8"/>
								<circle id="Elipse_4203" class="st0" cx="-69.4" cy="-26071" r="4.8"/>
								<circle id="Elipse_4204" class="st0" cx="-100.3" cy="-26071" r="4.8"/>
								<path id="Trazado_105957" class="st0" d="M-136-26071c0-2.7,2.2-4.8,4.8-4.8c2.7,0,4.8,2.2,4.8,4.8c0,2.7-2.2,4.8-4.8,4.8
									l0,0C-133.8-26066.1-136-26068.3-136-26071z"/>
								<circle id="Elipse_4205" class="st0" cx="-7.6" cy="-26097.6" r="4.8"/>
								<circle id="Elipse_4206" class="st0" cx="-38.5" cy="-26097.6" r="4.8"/>
								<circle id="Elipse_4207" class="st0" cx="-69.4" cy="-26097.6" r="4.8"/>
								<circle id="Elipse_4208" class="st0" cx="-100.3" cy="-26097.6" r="4.8"/>
								<path id="Trazado_105958" class="st0" d="M-136-26097.6c0-2.7,2.2-4.8,4.9-4.8c2.7,0,4.8,2.2,4.8,4.9s-2.2,4.8-4.8,4.8
									C-133.8-26092.8-136-26094.9-136-26097.6L-136-26097.6z"/>
								<circle id="Elipse_4209" class="st0" cx="-7.6" cy="-26124.3" r="4.8"/>
								<circle id="Elipse_4210" class="st0" cx="-38.5" cy="-26124.3" r="4.8"/>
								<circle id="Elipse_4211" class="st0" cx="-69.4" cy="-26124.3" r="4.8"/>
								<circle id="Elipse_4212" class="st0" cx="-100.3" cy="-26124.3" r="4.8"/>
								<path id="Trazado_105959" class="st0" d="M-136-26124.3c0-2.7,2.2-4.8,4.8-4.8c2.7,0,4.8,2.2,4.8,4.8c0,2.7-2.2,4.8-4.8,4.8
									l0,0C-133.8-26119.4-136-26121.6-136-26124.3z"/>
								<circle id="Elipse_4213" class="st0" cx="-7.6" cy="-26150.9" r="4.8"/>
								<circle id="Elipse_4214" class="st0" cx="-38.5" cy="-26150.9" r="4.8"/>
								<circle id="Elipse_4215" class="st0" cx="-69.4" cy="-26150.9" r="4.8"/>
								<circle id="Elipse_4216" class="st0" cx="-100.3" cy="-26150.9" r="4.8"/>
								<path id="Trazado_105960" class="st0" d="M-136-26150.9c0-2.7,2.2-4.8,4.8-4.8c2.7,0,4.8,2.2,4.8,4.8c0,2.7-2.2,4.8-4.8,4.8
									l0,0C-133.8-26146-136-26148.2-136-26150.9z"/>
								<circle id="Elipse_4217" class="st0" cx="-7.6" cy="-26177.5" r="4.8"/>
								<circle id="Elipse_4218" class="st0" cx="-38.5" cy="-26177.5" r="4.8"/>
								<circle id="Elipse_4219" class="st0" cx="-69.4" cy="-26177.5" r="4.8"/>
								<circle id="Elipse_4220" class="st0" cx="-100.3" cy="-26177.5" r="4.8"/>
								<path id="Trazado_105961" class="st0" d="M-136-26177.5c0-2.7,2.2-4.8,4.8-4.8c2.7,0,4.8,2.2,4.8,4.8c0,2.7-2.2,4.8-4.8,4.8
									l0,0C-133.8-26172.7-136-26174.8-136-26177.5z"/>
								<circle id="Elipse_4221" class="st0" cx="-7.6" cy="-26204.2" r="4.8"/>
								<circle id="Elipse_4222" class="st0" cx="-38.5" cy="-26204.2" r="4.8"/>
								<circle id="Elipse_4223" class="st0" cx="-69.4" cy="-26204.2" r="4.8"/>
								<circle id="Elipse_4224" class="st0" cx="-100.3" cy="-26204.2" r="4.8"/>
								<path id="Trazado_105962" class="st0" d="M-136-26204.2c0-2.6,2.2-4.8,4.8-4.8c2.7,0,4.8,2.2,4.8,4.8c0,2.7-2.2,4.8-4.8,4.8
									l0,0C-133.8-26199.3-136-26201.5-136-26204.2z"/>
							</g>
							<g id="Grupo_85428" transform="translate(1150.537)">
								<path id="Trazado_105963" class="st4" d="M-130.8-26076.3c2.9,0,5.2,2.3,5.2,5.2s-2.3,5.2-5.2,5.2c-2.9,0-5.2-2.3-5.2-5.1
									l0,0C-136-26073.9-133.7-26076.3-130.8-26076.3z"/>
								<path id="Trazado_105964" class="st4" d="M-130.8-26109.4c2.9,0,5.2,2.3,5.2,5.2c0,2.9-2.3,5.2-5.2,5.2
									c-2.9,0-5.2-2.4-5.2-5.2l0,0C-136-26107.1-133.7-26109.4-130.8-26109.4z"/>
								<path id="Trazado_105965" class="st4" d="M-130.8-26142.6c2.9,0,5.2,2.3,5.2,5.2s-2.3,5.2-5.2,5.2c-2.9,0-5.2-2.3-5.2-5.2
									l0,0C-136-26140.3-133.7-26142.6-130.8-26142.6z"/>
								<path id="Trazado_105966" class="st4" d="M-130.8-26175.8c2.9,0,5.2,2.3,5.2,5.2s-2.3,5.2-5.2,5.2c-2.9,0-5.2-2.3-5.2-5.2
									S-133.7-26175.8-130.8-26175.8L-130.8-26175.8z"/>
								<path id="Trazado_105967" class="st4" d="M-130.8-26209c2.9,0,5.2,2.3,5.2,5.2c0,2.9-2.3,5.2-5.2,5.2
									c-2.9,0-5.2-2.3-5.2-5.2C-136-26206.7-133.7-26209-130.8-26209z"/>
								<path id="Trazado_105968" class="st4" d="M-102.2-26076.3c2.9,0,5.2,2.3,5.2,5.2s-2.3,5.2-5.2,5.2s-5.2-2.3-5.2-5.2l0,0
									C-107.4-26073.9-105-26076.3-102.2-26076.3z"/>
								<path id="Trazado_105969" class="st4" d="M-102.2-26109.4c2.9,0,5.2,2.3,5.2,5.2c0,2.9-2.3,5.2-5.2,5.2s-5.2-2.3-5.2-5.2
									l0,0C-107.4-26107.1-105-26109.4-102.2-26109.4z"/>
								<path id="Trazado_105970" class="st4" d="M-102.2-26142.6c2.9,0,5.2,2.3,5.2,5.2s-2.3,5.2-5.2,5.2l0,0
									c-2.9,0-5.2-2.3-5.2-5.2S-105-26142.6-102.2-26142.6z"/>
								<path id="Trazado_105971" class="st4" d="M-102.2-26175.8c2.9,0,5.2,2.3,5.2,5.2s-2.3,5.2-5.2,5.2c-2.9,0-5.2-2.3-5.2-5.2
									S-105-26175.8-102.2-26175.8z"/>
								<path id="Trazado_105972" class="st4" d="M-102.2-26209c2.9,0,5.2,2.3,5.2,5.2c0,2.9-2.3,5.2-5.2,5.2
									c-2.9,0-5.2-2.3-5.2-5.2C-107.4-26206.7-105-26209-102.2-26209z"/>
								<path id="Trazado_105973" class="st4" d="M-73.5-26076.3c2.9,0,5.2,2.3,5.2,5.2s-2.3,5.2-5.2,5.2c-2.9,0-5.2-2.3-5.2-5.2
									l0,0C-78.8-26073.9-76.4-26076.3-73.5-26076.3L-73.5-26076.3z"/>
								<path id="Trazado_105974" class="st4" d="M-73.5-26109.4c2.9,0,5.2,2.3,5.2,5.2c0,2.9-2.3,5.2-5.2,5.2
									c-2.9,0-5.2-2.3-5.2-5.2l0,0C-78.8-26107.1-76.4-26109.4-73.5-26109.4z"/>
								<path id="Trazado_105975" class="st4" d="M-73.5-26142.6c2.9,0,5.2,2.3,5.2,5.2s-2.3,5.2-5.2,5.2l0,0
									c-2.9,0-5.2-2.3-5.2-5.2C-78.8-26140.3-76.4-26142.6-73.5-26142.6z"/>
								<path id="Trazado_105976" class="st4" d="M-73.5-26175.8c2.9,0,5.2,2.3,5.2,5.2l0,0c0,2.9-2.3,5.2-5.2,5.2s-5.2-2.3-5.2-5.2
									C-78.8-26173.5-76.4-26175.8-73.5-26175.8z"/>
								<path id="Trazado_105977" class="st4" d="M-73.5-26209c2.9,0,5.2,2.3,5.2,5.2c0,2.9-2.3,5.2-5.2,5.2s-5.2-2.3-5.2-5.2
									C-78.8-26206.7-76.4-26209-73.5-26209z"/>
								<path id="Trazado_105978" class="st4" d="M-44.9-26076.3c2.9,0,5.2,2.3,5.2,5.2s-2.3,5.2-5.2,5.2s-5.2-2.3-5.2-5.2l0,0
									C-50.1-26073.9-47.8-26076.3-44.9-26076.3z"/>
								<path id="Trazado_105979" class="st4" d="M-44.9-26109.4c2.9,0,5.2,2.3,5.2,5.2c0,2.9-2.3,5.2-5.2,5.2s-5.2-2.3-5.2-5.2l0,0
									C-50.1-26107.1-47.8-26109.4-44.9-26109.4z"/>
								<path id="Trazado_105980" class="st4" d="M-44.9-26142.6c2.9,0,5.2,2.3,5.2,5.2s-2.3,5.2-5.2,5.2c-2.9,0-5.2-2.3-5.2-5.2
									l0,0C-50.1-26140.3-47.8-26142.6-44.9-26142.6z"/>
								<path id="Trazado_105981" class="st4" d="M-44.9-26175.8c2.9,0,5.2,2.3,5.2,5.2s-2.3,5.2-5.2,5.2c-2.9,0-5.2-2.3-5.2-5.2
									S-47.8-26175.8-44.9-26175.8L-44.9-26175.8z"/>
								<path id="Trazado_105982" class="st4" d="M-44.9-26209c2.9,0,5.2,2.3,5.2,5.2c0,2.9-2.3,5.2-5.2,5.2c-2.9,0-5.2-2.3-5.2-5.2
									C-50.1-26206.7-47.8-26209-44.9-26209z"/>
								<path id="Trazado_105983" class="st4" d="M-16.3-26076.3c2.9,0,5.2,2.3,5.2,5.2s-2.3,5.2-5.2,5.2s-5.2-2.3-5.2-5.2l0,0
									C-21.5-26073.9-19.2-26076.3-16.3-26076.3z"/>
								<path id="Trazado_105984" class="st4" d="M-16.3-26109.4c2.9,0,5.2,2.3,5.2,5.2c0,2.9-2.3,5.2-5.2,5.2s-5.2-2.3-5.2-5.2l0,0
									C-21.5-26107.1-19.2-26109.4-16.3-26109.4z"/>
								<path id="Trazado_105985" class="st4" d="M-16.3-26142.6c2.9,0,5.2,2.3,5.2,5.2l0,0c0,2.9-2.3,5.2-5.2,5.2l0,0
									c-2.9,0-5.2-2.3-5.2-5.2S-19.2-26142.6-16.3-26142.6z"/>
								<path id="Trazado_105986" class="st4" d="M-16.3-26175.8c2.9,0,5.2,2.3,5.2,5.2s-2.3,5.2-5.2,5.2c-2.9,0-5.2-2.3-5.2-5.2
									S-19.2-26175.8-16.3-26175.8z"/>
								<path id="Trazado_105987" class="st4" d="M-16.3-26209c2.9,0,5.2,2.3,5.2,5.2c0,2.9-2.3,5.2-5.2,5.2c-2.9,0-5.2-2.3-5.2-5.2
									C-21.5-26206.7-19.2-26209-16.3-26209z"/>
								<path id="Trazado_105988" class="st4" d="M12.3-26076.3c2.9,0,5.2,2.3,5.2,5.2s-2.3,5.2-5.2,5.2s-5.2-2.3-5.2-5.2l0,0
									C7.1-26073.9,9.4-26076.3,12.3-26076.3L12.3-26076.3z"/>
								<path id="Trazado_105989" class="st4" d="M12.3-26109.4c2.9,0,5.2,2.3,5.2,5.2c0,2.9-2.3,5.2-5.2,5.2s-5.2-2.3-5.2-5.2l0,0
									C7.1-26107.1,9.4-26109.4,12.3-26109.4z"/>
								<path id="Trazado_105990" class="st4" d="M12.3-26142.6c2.9,0,5.2,2.3,5.2,5.2s-2.3,5.2-5.2,5.2l0,0c-2.9,0-5.2-2.3-5.2-5.2
									S9.4-26142.6,12.3-26142.6z"/>
								<path id="Trazado_105991" class="st4" d="M12.3-26175.8c2.9,0,5.2,2.3,5.2,5.2l0,0c0,2.9-2.3,5.2-5.2,5.2s-5.2-2.3-5.2-5.2
									S9.4-26175.8,12.3-26175.8z"/>
								<path id="Trazado_105992" class="st4" d="M12.3-26209c2.9,0,5.2,2.3,5.2,5.2c0,2.9-2.3,5.2-5.2,5.2s-5.2-2.3-5.2-5.2
									C7.1-26206.7,9.4-26209,12.3-26209z"/>
								<path id="Trazado_105993" class="st4" d="M41-26076.3c2.9,0,5.2,2.3,5.2,5.2s-2.3,5.2-5.2,5.2s-5.2-2.3-5.2-5.2l0,0
									C35.7-26073.9,38.1-26076.3,41-26076.3C40.9-26076.3,41-26076.3,41-26076.3z"/>
								<path id="Trazado_105994" class="st4" d="M41-26109.4c2.9,0,5.2,2.3,5.2,5.2c0,2.9-2.3,5.2-5.2,5.2s-5.2-2.3-5.2-5.2l0,0
									C35.7-26107.1,38.1-26109.4,41-26109.4L41-26109.4z"/>
								<path id="Trazado_105995" class="st4" d="M41-26142.6c2.9,0,5.2,2.3,5.2,5.2s-2.3,5.2-5.2,5.2l0,0c-2.9,0-5.2-2.3-5.2-5.2
									l0,0C35.7-26140.3,38.1-26142.6,41-26142.6C40.9-26142.6,41-26142.6,41-26142.6z"/>
								<path id="Trazado_105996" class="st4" d="M41-26175.8c2.9,0,5.2,2.3,5.2,5.2l0,0c0,2.9-2.3,5.2-5.2,5.2s-5.2-2.3-5.2-5.2
									C35.7-26173.5,38.1-26175.8,41-26175.8L41-26175.8z"/>
								<path id="Trazado_105997" class="st4" d="M41-26209c2.9,0,5.2,2.3,5.2,5.2c0,2.9-2.3,5.2-5.2,5.2s-5.2-2.3-5.2-5.2
									C35.8-26206.7,38.1-26209,41-26209z"/>
								<path id="Trazado_105998" class="st4" d="M69.6-26076.3c2.9,0,5.2,2.3,5.2,5.2s-2.3,5.2-5.2,5.2s-5.2-2.3-5.2-5.2l0,0
									C64.4-26073.9,66.7-26076.3,69.6-26076.3z"/>
								<path id="Trazado_105999" class="st4" d="M69.6-26109.4c2.9,0,5.2,2.3,5.2,5.2c0,2.9-2.3,5.2-5.2,5.2s-5.2-2.3-5.2-5.2l0,0
									C64.4-26107.1,66.7-26109.4,69.6-26109.4z"/>
								<path id="Trazado_106000" class="st4" d="M69.6-26142.6c2.9,0,5.2,2.3,5.2,5.2s-2.3,5.2-5.2,5.2s-5.2-2.3-5.2-5.2l0,0
									C64.4-26140.3,66.7-26142.6,69.6-26142.6z"/>
								<path id="Trazado_106001" class="st4" d="M69.6-26175.8c2.9,0,5.2,2.3,5.2,5.2s-2.3,5.2-5.2,5.2s-5.2-2.3-5.2-5.2
									C64.4-26173.5,66.7-26175.8,69.6-26175.8L69.6-26175.8z"/>
								<path id="Trazado_106002" class="st4" d="M69.6-26209c2.9,0,5.2,2.3,5.2,5.2c0,2.9-2.3,5.2-5.2,5.2s-5.2-2.3-5.2-5.2
									C64.4-26206.7,66.7-26209,69.6-26209z"/>
							</g>
							<g id="Grupo_85429" transform="translate(80.363 309.059)">
								<circle id="Elipse_4225" class="st4" cx="-19.3" cy="-26205.8" r="3"/>
								<path id="Trazado_106003" class="st4" d="M-19.3-26184c-1.6,0-3-1.3-3-3c0-1.6,1.3-3,3-3c1.6,0,3,1.3,3,3l0,0
									C-16.3-26185.4-17.6-26184-19.3-26184L-19.3-26184z"/>
								<path id="Trazado_106004" class="st4" d="M-19.3-26165.2c-1.6,0-3-1.3-3-3c0-1.7,1.3-3,3-3s3,1.3,3,3l0,0
									C-16.3-26166.5-17.6-26165.2-19.3-26165.2z"/>
								<circle id="Elipse_4226" class="st4" cx="-19.3" cy="-26149.3" r="3"/>
								<circle id="Elipse_4227" class="st4" cx="-19.3" cy="-26130.5" r="3"/>
								<circle id="Elipse_4228" class="st4" cx="-35.5" cy="-26205.8" r="3"/>
								<path id="Trazado_106005" class="st4" d="M-35.5-26184c-1.6,0-3-1.3-3-3c0-1.6,1.3-3,3-3c1.6,0,3,1.3,3,3l0,0
									C-32.5-26185.4-33.9-26184-35.5-26184L-35.5-26184z"/>
								<path id="Trazado_106006" class="st4" d="M-35.5-26165.2c-1.6,0-3-1.3-3-3c0-1.7,1.3-3,3-3s3,1.3,3,3l0,0
									C-32.5-26166.5-33.9-26165.2-35.5-26165.2L-35.5-26165.2z"/>
								<circle id="Elipse_4229" class="st4" cx="-35.5" cy="-26149.3" r="3"/>
								<circle id="Elipse_4230" class="st4" cx="-35.5" cy="-26130.5" r="3"/>
								<circle id="Elipse_4231" class="st4" cx="-51.8" cy="-26205.8" r="3"/>
								<path id="Trazado_106007" class="st4" d="M-51.8-26184c-1.6,0-3-1.3-3-3c0-1.6,1.3-3,3-3c1.6,0,3,1.3,3,3l0,0
									C-48.8-26185.4-50.1-26184-51.8-26184z"/>
								<path id="Trazado_106008" class="st4" d="M-51.8-26165.2c-1.6,0-3-1.3-3-3c0-1.7,1.3-3,3-3s3,1.3,3,3l0,0
									C-48.8-26166.5-50.1-26165.2-51.8-26165.2z"/>
								<circle id="Elipse_4232" class="st4" cx="-51.8" cy="-26149.3" r="3"/>
								<circle id="Elipse_4233" class="st4" cx="-51.8" cy="-26130.5" r="3"/>
								<circle id="Elipse_4234" class="st4" cx="-68" cy="-26205.8" r="3"/>
								<path id="Trazado_106009" class="st4" d="M-68-26184c-1.6,0-3-1.3-3-3s1.3-3,3-3s3,1.3,3,3l0,0
									C-65.1-26185.4-66.4-26184-68-26184z"/>
								<path id="Trazado_106010" class="st4" d="M-68-26165.2c-1.6,0-3-1.3-3-3c0-1.7,1.3-3,3-3s3,1.3,3,3l0,0
									C-65.1-26166.5-66.4-26165.2-68-26165.2z"/>
								<circle id="Elipse_4235" class="st4" cx="-68" cy="-26149.3" r="3"/>
								<circle id="Elipse_4236" class="st4" cx="-68" cy="-26130.5" r="3"/>
								<circle id="Elipse_4237" class="st4" cx="-84.3" cy="-26205.8" r="3"/>
								<path id="Trazado_106011" class="st4" d="M-84.3-26184c-1.6,0-3-1.3-3-3c0-1.6,1.3-3,3-3c1.6,0,3,1.3,3,3l0,0
									C-81.3-26185.4-82.6-26184-84.3-26184L-84.3-26184z"/>
								<path id="Trazado_106012" class="st4" d="M-84.3-26165.2c-1.6,0-3-1.3-3-3c0-1.7,1.3-3,3-3c1.6,0,3,1.3,3,3
									C-81.3-26166.5-82.6-26165.2-84.3-26165.2L-84.3-26165.2z"/>
								<circle id="Elipse_4238" class="st4" cx="-84.3" cy="-26149.3" r="3"/>
								<circle id="Elipse_4239" class="st4" cx="-84.3" cy="-26130.5" r="3"/>
								<circle id="Elipse_4240" class="st4" cx="-100.5" cy="-26205.8" r="3"/>
								<path id="Trazado_106013" class="st4" d="M-100.5-26184c-1.6,0-3-1.3-3-3c0-1.6,1.3-3,3-3c1.6,0,3,1.3,3,3l0,0
									C-97.6-26185.4-98.9-26184-100.5-26184L-100.5-26184z"/>
								<path id="Trazado_106014" class="st4" d="M-100.5-26165.2c-1.6,0-3-1.3-3-3c0-1.6,1.3-3,3-3c1.6,0,3,1.3,3,3l0,0
									C-97.6-26166.5-98.9-26165.2-100.5-26165.2L-100.5-26165.2z"/>
								<circle id="Elipse_4241" class="st4" cx="-100.5" cy="-26149.3" r="3"/>
								<circle id="Elipse_4242" class="st4" cx="-100.5" cy="-26130.5" r="3"/>
								<circle id="Elipse_4243" class="st4" cx="-116.8" cy="-26205.8" r="3"/>
								<path id="Trazado_106015" class="st4" d="M-116.8-26184c-1.6,0-3-1.3-3-3s1.3-3,3-3c1.7,0,3,1.3,3,3l0,0
									C-113.8-26185.4-115.1-26184-116.8-26184L-116.8-26184z"/>
								<path id="Trazado_106016" class="st4" d="M-116.8-26165.2c-1.6,0-3-1.3-3-3c0-1.6,1.3-3,3-3c1.6,0,3,1.3,3,3
									C-113.8-26166.5-115.1-26165.2-116.8-26165.2L-116.8-26165.2z"/>
								<circle id="Elipse_4244" class="st4" cx="-116.8" cy="-26149.3" r="3"/>
								<circle id="Elipse_4245" class="st4" cx="-116.8" cy="-26130.5" r="3"/>
								<path id="Trazado_106017" class="st4" d="M-133-26202.9c-1.6,0-3-1.3-3-3c0-1.6,1.3-3,3-3c1.6,0,3,1.3,3,3l0,0
									C-130.1-26204.2-131.4-26202.9-133-26202.9z"/>
								<path id="Trazado_106018" class="st4" d="M-133-26184c-1.6,0-3-1.3-3-3c0-1.6,1.3-3,3-3c1.6,0,3,1.3,3,3l0,0
									C-130.1-26185.4-131.4-26184-133-26184z"/>
								<path id="Trazado_106019" class="st4" d="M-133-26165.2c-1.6,0-3-1.3-3-3c0-1.6,1.3-3,3-3s3,1.3,3,3l0,0
									C-130.1-26166.5-131.4-26165.2-133-26165.2z"/>
								<path id="Trazado_106020" class="st4" d="M-133-26146.3c-1.6,0-3-1.3-3-3c0-1.6,1.3-3,3-3c1.6,0,3,1.3,3,3l0,0
									C-130.1-26147.7-131.4-26146.3-133-26146.3z"/>
								<path id="Trazado_106021" class="st4" d="M-133-26127.5c-1.6,0-3-1.3-3-3c0-1.6,1.3-3,3-3c1.6,0,3,1.3,3,3l0,0
									C-130.1-26128.8-131.4-26127.5-133-26127.5z"/>
							</g>
							<path id="Trazado_106055" class="st9" d="M-124.6-25869.4c31.5-41.6,85.3-65.1,137.2-60c33.7,3.3,66.1,17.7,99.9,17.1
								c33.9-0.6,71.9-25.5,68-59.1c-3-26.2-30.3-49.9-20.5-74.3c6-14.8,23-21.3,35.1-31.7c18.4-15.7,25.7-43.3,17.5-66
								c-8.2-22.7-31.4-39.3-55.6-39.7"/>
						</g>
					</g>
				</g>
			</g>
		</g>
	</g>
</g>
<path id="Trazado_106337" class="st11" d="M141.7,360.9h-5.8v-26.2h5.8V360.9z M155.7,360.9c-0.3-0.5-0.4-1.1-0.5-1.7
	c-1.1,1.3-2.7,2.1-4.4,2c-1.6,0-3.2-0.5-4.4-1.6c-1.2-1-1.9-2.4-1.8-4c-0.1-1.8,0.7-3.5,2.2-4.5c2-1.1,4.2-1.7,6.5-1.5h1.8v-1
	c0-1.7-0.7-2.5-2.2-2.5c-1-0.2-1.9,0.5-2.1,1.5c0,0.2,0,0.3,0,0.5H145c0-1.7,0.8-3.4,2.3-4.4c1.7-1.2,3.7-1.8,5.8-1.7
	c2-0.1,4,0.5,5.6,1.7c1.4,1.2,2.2,2.9,2.1,4.7v8.2c-0.1,1.3,0.2,2.7,0.8,3.9v0.3L155.7,360.9L155.7,360.9z M152,357.2
	c0.6,0,1.2-0.1,1.8-0.5c0.4-0.3,0.8-0.6,1-1v-3h-1.7c-2,0-3,0.9-3,2.7c0,0.5,0.2,0.9,0.5,1.3C151.1,357,151.6,357.2,152,357.2
	L152,357.2z M173.5,355.7c0-0.5-0.3-1-0.8-1.2c-0.9-0.4-1.9-0.7-2.9-0.9c-1.2-0.2-2.4-0.7-3.6-1.3c-0.9-0.4-1.6-1.1-2.1-1.9
	s-0.8-1.6-0.7-2.5c0-1.7,0.8-3.2,2.1-4.2c1.6-1.2,3.5-1.7,5.5-1.7c2.1-0.1,4.2,0.5,5.9,1.7c1.4,1,2.3,2.6,2.2,4.4h-5.8
	c0-1.5-0.8-2.2-2.3-2.2c-0.6,0-1.1,0.2-1.5,0.5s-0.6,0.8-0.6,1.3s0.3,1,0.8,1.2c0.7,0.4,1.6,0.7,2.4,0.8c1,0.2,2,0.4,2.9,0.7
	c2.8,1,4.2,2.7,4.2,5.1c0,1.7-0.8,3.2-2.3,4.1c-1.7,1.1-3.8,1.7-5.8,1.6c-1.5,0-2.9-0.3-4.2-0.9c-1.2-0.5-2.2-1.3-2.9-2.3
	c-0.7-0.9-1-2-1-3.1h5.4c0,0.7,0.3,1.4,0.9,1.9c0.6,0.4,1.4,0.6,2.1,0.6c0.6,0,1.3-0.1,1.8-0.5C173.3,356.7,173.5,356.2,173.5,355.7
	z M198.3,356.8c0.7,0,1.4-0.2,1.9-0.7s0.7-1.2,0.6-1.8h5.4c0.1,1.9-0.7,3.7-2.2,5c-1.6,1.3-3.6,2-5.6,1.9c-2.4,0.1-4.7-0.8-6.4-2.5
	c-1.6-2-2.5-4.5-2.3-7v-0.2c0-1.7,0.3-3.4,1-4.9c0.6-1.4,1.7-2.5,3-3.3c1.4-0.8,3-1.2,4.6-1.2c2.1-0.1,4.2,0.6,5.7,2
	s2.2,3.4,2.1,5.4h-5.4c0.1-0.8-0.2-1.6-0.7-2.2c-0.5-0.5-1.2-0.8-1.9-0.8c-1.5,0-2.4,1-2.6,2.9c-0.1,0.8-0.1,1.7-0.1,2.5
	c-0.1,1.3,0.1,2.7,0.7,3.9C196.6,356.5,197.4,356.9,198.3,356.8z M219.7,358.9c-1.2,1.5-3,2.4-4.9,2.3c-1.7,0.1-3.4-0.5-4.6-1.8
	c-1.1-1.4-1.7-3.3-1.6-5.1v-12h5.8v12c-0.2,1.1,0.6,2.2,1.7,2.4c0.2,0,0.4,0,0.6,0c1.1,0.1,2.2-0.5,2.8-1.4v-13h5.8v18.5h-5.4
	L219.7,358.9z M238.8,360.9c-0.3-0.5-0.4-1.1-0.5-1.7c-1.1,1.3-2.7,2.1-4.4,2c-1.6,0-3.2-0.5-4.4-1.6c-1.2-1-1.9-2.4-1.8-4
	c-0.1-1.8,0.7-3.5,2.2-4.5c2-1.1,4.2-1.7,6.5-1.5h1.8v-1c0-1.7-0.7-2.5-2.2-2.5c-1-0.2-1.9,0.5-2.1,1.5c0,0.2,0,0.3,0,0.5H228
	c0-1.7,0.8-3.4,2.3-4.4c1.7-1.2,3.7-1.8,5.8-1.7c2-0.1,4,0.5,5.6,1.7c1.4,1.2,2.2,2.9,2.1,4.7v8.2c-0.1,1.3,0.2,2.7,0.8,3.9v0.3
	L238.8,360.9L238.8,360.9z M235.2,357.2c0.6,0,1.2-0.1,1.8-0.5c0.4-0.3,0.8-0.6,1-1v-3h-1.7c-2,0-3,0.9-3,2.7c0,0.5,0.2,0.9,0.5,1.3
	C234.2,357,234.7,357.2,235.2,357.2z M253.7,337.8v4.6h3v4h-3v8.5c-0.1,0.5,0.1,1,0.4,1.5c0.4,0.3,1,0.5,1.5,0.4c0.5,0,1,0,1.4-0.1
	v4.1c-1,0.3-2.1,0.5-3.2,0.5c-1.6,0.1-3.2-0.4-4.4-1.4c-1-1.2-1.5-2.7-1.4-4.3v-9.2h-2.4v-4h2.4v-4.6H253.7z M270.2,347.7l-1.9-0.1
	c-1.8,0-3,0.6-3.5,1.7V361H259v-18.5h5.4l0.2,2.4c0.7-1.6,2.3-2.7,4-2.7c0.5,0,1.1,0.1,1.6,0.2V347.7z M270.9,351.5
	c0-1.7,0.3-3.4,1.1-4.9c0.7-1.4,1.8-2.6,3.1-3.3c1.4-0.8,3.1-1.2,4.7-1.2c2.5-0.1,4.8,0.8,6.5,2.6c1.7,1.9,2.5,4.4,2.4,7v0.2
	c0.1,2.5-0.7,5-2.4,6.9c-1.7,1.7-4.1,2.7-6.5,2.5c-2.3,0.1-4.6-0.7-6.3-2.4c-1.7-1.7-2.6-4-2.6-6.4L270.9,351.5z M276.6,351.9
	c-0.1,1.3,0.2,2.6,0.8,3.8c0.5,0.8,1.4,1.2,2.4,1.2c2.1,0,3.1-1.6,3.1-4.7v-0.6c0-3.3-1.1-5-3.2-5c-1.9,0-3,1.4-3.1,4.3L276.6,351.9
	z M317.1,351.8c0.1,2.4-0.6,4.9-1.9,6.9c-1.2,1.7-3.2,2.6-5.2,2.6c-1.6,0-3.1-0.6-4.2-1.9v8.6H300v-25.6h5.4l0.2,1.7
	c1-1.3,2.7-2.1,4.4-2.1c2.1-0.1,4.1,0.8,5.3,2.5c1.4,2,2,4.5,1.9,6.9L317.1,351.8z M311.4,351.5c0-3.3-1-4.9-2.9-4.9
	c-1.1-0.1-2.2,0.5-2.7,1.5v7.3c0.5,1,1.6,1.6,2.8,1.5c1.8,0,2.8-1.6,2.8-4.8L311.4,351.5z M330.9,347.7l-1.9-0.1
	c-1.8,0-3,0.6-3.5,1.7V361h-5.8v-18.5h5.4l0.2,2.4c0.7-1.6,2.3-2.7,4-2.7c0.5,0,1.1,0.1,1.6,0.2L330.9,347.7z M341.6,361.3
	c-2.5,0.1-5-0.8-6.9-2.5c-1.8-1.7-2.7-4.1-2.6-6.6v-0.5c0-1.7,0.3-3.4,1.1-5c0.7-1.4,1.7-2.6,3.1-3.4c1.5-0.8,3.1-1.2,4.8-1.2
	c2.3-0.1,4.5,0.8,6.2,2.4c1.6,1.9,2.4,4.3,2.3,6.7v2.2h-11.5c0.2,0.9,0.6,1.8,1.4,2.4s1.7,0.9,2.7,0.9c1.6,0.1,3.2-0.6,4.3-1.9
	l2.6,3.1c-0.8,1-1.8,1.9-3.1,2.4C344.5,361,343,361.3,341.6,361.3L341.6,361.3z M340.9,346.5c-1.7,0-2.7,1.1-3,3.4h5.8v-0.4
	c0.1-0.8-0.2-1.6-0.7-2.1C342.5,346.8,341.7,346.5,340.9,346.5L340.9,346.5z M351,351.6c0-1.7,0.3-3.4,0.9-5
	c0.5-1.3,1.5-2.5,2.6-3.3c1.2-0.8,2.6-1.2,4-1.2c1.7-0.1,3.4,0.6,4.5,1.9l0.2-1.6h5.2v17.8c0,1.5-0.4,3-1.1,4.2
	c-0.8,1.2-1.9,2.2-3.3,2.8c-1.6,0.7-3.3,1-5,1c-1.4,0-2.7-0.3-3.9-0.8c-1.1-0.4-2.1-1.1-2.9-2l2.4-3.4c1,1.3,2.6,2,4.2,1.9
	c2.6,0,3.8-1.3,3.8-3.9v-0.6c-1.1,1.2-2.6,1.9-4.2,1.8c-2.1,0.1-4.2-0.9-5.5-2.6c-1.5-2-2.2-4.4-2.1-6.9L351,351.6z M356.8,351.9
	c-0.1,1.3,0.2,2.5,0.9,3.6c0.5,0.8,1.4,1.3,2.4,1.3c1.1,0.1,2.1-0.4,2.7-1.2v-7.8c-0.6-0.9-1.6-1.3-2.7-1.3c-1,0-1.9,0.5-2.4,1.4
	C357,349.1,356.7,350.5,356.8,351.9L356.8,351.9z M382.8,358.9c-1.2,1.5-3,2.4-4.9,2.3c-1.7,0.1-3.4-0.5-4.6-1.8
	c-1.1-1.4-1.7-3.3-1.6-5.1v-12h5.8v12c-0.2,1.1,0.6,2.2,1.7,2.4c0.2,0,0.4,0,0.6,0c1.1,0.1,2.2-0.5,2.8-1.4v-13h5.8v18.5H383
	L382.8,358.9z M396.8,342.4l0.2,2.2c1.2-1.7,3.2-2.6,5.3-2.5c1.6-0.1,3.2,0.5,4.3,1.7c1.1,1.5,1.6,3.3,1.5,5.2v11.9h-5.8v-11.7
	c0.1-0.7-0.1-1.5-0.6-2.1c-0.6-0.5-1.3-0.7-2.1-0.7c-1-0.1-2,0.5-2.5,1.3v13.1h-5.8v-18.5L396.8,342.4z M418,337.8v4.6h3v4h-3v8.5
	c-0.1,0.5,0.1,1,0.4,1.5c0.4,0.3,1,0.5,1.5,0.4c0.5,0,1,0,1.4-0.1v4.1c-1,0.3-2.1,0.5-3.2,0.5c-1.6,0.1-3.2-0.4-4.4-1.4
	c-1-1.2-1.5-2.7-1.4-4.3v-9.2h-2.4v-4h2.4v-4.6H418z M433.7,360.9c-0.3-0.5-0.4-1.1-0.5-1.7c-1.1,1.3-2.7,2.1-4.4,2
	c-1.6,0-3.2-0.5-4.4-1.6c-1.2-1-1.9-2.4-1.8-4c-0.1-1.8,0.7-3.5,2.2-4.5c2-1.1,4.2-1.7,6.5-1.5h1.8v-1c0-1.7-0.7-2.5-2.2-2.5
	c-1-0.1-1.9,0.5-2,1.5c0,0.2,0,0.3,0,0.5h-5.8c0-1.7,0.8-3.4,2.3-4.4c1.7-1.2,3.7-1.8,5.8-1.7c2-0.1,4,0.5,5.6,1.7
	c1.4,1.2,2.2,2.9,2.1,4.7v8.2c-0.1,1.3,0.2,2.7,0.8,3.9v0.3L433.7,360.9L433.7,360.9z M430.1,357.2c0.6,0,1.2-0.1,1.8-0.5
	c0.4-0.3,0.8-0.6,1-1v-3h-1.7c-2,0-3,0.9-3,2.7c0,0.5,0.2,0.9,0.5,1.3C429.1,357,429.6,357.2,430.1,357.2z M451.6,355.7
	c0-0.5-0.3-1-0.8-1.2c-0.9-0.4-1.9-0.7-2.9-0.9c-1.2-0.2-2.4-0.7-3.6-1.3c-0.9-0.4-1.6-1.1-2.1-1.9s-0.8-1.6-0.7-2.5
	c0-1.7,0.8-3.2,2.1-4.2c1.6-1.2,3.5-1.7,5.5-1.7c2.1-0.1,4.2,0.5,5.9,1.7c1.4,1,2.3,2.6,2.2,4.4h-5.8c0-1.5-0.8-2.2-2.3-2.2
	c-0.6,0-1.1,0.2-1.5,0.5s-0.6,0.8-0.6,1.3s0.3,1,0.8,1.2c0.7,0.4,1.6,0.7,2.4,0.8c1,0.2,2,0.4,2.9,0.7c2.8,1,4.2,2.7,4.2,5.1
	c0,1.7-0.8,3.2-2.2,4.1c-1.7,1.1-3.8,1.7-5.8,1.6c-1.5,0-2.9-0.3-4.2-0.9c-1.2-0.5-2.2-1.3-2.9-2.3c-0.7-0.9-1-2-1-3.1h5.4
	c0,0.7,0.3,1.4,0.9,1.9c0.6,0.4,1.4,0.6,2.1,0.6c0.6,0,1.3-0.1,1.8-0.5C451.4,356.7,451.6,356.2,451.6,355.7z M467.8,351.5
	c-0.1-2.4,0.5-4.9,1.9-6.9c1.2-1.7,3.2-2.6,5.3-2.5c1.8,0,3.5,0.8,4.5,2.3l0.4-2h5V368h-5.8v-8.6c-1,1.2-2.6,1.9-4.2,1.9
	c-2.1,0.1-4-0.9-5.2-2.5C468.4,357,467.8,354.6,467.8,351.5z M473.6,351.9c0,3.3,1,5,2.9,5c1.1,0.1,2.2-0.5,2.7-1.5v-7.3
	c-0.5-1-1.6-1.6-2.7-1.5c-1.8,0-2.8,1.4-2.9,4.3V351.9z M499.2,358.9c-1.2,1.5-3,2.4-4.9,2.3c-1.7,0.1-3.4-0.5-4.6-1.8
	c-1.1-1.4-1.7-3.3-1.6-5.1v-12h5.8v12c-0.2,1.1,0.6,2.2,1.7,2.4c0.2,0,0.4,0,0.6,0c1.1,0.1,2.2-0.5,2.8-1.4v-13h5.8v18.5h-5.4
	L499.2,358.9z M516.9,361.3c-2.5,0.1-5-0.8-6.9-2.5c-1.8-1.7-2.7-4.1-2.6-6.6v-0.5c0-1.7,0.3-3.4,1.1-5c0.7-1.4,1.7-2.6,3.1-3.4
	c1.5-0.8,3.1-1.2,4.8-1.2c2.3-0.1,4.5,0.8,6.2,2.4c1.6,1.9,2.4,4.3,2.3,6.7v2.2h-11.5c0.2,0.9,0.6,1.8,1.4,2.4
	c0.8,0.6,1.7,0.9,2.7,0.9c1.6,0.1,3.2-0.6,4.3-1.9l2.6,3.1c-0.8,1-1.8,1.9-3.1,2.4C519.8,361,518.3,361.3,516.9,361.3L516.9,361.3z
	 M516.2,346.5c-1.7,0-2.7,1.1-3,3.4h5.8v-0.4c0.1-0.8-0.2-1.6-0.7-2.1C517.8,346.8,517,346.5,516.2,346.5L516.2,346.5z M143.4,391.8
	c0.7,0,1.4-0.2,1.9-0.7s0.7-1.2,0.6-1.8h5.4c0.1,1.9-0.7,3.7-2.2,5c-1.6,1.3-3.6,2-5.6,1.9c-2.4,0.1-4.7-0.8-6.4-2.5
	c-1.6-2-2.5-4.5-2.3-7v-0.2c0-1.7,0.3-3.4,1-4.9c0.6-1.4,1.7-2.5,3-3.3c1.4-0.8,3-1.2,4.6-1.2c2.1-0.1,4.2,0.6,5.7,2
	c1.4,1.4,2.2,3.4,2.1,5.4H146c0.1-0.8-0.2-1.6-0.7-2.2c-0.5-0.5-1.2-0.8-1.9-0.8c-1.5,0-2.4,1-2.6,2.9c-0.1,0.8-0.1,1.7-0.1,2.5
	c-0.1,1.3,0.1,2.7,0.7,3.9C141.8,391.5,142.6,391.9,143.4,391.8z M153.1,386.5c0-1.7,0.3-3.4,1.1-4.9c0.7-1.4,1.8-2.6,3.1-3.3
	c1.4-0.8,3.1-1.2,4.7-1.2c2.5-0.1,4.8,0.8,6.5,2.6c1.7,1.9,2.5,4.4,2.4,7v0.2c0.1,2.5-0.7,5-2.4,6.9c-1.7,1.7-4.1,2.7-6.5,2.5
	c-2.3,0.1-4.6-0.7-6.3-2.4c-1.7-1.7-2.6-4-2.6-6.4L153.1,386.5z M158.8,386.9c-0.1,1.3,0.2,2.6,0.8,3.8c0.5,0.8,1.4,1.2,2.4,1.2
	c2.1,0,3.1-1.6,3.1-4.7v-0.6c0-3.3-1.1-5-3.2-5c-1.9,0-3,1.4-3.1,4.3L158.8,386.9z M178.7,377.4l0.2,2.2c1.2-1.7,3.2-2.6,5.3-2.5
	c1.6-0.1,3.2,0.5,4.3,1.7c1.1,1.5,1.6,3.3,1.5,5.2v11.9h-5.8v-11.7c0.1-0.7-0.1-1.5-0.6-2.1c-0.6-0.5-1.3-0.7-2.1-0.7
	c-1-0.1-2,0.5-2.5,1.3v13.1h-5.8v-18.5L178.7,377.4L178.7,377.4z M192.5,386.6c-0.1-2.5,0.5-4.9,1.9-6.9c1.2-1.7,3.2-2.6,5.3-2.5
	c1.6,0,3.1,0.7,4.2,1.9v-9.4h5.8v26.2h-5.2l-0.3-2c-1,1.5-2.7,2.3-4.5,2.3c-2.1,0.1-4-0.9-5.2-2.5
	C193.1,392.1,192.5,389.7,192.5,386.6L192.5,386.6z M198.2,386.9c0,3.3,1,4.9,2.9,4.9c1.2,0.1,2.2-0.6,2.7-1.6v-7
	c-0.5-1.1-1.5-1.7-2.7-1.6c-1.8,0-2.7,1.4-2.9,4.3V386.9z M223.9,393.9c-1.2,1.5-3,2.4-4.9,2.3c-1.7,0.1-3.4-0.5-4.6-1.8
	c-1.1-1.4-1.7-3.3-1.6-5.1v-12h5.8v12c-0.2,1.1,0.6,2.2,1.7,2.4c0.2,0,0.4,0,0.6,0c1.1,0.1,2.2-0.5,2.8-1.4v-13h5.8v18.5h-5.4
	L223.9,393.9z M240.4,391.8c0.7,0,1.4-0.2,1.9-0.7s0.7-1.2,0.6-1.8h5.4c0.1,1.9-0.7,3.7-2.2,5c-1.6,1.3-3.6,2-5.6,1.9
	c-2.4,0.1-4.7-0.8-6.4-2.5c-1.6-2-2.5-4.5-2.3-7v-0.2c0-1.7,0.3-3.4,1-4.9c0.6-1.4,1.7-2.5,3-3.3c1.4-0.8,3-1.2,4.6-1.2
	c2.1-0.1,4.2,0.6,5.7,2c1.4,1.4,2.2,3.4,2.1,5.4H243c0.1-0.8-0.2-1.6-0.7-2.2c-0.5-0.5-1.2-0.8-1.9-0.8c-1.5,0-2.4,1-2.6,2.9
	c-0.1,0.8-0.1,1.7-0.1,2.5c-0.1,1.3,0.1,2.7,0.7,3.9C238.8,391.5,239.6,391.9,240.4,391.8z M259.7,396.3c-2.5,0.1-5-0.8-6.9-2.5
	c-1.8-1.7-2.7-4.1-2.6-6.6v-0.5c0-1.7,0.3-3.4,1.1-5c0.7-1.4,1.7-2.6,3.1-3.4c1.5-0.8,3.1-1.2,4.8-1.2c2.3-0.1,4.5,0.8,6.2,2.4
	c1.6,1.9,2.4,4.3,2.3,6.7v2.2h-11.5c0.2,0.9,0.6,1.8,1.4,2.4s1.7,0.9,2.7,0.9c1.6,0.1,3.2-0.6,4.3-1.9l2.6,3.1
	c-0.8,1-1.8,1.9-3.1,2.4C262.7,396,261.2,396.3,259.7,396.3L259.7,396.3z M259.1,381.5c-1.7,0-2.7,1.1-3,3.4h5.8v-0.4
	c0.1-0.8-0.2-1.6-0.7-2.1C260.6,381.8,259.9,381.5,259.1,381.5z M275.1,377.4l0.2,2.2c1.2-1.7,3.2-2.6,5.3-2.5
	c1.6-0.1,3.2,0.5,4.3,1.7c1.1,1.5,1.6,3.3,1.5,5.2v11.9h-5.8v-11.7c0.1-0.7-0.1-1.5-0.6-2.1c-0.6-0.5-1.3-0.7-2.1-0.7
	c-1-0.1-2,0.5-2.5,1.3v13.1h-5.8v-18.5L275.1,377.4L275.1,377.4z M308.7,395.9c-0.3-0.5-0.4-1.1-0.5-1.7c-1.1,1.3-2.7,2.1-4.4,2
	c-1.6,0-3.2-0.5-4.4-1.6c-1.2-1-1.9-2.4-1.8-4c-0.1-1.8,0.7-3.5,2.2-4.5c2-1.1,4.2-1.7,6.5-1.5h1.8v-1c0-1.7-0.7-2.5-2.2-2.5
	c-1-0.1-1.9,0.5-2,1.5c0,0.2,0,0.3,0,0.5h-5.8c0-1.7,0.8-3.4,2.3-4.4c1.7-1.2,3.7-1.8,5.8-1.7c2-0.1,4,0.5,5.6,1.7
	c1.4,1.2,2.2,2.9,2.1,4.7v8.2c-0.1,1.3,0.2,2.7,0.8,3.9v0.3L308.7,395.9L308.7,395.9z M305.1,392.2c0.6,0,1.2-0.1,1.8-0.5
	c0.4-0.3,0.8-0.6,1-1v-3h-1.7c-2,0-3,0.9-3,2.7c0,0.5,0.2,0.9,0.5,1.3C304.1,392,304.6,392.2,305.1,392.2z M323,395.9h-5.8v-26.2
	h5.8V395.9z M344.2,396.3c-2.5,0.1-5-0.8-6.9-2.5c-1.8-1.7-2.7-4.1-2.6-6.6v-0.5c0-1.7,0.3-3.4,1.1-5c0.7-1.4,1.7-2.6,3.1-3.4
	c1.5-0.8,3.1-1.2,4.8-1.2c2.3-0.1,4.5,0.8,6.2,2.4c1.6,1.9,2.4,4.3,2.3,6.7v2.2h-11.5c0.2,0.9,0.6,1.8,1.4,2.4s1.7,0.9,2.7,0.9
	c1.6,0.1,3.2-0.6,4.3-1.9l2.6,3.1c-0.8,1-1.8,1.9-3.1,2.4C347.1,396,345.6,396.3,344.2,396.3L344.2,396.3z M343.5,381.5
	c-1.7,0-2.7,1.1-3,3.3h5.8v-0.4c0.1-0.8-0.2-1.6-0.7-2.1C345.1,381.8,344.3,381.5,343.5,381.5L343.5,381.5z M343.5,369.7h6.1
	l-4.8,5.4h-4.7L343.5,369.7z M361.8,382.5l2.7-5.1h6l-4.9,9l5.1,9.5h-6l-2.9-5.5l-2.9,5.5h-6l5.1-9.5l-4.9-9h6.1L361.8,382.5z
	 M378.4,395.9h-5.8v-18.5h5.8V395.9z M372.2,372.7c0-0.8,0.3-1.5,0.9-2c1.4-1,3.3-1,4.6,0c1.1,1,1.2,2.7,0.2,3.9
	c-0.1,0.1-0.1,0.1-0.2,0.2c-1.4,1-3.3,1-4.6,0C372.6,374.2,372.2,373.4,372.2,372.7z M388.6,372.8v4.6h3v4h-3v8.5
	c-0.1,0.5,0.1,1,0.4,1.4c0.4,0.3,1,0.5,1.5,0.4c0.5,0,1,0,1.4-0.1v4.1c-1,0.3-2.1,0.5-3.2,0.5c-1.6,0.1-3.2-0.4-4.4-1.4
	c-1-1.2-1.5-2.7-1.4-4.3v-9.2h-2.4v-4h2.4v-4.6L388.6,372.8z M392.7,386.5c0-1.7,0.3-3.4,1.1-4.9c0.7-1.4,1.8-2.6,3.1-3.3
	c1.4-0.8,3.1-1.2,4.7-1.2c2.5-0.1,4.8,0.8,6.5,2.6c1.7,1.9,2.5,4.4,2.4,7v0.2c0.1,2.5-0.7,5-2.4,6.9c-1.7,1.7-4.1,2.7-6.5,2.5
	c-2.3,0.1-4.6-0.7-6.3-2.4c-1.7-1.7-2.6-4-2.6-6.4V386.5z M398.4,386.9c-0.1,1.3,0.2,2.6,0.8,3.8c0.5,0.8,1.4,1.2,2.4,1.2
	c2.1,0,3.1-1.6,3.1-4.7v-0.6c0-3.3-1.1-5-3.2-5c-1.9,0-3,1.4-3.1,4.3V386.9z M430.7,396.3c-2.5,0.1-5-0.8-6.9-2.5
	c-1.8-1.7-2.7-4.1-2.6-6.6v-0.5c0-1.7,0.3-3.4,1.1-5c0.7-1.4,1.7-2.6,3.1-3.4c1.5-0.8,3.1-1.2,4.8-1.2c2.3-0.1,4.5,0.8,6.2,2.4
	c1.6,1.9,2.4,4.3,2.3,6.7v2.2h-11.5c0.2,0.9,0.6,1.8,1.3,2.4c0.8,0.6,1.7,0.9,2.7,0.9c1.6,0.1,3.2-0.6,4.3-1.9l2.6,3.1
	c-0.8,1-1.8,1.9-3.1,2.4C433.6,396,432.2,396.3,430.7,396.3L430.7,396.3z M430.1,381.5c-1.7,0-2.7,1.1-3,3.4h5.8v-0.4
	c0.1-0.8-0.2-1.6-0.7-2.1C431.6,381.8,430.9,381.5,430.1,381.5L430.1,381.5z M446.1,377.4l0.2,2.2c1.2-1.7,3.2-2.6,5.3-2.5
	c1.6-0.1,3.2,0.5,4.3,1.7c1.1,1.5,1.6,3.3,1.5,5.2v11.9h-5.8v-11.7c0.1-0.7-0.1-1.5-0.6-2.1c-0.6-0.5-1.3-0.7-2.1-0.7
	c-1-0.1-2,0.5-2.5,1.3v13.1h-5.8v-18.5L446.1,377.4z M475.4,395.9h-5.8v-26.2h5.8V395.9z M489.3,395.9c-0.3-0.5-0.4-1.1-0.5-1.7
	c-1.1,1.3-2.7,2.1-4.4,2c-1.6,0-3.2-0.5-4.4-1.6c-1.2-1-1.9-2.4-1.8-4c-0.1-1.8,0.7-3.5,2.2-4.5c2-1.1,4.2-1.7,6.5-1.5h1.8v-1
	c0-1.7-0.7-2.5-2.2-2.5c-1-0.1-1.9,0.5-2,1.5c0,0.2,0,0.3,0,0.5h-5.8c0-1.7,0.8-3.4,2.3-4.4c1.7-1.2,3.7-1.8,5.8-1.7
	c2-0.1,4,0.5,5.6,1.7c1.4,1.2,2.2,2.9,2.1,4.7v8.2c-0.1,1.3,0.2,2.7,0.8,3.9v0.3L489.3,395.9L489.3,395.9z M485.7,392.2
	c0.6,0,1.2-0.1,1.8-0.5c0.4-0.3,0.8-0.6,1-1v-3h-1.7c-2,0-3,0.9-3,2.7c0,0.5,0.2,0.9,0.5,1.3C484.7,392,485.2,392.2,485.7,392.2z
	 M513.6,389.1l2.9-11.6h6.1l-6,18.5h-5.9l-6-18.5h6.1L513.6,389.1z M533,396.3c-2.5,0.1-5-0.8-6.9-2.5c-1.8-1.7-2.7-4.1-2.6-6.6
	v-0.5c0-1.7,0.3-3.4,1.1-5c0.7-1.4,1.7-2.6,3.1-3.4c1.5-0.8,3.1-1.2,4.8-1.2c2.3-0.1,4.5,0.8,6.2,2.4c1.6,1.9,2.4,4.3,2.3,6.7v2.2
	h-11.5c0.2,0.9,0.6,1.8,1.4,2.4c0.8,0.6,1.7,0.9,2.7,0.9c1.6,0.1,3.2-0.6,4.3-1.9l2.6,3.1c-0.8,1-1.8,1.9-3.1,2.4
	C535.9,396,534.5,396.3,533,396.3L533,396.3z M532.4,381.5c-1.7,0-2.7,1.1-3,3.3h5.8v-0.4c0.1-0.8-0.2-1.6-0.7-2.1
	C533.9,381.8,533.1,381.5,532.4,381.5L532.4,381.5z M548.4,377.4l0.2,2.2c1.2-1.7,3.2-2.6,5.3-2.5c1.6-0.1,3.2,0.5,4.3,1.7
	c1.1,1.5,1.6,3.3,1.5,5.2v11.9h-5.8v-11.7c0.1-0.7-0.1-1.5-0.6-2.1c-0.6-0.5-1.3-0.7-2.1-0.7c-1-0.1-2,0.5-2.5,1.3v13.1H543v-18.5
	L548.4,377.4z M569.6,372.8v4.6h3v4h-3v8.5c-0.1,0.5,0.1,1,0.4,1.5c0.4,0.3,1,0.5,1.5,0.4c0.5,0,1,0,1.4-0.1v4.1
	c-1,0.3-2.1,0.5-3.2,0.5c-1.6,0.1-3.2-0.4-4.4-1.4c-1-1.2-1.5-2.7-1.4-4.3v-9.2h-2.4v-4h2.4v-4.6H569.6z M585.3,395.9
	c-0.3-0.5-0.4-1.1-0.5-1.7c-1.1,1.3-2.7,2.1-4.4,2c-1.6,0-3.2-0.5-4.4-1.6c-1.2-1-1.9-2.4-1.8-4c-0.1-1.8,0.7-3.5,2.2-4.5
	c2-1.1,4.2-1.7,6.5-1.5h1.8v-1c0-1.7-0.7-2.5-2.2-2.5c-1-0.1-1.9,0.5-2,1.5c0,0.2,0,0.3,0,0.5h-5.8c0-1.7,0.8-3.4,2.3-4.4
	c1.7-1.2,3.7-1.8,5.8-1.7c2-0.1,4,0.5,5.6,1.7c1.4,1.2,2.2,2.9,2.1,4.7v8.2c-0.1,1.3,0.2,2.7,0.8,3.9v0.3L585.3,395.9L585.3,395.9z
	 M581.7,392.2c0.6,0,1.2-0.1,1.8-0.5c0.4-0.3,0.8-0.6,1-1v-3h-1.7c-2,0-3,0.9-3,2.7c0,0.5,0.2,0.9,0.5,1.3
	C580.7,392,581.2,392.2,581.7,392.2z M148.7,424.3c0-0.8-0.3-1.6-0.9-2.1c-1-0.7-2.1-1.2-3.3-1.5c-1.3-0.4-2.6-0.9-3.8-1.5
	c-3.2-1.6-4.8-3.8-4.8-6.5c0-1.3,0.4-2.6,1.2-3.7c0.9-1.1,2.1-2,3.4-2.5c1.6-0.6,3.3-0.9,5-0.9s3.3,0.3,4.8,1
	c1.3,0.6,2.5,1.5,3.3,2.7s1.2,2.6,1.2,4h-6c0.1-0.9-0.3-1.7-0.9-2.4c-0.7-0.6-1.6-0.9-2.5-0.8c-0.9,0-1.8,0.2-2.5,0.7
	c-1,0.6-1.2,1.9-0.6,2.9c0.2,0.3,0.4,0.5,0.7,0.6c1.1,0.7,2.3,1.3,3.6,1.6c1.5,0.4,2.9,1,4.2,1.8c2.7,1.6,4,3.7,4,6.4
	c0.1,2-0.8,3.9-2.5,5.1c-2,1.3-4.4,2-6.8,1.9c-1.9,0-3.7-0.3-5.5-1.1c-1.5-0.6-2.8-1.6-3.7-3c-0.8-1.3-1.3-2.8-1.2-4.3h6
	c-0.1,1.1,0.3,2.2,1,2.9c1,0.7,2.2,1.1,3.4,0.9c0.8,0,1.7-0.2,2.4-0.6C148.4,425.7,148.7,425,148.7,424.3z M163.8,422.5v8.4h-6V406
	h9.9c1.7,0,3.5,0.3,5,1.1c1.4,0.6,2.6,1.7,3.4,3s1.2,2.8,1.2,4.4c0.1,2.2-0.9,4.4-2.6,5.8c-2,1.6-4.6,2.3-7.2,2.2H163.8z
	 M163.8,417.9h3.9c1,0.1,1.9-0.2,2.7-0.9c0.6-0.7,1-1.5,0.9-2.5c0.1-1-0.3-2-0.9-2.8c-0.7-0.7-1.6-1.1-2.6-1.1h-4V417.9z M187,430.9
	h-6V406h6V430.9z M211.9,430.9h-6l-8.8-15.5v15.5h-6V406h6l8.8,15.5V406h6V430.9z M233.8,425.7c0-0.5-0.3-1-0.8-1.2
	c-0.9-0.4-1.9-0.7-2.9-0.9c-1.2-0.2-2.4-0.7-3.6-1.3c-0.9-0.4-1.6-1.1-2.1-1.9s-0.8-1.6-0.7-2.5c0-1.7,0.8-3.2,2.1-4.2
	c1.6-1.2,3.5-1.7,5.5-1.7c2.1-0.1,4.2,0.5,5.9,1.7c1.4,1,2.3,2.6,2.2,4.4h-5.8c0-1.5-0.8-2.2-2.3-2.2c-0.6,0-1.1,0.2-1.5,0.5
	s-0.6,0.8-0.6,1.3s0.3,1,0.8,1.2c0.7,0.4,1.6,0.7,2.4,0.8c1,0.2,2,0.4,2.9,0.7c2.8,1,4.2,2.7,4.2,5.1c0,1.7-0.8,3.2-2.2,4.1
	c-1.7,1.1-3.8,1.7-5.8,1.6c-1.5,0-2.9-0.3-4.2-0.9c-1.2-0.5-2.2-1.3-2.9-2.3c-0.7-0.9-1-2-1-3.1h5.4c0,0.7,0.3,1.4,0.9,1.9
	c0.6,0.4,1.4,0.6,2.1,0.6c0.6,0,1.3-0.1,1.8-0.5C233.6,426.7,233.8,426.2,233.8,425.7L233.8,425.7z M241.4,421.5
	c0-1.7,0.3-3.4,1.1-4.9c0.7-1.4,1.8-2.6,3.1-3.3c1.4-0.8,3.1-1.2,4.7-1.2c2.5-0.1,4.8,0.8,6.5,2.6c1.7,1.9,2.5,4.4,2.4,7v0.2
	c0.1,2.5-0.7,5-2.4,6.9c-1.7,1.7-4.1,2.7-6.5,2.5c-2.3,0.1-4.6-0.7-6.3-2.4c-1.7-1.7-2.6-4-2.6-6.4L241.4,421.5z M247.1,421.9
	c-0.1,1.3,0.2,2.6,0.8,3.8c0.5,0.8,1.4,1.2,2.4,1.2c2.1,0,3.1-1.6,3.1-4.7v-0.6c0-3.3-1.1-5-3.2-5c-1.9,0-3,1.4-3.1,4.3L247.1,421.9
	z M267,412.4l0.2,2.2c1.2-1.7,3.2-2.6,5.3-2.5c1.6-0.1,3.2,0.5,4.3,1.7c1.1,1.5,1.6,3.3,1.5,5.2v11.9h-5.8v-11.7
	c0.1-0.7-0.1-1.5-0.6-2.1c-0.6-0.5-1.3-0.7-2.1-0.7c-1-0.1-2,0.5-2.5,1.3v13.1h-5.8v-18.5L267,412.4z M285.1,425.3
	c0.8,0,1.6,0.3,2.3,0.8c1.1,1.1,1.2,2.9,0.1,4c0,0.1-0.1,0.1-0.1,0.2c-1.3,1.1-3.2,1.1-4.6,0c-1.1-1.1-1.2-2.9-0.1-4l0.1-0.1
	C283.4,425.6,284.2,425.3,285.1,425.3L285.1,425.3z M285.1,411.7c0.8,0,1.6,0.3,2.3,0.8c1.1,1.1,1.2,2.9,0.1,4
	c0,0.1-0.1,0.1-0.1,0.1c-1.3,1.1-3.2,1.1-4.6,0c-1.1-1.1-1.2-2.9-0.1-4l0.1-0.1C283.4,412,284.2,411.7,285.1,411.7L285.1,411.7z"/>
<g id="Grupo_85504" transform="translate(1038.088 26495.084)">
	<g id="Grupo_85503" transform="translate(98.69 74.754)">
		<g id="Grupo_85500" transform="translate(0 139.505)">
			<g id="Grupo_85495" transform="translate(16.408 169.411)">
				<g id="Grupo_85490" transform="translate(174.017 32.621)">
					<g id="Grupo_85487" transform="translate(37.752 22.294)">
						<path id="Trazado_106166" class="st12" d="M-96.1-26197.6c0,0-9.9,19.4-25.8,14.8C-117.8-26198.9-96.1-26197.6-96.1-26197.6z"
							/>
						<path id="Trazado_106167" class="st13" d="M-135.9-26209c0,0-1.9,21.7,14.1,26.2C-116.8-26198.6-135.9-26209-135.9-26209z"/>
					</g>
					<g id="Grupo_85488" transform="translate(31.465 44.489)">
						<path id="Trazado_106168" class="st12" d="M-97.8-26190.4c0,0-13.3,17.2-28.1,9.8C-118.9-26195.7-97.8-26190.4-97.8-26190.4z"
							/>
						<path id="Trazado_106169" class="st13" d="M-134.9-26209c0,0-5.9,21,9,28.3C-118-26195.2-134.9-26209-134.9-26209z"/>
					</g>
					<g id="Grupo_85489" transform="translate(20.704 64.804)">
						<path id="Trazado_106170" class="st12" d="M-99.5-26184.5c0,0-16,14.8-29.3,4.9C-119.4-26193.2-99.5-26184.5-99.5-26184.5z"/>
						<path id="Trazado_106171" class="st13" d="M-132.9-26209c0,0-9.3,19.7,4.1,29.5C-118.6-26192.6-132.9-26209-132.9-26209z"/>
					</g>
					<path id="Trazado_106172" class="st14" d="M-136-26086.5c0,0,48.5-36.2,57.3-97.5"/>
					<path id="Trazado_106173" class="st12" d="M-75.3-26209c0,0,9,19.8-4.5,29.4C-89.9-26192.8-75.3-26209-75.3-26209z"/>
				</g>
				<path id="Trazado_106174" class="st12" d="M-6.1-26032.8c0,0,12-108.7,59.4-118.6s5.6,63.8-7.5,86.2
					c-13.1,22.4,12.6,4.1,28.1-7.8C86.2-26082.5,90.2-26027.2-6.1-26032.8z"/>
				<path id="Trazado_106175" class="st13" d="M28.6-26112c4.2-20.1,38.6-39.4,38.6-39.4c-3.4-1.1-7.9-1.2-13.9,0
					c-47.4,9.8-59.4,118.6-59.4,118.6c1.8,0.1,3.6,0.2,5.4,0.2c0.3,0,0.5-0.1,0.8-0.1C49.9-26040.3,27.3-26097.4,28.6-26112z"/>
				<path id="Trazado_106176" class="st15" d="M70.2-26149.9c0,0-33.7,23.7-50.9,93.7"/>
				<path id="Trazado_106177" class="st13" d="M73.9-26073c-10.4,8-25.4,18.8-30.2,18.3c5.8,9.7,28.6-9.3,36.2-16.1
					C79.1-26074,76.7-26075.2,73.9-26073z"/>
				<path id="Trazado_106178" class="st15" d="M68.6-26110.1c-10.7-0.9-21.4,0.6-31.5,4.3"/>
				<g id="Grupo_85494">
					<g id="Grupo_85491" transform="translate(0 29.874)">
						<path id="Trazado_106179" class="st12" d="M-136-26202.5c0,0,8.2,24.3,27.5,21.6C-110.4-26200.3-136-26202.5-136-26202.5z"/>
						<path id="Trazado_106180" class="st13" d="M-87.6-26209c0,0-1.5,25.6-20.9,28.1C-111.7-26200.1-87.6-26209-87.6-26209z"/>
					</g>
					<g id="Grupo_85492" transform="translate(4.339 56.633)">
						<path id="Trazado_106181" class="st12" d="M-136-26193.7c0,0,12.6,22.4,31.1,16.2C-110.5-26196.2-136-26193.7-136-26193.7z"/>
						<path id="Trazado_106182" class="st13" d="M-89.6-26209c0,0,3.3,25.4-15.3,31.5C-111.6-26195.8-89.6-26209-89.6-26209z"/>
					</g>
					<g id="Grupo_85493" transform="translate(14.328 81.802)">
						<path id="Trazado_106183" class="st12" d="M-136-26186.1c0,0,16.1,19.9,33.3,10.7C-111.3-26192.9-136-26186.1-136-26186.1z"/>
						<path id="Trazado_106184" class="st13" d="M-92.9-26209c0,0,7.5,24.5-9.8,33.6C-112.3-26192.3-92.9-26209-92.9-26209z"/>
					</g>
					<path id="Trazado_106185" class="st16" d="M-60.6-26055.9c0,0-50.4-50.4-50.2-123.4"/>
					<path id="Trazado_106186" class="st12" d="M-110.4-26209c0,0-13.8,21.6,0.3,35C-96.2-26187.6-110.4-26209-110.4-26209z"/>
				</g>
			</g>
			<ellipse id="Elipse_4246" class="st17" cx="-7" cy="-25862.6" rx="84" ry="4.7"/>
			<g id="Grupo_85499">
				<g id="Grupo_85498">
					<g id="Grupo_85496">
						<path id="Trazado_106187" class="st18" d="M-136-26147c33.6-38.9,76.9-62,124.9-62c63.9,0,114.4,33.6,114.4,98.5
							c0,62.5-76.4,77.8-76.4,106.7v26.4H-62l-0.5-38.4c0-44.2,76.4-69.2,76.4-95.6c0-18.3-18.7-22.6-35.6-22.6
							c-20.7,0-46.1,20.2-62.5,39.4L-136-26147z M-20.2-25965.4c34.1,0,57.2,23.5,57.2,50.9c0,26.9-22.1,49.5-57.2,49.5
							c-31.2,0-54.8-24.5-54.8-49.5C-75-25938.5-54.8-25965.4-20.2-25965.4L-20.2-25965.4z"/>
					</g>
					<g id="Grupo_85497" transform="translate(11.09)">
						<path id="Trazado_106188" class="st19" d="M-136-26147c33.6-38.9,76.9-62,124.9-62c63.9,0,114.4,33.6,114.4,98.5
							c0,62.5-76.4,77.8-76.4,106.7v26.4H-62l-0.5-38.4c0-44.2,76.4-69.2,76.4-95.6c0-18.3-18.7-22.6-35.6-22.6
							c-20.7,0-46.1,20.2-62.5,39.4L-136-26147z M-20.2-25965.4c34.1,0,57.2,23.5,57.2,50.9c0,26.9-22.1,49.5-57.2,49.5
							c-31.2,0-54.8-24.5-54.8-49.5C-75-25938.5-54.8-25965.4-20.2-25965.4L-20.2-25965.4z"/>
					</g>
					<path id="Trazado_106189" class="st18" d="M-84.1-26094.6H-73l-11.3-11.4L-84.1-26094.6z"/>
				</g>
				<path id="Trazado_106190" class="st20" d="M-39.6-26124l-7.7-59.1l14.2-24.3c-11.8,1.8-23.4,5-34.4,9.6
					c-6.4,11.1-14.2,28-11,39.4c4.9,18.3,20.5,44.1,20.5,44.1L-39.6-26124z"/>
				<path id="Trazado_106191" class="st20" d="M48.1-26106c0,0-3.9,14.2-12.6,8.3c-8.7-5.9-22.2-19-22.2-19l14.4-53.8l-38.5-23.5
					l7.6-15l58.6,35L48.1-26106z"/>
			</g>
		</g>
		<g id="Grupo_85502" transform="translate(70.344)">
			<g id="Grupo_85501">
				<path id="Trazado_106192" class="st21" d="M-72.7-26076.5v22l14.9,2.5l28.1,15.6l-21.5,56l28.5,17.6c2.4,1.5,5.5,0.7,6.9-1.6
					c0.5-0.8,0.8-1.8,0.7-2.8c-0.1-4.2-0.8-8.4-2-12.5l19.2-49.5c4.4-11.4-0.5-24.2-11.3-29.9l-37.8-19.5L-72.7-26076.5z"/>
				<path id="Trazado_106193" class="st13" d="M-51.2-25980.3l28.5,17.6c2.4,1.5,5.5,0.7,6.9-1.6c0.5-0.8,0.8-1.8,0.7-2.8
					c-0.1-4.2-0.8-8.4-2-12.5c-10.7-2.7-20.4-8.2-28.3-15.9L-51.2-25980.3z"/>
				<path id="Trazado_106194" class="st21" d="M-72.7-26054.5h-8.5l-23,27.4l8.2,55.3l-29.3,13.2c-2.2,1-4.8,0-5.8-2.2
					c-0.2-0.5-0.4-1-0.4-1.6c-0.2-4.2,0.1-9.8,2.6-14.7l-6.8-52.2c-0.9-6.6,1.4-13.3,6.1-18l31.2-31.2l25.7,2.1
					C-72.7-26076.4-72.7-26054.5-72.7-26054.5z"/>
				<path id="Trazado_106195" class="st13" d="M-96.1-25971.8l-2.9-19.5l0,0c-14.9,16.3-30,14.2-30,14.2c-2.4,4.9-2.8,10.5-2.6,14.7
					c0.1,2.4,2.2,4.3,4.6,4.2c0.6,0,1.1-0.2,1.6-0.4L-96.1-25971.8z"/>
				<path id="Trazado_106196" class="st22" d="M-6.6-26057.4c-6.6,7-6.3,18,0.7,24.6c2.2,2.1,4.9,3.5,7.8,4.3l0.2-0.6
					C6.1-26039.4,2.5-26051.1-6.6-26057.4z"/>
				<path id="Trazado_106197" class="st22" d="M-120.7-26037.7c0-4.9-2.4-9.5-6.4-12.2l-2.6,2.6c-4.7,4.7-7,11.4-6.1,18l0.8,6.5
					C-127-26023.2-120.7-26029.7-120.7-26037.7z"/>
				<path id="Trazado_106198" class="st23" d="M-47-26078.6l-22.9,1.9c-2,7.5-2.6,17.2-2.8,22.3l14.9,2.5l17.5,9.7
					c2.8-9.4,7.3-18.2,13.2-26.1L-47-26078.6z"/>
				<path id="Trazado_106199" class="st23" d="M-15.9-25975.4c-0.3-1.4-0.7-2.9-1.1-4.3c-5.6-1.4-11.1-3.6-16.1-6.6
					C-31.9-25982.7-27.9-25977.4-15.9-25975.4z"/>
				<path id="Trazado_106200" class="st23" d="M-113.2-25980.5c-9,4.3-15.9,3.4-15.9,3.4c-0.8,1.7-1.5,3.5-1.9,5.3
					C-125.5-25972.2-117.3-25973.8-113.2-25980.5z"/>
				<path id="Trazado_106201" class="st22" d="M-98.5-26078.6l-31.2,31.2c-4.7,4.7-7,11.4-6.1,18l0.1,0.9
					c25.4-3.9,46.1-35.6,53.7-48.8L-98.5-26078.6z"/>
				<path id="Trazado_106202" class="st24" d="M-98.5-26159.4c0,0-8.9,3.7-13.6,14.9c-4.7,11.2-12.1,34.8-12.1,34.8l25.8-9.9
					L-98.5-26159.4L-98.5-26159.4z"/>
				<path id="Trazado_106203" class="st25" d="M-72.7-26169.5l-25.8,10.1v80.8c0,0,9,2.1,25.7,2.1s25.7-2.1,25.7-2.1v-80.8
					L-72.7-26169.5z"/>
				<path id="Trazado_106204" class="st25" d="M-98.5-26159.4c0,0-8.9,3.7-13.6,14.9c-1.4,3.4-3.1,7.9-4.8,12.6
					c4.9,1.1,12.6,3.4,18.4,7.8V-26159.4z"/>
				<path id="Trazado_106205" class="st13" d="M-70.5-26153.5l-28,57.4v-23.6L-70.5-26153.5z"/>
				<path id="Trazado_106206" class="st13" d="M-55.5-26137.3c0,0,1.6,35.1,0,43.1s-6.3,18.3-6.3,28.9c0,10.6,14.8-21.3,14.8-21.3
					v-32L-55.5-26137.3z"/>
				<path id="Trazado_106207" class="st26" d="M-47-26159.4L-47-26159.4c8.1,3.7,13.8,11.2,15,19.9l5.9,42.1
					c0.7,5.3-0.6,10.7-3.7,15.1l-14,19.3v18.6c0,2-1.6,3.7-3.7,3.7c-0.3,0-0.6,0-0.9-0.1c-5.3-1.4-13.4-4.3-13.4-9.1v-15.2
					c0-4.1,1.1-8.2,3.3-11.7l11.5-19.4l-8.2-38.3C-55.2-26134.4-58.4-26155.7-47-26159.4z"/>
				<path id="Trazado_106208" class="st25" d="M-29.7-26123.3l-2.3-16.3c-1.2-8.7-6.9-16.2-14.9-19.8H-47c-11.4,3.7-8.2,25-8.2,25
					l2.9,13.6C-45.1-26123.5-37.3-26124.3-29.7-26123.3z"/>
				<path id="Trazado_106209" class="st27" d="M-33.7-26091.4c0,3.3,1.6,6.4,4.2,8.3c2.9-4.2,4.1-9.4,3.4-14.5l-0.5-3.7
					C-30.8-26099.8-33.7-26095.8-33.7-26091.4z"/>
				<line id="Línea_276" class="st28" x1="-47" y1="-26096.2" x2="-42.7" y2="-26102.9"/>
				<path id="Trazado_106210" class="st26" d="M-72.7-26161.2L-72.7-26161.2c-3.5,0-6.2-2.7-6.2-6.1v-10.1h12.3v10.1
					C-66.6-26163.9-69.3-26161.2-72.7-26161.2z"/>
				<path id="Trazado_106211" class="st29" d="M-63.9-26185.9c1.1-1.5,1.6-3.3,1.6-5.1c0-3.3,0.7-10.2-4.2-13s-14.8-7.2-13.2-3.6
					s0.4,3.1-2.9,3s-2.7,11.4,0,15.9C-79.9-26184.2-63.9-26185.9-63.9-26185.9z"/>
				<path id="Trazado_106212" class="st26" d="M-78.9-26185.5c-0.2,1.6-1.6,2.8-3.3,2.6c-1.7-0.2-2.8-1.6-2.6-3.3
					c0.2-1.5,1.4-2.6,2.9-2.6C-80.1-26188.6-78.8-26187.2-78.9-26185.5z"/>
				<path id="Trazado_106213" class="st26" d="M-66.6-26185.5c0.2,1.6,1.6,2.8,3.3,2.6c1.6-0.2,2.8-1.6,2.6-3.3
					c-0.2-1.5-1.4-2.6-2.9-2.6C-65.3-26188.6-66.7-26187.2-66.6-26185.5z"/>
				<path id="Trazado_106214" class="st26" d="M-72.6-26172.2h-0.2c-4.8,0-8.7-3.9-8.7-8.7v-12.4c0-3.5,2.8-6.3,6.3-6.3h4.9
					c3.5,0,6.3,2.8,6.3,6.3v12.4C-63.9-26176.1-67.8-26172.2-72.6-26172.2z"/>
				<path id="Trazado_106215" class="st30" d="M-78.9-26177.4v10.1c0,0.2,0,0.3,0,0.5c8,0,12.3-7.8,12.3-7.8l-6.8-2.8H-78.9z"/>
				<path id="Trazado_106216" class="st29" d="M-76-26189.2c0,0.7-0.3,1.2-0.7,1.2s-0.7-0.6-0.7-1.2c0-0.6,0.3-1.2,0.7-1.2
					S-76-26189.9-76-26189.2z"/>
				<path id="Trazado_106217" class="st31" d="M-75-26193.3c0,0-2.2-1-3.9,0"/>
				<ellipse id="Elipse_4247" class="st29" cx="-68.8" cy="-26189.2" rx="0.7" ry="1.2"/>
				<path id="Trazado_106218" class="st31" d="M-70.5-26193.3c0,0,2.2-1,3.9,0"/>
				<path id="Trazado_106219" class="st29" d="M-68.8-26182.5c-4-0.6-2.4-0.6-4-0.6s0,0-4,0.6s-4.8-6.3-4.8-6.3v7.8
					c0,4.8,3.9,8.7,8.7,8.7h0.2c4.8,0,8.7-3.9,8.7-8.7l0,0v-7.8C-63.9-26188.7-64.8-26181.9-68.8-26182.5z"/>
				<path id="Trazado_106220" class="st26" d="M-123.5-26110.9l47.3-65.6c0.6-0.8,1.6-0.9,2.4-0.4l0.1,0.1l0,0
					c0.6,0.5,0.7,1.3,0.4,2l-3,6.6l2.7,2.4c4.1,3.6,4.9,9.7,1.9,14.3l-34.5,52.5c-3.2,4.8-9.6,6.1-14.4,2.9
					c-0.3-0.2-0.6-0.5-0.9-0.7l-0.2-0.1C-125.9-26100.4-126.7-26106.5-123.5-26110.9z"/>
				<path id="Trazado_106221" class="st27" d="M-122.1-26108.4c-1,0-1.9,0.1-2.8,0.4c-1.3,4,0,8.4,3.2,11.2l0.2,0.1
					c3.2,2.7,7.8,3.2,11.5,1.2c0-0.3,0-0.5,0-0.8C-110-26103-115.4-26108.4-122.1-26108.4z"/>
				<line id="Línea_277" class="st28" x1="-55.6" y1="-26043.6" x2="-55.6" y2="-26057.4"/>
				<path id="Trazado_106222" class="st32" d="M-29.8-26082.5c3.1-4.3,4.5-9.7,3.7-15.1l-5.9-42.1c-0.9-6.2-4-11.8-8.7-15.8
					c-1.2,5.1-3,18.4,0.7,40.9c4.9,30-3.8,51.3-3.8,51.3L-29.8-26082.5z"/>
				<path id="Trazado_106223" class="st32" d="M-60.7-26185.5c0-1.3-0.8-2.6-2-3.1c0.2-0.8,0.3-1.6,0.3-2.5c0-3.3,0.7-10.2-4.2-13
					c-0.1,0-0.1-0.1-0.2-0.1c-0.1,1.7-0.5,3.4-1.3,4.9c-1,2.7-4.6,20.2,0,25.8c2.6-1.6,4.2-4.4,4.2-7.5v-1.3c0.1,0,0.2,0,0.3,0
					C-61.9-26182.3-60.6-26183.7-60.7-26185.5z"/>
				<path id="Trazado_106224" class="st32" d="M-73.4-26165.7c0,0-31.7,40.6-30.2,62.9l0,0l32.1-48.6
					C-68.5-26156-69.3-26162.1-73.4-26165.7z"/>
				<path id="Trazado_106225" class="st12" d="M-69.2-26123c-3.9,8.5-20.7,24.1-29.3,31.8v12.6
					C-69.3-26086.8-63.8-26134.6-69.2-26123z"/>
			</g>
			<path id="Trazado_106226" class="st33" d="M-107.7-25983.7l-5.5-44.9l32-34.7h11.8"/>
			<path id="Trazado_106227" class="st33" d="M-40.8-26053.5l20.3,12.6l-18.5,50.8"/>
		</g>
	</g>
</g>
</svg>
