<svg xmlns="http://www.w3.org/2000/svg" width="399" height="472" viewBox="0 0 399 472">
  <g id="Grupo_87747" data-name="Grupo 87747" transform="translate(-181 -30837)">
    <rect id="Rectángulo_33963" data-name="Rectángulo 33963" width="399" height="472" transform="translate(181 30837)" fill="#f2df85"/>
    <g id="Grupo_85845" data-name="Grupo 85845" transform="translate(-27.405 30885.311)">
      <g id="Businessman" transform="translate(239.405 22.748)">
        <g id="Grupo_85832" data-name="Grupo 85832" transform="translate(150.315 196.967)">
          <path id="Trazado_108854" data-name="Trazado 108854" d="M1018.121,745.171c-1.019,14.232-2.566,65.707,15.158,86.943h34.608c.934-21.432-6.606-47.91-8.443-69.137-3.167-36.586-10.446-63.526-11.961-67.9-9.146-26.385-33.594-37.394-37.642-38.7C989.692,649.9,1019.168,730.563,1018.121,745.171Z" transform="translate(-882.058 -628.14)" fill="#fff"/>
          <path id="Trazado_108855" data-name="Trazado 108855" d="M827.14,781.48c.156-.65-3.2-40.778-3.2-57.93,0-62.415-17.085-111.116-17.085-111.116s-55.4-37.114-72.47-34.828c-47.06,6.3-62.267,26.736-62.267,26.736-1.581.728-10.536,97.818,6.845,177.137Z" transform="translate(-666.405 -577.505)" fill="#e1f4fd"/>
          <path id="Trazado_108856" data-name="Trazado 108856" d="M830.576,781.48c.156-.65-3.2-40.778-3.2-57.93,0-62.415-17.085-111.116-17.085-111.116s-55.4-37.114-72.47-34.828c-47.06,6.3-57.342,27.792-57.342,27.792-1.581.728-15.461,96.763,1.92,176.081Z" transform="translate(-669.842 -577.505)" fill="#fff"/>
          <path id="Trazado_108857" data-name="Trazado 108857" d="M692.75,889.313c14.054,5.682,24.22,22.725,40.965,19.137-15.848-6.878-27.809-19.137-37.676-33.789-11.363-16.147-12.858-34.686-15.848-53.524-.9-5.681-4.485-9.269-9.27-10.166a25.9,25.9,0,0,0-8.153-.85c.4,33.275,3.244,78.857,12.557,121.354h71.522C724.357,923.509,702.965,911.369,692.75,889.313Z" transform="translate(-662.769 -727.501)" fill="#e1f4fd"/>
          <path id="Trazado_108858" data-name="Trazado 108858" d="M869.9,597.376s-7.333,3.135-24.547,3.637c-5.414.157-12.314-13.925-17.383-14.846-4.884-.888-8.835-4-11.6-1.824-1.759,10.554,14.006,38.383,18.378,43.934a.9.9,0,0,0,1.39.034c2.736-3.2,5.01-9.5,6.505-11.712,1.424-2.105.724,4.28,3.687,6.913-3.095,7.045-5.325,43.712-6.076,69.016-1.026,28.525.547,74.895,6.456,92.872h17.182c2.254-14.8-3.005-38.054-.26-58.062,4.268-35.808-11.72-74.393-6.7-109.443,2.993,2.245,7.54,10.19,10.4,7.009,2.109-2.819,2.963-12.453,3.358-19.3S869.9,597.376,869.9,597.376Z" transform="translate(-761.745 -581.428)" fill="#e1f4fd"/>
          <path id="Trazado_108859" data-name="Trazado 108859" d="M1087.752,919.695h4.782c-4.2-17.211-9.763-42.952-10.649-62.267-1.495-32.587-3.166-65.619-3.166-65.619a330.1,330.1,0,0,0-.352,67.026C1080.9,884.179,1085.09,906.332,1087.752,919.695Z" transform="translate(-929.828 -715.721)" fill="#b6d3e2"/>
        </g>
        <g id="Grupo_85833" data-name="Grupo 85833" transform="translate(121.802 216.602)">
          <path id="Trazado_108860" data-name="Trazado 108860" d="M644.282,890.152c-.1-.458-1.123-2.634-1.251-3.117-21.811-82.319-.252-108.526,1.446-120.9,2.462-17.941-52.065-35.883-59.1,3.166-2.491,13.825-5.725,86.125,1.54,120.85Z" transform="translate(-582.461 -705.813)" fill="#b6d3e2"/>
          <path id="Trazado_108861" data-name="Trazado 108861" d="M640.6,817.147c-.1-.458-.214-.925-.342-1.407-21.811-82.319.042-112.646,3.87-124.534,3.516-10.928-9.9-58.439-16.534-58.4s-35.179,24.626-42.215,63.675c-2.491,13.825-5.725,85.939,1.54,120.664Z" transform="translate(-582.461 -632.808)" fill="#fff"/>
          <path id="Trazado_108862" data-name="Trazado 108862" d="M600.151,694.186c6.066-23.926,11.5-42.876,28.027-61.262a1.666,1.666,0,0,0-.587-.116c-6.628.044-35.179,24.626-42.215,63.675-2.491,13.825-5.725,85.939,1.54,120.664h15.3C593.073,779.3,590.106,732.89,600.151,694.186Z" transform="translate(-582.461 -632.808)" fill="#e1f4fd"/>
        </g>
        <g id="Grupo_85834" data-name="Grupo 85834" transform="translate(204.819 178.104)">
          <path id="Trazado_108863" data-name="Trazado 108863" d="M882.47,565.834c-3.633-3.939-1.128-11.429-1.61-16.237-.563-5.64,2.763-17.328,2.763-17.328l-43.089-7.892s4.031,17.207,2.7,30.513,16.252,8.989,23.152,7.08C869.162,561.2,879.8,570.776,882.47,565.834Z" transform="translate(-831.922 -524.378)" fill="#eba16e"/>
          <path id="Trazado_108864" data-name="Trazado 108864" d="M892.242,671.779c-.067,9.1-4.24,111.375,4.86,143.722h14.006c6.981-32.9,1.486-137.976-.213-146.775-2.063-10.668-5.657-16.179-5.657-16.179l2.651-14.256s-5.229-8.161-10.119-8.034-8.572,9.826-8.572,9.826,4.656,11.231,6.006,12.724S892.326,660.759,892.242,671.779Z" transform="translate(-863.307 -592.664)" fill="#5c6f7e"/>
          <path id="Trazado_108865" data-name="Trazado 108865" d="M897.492,638.55c-1.081.332-5.207,3.176-5.8,5.809-.911,7.154,4.9,7.7,10.256,7.218-2.476,1.108-1.73,3.716-3.623,6.658a6.154,6.154,0,0,0-2.467-4.814,34.41,34.41,0,0,0-2.054,5.076,15.587,15.587,0,0,0-1.8-.162c1.027-3.213,1.648-5.8,1.2-6.3-1.351-1.493-7.106-14.491-7.106-14.491s6.868-8.357,11.76-8.484,8.03,8.458,8.03,8.458l-1.476,7.942C900.511,643.4,898.579,638.216,897.492,638.55Z" transform="translate(-861.311 -591.893)" fill="#465561"/>
          <path id="Trazado_108866" data-name="Trazado 108866" d="M914.4,603.364c.251.9,9.587,16.554,14.26,20.694,1.819,1.613,4.585-18.863,4.694-21.922s-5.31-13.449-5.31-13.449a17.106,17.106,0,0,1-5.162,9.691A24.642,24.642,0,0,1,914.4,603.364Z" transform="translate(-879.563 -565.854)" fill="#fff"/>
          <path id="Trazado_108867" data-name="Trazado 108867" d="M827.3,562.6s-10.826,6.364-11.023,8.795c-.248,3.05,17.81,41.624,18.753,41.481,3.036-.459,8.267-19.582,16.083-26.335,0,0-9.575-3.11-14.983-7.45C831.044,575,827.3,562.6,827.3,562.6Z" transform="translate(-816.279 -549.028)" fill="#fff"/>
        </g>
        <g id="Grupo_85835" data-name="Grupo 85835" transform="translate(178.6 23.048)">
          <path id="Trazado_108868" data-name="Trazado 108868" d="M896.4,177.132c-6.156,42.829-46.042,89.854-88.87,83.7s-70.4-61.664-64.245-104.493S787.175,82.283,830,88.439A78.344,78.344,0,0,1,896.4,177.132Z" transform="translate(-742.433 -87.663)" fill="#002330"/>
          <path id="Trazado_108869" data-name="Trazado 108869" d="M937,194.79c-6.156,42.829-41.266,90.541-77.793,85.29s-58.974-60.022-52.819-102.851,30.559-66.721,67.086-61.47S943.156,151.962,937,194.79Z" transform="translate(-783.028 -105.322)" fill="#002c3d"/>
          <path id="Trazado_108870" data-name="Trazado 108870" d="M836.2,99.809s-6.2-3.626-13.125-2.135-19.091,11.683-19.091,11.683,14-7.439,18.669-7.018A23.758,23.758,0,0,1,831,104.783Z" transform="translate(-782.128 -93.887)" fill="#002330"/>
        </g>
        <g id="Grupo_85836" data-name="Grupo 85836" transform="translate(182.358 55.38)">
          <path id="Trazado_108871" data-name="Trazado 108871" d="M920.467,229.591s-.392,11.386-7.361,43.715c-3.92,18.189-17.43,39.03-28.212,47.91-9.1,7.494-20.375,17.242-38.326,13.47s-25.913-13.8-32.745-20.021c-7.385-6.729-20.185-25.493-17.382-47.76,2.744-21.8,2.454-40.5,3.549-52.273s15.215-43.355,61.637-34.3S921.9,215.479,920.467,229.591Z" transform="translate(-780.769 -178.725)" fill="#ffe5c7"/>
          <path id="Trazado_108872" data-name="Trazado 108872" d="M915.6,401.654c-7.7-5.487-6.175-16.591-7.614-25.163-.553-3.3-9.107-4.98-12.072-2.448-7.027,6.6-10.531,18.039-21.1,18.865-9.255.6-18.818.176-27.617-3.771-2.2-1.007-9.925-9.952-11.853-11.447.183,2.622-.624,9.238-.335,11.879,1.453.65,9.864,4.635,11.381,5.263,10.712,4.846,23.794,6.04,34.537.575,5.515-2.689,9.07-8.167,13.308-12.811,3.14-3.1,9.079-.033,10.292,3.154,2.228,6-.225,14,4.243,18.814,5.593,6.611,15.854,8.023,25.129,7.244.921-2.2,1.75-4.407,2.466-6.6C929.259,404.3,921.4,405.98,915.6,401.654Z" transform="translate(-805.853 -303.906)" fill="#f5d1a2"/>
          <path id="Trazado_108873" data-name="Trazado 108873" d="M815.268,297.114c-4.783-15.831-2.157-32.316-3.065-38.536-1.864-14.332-.035-10.928,1.509-25.154,2.085-17.857,10.286-34.762,18.242-50.06-23.132,5.811-31.15,25.506-31.964,34.259-1.095,11.774-.8,30.469-3.549,52.273-2.8,22.267,10,41.031,17.382,47.76,6.832,6.226,14.794,16.247,32.745,20.021q1.666.35,3.256.548C834.7,327.838,820.845,315.573,815.268,297.114Z" transform="translate(-780.769 -181.718)" fill="#f5d1a2"/>
          <path id="Trazado_108874" data-name="Trazado 108874" d="M985.657,229.6c1.432-14.112-12.418-40.2-58.841-49.255-11.924-2.327-21.7-1.96-29.693.051,2.273,13.5,9.956,23.339,18.877,34.144,24.125,22.226,46.378,27.186,56.535,39.59,5.16,5.89,6.271,14.159,4.957,22.486.3-1.133.574-2.238.8-3.3C985.264,240.986,985.657,229.6,985.657,229.6Z" transform="translate(-845.959 -178.735)" fill="#d69365"/>
          <path id="Trazado_108875" data-name="Trazado 108875" d="M1000.665,306.828s-1.93,4.424-4.955,5.636a43.332,43.332,0,0,1-5.165,1.739s4.693,1.034,7.42-1.4A8.613,8.613,0,0,0,1000.665,306.828Z" transform="translate(-906.211 -261.345)" fill="#d69365"/>
          <path id="Trazado_108876" data-name="Trazado 108876" d="M776,306.476s-3.058-12.628-10.359-10.746S752.26,313.007,753.1,323.266s14.029,20.285,16.944,18.926a3.634,3.634,0,0,0,2.358-3.918Z" transform="translate(-753.018 -254.064)" fill="#f5d1a2"/>
          <path id="Trazado_108877" data-name="Trazado 108877" d="M767.056,329.275s1.6-14.288,8.56-13.076,6.877,14.747,3.909,15.287-5.752.6-3.391,3.141a17.981,17.981,0,0,1,3.44,6.264s-5.112-.832-7.82-2.949-1.655-8.572-1.655-8.572,1.429,5.453,3.683,6.581-4.95-3.53,1.344-6.956,4.807-9.667,1.937-10.042C770.314,318.067,767.056,329.275,767.056,329.275Z" transform="translate(-762.072 -267.342)" fill="#d69365"/>
          <path id="Trazado_108878" data-name="Trazado 108878" d="M997.647,375.685s-5.889,3.633-6.638,12.441,5.19,18.835,2.432,20.615-6.934,1.653-10.649.835-14.267-3.443-13.324-1.047,12.49,8.23,16.727,7.388,12.014-4.175,10.521-9.193-3.476-15.772-2.921-20.732A25.91,25.91,0,0,1,997.647,375.685Z" transform="translate(-892.579 -305.754)" fill="#d69365"/>
        </g>
        <g id="Grupo_85837" data-name="Grupo 85837" transform="translate(219.236 95.737)">
          <path id="Trazado_108879" data-name="Trazado 108879" d="M867.19,373.606c3.629,4.4,6.323,7.634,11.538,9.346s13.352,2.416,18.451-.386c2.523-1.387,2.4-2.543,2.9-3.639,1.523-3.308.19-4.44-.6-6.208a9.979,9.979,0,0,0-3.76-3.989c-6.646-4.535-10.594-4.743-18.6-5.427-1.819-.155-7.624.274-9.4,1.057s-3.447.3-3.519,2.387C864.145,368.491,866.189,372.394,867.19,373.606Z" transform="translate(-861.605 -338.106)" fill="#c29779"/>
          <path id="Trazado_108880" data-name="Trazado 108880" d="M863.685,381.788a3.165,3.165,0,0,0,.1.522,8.8,8.8,0,0,0,.532,1.388c.27.58.644,1.264,1.1,2.028.231.38.484.779.767,1.185a12.415,12.415,0,0,0,.915,1.208c.344.365.769.826,1.173,1.232.406.424.838.86,1.287,1.291a32.745,32.745,0,0,0,2.921,2.553,21.533,21.533,0,0,0,3.433,2.178c.31.151.617.311.939.444s.636.284.964.408.656.249.99.363l.25.087.252.082.519.165a34.788,34.788,0,0,0,4.14,1.007,25.664,25.664,0,0,0,4.077.419,17.3,17.3,0,0,0,3.785-.315,12.9,12.9,0,0,0,3.227-1.082l.352-.18c.092-.049.223-.137.331-.2.235-.14.43-.282.622-.421a9.1,9.1,0,0,0,1.044-.893,6.566,6.566,0,0,0,1.3-1.836,7.489,7.489,0,0,0,.5-1.4c.088-.337.134-.517.134-.517s-.014.186-.04.534a7.74,7.74,0,0,1-.284,1.5,6.947,6.947,0,0,1-1.115,2.142,8.153,8.153,0,0,1-1.018,1.107c-.2.183-.408.368-.615.525l-.33.26-.345.259a12.073,12.073,0,0,1-3.369,1.684,16.435,16.435,0,0,1-4.136.751,23.271,23.271,0,0,1-4.456-.2,29.8,29.8,0,0,1-4.469-.99,22.665,22.665,0,0,1-4.276-1.754,20.317,20.317,0,0,1-3.686-2.56,27.657,27.657,0,0,1-2.9-2.944c-.422-.5-.818-.984-1.192-1.469-.187-.242-.37-.48-.54-.713l-.256-.346c-.082-.111-.171-.227-.264-.362a16,16,0,0,1-1.416-2.813,16.291,16.291,0,0,1-.743-2.268,7.268,7.268,0,0,1-.232-1.519A2.538,2.538,0,0,1,863.685,381.788Z" transform="translate(-861.249 -350.048)" fill="#c29779"/>
          <path id="Trazado_108881" data-name="Trazado 108881" d="M879,347.65c-5.451-.168-10.525.66-14.62,3.9-2.554,2.018-1.467,3.618-.288,6.682.532,1.383-.185,1.068,1,2.035a36.945,36.945,0,0,0,8.345,4.971,49.6,49.6,0,0,0,23.869,4.219c3.634-5.021,3.761-9.939-.008-15.175S885.562,347.853,879,347.65Z" transform="translate(-860.712 -328.017)" fill="#e28c6d"/>
          <path id="Trazado_108882" data-name="Trazado 108882" d="M892.7,353.5c3.6.941,5.3,4.25,7.157,7.139a7.8,7.8,0,0,0-1.6-6.34c-3.768-5.236-11.738-6.426-18.3-6.629a15.735,15.735,0,0,0-9.408,2.873,33.3,33.3,0,0,1,20.386,1.88c-7.994-1.333-16.681-3.669-24.513-.916-2.51,1.978-2.544,3.694-1.373,6.74.532,1.383-.185,1.068,1,2.035a36.943,36.943,0,0,0,8.345,4.971c7.8,3.475,12.608,3.931,21.041,3.447A36.215,36.215,0,0,0,899.07,363C897.971,359.242,895.379,356.13,892.7,353.5Z" transform="translate(-861.666 -328.041)" fill="#e5a268"/>
          <path id="Trazado_108883" data-name="Trazado 108883" d="M866.4,372.686c3.629,4.4,6.3,5.6,11.51,7.312s13.65,3.744,19.1,1.7a6.672,6.672,0,0,0,3.072-2.768c1.523-3.308.19-4.44-.6-6.208a9.98,9.98,0,0,0-3.76-3.989c-6.646-4.535-10.594-4.743-18.6-5.427-1.819-.155-7.624.274-9.4,1.057s-3.447.3-3.519,2.387A11.555,11.555,0,0,0,866.4,372.686Z" transform="translate(-861.603 -338.106)" fill="#f0ba94"/>
          <path id="Trazado_108884" data-name="Trazado 108884" d="M866.025,368.774c3.629,4.4,7.254,6.069,12.469,7.781s13.044,3.873,18.491,1.825c1.023-.384,2.59-1.1,3.094-2.195,1.523-3.308.19-4.44-.6-6.208a9.979,9.979,0,0,0-3.76-3.989c-6.646-4.535-10.594-4.743-18.6-5.427-1.819-.155-8.933-2.142-10.705-1.359s-2.137,2.715-2.209,4.8A7.575,7.575,0,0,0,866.025,368.774Z" transform="translate(-861.602 -335.363)" fill="#dcddde"/>
          <path id="Trazado_108885" data-name="Trazado 108885" d="M872.92,379.873c3.629,4.4,5.694,6.23,10.908,7.941s12.74,4.135,18.187,2.087c1.023-.385,2.73-.809,2.1-1.682a24.845,24.845,0,0,0-14.7-9.22C881.589,377.365,871.919,378.66,872.92,379.873Z" transform="translate(-867.18 -347.753)" fill="#fff"/>
          <path id="Trazado_108886" data-name="Trazado 108886" d="M907.356,298.852c-4.087,4.243-14.062,5-29.709,1.785-8.948-1.837-20.181-2.981-20.73-4.478s5.808-3.574,11.361-3.761,16.809,4.613,23.687,5.147C900.967,298.244,910.148,295.953,907.356,298.852Z" transform="translate(-856.883 -292.392)" fill="#000c12"/>
          <path id="Trazado_108887" data-name="Trazado 108887" d="M921.372,378.418a6.7,6.7,0,1,1-4.151-8.517A6.7,6.7,0,0,1,921.372,378.418Z" transform="translate(-890.068 -342.145)" fill="#975928"/>
          <path id="Trazado_108888" data-name="Trazado 108888" d="M912.894,380.545a5.362,5.362,0,1,0,9.918,3.185A17.149,17.149,0,0,0,912.894,380.545Z" transform="translate(-892.5 -349.244)" fill="#b96f36"/>
          <path id="Trazado_108889" data-name="Trazado 108889" d="M925.295,385.132a2.2,2.2,0,1,1-1.361-2.794A2.2,2.2,0,0,1,925.295,385.132Z" transform="translate(-898.247 -350.325)" fill="#3e1a00"/>
          <path id="Trazado_108890" data-name="Trazado 108890" d="M931.035,385.16A1.7,1.7,0,1,1,929.984,383,1.7,1.7,0,0,1,931.035,385.16Z" transform="translate(-902.579 -350.772)" fill="#fff"/>
          <path id="Trazado_108891" data-name="Trazado 108891" d="M885.8,356.1c6.131,2.092,8.161,3.943,10.056,6.795s3.494,5.923,1.347,9c-.175-2.8-3.565-9.555-11.273-12.034-5.79-1.862-19.85-5.091-21.844-4.04-2.782,1.465-.923,7.805-.156,8.464-2.327-1.7-4.039-8.861-3.468-12.134C860.805,350.2,874.324,352.18,885.8,356.1Z" transform="translate(-859.121 -330.443)" fill="#472500"/>
        </g>
        <g id="Grupo_85838" data-name="Grupo 85838" transform="translate(286.028 94.864)">
          <path id="Trazado_108892" data-name="Trazado 108892" d="M1070.718,413.186c-3.9,3.144-7.069,4.789-11.345,4.919s-10.38-1.541-13.273-5.676c-1.432-2.046-1.009-3.111-1.06-4.3-.154-3.587,1.139-4.282,2.223-5.737a8.3,8.3,0,0,1,3.874-2.716c6.126-2.406,9.049-1.468,15.053.184,1.364.375,5.451,2.453,6.511,3.709s2.415,1.276,1.866,3.285A19.442,19.442,0,0,1,1070.718,413.186Z" transform="translate(-1045.015 -359.772)" fill="#c29779"/>
          <path id="Trazado_108893" data-name="Trazado 108893" d="M1073.833,429.152l-.021.111a2.936,2.936,0,0,1-.07.321,7.6,7.6,0,0,1-.446,1.181,15.859,15.859,0,0,1-.947,1.714,20.8,20.8,0,0,1-1.491,2.073c-.153.182-.315.367-.492.554l-.551.533c-.355.342-.728.694-1.121,1.048a19.57,19.57,0,0,1-2.694,2.122,10.08,10.08,0,0,1-1.725.858,10.629,10.629,0,0,1-1.908.505,19.958,19.958,0,0,1-3.822.2,20.978,20.978,0,0,1-3.77-.46,15.288,15.288,0,0,1-3.529-1.2,10.4,10.4,0,0,1-2.88-2.045,8.609,8.609,0,0,1-1.749-2.6,20,20,0,0,1-.994-2.33,10.7,10.7,0,0,1-.487-1.9,4.994,4.994,0,0,1-.037-1.258,2.809,2.809,0,0,1,.057-.324l.025-.109s0,.038,0,.112a3.076,3.076,0,0,0,.007.324,4.97,4.97,0,0,0,.245,1.189,11.533,11.533,0,0,0,.739,1.732c.342.647.754,1.352,1.248,2.11a6.859,6.859,0,0,0,.844,1.05,8,8,0,0,0,1.053.935,10.586,10.586,0,0,0,2.669,1.425,17,17,0,0,0,3.189.81,25.914,25.914,0,0,0,3.44.294,23.878,23.878,0,0,0,3.416-.154,8.891,8.891,0,0,0,2.969-.923,27.17,27.17,0,0,0,2.672-1.662l1.257-.853.3-.205.259-.187c.171-.135.339-.278.5-.423.651-.592,1.241-1.175,1.73-1.717s.913-1.024,1.227-1.445a9.132,9.132,0,0,0,.686-1.01C1073.771,429.294,1073.833,429.152,1073.833,429.152Z" transform="translate(-1045.05 -379.072)" fill="#c29779"/>
          <path id="Trazado_108894" data-name="Trazado 108894" d="M1067.219,382.815c4,1.408,6.936,5.14,8.975,9.4,1.272,2.656.532,2.382-1.2,4.96-.784,1.164-.174,1.07-1.314,1.65a25.143,25.143,0,0,1-7.483,2.333,29.971,29.971,0,0,1-18.528-2.85c-1.192-5.825.131-10.544,4.371-14.445S1062.4,381.12,1067.219,382.815Z" transform="translate(-1046.45 -348.821)" fill="#e28c6d"/>
          <path id="Trazado_108895" data-name="Trazado 108895" d="M1059.374,384.7c-2.879-.139-5.071,2.52-7.246,4.738a9.031,9.031,0,0,1,2.987-5.574c4.24-3.9,10.364-2.741,15.184-1.046,2.729.96,4.5,2.934,6,5.442a20.344,20.344,0,0,0-15.329-4.074c6.182,1.031,12.451,3.059,17.34,7.933,1.251,2.605,1.487,2.5-.238,5.058-.784,1.164-.174,1.07-1.314,1.65a25.144,25.144,0,0,1-7.483,2.333c-6.654,1.065-10.276.115-16.255-2.772a42.61,42.61,0,0,1-1-6.479A21.5,21.5,0,0,1,1059.374,384.7Z" transform="translate(-1049.531 -348.821)" fill="#e5a268"/>
          <path id="Trazado_108896" data-name="Trazado 108896" d="M1071.282,411.877c-3.9,3.144-6.177,3.52-10.452,3.65s-10.979-.362-14.341-3.878a6.654,6.654,0,0,1-1.432-3.519c-.154-3.587,1.139-4.282,2.223-5.737a8.3,8.3,0,0,1,3.875-2.716c6.126-2.406,9.049-1.468,15.053.184,1.364.375,5.451,2.453,6.511,3.709s2.415,1.276,1.866,3.285A12.68,12.68,0,0,1,1071.282,411.877Z" transform="translate(-1045.031 -359.772)" fill="#f0ba94"/>
          <path id="Trazado_108897" data-name="Trazado 108897" d="M1071.891,410.87c-3.9,3.144-7.008,3.691-11.283,3.821s-10.576-.066-13.938-3.582a5.156,5.156,0,0,1-1.613-2.979c-.154-3.587,1.139-4.282,2.223-5.737a8.3,8.3,0,0,1,3.875-2.716c6.126-2.406,9.049-1.468,15.053.184,1.364.375,5.451,2.453,6.511,3.709s2.415,1.276,1.866,3.285A8.241,8.241,0,0,1,1071.891,410.87Z" transform="translate(-1045.031 -359.772)" fill="#dcddde"/>
          <path id="Trazado_108898" data-name="Trazado 108898" d="M1073.137,419.025c-3.9,3.144-5.923,4.293-10.2,4.422s-10.431.271-13.793-3.245c-.631-.661-1.748-1.556-1.036-2.2a17.479,17.479,0,0,1,13.319-4.548C1067.571,414.143,1074.211,418.158,1073.137,419.025Z" transform="translate(-1046.86 -369.533)" fill="#fff"/>
          <path id="Trazado_108899" data-name="Trazado 108899" d="M1068.845,302.7c.055,5.8,4.885,12.31,14.612,19.012,5.562,3.832,11.977,9.57,13,8.7s-1.279-6.289-4.082-9.726-11.019-6.273-14.865-9.919C1072.473,306,1068.808,298.737,1068.845,302.7Z" transform="translate(-1060.381 -297.432)" fill="#000c12"/>
          <path id="Trazado_108900" data-name="Trazado 108900" d="M1067.357,406.014a6.7,6.7,0,1,0,8.138-4.852A6.7,6.7,0,0,0,1067.357,406.014Z" transform="translate(-1059.288 -361.537)" fill="#5e3d33"/>
          <path id="Trazado_108901" data-name="Trazado 108901" d="M1081.642,415.286a5.418,5.418,0,0,1-.159,1.142,5.361,5.361,0,1,1-9.883-3.909A17.147,17.147,0,0,1,1081.642,415.286Z" transform="translate(-1061.721 -368.993)" fill="#b96f36"/>
          <path id="Trazado_108902" data-name="Trazado 108902" d="M1079.9,415.3a2.2,2.2,0,1,0,2.67-1.592A2.2,2.2,0,0,0,1079.9,415.3Z" transform="translate(-1067.467 -369.717)" fill="#260f00"/>
          <path id="Trazado_108903" data-name="Trazado 108903" d="M1089.585,419.979a1.7,1.7,0,1,0,2.061-1.229A1.7,1.7,0,0,0,1089.585,419.979Z" transform="translate(-1073.724 -372.98)" fill="#fff"/>
          <path id="Trazado_108904" data-name="Trazado 108904" d="M1057.462,289.933s-1.159,4.67-.174,7.428a41.781,41.781,0,0,0,1.842,4.445,7.727,7.727,0,0,1-3.184-5.509A11.786,11.786,0,0,1,1057.462,289.933Z" transform="translate(-1052.048 -289.933)" fill="#e5a268"/>
          <path id="Trazado_108905" data-name="Trazado 108905" d="M1057.951,394.985c-5.049.229-7.054,1.406-9.249,3.576s-4.238,4.634-3.567,8.184c.932-2.616,8.185-9.761,18.23-6.829a43.489,43.489,0,0,1,10.049,4.561c.964.667-1.136,4.148-1.952,4.594,2.177-.951,3.65-2.8,4.177-6.077C1075.952,401.038,1067.4,394.557,1057.951,394.985Z" transform="translate(-1045.005 -357.673)" fill="#472500"/>
        </g>
        <g id="Grupo_85839" data-name="Grupo 85839" transform="translate(197.181 33.281)">
          <path id="Trazado_108906" data-name="Trazado 108906" d="M889.06,143.428s12.843,31.527,41.353,49.743,37.833,21.363,41.931,28.106,5.058,10.138,5.058,10.138,11.049-3.841,10.829-42.6-30.25-59-59.129-62.069S889.06,143.428,889.06,143.428Z" transform="translate(-855.581 -122.892)" fill="#000c12"/>
          <path id="Trazado_108907" data-name="Trazado 108907" d="M988.54,174.576c-.219-38.763-31.494-54.749-60.372-57.814S889.06,137.02,889.06,137.02s14.263,28.564,42.775,46.779,37.11,20.086,41.209,26.827c2.092,3.444,3.549,5.7,4.476,7.1.626-17.054-11.449-32.437-24.175-43.316,17.525,6.72,26.386,26.185,26.033,44.716.135-.13.293-.291.467-.487,3.306-17.361.2-37.613-12.663-49.842,13.937,9.879,18.268,26.944,16.432,43.2C986.122,205.652,988.653,194.34,988.54,174.576Z" transform="translate(-855.581 -116.484)" fill="#002c3d"/>
          <path id="Trazado_108908" data-name="Trazado 108908" d="M1088.666,192.426a15,15,0,0,1,2.2,9.716l-10.989-2.317s4.5,4.314,8.168,13.92q.477-3.089.955-6.178a24.364,24.364,0,0,1,16.76,13.045A45.323,45.323,0,0,0,1088.666,192.426Z" transform="translate(-978.648 -165.463)" fill="#005b75"/>
          <path id="Trazado_108909" data-name="Trazado 108909" d="M833.513,177.48s-9.131,13.166-20.8,33.93-16.473,53-16.473,53-4.676-29.26,2.644-57.526S826.977,177.626,833.513,177.48Z" transform="translate(-794.766 -155.823)" fill="#000c12"/>
          <path id="Trazado_108910" data-name="Trazado 108910" d="M837.93,168.037s-10.091,8.5-21.762,29.267-14.039,33.64-14.039,33.64-3.326-18.568,6.938-45.9C822.82,148.411,831.394,168.183,837.93,168.037Z" transform="translate(-799.183 -146.38)" fill="#002c3d"/>
        </g>
        <g id="Grupo_85840" data-name="Grupo 85840" transform="translate(206.567 102.281)">
          <path id="Trazado_108911" data-name="Trazado 108911" d="M829.936,320.6c.451,1.592.283,9.219.571,11.606.8,6.665,3.206,15.216,9.168,17.387,10.024,3.648,28.959,8.054,35.825,4.128,6.082-3.478,11.664-8.481,12.988-11.018s2.786-5.647,7.523-4.779c5.422.993,5.305,5.6,5.06,7.855s1.414,8.35,5.63,14.321c4.4,6.231,12.42,6.564,23.183,7.169,6.4.357,14.8-7.278,17.453-11.945s3.713-8.065,4.688-9.324c1.987-2.567,3.434-.187,4.057-6.09.874-8.311-25.473-13.178-44.135-14.378-1.5-.1-9.188-.08-11.35-.664-4.55-1.228-11.684-3.9-12.743-4.262-17.51-6.053-55.69-14.457-58.743-6.591C827.034,319.372,829.392,318.686,829.936,320.6Zm85.2,11.737c16.546,1.033,30.451,3.563,32,10.508s-9.331,22.447-18.43,21.936c-9.564-.537-15.444-.494-19.351-6.027s-5.2-11.14-4.6-15.279S906.188,331.783,915.14,332.34Zm-78.677-11.351c4.613-5.686,29.9-1.013,45.349,4.538,8.213,2.953,5.615,10.146,4.244,14.126s-6.238,8.33-12.338,11.817-22.92-.426-31.827-3.665C833.422,344.72,831.85,326.675,836.463,320.989Z" transform="translate(-825.761 -310.824)" fill="#350000"/>
          <path id="Trazado_108912" data-name="Trazado 108912" d="M827.985,313.388s-4.354-1.385-4.632-1.177c-.7.86-2.15,6.332-2.15,6.332l4.065,1.681Z" transform="translate(-821.203 -311.705)" fill="#350000"/>
          <path id="Trazado_108913" data-name="Trazado 108913" d="M1001.888,355.454a7.431,7.431,0,0,0,.678-2.983,4.117,4.117,0,0,0-.046-1.411,3.61,3.61,0,0,0-2.113-2.068,5.322,5.322,0,0,0-3.5-.609.473.473,0,0,0-.352.807c.385.645.976,1.141,1.4,1.758a13.456,13.456,0,0,1,1.363,4c.19.641.563,1.363,1.227,1.431A1.518,1.518,0,0,0,1001.888,355.454Z" transform="translate(-934.211 -334.983)" fill="#4f1315"/>
          <path id="Trazado_108914" data-name="Trazado 108914" d="M1166.236,386.226a7.433,7.433,0,0,0,.677-2.982,4.11,4.11,0,0,0-.046-1.412,3.61,3.61,0,0,0-2.113-2.068,5.324,5.324,0,0,0-3.5-.609.473.473,0,0,0-.353.807c.385.645.977,1.141,1.4,1.758a13.477,13.477,0,0,1,1.364,4c.19.641.562,1.363,1.227,1.431A1.518,1.518,0,0,0,1166.236,386.226Z" transform="translate(-1040.207 -354.829)" fill="#4f1315"/>
        </g>
        <g id="Grupo_85841" data-name="Grupo 85841" transform="translate(236.592 174.317)">
          <path id="Trazado_108915" data-name="Trazado 108915" d="M940.4,542.435s8.22,8.462,16.563,9.113,12.5-3.694,12.5-3.694Z" transform="translate(-928.104 -532.237)" fill="#d69365"/>
          <path id="Trazado_108916" data-name="Trazado 108916" d="M913.968,524.609a60.6,60.6,0,0,0,27.528,11.52c12.125,1.632,16.455-3.543,16.455-3.543s1.6-9.09-18.521-10.82C919.207,520.028,913.968,524.609,913.968,524.609Z" transform="translate(-911.056 -518.653)" fill="#ffe5c7"/>
          <path id="Trazado_108917" data-name="Trazado 108917" d="M935.26,524.739c-16.413-2.667-26.338.7-26.462.754-.329.149-3.266,1.556-3.015,2.25s2.916-.987,3.245-1.138c.12-.054,10.4-2.988,26.485-.377s17.214,6.676,17.3,6.769c.246.282.83,1.171,1.328.941s-.926-1.786-1.177-2.067C952.614,531.476,951.706,527.409,935.26,524.739Z" transform="translate(-905.767 -520.162)" fill="#9d4b3c"/>
          <path id="Trazado_108918" data-name="Trazado 108918" d="M914.3,519.044s6.775-2.45,24.569-.235c14.491,1.8,19.595,6.613,19.595,6.613s.254-7.895-10.984-10.292C925.273,510.395,914.3,519.044,914.3,519.044Z" transform="translate(-911.272 -513.713)" fill="#d69365"/>
        </g>
        <g id="Grupo_85842" data-name="Grupo 85842">
          <path id="Trazado_108919" data-name="Trazado 108919" d="M368.122,43.451s-8.912-22.046-45.03-20.638-40.808,25.8-40.808,25.8S261.177,40.167,249.92,59.4s-4.691,32.365-4.691,32.365-19.231,34.71,12.2,52.065,50.658,1.407,50.658,1.407,29.55,21.577,63.322,5.16,23.922-35.648,23.922-35.648,13.272-24.3,4.691-46.437C391.106,45.327,368.122,43.451,368.122,43.451Z" transform="translate(-239.405 -22.748)" fill="#fff"/>
          <path id="Trazado_108920" data-name="Trazado 108920" d="M581.909,428.079s1.876,3.722,8.164,2.953,6.754-5.1,6.754-5.1,3.809,1.169,5.5-2.353.35-5.721.35-5.721,2.857-6.342-2.884-8.918-8.869.488-8.869.488-5.475-3.341-11.136.015-3.662,6.573-3.662,6.573-1.966,4.438-.147,8.179A6.946,6.946,0,0,0,581.909,428.079Z" transform="translate(-455.979 -271.159)" fill="#fff"/>
          <path id="Trazado_108921" data-name="Trazado 108921" d="M677.817,463.345s1.164,2.309,5.066,1.832,4.19-3.162,4.19-3.162a2.865,2.865,0,0,0,3.411-1.46,3.851,3.851,0,0,0,.217-3.549s1.772-3.934-1.789-5.533-5.5.3-5.5.3a7.056,7.056,0,0,0-6.909.01c-3.512,2.082-2.272,4.078-2.272,4.078a6.764,6.764,0,0,0-.091,5.074A4.31,4.31,0,0,0,677.817,463.345Z" transform="translate(-519.477 -298.842)" fill="#fff"/>
        </g>
      </g>
      <g id="Cpffee" transform="translate(291.082 42.073)">
        <g id="Grupo_85843" data-name="Grupo 85843" transform="translate(0 31.805)">
          <path id="Trazado_108922" data-name="Trazado 108922" d="M558.086,206.463c-6.94-1.34-9.428,3.289-9.428,3.289l-5.1,16.565s10.467,1.34,14.526-1.968S565.026,207.8,558.086,206.463Zm-1.737,15.215c-2.695,2.2-9.643,1.307-9.643,1.307l3.384-11s1.652-3.073,6.259-2.183S559.044,219.481,556.349,221.677Z" transform="translate(-487.247 -192.207)" fill="#c2171e"/>
          <path id="Trazado_108923" data-name="Trazado 108923" d="M569.239,206.463a10.185,10.185,0,0,0-6.064.465,2.309,2.309,0,0,1,.69,2.092,12.9,12.9,0,0,1,3.928-.162c4.607.889,2.4,10.623-.292,12.819-1.413,1.152-4,1.455-6.135,1.483-.668.009-.779,2.638.225,2.582,3.035-.171,5.676-.8,7.729-2.471C573.381,219.963,576.178,207.8,569.239,206.463Z" transform="translate(-498.4 -192.208)" fill="#ed1c24"/>
          <path id="Trazado_108924" data-name="Trazado 108924" d="M385.139,201.731s-4.606,42.914,32.157,42.914,32.157-42.914,32.157-42.914Z" transform="translate(-384.954 -189.313)" fill="#ed1c24"/>
          <ellipse id="Elipse_4276" data-name="Elipse 4276" cx="32.157" cy="12.418" rx="32.157" ry="12.418" transform="translate(0.185)" fill="#ff2b33"/>
          <path id="Trazado_108925" data-name="Trazado 108925" d="M390.645,221.158c-1.521-1.141.06,12.278,2.265,13.936S391.75,221.987,390.645,221.158Z" transform="translate(-388.236 -201.798)" fill="#ff5258"/>
          <path id="Trazado_108926" data-name="Trazado 108926" d="M556.749,217.714c-.117-1.914-2.26,2.862-2.26,4.219s-.734,12.15-.734,12.15S557.2,225.1,556.749,217.714Z" transform="translate(-493.822 -199.333)" fill="#c2171e"/>
          <path id="Trazado_108927" data-name="Trazado 108927" d="M577.244,208.8c-.9-.239-4.539-.487-4.8,0s.48.731,2.575.853,2.662.852,3.142.487S577.97,208.99,577.244,208.8Z" transform="translate(-505.843 -193.69)" fill="#ff2b33"/>
        </g>
        <g id="Grupo_85844" data-name="Grupo 85844" transform="translate(2.409 0)">
          <path id="Trazado_108928" data-name="Trazado 108928" d="M450.991,181.727c0,6.082-13.264,11.012-29.625,11.012s-29.626-4.93-29.626-11.012S405,170.714,421.366,170.714,450.991,175.645,450.991,181.727Z" transform="translate(-391.74 -137.503)" fill="#941217"/>
          <path id="Trazado_108929" data-name="Trazado 108929" d="M451.451,188.066c-2.726,5.036-14.693,8.828-29.042,8.828-14.317,0-26.261-3.775-29.024-8.793-.394-.717,3.154-10.944,29.024-10.944C448.775,177.157,451.834,187.36,451.451,188.066Z" transform="translate(-392.783 -141.659)" fill="#c88240"/>
          <path id="Trazado_108930" data-name="Trazado 108930" d="M466.017,96.663c-2.9-3.83-7.557-5.9-6.947-11.4.464-4.181,3.045-6.04,6.364-8.086-4.015-.124-11.43,2.44-12.014,7.086-.482,3.838,1.855,5.581,4.331,7.988,1.9,1.848,4.426,4.856,2.874,7.686-1.333,2.432-4.2,2.013-3.722,5.4.3,2.111,4.072,1.63,7.526-1.156,1.1-.884,2.774-1.513,3.144-3.022C467.967,99.559,466.92,97.856,466.017,96.663Z" transform="translate(-431.479 -77.176)" fill="#f6e5ca"/>
          <path id="Trazado_108931" data-name="Trazado 108931" d="M421.516,181.184c-5.014.26-15.851,2.774-20.019,6.068s-2.093,6.387,7.309,8.41,20.732,2.967,23.353,0-7.624-5.395-8.377-7.418,12.506-3.5,12.889-4.822C436.969,182.395,430.912,180.7,421.516,181.184Z" transform="translate(-396.711 -144.2)" fill="#1e130e"/>
          <path id="Trazado_108932" data-name="Trazado 108932" d="M516.537,185.94A.938.938,0,1,1,515.6,185,.938.938,0,0,1,516.537,185.94Z" transform="translate(-471.018 -146.718)" fill="#1e130e"/>
          <path id="Trazado_108933" data-name="Trazado 108933" d="M537.308,198.6a1.721,1.721,0,1,1-1.721-1.721A1.721,1.721,0,0,1,537.308,198.6Z" transform="translate(-483.405 -154.381)" fill="#1e130e"/>
          <path id="Trazado_108934" data-name="Trazado 108934" d="M515.6,197.352a.469.469,0,1,1-.469-.469A.469.469,0,0,1,515.6,197.352Z" transform="translate(-471.018 -154.381)" fill="#1e130e"/>
          <path id="Trazado_108935" data-name="Trazado 108935" d="M493.92,196.3a1.172,1.172,0,1,1-1.172-1.172A1.172,1.172,0,0,1,493.92,196.3Z" transform="translate(-456.13 -153.251)" fill="#1e130e"/>
          <path id="Trazado_108936" data-name="Trazado 108936" d="M510.829,211.092a1.055,1.055,0,1,1-1.055-1.054A1.055,1.055,0,0,1,510.829,211.092Z" transform="translate(-467.186 -162.865)" fill="#1e130e"/>
          <circle id="Elipse_4277" data-name="Elipse 4277" cx="1.055" cy="1.055" r="1.055" transform="translate(48.029 49.129) rotate(-82.175)" fill="#1e130e"/>
          <path id="Trazado_108937" data-name="Trazado 108937" d="M544.615,207.594a.527.527,0,1,1-.527-.527A.527.527,0,0,1,544.615,207.594Z" transform="translate(-489.656 -160.949)" fill="#1e130e"/>
          <path id="Trazado_108938" data-name="Trazado 108938" d="M499.231,210.565a.527.527,0,1,1-.528-.527A.528.528,0,0,1,499.231,210.565Z" transform="translate(-460.387 -162.865)" fill="#1e130e"/>
          <path id="Trazado_108939" data-name="Trazado 108939" d="M522.588,198.205a1.322,1.322,0,1,1-1.322-1.322A1.322,1.322,0,0,1,522.588,198.205Z" transform="translate(-474.425 -154.381)" fill="#1e130e"/>
          <path id="Trazado_108940" data-name="Trazado 108940" d="M524.989,188.3a.661.661,0,1,1-.661-.661A.661.661,0,0,1,524.989,188.3Z" transform="translate(-476.826 -148.422)" fill="#1e130e"/>
          <path id="Trazado_108941" data-name="Trazado 108941" d="M505.162,219.5a.979.979,0,1,1-.979-.979A.98.98,0,0,1,505.162,219.5Z" transform="translate(-463.629 -168.339)" fill="#1e130e"/>
          <path id="Trazado_108942" data-name="Trazado 108942" d="M491.137,205.979a1.416,1.416,0,1,1-1.417-1.416A1.417,1.417,0,0,1,491.137,205.979Z" transform="translate(-454.019 -159.334)" fill="#1e130e"/>
          <path id="Trazado_108943" data-name="Trazado 108943" d="M503.588,199.717a.192.192,0,1,1-.192-.192A.192.192,0,0,1,503.588,199.717Z" transform="translate(-463.629 -156.085)" fill="#1e130e"/>
        </g>
      </g>
    </g>
  </g>
</svg>
