<svg xmlns="http://www.w3.org/2000/svg" xmlns:xlink="http://www.w3.org/1999/xlink" width="399" height="472" viewBox="0 0 399 472">
  <defs>
    <linearGradient id="linear-gradient" x1="83.566" y1="0.5" x2="84.566" y2="0.5" gradientUnits="objectBoundingBox">
      <stop offset="0" stop-color="#fff"/>
      <stop offset="0.043" stop-color="#ececec"/>
      <stop offset="0.184" stop-color="#b7b6b6"/>
      <stop offset="0.327" stop-color="#888787"/>
      <stop offset="0.467" stop-color="#636161"/>
      <stop offset="0.606" stop-color="#454344"/>
      <stop offset="0.742" stop-color="#302e2e"/>
      <stop offset="0.875" stop-color="#242122"/>
      <stop offset="1" stop-color="#201d1e"/>
    </linearGradient>
    <linearGradient id="linear-gradient-2" x1="85.946" y1="0.5" x2="86.946" y2="0.5" xlink:href="#linear-gradient"/>
    <radialGradient id="radial-gradient" cx="0.54" cy="0.488" r="0.414" gradientTransform="matrix(1.662, -0.081, 0.136, 0.997, -0.684, 0.078)" gradientUnits="objectBoundingBox">
      <stop offset="0" stop-color="#fff"/>
      <stop offset="0.378" stop-color="#fcfcfc"/>
      <stop offset="0.633" stop-color="#f3f3f4"/>
      <stop offset="0.852" stop-color="#e4e5e6"/>
      <stop offset="1" stop-color="#d5d7d8"/>
    </radialGradient>
    <radialGradient id="radial-gradient-2" cx="0.54" cy="0.511" r="0.448" gradientTransform="matrix(1.796, -0.081, 0.147, 0.997, -0.841, 0.08)" xlink:href="#radial-gradient"/>
    <radialGradient id="radial-gradient-3" cx="0.886" cy="0.645" r="0.548" gradientTransform="matrix(0.849, -0.25, 0.185, 0.819, -13.425, 14.322)" gradientUnits="objectBoundingBox">
      <stop offset="0" stop-color="#fff"/>
      <stop offset="1" stop-color="#f6ecf4"/>
    </radialGradient>
  </defs>
  <g id="Grupo_87753" data-name="Grupo 87753" transform="translate(-601 -30835)">
    <rect id="Rect치ngulo_33943" data-name="Rect치ngulo 33943" width="399" height="472" transform="translate(601 30835)" fill="#91dcff"/>
    <g id="Background" transform="translate(697 30881.719)">
      <ellipse id="Elipse_4267" data-name="Elipse 4267" cx="103.527" cy="25.882" rx="103.527" ry="25.882" transform="translate(0 349.678)" fill="rgba(60,104,204,0.12)"/>
      <g id="Grupo_85661" data-name="Grupo 85661" transform="translate(152.483 0)">
        <path id="Trazado_106733" data-name="Trazado 106733" d="M434.122,237.808l16.7-19.859,5.877,8.816Z" transform="translate(-434.122 -217.949)" fill="#fff"/>
        <path id="Trazado_106734" data-name="Trazado 106734" d="M436.93,259.3l24.2-9.36.9,10.556Z" transform="translate(-435.801 -237.076)" fill="#fff"/>
      </g>
    </g>
    <g id="Businessman" transform="translate(732.245 30862.398)">
      <g id="Grupo_85662" data-name="Grupo 85662" transform="translate(36.522 377.086)">
        <path id="Trazado_106735" data-name="Trazado 106735" d="M264.85,1165.055s-1.6.349-1.6,2.609.89,4.871,3.918,5.393a106.222,106.222,0,0,0,16.568.348c2.671-.348,5.166-2.087,5.166-4.523s-2.495-3.827-2.495-3.827Z" transform="translate(-263.247 -1141.953)" fill="#201d1e"/>
        <path id="Trazado_106736" data-name="Trazado 106736" d="M289.2,1168.564c.154-.118-.15-.193-.022-.329a5.268,5.268,0,0,0-2.428-3.18H265.193a2.109,2.109,0,0,0-1.366,1.281c-.1,1.609.751,3.375,3.369,3.932C273.654,1171.642,288.971,1171.307,289.2,1168.564Z" transform="translate(-263.589 -1141.953)"/>
        <path id="Trazado_106737" data-name="Trazado 106737" d="M279.108,1107.7c-2.939.426-4.32,2.368-5.745,4.261s-7.036,11.318-8.283,13.78-.713,9.849,4.988,10.039,9.619.378,13.539.189,4.988-.759,5.344-5.682-1.648-16.67-3.162-19.415A6.071,6.071,0,0,0,279.108,1107.7Z" transform="translate(-264.011 -1107.607)"/>
        <path id="Trazado_106738" data-name="Trazado 106738" d="M271.526,1128.8c5.648-1.517,9.451-1.489,14-2.234-2.115-.82-7.7-.372-11.55.745,5.25-1.489,9.98-3.308,14.53-.331.349.185.84-.928.919-1.513-.276-5.629-.984-12.286-2.254-14.59a6.071,6.071,0,0,0-6.681-3.173c-2.939.426-4.32,2.368-5.745,4.261-1.278,1.7-5.926,9.459-7.768,12.814-.283,3.3-.456,6.374,2.811,7.532,5.344,1.9,12.575,1.962,17.563.067a4.065,4.065,0,0,0,2.181-2.084C286.294,1125.33,276.828,1129.128,271.526,1128.8Z" transform="translate(-265.394 -1107.607)" fill="#201d1e"/>
        <path id="Trazado_106739" data-name="Trazado 106739" d="M271.462,1155.791c-1.622-1.622.1-4.326-.917-3.209-2.12,2.32-2.323,3.175.36,5.032,3.673,2.543,14.587,1.848,18.423-.809C283.8,1158.543,274.918,1159.536,271.462,1155.791Z" transform="translate(-266.641 -1134.339)" fill="url(#linear-gradient)"/>
      </g>
      <g id="Grupo_85663" data-name="Grupo 85663" transform="translate(91.009 370.61)">
        <path id="Trazado_106740" data-name="Trazado 106740" d="M402.591,1130.063c1.834-.306,12.836,11.079,12.836,11.079h1.222c7.946.916,18.032,5.2,18.032,5.2s.84,3.132-9.551,3.744-12.683-3.209-14.822-6.571-3.743-2.827-3.743-2.827l-5.5-4.2S400.757,1130.37,402.591,1130.063Z" transform="translate(-400.117 -1114.553)" fill="#201d1e"/>
        <path id="Trazado_106741" data-name="Trazado 106741" d="M402.646,1130.063c1.834-.306,12.836,11.079,12.836,11.079H416.7c7.946.916,18.031,5.2,18.031,5.2s-.688,2.33-10.047,2.559c-10.406.255-11.843-2.062-13.982-5.424-1.069-1.681-3.181-4.461-3.935-4.737s-5.707-3.321-5.635-4.586C401.236,1132.387,401.578,1130.242,402.646,1130.063Z" transform="translate(-400.172 -1114.553)"/>
        <path id="Trazado_106742" data-name="Trazado 106742" d="M416.8,1091.5a24.7,24.7,0,0,0,2.4,5.654c1.528,2.444,2.791,10.238,7.071,13.906s11,9.474,7.029,12.224-18.338,3.056-21.393,0-4.585-7.335-7.947-9.474-5.5-3.973-5.2-6.724,3.668-9.169,3.668-9.169Z" transform="translate(-398.739 -1091.503)" fill="#201d1e"/>
        <path id="Trazado_106743" data-name="Trazado 106743" d="M449.9,1155.12c1.622-1.622-.1-4.326.917-3.209,2.12,2.32,3.6,3.032.917,4.89-3.674,2.543-13.22,1.036-17.056-1.62C440.2,1156.917,446.443,1158.865,449.9,1155.12Z" transform="translate(-420.226 -1127.461)" fill="url(#linear-gradient-2)"/>
      </g>
      <g id="Grupo_85664" data-name="Grupo 85664" transform="translate(37.429 195.795)">
        <path id="Trazado_106744" data-name="Trazado 106744" d="M294.447,871.106s4.89,9.169,4.279,17.42-3.055,40.036-3.362,46.454.612,15.587.612,19.56-4.364,17.244-6.88,19.76c-1.08,1.08-7.3,1.69-19.411,2.336-4.284.229-2.933-7.694-2.323-15.335s-1.948-32.129-1.031-46.187,3.056-38.508,3.056-38.508Z" transform="translate(-265.877 -784.922)" fill="#464854"/>
        <path id="Trazado_106745" data-name="Trazado 106745" d="M316.743,888.526c.612-8.252-4.279-17.42-4.279-17.42l-3.719.817c2.673,14.748-1.867,30.748-12.478,41.359,5.96.459,10.544-3.668,14.212-7.793-1.834,12.835,3.515,53.025,3.515,49.052s-.917-13.142-.612-19.56S316.133,896.778,316.743,888.526Z" transform="translate(-283.895 -784.922)" fill="#3e3f4a"/>
        <path id="Trazado_106746" data-name="Trazado 106746" d="M271.15,656.791l64.792.306s-4.279,22.31-12.531,29.034-19.866,14.058-21.393,14.058S300.184,738.7,300.184,750s-3.667,19.254-10.085,21.088-20.171-2.751-20.782-11.308-4.629-54.389-3.667-67.847A255.391,255.391,0,0,1,271.15,656.791Z" transform="translate(-265.501 -656.791)" fill="#464854"/>
        <path id="Trazado_106747" data-name="Trazado 106747" d="M274.624,656.791s-1.736,8.41-3.312,17.605c4.288-6.067,11.109-7.472,18.135-4.311,4.584,1.833,7.488,6.8,7.945,7.793-4.126-.458-7.793.917-11.919.917,3.668,4.126,9.628,2.752,13.753,5.5-4.125.917-8.251.917-11.919,2.292,3.209,3.667,13.295.916,11.461,6.418-1.376,3.209-4.585,6.418-5.043,9.168-3.175,23.281-.112,46.289-1.87,69.235a10.3,10.3,0,0,0,1.717-.318c6.418-1.834,10.085-9.78,10.085-21.088s.306-49.816,1.835-49.816,13.141-7.335,21.393-14.058S339.416,657.1,339.416,657.1Z" transform="translate(-268.975 -656.791)" fill="#3e3f4a"/>
        <path id="Trazado_106748" data-name="Trazado 106748" d="M343.564,658.472c.234,10.348.578,40.834,1.151,43.126.6,2.4,2.236,7.606,2.856,9.961.268-6.45.631-10.916,1.118-10.916,1.527,0,13.141-7.335,21.393-14.058s12.531-29.034,12.531-29.034Z" transform="translate(-312.172 -657.245)"/>
        <path id="Trazado_106749" data-name="Trazado 106749" d="M383.691,859.923c-5.459,1.872-3.744,22.768-3.973,28.422s-1.375,19.406.229,26.054,6.647,22.463,6.419,28.193-2.979,6.647-2.063,12.148,2.021,7.751,3.583,9.983,7.473,2.553,12.286,2.095,7.281-1.3,9.409-3.183,1.31-7.978.851-24.023-.917-7.564-.917-15.587,2.293-15.586-1.146-28.881c-1.68-6.5-2.981-24.3-2.981-24.3S391.713,857.172,383.691,859.923Z" transform="translate(-333.422 -778.017)" fill="#464854"/>
        <path id="Trazado_106750" data-name="Trazado 106750" d="M404.015,949.47c.917-.917,3.209-1.376,2.751-3.668-5.043.918-10.544-1.833-12.378-5.5-2.75-5.5-1.833-13.295-2.75-19.712-1.229-20.486-.265-40.6-2.99-60.684a8.788,8.788,0,0,0-4.956.019c-5.459,1.872-3.744,22.768-3.973,28.422s-1.375,19.406.229,26.054,6.647,22.463,6.419,28.193-2.979,6.647-2.063,12.148C384.722,957.262,399.889,952.679,404.015,949.47Z" transform="translate(-333.422 -778.018)" fill="#3e3f4a"/>
        <path id="Trazado_106751" data-name="Trazado 106751" d="M348.348,658.468s-1.222,42.481,1.833,42.481c4.928,0,5.5,14.669,6.112,24.754s1.833,28.423,5.807,35.146,23.533,9.169,23.838,1.528,4.584-45.537,4.89-59.6-2.14-31.173-2.751-34.84a103.512,103.512,0,0,0-2.75-10.391Z" transform="translate(-314.888 -657.245)" fill="#464854"/>
        <path id="Trazado_106752" data-name="Trazado 106752" d="M373.562,692.544H359.808c7.794-4.126,17.421-3.667,25.214-8.251-9.169,0-17.878,2.75-27.047,2.75,6.877-2.75,19.713-4.279,19.713-4.279l-17.879,2.293,29.8-5.96c-.01-.064-1.519-11.1-1.528-11.155a103.512,103.512,0,0,0-2.75-10.391l-36.98.917s-1.222,42.481,1.833,42.481c4.928,0,5.5,14.669,6.113,24.754s1.833,28.423,5.806,35.146c1.705,2.887,6.285,4.983,10.98,5.833C371.071,741.853,368.318,716.665,373.562,692.544Z" transform="translate(-314.888 -657.245)" fill="#3e3f4a"/>
      </g>
      <g id="Grupo_85665" data-name="Grupo 85665" transform="translate(40.989 198.923)">
        <path id="Trazado_106753" data-name="Trazado 106753" d="M344.293,673.725a591.387,591.387,0,0,1-69.911.153,21.663,21.663,0,0,1,.726-6.647c23.546,1.024,46.384,1.115,68.306,0A24.005,24.005,0,0,1,344.293,673.725Z" transform="translate(-274.355 -666.161)" fill="#503229"/>
        <path id="Trazado_106754" data-name="Trazado 106754" d="M356.233,674.075H345.327l-.077-6.713h10.984v-1.2l-15.468-.07a.4.4,0,0,0-.4.4l.141,8.669a.327.327,0,0,0,.329.322l15.4-.07Z" transform="translate(-313.821 -665.482)" fill="#919094"/>
        <path id="Trazado_106755" data-name="Trazado 106755" d="M367.659,677.465a.545.545,0,1,1-.545-.544A.544.544,0,0,1,367.659,677.465Z" transform="translate(-329.487 -671.954)" fill="#3f241b"/>
        <path id="Trazado_106756" data-name="Trazado 106756" d="M337.022,677.251a.544.544,0,1,1-.544-.545A.544.544,0,0,1,337.022,677.251Z" transform="translate(-311.17 -671.826)" fill="#3f241b"/>
        <path id="Trazado_106757" data-name="Trazado 106757" d="M322.559,676.681a.544.544,0,1,1-.544-.545A.545.545,0,0,1,322.559,676.681Z" transform="translate(-302.523 -671.485)" fill="#3f241b"/>
        <path id="Trazado_106758" data-name="Trazado 106758" d="M353.765,677.181a.544.544,0,1,1-.544-.544A.544.544,0,0,1,353.765,677.181Z" transform="translate(-321.18 -671.784)" fill="#3f241b"/>
        <path id="Trazado_106759" data-name="Trazado 106759" d="M382.906,677.465a.544.544,0,1,1-.544-.544A.544.544,0,0,1,382.906,677.465Z" transform="translate(-338.603 -671.954)" fill="#3f241b"/>
        <path id="Trazado_106760" data-name="Trazado 106760" d="M387.3,675.5h-1.776a67.992,67.992,0,0,0,0-7.908H387.3A45.385,45.385,0,0,1,387.3,675.5Z" transform="translate(-340.818 -666.374)" fill="#6a453a"/>
        <path id="Trazado_106761" data-name="Trazado 106761" d="M394.518,675.5h-1.777a67.8,67.8,0,0,0,0-7.908h1.777A45.469,45.469,0,0,1,394.518,675.5Z" transform="translate(-345.134 -666.374)" fill="#6a453a"/>
        <path id="Trazado_106762" data-name="Trazado 106762" d="M407.24,674.9h-2.322a88.754,88.754,0,0,0,0-10.335h2.322A59.422,59.422,0,0,1,407.24,674.9Z" transform="translate(-352.414 -664.57)" fill="#005578"/>
        <path id="Trazado_106763" data-name="Trazado 106763" d="M311.381,674.9H313.7a88.916,88.916,0,0,1,0-10.335h-2.322A59.492,59.492,0,0,0,311.381,674.9Z" transform="translate(-296.357 -664.57)" fill="#005578"/>
        <path id="Rect치ngulo_33944" data-name="Rect치ngulo 33944" d="M.573,0H1.72a.572.572,0,0,1,.572.572v0a.573.573,0,0,1-.573.573H.573A.573.573,0,0,1,0,.573v0A.573.573,0,0,1,.573,0Z" transform="translate(29.977 4.795)" fill="#a8a7ab"/>
      </g>
      <g id="Grupo_85666" data-name="Grupo 85666" transform="translate(0 89.518)">
        <path id="Trazado_106764" data-name="Trazado 106764" d="M279.011,662.627s8.274-.062,33.416-1.959,31.185-3,31.185-3-1.575-6.158-3.512-9.219-56.872,3.872-58.9,5.264S279.076,661.549,279.011,662.627Z" transform="translate(-236.149 -545.063)" fill="#d0ced2"/>
        <path id="Trazado_106765" data-name="Trazado 106765" d="M332.095,415.9c-.544-1.275-.8-4.722-.91-7.055l-21.946.752c.525,1.431,1.171,7.086-1.027,10.719-2.634,4.354,13.3,40.6,16.154,38.99s14.442-40.043,14.442-40.043S332.948,417.9,332.095,415.9Z" transform="translate(-253.432 -402.273)" fill="#ffe5c7"/>
        <path id="Trazado_106766" data-name="Trazado 106766" d="M334.146,433.135,310.3,435.08a7.956,7.956,0,0,1-.891,2.142c-2.635,4.355,13.881,40.494,16.739,38.88s14.442-40.044,14.442-40.044S335.573,434.893,334.146,433.135Z" transform="translate(-254.151 -416.799)" fill="#dfdde0"/>
        <path id="Trazado_106767" data-name="Trazado 106767" d="M336.463,445.389,338,438.111a5.71,5.71,0,0,0-5.51-1.994l-4.758,2.285,3.468,7.2s4.169,61.91,4.454,65.406,4.031,6.27,6.635,5.838,3.992-2.305,4.183-8.04S336.463,445.389,336.463,445.389Z" transform="translate(-265.278 -418.508)" fill="#ed1c24"/>
        <path id="Trazado_106768" data-name="Trazado 106768" d="M308.4,410.715a233.047,233.047,0,0,0,23.787-1.94,1.818,1.818,0,0,1-.221-.365c-.544-1.276-2.688-13.567-2.8-15.9l-23.236,3.323C306.348,396.986,309.167,407.613,308.4,410.715Z" transform="translate(-252.241 -392.511)" fill="#e1a177"/>
        <path id="Trazado_106769" data-name="Trazado 106769" d="M319.547,427.726l-11.575-5.767-1.89,3,6.316,19.448Z" transform="translate(-252.334 -410.117)" fill="url(#radial-gradient)"/>
        <path id="Trazado_106770" data-name="Trazado 106770" d="M340.417,424.168l10.852-8.113,2.141,3.254-3.236,20.162Z" transform="translate(-272.862 -406.587)" fill="url(#radial-gradient-2)"/>
        <path id="Trazado_106771" data-name="Trazado 106771" d="M284.99,473.072c-5.7-20.578-15.961-39.578-15.961-39.578s-3.674.97-10.766,2.755a92.959,92.959,0,0,0-13.946,4.854s10,14.1,12.006,25.6-.673,26.635-1.589,43.33-3.83,41.419-3.83,41.419,4.576,3.513,18.929,5.292c10.742,1.33,12.711,1.375,16.869-10.088C290.733,535.536,290.689,493.651,284.99,473.072ZM281.8,509.2l.457-.037Z" transform="translate(-215.407 -417.013)"/>
        <path id="Trazado_106772" data-name="Trazado 106772" d="M271.561,467.275c-5.7-20.578-16.207-42.573-16.207-42.573s-10.028-2-17.076-.05c-15.989,4.43-16.423,13.842-16.423,13.842s19.029,10.91,21.039,22.407-.673,26.635-1.589,43.33-3.83,41.419-3.83,41.419,4.463,2.38,18.816,4.158c10.742,1.331,12.095,2.089,16.253-9.375C276.575,529.318,277.26,487.854,271.561,467.275ZM268.374,503.4l.457-.037Z" transform="translate(-201.978 -411.215)" fill="#464854"/>
        <path id="Trazado_106773" data-name="Trazado 106773" d="M271.561,467.275c-5.7-20.578-16.207-42.573-16.207-42.573s-10.028-2-17.076-.05c-15.989,4.43-16.423,13.842-16.423,13.842s19.029,10.91,21.039,22.407-.673,26.635-1.589,43.33c-.292,5.311-.786,11.435-1.324,17.318,8.617-7.552,19.467-11.968,31.155-8.851a14.594,14.594,0,0,1,4.474,2.109C276.054,498.683,274.911,479.371,271.561,467.275ZM268.374,503.4l.457-.037Z" transform="translate(-201.978 -411.215)" fill="#3e3f4a"/>
        <path id="Trazado_106774" data-name="Trazado 106774" d="M236.171,449.589l28.714-2.342c-4.822-12.689-9.531-22.546-9.531-22.546s-10.028-2-17.076-.05c-15.989,4.43-16.423,13.842-16.423,13.842A73.5,73.5,0,0,1,236.171,449.589Z" transform="translate(-201.978 -411.215)" fill="#3e3f4a"/>
        <path id="Trazado_106775" data-name="Trazado 106775" d="M284.61,436.561a22.728,22.728,0,0,0-3.434,2.8c8.9,10.193,17.748,21,27.51,39.795a87.524,87.524,0,0,0-2.017-9.669c-5.7-20.578-15.961-39.578-15.961-39.578s-.372-3.439-5.643-2.1c-2.991,3.129-3.606,7.691-4.486,9.881A10.936,10.936,0,0,0,284.61,436.561Z" transform="translate(-237.088 -413.428)"/>
        <path id="Trazado_106776" data-name="Trazado 106776" d="M303.891,585.818l-32.7,2.667c-.357,4.027-.708,8.191-.945,12.458,11.028-4.573,22.62-7.22,33.833-9.994C303.958,588.447,304.088,588.261,303.891,585.818Z" transform="translate(-230.907 -508.082)"/>
        <path id="Trazado_106777" data-name="Trazado 106777" d="M356.761,426.385s-7.708,21.142-10,42.372,4.453,62.569,10.233,72.884c5.961,10.638,7.9,10.275,18.281,7.222,13.875-4.08,17.821-8.289,17.821-8.289s-9.188-23.914-12.8-40.239-6.4-30.842-6.282-42.512,7.737-26.747,7.737-26.747a71.142,71.142,0,0,0-14.586-2.986C359.883,427.477,356.761,426.385,356.761,426.385Z" transform="translate(-276.382 -412.763)"/>
        <path id="Trazado_106778" data-name="Trazado 106778" d="M358.72,420.144a255.791,255.791,0,0,0-8.691,41.951c-2.29,21.23,4.662,63.192,10.441,73.507,5.961,10.639,7.118,8.526,17.5,5.472,13.875-4.08,17.084-6.741,17.084-6.741s-7.09-24.139-10.7-40.465-8.5-30.616-8.38-42.286,16.977-20.7,16.977-20.7-.316-12.718-18.522-14.839C367.168,415.2,358.72,420.144,358.72,420.144Z" transform="translate(-278.341 -406.522)" fill="#464854"/>
        <path id="Trazado_106779" data-name="Trazado 106779" d="M375.978,451.582c.121-11.671,16.977-20.7,16.977-20.7s-.316-12.718-18.522-14.839c-7.264-.846-15.712,4.1-15.712,4.1A255.78,255.78,0,0,0,350.03,462.1c-1.2,11.168.149,28.071,2.543,43.088a46.486,46.486,0,0,1,34.769,1.074c-1.1-4.285-2.136-8.553-2.984-12.389C380.747,477.543,375.857,463.252,375.978,451.582Z" transform="translate(-278.341 -406.522)" fill="#3e3f4a"/>
        <path id="Trazado_106780" data-name="Trazado 106780" d="M409.4,479.079c-4.867-10.959-1.917-20.263-2.256-20.015-1.2-6.727-2.056-10.3-3.658-14.054-.81-1.9-4.811-17.6-3.171-18.412,0,0,.71-9.9,4.835-9.834,7.765.121,12.472,4.853,15.719,7.753,5.179,4.625,16.319,27.2,17.521,36.652,2.554,20.078-7.72,30.807-17.308,31.555C413.462,493.319,412.449,485.938,409.4,479.079Z" transform="translate(-308.44 -407.01)" fill="#464854"/>
        <path id="Trazado_106781" data-name="Trazado 106781" d="M441.007,520.878c3.086-.492,5.7.617,8.637,5.667s3.513,22.435.781,25.784-8.136,3.429-9.359,3.168S441.007,520.878,441.007,520.878Z" transform="translate(-332.701 -469.193)"/>
        <path id="Trazado_106782" data-name="Trazado 106782" d="M419.737,509.582a12.218,12.218,0,0,0,2.873-2.442,25.068,25.068,0,0,1,16.819-7.205c-2.77-1.621-6.181-1.64-9.372-1.3a21.062,21.062,0,0,0-6.883,1.7,9.869,9.869,0,0,0-4.969,4.884Z" transform="translate(-319.368 -455.853)"/>
        <path id="Trazado_106783" data-name="Trazado 106783" d="M205.815,492.12c3.027-11.6-1.392-20.306-1.017-20.116.1-6.833.36-10.493,1.333-14.461.491-2,1.9-18.15.146-18.683,0,0,3.942-11.406-.118-10.674-7.643,1.378-17.768,8.563-20.5,11.951-4.362,5.4-14.659,29.965-13.063,39.356.986,5.8,4.873,18.872,14.456,18.056C194.668,496.9,203.921,499.383,205.815,492.12Z" transform="translate(-172.427 -413.82)" fill="#464854"/>
        <path id="Trazado_106784" data-name="Trazado 106784" d="M369.564,434.816c.382-.951-.985-1.514-1.936-1.9,1.371-.112,2.247-.047,3.618-.158-1.754-1.489-2.326-3.2-3.93-4.867a42.366,42.366,0,0,1-8.376-1.508,255.778,255.778,0,0,0-8.691,41.951c-.13,1.2-.229,2.473-.3,3.8,3.417-5.718,5.516-9.711,8.889-15.96C362.465,449.9,365.479,441.129,369.564,434.816Z" transform="translate(-278.56 -412.763)"/>
        <path id="Trazado_106785" data-name="Trazado 106785" d="M349.656,558.99a140.963,140.963,0,0,0,.928,15.066c9.88-.446,19.951.737,30.414,2.148a16.256,16.256,0,0,1,3,.438c-1.55-6.78-3.282-13.2-4.736-19.213C369.389,557.472,359.523,558.092,349.656,558.99Z" transform="translate(-278.385 -491.109)"/>
        <path id="Trazado_106786" data-name="Trazado 106786" d="M273.083,627.775l15.749-.518.08,4.746s-5.766,2.616-9.471,2.3a21.584,21.584,0,0,1-7.064-2.03Z" transform="translate(-232.183 -532.857)"/>
        <path id="Trazado_106787" data-name="Trazado 106787" d="M406.794,618.381l-15.625,2.041.69,4.7s6.113,1.648,9.719.741a21.617,21.617,0,0,0,6.642-3.148Z" transform="translate(-303.204 -527.55)"/>
        <path id="Trazado_106788" data-name="Trazado 106788" d="M309.577,484.222s1.105-20.289-4.911-33.9a177.613,177.613,0,0,0-12.319-23.22s-3.29-3.3-6.255,1.653c-.555.927-3.291,7.251-3.291,7.251l8.19-2.968-6.683,4.531a252.414,252.414,0,0,1,16.938,23.456A59.612,59.612,0,0,1,309.577,484.222Z" transform="translate(-238.415 -412.546)" fill="#464854"/>
        <path id="Trazado_106789" data-name="Trazado 106789" d="M344.043,481.456s-.918-18.783,2.813-33.193a177.6,177.6,0,0,1,8.394-24.908s6.394,1.319,7.217,2.018a48.442,48.442,0,0,1,3.646,5.222l-8.563-1.6,7.329,3.388a252.393,252.393,0,0,0-12.913,25.89A190.924,190.924,0,0,0,344.043,481.456Z" transform="translate(-274.97 -410.951)" fill="#464854"/>
        <path id="Trazado_106790" data-name="Trazado 106790" d="M248.1,505.054s-.92-19.494-1.846-29.2-10.154-17.031-13.371-17.036-9.847,1.87-9.967,6.974,2.383,9.493,1.7,11.023-1.389,1.051-.74,4.081.722,12.138.969,16.809.42,13.369,6.069,18.537S248.1,505.054,248.1,505.054Z" transform="translate(-202.61 -432.152)"/>
        <path id="Trazado_106791" data-name="Trazado 106791" d="M248.1,501.227s-2.589-18.535-3.516-28.244-9.848-20.563-13.065-20.569-8.483,4.444-8.6,9.548,2.383,9.493,1.7,11.023-1.389,1.051-.74,4.081-.7,13.822-.451,18.493-.965,14.608,4.684,19.776S248.1,501.227,248.1,501.227Z" transform="translate(-202.61 -428.325)" fill="#464854"/>
        <path id="Trazado_106792" data-name="Trazado 106792" d="M360.951,618.882a1.606,1.606,0,1,1-1.731-1.47A1.605,1.605,0,0,1,360.951,618.882Z" transform="translate(-283.221 -526.967)"/>
      </g>
      <g id="Grupo_85667" data-name="Grupo 85667" transform="translate(8.561)">
        <path id="Trazado_106793" data-name="Trazado 106793" d="M284.036,204.818c6.44,24.9-18.114,53.935-43.01,60.375s-39.276-11.791-45.716-36.687,7.093-50.665,31.988-57.1A46.561,46.561,0,0,1,284.036,204.818Z" transform="translate(-193.716 -169.906)" fill="#002330"/>
        <path id="Trazado_106794" data-name="Trazado 106794" d="M302.615,211.682c6.44,24.9-1.878,59.1-23.111,64.6s-46.094-19.4-52.534-44.293,1.466-43.589,22.7-49.081S296.175,186.787,302.615,211.682Z" transform="translate(-212.294 -176.77)" fill="#002c3d"/>
        <path id="Trazado_106795" data-name="Trazado 106795" d="M211.467,199.647a12.051,12.051,0,0,0-7.686,1.837c-3.458,2.406-7.791,10.781-7.791,10.781s5.974-7.288,8.629-8.126a14.112,14.112,0,0,1,5.142-.574Z" transform="translate(-195.075 -187.652)" fill="#002330"/>
      </g>
      <g id="Grupo_85668" data-name="Grupo 85668" transform="translate(17.721 22.134)">
        <path id="Trazado_106796" data-name="Trazado 106796" d="M297.245,240.02s2.394,6.333,5.982,25.658c2.019,10.873-.613,25.4-4.49,32.737-3.272,6.195-7.221,14.124-17.929,16.17s-17.371-1.626-22.543-3.474c-5.592-2-16.911-9.353-20.477-22.205-3.492-12.585-7.935-22.77-10.033-29.477s-1.593-27.26,25.938-32.932S294.8,231.954,297.245,240.02Z" transform="translate(-222.776 -224.947)" fill="#ffe5c7"/>
        <path id="Trazado_106797" data-name="Trazado 106797" d="M313.954,324.261c-5.48-1.244-7.188-7.682-9.942-12.053-1.059-1.681-6.135-.643-7.181,1.424-2.34,5.231-1.64,12.3-7.249,15.181-4.936,2.452-10.278,4.409-16.008,4.262-1.435-.049-7.723-3.183-9.123-3.561.7,1.4,1.775,5.208,2.539,6.591.946.024,6.471.281,7.447.277,6.984.2,14.431-2.141,19.07-7.6,2.408-2.738,3.1-6.557,4.361-10.074,1.011-2.421,4.971-2.1,6.366-.629,2.6,2.779,3.086,7.731,6.639,9.344,4.582,2.343,10.532.767,15.439-1.787,0-1.416-.05-2.817-.161-4.186C322.051,322.579,318.129,325.3,313.954,324.261Z" transform="translate(-245.166 -276.616)" fill="#f5d1a2"/>
        <path id="Trazado_106798" data-name="Trazado 106798" d="M254.35,311.959c-6.251-7.585-8.589-17.226-10.513-20.429-4.306-7.432-2.523-5.984-4.937-14.138-2.949-10.27-2.326-21.419-1.47-31.631-11.353,8.488-11.235,21.125-9.676,26.111,2.1,6.707,6.541,16.892,10.033,29.477,3.566,12.852,14.885,20.208,20.477,22.205,5.173,1.848,11.836,5.519,22.544,3.474q.993-.189,1.911-.446C272.049,324.351,261.638,320.8,254.35,311.959Z" transform="translate(-222.777 -237.391)" fill="#f5d1a2"/>
        <path id="Trazado_106799" data-name="Trazado 106799" d="M323.861,291.118s2.979,4.567,2.017,6.248a25.764,25.764,0,0,1-1.763,2.717s2.567-1.251,2.939-3.391S323.861,291.118,323.861,291.118Z" transform="translate(-280.684 -264.508)" fill="#d69365"/>
        <path id="Trazado_106800" data-name="Trazado 106800" d="M356.7,292.233s.57,3.475,2.476,3.822a25.729,25.729,0,0,0,3.214.4s-2.61,1.159-4.487.066S356.7,292.233,356.7,292.233Z" transform="translate(-300.246 -265.174)" fill="#d69365"/>
        <path id="Trazado_106801" data-name="Trazado 106801" d="M227.315,324.812s-4.571-6.224-8.143-3.519-3.377,12.54-.568,17.974,12.342,7.908,13.628,6.495a2.16,2.16,0,0,0,.395-2.689Z" transform="translate(-216.494 -282.141)" fill="#f5d1a2"/>
        <path id="Trazado_106802" data-name="Trazado 106802" d="M223.255,340.6s-2.4-8.2,1.7-9.132,7.151,6.511,5.647,7.487-3.018,1.645-1.14,2.5a10.69,10.69,0,0,1,3.322,2.647,12.465,12.465,0,0,1-4.964.175c-1.968-.54-2.872-4.321-2.872-4.321s2.033,2.663,3.528,2.764-3.524-.8-.858-4.122.421-6.4-1.239-5.95C222.473,333.7,223.255,340.6,223.255,340.6Z" transform="translate(-220.119 -288.582)" fill="#d69365"/>
        <path id="Trazado_106803" data-name="Trazado 106803" d="M353.361,308.162a9.749,9.749,0,0,0-.789,8.343c1.61,5,7.163,9.139,6.058,10.747s-3.423,2.5-5.648,2.9-8.613,1.382-7.546,2.479,8.735,1.65,10.865.218,5.631-5.042,3.662-7.452-5.52-7.852-6.353-10.7A15.4,15.4,0,0,1,353.361,308.162Z" transform="translate(-293.512 -274.698)" fill="#d69365"/>
      </g>
      <g id="Grupo_85669" data-name="Grupo 85669" transform="translate(76.241 50.177)">
        <path id="Trazado_106804" data-name="Trazado 106804" d="M388.86,316.636c-.469.851-4.241,2.324-7.633,3.01s-4.939.9-5.613,1.1-.966-.588-.877-1.853A8.917,8.917,0,0,1,381.2,310.8c5.724-1.756,8.975.375,8.707,1.784A11.828,11.828,0,0,1,388.86,316.636Z" transform="translate(-369.613 -303.922)" fill="#d4d3cb"/>
        <path id="Trazado_106805" data-name="Trazado 106805" d="M388.023,320.6a18.725,18.725,0,0,1-5.792,2.042c-3.389.687-4.939.9-5.613,1.1s-.043-6.3,5.671-8.1C389.741,313.3,389.438,319.9,388.023,320.6Z" transform="translate(-370.617 -306.915)" fill="#fff"/>
        <path id="Trazado_106806" data-name="Trazado 106806" d="M397.14,312.716a3.463,3.463,0,1,1-4.254-2.426A3.463,3.463,0,0,1,397.14,312.716Z" transform="translate(-378.948 -303.939)" fill="#975928"/>
        <path id="Trazado_106807" data-name="Trazado 106807" d="M392,315.608a2.767,2.767,0,0,0,2.313,3.646,2.763,2.763,0,0,0,3.049-3.156A8.865,8.865,0,0,0,392,315.608Z" transform="translate(-379.854 -307.062)" fill="#b96f36"/>
        <path id="Trazado_106808" data-name="Trazado 106808" d="M398.356,316.79a1.136,1.136,0,1,1-1.4-.8A1.136,1.136,0,0,1,398.356,316.79Z" transform="translate(-382.408 -307.399)" fill="#3e1a00"/>
        <path id="Trazado_106809" data-name="Trazado 106809" d="M400.306,315.608a.877.877,0,1,1-1.077-.614A.877.877,0,0,1,400.306,315.608Z" transform="translate(-383.878 -306.807)" fill="#fff"/>
        <path id="Trazado_106810" data-name="Trazado 106810" d="M374.466,319.565s1.143-5.926,4.24-8.2,7.649-2.178,8.946-1.577c1.767.819,1.276,3.026,1.116,3.95-.139.8-.271,1.651-.271,1.651s3.294-5.527.455-6.672c-3.222-1.3-8.042-.54-10.489.919s-3.333,4.954-3.991,6.876C373.937,318.073,374.062,319.689,374.466,319.565Z" transform="translate(-369.25 -302.674)" fill="#250000"/>
        <path id="Trazado_106811" data-name="Trazado 106811" d="M379.9,294.822c.05-.287-2.976.638-6.6.981s-9.126-.244-10.281-.89-1.393.148-.323,1.315,8.967,3.684,12.688,3.292S379.824,295.286,379.9,294.822Z" transform="translate(-362.017 -294.682)" fill="#000c12"/>
      </g>
      <g id="Grupo_85670" data-name="Grupo 85670" transform="translate(38.118 51.57)">
        <path id="Trazado_106812" data-name="Trazado 106812" d="M279.1,340.042c1.1.666,6.739.023,11.425-1.268s6.764-1.995,7.736-2.173.866-1.243,0-2.6-4.282-4.841-12.551-3.329-11.532,4.069-10.35,5.481S277.257,338.924,279.1,340.042Z" transform="translate(-271.945 -317.367)" fill="#d4d3cb"/>
        <path id="Trazado_106813" data-name="Trazado 106813" d="M290.078,344.294a29.115,29.115,0,0,0,8.525-1.233c4.685-1.289,6.764-1.995,7.736-2.173s-2.614-4.621-10.882-3.109S287.877,344.371,290.078,344.294Z" transform="translate(-280.02 -321.653)" fill="#fff"/>
        <path id="Trazado_106814" data-name="Trazado 106814" d="M267.222,308.417c-.2-.31,4.262-.832,9.245-2.353S288.76,299.911,290,298.54s1.646,1.12.764,3.057-9.994,6.872-15.132,8.388S267.544,308.919,267.222,308.417Z" transform="translate(-267.216 -298.146)" fill="#000c12"/>
        <path id="Trazado_106815" data-name="Trazado 106815" d="M314.645,332.149a3.463,3.463,0,1,1-4.254-2.427A3.463,3.463,0,0,1,314.645,332.149Z" transform="translate(-291.504 -316.95)" fill="#975928"/>
        <path id="Trazado_106816" data-name="Trazado 106816" d="M309.575,337.747a2.771,2.771,0,0,0,5.536-.037C315.122,337.434,311.055,336.684,309.575,337.747Z" transform="translate(-292.541 -321.492)" fill="#b96f36"/>
        <path id="Trazado_106817" data-name="Trazado 106817" d="M315.861,336.223a1.136,1.136,0,1,1-1.4-.8A1.136,1.136,0,0,1,315.861,336.223Z" transform="translate(-294.964 -320.411)" fill="#3e1a00"/>
        <path id="Trazado_106818" data-name="Trazado 106818" d="M317.81,335.042a.877.877,0,1,1-1.078-.614A.877.877,0,0,1,317.81,335.042Z" transform="translate(-296.434 -319.818)" fill="#fff"/>
        <path id="Trazado_106819" data-name="Trazado 106819" d="M297.425,333.425s-2.722-4.875-7.989-5.539-12.854,2.612-14.491,3.646.206,3.122.96,4.057c.656.813,1.329,1.681,1.329,1.681s-7.462-4.178-4.568-7.179c3.285-3.406,10.466-4.563,14.424-4.419s5.462,1.071,7.443,2.819C296.145,329.913,298.009,333.319,297.425,333.425Z" transform="translate(-270.076 -314.596)" fill="#250000"/>
      </g>
      <g id="Grupo_85671" data-name="Grupo 85671" transform="translate(20.601 7.005)">
        <path id="Trazado_106820" data-name="Trazado 106820" d="M247.171,213.008s14.268,14.344,34.076,17.8,25.641,3.044,29.434,5.8a28.359,28.359,0,0,1,5.1,4.4s5.178-4.638-3.826-25.843-30.11-25.422-46.648-20.484S247.171,213.008,247.171,213.008Z" transform="translate(-237.715 -190.608)" fill="#000c12"/>
        <path id="Trazado_106821" data-name="Trazado 106821" d="M310.327,207.52c-9-21.205-29.817-22.8-46.354-17.866s-16.8,20.072-16.8,20.072,14.368,12.394,34.176,15.848,24.952,2.509,28.744,5.266c1.937,1.409,3.253,2.314,4.082,2.866-3.565-9.495-13.712-15.163-23.183-18.211,11.15-.331,20.469,8.311,24.523,18.553.044-.1.094-.226.144-.374C313.491,223.4,307.15,213,297.291,209.246c9.906,2.223,16.192,10.588,18.911,19.922C316.123,225.114,314.919,218.332,310.327,207.52Z" transform="translate(-237.715 -187.326)" fill="#002c3d"/>
        <path id="Trazado_106822" data-name="Trazado 106822" d="M350.556,208.172A8.912,8.912,0,0,1,353.99,213l-6.556,1.248s3.458,1.333,7.668,5.761l-.892-3.606a14.481,14.481,0,0,1,12.18,3.312A26.938,26.938,0,0,0,350.556,208.172Z" transform="translate(-297.658 -199.789)" fill="#005b75"/>
        <path id="Trazado_106823" data-name="Trazado 106823" d="M236.258,241.552s-1.99,9.312-3.631,23.373,3.115,32.84,3.115,32.84-9.27-14.972-11.734-32.15S232.708,243.13,236.258,241.552Z" transform="translate(-223.656 -219.745)" fill="#000c12"/>
        <path id="Trazado_106824" data-name="Trazado 106824" d="M237.175,240.957s-3.584,6.976-5.226,21.036.011,21.663.011,21.663-6.079-9.419-6.715-26.761C224.392,233.659,233.624,242.536,237.175,240.957Z" transform="translate(-224.573 -219.151)" fill="#002c3d"/>
      </g>
      <g id="Grupo_85675" data-name="Grupo 85675" transform="translate(6.696 100.618)">
        <g id="Grupo_85672" data-name="Grupo 85672" transform="translate(24.771)">
          <path id="Trazado_106825" data-name="Trazado 106825" d="M254.046,441.946a7.826,7.826,0,0,0-.084,1.794c.041.938-.206,1.3-1.042,1.519-.807.217-1.275-.51-1.481-.963a1.69,1.69,0,0,1,.253-2.022.858.858,0,0,1-.312.015.839.839,0,0,1-.446.135,2.22,2.22,0,0,0,.011,2.092,1.778,1.778,0,0,0,2.106,1.242c.07-.018.137-.038.2-.06a1.7,1.7,0,0,0,1.25-2,6.962,6.962,0,0,1,.1-1.808C254.416,441.908,254.231,441.921,254.046,441.946Z" transform="translate(-250.678 -433.136)" fill="#d59349"/>
          <path id="Trazado_106826" data-name="Trazado 106826" d="M269.8,424.922a52.46,52.46,0,0,0-8.73,3.169c-3.137,1.676-6.228,3.791-6.228,3.791l-3.751.427s7.845-5.233,11.621-6.487A18.658,18.658,0,0,1,269.8,424.922Z" transform="translate(-250.922 -422.961)" fill="#002a41"/>
          <path id="Trazado_106827" data-name="Trazado 106827" d="M343.74,430.427a1.69,1.69,0,0,1,.79,1.909c-.084.492-.353,1.315-1.2,1.31-.873,0-1.2-.286-1.407-1.206a7.808,7.808,0,0,0-.542-1.712c-.018.009-.035.021-.054.028l-.025.012a.858.858,0,0,1-.431.139,7.691,7.691,0,0,1,.517,1.634,1.71,1.71,0,0,0,1.732,1.614c.067,0,.137.007.21.007.91.005,1.543-.63,1.732-1.74a2.216,2.216,0,0,0-.538-2.045C344.269,430.4,344,430.417,343.74,430.427Z" transform="translate(-304.604 -426.25)" fill="#d59349"/>
          <path id="Trazado_106828" data-name="Trazado 106828" d="M300.59,423.16a52.445,52.445,0,0,1,9.25.839c3.46.821,6.988,2.077,6.988,2.077l3.736-.543s-8.92-3.061-12.891-3.31A18.651,18.651,0,0,0,300.59,423.16Z" transform="translate(-280.518 -421.355)" fill="#002a41"/>
          <path id="Trazado_106829" data-name="Trazado 106829" d="M264.855,421.628a43.494,43.494,0,0,1,18.089-.979,19.149,19.149,0,0,1,7.883,3.6l-5.962-.32s-8.2-3.078-15.714-1.671-15.8,6.819-15.8,6.819l-2.266.388A30.367,30.367,0,0,1,264.855,421.628Z" transform="translate(-250.922 -420.114)" fill="#3e5a76"/>
        </g>
        <g id="Grupo_85673" data-name="Grupo 85673" transform="translate(0 1.701)">
          <path id="Trazado_106830" data-name="Trazado 106830" d="M234.279,432.715c-13.739,1.159-37.874,2.454-42.825,3.185s-.786,13.748.233,23.763,7.422,43.845,8.505,49.763,19.326,2.774,28.529.022,42.556-4.857,50.353-5.418,13.741-.709,13.536-9.96-3.335-33.4-5.357-41.325-4.264-26.753-7.962-28.231S247.331,431.613,234.279,432.715Z" transform="translate(-189.079 -424.344)" fill="#0e2134"/>
          <path id="Trazado_106831" data-name="Trazado 106831" d="M237.058,439.505c-13.738,1.16-37.505,1.928-42.457,2.658s-.517,11.489.5,21.5,6.758,37.5,7.841,43.422,17.594,4.655,26.8,1.9,42.549-5.965,50.345-6.526,12.753-.091,12.548-9.341-3.3-30.368-5.32-38.292-3.776-23.6-7.474-25.081S250.11,438.4,237.058,439.505Z" transform="translate(-191.006 -427.49)" fill="#00324b"/>
          <path id="Trazado_106832" data-name="Trazado 106832" d="M204.463,524.548c1.305.252,16.445-.679,19.022-.976s5.295-.623,8.109-.927,45.1-5.241,50.437-6.41,12.332-3.367,12.4-6.29.008-5.186.008-5.186c-.067.2,2.019,7.519.915,8.359s-5.375,2.219-13.119,3.956-38.849,5.864-41.807,6.134-28.435,2.491-30.3,2.5-5.459.407-6.775.077-1.857-7.493-1.857-7.493S203.157,524.3,204.463,524.548Z" transform="translate(-196.506 -472.421)" fill="#0e2134"/>
        </g>
        <g id="Grupo_85674" data-name="Grupo 85674" transform="translate(5.701 7.723)">
          <path id="Trazado_106833" data-name="Trazado 106833" d="M404.232,507.777a23.493,23.493,0,0,1,3.384-1.532c1.395-.624,1.24-1.2,1.282-2.433.04-1.177-.091-2.338-.114-3.532-.015-.742-.09-2.789.734-2.851s1.671,2.492,1.769,3.557c.135,1.481.283,3.018.366,4.414.087,1.475-1.691,2.053-3.049,2.4C407.783,508.014,404.374,508.979,404.232,507.777Z" transform="translate(-323.412 -474.06)" fill="#3e5a76"/>
          <path id="Trazado_106834" data-name="Trazado 106834" d="M306.141,541.058c-.1-.987-.682-5.424-.187-6.058s2.9-1.021,4.022-1.015c1.089,0,2.681-.338,3.725-.033,1.546.452,1.57,4.675,1.734,5.938.3,2.282-2,2.545-4.321,2.879C308.149,543.2,306.28,542.4,306.141,541.058Z" transform="translate(-264.537 -495.82)" fill="#d59349"/>
          <path id="Trazado_106835" data-name="Trazado 106835" d="M308.057,542.042c-.081-.78-.538-4.282-.148-4.782s2.838-.928,3.723-.924a12.069,12.069,0,0,1,2.923-.007c1.22.357,1.5,4.787,1.249,5.76-.472,1.822-3.486,1.591-5.055,1.638C308.385,543.8,308.167,543.1,308.057,542.042Z" transform="translate(-265.731 -497.255)" fill="#a67337"/>
          <path id="Trazado_106836" data-name="Trazado 106836" d="M309.133,540.888a6.474,6.474,0,0,1,.045-2.534c.341-.435,2.472-.808,3.244-.8a10.531,10.531,0,0,1,2.546-.006c.6.174.935,1.463,1.078,2.712C313.757,540.341,311.437,540.6,309.133,540.888Z" transform="translate(-266.501 -497.989)" fill="#d59349"/>
          <path id="Trazado_106837" data-name="Trazado 106837" d="M309.479,547.106c2.332-.186,4.688-.351,6.894-.66a6.036,6.036,0,0,1-.057,1.492c-.411,1.586-3.036,1.386-4.4,1.428-2.06.061-2.25-.547-2.346-1.468C309.551,547.74,309.517,547.454,309.479,547.106Z" transform="translate(-266.762 -503.366)" fill="#d59349"/>
          <path id="Trazado_106838" data-name="Trazado 106838" d="M316.764,549.713a.673.673,0,1,0,.475-.739A.625.625,0,0,0,316.764,549.713Z" transform="translate(-271.106 -504.858)" fill="#a67337"/>
          <path id="Trazado_106839" data-name="Trazado 106839" d="M310.12,541.064c-.119-.4-.395-1.109.143-1.327.274-.111,1.091-.36,1.285-.072.256.381-.984.322-1.1.591-.078.183.127.413.061.606-.049.143-.373.412-.448.175Z" transform="translate(-267.04 -499.231)" fill="#edb872"/>
          <path id="Trazado_106840" data-name="Trazado 106840" d="M203.283,476.043c0-1.128.01-2.256-.019-3.382-.032-1.241-.031-3.009,1.1-3.932a4.45,4.45,0,0,1,2.7-.715c.542,0,2.184.2,2.156.951-.035.908-1.664,1-2.272,1.142a3.34,3.34,0,0,0-1.4.542,2.35,2.35,0,0,0-.57,1.7c-.056.582-.141,1.177-.155,1.756-.018.788.229,1.548.254,2.339a6.322,6.322,0,0,1,.025,2.18c-.178.5-.737.678-.994.162l-.305-.043c-.086-.29-.171-.576-.272-.861A5,5,0,0,1,203.283,476.043Z" transform="translate(-203.256 -456.475)" fill="#3e5a76"/>
          <path id="Trazado_106841" data-name="Trazado 106841" d="M389.444,439.533c1.126-.048,2.254-.09,3.377-.169,1.238-.087,3-.165,3.977.928a4.453,4.453,0,0,1,.834,2.666c.02.542-.1,2.191-.855,2.2-.909.006-1.074-1.618-1.241-2.219a3.349,3.349,0,0,0-.6-1.371,2.352,2.352,0,0,0-1.727-.494c-.584-.03-1.181-.089-1.761-.077-.788.016-1.536.3-2.325.357a6.333,6.333,0,0,1-2.176.121c-.505-.156-.71-.706-.206-.986l.029-.306c.285-.1.567-.2.847-.31A4.994,4.994,0,0,1,389.444,439.533Z" transform="translate(-312.778 -439.318)" fill="#3e5a76"/>
        </g>
      </g>
      <g id="Grupo_85676" data-name="Grupo 85676" transform="translate(29.203 45.238)">
        <path id="Trazado_106842" data-name="Trazado 106842" d="M250.288,303.068c.612.77,2.268,4.991,2.973,6.233,1.968,3.471,5.245,7.609,9.011,7.433,6.333-.3,17.725-2.221,20.591-5.946,2.538-3.3,4.452-7.324,4.6-9.018s.233-3.735,3.03-4.345c3.2-.7,4.192,1.853,4.575,3.148s2.689,4.255,6.369,6.562c3.84,2.409,8.315.753,14.355-1.382,3.591-1.271,6.45-7.384,6.832-10.55s.187-5.273.434-6.187c.5-1.863,1.84-.889.829-4.269-1.425-4.758-16.988-1.388-27.5,2.231a57.109,57.109,0,0,1-6.376,2.238c-2.776.369-7.3.541-7.964.583-10.989.695-33.85,4.835-33.722,9.848C248.414,303.058,249.55,302.142,250.288,303.068Zm49.411-13.09c9.31-3.226,17.514-5.025,19.953-1.571s.028,14.447-5.078,16.252c-5.368,1.9-8.582,3.269-11.992,1.13s-5.4-4.918-6.022-7.325S294.662,291.724,299.7,289.978Zm-45.744,11.807c1.227-4.175,16.166-7.409,25.907-7.9,5.18-.263,5.4,4.276,5.564,6.773s-1.511,6-4.057,9.307-12.666,5.019-18.293,5.285C257.727,315.494,252.729,305.959,253.955,301.784Z" transform="translate(-247.007 -282.399)" fill="#350000"/>
        <path id="Trazado_106843" data-name="Trazado 106843" d="M247.9,321.272a16.682,16.682,0,0,0-2.809.416,22.444,22.444,0,0,0,.272,3.965l2.614-.01Z" transform="translate(-245.047 -305.64)" fill="#350000"/>
        <path id="Trazado_106844" data-name="Trazado 106844" d="M339.146,307.41a4.409,4.409,0,0,0-.312-1.791,2.443,2.443,0,0,0-.349-.763,2.147,2.147,0,0,0-1.633-.65,3.164,3.164,0,0,0-2.059.468.359.359,0,0,0-.182.276.355.355,0,0,0,.173.247c.359.265.8.4,1.173.642a8.006,8.006,0,0,1,1.665,1.884c.251.308.621.619,1,.5A.9.9,0,0,0,339.146,307.41Z" transform="translate(-298.594 -295.432)" fill="#4f1315"/>
        <path id="Trazado_106845" data-name="Trazado 106845" d="M424.939,289.054a4.42,4.42,0,0,0-.312-1.791,2.462,2.462,0,0,0-.349-.764,2.147,2.147,0,0,0-1.633-.65,3.169,3.169,0,0,0-2.059.468.282.282,0,0,0-.008.524c.359.265.8.4,1.173.642a8,8,0,0,1,1.665,1.884c.251.308.62.619,1,.5A.9.9,0,0,0,424.939,289.054Z" transform="translate(-349.886 -284.457)" fill="#4f1315"/>
      </g>
      <g id="Grupo_85677" data-name="Grupo 85677" transform="translate(70.162 83.117)">
        <path id="Trazado_106846" data-name="Trazado 106846" d="M355.429,377.051a3.648,3.648,0,0,1,1.511-.282c2.816.2,4,4.315,4.249,6.219a31.428,31.428,0,0,1-.3,8.376c-.528,2.719-3.5,4.286-8.692,1.814s-5.683-4.865-5.12-6.731C348.282,382.466,352.46,378.184,355.429,377.051Z" transform="translate(-346.9 -376.696)" fill="#9d4b3c"/>
        <path id="Trazado_106847" data-name="Trazado 106847" d="M367.772,402.456c1.315-.027,4.535,2.207,4.319,4.108s-1.64,1.983-1.64,1.983l-4.747-4.933A2.771,2.771,0,0,1,367.772,402.456Z" transform="translate(-358.142 -392.056)" fill="#e5dbec"/>
        <path id="Trazado_106848" data-name="Trazado 106848" d="M371.663,410.335l-3.933-3.324a6.881,6.881,0,0,1,2.04-1.392,2.388,2.388,0,0,1,.793-.171,3.089,3.089,0,0,1,2.738,2.9A1.853,1.853,0,0,1,371.663,410.335Z" transform="translate(-359.354 -393.844)" fill="url(#radial-gradient-3)"/>
        <path id="Trazado_106849" data-name="Trazado 106849" d="M370.219,416.394a3.9,3.9,0,0,1-2.347,3.926c-2.639,1.05-5.608-2.036-5.608-2.036Z" transform="translate(-356.086 -400.389)" fill="#d69365"/>
        <path id="Trazado_106850" data-name="Trazado 106850" d="M353.846,404.262a7.756,7.756,0,0,1,7.2,2.4,3.265,3.265,0,0,1,.788,2.577,7.531,7.531,0,0,1-5.8.511,12.293,12.293,0,0,1-5.393-2.791S350.958,404.981,353.846,404.262Z" transform="translate(-349.135 -393.033)" fill="#f8b5ba"/>
        <path id="Trazado_106851" data-name="Trazado 106851" d="M349.7,380.221c1.567-2.4,4.794-3.629,8.36-3.627s3.278,7.374,3.278,7.374a14.374,14.374,0,0,0-1.492-4.349c-1.067-1.753-4-1.4-7.3.069s-5.548,7.3-5.548,7.3A21.6,21.6,0,0,1,349.7,380.221Z" transform="translate(-346.959 -376.594)" fill="#d69365"/>
        <path id="Trazado_106852" data-name="Trazado 106852" d="M347.508,405.661s3.557,3.539,7.939,3.606,5.314-.85,5.751-2.254a9.091,9.091,0,0,0,.452-2.3s1.3,3.845-.305,6.319-5.014,2.248-8.151.814A11.383,11.383,0,0,1,347.508,405.661Z" transform="translate(-347.264 -393.406)" fill="#ffe5c7"/>
      </g>
    </g>
    <g id="Hands" transform="translate(734.193 30989.676)">
      <g id="Grupo_85678" data-name="Grupo 85678">
        <path id="Trazado_106853" data-name="Trazado 106853" d="M185.636,495.193s-4.083-4.637-5.453-1.4c-.39.921,1.65,8.242,1.414,8.4a14.629,14.629,0,0,0-3.913,3.3c-.127,2.926.937,2.833.346,4.607-.66,1.982-.95,3.807-.627,4.784.61,1.843,1.868,3.433,1.172,4.809s.035,3.877,1.23,5.3c1.346,1.6.354,6.186,3.352,7.242,2.632.925,7.02.643,7.02.643Z" transform="translate(-177.271 -490.135)" fill="#f5d1a2"/>
        <path id="Trazado_106854" data-name="Trazado 106854" d="M192.287,512.259l-.587-4.868q-.528.06-1.061.137c-2.524.367-7.8,1.087-10.011,4.889-.178.3.035.74.442,1.194Z" transform="translate(-179.24 -498.952)" fill="#e1a177"/>
        <path id="Trazado_106855" data-name="Trazado 106855" d="M198.964,509.739c1.084.6,2.391.287,2.624,2.642.132,1.333-1.418,2.359-2.568,2.284-3.531-.229-5.1-1.544-10.11.433-1,.393-5.344,2.456-6.374,2.486s-3.824-.647-4.2-1.732c-1.757-5.05,7.71-7.617,10.24-8.267C190.687,507.044,194.471,507.255,198.964,509.739Z" transform="translate(-177.778 -498.923)" fill="#ffe5c7"/>
        <path id="Trazado_106856" data-name="Trazado 106856" d="M192.718,528.045c4.459.513,10.559,6.649,8.971,6.5-7.219-.688-11.2,4.451-17.732,3.446A5.569,5.569,0,0,1,181.4,536.2a2.746,2.746,0,0,1-.771-2.684,3.779,3.779,0,0,1,1.7-3.032C186.757,527.676,187.764,527.475,192.718,528.045Z" transform="translate(-179.239 -511.147)" fill="#e1a177"/>
        <path id="Trazado_106857" data-name="Trazado 106857" d="M193.951,528.478c3.975.236,3.192,1.2,7.167,1.431,1.62.1,3.624.055,4.183,1.941.55,1.853-1.2,3.337-2.729,3.92s-6.262.632-7.85.667c-4.434.1-7.937,2.457-11.954,1.752-.932-.164-2.09-.412-2.577-3.085-.21-1.142.361-3.562,1.46-4.053C186.325,528.963,188.973,528.182,193.951,528.478Z" transform="translate(-178.992 -511.523)" fill="#ffe5c7"/>
        <path id="Trazado_106858" data-name="Trazado 106858" d="M201.669,557.7c-3.965.8-5.249,2.24-9.213,3.036a11.526,11.526,0,0,1-3.813-.045c-1.106-.2-1.026-1.253-1.578-2.477-2.439-5.418,5.548-5.995,7.849-6.031C200.561,552.09,204.061,557.216,201.669,557.7Z" transform="translate(-182.854 -525.728)" fill="#e1a177"/>
        <path id="Trazado_106859" data-name="Trazado 106859" d="M205.2,553.728c.758,1.732-2.465,3.3-4.859,3.782-3.963.795-6.074,1.708-10.039,2.5a8.913,8.913,0,0,1-3.339.243,3.726,3.726,0,0,1-2.759-2.122c-2.439-5.419,6.78-5.9,9.03-6.386C198.038,550.717,204.743,552.683,205.2,553.728Z" transform="translate(-181.173 -525.298)" fill="#ffe5c7"/>
        <path id="Trazado_106860" data-name="Trazado 106860" d="M198.4,579.221l-.674-5.585c-.105.031-.216.064-.338.1-1.868.571-4.539-.582-6.191.372-1.424.822-2.336,3.049-1.4,4.322a2.658,2.658,0,0,0,2.141,1.389C196.35,580.7,198.4,579.221,198.4,579.221Z" transform="translate(-184.531 -538.558)" fill="#e1a177"/>
        <path id="Trazado_106861" data-name="Trazado 106861" d="M195.848,572.583c2.12-.649,2.427-1.316,4.6-1.352,1.1-.018,2.112.329,2.371,1.453a2.275,2.275,0,0,1-.741,2.318c-3.117,3.182-5.9,3.369-10.1,3.38-1.195,0-2.412.066-3.131-.912a3.516,3.516,0,0,1,.924-4.61C191.43,571.907,193.979,573.154,195.848,572.583Z" transform="translate(-183.9 -537.119)" fill="#ffe5c7"/>
        <path id="Trazado_106862" data-name="Trazado 106862" d="M189.483,487.746c1.109,1.325,3.6,3.5,3.665,4.89s-1.928,3.238-4.079,2.79a6.942,6.942,0,0,1-4.509-4.283C183.93,489.438,186.249,483.881,189.483,487.746Z" transform="translate(-181.567 -486.406)" fill="#e1a177"/>
        <path id="Trazado_106863" data-name="Trazado 106863" d="M189.483,487.746c1.109,1.325,3.6,3.5,3.665,4.89s-2.279,2.706-4.43,2.258a5.712,5.712,0,0,1-4.158-3.751C183.93,489.438,186.249,483.881,189.483,487.746Z" transform="translate(-181.567 -486.406)" fill="#ffe5c7"/>
      </g>
      <g id="Grupo_85679" data-name="Grupo 85679" transform="translate(89.608 3.586)">
        <path id="Trazado_106864" data-name="Trazado 106864" d="M435.634,504.1s3-5.4,5.029-2.533c.577.816.142,8.4.405,8.5a14.642,14.642,0,0,1,4.527,2.394c.747,2.832-.312,2.967.643,4.575,1.067,1.8,1.739,3.518,1.631,4.541-.2,1.931-1.094,3.752-.121,4.949s.791,3.8-.074,5.436c-.975,1.848.971,6.119-1.733,7.789a16.908,16.908,0,0,1-5.928,1.86Z" transform="translate(-421.344 -498.557)" fill="#f5d1a2"/>
        <path id="Trazado_106865" data-name="Trazado 106865" d="M427.937,524.065l-.463-4.881c.353-.035.707-.067,1.066-.092,2.544-.179,7.855-.6,10.823,2.645.238.26.123.73-.178,1.261Z" transform="translate(-416.466 -509.461)" fill="#e1a177"/>
        <path id="Trazado_106866" data-name="Trazado 106866" d="M404.5,523.477c-.932.818-2.275.789-2,3.14.154,1.33,1.888,2,3,1.685,3.4-.976,4.651-2.594,9.97-1.73,1.062.171,5.744,1.262,6.758,1.072s3.6-1.446,3.735-2.587c.641-5.309-9.155-5.8-11.765-5.9C412.016,519.08,408.364,520.094,404.5,523.477Z" transform="translate(-401.514 -509.572)" fill="#ffe5c7"/>
        <path id="Trazado_106867" data-name="Trazado 106867" d="M418.063,538.818c-4.247,1.451-8.9,8.745-7.382,8.259,6.906-2.209,11.892,1.964,18.059-.409a5.57,5.57,0,0,0,2.116-2.292,2.745,2.745,0,0,0,.182-2.787,3.777,3.777,0,0,0-2.3-2.6C423.81,537.188,422.784,537.206,418.063,538.818Z" transform="translate(-406.25 -520.613)" fill="#e1a177"/>
        <path id="Trazado_106868" data-name="Trazado 106868" d="M410.479,540.1c-3.834,1.077-2.864,1.848-6.7,2.924-1.563.439-3.53.826-3.675,2.787-.142,1.928,1.881,3.005,3.5,3.249s6.253-.716,7.812-1.02c4.353-.849,8.278.711,12.052-.834.875-.359,1.955-.848,1.861-3.562-.039-1.161-1.111-3.4-2.289-3.65C418.034,538.952,415.28,538.753,410.479,540.1Z" transform="translate(-400.099 -521.526)" fill="#ffe5c7"/>
        <path id="Trazado_106869" data-name="Trazado 106869" d="M423.057,569.284c4.043-.067,5.605,1.071,9.648,1a11.535,11.535,0,0,0,3.715-.857c1.038-.433.736-1.442,1.014-2.756,1.229-5.813-6.7-4.676-8.953-4.221C422.946,563.572,420.617,569.325,423.057,569.284Z" transform="translate(-413.248 -535.219)" fill="#e1a177"/>
        <path id="Trazado_106870" data-name="Trazado 106870" d="M409.914,567.273c-.372,1.854,3.111,2.7,5.552,2.66,4.042-.067,6.3.376,10.342.308a8.919,8.919,0,0,0,3.314-.474,3.725,3.725,0,0,0,2.244-2.661c1.229-5.814-7.881-4.323-10.183-4.317C416.27,562.806,410.138,566.154,409.914,567.273Z" transform="translate(-405.951 -535.554)" fill="#ffe5c7"/>
        <path id="Trazado_106871" data-name="Trazado 106871" d="M440.329,588.656l-.532-5.6.352.027c1.947.161,4.312-1.535,6.129-.954,1.566.5,2.932,2.482,2.288,3.924a2.656,2.656,0,0,1-1.8,1.813C442.645,589.667,440.329,588.656,440.329,588.656Z" transform="translate(-423.833 -547.147)" fill="#e1a177"/>
        <path id="Trazado_106872" data-name="Trazado 106872" d="M432.927,583.2c-2.209-.182-2.651-.769-4.785-.341-1.078.217-1.993.771-2.008,1.924a2.277,2.277,0,0,0,1.217,2.108c3.723,2.444,6.479,2.037,10.584,1.153,1.168-.253,2.371-.45,2.866-1.557a3.516,3.516,0,0,0-1.884-4.308C437.1,581.6,434.875,583.359,432.927,583.2Z" transform="translate(-415.664 -547.179)" fill="#ffe5c7"/>
        <path id="Trazado_106873" data-name="Trazado 106873" d="M430.95,497.142c-.8,1.53-2.775,4.183-2.54,5.558s2.573,2.754,4.58,1.857a6.942,6.942,0,0,0,3.494-5.144C436.736,497.613,433.288,492.677,430.95,497.142Z" transform="translate(-417.014 -495.323)" fill="#e1a177"/>
        <path id="Trazado_106874" data-name="Trazado 106874" d="M430.95,497.142c-.8,1.53-2.775,4.183-2.54,5.558s2.8,2.159,4.81,1.263a5.712,5.712,0,0,0,3.264-4.55C436.736,497.613,433.288,492.677,430.95,497.142Z" transform="translate(-417.014 -495.323)" fill="#ffe5c7"/>
      </g>
    </g>
  </g>
</svg>
