<svg xmlns="http://www.w3.org/2000/svg" width="399" height="472" viewBox="0 0 399 472">
  <g id="Grupo_87752" data-name="Grupo 87752" transform="translate(-181 -32845)">
    <rect id="Rectángulo_33961" data-name="Rectángulo 33961" width="399" height="472" transform="translate(181 32845)" fill="#f2df85"/>
    <g id="Grupo_85802" data-name="Grupo 85802" transform="translate(2.801 32869.496)">
      <g id="Background" transform="translate(274.047 27.721)">
        <g id="Grupo_85785" data-name="Grupo 85785" transform="translate(0)">
          <path id="Trazado_108536" data-name="Trazado 108536" d="M422.434,96.274l-.742-.066L397.305,88.22l5.358-11.314Z" transform="translate(-397.305 -68.222)" fill="#fff"/>
          <path id="Trazado_108537" data-name="Trazado 108537" d="M439.58,79.856l-.642-.488L420.52,58.653l10.072-5.976Z" transform="translate(-412.201 -52.676)" fill="#fff"/>
        </g>
      </g>
      <g id="Senior" transform="translate(205.199 13.782)">
        <g id="Grupo_85787" data-name="Grupo 85787" transform="translate(100.613 384.794)">
          <g id="Grupo_85786" data-name="Grupo 85786">
            <path id="Trazado_108538" data-name="Trazado 108538" d="M757.468,1136.4c-.913-2.423-1.856-5.064-2.747-7.807-3.612-11.114-7.78-41.123-7.78-41.123l-49.25,6.391,2.994,42.539Z" transform="translate(-621.802 -1087.471)" fill="#cf802a"/>
            <path id="Trazado_108539" data-name="Trazado 108539" d="M749.7,1105.2c-.4-2.7-2.762-17.733-2.762-17.733l-49.25,6.391,2.514,19.7C725.277,1111.273,746.4,1107.422,749.7,1105.2Z" transform="translate(-621.802 -1087.471)" fill="#b05f22"/>
            <path id="Trazado_108540" data-name="Trazado 108540" d="M579.961,1138.888c.53-10.719-2.574-42.539-2.574-42.539l-84.191-5s-6.238,12.887-6.947,22.507a89.3,89.3,0,0,0,1.3,25.034Z" transform="translate(-485.938 -1089.958)" fill="#b05f22"/>
            <path id="Trazado_108541" data-name="Trazado 108541" d="M595.906,1138.888c.53-10.719-2.574-42.539-2.574-42.539l-75.3-5s-4.724,11.67-6.669,21.117c-1.106,5.371-.415,17.208.387,26.423Z" transform="translate(-501.883 -1089.958)" fill="#a9551f"/>
            <path id="Trazado_108542" data-name="Trazado 108542" d="M593.388,1138.888c.559-10.434-3.39-42.817-3.39-42.817l-71.965-4.724s-4.724,11.67-6.669,21.117c-1.106,5.371-.415,17.208.387,26.423Z" transform="translate(-501.883 -1089.958)" fill="#cf802a"/>
            <path id="Trazado_108543" data-name="Trazado 108543" d="M524.985,1105.3a52.126,52.126,0,0,0-3.334,13.059c-.834,7.225-.278,10.559-.278,10.559a29.975,29.975,0,0,0,20.005-5.835c10-7.224,10-12.781,10-12.781Z" transform="translate(-508.557 -1098.912)" fill="#bf7726"/>
            <path id="Trazado_108544" data-name="Trazado 108544" d="M513.721,1141.227H513.7c-.188-.015-.287-.025-.287-.025a.28.28,0,0,1,.055-.558l.278.024a.281.281,0,0,1-.025.56Zm2.268.072a.28.28,0,0,0,0-.561h-.139l-.425,0h0a.28.28,0,0,0,0,.561l.432,0Zm.572-.007q.276,0,.572-.015a.28.28,0,0,0,.27-.29.277.277,0,0,0-.29-.271c-.194.007-.382.011-.563.015a.28.28,0,0,0,.005.561Zm-1.428-.28a.281.281,0,0,0-.272-.288c-.208-.005-.4-.014-.56-.022a.276.276,0,0,0-.294.266.281.281,0,0,0,.266.294c.168.008.359.016.573.023h.008A.28.28,0,0,0,515.133,1141.012Zm2.571.242c.186-.009.376-.021.571-.032a.28.28,0,1,0-.035-.56c-.193.012-.38.023-.563.031a.28.28,0,0,0,.014.561Zm1.141-.072c.186-.014.376-.03.569-.047a.28.28,0,0,0-.051-.558q-.286.025-.562.046a.281.281,0,0,0,.021.561Zm1.137-.1q.28-.029.568-.063a.281.281,0,0,0-.066-.557c-.19.023-.376.043-.56.063a.28.28,0,0,0,.029.559Zm1.135-.135c.186-.025.375-.051.566-.079a.281.281,0,1,0-.081-.555c-.189.028-.375.054-.558.078a.28.28,0,0,0,.036.558A.225.225,0,0,0,521.117,1140.942Zm1.131-.167q.279-.045.563-.095a.281.281,0,1,0-.1-.553q-.281.05-.555.094a.28.28,0,1,0,.089.553Zm1.126-.2q.278-.053.561-.111a.28.28,0,0,0-.113-.549q-.279.057-.553.109a.281.281,0,0,0,.052.556A.292.292,0,0,0,523.374,1140.577Zm1.119-.23q.277-.061.558-.127a.28.28,0,1,0-.129-.546q-.277.064-.55.125a.281.281,0,0,0,.06.554A.309.309,0,0,0,524.493,1140.347Zm1.112-.262q.275-.069.553-.143a.281.281,0,0,0-.144-.542q-.274.074-.545.142a.28.28,0,1,0,.136.544Zm1.1-.295c.182-.052.364-.1.549-.159a.28.28,0,0,0-.159-.538l-.542.157a.28.28,0,0,0,.076.55A.273.273,0,0,0,526.71,1139.79Zm1.1-.328q.271-.085.544-.176a.281.281,0,0,0-.177-.533c-.179.06-.357.118-.536.174a.28.28,0,0,0,.085.547A.275.275,0,0,0,527.806,1139.463Zm1.085-.361c.179-.063.358-.126.538-.193a.281.281,0,0,0-.194-.527q-.266.1-.53.191a.28.28,0,0,0,.093.544A.273.273,0,0,0,528.891,1139.1Zm1.073-.394q.266-.1.532-.21a.28.28,0,1,0-.21-.52c-.175.071-.35.139-.524.206a.281.281,0,0,0,.2.524Zm1.06-.429c.175-.074.35-.15.525-.227a.28.28,0,1,0-.227-.513q-.258.114-.516.223a.281.281,0,0,0,.109.539A.286.286,0,0,0,531.024,1138.278Zm1.046-.464c.172-.08.344-.162.517-.244a.281.281,0,1,0-.244-.505c-.17.082-.339.162-.509.24a.281.281,0,0,0,.118.535A.276.276,0,0,0,532.07,1137.814Zm1.03-.5c.169-.085.339-.173.508-.262a.281.281,0,0,0-.26-.5c-.167.088-.334.174-.5.258a.28.28,0,0,0,.253.5Zm1.013-.533q.25-.137.5-.279a.28.28,0,1,0-.278-.487c-.163.093-.328.185-.491.274a.281.281,0,1,0,.27.492Zm.993-.567q.245-.146.489-.3a.281.281,0,1,0-.295-.477c-.16.1-.32.2-.481.292a.28.28,0,0,0,.144.521A.277.277,0,0,0,535.106,1136.216Zm.973-.6q.24-.154.478-.314a.28.28,0,0,0-.311-.467q-.235.157-.47.309a.28.28,0,0,0,.152.516A.275.275,0,0,0,536.078,1135.613Zm.951-.637q.234-.163.467-.331a.281.281,0,1,0-.329-.455q-.228.165-.459.325a.281.281,0,0,0,.161.511A.274.274,0,0,0,537.03,1134.977Zm.928-.67c.129-.1.258-.2.386-.294l.071-.055a.28.28,0,0,0-.348-.439l-.066.051c-.126.1-.252.194-.378.289a.28.28,0,0,0,.168.5A.276.276,0,0,0,537.957,1134.306Zm.9-.7q.226-.179.445-.355a.281.281,0,0,0-.352-.437q-.217.175-.442.352a.28.28,0,1,0,.348.44Zm.887-.714c.149-.122.3-.243.439-.364a.28.28,0,1,0-.36-.43q-.213.179-.434.359a.281.281,0,1,0,.356.434Zm.875-.73q.22-.188.432-.373a.28.28,0,0,0-.369-.422q-.209.183-.427.368a.281.281,0,0,0,.364.427Zm.859-.749q.217-.192.424-.382a.281.281,0,1,0-.379-.414q-.2.187-.418.377a.28.28,0,1,0,.372.419Zm.844-.769c.142-.132.279-.263.414-.392a.28.28,0,1,0-.388-.4q-.2.191-.409.387a.28.28,0,0,0,.191.485A.277.277,0,0,0,542.326,1130.645Zm.824-.791c.138-.136.273-.271.4-.4a.28.28,0,0,0-.4-.393q-.193.2-.4.4a.28.28,0,0,0,.2.48A.277.277,0,0,0,543.149,1129.855Zm.8-.815c.134-.141.264-.28.391-.418a.281.281,0,0,0-.413-.38q-.186.2-.384.411a.28.28,0,0,0,.01.4.276.276,0,0,0,.193.077A.281.281,0,0,0,543.951,1129.04Zm.774-.842q.2-.219.376-.432a.281.281,0,0,0-.427-.364q-.177.209-.368.424a.28.28,0,1,0,.419.372Zm.742-.873c.124-.152.242-.3.356-.449a.28.28,0,1,0-.443-.343q-.167.216-.348.439a.281.281,0,1,0,.435.354Zm.7-.908c.116-.16.227-.316.333-.469a.281.281,0,0,0-.462-.318q-.153.222-.323.456a.28.28,0,0,0,.453.331Zm.652-.949q.161-.253.3-.492a.28.28,0,1,0-.483-.285c-.091.153-.188.312-.292.474a.28.28,0,0,0,.085.387.283.283,0,0,0,.151.045A.28.28,0,0,0,546.82,1125.468Zm.586-1q.144-.269.261-.519a.28.28,0,0,0-.507-.239q-.112.237-.249.494a.28.28,0,0,0,.115.379.274.274,0,0,0,.132.034A.28.28,0,0,0,547.406,1124.472Zm.5-1.052c.074-.184.142-.37.2-.551a.28.28,0,0,0-.533-.174c-.055.168-.119.342-.189.514a.281.281,0,0,0,.155.366.288.288,0,0,0,.105.021A.281.281,0,0,0,547.9,1123.42Zm.362-1.118a5.479,5.479,0,0,0,.106-.588.28.28,0,0,0-.244-.312.275.275,0,0,0-.312.244,4.86,4.86,0,0,1-.1.527.281.281,0,0,0,.209.337.313.313,0,0,0,.065.008A.281.281,0,0,0,548.264,1122.3Zm-.122-.922a.281.281,0,0,0,.256-.294,1.675,1.675,0,0,0-.045-.337.281.281,0,0,0-.549.11l.035.276a.281.281,0,0,0,.278.245Z" transform="translate(-503.405 -1108.69)" fill="#b05f22"/>
            <path id="Trazado_108545" data-name="Trazado 108545" d="M512.334,1138.888c-.7-9.132-.015-13.76,2.982-22.4.841-1.963,5.042-3.107,19.325-1.553s35.76,4.308,57.349-.457L590,1096.071l-71.965-4.724s-4.724,11.67-6.669,21.117c-1.106,5.371-.415,17.208.387,26.423Z" transform="translate(-501.883 -1089.958)" fill="#b05f22"/>
            <path id="Trazado_108546" data-name="Trazado 108546" d="M509.452,1141.9a111.922,111.922,0,0,1,4.96-45.249l-1.865-.61a113.888,113.888,0,0,0-5.064,45.859Z" transform="translate(-499.442 -1092.968)" fill="#a9551f"/>
          </g>
        </g>
        <g id="Grupo_85788" data-name="Grupo 85788" transform="translate(0.589 142.385)">
          <path id="Trazado_108547" data-name="Trazado 108547" d="M831.335,564.2c-12.839-7.149-34.624-5.33-34.624-5.33s-11.287,57-2.755,61.85,107.931,14.8,119.067,7.691c11.078-10.527,11.4-25.864-13.728-38.463C869.415,574.969,854.362,577.022,831.335,564.2Z" transform="translate(-581.497 -505.772)" fill="#9fcdee"/>
          <path id="Trazado_108548" data-name="Trazado 108548" d="M885.652,678.929c-18.428-1.189-42.473-2.564-57.525-6.865-11.468-3.584-11.906-19.12-21.941-24.854-4.812-2.647-8.655-6.423-12.939-9.379-1.836,15.137-2.647,31.207,1.709,33.685,7.35,4.179,82.119,12.137,109.825,9.722C909.24,680.849,900.33,679.876,885.652,678.929Z" transform="translate(-582.138 -556.567)" fill="#7eb1d6"/>
          <path id="Trazado_108549" data-name="Trazado 108549" d="M599.987,731.57c-.292-4.234-1.6-31.2-3.017-66.71-1.364-34.088,2.984-102.135,4.261-111.5s3.056-16.861-3.3-20.416-16.7-6.714-16.7-6.714l-27.064,33.529-10.66-32.328L508.67,508.5s-44.33-.82-46.873,8.285c-2.526,9.047-9.211,163.464,4.234,216.3C506.834,739.168,567.335,741.532,599.987,731.57Z" transform="translate(-367.919 -473.573)" fill="#9fcdee"/>
          <path id="Trazado_108550" data-name="Trazado 108550" d="M470.094,772.1c-1.792-23.295,1.814-82.153,4.681-86.1-5.273,3.712-16.346,5.251-16.353,5.527-1.314,51.907-.667,122.932,7.61,155.461,8.435,1.257,17.713,2.354,27.411,3.218C470.478,829.763,472.59,800.63,470.094,772.1Z" transform="translate(-367.919 -587.473)" fill="#7eb1d6"/>
          <path id="Trazado_108551" data-name="Trazado 108551" d="M295.722,515.4c12.839-7.149,39.323-5.748,39.323-5.748a125.273,125.273,0,0,1-.587,27.739c-2.039,14.757,4.591,26.942-21.537,38.392-21.069,9.233-87.752,10.934-98.888,3.829-11.079-10.527-11.4-25.863,13.728-38.463C257.642,526.172,272.695,528.226,295.722,515.4Z" transform="translate(-206.841 -474.257)" fill="#7eb1d6"/>
          <path id="Trazado_108552" data-name="Trazado 108552" d="M295.722,515.4c12.839-7.149,39.323-5.748,39.323-5.748s5.26,50.461-2.712,56.188c-8.521,6.12-107.156,21.712-118.3,13.772-11.079-10.527-11.4-25.863,13.728-38.463C257.642,526.172,272.695,528.226,295.722,515.4Z" transform="translate(-206.841 -474.257)" fill="#9fcdee"/>
          <path id="Trazado_108553" data-name="Trazado 108553" d="M668.005,490.158c-12.965-3.669-25.434-5.762-30.01-4.363s-1.91,21.875-1.91,21.875l54.357,7.572s-1.074-9.885-4.1-11.937S674.3,491.938,668.005,490.158Z" transform="translate(-481.755 -458.737)" fill="#60ade0"/>
          <path id="Trazado_108554" data-name="Trazado 108554" d="M655.858,462.886c-7.038-5.35,1.255-23.773,5.069-29.668l-49.233-22.139c1.127,4.186-2.711,35.33-5.761,38-3.509,3.074-17.981,2.774-19.09,4.779-.944,1.709,18.139,6.44,32.448,18.111,9.237,7.534,16.413,24.3,17.36,24.462,3.058.51,14.046-22.568,23.673-32.827C664.992,458.631,659.508,465.66,655.858,462.886Z" transform="translate(-450.634 -411.079)" fill="#fab17b"/>
          <path id="Trazado_108555" data-name="Trazado 108555" d="M693.824,462.886c-7.038-5.35,1.255-23.773,5.069-29.668L649.66,411.079c.878,3.258-1.253,22.845-3.679,32.629C665.551,462.987,697.073,465.357,693.824,462.886Z" transform="translate(-488.6 -411.079)" fill="#d98a50"/>
          <path id="Trazado_108556" data-name="Trazado 108556" d="M293.19,527.362c23.924-15.025,28.25-14.677,38.351-15.782,10.215-1.117,22.166-2.485,25.913-3.1-2.814-.013-8.735.015-15.393.382-8.15-.046-25.207.548-34.742,5.857-23.028,12.821-38.08,10.768-67.961,25.748a53.547,53.547,0,0,0-14.443,9.988c1.2-.349,2.41-.667,3.615-.935C250.39,545.222,275.323,538.584,293.19,527.362Z" transform="translate(-218.437 -473.573)" fill="#7eb1d6"/>
        </g>
        <g id="Grupo_85789" data-name="Grupo 85789" transform="translate(0 47.69)">
          <path id="Trazado_108557" data-name="Trazado 108557" d="M369.656,401.083c5.351-8.967,21.031-26.049,21.031-26.049-2.642-6.862-12.748-15.13-21.673-17.63s-11.552-1.236-11.552-1.236c-.154.17-5.495,6.589-5.708,6.809l-23.739,31.664Z" transform="translate(-284 -280.947)" fill="#60ade0"/>
          <path id="Trazado_108558" data-name="Trazado 108558" d="M445.512,257.864c5.54-.8,16,3.586,16,3.586s2.476,20.462,2.932,25.1-4.724,20.372-8.872,21.651-8.919,1.531-14.061,1.467-12.981-6.062-14.793-8.674-2.359-17-1.8-22.351a83.827,83.827,0,0,1,3.127-13.28A34.608,34.608,0,0,1,445.512,257.864Z" transform="translate(-346.039 -218.016)" fill="#fab17b"/>
          <path id="Trazado_108559" data-name="Trazado 108559" d="M461.745,292.438c-3.766-10.566-3.44-20.831-6.449-31.422a39.045,39.045,0,0,1,9.843-3.152c5.54-.8,16,3.586,16,3.586s2.476,20.462,2.932,25.1-4.724,20.372-8.872,21.651-10.019,4.674-15.161,4.61c-.232,0,1.614-4.134,1.372-4.147C463.757,304.52,462.968,296.366,461.745,292.438Z" transform="translate(-365.665 -218.016)" fill="#eb9f67"/>
          <path id="Trazado_108560" data-name="Trazado 108560" d="M504.384,198.722c-.018-.161-.954-16.238-1.779-23.124-.081-.672-.158-1.343-.235-2.007-.769-6.672-1.433-12.434-4.681-13.272a6.837,6.837,0,0,0-4.248.032,3.036,3.036,0,0,0-1.846,2.942c-.554,12.635,2.689,34.009,2.706,34.332Z" transform="translate(-388.914 -155.288)" fill="#c96c28"/>
          <path id="Trazado_108561" data-name="Trazado 108561" d="M506.068,200.306s-1.822-16.056-2.657-23.018-1.314-13.769-4.259-14.53-5.115,0-4.992,2.066,1.824,34.384,1.824,34.384a5.334,5.334,0,0,0,4.235,2.2A19.742,19.742,0,0,0,506.068,200.306Z" transform="translate(-390.598 -156.873)" fill="#eb9f67"/>
          <path id="Trazado_108562" data-name="Trazado 108562" d="M484.6,188.611l-.033-.493s-.672-10.1-1.163-17.642c-.123-1.879-.2-3.95-.283-6.143-.307-8.145-.622-13.633-2.128-15.624a4.945,4.945,0,0,0-5.765-1.489,3.9,3.9,0,0,0-2.5,3.511c-.126,3.238-1.228,33.431.424,37.421Z" transform="translate(-376.546 -146.851)" fill="#c96c28"/>
          <path id="Trazado_108563" data-name="Trazado 108563" d="M485.3,188.422s-.672-10.1-1.163-17.643-1.125-19.39-3.062-21.95-6.047-1.971-6.174,1.292-.136,38.276-.136,38.276,2.039,2.81,5.044,2.3A15.151,15.151,0,0,0,485.3,188.422Z" transform="translate(-378.157 -147.097)" fill="#eb9f67"/>
          <path id="Trazado_108564" data-name="Trazado 108564" d="M460.661,196.606l1.549-.18c0-.086,1.034-4.065.208-14.414-.181-2.272-.616-17.048-2.607-19.074-1.594-1.622-3.044-2.412-5.14-1.545-.73.3-1.234.84-1.3,3.073-.079,2.69-.49,8.365-.819,12.925-.192,2.644-.358,4.927-.41,5.982-.141,2.821-.061,12.9.6,15.862C452.739,199.236,460.56,196.757,460.661,196.606Z" transform="translate(-363.604 -155.953)" fill="#c96c28"/>
          <path id="Trazado_108565" data-name="Trazado 108565" d="M463.833,196.955s-.176-8.551-.672-14.339-.839-16.866-2.444-18.978-5.137-3.04-5.262,1.25-.663,16.222-.805,19.058.21,15.535.21,15.535.94,3.138,3.737,2.126S463.833,196.955,463.833,196.955Z" transform="translate(-365.229 -156.481)" fill="#eb9f67"/>
          <path id="Trazado_108566" data-name="Trazado 108566" d="M434.571,219.862c-.028-.127.285-5.446-4.412-21.488-1.075-3.673-2.832-5.206-5.255-4.63s-2.433,4.234-.631,11.844c.95,4.012,2.664,18.48,2.675,18.618Z" transform="translate(-344.94 -176.862)" fill="#c96c28"/>
          <path id="Trazado_108567" data-name="Trazado 108567" d="M435.89,221.43s-2.784-12.733-3.629-16.184-2.345-12.189-6.2-10.706c-2.481.954-1.054,8.008-.077,12.135s2.045,18.009,2.045,18.009Z" transform="translate(-346.021 -177.341)" fill="#fab17b"/>
          <path id="Trazado_108568" data-name="Trazado 108568" d="M510.4,299.728c5.758-3.895,5.136-1.527,6.852-6.768s4.065-10.16,9.036-11.925,7.2,2.573,5.03,7.565-5.98,7.445-6.76,11.567a35.077,35.077,0,0,1-5.955,13.866,31.2,31.2,0,0,1-11.106,8.836C504.677,324.181,504.64,303.623,510.4,299.728Z" transform="translate(-397.966 -232.688)" fill="#eb9f67"/>
          <path id="Trazado_108569" data-name="Trazado 108569" d="M352.327,382.176s-15.193,19.018-20.83,29.015-15.2,31.67-27.809,42.975-21.171,17.484-27.382,12.946-14.806-29.041,3.677-43.42,46.859-41.922,48.226-47.539c.776-3.189,7.4,2.93,13.574,5.64a14.843,14.843,0,0,0,9.413.605Z" transform="translate(-246.004 -293.398)" fill="#eb9f67"/>
          <path id="Trazado_108570" data-name="Trazado 108570" d="M287.749,458.171c-12.609,11.3-20.606,18-26.816,13.461s-7.033-34.262,11.45-48.641,46.859-41.922,48.226-47.539c.776-3.189,8.35.207,14.521,2.917C339.825,380.431,300.358,446.866,287.749,458.171Z" transform="translate(-238.402 -292.696)" fill="#fab17b"/>
          <path id="Trazado_108571" data-name="Trazado 108571" d="M291.478,397.936c-5.476.953-18.622-4.175-19.837-9.887s4.545-11.8,5.269-13.945c-17.592,19.943-28.288,43.326-41.546,56.7-8.764,8.84-38.489,54.391-17.518,60.366,21.712,6.189,40.192-14.807,47.092-23.462,5.387-6.755,48.927-71.7,50.351-80.96C306.1,397,301.24,396.142,291.478,397.936Z" transform="translate(-208.603 -292.659)" fill="#60ade0"/>
          <path id="Trazado_108572" data-name="Trazado 108572" d="M278.794,360.19c-17.592,19.943-39.9,53.716-53.157,67.091-8.764,8.84-33.111,51.116-12.141,57.092,21.713,6.189,49.328-29.913,56.229-38.568,5.387-6.756,28.8-45.973,42.161-67.985C303.756,382.364,278.071,362.33,278.794,360.19Z" transform="translate(-205.199 -283.732)" fill="#9fcdee"/>
          <path id="Trazado_108573" data-name="Trazado 108573" d="M278.794,360.19c-17.592,19.943-39.9,53.716-53.157,67.091-8.764,8.84-33.111,51.116-12.141,57.092,21.713,6.189,49.328-29.913,56.229-38.568,5.387-6.756,28.8-45.973,42.161-67.985C303.756,382.364,278.071,362.33,278.794,360.19Z" transform="translate(-205.199 -283.732)" fill="#9fcdee"/>
        </g>
        <g id="Grupo_85790" data-name="Grupo 85790" transform="translate(117.054 0)">
          <path id="Trazado_108574" data-name="Trazado 108574" d="M605.463,155.273c34.912-6.609,64.8-14.893,64.064-72.709-.719-56.233-26.965-60.93-44.607-66.362s-62.236-2.179-78.786,14.415-16.65,37.471-10.806,81.311S570.553,161.881,605.463,155.273Z" transform="translate(-531.816 -13.782)" fill="#9b9c97"/>
          <path id="Trazado_108575" data-name="Trazado 108575" d="M648.54,156.943c34.912-6.609,64.8-14.893,64.065-72.709C711.885,28,685.639,23.3,668,17.872s-41.136,4.548-57.686,21.141-11.755,35.965-5.912,79.805S613.63,163.551,648.54,156.943Z" transform="translate(-574.893 -15.452)" fill="#aeaea9"/>
        </g>
        <g id="Grupo_85791" data-name="Grupo 85791" transform="translate(177.107 217.144)">
          <path id="Trazado_108576" data-name="Trazado 108576" d="M737.077,833.457c-7.048-51.378-5.379-172.722-5.379-172.722l-1.26-1.837s-3.078,126.629,4.369,174.791Z" transform="translate(-718.902 -644.843)" fill="#60ade0"/>
          <path id="Trazado_108577" data-name="Trazado 108577" d="M705.145,809.264c-6.744-53.247-2.086-187.617-2.086-187.617l-1.3-1.967s-5.682,137.207.5,189.739Z" transform="translate(-699.379 -619.679)" fill="#60ade0"/>
        </g>
        <g id="Grupo_85792" data-name="Grupo 85792" transform="translate(242.511 70.838)">
          <path id="Trazado_108578" data-name="Trazado 108578" d="M955.287,431.833c-5.144-9.088-15.769-23.806-15.769-23.806-.165-.253.125-3.836,6.9-7.832,8.43-4.974,23.98-10.253,27.1-6.647.151.173.332.374.54.6l15.478,34.165Z" transform="translate(-918.841 -327.52)" fill="#60ade0"/>
          <path id="Trazado_108579" data-name="Trazado 108579" d="M958.312,443c-6.7-8.811-33.336-79.185-34.688-80.925-6.612-8.5,14.542-19.108,20.149-11.045,13.084,18.816,34.3,54.4,49.236,70.172,8.56,9.039,25.22,47.23,4.118,52.724C975.277,479.619,965.011,451.813,958.312,443Z" transform="translate(-907.849 -299.163)" fill="#eb9f67"/>
          <path id="Trazado_108580" data-name="Trazado 108580" d="M970.615,442.426c-6.7-8.811-25.919-77.391-27.272-79.131-6.612-8.5,6.592-21.569,12.2-13.505,13.084,18.816,32.641,44.532,45.969,63.062,7.269,10.106,33.311,55.708,12.209,61.2C991.872,479.744,977.315,451.236,970.615,442.426Z" transform="translate(-920.153 -298.586)" fill="#fab17b"/>
          <path id="Trazado_108581" data-name="Trazado 108581" d="M906.458,212.667l-24.581,45.953s2.442.317,4.548,4.859,13.033,13.777,17.787,13.988,9.487-4.612,11.688-10.5c1.864-4.988,4.113-15.74,5.7-19.755s5.916-10.141,4.754-15.846S910.9,211.44,910.9,211.44Z" transform="translate(-881.877 -211.44)" fill="#fab17b"/>
          <path id="Trazado_108582" data-name="Trazado 108582" d="M906.458,212.667l-24.581,45.953s2.442.317,4.548,4.859,13.1,15.162,17.854,15.373-5.042-10.682-2.841-16.571c1.864-4.989,15.165-26.629,14-32.334S910.9,211.44,910.9,211.44Z" transform="translate(-881.877 -211.44)" fill="#eb9f67"/>
          <path id="Trazado_108583" data-name="Trazado 108583" d="M960.646,228.395c.5,0,1.251,0,1.912-11.34l.014-.239-4.795-4.18-.27.6c-.009.019-.89,1.975-1.629,4.151-1.04,3.066-1.3,5.027-.788,6C956.126,225.349,959.5,228.395,960.646,228.395Z" transform="translate(-928.689 -212.207)" fill="#c96c28"/>
          <path id="Trazado_108584" data-name="Trazado 108584" d="M958.82,214.864s-3.486,7.712-2.43,9.719,4.333,4.754,5.124,4.754,1.425-10.881,1.425-10.881Z" transform="translate(-929.558 -213.637)" fill="#eb9f67"/>
          <path id="Trazado_108585" data-name="Trazado 108585" d="M958.461,419.17c5.452,1.078,15.175-8.227,16.519-13.911s-.735-7.425-1.409-9.581c17.13,20.342,23.454,56.374,36.4,70.049,8.559,9.039,17.013,39.833-4.089,45.326-21.848,5.689-31.271-14.129-35.811-25.126-3.3-7.986-10.193-41.646-30.5-75.77C948.528,420.614,948.744,417.154,958.461,419.17Z" transform="translate(-918.894 -329.65)" fill="#60ade0"/>
          <path id="Trazado_108586" data-name="Trazado 108586" d="M973.036,402.935c1.55-2.825,2.059-5.283.536-7.257,17.13,20.342,26.2,44.825,38.867,67.337,9.067,16.11,15.45,58.788-6.157,61.721-8.785,1.192-15.235-6.109-20.309-14.987-5.472-9.574-7.711-11.711-10.34-16.818-6.985-13.572-23.208-60.462-36.062-82.775C948.26,418.895,970.225,408.055,973.036,402.935Z" transform="translate(-918.894 -329.65)" fill="#9fcdee"/>
        </g>
        <g id="Grupo_85793" data-name="Grupo 85793" transform="translate(113.59 19.813)">
          <path id="Trazado_108587" data-name="Trazado 108587" d="M539.787,258.383s-5.968-10.325-11.907-6.773-7.3,18.683-3.905,27.5,15.436,13.7,17.648,11.747a8.912,8.912,0,0,0,2.6-4.971Z" transform="translate(-522.148 -185.712)" fill="#c96c28"/>
          <path id="Trazado_108588" data-name="Trazado 108588" d="M541.322,258.383s-5.968-10.325-11.907-6.773-6,17.919-2.6,26.736,13.541,13.4,15.753,11.446,1.3-6.274,1.3-6.274Z" transform="translate(-523.683 -185.712)" fill="#eb9f67"/>
          <path id="Trazado_108589" data-name="Trazado 108589" d="M533.332,283.614s-2.3-13,4.144-13.739,9.882,11.2,7.408,12.451-4.907,2.016-2.175,3.648a4.993,4.993,0,0,1,2.717,4,8.093,8.093,0,0,1-5.71.056c-2.93-1.164-3.681-7.119-3.681-7.119s2.674,4.43,4.949,4.841-5.276-1.83-.622-6.477,1.728-9.758-.9-9.346C533.293,272.9,533.332,283.614,533.332,283.614Z" transform="translate(-529.069 -197.887)" fill="#c96c28"/>
          <path id="Trazado_108590" data-name="Trazado 108590" d="M889.727,252.166s3.17-11.5,9.812-9.558,11.779,16.237,10.717,25.626-14.214,18.345-16.849,17.01a2.7,2.7,0,0,1-1.292-3.793Z" transform="translate(-757.992 -180.272)" fill="#c96c28"/>
          <path id="Trazado_108591" data-name="Trazado 108591" d="M889.727,252.166s3.17-11.5,9.812-9.558,10.326,15.826,9.264,25.214-12.761,18.756-15.4,17.421a2.7,2.7,0,0,1-1.292-3.793Z" transform="translate(-757.992 -180.272)" fill="#eb9f67"/>
          <path id="Trazado_108592" data-name="Trazado 108592" d="M911.556,273.5s-1.058-13.155-7.476-12.249-6.735,13.335-4.027,13.917,5.257.713,3.025,2.981a16.475,16.475,0,0,0-3.341,5.645s4.717-.615,7.26-2.478,1.765-7.817,1.765-7.817-1.469,4.962-3.567,5.934,4.644-3.1-1.032-6.424-4.134-9.007-1.491-9.27C908.891,263.12,911.556,273.5,911.556,273.5Z" transform="translate(-763.585 -192.344)" fill="#c96c28"/>
          <path id="Trazado_108593" data-name="Trazado 108593" d="M687.92,123.562s.316,11.8,1.74,24.406c1.973,17.472-1.524,56.163-7.372,62.422s-28.021,25.057-44.066,22.695-20.6-5.889-28.48-10.157c-9.426-5.1-24.081-14.087-27.974-19.164s-8.229-20.977-12.027-33.343S559.1,91.874,588.649,79s74.337-14.613,87.232,2.988S687.92,123.562,687.92,123.562Z" transform="translate(-550.443 -69.065)" fill="#c96c28"/>
          <path id="Trazado_108594" data-name="Trazado 108594" d="M687.92,123.562a182.683,182.683,0,0,0,.575,22.661c1.1,12.637-.359,57.907-6.208,64.167s-28.021,25.057-44.066,22.695-20.6-5.889-28.48-10.157c-9.426-5.1-24.081-14.087-27.974-19.164s-8.229-20.977-12.027-33.343S559.1,91.874,588.649,79s74.337-14.613,87.232,2.988S687.92,123.562,687.92,123.562Z" transform="translate(-550.443 -69.065)" fill="#fab17b"/>
          <path id="Trazado_108595" data-name="Trazado 108595" d="M620.8,231.824c-1.434-1.075-7.812-4.261-15.387-7.812-7.884-4.3-8.831-9.71-11.7-18.311-8.6-26.52-11.827-53.041-6.451-81.353,1.792-10.752,5.376-20.07,8.96-30.463a63.743,63.743,0,0,1,3.066-8.135,108.2,108.2,0,0,0-10.644,3.958c-29.546,12.871-22.7,79.054-18.909,91.418s8.135,28.267,12.027,33.343,18.548,14.059,27.974,19.164c7.881,4.268,12.432,7.793,28.48,10.157a25.272,25.272,0,0,0,10.218-.863,35.673,35.673,0,0,1-14.939-4.255C627.049,235.447,626.9,236.125,620.8,231.824Z" transform="translate(-550.443 -79.77)" fill="#eb9f67"/>
          <path id="Trazado_108596" data-name="Trazado 108596" d="M747.118,197.3c-.8-.693-9.566,2.686-17.07,4.634a10.61,10.61,0,0,1-2.2.407c-6.045.257-12.136.746-18.219.888-2.393.056-4.829-.077-7.214.082-2.561.171-4.8.674-7.322.124-2.28-.5-4.938-.18-7.279-.189-5.464-.021-13.535-.638-13.535.209s7.934.693,13.332,1c7.027.4,14.068.684,21.107.5,7.155-.184,14.065-1.246,21.142-2.17a70.534,70.534,0,0,0,10.519-2.614C744.453,198.994,747.922,197.995,747.118,197.3Z" transform="translate(-619.759 -151.285)" fill="#eb9f67"/>
          <path id="Trazado_108597" data-name="Trazado 108597" d="M759.142,184.667c0-.7-25.818,4.818-41.223,5.177-3.894.091-7.951.077-11.908.057-3.555-.018-10.7-.12-10.7.723s10.692.415,16.038.2c7.691-.3,15.281.074,22.957-1.012,2.308-.326,4.541-.273,6.835-.631,2.417-.377,4.822-.828,7.205-1.378C753.472,186.622,759.142,185.37,759.142,184.667Z" transform="translate(-633.25 -143.198)" fill="#eb9f67"/>
        </g>
        <g id="Grupo_85794" data-name="Grupo 85794" transform="translate(180.989 137.884)">
          <path id="Trazado_108598" data-name="Trazado 108598" d="M713.944,398.61c-1.1-.6-2.334,1.845-3.055,5.562a41.357,41.357,0,0,0,.058,15.206s-.045-9.5,1.182-14.151S715.048,399.213,713.944,398.61Z" transform="translate(-710.213 -398.519)" fill="#c96c28"/>
          <path id="Trazado_108599" data-name="Trazado 108599" d="M849.334,399.449c.244.375.489.767.733,1.192,2.68,4.681.686,20.349.686,20.349s-.2-7.61-1.05-14.4C849.092,401.686,848.17,399.965,849.334,399.449Z" transform="translate(-799.117 -399.115)" fill="#c96c28"/>
        </g>
        <g id="Grupo_85795" data-name="Grupo 85795" transform="translate(205.957 89.54)">
          <path id="Trazado_108600" data-name="Trazado 108600" d="M794.146,263.624s-4.192,3.806-3.437,13.105,7.8,22.925,5.242,25.259-4.755,2.751-8.764,2.545-8.441-3.507-7.043-1.178,4.526,4.407,9.073,4.142c5.55-.325,11.258-2.4,10.135-7.813-1.258-6.058-6.3-17.22-6.994-22.442C791.253,268.946,794.146,263.624,794.146,263.624Z" transform="translate(-779.881 -263.624)" fill="#c96c28"/>
        </g>
        <g id="Grupo_85796" data-name="Grupo 85796" transform="translate(153.269 78.26)">
          <path id="Trazado_108601" data-name="Trazado 108601" d="M671.29,290.814s2.177-11.494,13.037-11.3c16.379.3,17.694,14.963,17.694,14.963s-7.427,3.466-18.5,2.148C674.837,295.595,671.29,290.814,671.29,290.814Z" transform="translate(-657.519 -262.54)" fill="#fff"/>
          <path id="Trazado_108602" data-name="Trazado 108602" d="M698.427,292.3a6.562,6.562,0,1,1-7.915-4.844A6.564,6.564,0,0,1,698.427,292.3Z" transform="translate(-666.626 -267.516)" fill="#420809"/>
          <path id="Trazado_108603" data-name="Trazado 108603" d="M689.258,309.769a5.8,5.8,0,0,0,6.726,2.775,5.371,5.371,0,0,0,3.464-2.345c.186-.291-2.862-1.854-5.516-1.951C691.33,308.153,689.12,309.518,689.258,309.769Z" transform="translate(-669.044 -280.973)" fill="#5e1d1f"/>
          <path id="Trazado_108604" data-name="Trazado 108604" d="M697.515,301.537a2.415,2.415,0,0,0,4.416-.148,2.347,2.347,0,0,0-1.354-3.03A2.415,2.415,0,0,0,697.515,301.537Z" transform="translate(-674.259 -274.532)" fill="#0d0000"/>
          <path id="Trazado_108605" data-name="Trazado 108605" d="M706.03,311.157a1.235,1.235,0,0,0,1.6-.712,1.254,1.254,0,1,0-1.6.712Z" transform="translate(-679.3 -281.306)" fill="#fff"/>
          <path id="Trazado_108606" data-name="Trazado 108606" d="M772.3,239.222c-1.787,3.863-5,5.679-5.083,5.063a2.184,2.184,0,0,1,.747-1.582c1.45-1.678,2.951-3.441,3.394-5.52.311-1.46.66-4.812.241-5.032C773.48,232.951,774.09,235.358,772.3,239.222Z" transform="translate(-719.063 -232.151)" fill="#c96c28"/>
          <path id="Trazado_108607" data-name="Trazado 108607" d="M643.539,301.033a10.08,10.08,0,0,0,4.062-.722q.046.36.106.726a10.1,10.1,0,0,1-3.849.9c-3.4-.1-10.993-3.771-10.993-3.771S639.128,300.863,643.539,301.033Z" transform="translate(-632.865 -274.509)" fill="#eb9f67"/>
          <path id="Trazado_108608" data-name="Trazado 108608" d="M650.481,312.019a9.485,9.485,0,0,0,1.945-.582c.1.259.206.512.318.763a6.992,6.992,0,0,1-1.755.633c-3.346.643-11.552-1.279-11.552-1.279S646.138,312.816,650.481,312.019Z" transform="translate(-637.082 -283.022)" fill="#eb9f67"/>
          <path id="Trazado_108609" data-name="Trazado 108609" d="M722.053,326.029s-.428,2.44-9.493,4.468-11.038-.444-11.038-.444,1.845.967,8.609.143A31.2,31.2,0,0,0,722.053,326.029Z" transform="translate(-676.917 -292.385)" fill="#eb9f67"/>
          <path id="Trazado_108610" data-name="Trazado 108610" d="M705.884,250.889s1.46-2.652-.164-2.122c-20.074,6.545-37.415,1.318-36.032,2.442C681.573,257.611,695.322,257.929,705.884,250.889Z" transform="translate(-656.442 -242.767)" fill="#a77f61"/>
          <path id="Trazado_108611" data-name="Trazado 108611" d="M684.121,274.352c16.338.333,16.326,15.19,16.326,15.19s-2.825-8.6-13.807-11.47c-12.357-3.229-17.062,8.013-17.062,8.013S665.368,273.973,684.121,274.352Z" transform="translate(-656.161 -259.222)" fill="#c96c28"/>
          <path id="Trazado_108612" data-name="Trazado 108612" d="M668.985,289.812c-.052-3.448,3.76-7.71,11.023-8.076,21.084-1.067,20.534,14.135,20.534,14.135s-2.245-12.687-19.963-11.845c-11.968.568-9.112,9.318-7.433,11.006C673.543,295.433,669.055,294.369,668.985,289.812Z" transform="translate(-656.04 -263.931)" fill="#472500"/>
        </g>
        <g id="Grupo_85797" data-name="Grupo 85797" transform="translate(220.91 80.031)">
          <path id="Trazado_108613" data-name="Trazado 108613" d="M869.437,310.18a9.482,9.482,0,0,1-1.958-.536c-.093.261-.194.517-.3.771a6.967,6.967,0,0,0,1.769.592c3.361.564,11.518-1.55,11.518-1.55S873.8,310.875,869.437,310.18Z" transform="translate(-850.846 -283.522)" fill="#c96c28"/>
          <path id="Trazado_108614" data-name="Trazado 108614" d="M871.693,299.721a10.078,10.078,0,0,1-4.078-.626c-.025.241-.055.483-.089.728a10.1,10.1,0,0,0,3.87.811c3.4-.183,10.9-4.028,10.9-4.028S876.1,299.448,871.693,299.721Z" transform="translate(-851.069 -275.277)" fill="#c96c28"/>
          <path id="Trazado_108615" data-name="Trazado 108615" d="M845.2,288.112s-2.116-11.417-10.483-11.145c-12.621.413-13.079,15.01-13.079,15.01a23.158,23.158,0,0,0,14.352,2.006A12.953,12.953,0,0,0,845.2,288.112Z" transform="translate(-821.626 -262.673)" fill="#fff"/>
          <path id="Trazado_108616" data-name="Trazado 108616" d="M821.91,324.3s.485,2.429,9.595,4.243,11.024-.7,11.024-.7-1.822,1.01-8.6.345A31.2,31.2,0,0,1,821.91,324.3Z" transform="translate(-821.801 -293.048)" fill="#eb9f67"/>
          <path id="Trazado_108617" data-name="Trazado 108617" d="M833.789,270.384c-12.588.445-11.872,15.749-11.872,15.749s1.853-8.576,10.214-11.507c9.408-3.3,13.462,7.85,13.462,7.85S848.238,269.873,833.789,270.384Z" transform="translate(-821.801 -258.443)" fill="#c96c28"/>
          <path id="Trazado_108618" data-name="Trazado 108618" d="M841.326,291.415a6.562,6.562,0,1,1-7.915-4.844A6.564,6.564,0,0,1,841.326,291.415Z" transform="translate(-825.953 -268.721)" fill="#420809"/>
          <path id="Trazado_108619" data-name="Trazado 108619" d="M832.156,308.888a5.8,5.8,0,0,0,6.726,2.775,5.373,5.373,0,0,0,3.465-2.345c.186-.291-2.862-1.854-5.516-1.951C834.228,307.272,832.018,308.637,832.156,308.888Z" transform="translate(-828.371 -282.179)" fill="#5e1d1f"/>
          <path id="Trazado_108620" data-name="Trazado 108620" d="M840.414,300.656a2.415,2.415,0,0,0,4.416-.148,2.347,2.347,0,0,0-1.355-3.03A2.415,2.415,0,0,0,840.414,300.656Z" transform="translate(-833.587 -275.737)" fill="#0d0000"/>
          <path id="Trazado_108621" data-name="Trazado 108621" d="M848.929,310.276a1.235,1.235,0,0,0,1.6-.712,1.254,1.254,0,1,0-1.6.712Z" transform="translate(-838.628 -282.511)" fill="#fff"/>
          <path id="Trazado_108622" data-name="Trazado 108622" d="M822.521,242.229c.928,3.024,3.107,4.684,3.234,4.239a1.625,1.625,0,0,0-.391-1.24,9.873,9.873,0,0,1-1.944-4.405c-.082-1.107,0-3.609.328-3.729C822.286,237.493,821.594,239.2,822.521,242.229Z" transform="translate(-821.923 -237.093)" fill="#c96c28"/>
          <path id="Trazado_108623" data-name="Trazado 108623" d="M829.493,247.3s-.79-2.376.289-1.736c13.327,7.916,25.741,5.751,24.692,6.508C845.734,255.889,836.208,254.44,829.493,247.3Z" transform="translate(-826.487 -242.458)" fill="#a77f61"/>
          <path id="Trazado_108624" data-name="Trazado 108624" d="M845.724,287.1c-.09-3.43-3.192-7.643-8.807-7.955-16.3-.912-15.3,14.206-15.3,14.206s1.249-12.636,14.947-11.924c9.251.481,7.381,9.2,6.15,10.9C842.422,292.725,845.843,291.635,845.724,287.1Z" transform="translate(-821.605 -264.049)" fill="#472500"/>
        </g>
        <g id="Grupo_85798" data-name="Grupo 85798" transform="translate(126.004 4.252)">
          <path id="Trazado_108625" data-name="Trazado 108625" d="M579.7,146.126c1.369,3.1-10.717.547-11.079-.163-2.8-5.494-15.065-24.721-11.026-51.516,4.248-28.178,17.721-42.075,61.769-46.82,59.367-6.4,65.163,35.588,66.4,44.629,2.417,17.588-3.055,45.348-3.055,45.348s-1.04-8.608-1.725-20.829C680.4,106.19,678.658,95.009,675,79.2c-.364,8.376-7.4,12.81-7.4,12.81a45.886,45.886,0,0,0-1.356-8.64c-.916-3.746-5.359-8.6-5.756-8.519a32.864,32.864,0,0,1-.26,7.01,9.646,9.646,0,0,1-3.65,6.331,36.071,36.071,0,0,0-.254-8.444c-.377-1.879-2.584-4.912-3.1-4.692-.184,1.4.3,2.891-.285,6.375s-3.992,6.89-3.992,6.89a63.739,63.739,0,0,0-2.343-6.177c-1.236-2.45-2.308-2.242-2.754-2.888a14.4,14.4,0,0,1-4.351,11.45s-2.79-8.9-3.358-8.772a41.944,41.944,0,0,1-4.693,9.737s-2.3-7.636-2.493-7.625a12.974,12.974,0,0,1-.913,6.582,22.222,22.222,0,0,0-1.528-4.029,10.823,10.823,0,0,0-2.286-2.543c.215,5.264-2.157,7.192-2.291,8.457-.144-1.3-.612-4.779-1.632-6.57s-2.006-3.534-2.6-3.621c-1.7,2.888-1.426,9.6-1.426,9.6l-9.507-7.975-.615,7.206-2.943-7.516c-.883,2.179-.866,5.056-.389,8.288,0,0-4.786-.2-7.813-5.829a14.037,14.037,0,0,1-1.889-8.376c-2.66,4.743-10.6,15.936-14.8,29.976C574.8,119.433,578.444,143.277,579.7,146.126Z" transform="translate(-556.789 -39.326)" fill="#656563"/>
          <path id="Trazado_108626" data-name="Trazado 108626" d="M579.593,138.642s-8.187-.232-8.725-2.686c-1.116-5.1-10.9-18.773-11.127-46.375-.237-28.495,16.886-48.727,60.933-53.471s62.637,22.127,65.054,39.718a135.4,135.4,0,0,1-.245,34.652c-.922-.568-3.369-19.241-4.2-26.2-.572-4.821-2.4-11.766-5.747-15.259a21.985,21.985,0,0,1-4.868,13.235,31.27,31.27,0,0,0-1.358-7.284c-1.926-7.1-7.823-9.651-8.219-9.571.024,1.822.029,4.511-.066,7.1-.168,4.507-1.583,5.688-1.583,5.688a13.88,13.88,0,0,0,.013-6.364c-.881-3.782-4.609-6.2-5.125-5.984-.184,1.4.047,4.78-.2,6.863a15.291,15.291,0,0,1-3.182,7.064,12.779,12.779,0,0,0-1.709-5.389c-2.042-3.251-4.177-4.085-4.177-4.085a54.419,54.419,0,0,1-1,5.758,24.643,24.643,0,0,1-2.17,5.481s-1.282-7.276-4.157-8.772a73.52,73.52,0,0,1-4.195,10.3s-.627-7.683-3.877-9.422a49.084,49.084,0,0,1,.308,7.063s-1.7-4.949-4.54-5.084c-.461,3.184-1.069,5.7-1.2,6.968a17.593,17.593,0,0,0-1.71-5.848c-1.017-1.791-2.762-3.24-3.358-3.327a14.515,14.515,0,0,0-1.933,9.059,37.43,37.43,0,0,1-5-4.017,22.327,22.327,0,0,1-4.261-5.033l-.386,7.3L604.7,73.242c-1.036,4.017-2.451,6.055-1.692,9.841,0,0-3.486-.43-5.793-6.391-2.72-7.032-1.211-9.31-1.211-9.31-2.275,3.02-13.388,18.806-17.988,34.033C574.2,114.046,579.593,138.642,579.593,138.642Z" transform="translate(-558.682 -32.005)" fill="#9b9c97"/>
          <path id="Trazado_108627" data-name="Trazado 108627" d="M597.964,132.284a147.28,147.28,0,0,1-9.591-50.011c-.237-28.494,21-54.994,55.79-56.529,44.26-1.953,57.519,26.134,59.936,43.725a135.393,135.393,0,0,1-.245,34.652c-.922-.568-3.369-19.241-4.2-26.2-.572-4.821-2.4-11.766-5.747-15.259A21.986,21.986,0,0,1,689.044,75.9a31.267,31.267,0,0,0-1.358-7.284c-1.926-7.1-7.822-9.651-8.219-9.571.024,1.822.029,4.511-.066,7.1-.168,4.507-1.583,5.688-1.583,5.688a13.88,13.88,0,0,0,.013-6.364c-.881-3.782-4.608-6.2-5.125-5.984-.183,1.4.047,4.78-.2,6.863a15.292,15.292,0,0,1-3.182,7.064,12.78,12.78,0,0,0-1.709-5.389c-2.042-3.251-4.177-4.085-4.177-4.085a54.454,54.454,0,0,1-1,5.758,24.649,24.649,0,0,1-2.17,5.481s-1.282-7.276-4.157-8.772a73.524,73.524,0,0,1-4.194,10.3s-.627-7.683-3.877-9.422a49.079,49.079,0,0,1,.308,7.063s-1.7-4.949-4.54-5.084c-.461,3.184-1.069,5.7-1.2,6.968a17.6,17.6,0,0,0-1.71-5.848c-1.017-1.791-2.762-3.24-3.358-3.327a14.515,14.515,0,0,0-1.933,9.059,37.433,37.433,0,0,1-5-4.017,22.326,22.326,0,0,1-4.261-5.033l-.386,7.3-2.884-7.481c-1.036,4.017-2.451,6.055-1.692,9.841,0,0-3.486-.43-5.793-6.391-2.72-7.032-1.211-9.31-1.211-9.31-2.275,3.02-13.388,18.806-17.988,34.033C592.573,107.689,597.964,132.284,597.964,132.284Z" transform="translate(-577.053 -25.647)" fill="#aeaea9"/>
          <path id="Trazado_108628" data-name="Trazado 108628" d="M824.213,60.212c2.455,5.83,4.58,10.994-3.105,13.063a37.151,37.151,0,0,1-16.023.077c3.952,6.806,11.648,5.037,17.543,5.568,3.843.782,8.088-3.691,12.31-1.5.625.383,1.258.761,1.891,1.139A44.421,44.421,0,0,0,824.213,60.212Z" transform="translate(-716.099 -47.825)" fill="#d2d1ca"/>
        </g>
        <g id="Grupo_85799" data-name="Grupo 85799" transform="translate(186.19 139.929)">
          <path id="Trazado_108629" data-name="Trazado 108629" d="M772.847,482.878c9.191-1.25,10.439-6.8,10.439-6.8L761.671,478S763.657,484.131,772.847,482.878Z" transform="translate(-748.43 -450.326)" fill="#c96c28"/>
          <path id="Trazado_108630" data-name="Trazado 108630" d="M766.949,422.207s.64,9.894-13.678,11.992-21.1-.205-24.39-7.177-5.176-6.146-3.58-9.75,3.367-10.4,11.635-9.41,9.31,3.266,15.189,2.977,8.071-2.212,11.788.042S766.949,422.207,766.949,422.207Z" transform="translate(-724.725 -406.495)" fill="#600"/>
          <path id="Trazado_108631" data-name="Trazado 108631" d="M765.984,440.678c-9.665-7.283-24.616-7.994-34.586.525a34.856,34.856,0,0,1,1.765,3.3c3.289,6.972,10.07,9.276,24.39,7.177,6.852-1,10.274-3.792,11.984-6.428A9.564,9.564,0,0,0,765.984,440.678Z" transform="translate(-729.006 -423.98)" fill="#ed1c24"/>
          <path id="Trazado_108632" data-name="Trazado 108632" d="M778.655,410.9c-1.415-4.11-4.836-.248-10.715.04s-6.921-1.987-15.189-2.977c-1.936-.232-2.072.6-3.377,1.086,2.044,6.334,9.1,6.987,17.232,6.767C771.2,415.694,780.343,415.8,778.655,410.9Z" transform="translate(-740.54 -406.599)" fill="#fff"/>
          <path id="Trazado_108633" data-name="Trazado 108633" d="M767.068,446.864c-4.618,4.62-23.279,6.12-32.261-2.022-2.127-1.326-2.582.571-3.93,2.078a34.331,34.331,0,0,1,1.952,3.6c3.289,6.972,10.07,9.276,24.39,7.177,7.449-1.092,10.845-4.292,12.394-7.112C769.134,448.583,768.689,447.317,767.068,446.864Z" transform="translate(-728.671 -429.998)" fill="#fff"/>
          <path id="Trazado_108634" data-name="Trazado 108634" d="M724.974,416.316s3.443-10.61,11.9-9.009,10.077,3.092,15.793,2.647,8.116-2.114,11.377,1.138,3.07,8.844,3.07,8.844,2.086-9.032-3.193-12.34-7.47.456-12.628-.376-8.876-3.448-16.294-2.929S724.974,416.316,724.974,416.316Z" transform="translate(-724.885 -404.224)" fill="#c96c28"/>
          <path id="Trazado_108635" data-name="Trazado 108635" d="M734.056,449.01a51.558,51.558,0,0,0,22.112,1.862c8.616-1.412,10.79-7.663,10.79-7.663s4.115,8.865-8.714,12.906a33.193,33.193,0,0,1-27.268-3.443c-6.473-4.335-6.236-12.176-6.236-12.176S725.809,446.02,734.056,449.01Z" transform="translate(-724.733 -427.497)" fill="#fab17b"/>
        </g>
        <g id="Grupo_85800" data-name="Grupo 85800" transform="translate(135.994 169.442)">
          <path id="Trazado_108636" data-name="Trazado 108636" d="M638.57,563.79l-8.031-15.872-9-13.415-36.88-26.7c.764,10.445,6.174,33.575,12.548,49.005a33.411,33.411,0,0,1,8.571-13.682,25.047,25.047,0,0,1,14.417-6.11Z" transform="translate(-584.663 -500.196)" fill="#60ade0"/>
          <path id="Trazado_108637" data-name="Trazado 108637" d="M631.438,535.716s-13.262-23.32-18.891-30.3-7.049-18.842-7.049-18.842l-20.834,7.607c1.859,8.484,7.668,27.2,12.837,45.683,0,0,1.427-9.325,9.138-13.982a25.708,25.708,0,0,1,14.409-3.719Z" transform="translate(-584.663 -486.577)" fill="#9fcdee"/>
          <path id="Trazado_108638" data-name="Trazado 108638" d="M726.534,584.2l18.954-24.942a37.162,37.162,0,0,1,.765-7.123c.63-3.554.024-4.771.024-4.771s.106-3.01,5.626,2.718c4.081,4.235,4.618.439,4.618.439,5.808,11.2-.432,28.44-3.654,35.411a34.868,34.868,0,0,0-2.435-11.213c-2.478-6.711-6.872-8.4-6.872-8.4Z" transform="translate(-675.69 -525.072)" fill="#60ade0"/>
          <path id="Trazado_108639" data-name="Trazado 108639" d="M738.011,571.312s10.024-17.034,11.873-24.368a55.431,55.431,0,0,0,1.855-12.176s4.88.73,11.214,6.879c4.219,4.1,2.963,15.068-2.722,33.523,0,0,.482-2.828-2-9.539s-7.569-8.231-7.569-8.231Z" transform="translate(-683.054 -517.497)" fill="#9fcdee"/>
          <path id="Trazado_108640" data-name="Trazado 108640" d="M709.628,803.395a3.151,3.151,0,1,0,3.469-2.8A3.151,3.151,0,0,0,709.628,803.395Z" transform="translate(-664.831 -688.046)" fill="#d6dff1"/>
          <path id="Trazado_108641" data-name="Trazado 108641" d="M709.628,663.415a3.151,3.151,0,1,0,3.47-2.8A3.151,3.151,0,0,0,709.628,663.415Z" transform="translate(-664.831 -598.233)" fill="#d6dff1"/>
          <path id="Trazado_108642" data-name="Trazado 108642" d="M709.664,932.841a3.151,3.151,0,1,0,3.469-2.8A3.151,3.151,0,0,0,709.664,932.841Z" transform="translate(-664.854 -771.101)" fill="#d6dff1"/>
          <path id="Trazado_108643" data-name="Trazado 108643" d="M713.416,1060.469a3.151,3.151,0,1,0,3.469-2.8A3.151,3.151,0,0,0,713.416,1060.469Z" transform="translate(-667.261 -852.989)" fill="#d6dff1"/>
        </g>
        <g id="Grupo_85801" data-name="Grupo 85801" transform="translate(261.584 47.863)">
          <path id="Trazado_108644" data-name="Trazado 108644" d="M970.376,216.612l-2.411,3.53c-.306.8-2.964,7.859-1.964,10.192,1.015,2.369,4.439,3.889,4.584,3.952l.832.364Z" transform="translate(-954.783 -191.784)" fill="#c96c28"/>
          <path id="Trazado_108645" data-name="Trazado 108645" d="M969.284,226.95s-2.922,7.606-1.971,9.824a6.519,6.519,0,0,0,2.823,3.125l.281-8.613Z" transform="translate(-955.645 -198.417)" fill="#eb9f67"/>
          <path id="Trazado_108646" data-name="Trazado 108646" d="M979.78,164.306c0-.866-.241-7.306-1.294-10.36a16.2,16.2,0,0,1-.611-2.895c-.281-1.912-.547-3.718-2.334-3.718a2.934,2.934,0,0,0-.569.06c-3.143.629-3.438,6.854-3.026,9.224.438,2.518,6.342,8.1,7.014,8.724l.821.767Z" transform="translate(-958.646 -147.334)" fill="#c96c28"/>
          <path id="Trazado_108647" data-name="Trazado 108647" d="M980.162,165.18c0-.588-.211-7.138-1.268-10.2s-.317-6.761-2.958-6.233-3.063,6.233-2.641,8.663,6.867,8.451,6.867,8.451Z" transform="translate(-959.515 -148.207)" fill="#fab17b"/>
          <path id="Trazado_108648" data-name="Trazado 108648" d="M968.6,183.348l0-.125c.109-3.13.083-10.84-2.513-14.826a32.481,32.481,0,0,0-6.624-7.114c-.837-.716-1.559-1.335-2.15-1.94-.276-.284-.533-.558-.775-.816-1.134-1.212-2.03-2.17-3.247-2.17a3.156,3.156,0,0,0-1.717.593,5.915,5.915,0,0,0-2.441,4.243,5.773,5.773,0,0,0,1.729,4.75c2.814,2.815,16.752,17.588,16.892,17.738l.843.893Z" transform="translate(-944.084 -153.124)" fill="#c96c28"/>
          <path id="Trazado_108649" data-name="Trazado 108649" d="M968.985,184.221c0-.317.528-10.141-2.43-14.684s-6.653-6.867-8.714-8.979-3.011-3.7-5.124-2.324a5.416,5.416,0,0,0-.634,8.24C954.934,169.326,968.985,184.221,968.985,184.221Z" transform="translate(-944.957 -153.998)" fill="#fab17b"/>
          <path id="Trazado_108650" data-name="Trazado 108650" d="M959.649,205.29l.729,1.011c.035-.442,1.213-13.175-2.311-19.154-3.6-6.107-9.576-8.78-13.531-10.55-.673-.3-1.292-.593-1.864-.863-1.9-.9-3.271-1.543-4.486-1.543a2.809,2.809,0,0,0-2,.8,4.746,4.746,0,0,0-1.025,4.026,6.7,6.7,0,0,0,3.348,5.106c3.293,1.75,11.388,6.776,13.991,10.317,2.524,3.433,2.861,10.229,2.864,10.3l.025.549Z" transform="translate(-935.098 -164.565)" fill="#c96c28"/>
          <path id="Trazado_108651" data-name="Trazado 108651" d="M961.159,204.857s.845-10.674-2.641-16.59-9.3-8.557-13.311-10.353-6.127-3.275-7.818-1.69-1.162,6.55,2.219,8.346,11.515,6.867,14.156,10.458,2.958,10.564,2.958,10.564Z" transform="translate(-935.97 -165.438)" fill="#fab17b"/>
          <path id="Trazado_108652" data-name="Trazado 108652" d="M962.711,223.535c4.2,0,5.09-2.447,5.09-2.447,0-.4.319-10.616-3.423-15.962-3.842-5.489-6.063-7.053-9.308-8.309a15.087,15.087,0,0,1-2.735-1.466,5.419,5.419,0,0,0-2.752-1.156,2.787,2.787,0,0,0-1.624.564,3.68,3.68,0,0,0-1.674,2.954c-.033,1.475,1.047,1.876,2.625,3.09a23.885,23.885,0,0,0,5.1,3.063c.386.806,3.186,3.9,3.635,5.7.51,2.039-.911,9.109-.909,9.169l0,.077.026.073C956.835,219.072,958.509,223.535,962.711,223.535Z" transform="translate(-942.275 -177.4)" fill="#c96c28"/>
          <path id="Trazado_108653" data-name="Trazado 108653" d="M968.759,221.961s-.125-10.4-3.823-15.683-5.81-6.867-9.085-8.134-4.543-3.592-6.656-2.113-1.9,3.1.85,5.217a26.631,26.631,0,0,0,5.2,3.156s3.456,3.921,3.984,6.034-1.05,9.151-1.05,9.151,1.882,5.731,5.79,5.731A4.8,4.8,0,0,0,968.759,221.961Z" transform="translate(-943.233 -178.274)" fill="#fab17b"/>
        </g>
      </g>
    </g>
  </g>
</svg>
