<svg xmlns="http://www.w3.org/2000/svg" width="148" height="148" viewBox="0 0 148 148">
  <g id="Grupo_85881" data-name="Grupo 85881" transform="translate(-836 -1499)">
    <g id="Grupo_85877" data-name="Grupo 85877" transform="translate(769.774 1483.949)">
      <rect id="Rectángulo_33988" data-name="Rectángulo 33988" width="97.142" height="61.2" rx="5.024" transform="translate(76.226 93.851)" fill="none" stroke="#0a0a0a" stroke-linecap="round" stroke-linejoin="round" stroke-width="2.5"/>
      <rect id="Rectángulo_33989" data-name="Rectángulo 33989" width="37.4" height="9.714" rx="1.098" transform="translate(87.276 129.308)" fill="none" stroke="#eb0028" stroke-linecap="round" stroke-linejoin="round" stroke-width="2.5"/>
      <line id="Línea_285" data-name="Línea 285" x2="97.143" transform="translate(76.226 105.023)" fill="none" stroke="#0a0a0a" stroke-linecap="round" stroke-linejoin="round" stroke-width="2.5"/>
      <line id="Línea_286" data-name="Línea 286" x2="25.257" transform="translate(137.062 129.308)" fill="none" stroke="#0a0a0a" stroke-linecap="round" stroke-linejoin="round" stroke-width="2.5"/>
      <line id="Línea_287" data-name="Línea 287" x2="97.143" transform="translate(76.226 119.594)" fill="none" stroke="#0a0a0a" stroke-linecap="round" stroke-linejoin="round" stroke-width="2.5"/>
      <line id="Línea_288" data-name="Línea 288" x2="9.471" transform="translate(137.062 139.022)" fill="none" stroke="#0a0a0a" stroke-linecap="round" stroke-linejoin="round" stroke-width="2.5"/>
      <path id="Trazado_109168" data-name="Trazado 109168" d="M94.53,73.641a25.913,25.913,0,0,1,44.552-.319" transform="translate(8.02 9.116)" fill="none" stroke="#eb0028" stroke-linecap="round" stroke-linejoin="round" stroke-width="2.5"/>
      <path id="Trazado_109169" data-name="Trazado 109169" d="M80.627,60.029a54.822,54.822,0,0,1,84.483-.3" transform="translate(1.928)" fill="none" stroke="#eb0028" stroke-linecap="round" stroke-linejoin="round" stroke-width="2.5"/>
      <path id="Trazado_109170" data-name="Trazado 109170" d="M88.021,66.23a39.752,39.752,0,0,1,63.259-.269" transform="translate(5.168 4.566)" fill="none" stroke="#eb0028" stroke-linecap="round" stroke-linejoin="round" stroke-width="2.5"/>
    </g>
    <rect id="Rectángulo_33993" data-name="Rectángulo 33993" width="148" height="148" transform="translate(836 1499)" fill="none"/>
  </g>
</svg>
