<svg xmlns="http://www.w3.org/2000/svg" width="148" height="148" viewBox="0 0 148 148">
  <g id="Grupo_85880" data-name="Grupo 85880" transform="translate(-518 -1499)">
    <g id="Grupo_85876" data-name="Grupo 85876" transform="translate(457 1362.204)">
      <g id="Grupo_85874" data-name="Grupo 85874" transform="translate(76.243 177.612)">
        <path id="Trazado_109154" data-name="Trazado 109154" d="M86.659,197.307a12.505,12.505,0,1,1,12.5-12.505A12.5,12.5,0,0,1,86.659,197.307Z" transform="translate(-74.152 -172.297)" fill="none" stroke="#0a0a0a" stroke-linecap="round" stroke-linejoin="round" stroke-width="2.5"/>
      </g>
      <path id="Trazado_109155" data-name="Trazado 109155" d="M89.082,239.317V202.641" transform="translate(9.612 20.601)" fill="none" stroke="#0a0a0a" stroke-linecap="round" stroke-linejoin="round" stroke-width="2.5"/>
      <path id="Trazado_109156" data-name="Trazado 109156" d="M75.853,202.641v36.676" transform="translate(2.948 20.601)" fill="none" stroke="#0a0a0a" stroke-linecap="round" stroke-linejoin="round" stroke-width="2.5"/>
      <path id="Trazado_109157" data-name="Trazado 109157" d="M78.747,220.159a4.618,4.618,0,0,1-4.57,4.665c-2.522,0-4.177-2.089-4.177-4.665V207.814a13.586,13.586,0,0,1,13.586-13.585H93.912A13.586,13.586,0,0,1,107.5,207.814v12.346c0,2.576-1.656,4.665-4.179,4.665a4.617,4.617,0,0,1-4.568-4.665" transform="translate(0 16.363)" fill="none" stroke="#0a0a0a" stroke-linecap="round" stroke-linejoin="round" stroke-width="2.5"/>
      <line id="Línea_282" data-name="Línea 282" y1="18.766" transform="translate(88.749 241.151)" fill="none" stroke="#0a0a0a" stroke-linecap="round" stroke-linejoin="round" stroke-width="2.5"/>
      <g id="Grupo_85875" data-name="Grupo 85875" transform="translate(159.043 177.612)">
        <path id="Trazado_109158" data-name="Trazado 109158" d="M141.722,197.307A12.505,12.505,0,1,1,154.227,184.8,12.5,12.5,0,0,1,141.722,197.307Z" transform="translate(-129.215 -172.297)" fill="none" stroke="#0a0a0a" stroke-linecap="round" stroke-linejoin="round" stroke-width="2.5"/>
      </g>
      <path id="Trazado_109159" data-name="Trazado 109159" d="M144.146,239.317V202.641" transform="translate(37.349 20.601)" fill="none" stroke="#0a0a0a" stroke-linecap="round" stroke-linejoin="round" stroke-width="2.5"/>
      <path id="Trazado_109160" data-name="Trazado 109160" d="M130.916,202.641v36.676" transform="translate(30.685 20.601)" fill="none" stroke="#0a0a0a" stroke-linecap="round" stroke-linejoin="round" stroke-width="2.5"/>
      <path id="Trazado_109161" data-name="Trazado 109161" d="M133.81,220.159a4.617,4.617,0,0,1-4.568,4.665c-2.523,0-4.179-2.089-4.179-4.665V207.814a13.586,13.586,0,0,1,13.586-13.585h10.326a13.586,13.586,0,0,1,13.586,13.585v12.346c0,2.576-1.656,4.665-4.177,4.665a4.618,4.618,0,0,1-4.57-4.665" transform="translate(27.737 16.363)" fill="none" stroke="#0a0a0a" stroke-linecap="round" stroke-linejoin="round" stroke-width="2.5"/>
      <line id="Línea_283" data-name="Línea 283" y1="18.766" transform="translate(171.549 241.151)" fill="none" stroke="#0a0a0a" stroke-linecap="round" stroke-linejoin="round" stroke-width="2.5"/>
      <path id="Trazado_109162" data-name="Trazado 109162" d="M121.6,172.494l7.718-3.082-3.205-7.667" transform="translate(25.992 0)" fill="none" stroke="#eb0028" stroke-linecap="round" stroke-linejoin="round" stroke-width="2.5"/>
      <path id="Trazado_109163" data-name="Trazado 109163" d="M143.671,168.607a57.61,57.61,0,0,0-50.548,1.087" transform="translate(11.648 0.781)" fill="none" stroke="#eb0028" stroke-linecap="round" stroke-linejoin="round" stroke-width="2.5"/>
      <path id="Trazado_109164" data-name="Trazado 109164" d="M101.481,231.227l-7.83,2.783,2.908,7.785" transform="translate(11.914 35.001)" fill="none" stroke="#eb0028" stroke-linecap="round" stroke-linejoin="round" stroke-width="2.5"/>
      <path id="Trazado_109165" data-name="Trazado 109165" d="M93.643,233.093a57.611,57.611,0,0,0,50.551.857" transform="translate(11.91 35.94)" fill="none" stroke="#eb0028" stroke-linecap="round" stroke-linejoin="round" stroke-width="2.5"/>
      <path id="Trazado_109166" data-name="Trazado 109166" d="M105.523,232.091a7.693,7.693,0,0,0,7,3.8c4.155,0,7.523-2.695,7.523-6.019,0-4.513-3.511-5.517-7.523-6.018-5.2-.65-7.523-2.695-7.523-6.019s3.368-6.018,7.523-6.018a7.763,7.763,0,0,1,6.905,3.625" transform="translate(17.629 25.224)" fill="none" stroke="#0a0a0a" stroke-linecap="round" stroke-linejoin="round" stroke-width="2.5"/>
      <line id="Línea_284" data-name="Línea 284" y2="31.097" transform="translate(130.149 233.531)" fill="none" stroke="#0a0a0a" stroke-linecap="round" stroke-linejoin="round" stroke-width="2.5"/>
      <rect id="Rectángulo_33987" data-name="Rectángulo 33987" width="20.111" height="21.839" transform="translate(120.094 182.738)" fill="none" stroke="#0a0a0a" stroke-linecap="round" stroke-linejoin="round" stroke-width="2.5"/>
      <path id="Trazado_109167" data-name="Trazado 109167" d="M116.313,178.045v-2.256a4.728,4.728,0,1,0-9.457,0v2.256" transform="translate(18.566 4.692)" fill="none" stroke="#0a0a0a" stroke-linecap="round" stroke-linejoin="round" stroke-width="2.5"/>
    </g>
    <rect id="Rectángulo_33992" data-name="Rectángulo 33992" width="148" height="148" transform="translate(518 1499)" fill="none"/>
  </g>
</svg>
