<svg xmlns="http://www.w3.org/2000/svg" width="457.394" height="414.353" viewBox="0 0 457.394 414.353">
  <g id="Grupo_86069" data-name="Grupo 86069" transform="translate(-179.686 -121.818)">
    <path id="Trazado_109495" data-name="Trazado 109495" d="M264.737,1205.6c17.666,10.2,17.666,26.737,0,36.937s-46.308,10.2-63.974,0-17.667-26.737,0-36.937S247.07,1195.4,264.737,1205.6Z" transform="translate(-5.965 -820.181)" opacity="0.2" style="mix-blend-mode: multiply;isolation: isolate"/>
    <g id="Grupo_86035" data-name="Grupo 86035" transform="translate(183.491 150.687)">
      <g id="Grupo_86033" data-name="Grupo 86033" transform="translate(2.968 45.13)">
        <g id="Grupo_86027" data-name="Grupo 86027" transform="translate(0 15.059)">
          <path id="Trazado_109496" data-name="Trazado 109496" d="M208.814,498.382c.477.4,2.087,1.761,2.112,2.212a.461.461,0,0,1-.094.306c.683-.324.119-1.438-1.062-2.367a7.245,7.245,0,0,1-1.591-2.28A2.964,2.964,0,0,0,208.814,498.382Z" transform="translate(-208.16 -496.253)" fill="#d9a782"/>
        </g>
        <path id="Trazado_109497" data-name="Trazado 109497" d="M228.317,538.4l-5.9,3.517s5.638,9.217,6.891,11.218,10.148,14.269,11.036,15.281,3.265,3.69,6.524,2.573S264.52,561.6,264.52,561.6l5.544-11.786.377-8.877a28.368,28.368,0,0,0-8.255,5.2c-3.4,3.308-15.758,12.45-15.758,12.45s-10.045-11.116-11.757-12.925S228.317,538.4,228.317,538.4Z" transform="translate(-219.025 -513.313)" fill="#e54b5a"/>
        <path id="Trazado_109498" data-name="Trazado 109498" d="M262.671,557.778c-.906.967-6.224,8.79-9.678,11.464s-4.668,3.94-6.127,2.676-1.653-1.021-2.869-.438-1.8-1.41-1.9-1.75c-.083-.289-13.014-18.166-16.9-23.535l-2.786,1.662s5.638,9.217,6.891,11.218,10.148,14.269,11.036,15.281,3.265,3.69,6.524,2.573,17.653-9.386,17.653-9.386l4.188-8.9C266.267,557.9,269.467,550.524,262.671,557.778Z" transform="translate(-219.025 -519.257)" fill="#cc3241"/>
        <g id="Grupo_86032" data-name="Grupo 86032" transform="translate(27.081)">
          <path id="Trazado_109499" data-name="Trazado 109499" d="M500.959,527.753a14.6,14.6,0,0,0,.482-4.113,33.928,33.928,0,0,0-4.928-12.962c-2.854-3.956-4.157-9.994-4.157-9.994l-8.116,1.607S490.085,525.623,500.959,527.753Z" transform="translate(-445.656 -484.571)" fill="#612104"/>
          <path id="Trazado_109500" data-name="Trazado 109500" d="M440.546,538.451a7.811,7.811,0,0,1-.345-6.5c1.459-3.372-16.866,3.25-16.866,3.25s-8.6,31.645-1.958,31.068S440.546,540.828,440.546,538.451Z" transform="translate(-395.826 -507.672)" fill="#d9a782"/>
          <g id="Grupo_86028" data-name="Grupo 86028" transform="translate(16.487 75.954)">
            <path id="Trazado_109501" data-name="Trazado 109501" d="M391.335,752.282l0,0C391.356,752.291,391.355,752.289,391.335,752.282Z" transform="translate(-391.335 -752.282)" fill="#c2cfdc"/>
          </g>
          <path id="Trazado_109502" data-name="Trazado 109502" d="M363.274,923.318c-2.222-.774-1.822-2.731-1.227-4.283a10.4,10.4,0,0,1,2.416-3.335c.6-.632,1.376-3.753,1.71-5.538s2.342-7.4,2.563-10.034-.221-22.059-.284-25.8-.76-6.021-.76-8.113V861.59s-2.788-19.52-3.485-25.985,1.394-18.887,4.309-24.147,15.718,10.584,16.478,15.528,1.648,7.922,1.014,11.472-3.8,23.64-4.309,27.062,1.71,7.8.95,12.232-3.234,12.676-4.246,15.971-1.311,8.247-.993,8.629,2.488,1,2.4,2.893-5.806,10.059-7.465,12.25S367.172,924.676,363.274,923.318Z" transform="translate(-352.17 -720.624)" fill="#ffcda8"/>
          <path id="Trazado_109503" data-name="Trazado 109503" d="M376.5,811.458c-2.915,5.26-5.006,17.683-4.309,24.147.443,4.115,1.733,13.514,2.613,19.807,2.836,1.967,11,7.82,11.685,10.456.831,3.195,3.2,10.672.767,18.213a111.4,111.4,0,0,0-4.28,17.574c-.443,3.045,1.152,6.449,1.421,10,1.752-2.685,3.357-5.416,3.4-6.412.086-1.892-2.083-2.51-2.4-2.893s-.021-5.332.993-8.629,3.486-11.534,4.246-15.971-1.457-8.809-.95-12.232,3.676-23.514,4.309-27.062-.253-6.529-1.014-11.472S379.413,806.2,376.5,811.458Z" transform="translate(-360.153 -720.624)" fill="#d9a782"/>
          <path id="Trazado_109504" data-name="Trazado 109504" d="M465.122,974s-2.247-3.972-1.2-5.567a18.724,18.724,0,0,0,2.506-5.927,91.152,91.152,0,0,0,1.66-10.68c.227-3.029-.642-22.42-1.656-27.363a43.749,43.749,0,0,0-3.677-10.394,66.3,66.3,0,0,1-3.992-13.119c-.633-4.184-5.261-29.155-5.7-35.429s12.423-12.359,15.4-12.866a48.761,48.761,0,0,0,6.717-1.838s3.106,5.324,1.775,20.851-4.31,31.626-3.613,34.8,4.373,6.971,5.514,11.6a31.679,31.679,0,0,1-.317,15.561c-1.458,5.228-3.39,15-2.177,16.216s2.86,6.7,2.191,8.223-4.608,12.488-5.983,14.457S465.122,974,465.122,974Z" transform="translate(-421.88 -751.424)" fill="#ffcda8"/>
          <path id="Trazado_109505" data-name="Trazado 109505" d="M478.547,958.058c.669-1.524-.979-7.011-2.191-8.223s.72-10.988,2.177-16.216a31.679,31.679,0,0,0,.317-15.561c-1.141-4.626-4.818-8.429-5.514-11.6s2.282-19.268,3.613-34.8-1.775-20.851-1.775-20.851a48.761,48.761,0,0,1-6.717,1.838c-2.979.507-15.845,6.591-15.4,12.866.35,4.969,3.326,21.661,4.863,30.471a70.677,70.677,0,0,1,7.968,3.076c1.793,1.05,5.265,2.769,6.232,7.115s4.585,10.861,4.585,18.343-3.5,22.807-2.051,26.911a40.636,40.636,0,0,1,1.6,12.567C477.322,961.237,478.253,958.73,478.547,958.058Z" transform="translate(-421.88 -751.424)" fill="#d9a782"/>
          <path id="Trazado_109506" data-name="Trazado 109506" d="M373.492,845.377a22.7,22.7,0,0,0,5.533,4.066c3.557,1.911,15.456,6.308,21.7,7.922a15.782,15.782,0,0,0,11.189-1.338s3.222-23.345,3.053-32.359c-.193-10.249-2.548-15.633-3.418-17.391s-14.628-2.59-19.427-3.01-14.938-4.4-15.646-4.448-5.288,12.406-5.433,17.868C370.709,829.462,373.492,845.377,373.492,845.377Z" transform="translate(-359.363 -711.796)" fill="#0f2841"/>
          <path id="Trazado_109507" data-name="Trazado 109507" d="M348.394,1198.959a4.754,4.754,0,0,1,3.516,3.908,7.718,7.718,0,0,1-1.758,5.666c-.456.781-1.082,6.089-1.257,8.335l-.892.2-.294-6.61a16.7,16.7,0,0,0-4.591,4.592c-1.465,2.541-3.744,6.806-6.025,7.652s-7.783.229-10.257-.2-5.145-1.075-4.786-2.312,4.364-3.223,6.317-4.592,5.764-3.614,5.764-3.614-2.605,4.038-.489,5.08,4.169.2,6.872-3.387a85.153,85.153,0,0,0,6.836-10.387A9.284,9.284,0,0,0,348.394,1198.959Z" transform="translate(-322.017 -1016.764)" fill="#2e383b"/>
          <path id="Trazado_109508" data-name="Trazado 109508" d="M496.893,1267.139s1.5,2.248.585,6.936-2.507,10.257-3.451,12.048-4.1,2.8-7.131,2.28-2.344-2.768-2.344-2.768a24.8,24.8,0,0,0-3.648,5.828c-1.008,2.7-1.335,5.568-.2,5.829s10.16-.456,12.635-2.9,3.321-8.986,3.321-8.986h.651l.457-3.746s1.692-4.721,2.735-6.708S500.572,1267.531,496.893,1267.139Z" transform="translate(-442.417 -1068.728)" fill="#2e383b"/>
          <path id="Trazado_109509" data-name="Trazado 109509" d="M388.03,549.113a11.478,11.478,0,0,0-6.618.287s-2.708,3.844-3.255,6.218-.48,8.6-1.821,11.28-6.961,7.728-6.594,12.731a9.567,9.567,0,0,0,4.768,7.31s3.749,9.858.513,16.828c-1.593,3.432-2.418,9.942-2.418,9.942s.376,5.906,12.9,8.266,25.523.38,26.757-1.775c0,0-.714-3.951-4.976-8.213-1.735-1.735-1.67-6.612-1.914-9.232s6.05-18.516,7.754-23.083,2.194-18.1,2.194-18.1-6.638-5.975-10.9-9.187c0,0-8.362,10.3-11.7,10.3,0,0-6.125,8.72-8.786,12.924l3.417-16.253S387.239,550.82,388.03,549.113Z" transform="translate(-358.378 -521.205)" fill="#e54b5a"/>
          <path id="Trazado_109510" data-name="Trazado 109510" d="M473.948,652.376l-3.2.356s-7.734.728-8.148,5.466-.049,12.205-4.968,14.118-9.769-.729-9.769-.729,5.465,2.936,7.936,7.936c1.87,3.785,5.4,14.869,6.47,22.269,5.175-.45,8.911-1.509,9.545-2.614,0,0-.714-3.951-4.976-8.213-1.735-1.735-1.67-6.612-1.914-9.232s6.05-18.516,7.754-23.083A31.681,31.681,0,0,0,473.948,652.376Z" transform="translate(-417.93 -600.184)" fill="#cc3241"/>
          <path id="Trazado_109511" data-name="Trazado 109511" d="M418.561,558.794s-1.636,4.75-1.522,8c0,0-8.31,4.4-8.354,3.974s7.368-12.26,7.368-12.26Z" transform="translate(-388.072 -528.64)" fill="#eb737e"/>
          <path id="Trazado_109512" data-name="Trazado 109512" d="M476.765,547.1s-3.866,9.389-10.383,14.328c0,0,5.015,7.341,5.654,7.341s6.673-14.111,6.885-17.643Z" transform="translate(-432.045 -519.949)" fill="#eb737e"/>
          <g id="Grupo_86029" data-name="Grupo 86029" transform="translate(22.837)">
            <path id="Trazado_109513" data-name="Trazado 109513" d="M418.663,455.047a9.157,9.157,0,0,0-.574,4.033c.276,1.912,1.827,5.479,2.081,7.072s.914,3.673,2.506,4.33,7.985-.764,12.1-4.1,7.622-10.786,8.473-13.822a15.427,15.427,0,0,0-1.168-10.107c-1.465-3.017-6.541-6.35-11.955-4.82s-7.3,3.716-9.3,6.5-2.569,7.58-2.633,8.621A6.137,6.137,0,0,0,418.663,455.047Z" transform="translate(-418.035 -436.226)" fill="#ffcda8"/>
            <path id="Trazado_109514" data-name="Trazado 109514" d="M418.089,510.975c.276,1.912,1.827,5.479,2.081,7.072s.914,3.673,2.506,4.33a2.832,2.832,0,0,0,.994.156c-2.112-1.927-2.713-6.886-2.713-6.886a6.313,6.313,0,0,1-1.461-.657c-.442-.341,1.526-4.842,1.718-6.392.147-1.205-2.016-2.667-2.984-3.258a7.082,7.082,0,0,0,.435,1.6A9.156,9.156,0,0,0,418.089,510.975Z" transform="translate(-418.035 -488.12)" fill="#d9a782"/>
            <path id="Trazado_109515" data-name="Trazado 109515" d="M450.986,472.691c0-8.27-2.943-11.692-4.3-14.391-3.03-6.028-1.5-10.654-2.244-15.421a12.155,12.155,0,0,0-15.266-9.478c-9.048,2.335-11.138,11.134-11.138,11.134,2.162-.083,4.2,2.858,4.2,2.858a8.034,8.034,0,0,1,5.6,1.374c2.356,1.865,6.475,6.924,10.913,4.6l2.628.552c-.494,6.224,4.791,11.858,4.791,11.858s-2.85-4.719-2.85-7.429c0,0,1.735,3.041,2.995,4.863,1.279,1.85,2.473,4.107,2.519,5.6a13.387,13.387,0,0,0-1.066-5.88C449.72,465.537,450.986,472.691,450.986,472.691Z" transform="translate(-418.039 -432.941)" fill="#7a3a1d"/>
            <path id="Trazado_109516" data-name="Trazado 109516" d="M441.854,451.594s-4.3.751-7.075-1.432a6.183,6.183,0,0,0,3.281,2.368,4.8,4.8,0,0,1-3.853-.606c-2.069-1.242-5.061-4.583-7.321-5.252a6.665,6.665,0,0,0-4.361.351s1.512-11.832,12.7-13.8a12.861,12.861,0,0,0-6.05.185c-9.048,2.335-11.138,11.134-11.138,11.134,2.162-.083,4.2,2.858,4.2,2.858a8.034,8.034,0,0,1,5.6,1.374c2.356,1.865,6.475,6.924,10.913,4.6l2.628.552c-.022.282-.03.563-.03.843l.55-1.945Z" transform="translate(-418.039 -432.943)" fill="#612104"/>
            <path id="Trazado_109517" data-name="Trazado 109517" d="M499.311,513.414c.605-1.385,2.335-2.508,3.333-2.209s1.361,2.188.469,3.779-4.226,4.184-5.076,3.589S498.865,514.433,499.311,513.414Z" transform="translate(-478.829 -492.553)" fill="#ffcda8"/>
          </g>
          <g id="Grupo_86031" data-name="Grupo 86031" transform="translate(29.932 85.8)">
            <path id="Trazado_109518" data-name="Trazado 109518" d="M474.451,798.389v.122l-5.285,3.523a28.062,28.062,0,0,0-1-4.575c-1.231-3.623-2.8-3.808-2.922-3.778s.215,1.7-.279,2.824a6.61,6.61,0,0,1-2.873,2.734c-1.154.576-6.955.486-8.656.881s-5.406,3.344-5.406,3.344c-.852,1.214,1.913.939,2.46.635s2.612-1.093,2.612-1.093a10.949,10.949,0,0,0-1.113.7,27.951,27.951,0,0,0-2.653,2.826c-.455.607-.821,1.244,0,1.488s2.916-1.457,2.916-1.457a3.962,3.962,0,0,1,1.883-.425l-1.336.667L450.03,808.6a.84.84,0,0,0,.79,1.183c.455-.121,2.642-.911,3.494-1.275a21.819,21.819,0,0,1,4.145-.5,4.774,4.774,0,0,1-1.047.776,32.005,32.005,0,0,1-4.132,1.427c-1.062.244-1.974.213-1.73.972s2.066.486,3.736.273,5.043-1.033,6.094-1.268,6.146-.128,7.331-.372,8.626-4.8,8.626-4.8Z" transform="translate(-447.864 -793.679)" fill="#ffcda8"/>
            <g id="Grupo_86030" data-name="Grupo 86030" transform="translate(0.98 8.477)">
              <path id="Trazado_109519" data-name="Trazado 109519" d="M456.721,830.172s-.2.108-.448.259l4.631-.6a19.742,19.742,0,0,0-4.317-.479,18.09,18.09,0,0,0-3.969,2.173,3.928,3.928,0,0,0,1.491-.26C454.655,830.962,456.721,830.172,456.721,830.172Z" transform="translate(-452.466 -829.322)" fill="#d9a782"/>
              <path id="Trazado_109520" data-name="Trazado 109520" d="M465.314,834.006c-.21.128-.455.283-.657.435-.043.032-.1.084-.166.143C464.9,834.28,465.276,834.03,465.314,834.006Z" transform="translate(-461.515 -832.892)" fill="#d9a782"/>
              <path id="Trazado_109521" data-name="Trazado 109521" d="M456.682,848.512a.84.84,0,0,0,.79,1.184c.455-.121,2.642-.91,3.493-1.275a21.831,21.831,0,0,1,4.145-.5l2.126-.734a27.107,27.107,0,0,0-5.022.293c-1.851.4-1.983-.1-2.072-.293s.639-1.132.639-1.132l-1.336.667Z" transform="translate(-455.496 -842.073)" fill="#d9a782"/>
              <path id="Trazado_109522" data-name="Trazado 109522" d="M480.4,839.039c1.184-.242,8.626-4.8,8.626-4.8l-.963-2.21c-2.409,1.534-7.149,4.484-8.606,4.938-1.983.616-6.433,1.057-8.328,1.673a56.07,56.07,0,0,1-7.927,1.554.7.7,0,0,0,.037.212c.243.759,2.066.486,3.736.273s5.043-1.033,6.094-1.268S479.218,839.282,480.4,839.039Z" transform="translate(-460.536 -831.385)" fill="#d9a782"/>
              <path id="Trazado_109523" data-name="Trazado 109523" d="M452.471,843.794c.82.243,2.916-1.457,2.916-1.457a3.962,3.962,0,0,1,1.883-.426l3.812-.909a9.3,9.3,0,0,0-4.362,0c-2.422.573-2.781.026-2.757-.383-.6.636-1.241,1.353-1.492,1.687C452.015,842.914,451.65,843.551,452.471,843.794Z" transform="translate(-451.983 -837.932)" fill="#d9a782"/>
            </g>
          </g>
          <path id="Trazado_109524" data-name="Trazado 109524" d="M527.658,589.848s-6,8.236-5.826,12.966,8.731,12.4,11.877,16.166,9.938,13.448,9.938,13.448-7.229,5.652-10.207,7.974-7.9,6.281-7.9,6.281-.071,5.9,1.857,7.036c0,0,15.376-7.842,18.048-9.332s11.52-6.572,11.959-8.542-3.2-9.244-5.958-13.406-14.281-21.2-15.464-24.094S527.658,589.848,527.658,589.848Z" transform="translate(-474.304 -552.528)" fill="#e54b5a"/>
        </g>
      </g>
      <g id="Grupo_86034" data-name="Grupo 86034" transform="translate(2.968)">
        <path id="Trazado_109525" data-name="Trazado 109525" d="M219.051,244.094l-.329-.71-1.229-.19-.9.52L208.162,273.2l2.588,5.578,9.661,1.494,7.072-4.083Z" transform="translate(-208.162 -243.194)" fill="#ffe1b4"/>
        <path id="Trazado_109526" data-name="Trazado 109526" d="M259.492,279.078l-7.072,4.083-2.26-35.663.9-.52Z" transform="translate(-240.172 -246.078)" fill="#dbba8d" opacity="0.5"/>
        <path id="Trazado_109527" data-name="Trazado 109527" d="M208.162,274.87l2.588,5.578,6.172-34.359-.329-.71Z" transform="translate(-208.162 -244.859)" fill="#dbba8d"/>
        <path id="Trazado_109528" data-name="Trazado 109528" d="M223.445,371.922c-2.1,1.157-3.034,4.083-3.034,4.083a6.856,6.856,0,0,0-4.83-2.838c-3.364-.437-4.83,1.344-4.83,1.344a14.079,14.079,0,0,0-1.114-4.49c-.918-1.792-1.474-1.087-1.474-1.087v220.45l2.588,5.578,9.661,1.494,7.072-4.084V371.922A4.27,4.27,0,0,0,223.445,371.922Z" transform="translate(-208.162 -338.922)" fill="#ffb710"/>
        <path id="Trazado_109529" data-name="Trazado 109529" d="M223.874,386.949c-3.364-.437-4.83,1.344-4.83,1.344v220.45l9.661,1.494V389.787A6.855,6.855,0,0,0,223.874,386.949Z" transform="translate(-216.456 -352.705)" fill="#ffb710"/>
        <path id="Trazado_109530" data-name="Trazado 109530" d="M262.7,380.289c-2.1,1.157-3.034,4.083-3.034,4.083v220.45l7.072-4.084V380.289A4.27,4.27,0,0,0,262.7,380.289Z" transform="translate(-247.413 -347.289)" fill="#de7b04" opacity="0.5"/>
        <path id="Trazado_109531" data-name="Trazado 109531" d="M209.636,370.02c-.918-1.792-1.474-1.087-1.474-1.087v220.45l2.588,5.578V374.51A14.079,14.079,0,0,0,209.636,370.02Z" transform="translate(-208.162 -338.922)" fill="#de7b04"/>
        <path id="Trazado_109532" data-name="Trazado 109532" d="M233.047,255.415l4.094.633,2.842-1.641-2.709-10.313-.329-.71-1.229-.19-.9.52-2.744,9.6Z" transform="translate(-226.384 -243.194)" fill="#414e5f"/>
        <path id="Trazado_109533" data-name="Trazado 109533" d="M233.047,257.08l.12.018,1.977-11.009-.329-.71-2.744,9.6Z" transform="translate(-226.384 -244.859)" fill="#29333f"/>
        <path id="Trazado_109534" data-name="Trazado 109534" d="M250.929,258.932l2.842-1.641-2.709-10.313-.9.52.724,11.427Z" transform="translate(-240.172 -246.078)" fill="#29333f" opacity="0.5"/>
        <path id="Trazado_109535" data-name="Trazado 109535" d="M245.167,244.614l-1.229-.19-.329-.71.9-.52,1.229.19.329.71Z" transform="translate(-235.178 -243.194)" fill="#5b6879"/>
      </g>
      <path id="Trazado_109536" data-name="Trazado 109536" d="M198.651,487.561s-2.249,1-2.363,3.121-1.062,7.322-.33,8.969a2.875,2.875,0,0,0,2.693,1.532s-.313.313,1.483-.8.517-1.687,1.907-4.472c1.631-3.268.51-5.824-.424-6.7A11.342,11.342,0,0,0,198.651,487.561Z" transform="translate(-195.683 -429.439)" fill="#ffcda8"/>
      <path id="Trazado_109537" data-name="Trazado 109537" d="M196.4,507.371a2.122,2.122,0,0,0,.106.312,2.875,2.875,0,0,0,2.693,1.532s-.313.313,1.483-.8.517-1.687,1.907-4.472a6.262,6.262,0,0,0,.209-5.847,4.98,4.98,0,0,1,.043,2.525c-.445.611-4.562-2.058-4.562-2.058s3.71,2.5,3.885,3.226-.325,1.5-.659,1.5a42.278,42.278,0,0,1-3.894-1.947s3.728,2.146,3.449,3.076-3.226-.239-3.226-.239,2.811,1.168,1.989,2.614C199.434,507.476,197.907,507.517,196.4,507.371Z" transform="translate(-196.226 -437.47)" fill="#d9a782"/>
    </g>
    <path id="Trazado_109538" data-name="Trazado 109538" d="M1704.777,1378.625c17.667,10.2,17.667,26.736,0,36.937s-46.308,10.2-63.974,0-17.667-26.737,0-36.937S1687.11,1368.425,1704.777,1378.625Z" transform="translate(-1103.497 -952.05)" opacity="0.2" style="mix-blend-mode: multiply;isolation: isolate"/>
    <path id="Trazado_109539" data-name="Trazado 109539" d="M747.96,972.753,935.374,864.547l134.819,77.84L882.779,1050.593Z" transform="translate(-433.112 -566.073)" opacity="0.2" style="mix-blend-mode: multiply;isolation: isolate"/>
    <g id="Grupo_86040" data-name="Grupo 86040" transform="translate(342.636 121.818)">
      <path id="Trazado_109540" data-name="Trazado 109540" d="M1208.8,481.139c.163,0,2.638,1.347,2.992,2.753a6.32,6.32,0,0,0,2.335,3.194c.325,0,4.488-4.291,4.567-4.94s1.2-2.159-1.773-4.515a32.346,32.346,0,0,0-6.4-3.832Z" transform="translate(-1126.975 -390.082)" fill="#ffcda8"/>
      <path id="Trazado_109541" data-name="Trazado 109541" d="M1214.058,493.96c-.767-1.593-2.922-2.42-4.507-2.828l-.755,3.218c.163,0,2.638,1.347,2.992,2.753a6.32,6.32,0,0,0,2.335,3.194,5.856,5.856,0,0,0,1.2-1.026A21.6,21.6,0,0,0,1214.058,493.96Z" transform="translate(-1126.975 -403.292)" fill="#d9a782"/>
      <path id="Trazado_109542" data-name="Trazado 109542" d="M1211.19,478.134l-5.295,6.9-2.014-1.537,5.716-6.691Z" transform="translate(-1123.23 -392.371)" fill="#dbe8f5"/>
      <path id="Trazado_109543" data-name="Trazado 109543" d="M924.777,306.13c-1.839,2.956-4.483,6.4-8.965,7.771s-14.517,1.963-18.957.341-7.215-4.995-6.789-6.617.683-14.048.128-16.268-11.935-33.226-11.935-33.226,13.729-12.715,14.285-13.27,6.276,5.734,6.874,6.261,7.85,3.249,9.732,2.358.815-14.382.815-14.382l8.8.213a125.476,125.476,0,0,1,3.671,17.121,79.265,79.265,0,0,1,.94,14.389c-.044,3.331-.257,17.163-.215,19.086S926.185,303.867,924.777,306.13Z" transform="translate(-875.055 -211.203)" fill="#dbe8f5"/>
      <path id="Trazado_109544" data-name="Trazado 109544" d="M1234.06,500.693s5.684,1.5,7.009,4.118a19.127,19.127,0,0,1,1.711,5.043l-6.677.883S1233.729,503.949,1234.06,500.693Z" transform="translate(-1146.206 -410.579)" fill="#ffcda8"/>
      <g id="Grupo_86036" data-name="Grupo 86036" transform="translate(7.822 94.156)">
        <path id="Trazado_109545" data-name="Trazado 109545" d="M1028.083,891.037s2.548,1.518,5.438,2.987,8.574,4.359,10.092,6.909,2.108,5.093,0,5.977-7.643,1.077-10.974-.245-6.271-5.488-8.426-5.929-7.2-1.322-8.427-1.762-2.4-3.969-2.4-5.782a26.186,26.186,0,0,1,.882-5.046Z" transform="translate(-985.864 -800.034)" fill="#2e383b"/>
        <path id="Trazado_109546" data-name="Trazado 109546" d="M1019.027,517.689s3.559,15.682,3.47,24.311-3.647,26.065-4.271,33.54,1.158,23.4,2.136,27.934,1.7,9.74-1.681,11.341-11.26.847-13.217-5.024c-1.183-3.55-2.183-17.7-2.538-24.823s-1.424-27.56-1.424-27.56l3.127-31.941A46.513,46.513,0,0,0,1019.027,517.689Z" transform="translate(-976.807 -517.689)" fill="#29425b"/>
        <path id="Trazado_109547" data-name="Trazado 109547" d="M1043.744,926.235c-2.107.881-7.643,1.077-10.974-.245s-6.271-5.488-8.426-5.929-7.2-1.322-8.427-1.762c-1.029-.371-2.022-2.915-2.315-4.8h0A10.105,10.105,0,0,0,1014,917.4c.637,1.957,1.787,3.132,3.352,3.45s5.628.854,5.628.854l.2-1.222a21.436,21.436,0,0,1,2.912,1.1c1.028.538,2.886,3.132,5.041,4.306a20.147,20.147,0,0,0,8.735,1.861c3.255.049,4.918-1.224,5.115-1.834a2.525,2.525,0,0,0,0-.932A2.055,2.055,0,0,1,1043.744,926.235Z" transform="translate(-985.995 -819.359)" fill="#151f22"/>
        <path id="Trazado_109548" data-name="Trazado 109548" d="M1002.926,607.191c-.356-7.117-1.424-27.56-1.424-27.56l3.127-31.941s.906-.269,2.368-.845l1.224,9.289c0,.226-.979,10.463-1.582,17.614s-1.129,17.162-.3,19.044-2.936,2.935-1.355,4.215,1.129,2.258,1.054,3.237c-.069.9,1.257,27.629,4.39,36.714a8.061,8.061,0,0,1-4.963-4.945C1004.281,628.464,1003.282,614.309,1002.926,607.191Z" transform="translate(-976.807 -539.91)" fill="#102942"/>
        <path id="Trazado_109549" data-name="Trazado 109549" d="M901.279,957.4s-1.79,5.131-1.829,5.847,1.113,2.9,2.265,4.614a41.5,41.5,0,0,1,3.54,7.914,12.091,12.091,0,0,0,8.113,7.239c4.653,1.311,7,.317,7.557-1.075s-.635-5.846-2.068-8.511-5.29-8.949-5.29-8.949Z" transform="translate(-899.027 -852.816)" fill="#2e383b"/>
        <path id="Trazado_109550" data-name="Trazado 109550" d="M906.077,522.432s-2.926,11.44-2.658,32.524-1.164,25.266-1.738,27.936-2.8,8.983-3.244,15.656,1.6,24.287,1.067,28.824c0,0,2.435,9.676,7.463,10.865,5.158,1.219,8.239-.419,7.527-4.6s-2.247-32.152,2.591-43.273,6.8-24.554,7.774-30.426a119.19,119.19,0,0,0,1.246-12.722,39.67,39.67,0,0,0,5.922-20.415S915.289,529.157,906.077,522.432Z" transform="translate(-898.207 -521.304)" fill="#29425b"/>
        <path id="Trazado_109551" data-name="Trazado 109551" d="M919.663,1000.336a1.7,1.7,0,0,1-.089.336c-.557,1.392-2.9,2.387-7.557,1.075a12.091,12.091,0,0,1-8.113-7.239,41.5,41.5,0,0,0-3.54-7.914c-1.153-1.71-2.307-3.9-2.266-4.614-.281,1.137-.637,3.42-.258,4.414a23.009,23.009,0,0,0,2.881,3.7h.955s.557,1.431.956,2.585.793,3.619,2.544,5.568a16.194,16.194,0,0,0,7.876,4.573c3.021.677,5.805,0,6.441-.834A2.343,2.343,0,0,0,919.663,1000.336Z" transform="translate(-897.676 -871.551)" fill="#151f22"/>
        <path id="Trazado_109552" data-name="Trazado 109552" d="M903.4,635.7a25.539,25.539,0,0,1-3.892-8.324c.534-4.537-1.513-22.152-1.067-28.824s2.667-12.989,3.244-15.656,2-6.852,1.738-27.936,2.658-32.524,2.658-32.524a20.751,20.751,0,0,0,5.392,2.755,175.312,175.312,0,0,0-3.452,25.917c-.527,12.092-1.657,23.308-.979,23.985a1.59,1.59,0,0,1-.211,2.56c-1.069.752-.67,1.5-.87,2.408a3.008,3.008,0,0,1-.99,1.694c-.413.414-3.273,16.824-2.822,25.932C902.5,614.727,902.17,627.438,903.4,635.7Z" transform="translate(-898.207 -521.304)" fill="#102942"/>
      </g>
      <path id="Trazado_109553" data-name="Trazado 109553" d="M1036.231,244.062l2.928-4.069s5.615,3.289,7.954,8.536,9.783,19.921,11.485,22.827,10.917,11.839,12.973,14.462,11.293,10.824,11.293,10.824-4.856,4.643-5.564,7.9c0,0-20.618-14.616-23.027-16.316s-13.3-18.645-13.3-18.645Z" transform="translate(-995.454 -211.886)" fill="#364f68"/>
      <path id="Trazado_109554" data-name="Trazado 109554" d="M1047.6,316.971l-2.679-14.406,1.476-.4s2.961.986,4,5.56,6.132,13.354,7.535,15.224,5.353,1.122,4.781,2.275-2.8,1.882-.156,3.7c2.457,1.687,19.589,14.145,24.027,18.223a18.922,18.922,0,0,0-2.66,4.781s-20.618-14.616-23.027-16.316S1047.6,316.971,1047.6,316.971Z" transform="translate(-1002.077 -259.272)" fill="#1d364f"/>
      <path id="Trazado_109555" data-name="Trazado 109555" d="M943.74,228.418s.669,6.061,0,7.943,10.628,13.887,16.336,12-.563-13.563-.563-13.563Z" transform="translate(-924.94 -203.064)" fill="#d9a782"/>
      <path id="Trazado_109556" data-name="Trazado 109556" d="M998.342,304.251l2.328-4.685,4.583,2.856-1.1,3.362s5.569,15.891,6.707,30.049c.791,9.877,1.238,15.026,1.238,15.026l-2.342,4.627-4.084-3.034s.777-31.81-3.9-45.92Z" transform="translate(-966.577 -257.289)" fill="#9b0000"/>
      <path id="Trazado_109557" data-name="Trazado 109557" d="M936,250.849s7.891,10.712,15.433,11.587l-1.548,6.871s-10.538-4.6-16.145-15.257Z" transform="translate(-917.344 -220.16)" fill="#e8f5ff"/>
      <path id="Trazado_109558" data-name="Trazado 109558" d="M1013.5,273.236l-5.366-3.552a44.152,44.152,0,0,0,.479-8.762l2.019-.563S1014.419,266.694,1013.5,273.236Z" transform="translate(-974.039 -227.407)" fill="#e8f5ff"/>
      <path id="Trazado_109559" data-name="Trazado 109559" d="M900.3,252.275s2.946,5.422,5.133,10.3a122.031,122.031,0,0,1,10.16,33.357c.755,4.632.7,11.265,1.168,16.564.7,8.074-.285,18.728-.827,23.206-.6,4.988-5.692,9.581-11.994,8.813-9.056-1.1-12.05-3.747-12.05-3.747s3.283-30.114,2.333-38.974c-1-9.294-4.716-13.225-6.473-20-2.51-9.694-1.728-15.668-1.728-15.668l10.72-11.691Z" transform="translate(-880.883 -221.246)" fill="#364f68"/>
      <path id="Trazado_109560" data-name="Trazado 109560" d="M931.111,251.183l3.642-2.751s2.946,6.336,5.133,11.21A116.586,116.586,0,0,1,950.046,293L935.2,269.333l3.193-4.343-3.608.356Z" transform="translate(-915.337 -218.317)" fill="#435c75"/>
      <path id="Trazado_109561" data-name="Trazado 109561" d="M1031.852,275.557l-1.149,4.953s.614,9.352.614,18.978c0,6.1,1.482,20.171,4.145,21.673,4.794,2.7,4.281-.319,4.281-.319s-3.389-27.065-3.879-33.372-.341-28.812-1.478-32.773-5.617-16.586-5.617-16.586l-6.171-.587,6.148,17.019Z" transform="translate(-985.063 -210.003)" fill="#364f68"/>
      <path id="Trazado_109562" data-name="Trazado 109562" d="M1019.789,242.155c1.758,3.742,5.691,13.91,5.691,13.91l-1.809,2.208,2.664,1.36s2.026,18.062-1.029,24.408c.09-3.072-.556-6.234-.68-8.534a81.582,81.582,0,0,0-9.111-32.6Z" transform="translate(-979.665 -213.533)" fill="#435c75"/>
      <path id="Trazado_109563" data-name="Trazado 109563" d="M943.161,542.293l-.932,6.053-11.71-3.026,10.728,1.92Z" transform="translate(-914.886 -442.285)" fill="#1d364f"/>
      <g id="Grupo_86037" data-name="Grupo 86037" transform="translate(14.052)">
        <path id="Trazado_109564" data-name="Trazado 109564" d="M931.023,134.191c3.723-2.613,9.7-2.456,13.966.3a12.978,12.978,0,0,1,5.855,7.71c.4,1.542.9,2.862,1.291,4.031s-.8,2.667-.8,2.667c1.355,1.632.406,5.593.149,6.556a2.16,2.16,0,0,1,.245.89,1.041,1.041,0,0,1-.728,1,21.357,21.357,0,0,0-.466,3.445c.021.949.209,4.106-3.5,4.246s-9.108-1.95-12.534-4.571a24.7,24.7,0,0,1-8.2-13.425A12.316,12.316,0,0,1,931.023,134.191Z" transform="translate(-925.49 -129.826)" fill="#ffcda8"/>
        <path id="Trazado_109565" data-name="Trazado 109565" d="M1025.874,204.722h0c-.547-1.244-1.857-3.16-2.23-4.421-.489-1.63,2.757-3.339,2.757-3.339h0a5.266,5.266,0,0,1-.678,1.2C1027.08,199.8,1026.13,203.76,1025.874,204.722Z" transform="translate(-999.876 -179.089)" fill="#d9a782"/>
        <path id="Trazado_109566" data-name="Trazado 109566" d="M928.921,124.457c5.745-4.188,12.615-2.687,16.221-.333a13.244,13.244,0,0,1,4.255,4.793c1.292,2.218,1.409,6.793-3.843,7.31a39.39,39.39,0,0,1-9.5-.689c-3.047,2.063-1.754,5.322-2.144,6.433s-.816,2.526-1.5,2.936c-.42.252-1.239-.427-1.453-.661-.515-.568-4.1-4.558-4.224.46a22.855,22.855,0,0,1-2.052-5.673,13.868,13.868,0,0,1-.29-2.376h0C923.364,134.706,923.386,128.49,928.921,124.457Z" transform="translate(-923.87 -121.818)" fill="#563317"/>
        <path id="Trazado_109567" data-name="Trazado 109567" d="M935.576,189.522c-.4,1.108-.816,2.526-1.5,2.936-.42.252-1.239-.427-1.453-.661-.515-.568-4.1-4.558-4.224.46a22.864,22.864,0,0,1-2.052-5.673,13.856,13.856,0,0,1-.29-2.376,28.029,28.029,0,0,0,9.612,2.327C935.533,187.8,935.78,188.95,935.576,189.522Z" transform="translate(-925.535 -169.369)" fill="#634024"/>
        <path id="Trazado_109568" data-name="Trazado 109568" d="M1022.581,244.684a18.333,18.333,0,0,1,.391-6.935c.05-.2.9.006,1.558-.225h0a21.332,21.332,0,0,0-.466,3.445C1024.077,241.692,1024.192,243.712,1022.581,244.684Z" transform="translate(-999.013 -210.003)" fill="#d9a782"/>
        <path id="Trazado_109569" data-name="Trazado 109569" d="M937.957,213.8c-.448.3-1.487.738-3.583-1.415s-2.1-4.218-1.1-4.929a1.71,1.71,0,0,1,2.529.476A53.68,53.68,0,0,1,937.957,213.8Z" transform="translate(-930.544 -186.805)" fill="#ffcda8"/>
      </g>
      <path id="Trazado_109570" data-name="Trazado 109570" d="M1075.4,576.923a11.2,11.2,0,0,1,5.317,2.8c2.242,2.242-2.436,3.91-2.436,3.91S1075.148,579.7,1075.4,576.923Z" transform="translate(-1025.299 -468.678)" fill="#ffcda8"/>
      <g id="Grupo_86039" data-name="Grupo 86039" transform="translate(0.715 46.255)">
        <path id="Trazado_109571" data-name="Trazado 109571" d="M1032.7,567.6l4.208.5s2.186,4.5,2.95,5.9,2.332,1.981,2.909,2.558,1.98.247,2.723,0,1.9-.265,1.9.32.495.5-.412,1.123a18.573,18.573,0,0,0-2.475,2.516s-.041,1.279-.618,1.485a12.482,12.482,0,0,1-1.816.372,13.37,13.37,0,0,1-2.641.825c-.371-.082-3.507-.371-4.7-1.774s-4.786-6.354-5.736-7.055-4.109-3.919-4.109-3.919l5.107-5.107Z" transform="translate(-987.515 -506.102)" fill="#ffcda8"/>
        <g id="Grupo_86038" data-name="Grupo 86038">
          <path id="Trazado_109572" data-name="Trazado 109572" d="M913.06,377.5l-4.963,6.029-3.576-2.894a26.911,26.911,0,0,1-4.084-2.434c-1.073-.948-16.09-16.048-17.121-17.7s-8.208-15.552-9.777-19.637-8.244-14-4.744-22c2.271-5.2,8.993-1.184,11.51.507s2.928,7.343,3.506,9.076,5.641,13.9,6.843,17.615,3.47,10.768,4.254,11.14,10.269,11.076,11.758,12.789a31.707,31.707,0,0,1,2.971,4.332Z" transform="translate(-867.794 -316.294)" fill="#f9f0eb"/>
          <path id="Trazado_109573" data-name="Trazado 109573" d="M999.59,561.513l-2.875-3.443,3.645,3.286,2.133-1.558-2.133,2.862,3.823,3.378-1.449,1.761-3.576-2.894a26.922,26.922,0,0,1-4.084-2.434c-.276-.243-1.47-1.419-3.109-3.059,1.224.674,2.548,1.43,3.6,2.1C998.28,563.234,999.59,561.513,999.59,561.513Z" transform="translate(-962.432 -500.565)" fill="#e0d7d2"/>
        </g>
        <path id="Trazado_109574" data-name="Trazado 109574" d="M1067.276,625.834a10.813,10.813,0,0,0,3.321-1.719c.089-.354.332-.952.931-.8s3.988,1.352,5.029,1.263c.123-.01.248-.023.371-.037l-.115.137s-.041,1.279-.618,1.485a12.482,12.482,0,0,1-1.816.372,13.354,13.354,0,0,1-2.641.825C1071.389,627.285,1068.607,627.026,1067.276,625.834Z" transform="translate(-1019.83 -550.274)" fill="#d9a782"/>
      </g>
      <path id="Trazado_109575" data-name="Trazado 109575" d="M921.3,407.337a135.822,135.822,0,0,0,.74-18.045,87.18,87.18,0,0,1-9.4-16.15c-3.95-9.265-10.877-23.779-10.877-23.779l-9.159,5.42c.08.329.162.662.25,1,1.757,6.779,5.477,10.71,6.474,20,.951,8.86-2.333,38.973-2.333,38.973s2.092,1.843,8.057,3.094c-.126-5.652-.438-19.74-.443-21.185C904.6,395.258,915.352,403.187,921.3,407.337Z" transform="translate(-885.989 -295.242)" fill="#1d364f"/>
      <path id="Trazado_109576" data-name="Trazado 109576" d="M880.924,317.635c-.569-2.318-9.307-8.563-11-7.526a10.742,10.742,0,0,0-4.947,11.171c1.158,6.514,8.035,21.208,10.061,25.478a69.849,69.849,0,0,0,9.7,14.4c4.053,4.7,18.692,16.72,18.692,16.72l.846.845,6.034-7.649S895.6,355.009,894.151,353.2s-4.479-9.409-5.786-13.608S881.451,319.782,880.924,317.635Z" transform="translate(-864.789 -265.237)" fill="#364f68"/>
    </g>
    <path id="Trazado_109577" data-name="Trazado 109577" d="M412.1,1085.775l-22.984,13.27-22.985-13.27-186.44,107.644L313.8,1270.854h45.97l186.44-107.645Z" transform="translate(0 -734.683)" opacity="0.2" style="mix-blend-mode: multiply;isolation: isolate"/>
    <path id="Trazado_109578" data-name="Trazado 109578" d="M372.96,1337.946v-62.359l134.118,77.436v62.359Z" transform="translate(-147.304 -879.349)" fill="#bbc2c6"/>
    <path id="Trazado_109579" data-name="Trazado 109579" d="M936.846,1256.221l186.44-107.645v62.359L936.846,1318.58Z" transform="translate(-577.072 -782.548)" fill="#d4dbdf"/>
    <path id="Trazado_109580" data-name="Trazado 109580" d="M372.96,930.652,559.4,823.008l134.118,77.435-186.44,107.645Z" transform="translate(-147.304 -534.414)" fill="#eef5f9"/>
    <path id="Trazado_109581" data-name="Trazado 109581" d="M532.815,1438.991l187.016-107.513.011,10.167-179.774,104.21-131.41-75.9-1.261-8.99Z" transform="translate(-173.55 -921.947)" opacity="0.1" style="mix-blend-mode: multiply;isolation: isolate"/>
    <path id="Trazado_109582" data-name="Trazado 109582" d="M1129.3,1179.646v16.4L954.279,1297.1l-9.628-10.843Z" transform="translate(-583.02 -804.148)" opacity="0.1" style="mix-blend-mode: multiply;isolation: isolate"/>
    <path id="Trazado_109583" data-name="Trazado 109583" d="M1129.3,1179.646v-2.728l12,6.923-187.019,107.98-9.628-5.563Z" transform="translate(-583.02 -804.148)" fill="#fff"/>
    <path id="Trazado_109584" data-name="Trazado 109584" d="M368.168,1309.15l134.75,77.8,187.016-107.976-187.049,106.8Z" transform="translate(-143.652 -881.929)" fill="#dee5e9" style="mix-blend-mode: multiply;isolation: isolate"/>
    <path id="Trazado_109585" data-name="Trazado 109585" d="M368.168,1422.973l134.75,77.8L689.933,1392.8,502.884,1499.6Z" transform="translate(-143.652 -968.681)" fill="#dee5e9" style="mix-blend-mode: multiply;isolation: isolate"/>
    <path id="Trazado_109586" data-name="Trazado 109586" d="M515.961,1423.649l181.757-104.94,9.329,5.386L520.03,1432.072l-134.749-77.8,5.26-3.036Z" transform="translate(-156.695 -912.215)" fill="#fff"/>
    <path id="Trazado_109587" data-name="Trazado 109587" d="M653.668,1304.43,550.037,1244.6l1.488-.86,103.633,59.833Z" transform="translate(-282.264 -855.076)" fill="#bbc2c6"/>
    <path id="Trazado_109588" data-name="Trazado 109588" d="M633.037,1316.343,529.406,1256.51l1.489-.857,103.631,59.83Z" transform="translate(-266.54 -864.156)" fill="#bbc2c6"/>
    <path id="Trazado_109589" data-name="Trazado 109589" d="M612.394,1328.258l-103.633-59.834,1.492-.856,103.63,59.833Z" transform="translate(-250.805 -873.237)" fill="#bbc2c6"/>
    <path id="Trazado_109590" data-name="Trazado 109590" d="M1252.1,958.644l-103.632-59.834,1.49-.857,103.633,59.832Z" transform="translate(-738.36 -591.535)" fill="#bbc2c6"/>
    <path id="Trazado_109591" data-name="Trazado 109591" d="M1231.464,970.556l-103.631-59.829,1.49-.861L1232.955,969.7Z" transform="translate(-722.634 -600.613)" fill="#bbc2c6"/>
    <path id="Trazado_109592" data-name="Trazado 109592" d="M1210.831,982.474,1107.2,922.644l1.488-.861,103.633,59.833Z" transform="translate(-706.908 -609.696)" fill="#bbc2c6"/>
    <path id="Trazado_109593" data-name="Trazado 109593" d="M1190.2,994.387l-103.631-59.834,1.49-.857,103.629,59.834Z" transform="translate(-691.181 -618.775)" fill="#bbc2c6"/>
    <path id="Trazado_109594" data-name="Trazado 109594" d="M1169.556,1006.3l-103.632-59.834,1.489-.857,103.633,59.833Z" transform="translate(-675.449 -627.856)" fill="#bbc2c6"/>
    <path id="Trazado_109595" data-name="Trazado 109595" d="M1148.914,1018.214l-103.633-59.829,1.492-.861,103.63,59.834Z" transform="translate(-659.716 -636.936)" fill="#bbc2c6"/>
    <path id="Trazado_109596" data-name="Trazado 109596" d="M1128.287,1030.129,1024.656,970.3l1.489-.862,103.631,59.83Z" transform="translate(-643.997 -646.017)" fill="#bbc2c6"/>
    <path id="Trazado_109597" data-name="Trazado 109597" d="M1107.647,1042.043l-103.633-59.834,1.492-.858,103.628,59.835Z" transform="translate(-628.264 -655.097)" fill="#bbc2c6"/>
    <path id="Trazado_109598" data-name="Trazado 109598" d="M1087.014,1053.959,983.383,994.125l1.489-.857L1088.5,1053.1Z" transform="translate(-612.54 -664.179)" fill="#bbc2c6"/>
    <path id="Trazado_109599" data-name="Trazado 109599" d="M1066.376,1065.872l-103.631-59.831,1.488-.861,103.633,59.834Z" transform="translate(-596.811 -673.257)" fill="#bbc2c6"/>
    <path id="Trazado_109600" data-name="Trazado 109600" d="M1045.743,1077.788l-103.631-59.829,1.49-.861,103.63,59.829Z" transform="translate(-581.086 -682.341)" fill="#bbc2c6"/>
    <path id="Trazado_109601" data-name="Trazado 109601" d="M1025.1,1089.705,921.47,1029.871l1.492-.857,103.631,59.833Z" transform="translate(-565.353 -691.423)" fill="#bbc2c6"/>
    <g id="Grupo_86051" data-name="Grupo 86051" transform="translate(295.163 343.701)">
      <g id="Grupo_86050" data-name="Grupo 86050">
        <path id="Trazado_109602" data-name="Trazado 109602" d="M985.449,1115.394l-103.631-59.829,1.492-.861,103.629,59.834Z" transform="translate(-830.295 -1054.703)" fill="#438be3" opacity="0.5" style="mix-blend-mode: multiply;isolation: isolate"/>
        <path id="Trazado_109603" data-name="Trazado 109603" d="M1113.163,1249.94l-3.9-2.252,1.49-.857,3.9,2.248Z" transform="translate(-1003.646 -1201.134)" fill="#f050a6"/>
        <path id="Trazado_109604" data-name="Trazado 109604" d="M1092.522,1261.842l-3.9-2.252,1.49-.861,3.9,2.252Z" transform="translate(-987.914 -1210.202)" fill="#ffb710"/>
        <path id="Trazado_109605" data-name="Trazado 109605" d="M1071.9,1273.756l-3.9-2.252,1.488-.861,3.9,2.251Z" transform="translate(-972.195 -1219.283)" fill="#3db9df"/>
        <path id="Trazado_109606" data-name="Trazado 109606" d="M1051.254,1285.684l-3.9-2.252,1.487-.857,3.9,2.248Z" transform="translate(-956.461 -1228.377)" fill="#2a71c9"/>
        <path id="Trazado_109607" data-name="Trazado 109607" d="M1170.823,1283.216l-29.084-16.793,1.486-.861,29.087,16.8Z" transform="translate(-1028.396 -1215.41)" fill="#bbc2c6"/>
        <path id="Trazado_109608" data-name="Trazado 109608" d="M1150.178,1295.131l-29.084-16.792,1.493-.861,29.082,16.793Z" transform="translate(-1012.66 -1224.492)" fill="#bbc2c6"/>
        <path id="Trazado_109609" data-name="Trazado 109609" d="M1129.547,1307.059l-29.083-16.793,1.489-.856,29.084,16.788Z" transform="translate(-996.937 -1233.586)" fill="#bbc2c6"/>
        <path id="Trazado_109610" data-name="Trazado 109610" d="M1108.906,1318.973l-29.086-16.793,1.49-.857,29.088,16.793Z" transform="translate(-981.203 -1242.665)" fill="#bbc2c6"/>
        <g id="Grupo_86049" data-name="Grupo 86049" transform="translate(0 15.232)">
          <g id="Grupo_86041" data-name="Grupo 86041" transform="translate(48.326 0.109)">
            <path id="Trazado_109611" data-name="Trazado 109611" d="M898.255,1126.844l-12.021,6.941a40.222,40.222,0,0,0-17.858-4.794l1.487-9.788C881.055,1119.761,890.317,1122.264,898.255,1126.844Z" transform="translate(-868.377 -1119.203)" fill="#ffb710"/>
          </g>
          <g id="Grupo_86042" data-name="Grupo 86042">
            <path id="Trazado_109612" data-name="Trazado 109612" d="M691.654,1169.165c-22.93-6.165-32.844-21.907-22.156-35.142,8.305-10.288,25.923-16.162,45.511-15.168l-1.487,9.788c-8.174-.421-16.613,1.184-22.875,4.8-11.244,6.493-11.243,17.023,0,23.515a33.954,33.954,0,0,0,8.2,3.311Z" transform="translate(-665.197 -1118.745)" fill="#3db9df"/>
          </g>
          <g id="Grupo_86043" data-name="Grupo 86043" transform="translate(26.457 40.07)">
            <path id="Trazado_109613" data-name="Trazado 109613" d="M822.074,1295.26c-13.8,5.582-30.369,6.415-45.64,2.3l7.189-8.9c9.2,2.486,20.206,2,28.693-1.452Z" transform="translate(-776.434 -1287.215)" fill="#2a71c9"/>
          </g>
          <g id="Grupo_86044" data-name="Grupo 86044" transform="translate(62.339 7.75)">
            <path id="Trazado_109614" data-name="Trazado 109614" d="M943.159,1188.734a46.763,46.763,0,0,1-6.106,2.959l-9.759-8.045a28.605,28.605,0,0,0,3.844-1.856c11.255-6.5,11.255-17.026,0-23.523l12.021-6.941C961.055,1161.666,961.055,1178.4,943.159,1188.734Z" transform="translate(-927.294 -1151.328)" fill="#f050a6"/>
          </g>
          <g id="Grupo_86045" data-name="Grupo 86045" transform="translate(48.308 6.104)" style="mix-blend-mode: multiply;isolation: isolate">
            <path id="Trazado_109615" data-name="Trazado 109615" d="M890.808,1150.316l-4.638,2.677a40.246,40.246,0,0,0-17.864-4.79l.58-3.792C877.532,1144.847,884.684,1146.779,890.808,1150.316Z" transform="translate(-868.305 -1144.41)" fill="#ffb710"/>
          </g>
          <g id="Grupo_86046" data-name="Grupo 86046" transform="translate(10.429 6.021)" style="mix-blend-mode: multiply;isolation: isolate">
            <path id="Trazado_109616" data-name="Trazado 109616" d="M729.47,1183c-17.7-4.766-25.36-16.914-17.1-27.134,6.413-7.948,20.01-12.483,35.135-11.72l-.58,3.792c-8.168-.416-16.6,1.184-22.858,4.8-11.244,6.493-11.243,17.023,0,23.515a34.283,34.283,0,0,0,8.176,3.311Z" transform="translate(-709.045 -1144.06)" fill="#3db9df"/>
          </g>
          <g id="Grupo_86047" data-name="Grupo 86047" transform="translate(30.854 40.078)" style="mix-blend-mode: multiply;isolation: isolate">
            <path id="Trazado_109617" data-name="Trazado 109617" d="M830.158,1290.347a56.535,56.535,0,0,1-35.239,1.783l2.773-3.437c9.2,2.486,20.214,2.005,28.705-1.443Z" transform="translate(-794.919 -1287.25)" fill="#2a71c9"/>
          </g>
          <g id="Grupo_86048" data-name="Grupo 86048" transform="translate(62.332 12.01)" style="mix-blend-mode: multiply;isolation: isolate">
            <path id="Trazado_109618" data-name="Trazado 109618" d="M935.745,1198.118a35.725,35.725,0,0,1-4.719,2.288l-3.76-3.1a29.586,29.586,0,0,0,3.851-1.864c11.255-6.5,11.255-17.026,0-23.523l-.01,0,4.639-2.677C949.559,1177.213,949.557,1190.146,935.745,1198.118Z" transform="translate(-927.266 -1169.241)" fill="#f050a6"/>
          </g>
        </g>
      </g>
      <path id="Trazado_109619" data-name="Trazado 109619" d="M908.28,1364.145l30.665,17.706-17.387,10.037-30.662-17.7Z" transform="translate(-837.214 -1290.545)" fill="#bbc2c6"/>
    </g>
    <path id="Trazado_109620" data-name="Trazado 109620" d="M736.916,880.672l134.117,77.436,99.875-57.665L836.79,823.008Z" transform="translate(-424.695 -534.414)" opacity="0.2" style="mix-blend-mode: multiply;isolation: isolate"/>
    <path id="Trazado_109621" data-name="Trazado 109621" d="M1568.654,961.111l-1.012-.81s-1.767-5.331-2.475-5.664a1.964,1.964,0,0,0-2.133.216c-.755.526-2.1,1.471-2.652,1.752s-2.158-.455-2.158-.455-3.378,1.686-3.976,2.85.533,1.723,1.086,2.744a9.346,9.346,0,0,1,1.071,2.587c.174.836.845,1.261,2.035,1.9s.972,1.609,2.132,1.984a9.515,9.515,0,0,0,3.286.52c1.625.061,3.134-1.89,3.134-1.89Z" transform="translate(-1047.496 -634.569)" fill="#ffcda8"/>
    <path id="Trazado_109622" data-name="Trazado 109622" d="M1571.746,1001.723a9.511,9.511,0,0,1-3.286-.52c-1.161-.375-.945-1.341-2.133-1.984-.993-.537-1.619-.926-1.9-1.525a40.581,40.581,0,0,0,10.637,1.506l-.183.632S1573.371,1001.784,1571.746,1001.723Z" transform="translate(-1055.384 -667.552)" fill="#d9a782"/>
    <path id="Trazado_109623" data-name="Trazado 109623" d="M1539.3,942.471a21.44,21.44,0,0,1,3.215-1.551,5.315,5.315,0,0,0,1.879.7h0A10.394,10.394,0,0,1,1539.3,942.471Z" transform="translate(-1036.235 -624.281)" fill="#d9a782"/>
    <g id="Grupo_86068" data-name="Grupo 86068" transform="translate(312.563 173.753)">
      <path id="Trazado_109624" data-name="Trazado 109624" d="M738.351,448.378,925.765,340.172l134.818,77.84L873.169,526.218Z" transform="translate(-738.351 -340.172)" fill="#eef5f9"/>
      <path id="Trazado_109625" data-name="Trazado 109625" d="M1103.5,776.2,999.326,716.057l1.5-.866L1105,775.337Z" transform="translate(-937.254 -625.994)" fill="#bbc2c6"/>
      <path id="Trazado_109626" data-name="Trazado 109626" d="M1082.757,788.177,978.586,728.035l1.5-.866,104.172,60.146Z" transform="translate(-921.447 -635.123)" fill="#bbc2c6"/>
      <path id="Trazado_109627" data-name="Trazado 109627" d="M1062.01,800.157,957.836,740.011l1.5-.861L1063.507,799.3Z" transform="translate(-905.632 -644.255)" fill="#bbc2c6"/>
      <path id="Trazado_109628" data-name="Trazado 109628" d="M1041.276,812.137,937.1,751.99l1.5-.865,104.173,60.146Z" transform="translate(-889.831 -653.381)" fill="#bbc2c6"/>
      <path id="Trazado_109629" data-name="Trazado 109629" d="M1020.524,824.109,916.352,763.966l1.5-.865,104.174,60.142Z" transform="translate(-874.015 -662.509)" fill="#bbc2c6"/>
      <path id="Trazado_109630" data-name="Trazado 109630" d="M999.786,836.085,895.613,775.943l1.5-.865,104.172,60.146Z" transform="translate(-858.209 -671.637)" fill="#bbc2c6"/>
      <path id="Trazado_109631" data-name="Trazado 109631" d="M979.035,848.061,874.861,787.914l1.5-.861L980.532,847.2Z" transform="translate(-842.393 -680.764)" fill="#bbc2c6"/>
      <g id="Grupo_86067" data-name="Grupo 86067" transform="translate(72.292 19.006)">
        <path id="Trazado_109632" data-name="Trazado 109632" d="M1146.012,444.887,1042.3,504.769l103.716,59.886,103.721-59.886Zm93.263,65.819L1229,504.773l10.281-5.937,10.283,5.933Zm-82.815-11.919,10.273-5.929,10.279,5.929-10.279,5.938Zm10.188,5.985-10.272,5.934-10.28-5.934,10.28-5.932Zm-10.272-6.034-10.28-5.933,10.28-5.933,10.272,5.933Zm-.09.049-10.277,5.938-10.275-5.938,10.275-5.929Zm-20.64-.049-10.276-5.933,10.276-5.933,10.279,5.933Zm-.085.049-10.279,5.938-10.275-5.938,10.275-5.929Zm.085.053,10.279,5.932-10.279,5.934-10.276-5.934Zm-.085,11.914-10.279,5.934-10.275-5.934,10.275-5.932Zm.085.048,10.279,5.938-10.279,5.929-10.276-5.929Zm.088-.048,10.275-5.932,10.277,5.932-10.277,5.934Zm20.642.048,10.272,5.938-10.272,5.929-10.28-5.929Zm.085-.048,10.273-5.932,10.279,5.932-10.277,5.934Zm10.36-5.982,10.274-5.932,10.28,5.932-10.28,5.934Zm10.362-5.985,10.278-5.929,10.274,5.929-10.274,5.938Zm-.088-.049-10.274-5.933,10.274-5.933,10.28,5.933Zm-10.361-5.986-10.273-5.929,10.273-5.933,10.279,5.933Zm-10.358-5.977-10.28-5.933,10.28-5.937,10.272,5.937Zm-.09.048-10.277,5.929-10.275-5.929,10.275-5.933Zm-20.64-.048-10.276-5.933,10.276-5.937,10.279,5.937Zm-.085.048-10.279,5.929-10.275-5.929,10.275-5.933Zm-10.362,5.982-10.277,5.933-10.275-5.933,10.275-5.933Zm-10.362,5.982-10.276,5.938-10.28-5.938,10.28-5.929Zm.085.053,10.277,5.932-10.277,5.934-10.275-5.934Zm-.085,11.914-10.276,5.934-10.28-5.934,10.28-5.932Zm.085.048,10.277,5.938-10.277,5.929-10.275-5.929Zm10.361,5.984,10.279,5.936-10.279,5.934-10.275-5.934Zm10.364,5.985,10.279,5.932-10.279,5.937L1125.37,528.7Zm.088-.049,10.275-5.936,10.277,5.936-10.277,5.934Zm20.642.049,10.272,5.932-10.272,5.937L1146.1,528.7Zm.085-.049,10.276-5.936,10.277,5.936-10.277,5.934Zm10.36-5.981L1177.1,510.8l10.28,5.938-10.28,5.929Zm10.362-5.987,10.278-5.932,10.274,5.932-10.274,5.934Zm10.363-5.982,10.279-5.932,10.276,5.932-10.276,5.934Zm10.362-5.985,10.277-5.929,10.279,5.929-10.279,5.938Zm-.083-.049-10.279-5.933,10.279-5.933,10.276,5.933Zm-10.364-5.986-10.278-5.929,10.278-5.933,10.274,5.933Zm-10.366-5.977-10.274-5.933,10.274-5.937,10.28,5.937Zm-10.361-5.986-10.273-5.933,10.273-5.933,10.279,5.933Zm-10.358-5.986-10.28-5.929,10.28-5.934,10.272,5.934Zm-.09.053-10.277,5.933-10.275-5.933,10.275-5.933Zm-20.64-.053-10.276-5.929,10.276-5.934,10.279,5.934Zm-.085.053-10.279,5.933-10.275-5.933,10.275-5.933Zm-10.362,5.986-10.277,5.933-10.275-5.933,10.275-5.937Zm-10.362,5.981-10.276,5.929-10.28-5.929,10.28-5.933Zm-10.365,5.982-10.274,5.933-10.28-5.933,10.28-5.933Zm-10.364,5.982-10.278,5.938-10.275-5.938,10.275-5.929Zm.089.053,10.274,5.932-10.274,5.934-10.278-5.934Zm-.089,11.914-10.278,5.934-10.275-5.934,10.275-5.932Zm.089.048,10.274,5.938L1094.2,522.67l-10.278-5.929Zm10.363,5.984,10.276,5.936-10.276,5.934-10.28-5.934Zm10.361,5.985L1125.2,528.7l-10.277,5.937-10.275-5.937Zm10.361,5.981,10.279,5.933-10.279,5.937-10.275-5.937Zm10.364,5.982,10.279,5.937-10.279,5.932-10.276-5.932Zm.088-.049,10.275-5.933,10.277,5.933-10.277,5.937Zm20.642.049,10.272,5.937-10.272,5.932-10.28-5.932Zm.085-.049,10.276-5.933,10.277,5.933-10.277,5.937Zm10.36-5.982,10.274-5.932,10.28,5.932-10.28,5.937Zm10.362-5.981,10.278-5.936,10.274,5.936-10.274,5.934Zm10.363-5.981,10.279-5.938,10.276,5.938-10.276,5.929Zm10.362-5.987,10.277-5.932,10.279,5.932-10.279,5.934Zm10.367-5.982,10.275-5.932,10.279,5.932-10.279,5.934Zm10.359-5.985,10.282-5.937,10.277,5.933-10.283,5.941Zm-.084-.049-10.275-5.933,10.28-5.936,10.278,5.932Zm-10.364-5.986-10.277-5.929,10.283-5.94,10.28,5.937Zm-10.36-5.977-10.279-5.933,10.285-5.941,10.277,5.936Zm-10.364-5.986-10.278-5.933,10.285-5.941,10.273,5.936ZM1177.1,474.8l-10.274-5.929,10.283-5.937,10.277,5.933Zm-10.361-5.982-10.273-5.933,10.282-5.937,10.276,5.934Zm-10.358-5.981-10.28-5.934,10.283-5.937,10.277,5.934Zm-.09.048-10.277,5.933-10.275-5.933,10.275-5.932Zm-20.64-.048-10.276-5.934,10.276-5.933,10.279,5.933Zm-.085.048-10.279,5.933-10.275-5.933,10.272-5.932Zm-10.362,5.986-10.277,5.933-10.275-5.933,10.273-5.934Zm-10.362,5.982-10.276,5.933-10.28-5.933,10.275-5.933Zm-10.365,5.986-10.274,5.933-10.282-5.933,10.282-5.937Zm-10.364,5.981-10.278,5.929-10.275-5.929,10.275-5.937Zm-10.359,5.982-10.281,5.933-10.275-5.933,10.275-5.933Zm-10.367,5.982-10.275,5.938-10.28-5.938,10.279-5.929Zm.086.053,10.281,5.932-10.281,5.934-10.275-5.934Zm-.086,11.914-10.275,5.934-10.274-5.934,10.274-5.932Zm.086.048,10.281,5.938-10.278,5.929-10.276-5.929Zm10.362,5.984,10.278,5.936-10.276,5.934-10.275-5.934Zm10.367,5.985,10.274,5.932-10.273,5.934L1083.92,528.7Zm10.363,5.981,10.276,5.933-10.276,5.937-10.275-5.937Zm10.361,5.982,10.277,5.937-10.277,5.928-10.275-5.933Zm10.361,5.985,10.279,5.934-10.275,5.932-10.279-5.932Zm10.364,5.982,10.279,5.937-10.275,5.929-10.279-5.929Zm.088-.048,10.275-5.934,10.277,5.934-10.277,5.932Zm20.642.048,10.279,5.937-10.279,5.932-10.28-5.932Zm.085-.048,10.276-5.934,10.279,5.937-10.277,5.933Zm10.36-5.982,10.274-5.937,10.283,5.937L1177.1,546.6Zm10.362-5.986,10.278-5.933,10.276,5.937-10.274,5.933Zm10.363-5.982,10.279-5.932,10.276,5.937-10.272,5.932Zm10.362-5.981,10.277-5.936,10.282,5.936-10.279,5.937Zm10.367-5.981,10.275-5.938,10.279,5.938-10.275,5.932Zm10.359-5.987,10.276-5.932,10.28,5.936-10.274,5.93Zm-62.342-59.836-10.283,5.941-10.276-5.937,10.28-5.934Zm-103.548,47.923,10.277,5.932-10.275,5.934-10.277-5.937Zm82.99,59.78,10.275-5.937,10.28,5.937-10.276,5.934Z" transform="translate(-1042.296 -438.987)" fill="#889aa5"/>
        <path id="Trazado_109633" data-name="Trazado 109633" d="M1042.656,666.952l16.148-9.269,14.445,3.577h20.729l5.177,8.972,15.546,2.991h20.726l3.944,9.687,10.1,6.132,17.541,1.844,31.091-5.981,41.449-11.968-93.269,53.848Z" transform="translate(-1042.571 -601.17)" fill="#438be3" opacity="0.2" style="mix-blend-mode: multiply;isolation: isolate"/>
        <g id="Grupo_86052" data-name="Grupo 86052" transform="translate(15.769 56.098)">
          <path id="Trazado_109634" data-name="Trazado 109634" d="M1108.6,656.456l.39-.517,14.619,3.71h20.98l5.213,9.035,15.236,2.934h21.034l4,9.829,9.9,6.011,17.262,1.812,30.936-5.952,41.423-11.96.435.5-41.519,11.983-31.208,6.007-17.815-1.873-10.3-6.255-3.888-9.541h-20.42l-15.848-3.052-5.151-8.916H1123.4Z" transform="translate(-1108.597 -655.94)" fill="#2a71c9"/>
        </g>
        <g id="Grupo_86053" data-name="Grupo 86053" transform="translate(194.127 70.113)">
          <path id="Trazado_109635" data-name="Trazado 109635" d="M1864.576,718.389a1.023,1.023,0,0,0,0-1.937,3.7,3.7,0,0,0-3.358,0,1.022,1.022,0,0,0,0,1.937A3.708,3.708,0,0,0,1864.576,718.389Z" transform="translate(-1860.037 -715.767)" fill="#eef5f9"/>
          <path id="Trazado_109636" data-name="Trazado 109636" d="M1859.323,717.686a1.232,1.232,0,0,1,0-2.336,4.458,4.458,0,0,1,4.043,0,1.233,1.233,0,0,1,0,2.336A4.479,4.479,0,0,1,1859.323,717.686Zm3.353-1.937a2.948,2.948,0,0,0-2.67,0,.815.815,0,0,0,0,1.543,2.966,2.966,0,0,0,2.67,0A.815.815,0,0,0,1862.677,715.748Z" transform="translate(-1858.484 -714.865)" fill="#2a71c9"/>
        </g>
        <g id="Grupo_86054" data-name="Grupo 86054" transform="translate(152.676 82.084)">
          <path id="Trazado_109637" data-name="Trazado 109637" d="M1690.3,768.709a1.021,1.021,0,0,0,0-1.935,3.729,3.729,0,0,0-3.359,0,1.02,1.02,0,0,0,0,1.935A3.689,3.689,0,0,0,1690.3,768.709Z" transform="translate(-1685.759 -766.094)" fill="#eef5f9"/>
          <path id="Trazado_109638" data-name="Trazado 109638" d="M1685.047,768.011a1.233,1.233,0,0,1,0-2.337,4.481,4.481,0,0,1,4.041,0,1.234,1.234,0,0,1,0,2.337A4.483,4.483,0,0,1,1685.047,768.011Zm3.357-1.938a2.949,2.949,0,0,0-2.672,0,.812.812,0,0,0,0,1.54,2.947,2.947,0,0,0,2.672,0A.813.813,0,0,0,1688.4,766.073Z" transform="translate(-1684.208 -765.193)" fill="#2a71c9"/>
        </g>
        <g id="Grupo_86055" data-name="Grupo 86055" transform="translate(121.587 88.065)">
          <path id="Trazado_109639" data-name="Trazado 109639" d="M1559.583,793.865a1.023,1.023,0,0,0,0-1.938,3.7,3.7,0,0,0-3.359,0,1.023,1.023,0,0,0,0,1.938A3.736,3.736,0,0,0,1559.583,793.865Z" transform="translate(-1555.046 -791.242)" fill="#eef5f9"/>
          <path id="Trazado_109640" data-name="Trazado 109640" d="M1554.331,793.161a1.235,1.235,0,0,1,0-2.337,4.49,4.49,0,0,1,4.044,0,1.234,1.234,0,0,1,0,2.337A4.465,4.465,0,0,1,1554.331,793.161Zm3.358-1.938a2.948,2.948,0,0,0-2.672,0,.813.813,0,0,0,0,1.54,2.951,2.951,0,0,0,2.672,0A.813.813,0,0,0,1557.689,791.222Z" transform="translate(-1553.496 -790.342)" fill="#2a71c9"/>
        </g>
        <g id="Grupo_86056" data-name="Grupo 86056" transform="translate(104.071 86.213)">
          <path id="Trazado_109641" data-name="Trazado 109641" d="M1485.939,786.073a1.023,1.023,0,0,0,0-1.939,3.729,3.729,0,0,0-3.356,0,1.023,1.023,0,0,0,0,1.939A3.7,3.7,0,0,0,1485.939,786.073Z" transform="translate(-1481.402 -783.454)" fill="#eef5f9"/>
          <path id="Trazado_109642" data-name="Trazado 109642" d="M1480.688,785.371a1.234,1.234,0,0,1,0-2.337,4.489,4.489,0,0,1,4.043,0,1.234,1.234,0,0,1,0,2.337A4.453,4.453,0,0,1,1480.688,785.371Zm3.354-1.938a2.977,2.977,0,0,0-2.672,0,.816.816,0,0,0,0,1.544,2.973,2.973,0,0,0,2.67,0A.815.815,0,0,0,1484.042,783.433Z" transform="translate(-1479.85 -782.553)" fill="#2a71c9"/>
        </g>
        <g id="Grupo_86057" data-name="Grupo 86057" transform="translate(94.001 80.061)">
          <path id="Trazado_109643" data-name="Trazado 109643" d="M1443.6,760.208a1.019,1.019,0,0,0,0-1.935,3.7,3.7,0,0,0-3.353,0,1.02,1.02,0,0,0,0,1.935A3.7,3.7,0,0,0,1443.6,760.208Z" transform="translate(-1439.063 -757.59)" fill="#eef5f9"/>
          <path id="Trazado_109644" data-name="Trazado 109644" d="M1438.347,759.506a1.232,1.232,0,0,1,0-2.332,4.463,4.463,0,0,1,4.045,0,1.232,1.232,0,0,1,0,2.332A4.461,4.461,0,0,1,1438.347,759.506Zm3.357-1.943a2.972,2.972,0,0,0-2.67,0,.818.818,0,0,0,0,1.549,2.97,2.97,0,0,0,2.673,0A.818.818,0,0,0,1441.7,757.563Z" transform="translate(-1437.513 -756.689)" fill="#2a71c9"/>
        </g>
        <g id="Grupo_86058" data-name="Grupo 86058" transform="translate(89.962 70.474)">
          <path id="Trazado_109645" data-name="Trazado 109645" d="M1426.62,719.874a1.023,1.023,0,0,0,0-1.938,3.706,3.706,0,0,0-3.359,0,1.022,1.022,0,0,0,0,1.938A3.7,3.7,0,0,0,1426.62,719.874Z" transform="translate(-1422.081 -717.26)" fill="#eef5f9"/>
          <path id="Trazado_109646" data-name="Trazado 109646" d="M1421.368,719.2a1.232,1.232,0,0,1,0-2.333,4.493,4.493,0,0,1,4.046,0,1.233,1.233,0,0,1,0,2.333A4.492,4.492,0,0,1,1421.368,719.2Zm3.357-1.935a2.951,2.951,0,0,0-2.67,0,.813.813,0,0,0,0,1.541,2.947,2.947,0,0,0,2.673,0A.813.813,0,0,0,1424.725,717.26Z" transform="translate(-1420.531 -716.381)" fill="#2a71c9"/>
        </g>
        <g id="Grupo_86059" data-name="Grupo 86059" transform="translate(69.334 70.368)">
          <path id="Trazado_109647" data-name="Trazado 109647" d="M1339.893,719.457a1.023,1.023,0,0,0,0-1.938,3.733,3.733,0,0,0-3.36,0,1.023,1.023,0,0,0,0,1.938A3.708,3.708,0,0,0,1339.893,719.457Z" transform="translate(-1335.354 -716.838)" fill="#eef5f9"/>
          <path id="Trazado_109648" data-name="Trazado 109648" d="M1334.639,718.754a1.233,1.233,0,0,1,0-2.336,4.487,4.487,0,0,1,4.044,0,1.234,1.234,0,0,1,0,2.336A4.484,4.484,0,0,1,1334.639,718.754Zm3.357-1.937a2.968,2.968,0,0,0-2.671,0,.815.815,0,0,0,0,1.543,2.969,2.969,0,0,0,2.671,0A.814.814,0,0,0,1338,716.817Z" transform="translate(-1333.802 -715.937)" fill="#2a71c9"/>
        </g>
        <g id="Grupo_86060" data-name="Grupo 86060" transform="translate(53.81 67.361)">
          <path id="Trazado_109649" data-name="Trazado 109649" d="M1274.632,706.819a1.026,1.026,0,0,0,0-1.942,3.708,3.708,0,0,0-3.355,0,1.022,1.022,0,0,0,0,1.938A3.723,3.723,0,0,0,1274.632,706.819Z" transform="translate(-1270.093 -704.196)" fill="#eef5f9"/>
          <path id="Trazado_109650" data-name="Trazado 109650" d="M1269.372,706.116a1.237,1.237,0,0,1,0-2.342,4.5,4.5,0,0,1,4.048,0,1.238,1.238,0,0,1,0,2.342A4.494,4.494,0,0,1,1269.372,706.116Zm3.361-1.943a2.975,2.975,0,0,0-2.674,0,.816.816,0,0,0,0,1.545,2.981,2.981,0,0,0,2.674,0A.817.817,0,0,0,1272.733,704.173Z" transform="translate(-1268.533 -703.293)" fill="#2a71c9"/>
        </g>
        <g id="Grupo_86061" data-name="Grupo 86061" transform="translate(48.442 58.497)">
          <path id="Trazado_109651" data-name="Trazado 109651" d="M1252.055,669.541a1.024,1.024,0,0,0,0-1.938,3.706,3.706,0,0,0-3.361,0,1.023,1.023,0,0,0,0,1.938A3.711,3.711,0,0,0,1252.055,669.541Z" transform="translate(-1247.515 -666.921)" fill="#eef5f9"/>
          <path id="Trazado_109652" data-name="Trazado 109652" d="M1246.8,668.847a1.233,1.233,0,0,1,0-2.337,4.475,4.475,0,0,1,4.041,0,1.233,1.233,0,0,1,0,2.337A4.485,4.485,0,0,1,1246.8,668.847Zm3.357-1.939a2.954,2.954,0,0,0-2.675,0,.813.813,0,0,0,0,1.541,2.957,2.957,0,0,0,2.675,0A.812.812,0,0,0,1250.16,666.908Z" transform="translate(-1245.965 -666.028)" fill="#2a71c9"/>
        </g>
        <g id="Grupo_86062" data-name="Grupo 86062" transform="translate(27.981 58.346)">
          <path id="Trazado_109653" data-name="Trazado 109653" d="M1166.025,668.9a1.021,1.021,0,0,0,0-1.934,3.693,3.693,0,0,0-3.357,0,1.02,1.02,0,0,0,0,1.934A3.7,3.7,0,0,0,1166.025,668.9Z" transform="translate(-1161.488 -666.285)" fill="#eef5f9"/>
          <path id="Trazado_109654" data-name="Trazado 109654" d="M1160.778,668.211a1.234,1.234,0,0,1,0-2.336,4.471,4.471,0,0,1,4.043,0,1.234,1.234,0,0,1,0,2.336A4.506,4.506,0,0,1,1160.778,668.211Zm3.358-1.942a2.949,2.949,0,0,0-2.672,0,.816.816,0,0,0,0,1.545,2.98,2.98,0,0,0,2.672,0A.816.816,0,0,0,1164.135,666.269Z" transform="translate(-1159.941 -665.392)" fill="#2a71c9"/>
        </g>
        <g id="Grupo_86063" data-name="Grupo 86063" transform="translate(13.107 54.707)">
          <path id="Trazado_109655" data-name="Trazado 109655" d="M1103.495,653.6a1.025,1.025,0,0,0,0-1.942,3.706,3.706,0,0,0-3.359,0,1.028,1.028,0,0,0,0,1.942A3.734,3.734,0,0,0,1103.495,653.6Z" transform="translate(-1098.959 -650.981)" fill="#eef5f9"/>
          <path id="Trazado_109656" data-name="Trazado 109656" d="M1098.24,652.907a1.235,1.235,0,0,1,0-2.336,4.485,4.485,0,0,1,4.044,0,1.234,1.234,0,0,1,0,2.336A4.48,4.48,0,0,1,1098.24,652.907Zm3.355-1.937a2.966,2.966,0,0,0-2.67,0,.812.812,0,0,0,0,1.54,2.947,2.947,0,0,0,2.67,0A.812.812,0,0,0,1101.595,650.969Z" transform="translate(-1097.405 -650.089)" fill="#2a71c9"/>
        </g>
        <g id="Grupo_86064" data-name="Grupo 86064" transform="translate(96.238 61.489)">
          <path id="Trazado_109657" data-name="Trazado 109657" d="M1463.811,684.094l-8.5-4.91a5.35,5.35,0,0,0-4.84,0l-2.381,1.374c-1.327.768-1.327,2.024,0,2.792l2.656,1.537-3.829,2.21,6.7-.557,2.98,1.724a5.394,5.394,0,0,0,4.836,0l2.381-1.378C1465.145,686.117,1465.145,684.862,1463.811,684.094Z" transform="translate(-1446.917 -678.606)" fill="#f050a6"/>
          <path id="Trazado_109658" data-name="Trazado 109658" d="M1479.364,690.406l-8.06-4.653.559-.32,8.055,4.648Z" transform="translate(-1465.504 -683.809)" fill="#eef5f9"/>
          <path id="Trazado_109659" data-name="Trazado 109659" d="M1474.338,693.309l-8.06-4.657.556-.317,8.057,4.653Z" transform="translate(-1461.673 -686.021)" fill="#eef5f9"/>
          <path id="Trazado_109660" data-name="Trazado 109660" d="M1466.014,694.318l-4.779-2.758.559-.322,4.775,2.755Z" transform="translate(-1457.829 -688.233)" fill="#eef5f9"/>
        </g>
        <g id="Grupo_86065" data-name="Grupo 86065" transform="translate(83.991 88.938)">
          <path id="Trazado_109661" data-name="Trazado 109661" d="M1396.427,798.757l8.506,4.909a5.381,5.381,0,0,0,4.833,0l2.384-1.378c1.328-.764,1.328-2.024,0-2.791l-2.656-1.533,3.83-2.211-6.7.553-2.977-1.719a5.362,5.362,0,0,0-4.835,0l-2.384,1.377C1395.1,796.729,1395.1,797.989,1396.427,798.757Z" transform="translate(-1395.429 -794.011)" fill="#2a71c9"/>
          <path id="Trazado_109662" data-name="Trazado 109662" d="M1424.212,806.072l-8.056-4.653.556-.321,8.056,4.657Z" transform="translate(-1411.227 -799.412)" fill="#eef5f9"/>
          <path id="Trazado_109663" data-name="Trazado 109663" d="M1419.167,808.981l-8.06-4.653.559-.324,8.056,4.653Z" transform="translate(-1407.378 -801.627)" fill="#eef5f9"/>
          <path id="Trazado_109664" data-name="Trazado 109664" d="M1410.857,810l-4.774-2.759.557-.318,4.775,2.761Z" transform="translate(-1403.549 -803.85)" fill="#eef5f9"/>
        </g>
        <g id="Grupo_86066" data-name="Grupo 86066" transform="translate(54.955 49.427)">
          <path id="Trazado_109665" data-name="Trazado 109665" d="M1290.245,633.378l-8.5-4.909a5.354,5.354,0,0,0-4.832,0l-2.387,1.373c-1.329.768-1.329,2.024,0,2.792l2.654,1.532-3.827,2.214,6.7-.552,2.977,1.714a5.375,5.375,0,0,0,4.842,0l2.379-1.373C1291.577,635.4,1291.577,634.146,1290.245,633.378Z" transform="translate(-1273.349 -627.893)" fill="#ff942c"/>
          <path id="Trazado_109666" data-name="Trazado 109666" d="M1305.8,639.677l-8.058-4.653.559-.322,8.054,4.65Z" transform="translate(-1291.94 -633.083)" fill="#eef5f9"/>
          <path id="Trazado_109667" data-name="Trazado 109667" d="M1300.774,642.578l-8.058-4.653.553-.317,8.06,4.653Z" transform="translate(-1288.109 -635.297)" fill="#eef5f9"/>
          <path id="Trazado_109668" data-name="Trazado 109668" d="M1292.45,643.576l-4.778-2.754.557-.326,4.775,2.758Z" transform="translate(-1284.266 -637.499)" fill="#eef5f9"/>
        </g>
        <path id="Trazado_109669" data-name="Trazado 109669" d="M1686.382,498.494l-58.728-33.907-1.5.866,58.726,33.91Z" transform="translate(-1487.283 -454.001)" fill="#438be3" opacity="0.5" style="mix-blend-mode: multiply;isolation: isolate"/>
        <path id="Trazado_109670" data-name="Trazado 109670" d="M1618.854,480.04,1515,420.081l-1.505.865L1617.35,480.91Z" transform="translate(-1401.419 -420.081)" fill="#438be3" opacity="0.5" style="mix-blend-mode: multiply;isolation: isolate"/>
      </g>
    </g>
    <path id="Trazado_109671" data-name="Trazado 109671" d="M1905.155,1416.39s.5,3.542.961,5.541a73.484,73.484,0,0,1,1,9.376,6.162,6.162,0,0,1-3.791,2.165c-2.417.337-5.918-.33-7.293-4.124l-.292-2.5s-1.664-2.5-3.288-2.5-3.922-2.125-4.874-3.541-.88-3.583-.713-5.333,1.665-2.833,3.75-2.917a31.727,31.727,0,0,1,5.708.668Z" transform="translate(-1301.051 -983.735)" fill="#414e5f"/>
    <path id="Trazado_109672" data-name="Trazado 109672" d="M1893.727,1445c1.833.709,3.168,3.749,3.7,5.084s2.885,2.625,6.052,2.375a6.521,6.521,0,0,0,4.02-2.018c.056.767.094,1.434.1,1.892a6.163,6.163,0,0,1-3.791,2.165c-2.417.337-5.918-.331-7.293-4.124l-.292-2.5s-1.664-2.5-3.288-2.5-3.922-2.125-4.874-3.541a4.647,4.647,0,0,1-.664-1.694A12.288,12.288,0,0,0,1893.727,1445Z" transform="translate(-1301.539 -1004.764)" fill="#29333f"/>
    <path id="Trazado_109673" data-name="Trazado 109673" d="M1703.941,1500.515c.039.791-.921,4.084-1.921,4.206s-7.746.378-10.371.255-6.876,1.081-6.793,5.958a9.775,9.775,0,0,0,5.167,5.958c4.121,1.875,9.333,1.211,10.915,1.292a12.126,12.126,0,0,1,3.006.583l-.3,1.832s2.29.794,4.705,1.378,6.584.791,8.462-1.293a35.306,35.306,0,0,0,.538-5.709,27.681,27.681,0,0,0-1.538-6.249,35.663,35.663,0,0,1-1.045-6.123Z" transform="translate(-1147.17 -1050.779)" fill="#414e5f"/>
    <path id="Trazado_109674" data-name="Trazado 109674" d="M1690.024,1548.647a9.775,9.775,0,0,1-5.168-5.958c0-.172,0-.344.007-.508,1.014,1.785,2.654,4.238,4.45,5.174,2.959,1.543,8.749,1.46,11.293,1.543a23.6,23.6,0,0,1,7.375,2c1.337.58,5.84,1.654,9.237-1.41-.163,1.522-.4,2.952-.4,2.952-1.878,2.084-6.043,1.876-8.462,1.293s-4.705-1.378-4.705-1.378l.3-1.832a12.124,12.124,0,0,0-3.006-.583C1699.357,1549.858,1694.145,1550.522,1690.024,1548.647Z" transform="translate(-1147.17 -1082.535)" fill="#29333f"/>
    <path id="Trazado_109675" data-name="Trazado 109675" d="M1850.969,1022.733l2.361-8.383,10.679-5.74s1.849,7.635,2.418,10.306,2.48,13.613,1.019,18.769c0,0,1.7,22.218,2.466,26.164s1.861,9.338,2.878,11.25,1.971,7.247,2.164,13.487,1.257,28.632,1.257,28.632-1.741,4.5-6.983,2.608-6.616-11.708-6.487-13.995-1.437-13.971-2.769-18.933-2.69-10.493-3.963-13.9c-.767-2.051-7.693-20.168-9.478-28.949S1850.969,1022.733,1850.969,1022.733Z" transform="translate(-1270.149 -675.872)" fill="#29425b"/>
    <path id="Trazado_109676" data-name="Trazado 109676" d="M1868.014,1044.777c-.333-4.039-.567-7.092-.567-7.092,1.461-5.156-.443-16.1-1.019-18.769s-2.418-10.306-2.418-10.306l-10.679,5.74-2.361,8.383s-6.212,12.533-4.438,21.316,8.71,26.9,9.478,28.949c1.273,3.406,2.622,8.935,3.963,13.9s2.9,16.641,2.769,18.933c-.113,2,.926,9.755,4.69,12.937-.358-12.011-3.529-30.868-4.951-34.693-1.829-4.924-.8-4.629.4-6.389s-1-2.654-2.747-6.658-2.866-9.244-4.068-13.7C1855.05,1053.574,1864.864,1046.83,1868.014,1044.777Z" transform="translate(-1270.149 -675.872)" fill="#102942"/>
    <path id="Trazado_109677" data-name="Trazado 109677" d="M1774.714,1032.742s3.9,10.345,3.063,17.775c-1.123,10.007-9.449,16.463-9.449,16.463s-2.527,18.617-4.207,26.1-.66,14.5,0,18.337.694,12.8-.918,22.161-.861,24.7-.861,24.7-10.2,1.866-14.591-1.4a11.986,11.986,0,0,1-4.583-8.5s3.366-14.145,2.99-22-1.123-25.533-1.964-31.527-2.057-20.485,0-30.961a93.967,93.967,0,0,1,5.148-17.584l1.4-12.722s6.081,2.806,11.6,2.618S1774.714,1032.742,1774.714,1032.742Z" transform="translate(-1191.532 -694.264)" fill="#29425b"/>
    <path id="Trazado_109678" data-name="Trazado 109678" d="M1777.776,1050.517c.833-7.429-3.063-17.775-3.063-17.775s-6.854,3.275-12.369,3.464-11.6-2.618-11.6-2.618l-1.4,12.722a93.967,93.967,0,0,0-5.148,17.584c-2.057,10.476-.842,24.977,0,30.961s1.592,23.669,1.964,31.527-2.99,22-2.99,22a12.1,12.1,0,0,0,4.028,8.042c1.3-13.875,2.855-29.284,2.855-38.161,0-10.054-1.962-36.23-1.681-41.583s3.158-8,6.739-7.839c2.758.123,9.846.057,12.96.019.165-1.178.26-1.88.26-1.88S1776.653,1060.524,1777.776,1050.517Z" transform="translate(-1191.532 -694.264)" fill="#102942"/>
    <path id="Trazado_109679" data-name="Trazado 109679" d="M1794.729,673.354a18.5,18.5,0,0,0-1.319,2.6c.04.851,1.823,1.473,1.823,1.473a9.09,9.09,0,0,0,.154,2.481c.272,1.164,1.2,2.327,1.24,3.257a3.349,3.349,0,0,0,2.093,3.377c1.863.616,4.5.307,4.926.888s.542,8.064-.582,10.973,19.154-.661,19.036-1.009-2.524-10.657-2.6-12.365a50.758,50.758,0,0,1,1.166-10.046c.7-2.559,1.823-10.2-4.458-14.888s-14.966-2.521-17.332-.776a10.331,10.331,0,0,0-4.769,7.677C1793.412,671.26,1794.729,673.354,1794.729,673.354Z" transform="translate(-1229.906 -408.093)" fill="#ffcda8"/>
    <path id="Trazado_109680" data-name="Trazado 109680" d="M1817.748,736.767c1.687-.8,3.975-2.219,4.526-4.256a1.163,1.163,0,0,0,1.353-.394,4.423,4.423,0,0,0,1.183-3.625,3.591,3.591,0,0,0-2.142-2.4c-.45,0-.168-3.1-.168-3.1l4.365,2.125s2.734,14.382,5.663,20.579a3.486,3.486,0,0,1-.042,3.3c-5.445.727-11.5,1.126-10.871-.5,1.123-2.909,1.009-10.392.582-10.973C1821.806,736.99,1819.553,737.2,1817.748,736.767Z" transform="translate(-1248.455 -458.185)" fill="#d9a782"/>
    <path id="Trazado_109681" data-name="Trazado 109681" d="M1934.84,776.677l-8.121,38.214s7.452,3.157,10.85,1.707,4.42-9.725,4.335-16.124S1944.24,776.677,1934.84,776.677Z" transform="translate(-1331.507 -499.103)" fill="#364f68"/>
    <path id="Trazado_109682" data-name="Trazado 109682" d="M1936.16,839.455c.531-4.35,6.193-22.126,3.193-25.926-1.27-1.61-4.22.5-7.2,3.458l-5.434,25.566s7.452,3.157,10.85,1.707c.051-.021.1-.05.148-.074A5.31,5.31,0,0,1,1936.16,839.455Z" transform="translate(-1331.507 -526.765)" fill="#1d364f"/>
    <path id="Trazado_109683" data-name="Trazado 109683" d="M1774.542,849.858c4.986,1.452,13.4,2.9,19.048.508s16.871-7.462,17.023-9.707-1.953-14.185-.749-18.1,10.693-22.153,11.822-31.031a18.753,18.753,0,0,0-4.669-15.279c-.753-.6-10.211,1.021-10.211,1.021l-21.984,9.673a20.113,20.113,0,0,0-5.669,3.448,19.672,19.672,0,0,0-5.493,7.713c-1.749,5.481,2.246,26.928,1.795,31.523S1768.821,848.192,1774.542,849.858Z" transform="translate(-1213.685 -498.674)" fill="#dbe8f5"/>
    <path id="Trazado_109684" data-name="Trazado 109684" d="M1843.58,770.353a23.523,23.523,0,0,0-7.47,2.111c-3.221,1.584-9.989,5.376-9.989,5.376l-2.667,5.233s11.23-2.253,19.19-6.606c5.18-2.838,3.281-3.589,3.281-3.589Z" transform="translate(-1252.804 -494.283)" fill="#e8f5ff"/>
    <path id="Trazado_109685" data-name="Trazado 109685" d="M1803.529,670.435c-.426-.092-1-1.242-1.157-2.095a7.706,7.706,0,0,0-.892-2.715c-.5-.775-1.4-1.356-1.357-2.365s.272-2.054-.31-2.869-2.559-1.395-2.365-3.45,2.753-7.6,12.718-7.367,12.6,6.126,13.686,9.265a18.082,18.082,0,0,1,.466,8.957c-.466,2.017-1.472,6.832-1.472,6.832a13.48,13.48,0,0,1-6.05,2.513c-3.722.582-4.381-.776-5.35-3.141s-1.824-4.381-4.382-4.458S1804.26,670.59,1803.529,670.435Z" transform="translate(-1232.972 -402.226)" fill="#563317"/>
    <path id="Trazado_109686" data-name="Trazado 109686" d="M1824.708,718.99a16.337,16.337,0,0,0,10.816-1.617c-.487,2.141-1.412,6.568-1.412,6.568a13.48,13.48,0,0,1-6.05,2.513c-3.722.582-4.381-.776-5.35-3.141s-1.824-4.381-4.382-4.458-2.8,1.048-3.534.893c-.426-.092-1-1.242-1.157-2.095a7.71,7.71,0,0,0-.892-2.715,6.3,6.3,0,0,0-.529-.67C1814.99,715.579,1820.891,718.235,1824.708,718.99Z" transform="translate(-1244.24 -451.538)" fill="#634024"/>
    <path id="Trazado_109687" data-name="Trazado 109687" d="M1658.446,852.99s-.771-6.878-1.895-5.654-16.46,20.837-19.311,24.179-5.769,6.732-9.971,6.341-21.784-4.78-22.924-5.081a4.146,4.146,0,0,1-1.938-1.328l-2.081-.691s-2.707-4.1,1.972-7.208l2.376.176,2.952-.3c1.375-.139,12.4-.15,14.088.028a14.715,14.715,0,0,0,3.521-.151s8.4-12.23,9.284-14.471,4.4-15.56,14.924-20.451,10.313,11.435,10.846,13.948S1658.446,852.99,1658.446,852.99Z" transform="translate(-1082.151 -537.815)" fill="#dbe8f5"/>
    <path id="Trazado_109688" data-name="Trazado 109688" d="M1600.041,993.079l3.407.676a9.5,9.5,0,0,1,.771-3.593l-.169,1.775s5.572.537,5.424.595-5.366-.033-5.366-.033.047,2.115.877,2.651,18.586,3.851,23.023,4.279c1.855.179,3.861.252,5.574.3a7.978,7.978,0,0,1-5.936,2.122c-4.2-.391-21.784-4.78-22.924-5.081a4.145,4.145,0,0,1-1.938-1.328l-2.081-.691A5.415,5.415,0,0,1,1600.041,993.079Z" transform="translate(-1082.529 -661.811)" fill="#c2cfdc"/>
    <path id="Trazado_109689" data-name="Trazado 109689" d="M1753.353,842.343c1.047-6.309,2.917-14.088,2.578-21.887s-.562-22.738,1.046-25.718c.723-1.332-1.6-.288.217-2.252,2.255-2.436,9.854-7.123,9.854-7.123l22.122-7.3.693-2.225s10.635-1.763,12.516.116c2.935,2.934,2.158,12.012,1.257,17.595s-5.764,18.946-7.767,23.132-3.79,16.909-2.65,21.489c1.349,5.406,4.961,20.875,4.961,20.875s-2.553,5.111-10.488,8.883l-2.861-19.352,1.36,20.017a38.676,38.676,0,0,1-6.462,2.033l-2.022.3c-5.416,1.357-21.266,1.53-29.477-5.7C1748.23,865.233,1752.322,848.562,1753.353,842.343Z" transform="translate(-1195.471 -497.893)" fill="#364f68"/>
    <path id="Trazado_109690" data-name="Trazado 109690" d="M1764.137,904.243c1.168-5.5-1.285-8.07-1.285-8.07h-7.08c-.189,5.512-.035,12.172.158,16.567.339,7.8-1.531,15.578-2.578,21.887-1.03,6.219-5.123,22.89-5.123,22.89,3.66,3.222,9.326,5.107,14.239,5.854C1760.23,948.585,1763.132,908.979,1764.137,904.243Z" transform="translate(-1195.471 -590.177)" fill="#1d364f"/>
    <path id="Trazado_109691" data-name="Trazado 109691" d="M1827.162,780.187s9.924-4.464,13.3-5.534c3.881-1.231,7.425-2.61,7.425-2.61l2.733,3.378s.467,4-6.257,6.214-18.46,1.313-18.46,1.313Z" transform="translate(-1254.669 -495.571)" fill="#435c75"/>
    <path id="Trazado_109692" data-name="Trazado 109692" d="M1606.487,866.508a6.192,6.192,0,0,0-2.59,4.935c.107,3.118.929,6.493,1.792,6.885s23.862,4.512,27.543,3.605,17.983-17.213,20.3-20.8,4.709-11.141,4.079-17.125-2.976-13.239-6.008-11.751-8.911,6.258-12.168,14.632-11.2,19.509-11.2,19.509Z" transform="translate(-1085.465 -541.312)" fill="#364f68"/>
    <path id="Trazado_109693" data-name="Trazado 109693" d="M1579.17,950.993s1.209-.642-.232-2.282-5.216-2.986-6.584-3.029-1.14,2.208.3,2.971,2.834,1.955,1.608,2.839,1.565,4.221,1.565,4.221Z" transform="translate(-1060.731 -627.911)" fill="#ffcda8"/>
    <path id="Trazado_109694" data-name="Trazado 109694" d="M1080.8,586.907a5.43,5.43,0,0,1,3.206.1c1.228.63,4.346,3.124,3.168,3.747s-2.146-.346-3.723-.762a11.756,11.756,0,0,0-3.48-.655C1079.7,589.5,1080.8,586.907,1080.8,586.907Z" transform="translate(-686.124 -354.309)" fill="#ffcda8"/>
    <path id="Trazado_109695" data-name="Trazado 109695" d="M1233.316,498.882s.112,4.767,1.476,4.832,1.3-1.4,1.592-2.891a25.384,25.384,0,0,1,.965-4.269c.4-.83-3.528-1.42-3.694-.376S1233.316,498.882,1233.316,498.882Z" transform="translate(-803.028 -284.894)" fill="#ffcda8"/>
  </g>
</svg>
