<svg xmlns="http://www.w3.org/2000/svg" xmlns:xlink="http://www.w3.org/1999/xlink" width="312.956" height="251.385" viewBox="0 0 312.956 251.385">
  <defs>
    <linearGradient id="linear-gradient" x1="-142.158" y1="1" x2="-142.158" gradientUnits="objectBoundingBox">
      <stop offset="0" stop-color="#002d49"/>
      <stop offset="1" stop-color="#002737"/>
    </linearGradient>
    <linearGradient id="linear-gradient-2" x1="-144.946" y1="-34.887" x2="-144.946" y2="-35.658" xlink:href="#linear-gradient"/>
  </defs>
  <g id="Grupo_86139" data-name="Grupo 86139" transform="translate(-2343.157 -353.133)">
    <path id="Trazado_109740" data-name="Trazado 109740" d="M2647.462,459.277c12.6,37.49-8.1,144.716-101.154,133.828-26.7-3.124-55.388-31.261-77.941-26.277s-34.179,27.4-75.68,18.469-49.3-47.784-38.907-76.118-13.448-38.278-10.341-62.642c2.843-22.285,34.417-26.133,49.737-43.142s22.851-51.055,55.425-50.248c36.29.9,32.612,46.568,81.572,41.554C2584.278,389.16,2631.577,411.993,2647.462,459.277Z" fill="#eaf0f9"/>
    <g id="Grupo_86134" data-name="Grupo 86134">
      <path id="Trazado_109741" data-name="Trazado 109741" d="M2623.909,535.674c.472.021.942.04,1.4.049.2.005.4,0,.6.006.363,0,.73.01,1.083.008.306,0,.6-.012.9-.02.238-.005.484-.007.716-.016.527-.021,1.039-.049,1.534-.087q-1.608-1.273-3.279-2.535c-.4-.3-.806-.6-1.209-.9-.731-.543-1.462-1.086-2.207-1.623-.449-.323-.905-.64-1.359-.96-.725-.512-1.452-1.023-2.189-1.526-.447-.306-.9-.606-1.35-.908-.769-.514-1.539-1.024-2.317-1.527-.188-.121-.372-.249-.56-.369l.122.09c-11.788-7.564-24.573-13.637-35.976-15.457l.2,0c-.322-.052-.636-.087-.955-.132-.251-.037-.5-.073-.752-.1q-1.2-.153-2.376-.238a.355.355,0,0,0-.139-.174c-1.774-1.028-3.576-1.992-5.26-3.167,3.479-2.171,6.944-4.356,10.366-6.606a21.76,21.76,0,0,0,6.617,2.478c.377.332.759.652,1.149.959.148.116.3.224.448.337q.507.381,1.027.736c.172.118.346.233.52.345.351.227.706.443,1.065.652.16.094.318.19.479.28.515.286,1.035.56,1.565.812l.088.04c.505.238,1.017.459,1.535.668.181.074.366.141.549.211.375.143.752.281,1.134.409.2.07.409.137.616.2.138.044.273.093.412.135l-.084-.038c11.939,3.629,26.548.619,38.348-3.35h0l.037-.013c1.9-.638,3.72-1.3,5.448-1.964l.321-.122q1.174-.455,2.284-.906l.521-.213c.731-.3,1.448-.6,2.131-.889q-.869-.395-1.764-.754c-.267-.108-.541-.206-.811-.309-.337-.128-.671-.26-1.012-.382-.289-.1-.584-.2-.877-.3-.334-.113-.666-.228-1-.335-.283-.089-.571-.171-.857-.255-.357-.107-.713-.215-1.075-.315-.271-.074-.547-.143-.82-.214-.384-.1-.768-.2-1.156-.294-.261-.062-.526-.119-.789-.179-.406-.092-.811-.183-1.22-.267-.259-.054-.52-.1-.78-.152-.417-.081-.834-.161-1.254-.234-.265-.046-.532-.088-.8-.132-.415-.067-.829-.133-1.247-.194-.1-.014-.193-.031-.29-.045l.057.013a86.141,86.141,0,0,0-15.446-.719l.022,0-.083,0c-.557.023-1.112.053-1.667.086l-.387.021c-.575.036-1.148.08-1.72.126l-.319.025c-.595.05-1.186.108-1.775.169-.082.008-.165.015-.246.024q-.922.1-1.832.214l-.166.02c-.628.081-1.25.168-1.869.261l-.1.014q-.951.144-1.885.305l-.06.01a66.259,66.259,0,0,0-16.3,4.808,19.978,19.978,0,0,1-6.021-2.231c4.384-2.9,8.692-5.912,12.86-9.155.6-.263,1.205-.525,1.833-.79.49-.206.992-.414,1.5-.622.57-.235,1.142-.471,1.728-.71,1.648-.672,3.344-1.354,5.1-2.064l-.009,0a221.359,221.359,0,0,0,20.294-9.094,90.359,90.359,0,0,0,17.783-12.33c-.017.02-.039.042-.054.062.166-.147.325-.3.488-.443l.372-.336q.95-.867,1.846-1.735c.106-.1.208-.206.313-.309.578-.568,1.14-1.135,1.68-1.7.043-.046.09-.092.133-.138.551-.58,1.074-1.157,1.582-1.732.111-.125.224-.25.332-.375q.72-.826,1.376-1.64c.106-.131.208-.26.311-.39.435-.549.853-1.093,1.242-1.629.062-.085.117-.167.177-.251q.542-.758,1.018-1.493c.057-.088.118-.176.174-.264.33-.519.629-1.026.908-1.525.062-.111.124-.221.183-.33.268-.494.511-.978.725-1.449.039-.086.073-.17.11-.255.216-.493.411-.976.564-1.439-.51.135-1.057.282-1.621.435l-.227.062q-.735.2-1.528.423l-.384.108c-.587.166-1.189.34-1.817.526-.26.078-.535.163-.8.244-.326.1-.652.2-.988.3-.2.061-.378.114-.576.176l.048-.009c-11.249,3.553-27.523,10.331-41.987,24.643l.108-.125c-.25.246-.5.5-.744.754-.209.21-.418.42-.626.633q-.8.822-1.588,1.676c-.127.138-.256.271-.383.41q-1,1.09-1.979,2.233c-.085.1-.168.2-.253.3q-.835.982-1.658,2c-.174.216-.346.437-.519.656q-.7.882-1.382,1.792c-.184.244-.366.488-.548.734q-.7.943-1.377,1.919c-.155.222-.312.44-.466.664-.344.5-.683,1.012-1.021,1.525-3.076,2.4-6.225,4.675-9.422,6.882a23.651,23.651,0,0,1,3.545-6.462q.583-.445,1.154-.925c.175-.147.348-.295.521-.447.14-.124.285-.238.425-.365-.024.007-.054.029-.079.039,10.831-9.8,18.019-28.869,21.751-41.57a57.164,57.164,0,0,0,1.373-6.208v0c.022-.129.042-.258.064-.387q.13-.774.249-1.547c.031-.206.063-.412.094-.618.037-.251.073-.5.108-.747.031-.22.061-.436.09-.653s.063-.458.093-.683q.079-.6.15-1.18c.024-.187.045-.365.066-.548.031-.25.06-.5.088-.738.02-.179.04-.353.059-.526.031-.27.059-.529.086-.785.013-.114.026-.233.038-.344.037-.352.07-.685.1-1,.012-.117.022-.223.032-.335.023-.228.043-.444.062-.648.008-.085.016-.167.023-.248.023-.245.043-.472.061-.674l.006-.067c.019-.225.035-.412.048-.575l.01-.126c.01-.115.017-.207.023-.277l0-.064.008-.108c-.413.209-.827.452-1.241.71-.13.081-.26.166-.39.252q-.459.3-.919.643c-.121.09-.241.174-.362.267q-.591.456-1.18.969c-.137.12-.274.249-.411.374-.271.246-.541.5-.811.761-.17.165-.339.332-.508.5-.254.258-.506.526-.758.8q-.462.5-.92,1.028c-.156.18-.313.354-.468.54l.018-.016c-9.169,10.9-17.206,30.584-19.381,44.982v-.011c0,.025-.007.049-.01.074-.028.187-.051.368-.077.553-.065.461-.125.918-.177,1.367-.025.211-.047.42-.069.629q-.07.674-.12,1.325c-.013.162-.028.327-.038.487-.04.594-.068,1.176-.081,1.741,0,.039,0,.076,0,.115-.01.522-.007,1.028.007,1.522,0,.14.011.276.016.413q.025.6.077,1.176c.012.131.022.263.035.392.029.271.065.534.1.794a28.344,28.344,0,0,0-3.587,6.971.34.34,0,0,0-.022.151c-4.249,2.9-8.577,5.687-12.946,8.424-.09-1.68-.274-3.353-.272-5.027q.457-.92.9-1.881c.11-.239.219-.478.328-.722.431-.964.854-1.949,1.261-2.969l.018-.043-.005.008a122.376,122.376,0,0,0,7.642-33.063c.921-7.309.127-16.1-.274-23.372-.078-1.622-.253-3.285-.5-4.935l.01.031c-.088-.6-.188-1.191-.295-1.781-.033-.181-.071-.358-.106-.537q-.145-.758-.31-1.5c-.047-.209-.094-.416-.143-.623q-.189-.8-.4-1.578c-.031-.115-.06-.233-.092-.347q-.258-.927-.546-1.8c-.052-.161-.107-.315-.161-.473q-.223-.658-.461-1.279c-.063-.163-.124-.326-.187-.484-.214-.533-.433-1.05-.66-1.53-.37.837-.757,1.685-1.147,2.537q-.669,1.459-1.349,2.952l-.141.311q-.613,1.354-1.205,2.732c-.024.054-.048.107-.071.161q-.608,1.425-1.164,2.876c-.013.033-.027.065-.039.1l.014-.03a47.051,47.051,0,0,0-2.1,6.895c-1.578,7.328-2.308,13.3-3.39,20.347a100.809,100.809,0,0,0,2.125,33.371c-.033-.1-.067-.188-.1-.291.127.554.278,1.112.415,1.667.128.521.253,1.043.389,1.565.318,1.215.663,2.434,1.026,3.655,0,1.827.223,3.654.3,5.492q-3.039,1.9-6.092,3.789c-.407-1.759-.839-3.509-1.187-5.271.037-.916.064-1.86.082-2.823.008-.41.01-.832.014-1.25.006-.594.009-1.192.006-1.8,0-.47-.008-.944-.015-1.423-.01-.612-.026-1.233-.046-1.859-.015-.468-.028-.932-.048-1.408-.006-.138-.008-.27-.014-.409,0,.02,0,.042,0,.062a95.194,95.194,0,0,0-8.237-35.6l.057.105c-.23-.5-.5-1-.741-1.495-.408-.838-.8-1.677-1.245-2.509-.323-.609-.689-1.21-1.031-1.815-.42-.742-.82-1.486-1.269-2.222-.52-.852-1.094-1.691-1.655-2.534-.322-.482-.615-.971-.95-1.45q-1.386-1.982-2.936-3.92c-.148.286-.284.583-.412.887-.045.109-.084.223-.128.333-.077.2-.155.4-.224.606-.046.137-.087.278-.129.418-.058.188-.115.376-.166.569-.04.153-.077.309-.114.466-.044.187-.087.375-.125.566q-.051.249-.094.5-.051.282-.093.57c-.026.176-.051.353-.073.532s-.044.382-.063.575-.037.374-.052.564-.025.38-.035.571-.024.4-.031.6c-.006.182-.008.367-.011.551,0,.216-.01.431-.01.649,0,.136.005.275.007.412.012.933.061,1.887.142,2.858.01.112.017.223.028.335.027.3.059.6.092.9.013.116.025.233.038.35.036.3.076.611.117.918l.045.338q.068.477.143.957c.015.1.029.189.045.284.055.341.112.682.173,1.024.011.061.022.123.034.185q.1.563.212,1.127l0,.015c.061.309.121.618.186.926,0-.01,0-.018,0-.028a107.6,107.6,0,0,0,4.892,16.129c1.161,2.99,2.573,6.49,4.115,10.037l-.013-.028c.031.073.064.145.1.218q.467,1.07.946,2.14c.02.043.04.086.059.129q.459,1.016.928,2.021c.095.2.191.406.287.609q.372.789.748,1.563c.1.207.2.414.3.619q.429.869.861,1.71c.057.113.115.229.173.341q.525,1.014,1.052,1.975c.064.118.129.228.193.344q.423.762.844,1.48c.1.176.206.347.309.518.254.424.508.832.761,1.228.1.154.2.312.295.461.337.513.673,1.006,1.005,1.46.361,1.84.821,3.665,1.231,5.5l0,.008q-2.38,1.475-4.762,2.957c-1.661,1.034-3.726,2.317-6.077,3.773a.344.344,0,0,0-.01-.125,26.111,26.111,0,0,0-2.2-5.765h0c-.2-.66-.371-1.356-.534-2.068-.027-.118-.056-.234-.082-.354q-.231-1.051-.428-2.163c-1.113-6.205-1.628-13.609-4.3-19.6-2.363-5.145-7.368-12.734-12.4-19.215l.011.012-.087-.111c-.134-.172-.267-.339-.4-.51q-.468-.6-.936-1.18c-.194-.242-.387-.48-.581-.717-.266-.327-.53-.646-.794-.963-.19-.228-.379-.457-.567-.68-.415-.49-.826-.969-1.231-1.429-.139-.158-.273-.3-.41-.458-.3-.333-.592-.66-.881-.974-.164-.177-.324-.347-.484-.518q-.411-.435-.808-.841c-.139-.141-.278-.285-.414-.421-.392-.391-.777-.766-1.145-1.106-.159.473-.293.957-.407,1.45-.049.213-.081.435-.122.652-.053.283-.112.564-.151.853-.035.254-.054.515-.079.774s-.053.52-.067.784-.016.549-.02.825c0,.261-.01.521,0,.786s.023.562.039.844.031.54.055.814.059.567.094.852.07.563.113.846.092.568.144.854.109.588.171.884.121.564.188.848c.032.136.056.271.09.408l-.007-.073c2.153,8.817,7.909,18.611,13.934,26.864l-.012-.014.051.068q.708.971,1.421,1.909c.127.168.254.331.381.5q.543.713,1.085,1.4c.146.186.29.369.436.553q.536.678,1.068,1.334c.125.154.249.309.373.461.464.567.924,1.124,1.379,1.663l.022.027c.468.555.929,1.091,1.384,1.614l.356.406q.489.557.963,1.085c.145.161.287.319.43.476.3.33.592.648.881.959.126.136.254.274.378.406.4.426.792.838,1.168,1.225h0a.336.336,0,0,0,.031.087,24.8,24.8,0,0,1,2.238,5.843.317.317,0,0,0,.186.219c-2.28,1.412-4.832,2.989-7.573,4.679-.015-.01-.013-.026-.03-.035a24.886,24.886,0,0,1-5.933-3.957q-.187-.668-.412-1.363c-.043-.131-.083-.26-.128-.393q-.3-.912-.671-1.864c-.055-.143-.113-.289-.17-.434-.253-.64-.519-1.288-.81-1.949-.018-.043-.036-.084-.055-.127-.3-.678-.624-1.369-.961-2.066-.071-.147-.14-.293-.213-.44q-.512-1.038-1.074-2.1c-.073-.137-.148-.274-.222-.412-.4-.735-.806-1.473-1.237-2.217l-.008-.013c-.437-.753-.9-1.509-1.366-2.266-.082-.131-.162-.262-.244-.393q-.692-1.1-1.426-2.2c-.033-.048-.062-.1-.094-.145l.011.023a87.129,87.129,0,0,0-11.9-14.3l.078.064c-.146-.14-.295-.273-.442-.411-.2-.19-.4-.377-.6-.563-.246-.226-.493-.448-.741-.669-.211-.188-.423-.373-.636-.557q-.367-.319-.737-.63c-.216-.181-.432-.357-.649-.534-.248-.2-.5-.4-.745-.6-.216-.17-.433-.335-.651-.5-.252-.191-.5-.383-.757-.568-.215-.157-.432-.308-.648-.461-.256-.181-.511-.362-.768-.536-.219-.147-.439-.287-.658-.43-.254-.164-.507-.332-.762-.489s-.483-.288-.725-.43-.464-.28-.7-.41c-.473-.265-.947-.518-1.42-.755.157.507.327,1.035.5,1.573.056.171.114.345.172.519q.2.586.405,1.2c.066.192.131.382.2.577.2.557.4,1.122.61,1.7.054.145.111.3.166.443.169.452.341.909.52,1.373q.145.373.295.753.23.58.47,1.172c.1.253.2.5.31.76q.371.893.763,1.8c.1.224.2.45.3.675q.283.641.578,1.285c.125.272.251.544.38.817.2.422.4.844.6,1.267.086.177.166.352.253.529l-.023-.057c4.184,8.5,9.9,17.05,17.13,21.766q.479.313.966.6c.173.1.349.2.524.3q.4.223.8.431c.173.09.347.179.522.264.343.166.691.323,1.041.471.118.051.236.1.355.152.41.165.825.316,1.243.456.158.053.318.1.478.149.323.1.647.191.975.274.155.04.31.08.466.116.33.076.662.14,1,.2a23.141,23.141,0,0,0,5.859,3.959c-5.49,3.382-11.706,7.193-18.084,11.069a50.854,50.854,0,0,1-3.588-4.927q-.177-1.443-.4-2.894c-.04-.26-.084-.521-.126-.782q-.215-1.3-.484-2.6c-.033-.162-.055-.324-.09-.486,0,.01,0,.023,0,.034a45.853,45.853,0,0,0-4.93-13.177,95.047,95.047,0,0,0-15.538-20.633l.182.17c-.156-.16-.321-.32-.479-.48-.177-.179-.357-.358-.536-.536-.863-.862-1.744-1.726-2.668-2.6-.092.323-.177.653-.258.988-.019.077-.037.153-.055.23-.081.344-.156.693-.223,1.052,0,.021-.006.043-.01.064-.061.338-.113.686-.158,1.039-.01.078-.021.156-.03.235-.043.376-.078.759-.1,1.152,0,.046,0,.094-.005.14-.017.359-.022.726-.018,1.1,0,.083,0,.164,0,.248.01.414.034.837.075,1.272.006.067.016.137.023.2q.062.591.164,1.21c.013.081.024.159.039.24q.125.7.3,1.427c.007.03.011.057.019.087l-.005-.034a26.949,26.949,0,0,0,1.49,4.3c4.115,9.358,10.657,20.036,19.205,26.658l-.042-.027c.029.022.058.041.087.063.536.414,1.082.806,1.634,1.187.134.093.264.193.4.283q.951.637,1.932,1.2a54.844,54.844,0,0,0,3.6,4.949c-16.2,9.84-33.26,19.985-41.653,24.3-.6.306.033,1.185.622.889,6.226-3.207,17.889-9.968,30.266-17.345a20.286,20.286,0,0,0,3.376,5.993.439.439,0,0,0,.1.077,1.125,1.125,0,0,0,.017.174c.149.721.331,1.416.529,2.1.032.112.063.225.1.336q.3.972.652,1.89c.044.115.09.228.135.341.248.619.51,1.224.794,1.809.024.051.051.1.076.15.276.561.568,1.1.872,1.636.048.084.094.17.143.253.237.406.48.806.732,1.2-.019-.036-.043-.086-.065-.129,4.324,6.756,10.654,11.115,14.127,14.7a40.311,40.311,0,0,0,16.568,10.088h0c1.481.507,2.855.927,4.061,1.307a4.865,4.865,0,0,0-.041-.8c-.01-.077-.022-.156-.035-.236a7.381,7.381,0,0,0-.16-.734c-.015-.057-.025-.112-.042-.169-.088-.3-.2-.614-.325-.935-.039-.1-.083-.2-.126-.3q-.157-.375-.348-.767c-.049-.1-.095-.2-.148-.306q-.257-.507-.561-1.036c-.066-.114-.138-.232-.207-.347q-.238-.4-.5-.814c-.086-.134-.171-.269-.261-.405-.243-.369-.5-.742-.766-1.123-.073-.1-.153-.209-.228-.313q-.333-.462-.69-.934c-.11-.144-.22-.289-.332-.434-.279-.36-.565-.724-.863-1.091-.045-.056-.088-.112-.134-.168-.354-.435-.725-.875-1.1-1.317-.083-.1-.168-.2-.253-.293-.43-.5-.87-1-1.327-1.505l.031.039a123.881,123.881,0,0,0-17.014-15.408l.032.02c-.068-.048-.134-.1-.2-.147l-.182-.134-.125-.092-.014-.014c-.443-.324-.88-.636-1.316-.944l-.044-.032c-.045-.031-.091-.066-.136-.1-.01,0-.018-.014-.03-.019l-.465-.326a.268.268,0,0,1-.024-.015c-.167-.117-.33-.222-.5-.335-.213-.144-.425-.288-.635-.427-.1-.066-.2-.138-.3-.2a.418.418,0,0,1-.055-.038l-.427-.275c-.012-.01-.026-.015-.03-.02l-.356-.224-.191-.121-.369-.232a.579.579,0,0,1-.051-.031c-.129-.078-.256-.157-.385-.234l-.075-.046-.4-.237c-.008-.008-.022-.011-.029-.02-.145-.083-.293-.167-.437-.252-.007,0-.007,0-.008-.007-.135-.077-.27-.149-.4-.223-.029-.017-.057-.031-.086-.05-.11-.06-.215-.122-.328-.176-.028-.015-.058-.035-.088-.049l-.033-.018-.109-.058-.243-.129,0-.005-.4-.2c-.023-.013-.047-.023-.07-.036-.1-.05-.207-.1-.308-.154-.034-.017-.065-.03-.1-.05l-.286-.134c-.033-.012-.058-.029-.09-.044-.24-.113-.48-.218-.712-.315-.035-.013-.062-.028-.1-.038s-.063-.024-.095-.038l-.107-.043c-.017-.006-.034-.015-.05-.02a.706.706,0,0,0-.106-.043c-.086-.036-.172-.064-.251-.1-.024-.01-.057-.021-.085-.032-.106-.039-.217-.077-.321-.114-.017-.006-.039-.01-.055-.015-.087-.032-.174-.058-.252-.087-.037-.01-.071-.018-.1-.03l-.212-.064a.645.645,0,0,1-.094-.025c-.085-.024-.16-.044-.242-.065a.269.269,0,0,1-.053-.012c-.095-.022-.187-.039-.281-.062l-.071-.017c-.067-.013-.136-.021-.2-.033a.813.813,0,0,0-.087-.011c-.053-.009-.1-.017-.152-.023a20.688,20.688,0,0,1-3.261-5.862c4.492-2.68,9.064-5.433,13.5-8.123a60.862,60.862,0,0,0,4.686,4.581q.468.979.95,1.922c.107.208.214.417.321.622q.686,1.307,1.4,2.553c.085.147.173.29.259.436q.668,1.139,1.366,2.235c.086.134.17.272.256.406q.774,1.2,1.589,2.363c.118.169.239.339.359.507.522.737,1.053,1.469,1.6,2.194,2,2.657,4.173,5.263,6.539,7.994,1.65,1.906,2.95,3.357,4.291,4.635l-.047-.036c.09.086.181.168.272.253s.19.179.285.265c.3.27.6.532.907.789.089.074.18.15.27.223q.482.391,1,.775c.089.066.182.133.273.2.363.263.741.528,1.143.794.075.05.156.1.232.151.442.288.9.58,1.4.881a34.1,34.1,0,0,0,13.042,4.889,83.779,83.779,0,0,0-4.188-8.341c-.181-.322-.391-.658-.615-1-.064-.1-.132-.2-.2-.3q-.266-.395-.56-.8c-.073-.1-.143-.2-.217-.3-.265-.358-.54-.72-.832-1.09l-.012-.016c-.311-.392-.638-.791-.975-1.192-.065-.078-.133-.157-.2-.236q-.413-.488-.844-.979l-.232-.264q-.489-.552-.993-1.1l-.076-.084q-.542-.59-1.093-1.17l-.325-.34c-.236-.246-.47-.49-.7-.731-.081-.083-.163-.17-.244-.252l.02.024c-1.65-1.687-3.255-3.229-4.539-4.407a51.608,51.608,0,0,0-8.238-6.563l.038.02c-.031-.02-.063-.036-.094-.056q-1.531-.985-3.079-1.853l-.049-.028c-2.136-1.2-4.3-2.268-6.508-3.3l-.026-.012q-1.189-.558-2.4-1.11a61.91,61.91,0,0,1-4.624-4.5c4.773-2.9,9.361-5.706,13.5-8.264,1.437,1.672,3.119,3.086,4.711,4.615.782,2.621,3.7,8.508,8.434,14.833.075.1.147.2.223.3.245.324.5.65.756.976.156.2.307.4.467.6.192.24.392.48.589.72s.4.5.613.751l-.019-.029A62.156,62.156,0,0,0,2570.8,558.37l-.018-.01c1.235.827,2.512,1.6,3.829,2.31.151.082.308.154.46.234.5.263,1.006.526,1.521.77.488.232.988.444,1.487.657.187.079.368.168.556.245a36.409,36.409,0,0,0,8.771,2.39c-.638-1.142-1.313-2.252-2-3.347-.173-.275-.345-.549-.521-.82-.677-1.044-1.371-2.07-2.088-3.066-.146-.2-.3-.4-.446-.6q-.94-1.283-1.92-2.507c-.191-.238-.379-.48-.572-.716q-1.124-1.372-2.283-2.665c-.213-.237-.427-.465-.641-.7q-1.017-1.105-2.051-2.148c-.163-.164-.324-.335-.488-.5l-.081-.083.032.037a65.947,65.947,0,0,0-8.478-7.109c-6.647-4.635-12.031-8.364-15.378-10.629l-.328-.221-.636-.428-.47-.314-.4-.266-.423-.278c-.117-.077-.221-.144-.325-.211l-.293-.188c-.006-.007-.007-.015-.014-.021-1.6-1.564-3.327-2.978-4.788-4.669,5.495-3.4,10.142-6.316,13.263-8.333,1.807,1.424,3.474,3.043,5.386,4.326.016.011.032,0,.048.012q.379.666.8,1.347c.1.158.2.315.3.474.365.58.744,1.164,1.149,1.754.027.04.056.08.084.12.4.578.819,1.16,1.252,1.744.12.162.241.324.364.487.463.612.937,1.226,1.435,1.841l.041.05c.495.611,1.011,1.221,1.538,1.832l.373.429q1.66,1.9,3.5,3.759c.115.116.23.232.347.348,8.325,8.314,19.053,15.657,28.863,17.638h-.023c.063.013.124.017.187.03.627.123,1.249.218,1.867.295.219.028.436.052.653.073.683.068,1.361.118,2.03.126a6.692,6.692,0,0,0-.285-.742c-.032-.071-.072-.145-.107-.218-.09-.189-.186-.38-.3-.578-.051-.092-.108-.186-.164-.279-.111-.188-.229-.379-.357-.574q-.1-.15-.2-.3c-.136-.2-.282-.4-.434-.607-.076-.1-.149-.2-.229-.307-.172-.224-.355-.453-.545-.685-.072-.088-.139-.174-.214-.263-.269-.322-.55-.649-.85-.982l0,0c-.279-.31-.569-.624-.873-.943l.013.018a107.646,107.646,0,0,0-15.431-12.807l.024.015-.241-.167q-.534-.373-1.072-.743l-.564-.386q-.538-.366-1.079-.728c-.186-.125-.374-.248-.561-.372-.368-.244-.735-.487-1.1-.727-.172-.112-.344-.222-.516-.332q-.585-.378-1.171-.75l-.328-.205c-1.472-.923-2.948-1.815-4.415-2.663l-.15-.088c-.4-.231-.8-.455-1.2-.68-.16-.09-.321-.182-.481-.271-.367-.2-.731-.4-1.095-.6l-.57-.309c-.348-.186-.693-.366-1.038-.546l-.615-.319q-.5-.254-.984-.5l-.647-.319q-.471-.231-.937-.452c-.225-.106-.448-.209-.67-.312-.3-.137-.594-.274-.886-.4-.238-.106-.472-.207-.706-.309-.272-.118-.545-.237-.812-.349s-.539-.22-.806-.328c-.225-.09-.452-.184-.673-.269-.339-.132-.671-.252-1-.372-.023-.04-.025-.084-.074-.118-1.856-1.248-3.482-2.806-5.227-4.2,4.383-2.829,8.808-5.566,13.218-8.315,1.775,1.259,3.68,2.283,5.564,3.373l.27,1.269a16.775,16.775,0,0,0,.587,1.9c.075.2.164.4.247.6.174.422.361.839.568,1.249.106.209.214.417.328.623.235.426.491.844.761,1.257.1.154.195.312.3.465,8.194,11.824,30.138,17.731,45.1,18.439h-.027C2623.7,535.668,2623.8,535.67,2623.909,535.674Z" fill="#cddae7"/>
      <g id="Grupo_86128" data-name="Grupo 86128">
        <g id="Grupo_86112" data-name="Grupo 86112">
          <ellipse id="Elipse_4322" data-name="Elipse 4322" cx="35.574" cy="6.798" rx="35.574" ry="6.798" transform="translate(2361.145 586.033)" fill="#e69200"/>
          <rect id="Rectángulo_34107" data-name="Rectángulo 34107" width="71.148" height="6.798" transform="translate(2361.145 586.033)" fill="#e69200"/>
          <ellipse id="Elipse_4323" data-name="Elipse 4323" cx="35.574" cy="6.798" rx="35.574" ry="6.798" transform="translate(2361.145 579.235)" fill="#f4ca44"/>
          <ellipse id="Elipse_4324" data-name="Elipse 4324" cx="28.462" cy="4.549" rx="28.462" ry="4.549" transform="translate(2368.257 581.444)" fill="#ea9403"/>
          <ellipse id="Elipse_4325" data-name="Elipse 4325" cx="27.533" cy="4.04" rx="27.533" ry="4.04" transform="translate(2369.185 582.221)" fill="#ffd237"/>
        </g>
        <g id="Grupo_86120" data-name="Grupo 86120">
          <g id="Grupo_86113" data-name="Grupo 86113">
            <ellipse id="Elipse_4326" data-name="Elipse 4326" cx="50.748" cy="9.697" rx="50.748" ry="9.697" transform="translate(2451.21 572.998)" fill="#e69200"/>
            <rect id="Rectángulo_34108" data-name="Rectángulo 34108" width="101.496" height="9.697" transform="translate(2451.21 572.998)" fill="#e69200"/>
            <ellipse id="Elipse_4327" data-name="Elipse 4327" cx="50.748" cy="9.697" rx="50.748" ry="9.697" transform="translate(2451.21 563.301)" fill="#f4ca44"/>
            <ellipse id="Elipse_4328" data-name="Elipse 4328" cx="40.602" cy="6.49" rx="40.602" ry="6.49" transform="translate(2461.356 566.452)" fill="#ea9403"/>
            <ellipse id="Elipse_4329" data-name="Elipse 4329" cx="39.278" cy="5.763" rx="39.278" ry="5.763" transform="translate(2462.68 567.561)" fill="#ffd237"/>
          </g>
          <g id="Grupo_86114" data-name="Grupo 86114">
            <ellipse id="Elipse_4330" data-name="Elipse 4330" cx="50.748" cy="9.697" rx="50.748" ry="9.697" transform="translate(2445.12 558.452)" fill="#e69200"/>
            <rect id="Rectángulo_34109" data-name="Rectángulo 34109" width="101.496" height="9.697" transform="translate(2445.12 558.452)" fill="#e69200"/>
            <ellipse id="Elipse_4331" data-name="Elipse 4331" cx="50.748" cy="9.697" rx="50.748" ry="9.697" transform="translate(2445.12 548.755)" fill="#f4ca44"/>
            <ellipse id="Elipse_4332" data-name="Elipse 4332" cx="40.602" cy="6.49" rx="40.602" ry="6.49" transform="translate(2455.266 551.906)" fill="#ea9403"/>
            <ellipse id="Elipse_4333" data-name="Elipse 4333" cx="39.278" cy="5.763" rx="39.278" ry="5.763" transform="translate(2456.59 553.015)" fill="#ffd237"/>
          </g>
          <g id="Grupo_86115" data-name="Grupo 86115">
            <ellipse id="Elipse_4334" data-name="Elipse 4334" cx="50.748" cy="9.697" rx="50.748" ry="9.697" transform="translate(2453.236 548.166)" fill="#e69200"/>
            <rect id="Rectángulo_34110" data-name="Rectángulo 34110" width="101.496" height="9.697" transform="translate(2453.236 548.166)" fill="#e69200"/>
            <ellipse id="Elipse_4335" data-name="Elipse 4335" cx="50.748" cy="9.697" rx="50.748" ry="9.697" transform="translate(2453.236 538.469)" fill="#f4ca44"/>
            <ellipse id="Elipse_4336" data-name="Elipse 4336" cx="40.602" cy="6.49" rx="40.602" ry="6.49" transform="translate(2463.382 541.62)" fill="#ea9403"/>
            <ellipse id="Elipse_4337" data-name="Elipse 4337" cx="39.278" cy="5.763" rx="39.278" ry="5.763" transform="translate(2464.706 542.729)" fill="#ffd237"/>
          </g>
          <g id="Grupo_86116" data-name="Grupo 86116">
            <ellipse id="Elipse_4338" data-name="Elipse 4338" cx="50.748" cy="9.697" rx="50.748" ry="9.697" transform="translate(2445.12 533.621)" fill="#e69200"/>
            <rect id="Rectángulo_34111" data-name="Rectángulo 34111" width="101.496" height="9.697" transform="translate(2445.12 533.621)" fill="#e69200"/>
            <ellipse id="Elipse_4339" data-name="Elipse 4339" cx="50.748" cy="9.697" rx="50.748" ry="9.697" transform="translate(2445.12 523.924)" fill="#f4ca44"/>
            <ellipse id="Elipse_4340" data-name="Elipse 4340" cx="40.602" cy="6.49" rx="40.602" ry="6.49" transform="translate(2455.266 527.075)" fill="#ea9403"/>
            <ellipse id="Elipse_4341" data-name="Elipse 4341" cx="39.278" cy="5.763" rx="39.278" ry="5.763" transform="translate(2456.59 528.184)" fill="#ffd237"/>
          </g>
          <g id="Grupo_86117" data-name="Grupo 86117">
            <ellipse id="Elipse_4342" data-name="Elipse 4342" cx="50.748" cy="9.697" rx="50.748" ry="9.697" transform="translate(2452.111 521.348)" fill="#e69200"/>
            <rect id="Rectángulo_34112" data-name="Rectángulo 34112" width="101.496" height="9.697" transform="translate(2452.111 521.348)" fill="#e69200"/>
            <ellipse id="Elipse_4343" data-name="Elipse 4343" cx="50.748" cy="9.697" rx="50.748" ry="9.697" transform="translate(2452.111 511.651)" fill="#f4ca44"/>
            <ellipse id="Elipse_4344" data-name="Elipse 4344" cx="40.602" cy="6.49" rx="40.602" ry="6.49" transform="translate(2462.257 514.802)" fill="#ea9403"/>
            <ellipse id="Elipse_4345" data-name="Elipse 4345" cx="39.278" cy="5.763" rx="39.278" ry="5.763" transform="translate(2463.581 515.911)" fill="#ffd237"/>
          </g>
          <g id="Grupo_86118" data-name="Grupo 86118">
            <ellipse id="Elipse_4346" data-name="Elipse 4346" cx="50.748" cy="9.697" rx="50.748" ry="9.697" transform="translate(2449.268 504.752)" fill="#e69200"/>
            <rect id="Rectángulo_34113" data-name="Rectángulo 34113" width="101.496" height="9.697" transform="translate(2449.268 504.752)" fill="#e69200"/>
            <ellipse id="Elipse_4347" data-name="Elipse 4347" cx="50.748" cy="9.697" rx="50.748" ry="9.697" transform="translate(2449.268 495.055)" fill="#f4ca44"/>
            <ellipse id="Elipse_4348" data-name="Elipse 4348" cx="40.602" cy="6.49" rx="40.602" ry="6.49" transform="translate(2459.414 498.206)" fill="#ea9403"/>
            <ellipse id="Elipse_4349" data-name="Elipse 4349" cx="39.278" cy="5.763" rx="39.278" ry="5.763" transform="translate(2460.738 499.315)" fill="#ffd237"/>
          </g>
          <g id="Grupo_86119" data-name="Grupo 86119">
            <ellipse id="Elipse_4350" data-name="Elipse 4350" cx="50.748" cy="9.697" rx="50.748" ry="9.697" transform="translate(2442.265 490.869)" fill="#e69200"/>
            <rect id="Rectángulo_34114" data-name="Rectángulo 34114" width="101.496" height="9.697" transform="translate(2442.265 490.869)" fill="#e69200"/>
            <ellipse id="Elipse_4351" data-name="Elipse 4351" cx="50.748" cy="9.697" rx="50.748" ry="9.697" transform="translate(2442.265 481.172)" fill="#f4ca44"/>
            <ellipse id="Elipse_4352" data-name="Elipse 4352" cx="40.602" cy="6.49" rx="40.602" ry="6.49" transform="translate(2452.411 484.323)" fill="#ea9403"/>
            <ellipse id="Elipse_4353" data-name="Elipse 4353" cx="39.278" cy="5.763" rx="39.278" ry="5.763" transform="translate(2453.735 485.432)" fill="#ffd237"/>
          </g>
        </g>
        <path id="Trazado_109742" data-name="Trazado 109742" d="M2546.528,542.909v-6.954c4.436-1.44,6.991-3.118,6.991-4.91v-9.7c0-1.49-1.764-2.9-4.906-4.162,1.334-.869,2.062-1.786,2.062-2.737v-9.7c0-1.794-2.559-3.472-7-4.914v-8.969c0-5.356-22.721-9.7-50.748-9.7s-50.749,4.341-50.749,9.7v9.7c0,1.794,2.559,3.473,7,4.914v8.969c0,1.49,1.763,2.9,4.906,4.163-1.334.868-2.063,1.785-2.063,2.736v7.363c-4.436,1.44-6.991,3.118-6.991,4.91v9.7c0,1.938,2.989,3.742,8.117,5.257v4.62c-5.128,1.515-8.117,3.319-8.117,5.257v9.7c0,1.673,2.217,3.247,6.12,4.621a1.994,1.994,0,0,0-.03.228v9.7c0,5.355,22.721,9.7,50.748,9.7s50.748-4.342,50.748-9.7V573c0-1.673-2.217-3.247-6.12-4.62a1.8,1.8,0,0,0,.031-.229v-5.028c5.127-1.515,8.116-3.319,8.116-5.258v-9.7C2554.644,546.228,2551.655,544.424,2546.528,542.909Z" fill="#fcdd41" opacity="0.3"/>
        <g id="Grupo_86126" data-name="Grupo 86126">
          <g id="Grupo_86121" data-name="Grupo 86121">
            <ellipse id="Elipse_4354" data-name="Elipse 4354" cx="40.622" cy="7.762" rx="40.622" ry="7.762" transform="translate(2516.958 588.993)" fill="#e69200"/>
            <rect id="Rectángulo_34115" data-name="Rectángulo 34115" width="81.244" height="7.762" transform="translate(2516.958 588.993)" fill="#e69200"/>
            <ellipse id="Elipse_4355" data-name="Elipse 4355" cx="40.622" cy="7.762" rx="40.622" ry="7.762" transform="translate(2516.958 581.231)" fill="#f4ca44"/>
            <ellipse id="Elipse_4356" data-name="Elipse 4356" cx="32.5" cy="5.195" rx="32.5" ry="5.195" transform="translate(2525.08 583.753)" fill="#ea9403"/>
            <ellipse id="Elipse_4357" data-name="Elipse 4357" cx="31.441" cy="4.613" rx="31.441" ry="4.613" transform="translate(2526.14 584.641)" fill="#ffd237"/>
          </g>
          <g id="Grupo_86122" data-name="Grupo 86122">
            <ellipse id="Elipse_4358" data-name="Elipse 4358" cx="40.622" cy="7.762" rx="40.622" ry="7.762" transform="translate(2512.084 577.35)" fill="#e69200"/>
            <rect id="Rectángulo_34116" data-name="Rectángulo 34116" width="81.244" height="7.762" transform="translate(2512.084 577.35)" fill="#e69200"/>
            <ellipse id="Elipse_4359" data-name="Elipse 4359" cx="40.622" cy="7.762" rx="40.622" ry="7.762" transform="translate(2512.084 569.588)" fill="#f4ca44"/>
            <ellipse id="Elipse_4360" data-name="Elipse 4360" cx="32.5" cy="5.195" rx="32.5" ry="5.195" transform="translate(2520.206 572.11)" fill="#ea9403"/>
            <ellipse id="Elipse_4361" data-name="Elipse 4361" cx="31.441" cy="4.613" rx="31.441" ry="4.613" transform="translate(2521.265 572.998)" fill="#ffd237"/>
          </g>
          <g id="Grupo_86123" data-name="Grupo 86123">
            <ellipse id="Elipse_4362" data-name="Elipse 4362" cx="40.622" cy="7.762" rx="40.622" ry="7.762" transform="translate(2518.581 569.117)" fill="#e69200"/>
            <rect id="Rectángulo_34117" data-name="Rectángulo 34117" width="81.244" height="7.762" transform="translate(2518.581 569.117)" fill="#e69200"/>
            <ellipse id="Elipse_4363" data-name="Elipse 4363" cx="40.622" cy="7.762" rx="40.622" ry="7.762" transform="translate(2518.581 561.355)" fill="#f4ca44"/>
            <ellipse id="Elipse_4364" data-name="Elipse 4364" cx="32.5" cy="5.195" rx="32.5" ry="5.195" transform="translate(2526.702 563.877)" fill="#ea9403"/>
            <ellipse id="Elipse_4365" data-name="Elipse 4365" cx="31.441" cy="4.613" rx="31.441" ry="4.613" transform="translate(2527.762 564.764)" fill="#ffd237"/>
          </g>
          <g id="Grupo_86124" data-name="Grupo 86124">
            <ellipse id="Elipse_4366" data-name="Elipse 4366" cx="40.622" cy="7.762" rx="40.622" ry="7.762" transform="translate(2512.084 557.474)" fill="#e69200"/>
            <rect id="Rectángulo_34118" data-name="Rectángulo 34118" width="81.244" height="7.762" transform="translate(2512.084 557.474)" fill="#e69200"/>
            <ellipse id="Elipse_4367" data-name="Elipse 4367" cx="40.622" cy="7.762" rx="40.622" ry="7.762" transform="translate(2512.084 549.711)" fill="#f4ca44"/>
            <ellipse id="Elipse_4368" data-name="Elipse 4368" cx="32.5" cy="5.195" rx="32.5" ry="5.195" transform="translate(2520.206 552.234)" fill="#ea9403"/>
            <ellipse id="Elipse_4369" data-name="Elipse 4369" cx="31.441" cy="4.613" rx="31.441" ry="4.613" transform="translate(2521.265 553.121)" fill="#ffd237"/>
          </g>
          <g id="Grupo_86125" data-name="Grupo 86125">
            <ellipse id="Elipse_4370" data-name="Elipse 4370" cx="40.622" cy="7.762" rx="40.622" ry="7.762" transform="translate(2517.68 547.65)" fill="#e69200"/>
            <rect id="Rectángulo_34119" data-name="Rectángulo 34119" width="81.244" height="7.762" transform="translate(2517.68 547.65)" fill="#e69200"/>
            <ellipse id="Elipse_4371" data-name="Elipse 4371" cx="40.622" cy="7.762" rx="40.622" ry="7.762" transform="translate(2517.68 539.887)" fill="#f4ca44"/>
            <ellipse id="Elipse_4372" data-name="Elipse 4372" cx="32.5" cy="5.195" rx="32.5" ry="5.195" transform="translate(2525.802 542.41)" fill="#ea9403"/>
            <ellipse id="Elipse_4373" data-name="Elipse 4373" cx="31.441" cy="4.613" rx="31.441" ry="4.613" transform="translate(2526.861 543.297)" fill="#ffd237"/>
          </g>
        </g>
        <path id="Trazado_109743" data-name="Trazado 109743" d="M2593.1,563.647v-5.566c3.551-1.153,5.6-2.5,5.6-3.93v-7.762c0-4.287-18.187-7.763-40.622-7.763s-40.622,3.476-40.622,7.763v5.893c-3.551,1.153-5.6,2.5-5.6,3.93v7.763c0,1.551,2.392,2.995,6.5,4.208v3.7c-4.105,1.212-6.5,2.656-6.5,4.208v7.762c0,1.339,1.775,2.6,4.9,3.7a1.409,1.409,0,0,0-.024.182v7.762c0,4.287,18.187,7.763,40.622,7.763s40.622-3.476,40.622-7.763v-7.762c0-1.339-1.775-2.6-4.9-3.7a1.4,1.4,0,0,0,.024-.183v-4.025c4.1-1.212,6.5-2.656,6.5-4.208v-7.762C2599.593,566.3,2597.2,564.86,2593.1,563.647Z" fill="#fcdd41" opacity="0.3"/>
        <g id="Grupo_86127" data-name="Grupo 86127" opacity="0.3">
          <ellipse id="Elipse_4374" data-name="Elipse 4374" cx="35.574" cy="6.798" rx="35.574" ry="6.798" transform="translate(2361.145 581.993)" fill="#fcdd41"/>
          <rect id="Rectángulo_34120" data-name="Rectángulo 34120" width="71.148" height="6.798" transform="translate(2361.145 581.993)" fill="#fcdd41"/>
          <ellipse id="Elipse_4375" data-name="Elipse 4375" cx="35.574" cy="6.798" rx="35.574" ry="6.798" transform="translate(2361.145 575.195)" fill="#fcdd41"/>
          <ellipse id="Elipse_4376" data-name="Elipse 4376" cx="28.462" cy="4.549" rx="28.462" ry="4.549" transform="translate(2368.257 577.404)" fill="#fcdd41"/>
          <ellipse id="Elipse_4377" data-name="Elipse 4377" cx="27.533" cy="4.04" rx="27.533" ry="4.04" transform="translate(2369.185 578.182)" fill="#fcdd41"/>
        </g>
      </g>
      <g id="Grupo_86132" data-name="Grupo 86132">
        <path id="Trazado_109744" data-name="Trazado 109744" d="M2441.2,489.6c-2.553,2.839,10.606,13.7,75.425,9.946,28.234-1.637,26.813-6.221,20.275-9.935-6.132-3.483-22.541-8.875-46.031-8.292C2468.327,481.874,2446.2,484.036,2441.2,489.6Z" fill="#c7d0dd" opacity="0.3"/>
        <path id="Trazado_109745" data-name="Trazado 109745" d="M2462.909,459.2s19.566,2.57,27.745,2.284,22.732-.431,22.732-.431,2.318,7.723-.966,10.579-22.94,11.138-36.6,5.283S2461.665,460.2,2462.909,459.2Z" fill="#223454"/>
        <path id="Trazado_109746" data-name="Trazado 109746" d="M2480.718,481.775s16.587-11.424,22.588-15.314c5.225-3.386,15.255-11.533,19.967-4.678s-1.714,12.994-7,16.565c-4.6,3.109-24.488,11.659-28.275,14.994C2485.574,493.484,2480.316,485.916,2480.718,481.775Z" fill="#314572"/>
        <path id="Trazado_109747" data-name="Trazado 109747" d="M2491.343,483.17a28.479,28.479,0,0,1-3.485-6.293c-4.021,2.749-7.14,4.9-7.14,4.9-.4,4.141,4.856,11.709,7.283,11.567,1.471-1.3,5.374-3.379,9.864-5.623A16.791,16.791,0,0,1,2491.343,483.17Z" fill="#223454"/>
        <path id="Trazado_109748" data-name="Trazado 109748" d="M2470.865,485.487a52.367,52.367,0,0,0-4.784,5.723c-.856,1.56,2.392,2.34,2.392,2.34s12.317-1.351,15.887-3.636-.829-5.64-3.663-5.64S2473.007,483.774,2470.865,485.487Z" fill="#f7ddce"/>
        <path id="Trazado_109749" data-name="Trazado 109749" d="M2490.715,486.915s5.426,4.142,11.138,4.57,7.854,1.285,7.854,1.285-3.284-7.425-7-9.567-10.853-3.142-11.995-2.285S2489.858,484.2,2490.715,486.915Z" fill="#f7ddce"/>
        <path id="Trazado_109750" data-name="Trazado 109750" d="M2499.426,482.523s-1.561,8.121-.029,8.687c4.736,1.75,14.4,4.274,14.4,2.274s-1.571-7.711-8.14-10.567S2499.426,482.523,2499.426,482.523Z" fill="#191919"/>
        <path id="Trazado_109751" data-name="Trazado 109751" d="M2465.938,485.11c-4.713,2.856-7.069,6.74-5.926,8.311s14.3-.613,16.935-1.184c2.053-.445-2.655-6.242-3.227-7.384C2475.64,484.122,2470.65,482.254,2465.938,485.11Z" fill="#191919"/>
        <path id="Trazado_109752" data-name="Trazado 109752" d="M2493.856,480.061s-8.568-5.944-17.334-11.272c-5.7-3.463-15.367-13.29-19.794-11.576a9.453,9.453,0,0,0-5.569,11.321c1.428,4.387,14.226,12.343,20.6,15.3,7.817,3.623,17.394,5.321,19.822,7.178S2496.545,481.2,2493.856,480.061Z" fill="#314572"/>
        <path id="Trazado_109753" data-name="Trazado 109753" d="M2507.44,427.429s-8.495-6.279-18.794-6.279-20.972,6.279-20.972,6.279-5.023,9.209-6.7,24.7,51.7,12.349,54.835,0S2507.44,427.429,2507.44,427.429Zm-36.208,24.487v-8.79l3.768,8.79Zm33.7,0h-3.768l3.768-8.79Z" fill="#729edb"/>
        <g id="Grupo_86131" data-name="Grupo 86131">
          <path id="Trazado_109754" data-name="Trazado 109754" d="M2502.617,468.66h-28.046l-5.023-21.139h38.719Z" fill="#adcde0"/>
          <g id="Grupo_86129" data-name="Grupo 86129">
            <path id="Trazado_109755" data-name="Trazado 109755" d="M2468.083,460.183l6.488,6.8v1.674l-6.488-6.8Z" fill="#d6d5d8"/>
            <path id="Trazado_109756" data-name="Trazado 109756" d="M2473.943,466.358l-5.86-6.174h4.5Z" fill="#afa9ac"/>
          </g>
          <rect id="Rectángulo_34121" data-name="Rectángulo 34121" width="28.15" height="1.622" transform="translate(2474.571 467.038)" fill="#d6d5d8"/>
          <ellipse id="Elipse_4378" data-name="Elipse 4378" cx="2.93" cy="1.831" rx="2.93" ry="1.831" transform="translate(2485.769 456.521)" fill="#fff"/>
          <g id="Grupo_86130" data-name="Grupo 86130">
            <path id="Trazado_109757" data-name="Trazado 109757" d="M2509.21,460.236l-6.488,6.8v1.674l6.488-6.8Z" fill="#d6d5d8"/>
            <path id="Trazado_109758" data-name="Trazado 109758" d="M2503.179,466.559l6.031-6.323h-4.341Z" fill="#afa9ac"/>
          </g>
        </g>
        <path id="Trazado_109759" data-name="Trazado 109759" d="M2496.787,415.716a2.208,2.208,0,0,1,1.546-1.015c.981-.071.341,3.015.056,4.193s-1.409,1.627-1.8.948Z" fill="#f6d4c0"/>
        <path id="Trazado_109760" data-name="Trazado 109760" d="M2496.905,408.24c-.142-3.255-4.769-2.585-8-2.92-3.228.335-7.855-.335-8,2.92-.142,3.284.31,12.735.584,15.149.27,2.388,4.876,6.7,7.413,6.97,2.537-.27,7.143-4.582,7.414-6.97C2496.595,420.975,2497.048,411.524,2496.905,408.24Z" fill="#f7ddce"/>
        <path id="Trazado_109761" data-name="Trazado 109761" d="M2496.262,402.3c-2.125-1.614-5.461-1.741-7.354-1.66-1.893-.081-5.229.046-7.354,1.66-3.1,2.356-2.106,4.8-2.249,5.8a41.143,41.143,0,0,0,.607,7.282c.285.928,1.117.336,1.117.336s-.046-4.835,1.882-5.334,3.218,1.8,5.143,2.329c.3.082.58.141.854.19.274-.049.556-.108.854-.19,1.925-.526,3.216-2.829,5.144-2.329s1.881,5.334,1.881,5.334.832.592,1.117-.336a41.143,41.143,0,0,0,.607-7.282C2498.368,407.1,2499.366,404.652,2496.262,402.3Z" fill="#314572"/>
        <path id="Trazado_109762" data-name="Trazado 109762" d="M2481.029,415.716a2.208,2.208,0,0,0-1.546-1.015c-.981-.071-.341,3.015-.056,4.193s1.409,1.627,1.8.948Z" fill="#f6d4c0"/>
      </g>
      <g id="Grupo_86133" data-name="Grupo 86133">
        <path id="Trazado_109763" data-name="Trazado 109763" d="M2400.862,583.644l9.4,1.232-4.447-5.806-1-8.973h-4.871l.518,7.389Z" fill="#f3c6a0"/>
        <path id="Trazado_109764" data-name="Trazado 109764" d="M2403.4,583.292s3.826.416,5.37.66a9.851,9.851,0,0,1,5,2.419h-5.146l-5.221-1.958v1.43h-2.461v-3.782Z" fill="url(#linear-gradient)"/>
        <path id="Trazado_109765" data-name="Trazado 109765" d="M2381.827,584.428l9.223,2.18-3.834-6.228-.084-9.028-4.846-.495-.235,7.4Z" fill="#f3c6a0"/>
        <path id="Trazado_109766" data-name="Trazado 109766" d="M2384.386,584.336s3.764.8,5.275,1.2a9.847,9.847,0,0,1,4.725,2.914l-5.119-.523-5-2.478-.145,1.423-2.449-.25.385-3.763Z" fill="url(#linear-gradient-2)"/>
        <path id="Trazado_109767" data-name="Trazado 109767" d="M2382.292,579.655l7.071-.505s-.468-19.55-.281-36.439a268.392,268.392,0,0,1,2.37-31.826l8.666,67.5,5.849-.417s-1.268-48.165-1.9-60.863a146.672,146.672,0,0,0-3.579-24.587s-8.162.2-13.883-.2a26.878,26.878,0,0,1-9.666-2.468,121.319,121.319,0,0,0-3.031,27.509C2373.906,533.151,2382.292,579.655,2382.292,579.655Z" fill="#0f343d"/>
        <path id="Trazado_109768" data-name="Trazado 109768" d="M2376.937,489.845l8.268,3.284,14.947-.615,2.637-2.833a107.981,107.981,0,0,1,.414-17.61c1.021-10.039,1-13.38-.858-15.008s-5.986-2.681-12.73-3.261c-5.024-.431-10.913.527-12.678.527-4.134,0-7.516,6.764-7.516,6.764l4.513,11.462a12.405,12.405,0,0,1,3.488,6.97A43.812,43.812,0,0,1,2376.937,489.845Z" fill="#ed971b"/>
        <path id="Trazado_109769" data-name="Trazado 109769" d="M2369.421,461.093l4.485,10.71-6.552,9.958,6.552,9.958-3.357,2.818-11.274-13.528Z" fill="#ed971b"/>
        <path id="Trazado_109770" data-name="Trazado 109770" d="M2401.964,499.64h3.346l-2.521-9.958-2.3,2.833Z" fill="#e57f3a" style="mix-blend-mode: multiply;isolation: isolate"/>
        <path id="Trazado_109771" data-name="Trazado 109771" d="M2381.447,454.892s7.641,7.351,9.645,7.391,4.134.376,6.013-1.19-.627-6.2-.627-6.2-5.887-2.254-2.881-7.265-8.256-5.01-6.946,0S2381.447,454.892,2381.447,454.892Z" fill="#ecb5a1"/>
        <path id="Trazado_109772" data-name="Trazado 109772" d="M2386.925,448.578a5.3,5.3,0,0,0-.16-.951c-1.309-5.01,9.953-5.01,6.947,0a4.454,4.454,0,0,0-.544,4.219A9.108,9.108,0,0,1,2386.925,448.578Z" fill="#bb673d"/>
        <path id="Trazado_109773" data-name="Trazado 109773" d="M2383.952,440.424c0,5.293,3.1,9.583,6.926,9.583s5.6-3.607,6.592-9.583c.865-5.221-2.767-9.582-6.592-9.582S2383.952,435.132,2383.952,440.424Z" fill="#ecb5a1"/>
        <path id="Trazado_109774" data-name="Trazado 109774" d="M2389.338,423.827c6.157,0,11.148,4.487,11.148,10.021a10.329,10.329,0,0,1-3.019,6.787c0-.071,0-.143,0-.211,0-3.044-2.7-5.449-6.194-5.449a23.206,23.206,0,0,1-4.129-1.314,10.906,10.906,0,0,1-.388,3.568c-.562,1.859-1.8,3.716-1.8,4.886a5.934,5.934,0,0,0,.859,2.758c-4.841-1.156-7.623-6.169-7.623-11.025C2378.19,428.314,2383.181,423.827,2389.338,423.827Z" fill="#0f343d"/>
        <circle id="Elipse_4379" data-name="Elipse 4379" cx="4.569" cy="4.569" r="4.569" transform="translate(2380.199 421.703)" fill="#0f343d"/>
        <path id="Trazado_109775" data-name="Trazado 109775" d="M2371.01,493.987l2.732-1.716,1.01,1.1a8.841,8.841,0,0,1,2.7,3.705c1.079,2.565.963,4.865-.26,5.137s-3.087-1.587-4.166-4.152a8.779,8.779,0,0,1-.737-3.056Z" fill="#f3c6a0"/>
        <path id="Trazado_109776" data-name="Trazado 109776" d="M2402.261,499.64l3.226.034.254,1.473a8.842,8.842,0,0,1,.267,4.576c-.479,2.741-1.821,4.613-3,4.181s-1.739-3.005-1.26-5.746a8.78,8.78,0,0,1,1.033-2.969Z" fill="#f3c6a0"/>
      </g>
    </g>
    <g id="Grupo_86137" data-name="Grupo 86137">
      <g id="Grupo_86135" data-name="Grupo 86135">
        <path id="Trazado_109777" data-name="Trazado 109777" d="M2436.421,395.739v6.781h1.465v-6.781a.746.746,0,1,0-1.465,0Z" fill="#e5803c"/>
        <path id="Trazado_109778" data-name="Trazado 109778" d="M2436.421,425.376a.746.746,0,1,0,1.465,0V419h-1.465Z" fill="#e5803c"/>
        <path id="Trazado_109779" data-name="Trazado 109779" d="M2421.451,410.558a.818.818,0,0,0,.884.732h6.781v-1.465h-6.781A.819.819,0,0,0,2421.451,410.558Z" fill="#e5803c"/>
        <path id="Trazado_109780" data-name="Trazado 109780" d="M2451.972,409.825H2445.6v1.465h6.373a.745.745,0,1,0,0-1.465Z" fill="#e5803c"/>
      </g>
      <g id="Grupo_86136" data-name="Grupo 86136">
        <path id="Trazado_109781" data-name="Trazado 109781" d="M2426.157,400.6l4.795,4.794,1.036-1.036-4.795-4.795a.746.746,0,1,0-1.036,1.037Z" fill="#e5803c"/>
        <path id="Trazado_109782" data-name="Trazado 109782" d="M2447.113,421.554a.746.746,0,1,0,1.037-1.036l-4.506-4.507-1.037,1.037Z" fill="#e5803c"/>
        <path id="Trazado_109783" data-name="Trazado 109783" d="M2426.05,421.661a.818.818,0,0,0,1.143-.107l4.795-4.795-1.036-1.036-4.795,4.8A.819.819,0,0,0,2426.05,421.661Z" fill="#e5803c"/>
        <path id="Trazado_109784" data-name="Trazado 109784" d="M2447.113,399.561l-4.506,4.506,1.037,1.037,4.506-4.506a.746.746,0,1,0-1.037-1.037Z" fill="#e5803c"/>
      </g>
    </g>
    <g id="Grupo_86138" data-name="Grupo 86138">
      <path id="Trazado_109785" data-name="Trazado 109785" d="M2549.237,375.6h-4.978v-2.982h4.978v-5.276h3.054v5.276h4.978V375.6h-4.978v5.276h-3.054Z" fill="#729edb"/>
    </g>
  </g>
</svg>
