<svg xmlns="http://www.w3.org/2000/svg" xmlns:xlink="http://www.w3.org/1999/xlink" width="326.299" height="268.875" viewBox="0 0 326.299 268.875">
  <defs>
    <linearGradient id="linear-gradient" x1="94.461" y1="1" x2="94.461" gradientUnits="objectBoundingBox">
      <stop offset="0" stop-color="#0f2d47"/>
      <stop offset="1" stop-color="#0a2635"/>
    </linearGradient>
    <linearGradient id="linear-gradient-2" x1="0.5" y1="1" x2="0.5" y2="0" xlink:href="#linear-gradient"/>
    <linearGradient id="linear-gradient-3" y1="0.5" x2="1" y2="0.5" gradientUnits="objectBoundingBox">
      <stop offset="0.062" stop-color="#aa6338"/>
      <stop offset="1" stop-color="#c96f43"/>
    </linearGradient>
    <linearGradient id="linear-gradient-4" x1="0" y1="0.5" x2="1" y2="0.5" xlink:href="#linear-gradient"/>
    <linearGradient id="linear-gradient-5" x1="170.133" y1="1" x2="170.133" y2="0" xlink:href="#linear-gradient"/>
    <linearGradient id="linear-gradient-7" x1="0.5" y1="1" x2="0.5" y2="0" xlink:href="#linear-gradient"/>
  </defs>
  <g id="Grupo_87454" data-name="Grupo 87454" transform="translate(-356.767 -45.87)">
    <path id="Trazado_110147" data-name="Trazado 110147" d="M596.948,139.2c-65.857-34.917-62.417-104.087-148.664-71.809-59.747,22.36-99.346,96.312-90.209,159.633,6.892,47.768,29.634,83.184,72.084,71.715s78.538,2.453,111.164,11.432c41.057,11.3,104.693-24.022,115.042-72.5S641.955,163.062,596.948,139.2Z" transform="translate(0 2.456)" fill="#daeef7"/>
    <g id="Grupo_87453" data-name="Grupo 87453" transform="translate(372.72 45.87)">
      <g id="Grupo_87428" data-name="Grupo 87428" transform="translate(212.782 7.773)">
        <g id="Grupo_87426" data-name="Grupo 87426">
          <path id="Trazado_110148" data-name="Trazado 110148" d="M555.511,52.841v3.216h.7V52.841a.354.354,0,1,0-.7,0Z" transform="translate(-548.41 -52.421)" fill="#ed971b"/>
          <path id="Trazado_110149" data-name="Trazado 110149" d="M555.511,65.1a.354.354,0,1,0,.7,0V62.075h-.7Z" transform="translate(-548.41 -50.619)" fill="#ed971b"/>
          <path id="Trazado_110150" data-name="Trazado 110150" d="M549.527,58.753a.388.388,0,0,0,.419.348h3.217v-.7h-3.217A.388.388,0,0,0,549.527,58.753Z" transform="translate(-549.527 -51.304)" fill="#ed971b"/>
          <path id="Trazado_110151" data-name="Trazado 110151" d="M562.2,58.4H559.18v.7H562.2a.354.354,0,1,0,0-.7Z" transform="translate(-547.725 -51.304)" fill="#ed971b"/>
        </g>
        <g id="Grupo_87427" data-name="Grupo 87427" transform="translate(2.093 2.093)">
          <path id="Trazado_110152" data-name="Trazado 110152" d="M551.43,54.816,553.7,57.09l.491-.491-2.275-2.275a.354.354,0,1,0-.491.492Z" transform="translate(-551.291 -54.185)" fill="#ed971b"/>
          <path id="Trazado_110153" data-name="Trazado 110153" d="M560.122,63.507a.354.354,0,1,0,.491-.491l-2.137-2.137-.492.491Z" transform="translate(-550.041 -52.935)" fill="#ed971b"/>
          <path id="Trazado_110154" data-name="Trazado 110154" d="M551.379,63.58a.388.388,0,0,0,.542-.051l2.275-2.274-.491-.492-2.275,2.275A.389.389,0,0,0,551.379,63.58Z" transform="translate(-551.291 -52.957)" fill="#ed971b"/>
          <path id="Trazado_110155" data-name="Trazado 110155" d="M560.122,54.324l-2.138,2.138.492.491,2.137-2.137a.354.354,0,1,0-.491-.492Z" transform="translate(-550.041 -54.185)" fill="#ed971b"/>
        </g>
      </g>
      <g id="Grupo_87431" data-name="Grupo 87431" transform="translate(59.075 79.18)">
        <g id="Grupo_87429" data-name="Grupo 87429">
          <path id="Trazado_110156" data-name="Trazado 110156" d="M424.942,112.944V115.6h.574v-2.659a.292.292,0,1,0-.574,0Z" transform="translate(-419.072 -112.597)" fill="#56989c"/>
          <path id="Trazado_110157" data-name="Trazado 110157" d="M424.942,123.075a.292.292,0,1,0,.574,0v-2.5h-.574Z" transform="translate(-419.072 -111.108)" fill="#56989c"/>
          <path id="Trazado_110158" data-name="Trazado 110158" d="M419.995,117.831a.322.322,0,0,0,.348.287H423v-.576h-2.658A.322.322,0,0,0,419.995,117.831Z" transform="translate(-419.995 -111.674)" fill="#56989c"/>
          <path id="Trazado_110159" data-name="Trazado 110159" d="M430.473,117.543h-2.5v.576h2.5a.293.293,0,1,0,0-.576Z" transform="translate(-418.506 -111.674)" fill="#56989c"/>
        </g>
        <g id="Grupo_87430" data-name="Grupo 87430" transform="translate(1.731 1.73)">
          <path id="Trazado_110160" data-name="Trazado 110160" d="M421.569,114.577l1.88,1.88.406-.407-1.88-1.88a.292.292,0,1,0-.406.407Z" transform="translate(-421.453 -114.055)" fill="#56989c"/>
          <path id="Trazado_110161" data-name="Trazado 110161" d="M428.753,121.761a.292.292,0,1,0,.406-.406l-1.766-1.767-.407.406Z" transform="translate(-420.421 -113.022)" fill="#56989c"/>
          <path id="Trazado_110162" data-name="Trazado 110162" d="M421.527,121.821a.322.322,0,0,0,.449-.043l1.88-1.88-.406-.407-1.88,1.881A.321.321,0,0,0,421.527,121.821Z" transform="translate(-421.453 -113.04)" fill="#56989c"/>
          <path id="Trazado_110163" data-name="Trazado 110163" d="M428.753,114.17l-1.767,1.767.407.407,1.766-1.767a.292.292,0,1,0-.406-.407Z" transform="translate(-420.421 -114.055)" fill="#56989c"/>
        </g>
      </g>
      <g id="Grupo_87432" data-name="Grupo 87432" transform="translate(287.801 49.136)" style="isolation: isolate">
        <path id="Trazado_110164" data-name="Trazado 110164" d="M614.471,90.413h-1.724V89.281h1.724v-2h1.057v2h1.724v1.132h-1.724v2h-1.057Z" transform="translate(-612.747 -87.278)" fill="#fcfdff"/>
      </g>
      <g id="Grupo_87433" data-name="Grupo 87433" transform="translate(0 96.37)" style="isolation: isolate">
        <path id="Trazado_110165" data-name="Trazado 110165" d="M371.934,130.218h-1.723v-1.132h1.723v-2h1.058v2h1.723v1.132h-1.723v2h-1.058Z" transform="translate(-370.211 -127.083)" fill="#fcfdff"/>
      </g>
      <g id="Grupo_87435" data-name="Grupo 87435" transform="translate(139.148 99.827)">
        <g id="Grupo_87434" data-name="Grupo 87434">
          <path id="Trazado_110166" data-name="Trazado 110166" d="M489.514,133.708h-2.04v-1.34h2.04V130h1.252v2.371h2.04v1.34h-2.04v2.371h-1.252Z" transform="translate(-487.474 -129.997)" fill="#d68047"/>
        </g>
      </g>
      <g id="Grupo_87436" data-name="Grupo 87436" transform="translate(282.93 88.507)" style="isolation: isolate">
        <path id="Trazado_110167" data-name="Trazado 110167" d="M611.368,125.415h-2.726v-1.791h2.726v-3.167h1.673v3.167h2.725v1.791h-2.725v3.168h-1.673Z" transform="translate(-608.642 -120.457)" fill="#fcfdff"/>
      </g>
      <g id="Grupo_87437" data-name="Grupo 87437" transform="translate(32.033 47.642)" style="isolation: isolate">
        <path id="Trazado_110168" data-name="Trazado 110168" d="M399.932,90.978h-2.726V89.187h2.726V86.019H401.6v3.168h2.726v1.791H401.6v3.167h-1.672Z" transform="translate(-397.206 -86.019)" fill="#fcfdff"/>
      </g>
      <g id="Grupo_87440" data-name="Grupo 87440" transform="translate(299.983 141.621)">
        <g id="Grupo_87438" data-name="Grupo 87438">
          <path id="Trazado_110169" data-name="Trazado 110169" d="M633.219,171.365a5.235,5.235,0,0,0,.091-1.245.185.185,0,0,0-.109-.159l-.894-.39-.012-.057a4.241,4.241,0,0,0-.3-.9l-.025-.052.479-.847a.179.179,0,0,0-.008-.191,4.99,4.99,0,0,0-.381-.5,4.938,4.938,0,0,0-.438-.445.181.181,0,0,0-.189-.036l-.905.355-.049-.032a4.24,4.24,0,0,0-.853-.425l-.053-.02-.262-.936a.181.181,0,0,0-.14-.131,5.135,5.135,0,0,0-1.25-.087.179.179,0,0,0-.157.109l-.389.89-.056.012a4.2,4.2,0,0,0-.907.3l-.052.024-.845-.478a.182.182,0,0,0-.191.007,5.636,5.636,0,0,0-.5.379,5.443,5.443,0,0,0-.447.444.181.181,0,0,0-.034.187l.354.905-.031.049a4.229,4.229,0,0,0-.426.854l-.02.055-.939.263a.181.181,0,0,0-.128.141,5.288,5.288,0,0,0-.089,1.247.182.182,0,0,0,.109.158l.895.389.012.057a4.468,4.468,0,0,0,.3.9l.024.052-.476.848a.181.181,0,0,0,.008.192,5.856,5.856,0,0,0,.38.5,5.725,5.725,0,0,0,.439.444.183.183,0,0,0,.189.034l.9-.356.049.032a4.266,4.266,0,0,0,.852.425l.053.02.263.94a.182.182,0,0,0,.142.129,5.382,5.382,0,0,0,1.244.087.183.183,0,0,0,.158-.108l.394-.894.057-.012a4.187,4.187,0,0,0,.905-.3l.052-.024.848.476a.182.182,0,0,0,.191-.008,5.653,5.653,0,0,0,.5-.38,5.718,5.718,0,0,0,.445-.44.181.181,0,0,0,.034-.189l-.358-.9.032-.049a4.216,4.216,0,0,0,.427-.857l.019-.055.937-.262A.182.182,0,0,0,633.219,171.365Zm-.324-.25-.011.071-.922.259a.177.177,0,0,0-.123.119,3.8,3.8,0,0,1-.516,1.036.182.182,0,0,0-.021.172l.352.886-.05.052c-.1.1-.195.193-.288.275s-.205.169-.313.248l-.058.042-.835-.468a.175.175,0,0,0-.171,0,3.788,3.788,0,0,1-1.094.365.182.182,0,0,0-.135.106l-.388.878H628.2a5.092,5.092,0,0,1-.744-.056l-.072-.011-.259-.922a.18.18,0,0,0-.117-.125,3.885,3.885,0,0,1-1.031-.515.185.185,0,0,0-.172-.021l-.889.35-.052-.051c-.1-.093-.189-.189-.274-.286s-.163-.2-.248-.314l-.043-.058.469-.832a.184.184,0,0,0,0-.172,4.028,4.028,0,0,1-.365-1.094.18.18,0,0,0-.106-.134l-.878-.382v-.074a4.881,4.881,0,0,1,.056-.8l.011-.071.922-.26a.182.182,0,0,0,.123-.119,3.972,3.972,0,0,1,.515-1.034.177.177,0,0,0,.02-.17l-.346-.891.05-.051c.091-.1.189-.189.288-.275s.211-.174.315-.249l.058-.043.831.471a.181.181,0,0,0,.172,0,3.827,3.827,0,0,1,1.1-.367.179.179,0,0,0,.135-.107l.382-.875h.072a4.568,4.568,0,0,1,.8.055l.071.011.257.922a.182.182,0,0,0,.119.123,3.891,3.891,0,0,1,1.032.515.181.181,0,0,0,.17.02l.89-.348.052.05c.1.1.192.195.274.29s.166.2.248.311l.043.058-.471.832a.18.18,0,0,0,0,.172,3.868,3.868,0,0,1,.367,1.093.181.181,0,0,0,.107.135l.878.384v.074A4.816,4.816,0,0,1,632.9,171.115Z" transform="translate(-623.005 -165.209)" fill="#f2f6f7"/>
          <path id="Trazado_110170" data-name="Trazado 110170" d="M628.2,175.577a5.392,5.392,0,0,1-1-.094.232.232,0,0,1-.183-.166l-.256-.914-.029-.011a4.409,4.409,0,0,1-.863-.431l-.026-.018-.879.346a.235.235,0,0,1-.243-.045,5.833,5.833,0,0,1-.443-.447,5.911,5.911,0,0,1-.383-.5.237.237,0,0,1-.012-.248l.464-.825-.013-.028a4.452,4.452,0,0,1-.3-.913l-.006-.03-.871-.38a.234.234,0,0,1-.14-.2,5.4,5.4,0,0,1,.089-1.26.236.236,0,0,1,.166-.18l.913-.258.011-.028a4.328,4.328,0,0,1,.432-.865l.017-.025-.344-.882a.232.232,0,0,1,.044-.241,4.775,4.775,0,0,1,.956-.831.232.232,0,0,1,.246-.01l.821.465.027-.013a4.179,4.179,0,0,1,.918-.307l.03-.006.377-.866a.234.234,0,0,1,.2-.14,5.231,5.231,0,0,1,1.263.088.236.236,0,0,1,.18.167l.254.91.029.011a4.255,4.255,0,0,1,.864.431l.026.017.88-.344a.232.232,0,0,1,.242.045,5.4,5.4,0,0,1,.444.45,5.128,5.128,0,0,1,.383.5.232.232,0,0,1,.011.247l-.465.824.013.027a4.3,4.3,0,0,1,.307.915l.006.03.87.381a.235.235,0,0,1,.14.2,5.345,5.345,0,0,1-.093,1.258h0a.231.231,0,0,1-.166.179l-.91.255-.011.03a4.19,4.19,0,0,1-.432.867l-.018.026.349.877a.236.236,0,0,1-.044.244,5.8,5.8,0,0,1-.45.444,5.618,5.618,0,0,1-.5.383.23.23,0,0,1-.246.011l-.825-.463-.028.013a4.178,4.178,0,0,1-.916.306l-.031.007-.383.867a.234.234,0,0,1-.2.14C628.375,175.575,628.29,175.577,628.2,175.577Zm-2.344-1.749.071.046a4.288,4.288,0,0,0,.841.42l.078.03.272.965a.128.128,0,0,0,.1.093,5.283,5.283,0,0,0,1.232.085.131.131,0,0,0,.113-.077l.4-.917.083-.018a4.121,4.121,0,0,0,.894-.3l.076-.036.872.489a.129.129,0,0,0,.136,0,5.878,5.878,0,0,0,.494-.376,5.585,5.585,0,0,0,.441-.436.132.132,0,0,0,.025-.135l-.369-.928.046-.071a4.174,4.174,0,0,0,.422-.846l.029-.079.962-.271a.129.129,0,0,0,.091-.1,5.2,5.2,0,0,0,.09-1.233.131.131,0,0,0-.077-.114l-.918-.4-.018-.083a4.179,4.179,0,0,0-.3-.892l-.036-.076.492-.87a.131.131,0,0,0-.006-.136,4.932,4.932,0,0,0-.377-.491,5.008,5.008,0,0,0-.434-.441.127.127,0,0,0-.134-.025l-.93.364-.071-.046a4.2,4.2,0,0,0-.843-.42l-.08-.03-.268-.962a.128.128,0,0,0-.1-.093,5.081,5.081,0,0,0-1.236-.085.129.129,0,0,0-.113.077l-.4.915-.083.018a4.154,4.154,0,0,0-.895.3l-.077.037-.869-.492a.132.132,0,0,0-.136.006,5.6,5.6,0,0,0-.492.375,5.345,5.345,0,0,0-.444.438.131.131,0,0,0-.024.134l.363.932-.046.07a4.24,4.24,0,0,0-.42.844l-.03.079-.964.272a.127.127,0,0,0-.091.1,5.248,5.248,0,0,0-.088,1.235.13.13,0,0,0,.078.113l.918.4.018.082a4.353,4.353,0,0,0,.3.892l.036.076-.49.871a.131.131,0,0,0,.006.138,5.907,5.907,0,0,0,.376.492,5.409,5.409,0,0,0,.435.439.129.129,0,0,0,.134.025Zm2.347,1.386a5.029,5.029,0,0,1-.752-.057l-.106-.015-.267-.955A.13.13,0,0,0,627,174.1a3.974,3.974,0,0,1-1.045-.522.132.132,0,0,0-.122-.015l-.92.362-.077-.074c-.1-.094-.19-.191-.276-.29s-.165-.2-.25-.318l-.063-.085.485-.861a.128.128,0,0,0,0-.122,4.089,4.089,0,0,1-.37-1.108.126.126,0,0,0-.075-.095l-.91-.4v-.107a5.1,5.1,0,0,1,.056-.8l.017-.1.954-.269a.13.13,0,0,0,.088-.084,4.009,4.009,0,0,1,.522-1.048.13.13,0,0,0,.015-.121l-.359-.922.072-.076c.094-.1.192-.19.291-.278s.216-.177.319-.252l.085-.063.86.486a.125.125,0,0,0,.122,0,3.853,3.853,0,0,1,1.111-.371.131.131,0,0,0,.1-.076l.4-.907h.106a4.655,4.655,0,0,1,.8.055l.106.017.266.954a.13.13,0,0,0,.086.088,3.922,3.922,0,0,1,1.045.522.126.126,0,0,0,.121.014l.922-.36.076.074c.1.1.195.2.278.292s.166.2.25.314l.062.085-.487.86a.13.13,0,0,0,0,.123,3.927,3.927,0,0,1,.373,1.108.128.128,0,0,0,.076.1l.908.4v.107a4.894,4.894,0,0,1-.058.8l-.015.1-.954.268a.133.133,0,0,0-.089.085,3.826,3.826,0,0,1-.523,1.049.13.13,0,0,0-.014.123l.365.917-.075.077c-.1.106-.2.2-.291.278s-.208.17-.318.25l-.084.062-.864-.484a.128.128,0,0,0-.122,0,3.894,3.894,0,0,1-1.109.371.13.13,0,0,0-.1.075l-.4.909Zm-.775-.165.038,0a5,5,0,0,0,.737.056h.087l.375-.846a.231.231,0,0,1,.173-.136,3.754,3.754,0,0,0,1.079-.361.233.233,0,0,1,.222,0l.8.451.032-.023c.108-.078.212-.161.311-.244s.183-.168.284-.272l.027-.028-.341-.856a.236.236,0,0,1,.027-.222,3.77,3.77,0,0,0,.509-1.02.233.233,0,0,1,.159-.154l.89-.249.006-.038a4.841,4.841,0,0,0,.056-.784v-.039l-.847-.37a.233.233,0,0,1-.136-.174,3.806,3.806,0,0,0-.363-1.079.237.237,0,0,1,0-.222l.454-.8-.023-.031c-.082-.113-.163-.214-.246-.307s-.17-.187-.272-.286l-.027-.027-.859.336a.231.231,0,0,1-.219-.026,3.779,3.779,0,0,0-1.017-.508.235.235,0,0,1-.154-.159l-.248-.89-.038-.006a4.445,4.445,0,0,0-.787-.053h-.039l-.369.845a.229.229,0,0,1-.174.136,3.771,3.771,0,0,0-1.081.362.23.23,0,0,1-.222,0l-.8-.453-.031.023c-.1.074-.2.154-.312.246s-.192.177-.285.272l-.026.027.335.86a.232.232,0,0,1-.026.218,3.852,3.852,0,0,0-.508,1.021.236.236,0,0,1-.159.153l-.89.25-.006.038a4.768,4.768,0,0,0-.055.787v.039l.847.369a.229.229,0,0,1,.135.172,4,4,0,0,0,.361,1.08.231.231,0,0,1,0,.221l-.451.8.023.031c.083.115.164.217.244.311s.177.192.272.284l.027.027.858-.338a.236.236,0,0,1,.221.027,3.854,3.854,0,0,0,1.017.509.232.232,0,0,1,.153.159Z" transform="translate(-623.013 -165.217)" fill="#f2f6f7"/>
        </g>
        <g id="Grupo_87439" data-name="Grupo 87439" transform="translate(3.439 3.437)">
          <path id="Trazado_110171" data-name="Trazado 110171" d="M627.638,171.478a1.638,1.638,0,1,1,1.638-1.638A1.639,1.639,0,0,1,627.638,171.478Zm0-3.02a1.382,1.382,0,1,0,1.382,1.382A1.384,1.384,0,0,0,627.638,168.458Z" transform="translate(-625.895 -168.098)" fill="#f2f6f7"/>
          <path id="Trazado_110172" data-name="Trazado 110172" d="M627.654,171.6a1.743,1.743,0,1,1,1.742-1.742A1.745,1.745,0,0,1,627.654,171.6Zm0-3.276a1.534,1.534,0,1,0,1.534,1.534A1.536,1.536,0,0,0,627.654,168.323Zm0,3.02a1.486,1.486,0,1,1,1.487-1.486A1.488,1.488,0,0,1,627.654,171.343Zm0-2.764a1.278,1.278,0,1,0,1.278,1.278A1.279,1.279,0,0,0,627.654,168.579Z" transform="translate(-625.911 -168.114)" fill="#f2f6f7"/>
        </g>
      </g>
      <g id="Grupo_87442" data-name="Grupo 87442" transform="translate(205.634 86.351)">
        <path id="Trazado_110173" data-name="Trazado 110173" d="M600.433,227.408l-.91-3.765a9.324,9.324,0,0,0,1.264-.222,9.512,9.512,0,0,0,1.937-.72l.911,3.771a9.657,9.657,0,0,1-3.2.936Z" transform="translate(-533.048 -99.22)" fill="#6eb4c7"/>
        <path id="Trazado_110174" data-name="Trazado 110174" d="M573.489,188.371l.453-1.8c.933.3,1.881.565,2.848.8.6.146,1.2.274,1.806.389l-.452,1.8q-.9-.178-1.806-.392Q574.893,188.815,573.489,188.371Z" transform="translate(-537.907 -105.963)" fill="#b4d6df"/>
        <ellipse id="Elipse_4396" data-name="Elipse 4396" cx="46.977" cy="3.852" rx="46.977" ry="3.852" transform="translate(5.577 138.149)" fill="#81aebb" opacity="0.6"/>
        <path id="Trazado_110175" data-name="Trazado 110175" d="M589.824,132.82s3.31-4.2,2.341-9.028c-.511-2.545-6.861-4.427-9.034-4.427s-1.891,2.95-1.891,2.95-4.019,5.194-4.341,6.1l2.04,1.428s-2.391,4.342-1.063,5a27.013,27.013,0,0,0,4.6.707l.547,6.426,6.585-2.047Z" transform="translate(-537.27 -118.505)" fill="#e0beab"/>
        <path id="Trazado_110176" data-name="Trazado 110176" d="M585.551,122.5c.138-1.521-3.139-.472-4.744-.953-1.021-.306-.036-2.042,1.246-2.62,2.377-1.074,5.807,1.267,5.807,1.267s3.5,1.659,4.055,3.966-1.384,8.439-1.384,8.439,1.3-.641-1.058-1.22-1.251-3.226-2.517-3.355-3.228,2.182-3.228,2.182l-1.5-.358S585.412,124.018,585.551,122.5Z" transform="translate(-536.62 -118.64)" fill="#204a59"/>
        <path id="Trazado_110177" data-name="Trazado 110177" d="M587.185,129.248l-2.772,4.8-2.533.522-.277-.864,2.658-.275,2.625-4.184Z" transform="translate(-536.393 -116.661)" fill="#cdaf97"/>
        <path id="Trazado_110178" data-name="Trazado 110178" d="M577.963,126.855l2.421-4.061-3.485,4.984.326.338Z" transform="translate(-537.271 -117.865)" fill="#cdaf97"/>
        <path id="Trazado_110179" data-name="Trazado 110179" d="M572.578,243.633l7.924,2.3,2.219-25.508-.89-8.363,3.559-26.514,7.118,24.912,12.812,35.485h7.83l-5.979-22.637-5.321-16.5-2.224-30.355-16.813-1.087-9.7-1.048Z" transform="translate(-538.077 -108.248)" fill="url(#linear-gradient)"/>
        <path id="Trazado_110180" data-name="Trazado 110180" d="M552.233,146.78l13.493,4.925s.566,1.424,1.634-.109c.674-.967,5.889-6.672,9.641-10.747l3.4-4.064.386-.027.1-.108-.011.1,4.643-.338,2.31,19.873,9.251-21.086,10.943,7.852,2.944,5.168.712,11.21-7.927-6.3-1.068,13.179,1.513,18.433-28.471-1.869,3.2-29.525-2.335,1.508-9.939,7.952s-1.78,0-2.361-.774-14.278-8.119-14.278-8.119Z" transform="translate(-542.289 -115.551)" fill="#729edb"/>
        <path id="Trazado_110181" data-name="Trazado 110181" d="M579.916,209.42l.747,9.343-1.631,25.151,2.525-25.6-.827-8.8,3.457-25.18-.979-3.47Z" transform="translate(-536.873 -107.029)" fill="#0d0e20" opacity="0.6"/>
        <rect id="Rectángulo_34158" data-name="Rectángulo 34158" width="0.272" height="3.903" transform="translate(58.692 103.997) rotate(-43.152)" fill="#3a2e65"/>
        <path id="Trazado_110182" data-name="Trazado 110182" d="M562.081,239.062h15.3l1.156-1.068.979,1.068h2.674v-4.906l-7.608-1.013-3.785,3.385-8.72,1.9Z" transform="translate(-540.036 -97.271)" fill="#18142d"/>
        <path id="Trazado_110183" data-name="Trazado 110183" d="M600.471,239.4l7.626-.374.2-2.028-1.068-2.313-6.762.267Z" transform="translate(-532.871 -96.984)" fill="#18142d"/>
        <path id="Trazado_110184" data-name="Trazado 110184" d="M582.242,156.266l8.984-20.82-1.136-.158-6.071,3.272-2.578-2.7-1.51.534Z" transform="translate(-536.705 -115.533)" fill="#fff"/>
        <path id="Trazado_110185" data-name="Trazado 110185" d="M583.255,140.729l-2.094,7.67.851,7.366,3.2-7.3-1.159-7.557,1.159-1.246-1.335-1.69-1.426,1.6Z" transform="translate(-536.475 -115.033)" fill="#ed971b"/>
        <path id="Trazado_110186" data-name="Trazado 110186" d="M593.264,139.29l-11.386,16.994,9.251-21.087L593,137.688l-1.74.084Z" transform="translate(-536.341 -115.551)" fill="#729edb"/>
        <path id="Trazado_110187" data-name="Trazado 110187" d="M577.527,137.586l5.163,18.506L580.38,136.22Z" transform="translate(-537.153 -115.36)" fill="#729edb"/>
        <path id="Trazado_110188" data-name="Trazado 110188" d="M599.589,177.508l-13.613-.534-12.723-1.6,26.514,1.157Z" transform="translate(-537.951 -108.052)" fill="#39667c"/>
        <path id="Trazado_110189" data-name="Trazado 110189" d="M582.021,182.235l-.228-.008.8-26.372-5.158-18.222.22-.062,5.168,18.257v.018Z" transform="translate(-537.171 -115.108)" fill="#729edb"/>
        <rect id="Rectángulo_34159" data-name="Rectángulo 34159" width="5.719" height="0.272" transform="matrix(0.094, -0.996, 0.996, 0.094, 61.324, 37.517)" fill="#352d62"/>
        <rect id="Rectángulo_34160" data-name="Rectángulo 34160" width="8.333" height="0.271" transform="translate(36.501 37.786) rotate(-85.515)" fill="#325869"/>
        <path id="Trazado_110190" data-name="Trazado 110190" d="M548.165,142.075l-1.008.972,1.382,2.112-3.093-.519-1.943,1.467.08,1.232,2.666,1.621,2.865.94,2.554.3,1.543-2.943Z" transform="translate(-543.503 -114.267)" fill="#e0beab"/>
        <rect id="Rectángulo_34161" data-name="Rectángulo 34161" width="0.272" height="5.965" transform="matrix(0.715, -0.699, 0.699, 0.715, 59.812, 103.376)" fill="#3a2e65"/>
        <rect id="Rectángulo_34162" data-name="Rectángulo 34162" width="0.272" height="3.902" transform="matrix(0.73, -0.684, 0.684, 0.73, 36.004, 102.573)" fill="#3a2e65"/>
        <path id="Trazado_110191" data-name="Trazado 110191" d="M576.576,149.218l-.089,1.273-12.456,9.7Z" transform="translate(-539.672 -112.934)" fill="#729edb"/>
        <path id="Trazado_110192" data-name="Trazado 110192" d="M601.244,155.2h0l-5.872-4.507.267-1.246,6.4,5.725Z" transform="translate(-533.823 -112.892)" fill="#18142d" opacity="0.6"/>
        <g id="Grupo_87441" data-name="Grupo 87441" transform="translate(60.601 24.803)">
          <path id="Trazado_110193" data-name="Trazado 110193" d="M602.124,162.918l-7.552-7.788,1.474-15.588,4.113,2.952,9.763,18.141-1.708,22.606-6.065-1.222Z" transform="translate(-594.573 -139.542)" fill="#729edb"/>
        </g>
        <path id="Trazado_110194" data-name="Trazado 110194" d="M599.452,181.447l1.171.626,1.578-1.734.359,2.812-2.1,4.4,1.361.05,2.624-3.144,1.893-3.1.092-2.722-.419-2.289-3.139-.589Z" transform="translate(-533.061 -107.981)" fill="#e0beab"/>
      </g>
      <g id="Grupo_87444" data-name="Grupo 87444" transform="translate(141.814 97.542)">
        <ellipse id="Elipse_4397" data-name="Elipse 4397" cx="34.147" cy="2.783" rx="34.147" ry="2.783" transform="translate(0 137.575)" fill="#81aebb" opacity="0.6"/>
        <g id="Grupo_87443" data-name="Grupo 87443" transform="translate(27.913 4.201)">
          <path id="Trazado_110195" data-name="Trazado 110195" d="M515.762,145.133s-3.31-4.222-2.341-9.072c.511-2.558,6.862-4.45,9.035-4.45s3.158,2.965,3.158,2.965l2.3,6.84s1.126,5.092-.2,5.75a26.877,26.877,0,0,1-4.605.712l-.546,6.458-6.586-1.55Z" transform="translate(-513.243 -131.611)" fill="#e0beab"/>
          <path id="Trazado_110196" data-name="Trazado 110196" d="M516.851,141.543l2.773,4.825,2.534.525.277-.868-2.659-.277-2.625-4.205Z" transform="translate(-512.57 -129.757)" fill="#cdaf97"/>
        </g>
        <path id="Trazado_110197" data-name="Trazado 110197" d="M508.626,245.353c-2.151.4-5.441.886-5.441.886l-.191-1.9.323-2.164,7.489-.208,3.7.612.846.718S510.292,245.046,508.626,245.353Z" transform="translate(-487.243 -106.814)" fill="#18142d"/>
        <path id="Trazado_110198" data-name="Trazado 110198" d="M534.5,252.054l-7.413,2.153-2.076-27.957.832-7.824-3.33-24.805-6.659,23.307-5.412,37.28H503.2l1.953-25.088,1.965-15.6,2.081-27.82,15.73-1.017L534,183.7Z" transform="translate(-487.205 -117.689)" fill="url(#linear-gradient-2)"/>
        <path id="Trazado_110199" data-name="Trazado 110199" d="M548.743,188.244S544,167.232,543,165.8c-.631-.905-4.28-8.544-7.791-12.355l-2.331-2.787-1.038-1.041a.653.653,0,0,0-.263-.1l.011.094-4.343-.317-3.825,0-6.992-.117-8.044,3.221-8.121,20.593-1.9,19.589,5.891-.472-.154-18.44,6.333-7.224.749,8.794-1.414,17.823,26.636-1.748-2.994-28.2-.063,1.41,5.679,8.635,3.473,15.707Z" transform="translate(-488.107 -124.133)" fill="#ed971b"/>
        <path id="Trazado_110200" data-name="Trazado 110200" d="M523.474,216.044l-.7,8.741,1.526,27.623-2.362-28.045.773-8.235-3.234-23.557.916-3.246Z" transform="translate(-484.167 -116.639)" fill="#18142d" opacity="0.6"/>
        <path id="Trazado_110201" data-name="Trazado 110201" d="M537.61,247.225H527.124l-.792-1-.671,1h-1.833v-4.589l5.213-.948,2.594,3.167,5.975,1.777Z" transform="translate(-483.355 -106.867)" fill="#18142d"/>
        <path id="Trazado_110202" data-name="Trazado 110202" d="M505.911,191.114l-1.138.608-1.532-1.685-.348,2.731,2.042,4.278-1.322.049-2.548-3.054-1.838-3.015-.089-2.644.406-2.223,3.049-.572Z" transform="translate(-487.963 -117.337)" fill="#e0beab"/>
        <path id="Trazado_110203" data-name="Trazado 110203" d="M508.212,186.677l12.736-.5,11.9-1.5-24.805,1.082Z" transform="translate(-486.301 -117.506)" fill="#18142d" opacity="0.6"/>
        <path id="Trazado_110204" data-name="Trazado 110204" d="M535.158,188.573l1.236.4,1.172-1.921.88,2.624-1.162,4.558,1.308-.181,1.9-3.442,1.211-3.281-.433-2.614-.837-2.115-3.105-.035Z" transform="translate(-481.24 -117.9)" fill="#e0beab"/>
        <path id="Trazado_110205" data-name="Trazado 110205" d="M526.845,132.351c-.456-.812-2.295-1.368-3.535-1.514,0,0-.812-4.173-3.968-2.268s-5.928,3.344-6.8,6.687c-.445,1.705-.195,7.3.83,11.184s7.75,2.436,8.753,1.244c.4-.472.608-1.891.854-3.626a7.618,7.618,0,0,1-1.13-1.327c-1.025-1.5-.758-2.244-.259-2.684.47-.414.979-.418,1.889.833.116-.608.248-1.21.4-1.787.309-1.133.346-2.582,1.019-3.218C526.333,134.52,527.361,133.271,526.845,132.351Z" transform="translate(-485.501 -128.071)" fill="#204a59"/>
        <path id="Trazado_110206" data-name="Trazado 110206" d="M508.385,151.885l-2.194,1.081s-5.839,12.639-6.9,19.29-.926,19.811-.926,19.811l5.891-.472s.435-11.515,1.934-17.121a21.388,21.388,0,0,1,4.245-8.544l.453,5.322q.011-.534.011-1.074C510.9,163.283,510.391,156.935,508.385,151.885Z" transform="translate(-488.108 -123.627)" fill="url(#linear-gradient-3)"/>
      </g>
      <g id="Grupo_87445" data-name="Grupo 87445" transform="translate(15.388 90.655)">
        <ellipse id="Elipse_4398" data-name="Elipse 4398" cx="34.147" cy="2.783" rx="34.147" ry="2.783" transform="translate(0 138.789)" fill="#81aebb" opacity="0.6"/>
        <path id="Trazado_110207" data-name="Trazado 110207" d="M408.586,185.063a.25.25,0,0,0,.242-.182l1.694-6.187a.244.244,0,0,0-.178-.3.249.249,0,0,0-.306.172l-1.695,6.188a.249.249,0,0,0,.242.307Z" transform="translate(-378.484 -111.794)" fill="#474985"/>
        <path id="Trazado_110208" data-name="Trazado 110208" d="M396.32,176.9l26.7-.763c.28,4.923.929,18.5,1.425,26.035,1.083,21.064,3.117,47.875,3.117,47.875l3.038,3.146h-7.51l-9.265-51.02-2.94-14.92-1.862.037-1.252,14.883-5.027,51.02h-6.326l1.57-2.869s-1.162-23.747-1.69-48.151C396.124,195.564,396.1,183.054,396.32,176.9Z" transform="translate(-380.756 -112.214)" fill="url(#linear-gradient-4)"/>
        <path id="Trazado_110209" data-name="Trazado 110209" d="M388.978,165.992a5.64,5.64,0,0,1,.271-1.493,20.491,20.491,0,0,1,1.681-5.07l4.781-11.1a25.662,25.662,0,0,1,2.732-4.48c2-2.7,4.978-3.586,8.722-3.573,1.747.006-2.907,7.036-4.018,8.753-1.642,2.538-2.18,5.622-4.737,10.421-.856,1.6-1.537,4.1-2.536,5.987.023.346.024.7.02,1.041q-.037,3.718-.076,7.437a24.277,24.277,0,0,0,.464,6.518,2.326,2.326,0,0,1-.935,2.444,3.6,3.6,0,0,1-2.252.877,45.91,45.91,0,0,1-3.6-10.352q-.226-1.141-.361-2.293A30.461,30.461,0,0,1,388.978,165.992Z" transform="translate(-382.104 -118.906)" fill="#4374af"/>
        <path id="Trazado_110210" data-name="Trazado 110210" d="M395.73,186.048l27.791,1.146c-.075-4.881-.408-11.673-.654-15.433-.02-.241-.03-.472-.039-.7-.17-2.417-.266-4.79-.235-7.326,0-.25,0-.5.011-.752.021-.994.072-2.017.153-3.078.125-1.722.319-3.548.609-5.536.4-2.77,2.129-6.67,1.681-8.81-.559-2.59-2.865-4.595-5.678-5.421a10.131,10.131,0,0,0-3.241-.422l-11.549.382c-7.96.262-8.813,7.922-8.61,13.188.16,4.173.432,8.35.623,12.532a83.748,83.748,0,0,1-.35,14.206C396.082,181.678,395.766,184.367,395.73,186.048Z" transform="translate(-380.836 -119.011)" fill="#729edb"/>
        <path id="Trazado_110211" data-name="Trazado 110211" d="M404.686,161.632c3.5,1.565,11.938,4.61,13.655,5.565a30.2,30.2,0,0,0,3.037,1.46c-.02-.241-.03-.472-.039-.7-.17-2.417-.267-4.79-.236-7.326a61.632,61.632,0,0,1-9.359-2.755c-.943-.386-4.313-2.233-4.961-1.2a10.949,10.949,0,0,1-2.456,2.421A1.458,1.458,0,0,0,404.686,161.632Z" transform="translate(-379.342 -115.903)" fill="#4374af"/>
        <path id="Trazado_110212" data-name="Trazado 110212" d="M400.957,149.2a.883.883,0,0,0,.017.229l2.24,8.5a1.017,1.017,0,0,0,.978.691l4.847-.109a.833.833,0,0,0,.413-.129l0-.01a.539.539,0,0,0,.184-.592l-2.239-8.5a1,1,0,0,0-.969-.68l-4.847.11A.6.6,0,0,0,400.957,149.2Z" transform="translate(-379.861 -117.355)" fill="#686868"/>
        <path id="Trazado_110213" data-name="Trazado 110213" d="M400.957,149.141a.883.883,0,0,0,.017.229l2.24,8.5a1.017,1.017,0,0,0,.978.691l4.847-.109a.833.833,0,0,0,.413-.129l0-.01a.448.448,0,0,0-.015-.229l-2.239-8.5a1.009,1.009,0,0,0-.98-.681l-4.846.11A.725.725,0,0,0,400.957,149.141Z" transform="translate(-379.861 -117.298)" fill="#3e403f"/>
        <path id="Trazado_110214" data-name="Trazado 110214" d="M408.044,155.7c1.655.724,1.913,3.06,2.562,3.895.786,1.009-.818,1.334-2.558,1.118-1.559-.192-3.466-.848-4.087-1.584a4.091,4.091,0,0,1-1.14-3.258C402.87,154.326,405.882,154.755,408.044,155.7Z" transform="translate(-379.514 -116.187)" fill="#ecc7a4"/>
        <path id="Trazado_110215" data-name="Trazado 110215" d="M408.26,159.859c.636-.723,1.306-.193,2.245.088,3.366,1.007,9.206.761,13.557,1.276-.3-.693-.57-1.36-.831-1.952-2.573-5.843-4.09-8.314-5.078-10.406-.923-1.956-5.13-9.068-3.4-9.125,4.389-.145,6.982.85,8.767,3.873a85.5,85.5,0,0,1,6.843,15.1c.8,2.156,1.83,3.54,1.982,5.631.008.061.008,1.417.012,1.479.047,1-.126.548-.638,1.124-.052.1-.1.2-.157.306-1.142,2.023-8.773,1.636-13.886-.4-2.427-.967-9.834-4.354-9.834-4.354A2.627,2.627,0,0,1,408.26,159.859Z" transform="translate(-378.611 -119.009)" fill="#729edb"/>
        <path id="Trazado_110216" data-name="Trazado 110216" d="M404.79,140.038a2.814,2.814,0,0,0,.275.7,3.787,3.787,0,0,0,3.668,1.8,7.893,7.893,0,0,0,5.4-2.657,1.98,1.98,0,0,0,.138-.153Z" transform="translate(-379.145 -119.009)" fill="#b17b45"/>
        <path id="Trazado_110217" data-name="Trazado 110217" d="M413.293,135.047V140.9s-4.436,5.014-8.509.116l.356-5.972Z" transform="translate(-379.147 -119.882)" fill="#e0beab"/>
        <path id="Trazado_110218" data-name="Trazado 110218" d="M408.823,138.788c.108.015.218.027.329.036a4.965,4.965,0,0,0,3.648-1.15.2.2,0,0,0,0-.3.253.253,0,0,0-.332-.017,4.518,4.518,0,0,1-6.568-.806.255.255,0,0,0-.328-.061.2.2,0,0,0-.052.293A5.09,5.09,0,0,0,408.823,138.788Z" transform="translate(-379.017 -119.619)" fill="#b07762"/>
        <path id="Trazado_110219" data-name="Trazado 110219" d="M415.254,130.473c.532,4.775-.069,9.94-3.707,10.277a7.381,7.381,0,0,1-8.311-6.65c-.532-4.775,1.954-9.285,5.555-10.074S414.722,125.7,415.254,130.473Z" transform="translate(-379.449 -121.966)" fill="#ecc7a4"/>
        <path id="Trazado_110220" data-name="Trazado 110220" d="M415.165,126.411a1.717,1.717,0,0,0-.253-1.569,3.931,3.931,0,0,0-.262-.365,9.463,9.463,0,0,0-1.591-1.506c-.019,0-.039,0-.057.007-2.753-.869-5.938-1.079-8.429.159a3.989,3.989,0,0,0-2.208,2.485c-.646,1.368-.453,3.573-.1,5.231.095.452.2.863.307,1.207.484,1.592,1.106,3.75,2.389,4.957a1.6,1.6,0,0,0,1.093.393l.057-.011c-.046-.072-.094-.148-.135-.228a5.992,5.992,0,0,1-.1-1.5.869.869,0,0,1-.532.282,1.1,1.1,0,0,1-.631-.214,2.044,2.044,0,0,1-.947-1.84,3.787,3.787,0,0,1,.114-.851l.007-.014a1.466,1.466,0,0,1,.275-.585.489.489,0,0,1,.375-.187,1.365,1.365,0,0,1,.753.5c.015.02.029.04.042.058q.061.342.146.672c.059.255.135.51.214.758a2.9,2.9,0,0,0,.943.39l.013-.166a11.529,11.529,0,0,1-.418-4.284c.013-.355.031-.71.042-1.066.014-.33.024-.657.024-.985l0-.052a13.232,13.232,0,0,0,4.307-.744,5.135,5.135,0,0,0-1.308.872c-.132.113-.258.23-.381.348-.3.282-.584.572-.883.841a11.885,11.885,0,0,0,5.983-1.9c.248-.155.481-.31.691-.465l.006.007.007.011c.033.375.057.755.075,1.14a28.1,28.1,0,0,1-.053,4.167.5.5,0,0,1,.079.007c.07-.365.173-.721.269-1.076a8,8,0,0,0,.3-1.479C415.462,128.823,415.7,127.337,415.165,126.411Z" transform="translate(-379.677 -122.267)" fill="#204a59"/>
        <path id="Trazado_110221" data-name="Trazado 110221" d="M397.078,175.715h0c-.419-.382-.871-.815-1.32-1.207a1.343,1.343,0,0,0-.18.225,3.733,3.733,0,0,1-3.293,2.418c.375.579.725,1.037,2.766,2.523a5.767,5.767,0,0,0,3.6.883,1.472,1.472,0,0,0,1.321-1.13A37.916,37.916,0,0,0,397.078,175.715Z" transform="translate(-381.479 -112.518)" fill="#ecc7a4"/>
        <path id="Trazado_110222" data-name="Trazado 110222" d="M399.461,238.5l3.794.215-.326,2.834h-8.036Z" transform="translate(-380.992 -100.575)" fill="#18142d"/>
        <path id="Trazado_110223" data-name="Trazado 110223" d="M432.482,242.025H422l-.792-1-.671,1H418.7v-4.589l5.213-.948,2.593,3.167,5.975,1.777Z" transform="translate(-376.549 -100.95)" fill="#18142d"/>
      </g>
      <g id="Grupo_87447" data-name="Grupo 87447" transform="translate(76.899 93.952)">
        <ellipse id="Elipse_4399" data-name="Elipse 4399" cx="25.96" cy="3.614" rx="25.96" ry="3.614" transform="translate(0 139.919)" fill="#81aebb" opacity="0.6"/>
        <path id="Trazado_110224" data-name="Trazado 110224" d="M461.344,138.436s.595-10.444-2.247-11.528-4.888,3.981-4.888,3.981a15.136,15.136,0,0,0-1.717,4.627,4.377,4.377,0,0,0,.613,3.312s3.741.316,4.843,3.439-.272,11.824-.272,11.824,8.315-2.6,5.729-6.555C461.17,144.111,461.344,138.436,461.344,138.436Z" transform="translate(-431.766 -124.727)" fill="#204a59"/>
        <ellipse id="Elipse_4400" data-name="Elipse 4400" cx="5.748" cy="17.765" rx="5.748" ry="17.765" transform="translate(21.877 4.616) rotate(-23.672)" fill="#204a59"/>
        <g id="Grupo_87446" data-name="Grupo 87446" transform="translate(9.465 64.719)">
          <path id="Trazado_110225" data-name="Trazado 110225" d="M449.428,243.651l6.016.355,1.895-22.49,1.7-7.98.839-7.921,2.587,8,6.178,30.4h5.076l-1.292-20.364-1.777-14.839-1.442-27.306-10.9-.978-6.288-.943Z" transform="translate(-441.791 -179.586)" fill="url(#linear-gradient-5)"/>
          <path id="Trazado_110226" data-name="Trazado 110226" d="M471.481,245.86l-9.576,1.065,6.232-5.022v-7.761h2.584l.152,6.392Z" transform="translate(-439.462 -169.404)" fill="#cdaf97"/>
          <path id="Trazado_110227" data-name="Trazado 110227" d="M469.46,243.929s-3.9.36-5.473.571a10.7,10.7,0,0,0-5.092,2.092h5.244l5.321-1.693v1.236h2.507v-3.272Z" transform="translate(-440.024 -167.777)" fill="url(#linear-gradient-2)"/>
          <path id="Trazado_110228" data-name="Trazado 110228" d="M455.578,245.585,446,246.65l6.232-5.022v-7.761h2.584l.152,6.392Z" transform="translate(-442.43 -169.456)" fill="#cdaf97"/>
          <path id="Trazado_110229" data-name="Trazado 110229" d="M453.555,243.653s-3.9.36-5.472.571a10.711,10.711,0,0,0-5.092,2.092h5.244l5.32-1.693v1.238h2.507v-3.273Z" transform="translate(-442.992 -167.828)" fill="url(#linear-gradient-7)"/>
        </g>
        <path id="Trazado_110230" data-name="Trazado 110230" d="M470.258,158.437,465.4,143.545l-6.992,3.266a46.087,46.087,0,0,0-4.309,10.675c-1.054,4.354-.587,8.8-.455,12.456.3,8.319-2.868,17.652-2.868,17.652s4.793-.3,9.252-.1a57.236,57.236,0,0,1,9.163,1.316s-3.859-9.068-3.877-15.187S470.258,158.437,470.258,158.437Z" transform="translate(-432.074 -121.593)" fill="#729edb"/>
        <path id="Trazado_110231" data-name="Trazado 110231" d="M484.97,165.676l-21.2-21.568A8.181,8.181,0,0,0,462,150.662c.507,4.261,6.173,7.67,6.173,7.67L477,168.5l-4.458,4.28,2.634,5.885s7.689-6.127,9.367-7.578S484.97,165.676,484.97,165.676Z" transform="translate(-429.993 -121.488)" fill="#729edb"/>
        <path id="Trazado_110232" data-name="Trazado 110232" d="M462.15,138.515l-5.543-10.868-1.562,2.665a7.724,7.724,0,0,0-.9,1.729c-.18.594-2.249,2.448-1.546,2.665a.733.733,0,0,1,.505.578,7.071,7.071,0,0,1-.13,1.558,4.374,4.374,0,0,0,1.064,3.2s3.75-.2,5.27,2.739,0,6.294,0,6.294,9.234,1.741,6.129-1.826C462.758,144.16,462.15,138.515,462.15,138.515Z" transform="translate(-431.76 -124.56)" fill="#ecc7a4"/>
        <ellipse id="Elipse_4401" data-name="Elipse 4401" cx="3.833" cy="6.141" rx="3.833" ry="6.141" transform="translate(23.018 3.744) rotate(-23.646)" fill="#204a59"/>
        <path id="Trazado_110233" data-name="Trazado 110233" d="M466.461,175.037l7.112-2.576-1.062-2.878-6.852,2.743Z" transform="translate(-429.297 -116.734)" fill="#ecc7a4"/>
        <ellipse id="Elipse_4402" data-name="Elipse 4402" cx="4.87" cy="2.017" rx="4.87" ry="2.017" transform="translate(28.445 55.119)" fill="#ecc7a4"/>
        <path id="Trazado_110234" data-name="Trazado 110234" d="M458.027,126.8a11.119,11.119,0,0,0-1.134.4,18.389,18.389,0,0,1,6.914,9.957c.17.581.309,1.163.424,1.743,3.167-1.819,4.919-5.034,4.059-7.98C467.236,127.3,462.64,125.458,458.027,126.8Z" transform="translate(-430.933 -124.8)" fill="#204a59"/>
      </g>
      <path id="Trazado_110235" data-name="Trazado 110235" d="M442.269,59.273C435.376,57.236,420.159,61,408.4,64.522s-22.19,9.007-26.48,14.05c-1.933,2.274-1.991,5.515-1.266,8.081,2.335,8.255,5.873,20.765,5.873,20.765s1.27,4.205,10.136,2.386l1.1-.227c.243,6.834,6.687,12.339,14.747,12.68a15.828,15.828,0,0,1-4.636-11.227,16.015,16.015,0,0,1,.414-3.619c7.448-1.5,15.582-3,21.289-3.531,9.008-.834,10.212-7.939,10.212-7.939s3.434-14.865,5.7-28.086C446.264,63.342,445.373,60.191,442.269,59.273Z" transform="translate(-368.343 -43.476)" fill="#153f5e"/>
      <path id="Trazado_110236" data-name="Trazado 110236" d="M559.874,75.295c-.736-3.046-3.737-6.352-6.829-6.987a22.737,22.737,0,0,0-4.475-.432c-13.315,0-42.484.9-56.525.293-6.75-.293-9.32,2.9-9.431,7.463-.336,13.688,7.692,41.258,18.923,41.258,26.16,0,43.236-1.175,43.236-1.175s7.636,9.612,8.634,10.451,2.046,1.62,2.249.36C557.023,118.053,562.151,84.736,559.874,75.295Z" transform="translate(-349.235 -41.763)" fill="#ed971b"/>
      <path id="Trazado_110237" data-name="Trazado 110237" d="M633.807,78.05c-2.606-14.1-25.985-21.518-42.746-18.794s-30.113,15.092-26.592,30.458c4.02,17.557,19.266,23.318,36.027,20.594a46.921,46.921,0,0,0,16.418-6.3,20.757,20.757,0,0,1,.291,12.979c4.856-2.488,8.285-8.5,8.285-15.532a20.989,20.989,0,0,0-.331-3.715C631.278,91.907,635.059,84.825,633.807,78.05Z" transform="translate(-334.062 -43.476)" fill="#729edb"/>
      <path id="Trazado_110238" data-name="Trazado 110238" d="M458.914,108.861l-4.583-.571a8.028,8.028,0,0,1-7.227-8.869l6.587-46.69a8.349,8.349,0,0,1,9.436-6.792l36.326,4.527a8.028,8.028,0,0,1,7.227,8.869l-6.587,46.69a8.348,8.348,0,0,1-9.435,6.792l-22.165-2.762c-4.341,7-10.715,11.586-17.712,11.826a16.188,16.188,0,0,1-2.889-.165C452.743,119.4,456.372,114.792,458.914,108.861Z" transform="translate(-355.874 -45.87)" fill="#729edb"/>
      <g id="Grupo_87448" data-name="Grupo 87448" transform="translate(8.317 165.879)" style="isolation: isolate">
        <path id="Trazado_110239" data-name="Trazado 110239" d="M379.946,190.618H377.22v-1.791h2.726V185.66h1.672v3.167h2.726v1.791h-2.726v3.167h-1.672Z" transform="translate(-377.22 -185.66)" fill="#fcfdff"/>
      </g>
      <g id="Grupo_87449" data-name="Grupo 87449" transform="translate(156.115 52.266)">
        <circle id="Elipse_4403" data-name="Elipse 4403" cx="3.503" cy="3.503" r="3.503" fill="#fff"/>
        <circle id="Elipse_4404" data-name="Elipse 4404" cx="3.503" cy="3.503" r="3.503" transform="translate(13.806)" fill="#fff"/>
        <circle id="Elipse_4405" data-name="Elipse 4405" cx="3.503" cy="3.503" r="3.503" transform="translate(27.759)" fill="#fff"/>
      </g>
      <g id="Grupo_87450" data-name="Grupo 87450" transform="translate(248.077 33.487)">
        <rect id="Rectángulo_34163" data-name="Rectángulo 34163" width="31.271" height="1.565" fill="#fff"/>
        <rect id="Rectángulo_34164" data-name="Rectángulo 34164" width="31.271" height="1.565" transform="translate(0 4.391)" fill="#fff"/>
        <rect id="Rectángulo_34165" data-name="Rectángulo 34165" width="31.271" height="1.565" transform="translate(0 8.783)" fill="#fff"/>
        <rect id="Rectángulo_34166" data-name="Rectángulo 34166" width="22.785" height="1.565" transform="translate(0 13.075)" fill="#fff"/>
      </g>
      <g id="Grupo_87451" data-name="Grupo 87451" transform="translate(33.355 35.052)">
        <path id="Trazado_110240" data-name="Trazado 110240" d="M412.636,84.958c0,2.624,0,3.063-2.188,3.063V92.9c5.1,0,6.563-3.429,6.563-9.479V75.409h-9.479v8.017h5.1Z" transform="translate(-396.601 -75.409)" fill="#fff"/>
        <path id="Trazado_110241" data-name="Trazado 110241" d="M403.421,83.426v1.532c0,2.624,0,3.063-2.187,3.063V92.9c5.1,0,6.561-3.429,6.561-9.479V75.409H398.32v8.017Z" transform="translate(-398.32 -75.409)" fill="#fff"/>
      </g>
      <g id="Grupo_87452" data-name="Grupo 87452" transform="translate(105.173 19.603)">
        <rect id="Rectángulo_34167" data-name="Rectángulo 34167" width="29.117" height="1.999" transform="matrix(0.992, 0.125, -0.125, 0.992, 2.334, 5.423)" fill="#fff"/>
        <rect id="Rectángulo_34168" data-name="Rectángulo 34168" width="29.117" height="1.999" transform="matrix(0.992, 0.125, -0.125, 0.992, 1.634, 10.991)" fill="#fff"/>
        <rect id="Rectángulo_34169" data-name="Rectángulo 34169" width="29.117" height="1.999" transform="matrix(0.992, 0.125, -0.125, 0.992, 0.934, 16.558)" fill="#fff"/>
        <rect id="Rectángulo_34170" data-name="Rectángulo 34170" width="21.216" height="1.999" transform="matrix(0.992, 0.125, -0.125, 0.992, 0.249, 22.001)" fill="#fff"/>
        <rect id="Rectángulo_34171" data-name="Rectángulo 34171" width="29.117" height="1.999" transform="matrix(0.992, 0.125, -0.125, 0.992, 3.015, 0)" fill="#fff"/>
      </g>
    </g>
  </g>
</svg>
