<svg xmlns="http://www.w3.org/2000/svg" xmlns:xlink="http://www.w3.org/1999/xlink" width="317.65" height="261.702" viewBox="0 0 317.65 261.702">
  <defs>
    <linearGradient id="linear-gradient" y1="0.5" x2="1" y2="0.5" gradientUnits="objectBoundingBox">
      <stop offset="0" stop-color="#002d49"/>
      <stop offset="1" stop-color="#002737"/>
    </linearGradient>
  </defs>
  <g id="Grupo_84893" data-name="Grupo 84893" transform="translate(-3008.974 -31.585)">
    <path id="Trazado_104482" data-name="Trazado 104482" d="M3321.768,162.964c14.86,34.559-.853,135.2-96.92,127.989-27.562-2.069-58.459-27.4-81.348-22.036s-33.667,26.628-76.721,19.616-53.057-43-43.856-69.747-15.775-35.267-13.841-58.085c1.769-20.87,33.976-25.456,48.823-41.8s20.821-48.33,54.294-48.609c37.292-.31,35.871,42.392,85.862,36.168C3253.306,99.582,3303.027,119.375,3321.768,162.964Z" transform="translate(0 -1.276)" fill="#fdeb8d"/>
    <path id="Trazado_104483" data-name="Trazado 104483" d="M3217.634,255.058c-49.749-10.062-48.134-28.143-112.207-20.876-44.387,5.033-72.988,23.867-65.276,40.589,5.817,12.615,23.319,22.212,54.918,19.793s58.787,1.729,83.318,4.533c30.872,3.53,77.988-4.848,85.059-17.411S3251.633,261.935,3217.634,255.058Z" transform="translate(-0.986 -6.623)" fill="#eaf0f9"/>
    <path id="Trazado_104484" data-name="Trazado 104484" d="M3142.866,115.721c0-.456-.007-.912-.02-1.354,0-.2-.015-.387-.023-.582-.013-.352-.024-.706-.044-1.046-.016-.3-.04-.578-.061-.866-.018-.229-.03-.467-.051-.69-.044-.508-.1-1-.156-1.477q-1.155,1.613-2.294,3.286c-.272.4-.537.807-.807,1.211-.49.732-.979,1.463-1.463,2.209-.29.449-.574.9-.863,1.358-.46.725-.919,1.452-1.37,2.187-.274.446-.543.9-.812,1.347q-.691,1.149-1.365,2.31c-.108.187-.223.37-.33.558l.081-.123c-6.747,11.745-12.007,24.382-13.224,35.482,0-.063,0-.129,0-.19-.036.313-.054.619-.083.929-.023.244-.046.488-.066.731q-.09,1.166-.117,2.306a.34.34,0,0,0-.161.142c-.91,1.763-1.755,3.549-2.81,5.231-2.262-3.257-4.536-6.5-6.873-9.7a20.985,20.985,0,0,0,2.08-6.508c.3-.38.595-.765.872-1.156.1-.148.2-.3.3-.449.229-.338.451-.681.663-1.027.1-.172.208-.344.309-.518.2-.349.393-.7.579-1.06.083-.159.168-.315.247-.476.252-.511.492-1.026.711-1.55.013-.029.022-.058.034-.087.206-.5.4-1,.573-1.513.062-.179.118-.361.177-.541.121-.369.236-.74.342-1.114q.086-.3.166-.605c.036-.135.077-.269.111-.4l-.034.082c2.94-11.7-.659-25.671-5.053-36.88l0,0-.015-.035c-.707-1.8-1.432-3.532-2.156-5.17-.044-.1-.089-.2-.134-.3q-.495-1.113-.982-2.163c-.077-.167-.154-.329-.23-.493-.325-.692-.646-1.37-.96-2.016q-.339.857-.646,1.74c-.091.263-.172.533-.259.8-.108.332-.22.66-.322,1-.086.283-.163.573-.245.861-.093.328-.188.654-.274.985-.073.278-.138.56-.207.84-.085.35-.173.7-.252,1.053-.059.266-.112.535-.167.8-.079.375-.158.75-.229,1.13-.048.255-.091.514-.136.772-.069.4-.138.791-.2,1.19-.039.252-.073.507-.109.761-.059.406-.116.812-.166,1.222-.033.258-.061.517-.09.777-.046.4-.09.807-.128,1.213-.01.095-.021.189-.03.283l.01-.056a83.172,83.172,0,0,0,.038,14.952l0-.02.009.08c.048.537.1,1.071.161,1.605.014.124.025.249.039.373q.094.831.2,1.656c.014.1.025.205.039.308q.116.857.248,1.706c.012.078.022.158.035.237q.139.885.294,1.758c.01.053.017.107.027.16q.161.9.341,1.793l.019.1q.183.911.383,1.805l.012.058a64.109,64.109,0,0,0,5.417,15.513,19.355,19.355,0,0,1-1.869,5.92c-3.008-4.1-6.124-8.114-9.453-11.986-.282-.572-.565-1.138-.85-1.733-.222-.463-.447-.939-.671-1.415-.255-.54-.51-1.08-.768-1.635-.728-1.56-1.467-3.166-2.236-4.827l0,.009a214.213,214.213,0,0,0-9.747-19.171,87.358,87.358,0,0,0-12.752-16.59c.021.015.044.035.063.048-.15-.153-.3-.3-.451-.451q-.171-.173-.342-.342-.882-.876-1.764-1.7c-.1-.1-.209-.191-.313-.288-.575-.531-1.15-1.047-1.721-1.541-.046-.04-.093-.082-.139-.123-.586-.5-1.168-.982-1.748-1.446-.127-.1-.253-.2-.379-.3q-.833-.656-1.649-1.251l-.392-.282c-.551-.394-1.1-.772-1.633-1.122-.084-.055-.167-.105-.25-.16q-.757-.486-1.49-.912c-.088-.051-.176-.105-.263-.155-.517-.295-1.021-.56-1.516-.807l-.328-.161c-.49-.235-.969-.447-1.433-.631-.085-.034-.168-.063-.252-.1-.486-.185-.962-.349-1.417-.476.155.486.323,1.008.5,1.545l.071.216q.229.7.481,1.456c.041.123.08.241.123.366.188.559.384,1.132.594,1.73.087.249.183.51.274.764.111.31.221.621.338.94.068.186.128.36.2.548l-.011-.045c3.965,10.7,11.283,26.094,25.793,39.386l-.126-.1c.249.229.51.455.763.684.213.191.426.383.641.573q.831.733,1.695,1.454c.139.117.273.235.414.351q1.1.912,2.251,1.805c.1.077.2.153.3.23q.99.76,2.014,1.507c.218.158.439.313.658.47q.885.631,1.8,1.25.365.248.735.494.944.627,1.918,1.239c.221.139.439.28.664.419.5.308,1.009.611,1.521.914,2.46,2.858,4.811,5.791,7.094,8.774a22.879,22.879,0,0,1-6.41-3.118c-.306-.362-.62-.719-.948-1.071-.15-.161-.3-.322-.457-.482-.126-.131-.242-.265-.372-.394a.809.809,0,0,0,.042.073c-9.974-10-28.739-16.034-41.183-19.037a55.327,55.327,0,0,0-6.06-1.032h0c-.125-.015-.25-.029-.376-.044q-.754-.09-1.506-.167l-.6-.061c-.245-.024-.485-.047-.727-.069-.214-.02-.425-.039-.635-.057s-.445-.04-.664-.057q-.583-.048-1.146-.09l-.532-.038-.717-.048-.51-.033-.763-.046-.334-.019c-.342-.019-.665-.036-.972-.051l-.325-.015-.629-.029-.24-.011c-.238-.011-.458-.019-.654-.026l-.066,0c-.219-.009-.4-.014-.557-.019l-.123,0-.269-.009-.062,0-.1,0c.222.389.476.777.745,1.163.084.122.173.244.262.366q.315.429.665.857c.092.113.179.225.274.337q.467.55.991,1.094c.123.127.255.253.381.38.25.249.507.5.774.747.167.156.336.311.511.467.261.232.531.463.806.693q.5.424,1.037.84c.182.142.358.285.545.426l-.017-.016c10.96,8.339,30.355,15.169,44.366,16.587h-.011l.073.006c.182.018.358.032.538.048.448.041.892.076,1.328.106.206.014.408.025.611.037q.653.036,1.285.053c.157,0,.317.011.473.014.575.01,1.139.01,1.684,0l.111,0c.5-.015.993-.043,1.47-.079.134-.011.266-.023.4-.035q.582-.054,1.131-.131c.127-.017.254-.033.377-.052.261-.041.512-.088.762-.137a27.408,27.408,0,0,0,6.9,3.133.323.323,0,0,0,.146.014c3.005,3.966,5.9,8.015,8.751,12.1-1.618.166-3.226.424-4.843.5q-.909-.4-1.859-.782-.353-.142-.712-.283c-.952-.37-1.923-.732-2.928-1.076l-.042-.016.007,0a118.377,118.377,0,0,0-32.3-5.814c-7.1-.542-15.559.641-22.562,1.373-1.562.152-3.16.4-4.743.716l.03-.011c-.573.113-1.141.238-1.706.369-.173.041-.342.085-.514.127q-.724.177-1.433.371c-.2.055-.4.11-.6.167q-.764.222-1.5.46c-.109.036-.222.069-.33.105-.589.2-1.161.4-1.716.613-.154.058-.3.118-.45.178q-.625.247-1.214.506c-.154.068-.309.135-.458.2-.5.231-.993.467-1.447.709.826.318,1.663.652,2.5.988q1.442.577,2.916,1.163l.308.121q1.336.528,2.7,1.035l.159.061c.937.345,1.881.677,2.833.988.032.01.064.022.1.033l-.03-.013a45.529,45.529,0,0,0,6.76,1.7c7.152,1.177,12.952,1.6,19.813,2.309a97.514,97.514,0,0,0,32.132-3.634c-.094.037-.179.073-.278.109.53-.149,1.061-.322,1.591-.48.5-.149,1-.294,1.493-.451,1.159-.365,2.32-.755,3.482-1.164,1.764-.088,3.519-.389,5.291-.546q1.979,2.845,3.949,5.7c-1.681.476-3.351.977-5.036,1.4-.886.008-1.8.027-2.73.055-.4.012-.8.03-1.209.045-.574.022-1.151.048-1.74.079-.455.024-.911.052-1.373.082-.591.039-1.189.084-1.794.132-.452.037-.9.072-1.357.113-.133.013-.261.02-.4.033l.061,0a92.061,92.061,0,0,0-34,9.642l.1-.06c-.472.247-.938.53-1.409.787-.789.433-1.581.854-2.365,1.321-.573.341-1.135.723-1.7,1.082-.7.441-1.4.863-2.086,1.332-.8.542-1.582,1.136-2.368,1.718-.452.334-.909.639-1.356.986q-1.848,1.433-3.647,3.021c.283.13.576.248.876.356.107.04.219.072.328.108.2.065.394.131.6.188.134.038.274.071.41.105.185.046.368.092.558.132.15.032.3.06.454.088.183.034.367.066.553.095q.242.036.489.067c.184.023.368.044.555.063.171.016.344.032.517.044s.371.024.558.034.364.018.549.023.367.006.553.008.383,0,.577,0c.176,0,.355-.01.533-.015.209-.007.417-.012.628-.022.132-.007.265-.017.4-.026q1.35-.084,2.753-.273c.107-.015.215-.027.323-.043.286-.041.575-.086.865-.132.112-.017.223-.034.336-.053.293-.048.586-.1.881-.156l.324-.06c.306-.058.611-.12.918-.183l.273-.057q.489-.1.981-.217l.177-.041c.36-.083.719-.169,1.078-.258l.015,0c.295-.074.591-.146.885-.223l-.027,0a103.98,103.98,0,0,0,15.347-5.49c2.834-1.263,6.146-2.793,9.5-4.45l-.025.015.2-.1q1.012-.5,2.023-1.015c.041-.021.081-.043.122-.063q.958-.492,1.907-.992c.194-.1.384-.2.575-.307q.745-.4,1.475-.8.293-.16.583-.321.818-.454,1.611-.912l.32-.183q.955-.556,1.859-1.11c.11-.068.214-.135.323-.2q.715-.444,1.39-.885l.485-.323c.4-.266.78-.531,1.151-.794.143-.1.291-.205.43-.307.48-.35.94-.7,1.363-1.04,1.76-.436,3.5-.967,5.248-1.45l.008,0q1.538,2.229,3.082,4.459c1.077,1.555,2.415,3.489,3.933,5.69a.357.357,0,0,0-.121.015,25.282,25.282,0,0,0-5.465,2.4v-.006c-.628.222-1.293.424-1.973.615-.113.031-.223.064-.338.1q-1.006.273-2.07.516c-5.94,1.368-13.067,2.216-18.726,5.086-4.856,2.528-11.95,7.721-17.97,12.887l.01-.012-.1.089c-.161.138-.315.275-.475.413q-.554.482-1.094.96c-.224.2-.445.4-.666.595-.3.273-.6.543-.892.812-.211.194-.424.389-.63.581-.453.424-.9.843-1.322,1.256-.146.141-.281.278-.423.418-.307.3-.609.6-.9.9-.164.166-.32.329-.477.492q-.4.416-.775.82c-.129.14-.262.281-.387.42-.36.4-.7.786-1.013,1.158.464.132.938.238,1.418.325.209.038.425.057.636.087.275.038.55.081.831.105.248.022.5.028.751.039s.5.027.761.029.53-.012.8-.02.5-.015.76-.034.54-.048.813-.077.52-.055.783-.092.545-.084.819-.132.54-.094.811-.149.544-.116.817-.179.563-.134.846-.208.54-.143.811-.221c.13-.037.259-.067.389-.106l-.069.01c8.413-2.5,17.6-8.521,25.286-14.732l-.013.013.063-.052q.9-.731,1.776-1.463c.157-.131.308-.261.462-.392q.663-.558,1.306-1.115c.173-.149.343-.3.513-.447q.629-.55,1.237-1.095c.144-.128.288-.255.428-.383.526-.475,1.042-.946,1.541-1.41l.024-.023c.515-.479,1.011-.949,1.494-1.413l.375-.364c.342-.332.678-.66,1-.982l.439-.437q.456-.457.884-.9c.126-.128.253-.257.375-.384.392-.406.772-.8,1.126-1.187v0a.387.387,0,0,0,.082-.035,24.023,24.023,0,0,1,5.537-2.439.306.306,0,0,0,.2-.19c1.472,2.135,3.116,4.525,4.878,7.093-.009.014-.024.014-.033.03a24.057,24.057,0,0,1-3.539,5.918q-.637.213-1.3.463c-.125.046-.249.092-.374.141q-.866.338-1.769.737c-.135.06-.274.123-.411.186-.606.274-1.219.562-1.844.873l-.12.059c-.641.322-1.293.668-1.949,1.027-.139.075-.277.15-.416.227q-.977.543-1.972,1.136c-.128.076-.258.156-.388.234-.69.418-1.385.848-2.082,1.3l-.014.009c-.706.457-1.415.937-2.124,1.426-.123.085-.245.168-.367.254q-1.031.721-2.058,1.482c-.045.034-.091.065-.136.1l.021-.013a84.237,84.237,0,0,0-13.248,12.172l.058-.078c-.128.148-.25.3-.376.446q-.26.3-.514.611-.31.371-.611.747-.257.319-.509.64c-.193.248-.385.494-.573.743-.164.217-.325.434-.486.652-.183.249-.365.5-.542.748-.153.218-.3.435-.451.653-.173.252-.346.5-.513.758-.142.216-.278.432-.415.648-.163.256-.326.512-.48.767-.133.219-.258.438-.385.657-.147.252-.3.506-.436.758s-.255.481-.381.721-.249.461-.364.692c-.233.47-.455.939-.661,1.408.483-.176.984-.366,1.5-.561.163-.062.327-.127.492-.191q.558-.216,1.135-.448l.548-.22c.529-.215,1.065-.436,1.614-.669l.42-.182q.644-.276,1.3-.568c.236-.1.474-.212.713-.32q.551-.248,1.11-.509c.24-.112.478-.221.719-.336.563-.267,1.129-.54,1.7-.823.212-.1.425-.215.637-.322.4-.2.808-.408,1.214-.619.257-.133.514-.269.772-.405q.6-.316,1.194-.645c.168-.091.333-.177.5-.27l-.054.025c8.013-4.445,16-10.373,20.211-17.578.186-.317.366-.637.538-.96.091-.173.176-.347.263-.52q.2-.395.378-.793c.078-.171.157-.343.23-.516q.216-.509.406-1.028c.043-.117.088-.233.129-.35.141-.4.267-.811.382-1.222.043-.156.082-.312.122-.469q.12-.474.219-.954c.03-.152.063-.3.09-.455.057-.322.1-.647.144-.972a22.438,22.438,0,0,0,3.547-5.848c3.527,5.143,7.5,10.966,11.549,16.943a49.369,49.369,0,0,1-4.589,3.7q-1.386.239-2.777.526c-.248.051-.5.106-.748.16q-1.243.268-2.493.591c-.156.04-.311.069-.466.11h.034a44.312,44.312,0,0,0-12.494,5.387,91.887,91.887,0,0,0-19.193,15.985l.156-.185c-.147.159-.295.326-.442.486-.164.179-.328.362-.492.543-.791.875-1.584,1.767-2.382,2.7.315.073.639.139.966.2l.225.043c.335.061.677.118,1.026.164l.062.008c.329.043.668.076,1.011.1l.228.017c.365.024.737.04,1.118.042l.135,0c.347,0,.7-.014,1.064-.036l.24-.015c.4-.03.807-.073,1.224-.133.065-.009.131-.021.2-.032.379-.058.767-.131,1.161-.216l.229-.049q.667-.152,1.365-.363c.028-.008.055-.013.083-.021l-.033.006a26.063,26.063,0,0,0,4.083-1.643c8.843-4.418,18.847-11.244,24.838-19.814-.009.014-.015.027-.024.042.019-.028.037-.058.056-.086.375-.538.727-1.084,1.07-1.635.083-.133.173-.264.254-.4q.57-.947,1.07-1.922a53.218,53.218,0,0,0,4.609-3.713c10.273,15.182,20.88,31.177,25.449,39.079.325.563,1.143-.088.83-.642-3.394-5.862-10.476-16.806-18.188-28.412a19.615,19.615,0,0,0,5.628-3.545.377.377,0,0,0,.07-.1,1.133,1.133,0,0,0,.168-.024c.688-.178,1.351-.387,2-.61.106-.037.215-.072.32-.109q.924-.331,1.795-.719l.323-.147c.585-.269,1.157-.551,1.71-.853.047-.026.093-.054.141-.08q.792-.439,1.538-.92c.079-.05.16-.1.238-.15.381-.249.755-.5,1.119-.764-.034.02-.081.045-.121.069,6.319-4.5,10.23-10.817,13.526-14.341a38.978,38.978,0,0,0,8.958-16.481v0c.42-1.454.759-2.8,1.07-3.984a4.665,4.665,0,0,0-.771.077c-.074.014-.15.029-.227.045a7.071,7.071,0,0,0-.7.189c-.054.017-.106.03-.161.049-.286.1-.583.22-.888.358-.094.043-.189.09-.284.135-.237.114-.479.238-.725.373-.1.052-.191.1-.289.158q-.478.271-.974.591c-.108.069-.218.144-.326.217-.251.166-.5.34-.762.523-.126.089-.251.178-.379.271-.344.252-.692.514-1.047.793-.1.075-.2.158-.292.235-.287.23-.577.466-.87.712-.134.112-.268.225-.4.341q-.5.428-1.012.884c-.052.047-.1.091-.156.138-.4.363-.81.742-1.219,1.128-.091.085-.181.172-.272.258-.461.439-.925.888-1.391,1.353l.037-.032a119.887,119.887,0,0,0-14.076,17.165l.018-.032c-.043.067-.088.133-.132.2l-.121.183c-.028.042-.056.083-.083.125l-.013.014c-.292.444-.572.88-.85,1.315l-.028.044c-.029.044-.06.091-.088.136,0,.01-.013.017-.017.029-.1.158-.2.311-.293.465,0,0-.007.016-.014.024-.1.167-.2.329-.3.5-.129.212-.259.424-.383.633-.058.1-.123.2-.18.3a.447.447,0,0,1-.035.055c-.082.144-.164.285-.245.426-.009.013-.012.025-.017.03-.068.12-.132.236-.2.355l-.107.191-.207.367c-.007.017-.017.033-.026.051-.071.129-.14.254-.208.382-.015.027-.029.05-.042.075-.07.133-.142.267-.21.4-.007.009-.01.022-.019.029-.073.144-.147.291-.222.434,0,.007,0,.007-.007.008-.067.134-.131.268-.2.4-.014.029-.027.057-.044.086-.052.109-.106.214-.154.325-.013.028-.031.057-.043.087l-.016.033-.05.108c-.038.08-.077.161-.113.24l0,.006c-.061.132-.119.266-.178.4-.012.022-.021.045-.032.069-.043.1-.088.205-.133.3-.016.034-.026.064-.044.1-.039.095-.076.189-.115.282-.011.032-.025.057-.039.089-.1.237-.187.474-.27.7a.938.938,0,0,0-.033.1c-.011.031-.021.062-.032.093l-.037.105c0,.016-.013.034-.017.049a.66.66,0,0,0-.036.1c-.031.085-.054.169-.084.248-.009.023-.017.055-.027.083l-.095.315c0,.017-.008.039-.011.054-.027.085-.048.17-.073.248-.008.036-.013.07-.023.1l-.052.209a.87.87,0,0,1-.019.092c-.019.082-.036.157-.051.236a.356.356,0,0,1-.01.052c-.017.093-.029.183-.046.275,0,.024-.009.047-.013.069-.01.066-.015.132-.023.2-.006.028,0,.055-.006.084-.007.051-.011.1-.015.148a20.016,20.016,0,0,1-5.508,3.427c-2.8-4.211-5.677-8.5-8.486-12.654a58.688,58.688,0,0,0,4.2-4.744q.924-.5,1.811-1.009c.2-.112.393-.225.586-.339q1.229-.724,2.4-1.476c.138-.089.273-.181.41-.271q1.066-.7,2.093-1.425c.126-.089.255-.177.38-.266q1.122-.805,2.208-1.647l.473-.37q1.032-.809,2.042-1.65c2.473-2.062,4.886-4.28,7.412-6.695,1.763-1.685,3.1-3.008,4.273-4.364l-.033.046c.078-.091.154-.183.231-.275s.165-.191.243-.287c.247-.3.486-.6.72-.914.068-.09.136-.181.2-.272q.354-.483.7-1c.06-.089.12-.182.179-.273.238-.365.475-.742.714-1.143.044-.074.09-.155.134-.231.257-.44.518-.9.785-1.4a33,33,0,0,0,4.1-12.829,81.14,81.14,0,0,0-7.858,4.44c-.3.19-.617.41-.939.642-.091.066-.185.137-.278.207q-.368.274-.75.579c-.093.074-.185.147-.278.223-.333.273-.67.555-1.014.855l-.014.013c-.365.319-.734.654-1.105,1-.073.067-.145.136-.219.2q-.451.422-.905.862l-.244.237q-.51.5-1.018,1.012l-.078.077q-.544.551-1.077,1.111l-.313.33c-.226.24-.45.478-.673.717-.076.081-.156.164-.232.247l.022-.02c-1.55,1.674-2.964,3.3-4.04,4.592a50,50,0,0,0-5.95,8.268l.018-.038c-.017.032-.032.063-.05.094q-.877,1.526-1.643,3.063l-.025.048c-1.058,2.12-1.986,4.262-2.881,6.442l-.01.025q-.483,1.176-.958,2.369a60.089,60.089,0,0,1-4.128,4.68c-3.025-4.473-5.956-8.771-8.622-12.65,1.546-1.466,2.832-3.158,4.234-4.768,2.5-.88,8.043-3.974,13.927-8.849.093-.077.186-.151.28-.229.3-.252.6-.515.906-.777.186-.161.37-.316.556-.48.223-.2.446-.4.668-.6s.464-.413.7-.628l-.027.02a60.115,60.115,0,0,0,10.711-12.926l-.009.018q1.11-1.848,2.05-3.807c.071-.15.133-.306.2-.456.231-.5.461-1,.672-1.5.2-.484.382-.977.563-1.468.068-.185.145-.364.211-.549a35.193,35.193,0,0,0,1.892-8.584c-1.073.67-2.113,1.375-3.138,2.094-.257.18-.513.359-.767.543q-1.465,1.055-2.864,2.161c-.189.151-.371.307-.559.458q-1.194.97-2.329,1.975c-.222.2-.447.389-.665.586q-1.274,1.149-2.466,2.332c-.219.217-.429.434-.645.652q-1.019,1.034-1.977,2.083c-.151.165-.309.329-.457.5-.024.027-.051.054-.075.082l.034-.033a63.729,63.729,0,0,0-6.465,8.525c-4.161,6.64-7.508,12.017-9.536,15.358l-.2.327c-.133.221-.263.434-.383.635l-.282.468-.237.4c-.088.147-.174.291-.25.422s-.129.22-.189.324-.119.205-.167.291c-.007.007-.014.009-.021.015-1.434,1.62-2.718,3.355-4.282,4.846-3.542-5.146-6.581-9.5-8.677-12.415,1.29-1.813,2.774-3.5,3.923-5.408.01-.015,0-.031.009-.047q.627-.4,1.264-.834l.444-.308c.542-.381,1.088-.775,1.639-1.193l.112-.087c.539-.412,1.081-.846,1.626-1.292l.452-.374c.569-.477,1.139-.964,1.71-1.474l.046-.042c.567-.508,1.132-1.035,1.7-1.572l.4-.381q1.753-1.694,3.464-3.563c.107-.117.214-.233.32-.351,7.636-8.435,14.219-19.145,15.668-28.714v.021c.01-.061.011-.121.019-.182.089-.611.152-1.217.2-1.817.017-.213.029-.424.04-.634.033-.662.049-1.32.025-1.967a6.636,6.636,0,0,0-.7.31c-.066.034-.137.076-.2.114-.178.1-.359.2-.544.314-.086.054-.174.113-.262.171-.176.117-.355.24-.538.373-.094.068-.187.138-.282.211-.186.141-.375.291-.567.448-.095.078-.189.154-.284.235-.209.177-.422.366-.636.559-.082.074-.162.143-.244.22-.3.276-.6.563-.908.868l0,0q-.427.425-.869.888l.018-.014a104.086,104.086,0,0,0-11.639,15.512l.014-.024c-.051.079-.1.161-.15.24q-.335.534-.667,1.071-.174.281-.346.563-.328.537-.652,1.076c-.112.187-.222.372-.333.559-.219.367-.435.734-.65,1.1q-.149.257-.3.514-.337.582-.668,1.166l-.182.327c-.823,1.465-1.614,2.933-2.364,4.39l-.077.149c-.205.4-.4.795-.6,1.192-.079.159-.161.318-.239.478-.18.364-.353.724-.527,1.086-.09.189-.182.377-.271.566-.163.344-.321.686-.479,1.028-.094.2-.187.407-.278.609q-.221.49-.433.974c-.094.215-.186.427-.277.64-.134.31-.265.62-.392.926-.093.222-.182.442-.271.662-.118.293-.236.585-.349.874-.091.235-.177.465-.265.7-.1.268-.2.537-.3.8s-.187.53-.277.794c-.077.22-.157.445-.228.661-.111.335-.212.66-.312.987-.038.024-.079.028-.11.077-1.117,1.852-2.545,3.5-3.812,5.247-2.94-4.1-5.794-8.244-8.657-12.372,1.132-1.774,2.03-3.663,2.994-5.533l1.213-.322a16.106,16.106,0,0,0,1.807-.657c.193-.082.382-.178.573-.268.4-.188.794-.389,1.18-.607.2-.112.392-.226.586-.346.4-.248.792-.514,1.177-.794.145-.105.293-.2.436-.313,11.032-8.475,15.7-29.95,15.671-44.435v.026C3142.869,115.92,3142.866,115.823,3142.866,115.721Z" transform="translate(-0.84 -1.887)" fill="#cddae7"/>
    <ellipse id="Elipse_4102" data-name="Elipse 4102" cx="55.255" cy="6.018" rx="55.255" ry="6.018" transform="translate(3111.509 267.729)" fill="#cddae7"/>
    <g id="Grupo_84873" data-name="Grupo 84873" transform="translate(3103.356 114.669)">
      <g id="Grupo_84872" data-name="Grupo 84872">
        <rect id="Rect치ngulo_24384" data-name="Rect치ngulo 24384" width="6.231" height="61.511" transform="matrix(0.01, -1, 1, 0.01, 32.663, 157.892)" fill="#264c5f"/>
        <path id="Trazado_104485" data-name="Trazado 104485" d="M3208.086,159.11l.426-40.882-69.786-.727-.425,40.882c-.334,32.046,23.631,50.389,28.51,53.79a65.725,65.725,0,0,1-2.271,15.756c-2.589,10-12.111,12.634-12.111,12.634l-1.182-.013a2.865,2.865,0,0,0-.06,5.729l21.222.221,21.222.221a2.865,2.865,0,1,0,.06-5.729l-1.183-.013s-9.465-2.833-11.845-12.884a64.316,64.316,0,0,1-1.931-16.222C3184.52,208.542,3207.732,193.067,3208.086,159.11Z" transform="translate(-3107.619 -117.501)" fill="#e39d41"/>
        <path id="Trazado_104486" data-name="Trazado 104486" d="M3203.451,204.469a6.827,6.827,0,0,1-3.532-.972,5.67,5.67,0,0,1-2.471-5.911c.341-2.409,2.927-4.5,9.263-9.429,9.171-7.128,23.03-17.9,27.622-31.537,3.435-10.923,3.53-19.46.261-24.644a12.421,12.421,0,0,0-8.933-5.61c-10.366.648-10.7,7.568-10.688,8.563.048.554.621,5.875,4.975,6.672a2.344,2.344,0,1,1-.843,4.611c-6.5-1.188-8.6-7.732-8.814-11.026l0-.062c0-.127-.282-12.626,15.355-13.451a2.446,2.446,0,0,1,.453.02,17.243,17.243,0,0,1,12.462,7.783c4.084,6.477,4.161,16.1.231,28.6-5.057,15.02-19.588,26.314-29.2,33.787-3.26,2.534-6.946,5.4-7.514,6.5-.1.894.191,1.076.319,1.156a2.873,2.873,0,0,0,2.392-.007,2.343,2.343,0,0,1,2.644,3.87A7.12,7.12,0,0,1,3203.451,204.469Z" transform="translate(-3109.566 -117.638)" fill="#edbb45"/>
        <rect id="Rect치ngulo_24385" data-name="Rect치ngulo 24385" width="23.958" height="54.165" transform="matrix(0.01, -1, 1, 0.01, 36.947, 151.845)" fill="#264c5f"/>
        <path id="Trazado_104487" data-name="Trazado 104487" d="M3188.506,269.487l-33.764-.352-1.548-1.449.117-11.2,1.493-1.634,33.851.353,1.373,1.577-.116,11.11Z" transform="translate(-3108.11 -122.029)" fill="#f5d048"/>
        <path id="Trazado_104488" data-name="Trazado 104488" d="M3144.593,204.631a6.831,6.831,0,0,0,3.535-.96,5.672,5.672,0,0,0,2.491-5.9c-.334-2.41-2.912-4.513-9.232-9.461-9.146-7.159-22.969-17.977-27.516-31.63-3.4-10.934-3.464-19.471-.178-24.645a12.42,12.42,0,0,1,8.952-5.579c10.363.682,10.669,7.6,10.658,8.6-.049.553-.64,5.873-5,6.654a2.344,2.344,0,0,0,.828,4.614c6.5-1.166,8.631-7.7,8.85-11,0-.021,0-.042,0-.062,0-.127.325-12.625-15.31-13.5a2.44,2.44,0,0,0-.452.018,17.24,17.24,0,0,0-12.489,7.741c-4.106,6.463-4.216,16.084-.328,28.594,5.007,15.037,19.5,26.38,29.089,33.885,3.25,2.545,6.928,5.423,7.492,6.527.1.895-.2,1.075-.323,1.155a2.873,2.873,0,0,1-2.391-.015,2.344,2.344,0,0,0-2.656,3.862A7.129,7.129,0,0,0,3144.593,204.631Z" transform="translate(-3106.573 -117.641)" fill="#f5d048"/>
        <path id="Trazado_104489" data-name="Trazado 104489" d="M3171.556,117.953l-34.708-.36s-.054,5.172-.426,40.6c-.334,31.82,23.632,50.036,28.51,53.412a64.794,64.794,0,0,1-2.269,15.645c-2.589,9.93-12.111,12.546-12.111,12.546l-1.183-.013a2.844,2.844,0,1,0-.059,5.688l21.222.22.838.009Z" transform="translate(-3107.557 -117.504)" fill="#f5d048"/>
        <path id="Trazado_104490" data-name="Trazado 104490" d="M3149.476,165.962l.426-40.882L3142.61,125l-.368,35.42c-.2,19.224,8.943,32.916,16.221,40.75A69.33,69.33,0,0,1,3149.476,165.962Z" transform="translate(-3107.749 -117.748)" fill="#fff"/>
      </g>
    </g>
    <ellipse id="Elipse_4103" data-name="Elipse 4103" cx="30.104" cy="3.821" rx="30.104" ry="3.821" transform="translate(3049.865 254.987)" fill="#cddae7"/>
    <g id="Grupo_84877" data-name="Grupo 84877" transform="translate(3063.624 114.944)">
      <path id="Trazado_104491" data-name="Trazado 104491" d="M3076.011,229.218a27.7,27.7,0,0,0-1.428,7.482c-.419,7.156.753,9.733,2.824,21.211l2.562.178a204.909,204.909,0,0,0,2.536-22.967q.164-2.788.238-5.437Z" transform="translate(-3065.784 -121.458)" fill="#efb495"/>
      <path id="Trazado_104492" data-name="Trazado 104492" d="M3089.714,228.955a28.909,28.909,0,0,0-2.349,7.192c-1.368,7.014-.632,9.731-.279,21.374l2.355.543c1.751-5.277,4.934-14.223,6.037-20.531s.932-7.695,1.321-10.017Z" transform="translate(-3066.182 -121.402)" fill="#efb495"/>
      <path id="Trazado_104493" data-name="Trazado 104493" d="M3086.228,266.055c-1.058-1.308-2.578-.7-3.948-3.1a17.628,17.628,0,0,1-1.7-3.668l-1.669-.208a.487.487,0,0,1-.458.326.514.514,0,0,1-.429-.436l-.69-.016c-.729.466-1.348,2.217-1.474,4.352a9.738,9.738,0,0,0,.351,3.482l.958.067a31.073,31.073,0,0,1-.023-3.318l.985.654,1.182,2.813,7.147.5S3087.284,267.362,3086.228,266.055Z" transform="translate(-3065.828 -122.438)" fill="#16415d"/>
      <path id="Trazado_104494" data-name="Trazado 104494" d="M3095.926,266.708c-1.057-1.308-2.578-.7-3.948-3.1a17.6,17.6,0,0,1-1.7-3.668l-1.668-.207a.488.488,0,0,1-.458.325.513.513,0,0,1-.429-.435l-.691-.017c-.728.466-1.348,2.218-1.473,4.352a9.77,9.77,0,0,0,.35,3.482l.958.067a31.153,31.153,0,0,1-.022-3.318l.985.655,1.181,2.812,7.148.5S3096.983,268.015,3095.926,266.708Z" transform="translate(-3066.147 -122.46)" fill="#16415d"/>
      <path id="Trazado_104495" data-name="Trazado 104495" d="M3075.37,230.242a39.73,39.73,0,0,1-3.555-7.7c-1.367-5.464-2.685-7.642-.42-17.918l7.022-.167a125.378,125.378,0,0,1,3.778,19.84q.279,2.422.443,4.736Z" transform="translate(-3065.641 -120.642)" fill="#efb495"/>
      <path id="Trazado_104496" data-name="Trazado 104496" d="M3091.28,227.846a49.322,49.322,0,0,1-2.916-7.791c-1.191-5.487-2.253-7.7-.813-17.864l5.335.063a165.025,165.025,0,0,1,3.42,19.887q.279,2.424.467,4.733Z" transform="translate(-3066.191 -120.567)" fill="#efb495"/>
      <path id="Trazado_104497" data-name="Trazado 104497" d="M3089.556,229.341a59.436,59.436,0,0,1-2.533-7.843c-1.084-5.5-1.993-7.735-1.048-17.832l4.326.2c1.126,4.744,2.434,13.215,3.206,19.917q.279,2.424.481,4.731Z" transform="translate(-3066.149 -120.616)" fill="#efb495"/>
      <g id="Grupo_84874" data-name="Grupo 84874" transform="translate(20.81 30.136)">
        <path id="Trazado_104498" data-name="Trazado 104498" d="M3087.136,157.207c-.947,1.775,3.358,6.416,9.617,10.366a29.563,29.563,0,0,0,9.121,3.864c8.3,1.46,17.879.027,18.554-1.239.612-1.146-6.526-2.037-13.344-4.009a40.37,40.37,0,0,1-9.6-4.308c-3.682-2.324-6.307-12.386-8.788-12.92C3090.955,148.587,3087.527,156.476,3087.136,157.207Z" transform="translate(-3087.006 -148.949)" fill="#efb291"/>
        <path id="Trazado_104499" data-name="Trazado 104499" d="M3121.5,169.713c0,1.808,3.172,3.274,5.981,3.274a5.34,5.34,0,0,0,5-4.6c0-1.357-3.243,1.186-5.045,1.062-.6-.042.743-3.009.041-3.009-1.4,0-1.236,1.886-2.156,2.479S3121.5,168.809,3121.5,169.713Z" transform="translate(-3088.143 -149.525)" fill="#efb291"/>
      </g>
      <g id="Grupo_84875" data-name="Grupo 84875" transform="translate(10.982)">
        <path id="Trazado_104500" data-name="Trazado 104500" d="M3092.917,132.129c-2.233,10.336-1.71,12.211-2.32,12.078-3.319-.721-7.568-6.161-7.568-12.942s2.187-12.278,4.882-12.278S3094.342,125.527,3092.917,132.129Z" transform="translate(-3077.047 -117.825)" fill="#1c3054"/>
        <path id="Trazado_104501" data-name="Trazado 104501" d="M3079.384,143.937c1.11.578,2.437,2.243,3.707,2.7,2.635.952,4.834-2.154,6.054-2.9-.479-.869-2.2-2.076-2.2-3.319,0-1.691.091-3.184.91-4.079v-2.116h-4.949A16.449,16.449,0,0,1,3079.384,143.937Z" transform="translate(-3076.927 -118.327)" fill="#ea9f86"/>
        <path id="Trazado_104502" data-name="Trazado 104502" d="M3091.642,124.829c-.555-3.6-3.618-2.944-5.853-2.372a3.833,3.833,0,0,0-3.217,3.081c-.323-.348-.668.595-1.033.7-.753.229-1.156.7-.9,2.068s1.06,3.125,1.813,2.9a1.1,1.1,0,0,0,.1-.052c.262,1.1.127,2.056.688,2.828a6.391,6.391,0,0,0,4.625,2.371C3092.456,136.425,3092.2,128.425,3091.642,124.829Z" transform="translate(-3076.966 -117.924)" fill="#ebb190"/>
        <path id="Trazado_104503" data-name="Trazado 104503" d="M3093.121,121.938c-.368-2.461-5.584-4.657-9.162-4.052-2.274.384-3.326.368-5.281,3.053s-2.012,14.485-1.681,15.4c.818,2.244,4.408,5.52,5.521,5.575a32.16,32.16,0,0,0,.437-7.036,22.671,22.671,0,0,0-.609-3.755,1.984,1.984,0,0,1-1.067-.969c-.457-.841-.38-1.8.173-2.137a1.256,1.256,0,0,1,1.544.5c.374-1.867,1.146-3.839,4.411-3.244C3090.979,125.921,3093.49,124.4,3093.121,121.938Z" transform="translate(-3076.844 -117.785)" fill="#1c3054"/>
      </g>
      <path id="Trazado_104504" data-name="Trazado 104504" d="M3071.5,175.135c2.766-4.432,5.462-13.494,5.462-16.773,0-4.411-2.726-7.986-6.09-7.986a4.8,4.8,0,0,0-2.058.478c1.835-5.177,8.9-10.606,10.543-11.7.252-.166.492-.308.729-.44l6.19,6.989,2.266-2.4a17.907,17.907,0,0,1,7.122,10.624c1.538,7.555-3.476,13.034-3.745,18.292s-.27,15.168-.27,15.168h-20.6A75.534,75.534,0,0,0,3071.5,175.135Z" transform="translate(-3065.596 -118.475)" fill="#497dba"/>
      <path id="Trazado_104505" data-name="Trazado 104505" d="M3071.448,184.093c.172-.28.362-.546.558-.807a52.2,52.2,0,0,0,13.836,2.868c3.333.231,5.173-.316,6.2-1.323.022.055.048.106.07.161,3.248,8.56,4.2,31.326,4.2,31.326s-27.882,2.677-27.626,1.1C3070.768,204.515,3066.941,191.406,3071.448,184.093Z" transform="translate(-3065.592 -119.944)" fill="url(#linear-gradient)"/>
      <g id="Grupo_84876" data-name="Grupo 84876" transform="translate(0 31.919)">
        <path id="Trazado_104506" data-name="Trazado 104506" d="M3070.182,150.792a9.818,9.818,0,0,1,6.767,4.142c-.268,2.62-.833,5.9-1.462,9.553-1.522,8.862-4.832,15.712-7.393,15.3s-3.332-7.918-1.881-16.791C3067.281,156.461,3068.7,152.805,3070.182,150.792Z" transform="translate(-3065.487 -150.792)" fill="#efb291"/>
        <path id="Trazado_104507" data-name="Trazado 104507" d="M3070.1,179.195c.938.907,3.682-1.369,9.752-7.24s10.229-11.365,9.291-12.272-6.618,3.116-12.687,8.987S3069.16,178.287,3070.1,179.195Z" transform="translate(-3065.629 -151.081)" fill="#efb291"/>
        <path id="Trazado_104508" data-name="Trazado 104508" d="M3086.527,156.526c-1.224,2.525-.979,5.134.549,5.826s2.254-.135,3.478-2.66,1.569-3.528.042-4.22S3087.752,154,3086.527,156.526Z" transform="translate(-3066.155 -150.924)" fill="#efb291"/>
      </g>
    </g>
    <ellipse id="Elipse_4104" data-name="Elipse 4104" cx="42.829" cy="5.227" rx="42.829" ry="5.227" transform="translate(3222.428 264.539)" fill="#cddae7"/>
    <g id="Grupo_84887" data-name="Grupo 84887" transform="translate(3219.616 119.764)">
      <path id="Trazado_104509" data-name="Trazado 104509" d="M3256.782,267.381c3.525-7.03,6.074-17.691,6.956-30.053,5.618-8.649,9.526-22.081,10.418-37.523h-16.042q-.943,5.472-1.769,11.17c-3.069,21.26-4.261,40.977-3.751,56.405Z" transform="translate(-3227.642 -125.309)" fill="#1e2d54"/>
      <path id="Trazado_104510" data-name="Trazado 104510" d="M3287.865,232.159a108.1,108.1,0,0,0,1.068-15.308,106.3,106.3,0,0,0-1.417-17.541h-21.481a200.093,200.093,0,0,0,12.5,36.52,193.671,193.671,0,0,0,18.3,32.991l4.158-2.217a104.114,104.114,0,0,0-4.775-17.1A99.746,99.746,0,0,0,3287.865,232.159Z" transform="translate(-3228.089 -125.293)" fill="#153f5e"/>
      <g id="Grupo_84881" data-name="Grupo 84881" transform="translate(0 35.502)">
        <g id="Grupo_84880" data-name="Grupo 84880">
          <g id="Grupo_84878" data-name="Grupo 84878" transform="translate(4.177)">
            <path id="Trazado_104511" data-name="Trazado 104511" d="M3260.643,168.216a33.9,33.9,0,0,0,1.869-3.872l-8.573-4.862a32.446,32.446,0,0,0-1.871,2.9,30.054,30.054,0,0,0-2.974,7.1c-.62-.169-1.249-.335-1.894-.49-8.473-2.042-15.667-2.091-16.068-.108s6.143,5.245,14.616,7.288c.516.125,4.19,1.791,6.11,1.41S3257.046,174.6,3260.643,168.216Z" transform="translate(-3231.115 -159.482)" fill="#ea9f87"/>
          </g>
          <g id="Grupo_84879" data-name="Grupo 84879" transform="translate(0 2.957)">
            <path id="Trazado_104512" data-name="Trazado 104512" d="M3232.5,166s-.407-.808-.91-.086c-.59.848-1.438.928-2.186-.1a17.958,17.958,0,0,1-1.616-2.569c-.151-.783-.66-.884-.784-.445a6.013,6.013,0,0,0,1.219,5.354c1.48,2.037,3,3.007,4.142,2.021C3233.262,169.392,3233.27,167.688,3232.5,166Z" transform="translate(-3226.796 -162.54)" fill="#ea9f87"/>
          </g>
        </g>
      </g>
      <path id="Trazado_104513" data-name="Trazado 104513" d="M3289.517,164.158l6.973-3.842c-.25-7.768-6.81-14.271-15.711-16.315-.918,1.627-3.16,2.777-5.787,2.777-2.665,0-4.933-1.185-5.824-2.849-8.424,1.824-14.818,7.624-15.879,14.745l8.531,4.069c-.1,11.561-6.962,31.064-5.442,33.686,1.668,2.875,29.237,3.45,31.607,2.875s-1.819-27.26-.276-35.015Z" transform="translate(-3227.669 -123.467)" fill="#ed971b"/>
      <g id="Grupo_84882" data-name="Grupo 84882" transform="translate(45.641 35.959)">
        <path id="Trazado_104514" data-name="Trazado 104514" d="M3299.229,164.11a36.3,36.3,0,0,0-1.969-4.155l-9.146,5.24a36.684,36.684,0,0,0,1.191,3.565,31.476,31.476,0,0,0,3.883,7.183c-.515.49-1.031.991-1.55,1.514-6.818,6.867-11.251,13.727-9.9,15.323s7.967-2.679,14.785-9.546c.416-.419,4-2.92,4.866-4.992S3302.162,171.456,3299.229,164.11Z" transform="translate(-3274.24 -159.955)" fill="#efb495"/>
        <path id="Trazado_104515" data-name="Trazado 104515" d="M3280.01,190.523s-.9-.1-.625.819a1.437,1.437,0,0,1-1.415,2.032,15.894,15.894,0,0,1-3.052-.022c-.721-.334-1.114.093-.836.48a5.292,5.292,0,0,0,5.046,2.1c2.541-.173,4.251-1.04,4.155-2.731C3283.206,191.861,3281.84,190.812,3280.01,190.523Z" transform="translate(-3273.992 -160.962)" fill="#efb495"/>
      </g>
      <g id="Grupo_84884" data-name="Grupo 84884" transform="translate(37.164)">
        <path id="Trazado_104516" data-name="Trazado 104516" d="M3280.41,145.626a11.072,11.072,0,0,1-10.445-.341,8.231,8.231,0,0,0,1.019-4.087,7.493,7.493,0,0,0-1.795-5.136V133.4h6.554A20.124,20.124,0,0,0,3280.41,145.626Z" transform="translate(-3265.357 -123.12)" fill="#ea9f86"/>
        <g id="Grupo_84883" data-name="Grupo 84883">
          <path id="Trazado_104517" data-name="Trazado 104517" d="M3267.723,130.473c.6-3.281,3.9-2.684,6.314-2.163,1.549.335,2.89.876,3.472,2.811.347-.318.72.543,1.113.643.813.209,1.248.635.977,1.887s-1.144,2.851-1.957,2.642a.917.917,0,0,1-.111-.047c-.283,1-.137,1.876-.743,2.581a7.393,7.393,0,0,1-4.991,2.162C3266.845,141.055,3267.125,133.755,3267.723,130.473Z" transform="translate(-3265.298 -122.939)" fill="#ebb190"/>
          <path id="Trazado_104518" data-name="Trazado 104518" d="M3265.266,126.077c.4-2.666,5.678-3.671,9.626-3.192l.79.1a6.129,6.129,0,0,1,3.2,2.01,10.472,10.472,0,0,1,1.8,6.9c-.249,2.607-1.732,4.4-2.953,4.456a.71.71,0,0,1-.645-.33,2.164,2.164,0,0,0,1.17-1.049,1.756,1.756,0,0,0-.189-2.315,1.389,1.389,0,0,0-1.695.543c-.41-2.022-1.257-4.158-4.84-3.514C3267.616,130.39,3264.86,128.743,3265.266,126.077Z" transform="translate(-3265.226 -122.77)" fill="#1c3054"/>
        </g>
      </g>
      <g id="Grupo_84885" data-name="Grupo 84885" transform="translate(14.267 139.553)">
        <path id="Trazado_104519" data-name="Trazado 104519" d="M3252.943,272.378l2.782.93,1.44-5.132-3.276-1.1Z" transform="translate(-3241.924 -267.08)" fill="#ea9f88"/>
        <path id="Trazado_104520" data-name="Trazado 104520" d="M3258.2,276.261l-1.206-3.707a9.333,9.333,0,0,1-2.865.252c-1.087-.18-1.083-1.261-1.515-1.977h-1.449s-1.9,3.682-5.633,4.6h-2.795c-.652,0-1.186.856-1.186,1.9v.844H3253.3l.593-1.128h.33v1.128h4.181v-.844A2.728,2.728,0,0,0,3258.2,276.261Z" transform="translate(-3241.549 -267.204)" fill="#16415d"/>
      </g>
      <g id="Grupo_84886" data-name="Grupo 84886" transform="translate(61.505 140.337)">
        <path id="Trazado_104521" data-name="Trazado 104521" d="M3299.462,273.491l2.9-.25-.387-5.351-3.416.294Z" transform="translate(-3290.666 -267.89)" fill="#ea9f88"/>
        <path id="Trazado_104522" data-name="Trazado 104522" d="M3305.694,274.863l-2.368-2.964a9.89,9.89,0,0,1-2.581,1.384c-1.071.268-1.431-.739-2.073-1.232l-1.348.581a10.624,10.624,0,0,1-3.692,6.537l-2.6,1.121c-.606.261-.814,1.271-.463,2.243l.284.786,10.933-4.712.171-1.286.306-.132.379,1.048,3.889-1.676-.284-.786A2.581,2.581,0,0,0,3305.694,274.863Z" transform="translate(-3290.397 -268.022)" fill="#16415d"/>
      </g>
    </g>
    <circle id="Elipse_4105" data-name="Elipse 4105" cx="11.733" cy="11.733" r="11.733" transform="translate(3186.714 57.42)" fill="#eaf0f9"/>
    <circle id="Elipse_4106" data-name="Elipse 4106" cx="5.866" cy="5.866" r="5.866" transform="translate(3146.984 31.585)" fill="#eaf0f9"/>
    <g id="Grupo_84890" data-name="Grupo 84890" transform="translate(3244.503 60.257)">
      <g id="Grupo_84888" data-name="Grupo 84888">
        <path id="Trazado_104523" data-name="Trazado 104523" d="M3267.5,62.089v6.557h1.418V62.089a.721.721,0,1,0-1.418,0Z" transform="translate(-3253.024 -61.234)" fill="#e5803c"/>
        <path id="Trazado_104524" data-name="Trazado 104524" d="M3267.5,91.545a.721.721,0,1,0,1.418,0V85.382H3267.5Z" transform="translate(-3253.024 -62.03)" fill="#e5803c"/>
        <path id="Trazado_104525" data-name="Trazado 104525" d="M3252.531,76.913a.792.792,0,0,0,.855.709h6.558V76.2h-6.558A.792.792,0,0,0,3252.531,76.913Z" transform="translate(-3252.531 -61.727)" fill="#e5803c"/>
        <path id="Trazado_104526" data-name="Trazado 104526" d="M3282.842,76.2h-6.162v1.418h6.162a.721.721,0,1,0,0-1.418Z" transform="translate(-3253.327 -61.727)" fill="#e5803c"/>
      </g>
      <g id="Grupo_84889" data-name="Grupo 84889" transform="translate(4.267 4.267)">
        <path id="Trazado_104527" data-name="Trazado 104527" d="M3257.227,66.933l4.637,4.636,1-1-4.636-4.637a.722.722,0,1,0-1,1Z" transform="translate(-3256.943 -65.646)" fill="#e5803c"/>
        <path id="Trazado_104528" data-name="Trazado 104528" d="M3278.045,87.75a.721.721,0,1,0,1-1l-4.357-4.357-1,1Z" transform="translate(-3257.495 -66.198)" fill="#e5803c"/>
        <path id="Trazado_104529" data-name="Trazado 104529" d="M3257.124,87.844a.793.793,0,0,0,1.106-.1l4.636-4.636-1-1-4.637,4.637A.793.793,0,0,0,3257.124,87.844Z" transform="translate(-3256.943 -66.189)" fill="#e5803c"/>
        <path id="Trazado_104530" data-name="Trazado 104530" d="M3278.045,65.93l-4.358,4.357,1,1,4.357-4.357a.721.721,0,1,0-1-1Z" transform="translate(-3257.495 -65.646)" fill="#e5803c"/>
      </g>
    </g>
    <g id="Grupo_84891" data-name="Grupo 84891" transform="translate(3036.692 220.261)">
      <path id="Trazado_104531" data-name="Trazado 104531" d="M3041.772,233.551h-4.135v-2.478h4.135v-4.382h2.537v4.382h4.134v2.478h-4.134v4.382h-2.537Z" transform="translate(-3037.637 -226.692)" fill="#e5803c"/>
    </g>
    <g id="Grupo_84892" data-name="Grupo 84892" transform="translate(3295.343 182.554)">
      <path id="Trazado_104532" data-name="Trazado 104532" d="M3311.108,197.66h-6v-3.6h6V187.7h3.685v6.364h6v3.6h-6v6.364h-3.685Z" transform="translate(-3305.104 -187.7)" fill="#729edb"/>
    </g>
  </g>
</svg>
