<svg xmlns="http://www.w3.org/2000/svg" xmlns:xlink="http://www.w3.org/1999/xlink" width="586" height="372.041" viewBox="0 0 586 372.041">
  <defs>
    <linearGradient id="linear-gradient" y1="0.5" x2="1" y2="0.5" gradientUnits="objectBoundingBox">
      <stop offset="0" stop-color="#0f2d47"/>
      <stop offset="1" stop-color="#0a2635"/>
    </linearGradient>
    <linearGradient id="linear-gradient-2" x1="415.813" y1="1" x2="415.813" gradientUnits="objectBoundingBox">
      <stop offset="0" stop-color="#002d49"/>
      <stop offset="1" stop-color="#002737"/>
    </linearGradient>
    <linearGradient id="linear-gradient-3" x1="412.168" y1="111.834" x2="412.168" y2="111.063" xlink:href="#linear-gradient-2"/>
  </defs>
  <g id="Grupo_87743" data-name="Grupo 87743" transform="translate(-514 -2257.959)">
    <path id="Trazado_111583" data-name="Trazado 111583" d="M0,0H173V61H0Z" transform="translate(709 2345)" fill="#db6e5f"/>
    <path id="Trazado_111584" data-name="Trazado 111584" d="M6.691-17.062,10.5-5.191l3.8-11.871h5.414V0H15.586V-3.984l.4-8.156L11.859,0H9.141L5-12.152l.4,8.168V0H1.289V-17.062ZM28.277.234a6.518,6.518,0,0,1-4.723-1.74,6.009,6.009,0,0,1-1.8-4.529v-.328A7.787,7.787,0,0,1,22.471-9.8a5.274,5.274,0,0,1,2.1-2.3,6.35,6.35,0,0,1,3.281-.814,5.489,5.489,0,0,1,4.219,1.658,6.516,6.516,0,0,1,1.547,4.623V-5.1H25.77A2.846,2.846,0,0,0,26.7-3.422a2.755,2.755,0,0,0,1.852.609,3.549,3.549,0,0,0,2.93-1.312l1.8,2.133A5.045,5.045,0,0,1,31.189-.369,7.069,7.069,0,0,1,28.277.234Zm-.445-10.1q-1.734,0-2.062,2.3h3.984v-.3a1.956,1.956,0,0,0-.48-1.471A1.912,1.912,0,0,0,27.832-9.867Zm11-2.812.129,1.488a4.3,4.3,0,0,1,3.621-1.723,3.618,3.618,0,0,1,2.959,1.184,5.635,5.635,0,0,1,1.014,3.563V0H42.6V-8a2.14,2.14,0,0,0-.387-1.412A1.789,1.789,0,0,0,40.8-9.867a1.883,1.883,0,0,0-1.723.914V0H35.133V-12.68ZM55.383-3.562a.912.912,0,0,0-.527-.809,8.021,8.021,0,0,0-2-.633,9.138,9.138,0,0,1-2.437-.861A4.083,4.083,0,0,1,48.949-7.16a3.092,3.092,0,0,1-.5-1.746,3.5,3.5,0,0,1,1.441-2.877,5.938,5.938,0,0,1,3.773-1.131,6.579,6.579,0,0,1,4.031,1.137,3.555,3.555,0,0,1,1.523,2.988H55.254q0-1.523-1.605-1.523a1.591,1.591,0,0,0-1.043.346,1.07,1.07,0,0,0-.422.861.982.982,0,0,0,.516.855,4.872,4.872,0,0,0,1.646.539,14.228,14.228,0,0,1,1.986.5q2.859.984,2.859,3.527A3.321,3.321,0,0,1,57.65-.855,6.758,6.758,0,0,1,53.66.234a6.9,6.9,0,0,1-2.906-.586,4.86,4.86,0,0,1-1.992-1.594,3.609,3.609,0,0,1-.715-2.121h3.691a1.526,1.526,0,0,0,.586,1.283,2.41,2.41,0,0,0,1.441.4,1.9,1.9,0,0,0,1.213-.328A1.05,1.05,0,0,0,55.383-3.562ZM68.18,0A4.459,4.459,0,0,1,67.8-1.137,3.672,3.672,0,0,1,64.758.234,4.5,4.5,0,0,1,61.711-.85a3.45,3.45,0,0,1-1.254-2.725A3.546,3.546,0,0,1,61.98-6.691a7.761,7.761,0,0,1,4.43-1.055h1.219v-.671q0-1.755-1.512-1.755a1.236,1.236,0,0,0-1.406,1.39H60.762a3.54,3.54,0,0,1,1.564-2.985,6.575,6.575,0,0,1,3.99-1.147,5.764,5.764,0,0,1,3.832,1.184A4.115,4.115,0,0,1,71.59-8.484v5.613A5.748,5.748,0,0,0,72.129-.2V0ZM65.707-2.578a2.2,2.2,0,0,0,1.225-.316,1.983,1.983,0,0,0,.7-.715V-5.637H66.48q-2.062,0-2.062,1.852a1.131,1.131,0,0,0,.363.873A1.315,1.315,0,0,0,65.707-2.578Zm12.316-10.1V.434A4.6,4.6,0,0,1,76.734,3.9a4.952,4.952,0,0,1-3.562,1.219,8.411,8.411,0,0,1-1.863-.2V1.934a7.556,7.556,0,0,0,1.113.105A1.445,1.445,0,0,0,74.063.41V-12.68ZM73.77-15.961a1.778,1.778,0,0,1,.609-1.391,2.29,2.29,0,0,1,1.582-.542,2.29,2.29,0,0,1,1.582.542,1.778,1.778,0,0,1,.609,1.391,1.778,1.778,0,0,1-.609,1.391,2.29,2.29,0,0,1-1.582.542,2.29,2.29,0,0,1-1.582-.542A1.778,1.778,0,0,1,73.77-15.961ZM86.391.234a6.518,6.518,0,0,1-4.723-1.74,6.009,6.009,0,0,1-1.8-4.529v-.328A7.787,7.787,0,0,1,80.584-9.8a5.274,5.274,0,0,1,2.1-2.3,6.35,6.35,0,0,1,3.281-.814,5.489,5.489,0,0,1,4.219,1.658,6.516,6.516,0,0,1,1.547,4.623V-5.1H83.883a2.846,2.846,0,0,0,.926,1.676,2.755,2.755,0,0,0,1.852.609,3.549,3.549,0,0,0,2.93-1.312l1.8,2.133A5.045,5.045,0,0,1,89.3-.369,7.069,7.069,0,0,1,86.391.234Zm-.445-10.1q-1.734,0-2.062,2.3h3.984v-.3a1.956,1.956,0,0,0-.48-1.471A1.912,1.912,0,0,0,85.945-9.867Z" transform="translate(750 2384)" fill="#fff"/>
    <path id="Trazado_111574" data-name="Trazado 111574" d="M0,0H173V61H0Z" transform="translate(709 2418)" fill="#db6e5f"/>
    <path id="Trazado_111575" data-name="Trazado 111575" d="M15.094-5.777a6.231,6.231,0,0,1-.961,3.146A5.8,5.8,0,0,1,11.666-.516a8.4,8.4,0,0,1-3.627.75,6.7,6.7,0,0,1-5.3-2.191A9.048,9.048,0,0,1,.809-8.145v-.844a10.328,10.328,0,0,1,.873-4.389A6.615,6.615,0,0,1,4.2-16.283a7.013,7.013,0,0,1,3.8-1.025,7.354,7.354,0,0,1,4.992,1.635,6.459,6.459,0,0,1,2.145,4.506h-4.1a3.056,3.056,0,0,0-.785-2.238,3.229,3.229,0,0,0-2.25-.68,2.457,2.457,0,0,0-2.25,1.148,7.381,7.381,0,0,0-.75,3.668v1.207a8.167,8.167,0,0,0,.686,3.9A2.509,2.509,0,0,0,8.039-2.988a3.159,3.159,0,0,0,2.168-.668A2.835,2.835,0,0,0,11-5.777Zm1.266-.68A7.484,7.484,0,0,1,17.1-9.838a5.28,5.28,0,0,1,2.121-2.279,6.388,6.388,0,0,1,3.246-.8,5.83,5.83,0,0,1,4.488,1.764,6.768,6.768,0,0,1,1.641,4.8v.141a6.566,6.566,0,0,1-1.646,4.705A5.846,5.846,0,0,1,22.488.234a5.912,5.912,0,0,1-4.348-1.623,6.348,6.348,0,0,1-1.77-4.4Zm3.949.246a4.718,4.718,0,0,0,.551,2.578,1.835,1.835,0,0,0,1.629.82q2.109,0,2.156-3.246v-.4q0-3.41-2.18-3.41-1.98,0-2.145,2.941ZM23-18h4.172l-3.258,3.68L20.7-14.326ZM29.836-6.434a7.746,7.746,0,0,1,1.3-4.746,4.282,4.282,0,0,1,3.633-1.734,3.641,3.641,0,0,1,2.859,1.336V-18H41.59V0H38.039l-.2-1.359A3.739,3.739,0,0,1,34.746.234,4.274,4.274,0,0,1,31.16-1.5,7.991,7.991,0,0,1,29.836-6.434Zm3.949.246q0,3.375,1.969,3.375a1.944,1.944,0,0,0,1.875-1.1V-8.742a1.892,1.892,0,0,0-1.852-1.125q-1.828,0-1.98,2.953ZM48,0H44.039V-12.68H48ZM43.8-15.961a1.778,1.778,0,0,1,.609-1.391A2.29,2.29,0,0,1,46-17.895a2.29,2.29,0,0,1,1.582.542,1.778,1.778,0,0,1,.609,1.391,1.778,1.778,0,0,1-.609,1.391A2.29,2.29,0,0,1,46-14.027a2.29,2.29,0,0,1-1.582-.542A1.778,1.778,0,0,1,43.8-15.961Zm6.164,9.527a8.561,8.561,0,0,1,.633-3.4,5.094,5.094,0,0,1,1.816-2.279,4.788,4.788,0,0,1,2.754-.8,3.807,3.807,0,0,1,3.094,1.336l.141-1.1h3.586V-.48a5.346,5.346,0,0,1-.779,2.912,5,5,0,0,1-2.256,1.9,8.292,8.292,0,0,1-3.422.662,7.153,7.153,0,0,1-2.7-.527,4.876,4.876,0,0,1-2-1.371L52.488.773a3.621,3.621,0,0,0,2.906,1.3q2.625,0,2.625-2.7v-.4A3.708,3.708,0,0,1,55.148.234,4.583,4.583,0,0,1,51.4-1.541a7.356,7.356,0,0,1-1.43-4.752Zm3.961.246a4.511,4.511,0,0,0,.586,2.467,1.849,1.849,0,0,0,1.641.908,2.1,2.1,0,0,0,1.863-.855V-9a2.045,2.045,0,0,0-1.84-.867,1.861,1.861,0,0,0-1.652.943A5.144,5.144,0,0,0,53.93-6.187Zm9.809-.27a7.484,7.484,0,0,1,.738-3.381A5.28,5.28,0,0,1,66.6-12.117a6.388,6.388,0,0,1,3.246-.8,5.83,5.83,0,0,1,4.488,1.764,6.768,6.768,0,0,1,1.641,4.8v.141a6.566,6.566,0,0,1-1.646,4.705A5.846,5.846,0,0,1,69.867.234,5.912,5.912,0,0,1,65.52-1.389a6.348,6.348,0,0,1-1.77-4.4Zm3.949.246a4.718,4.718,0,0,0,.551,2.578,1.835,1.835,0,0,0,1.629.82q2.109,0,2.156-3.246v-.4q0-3.41-2.18-3.41-1.98,0-2.145,2.941Z" transform="translate(757 2457)" fill="#fff"/>
    <path id="Trazado_111576" data-name="Trazado 111576" d="M0,0H173V61H0Z" transform="translate(709 2491)" fill="#db6e5f"/>
    <path id="Trazado_111577" data-name="Trazado 111577" d="M15.094-5.777a6.231,6.231,0,0,1-.961,3.146A5.8,5.8,0,0,1,11.666-.516a8.4,8.4,0,0,1-3.627.75,6.7,6.7,0,0,1-5.3-2.191A9.048,9.048,0,0,1,.809-8.145v-.844a10.328,10.328,0,0,1,.873-4.389A6.615,6.615,0,0,1,4.2-16.283a7.013,7.013,0,0,1,3.8-1.025,7.354,7.354,0,0,1,4.992,1.635,6.459,6.459,0,0,1,2.145,4.506h-4.1a3.056,3.056,0,0,0-.785-2.238,3.229,3.229,0,0,0-2.25-.68,2.457,2.457,0,0,0-2.25,1.148,7.381,7.381,0,0,0-.75,3.668v1.207a8.167,8.167,0,0,0,.686,3.9A2.509,2.509,0,0,0,8.039-2.988a3.159,3.159,0,0,0,2.168-.668A2.835,2.835,0,0,0,11-5.777ZM24,0a4.459,4.459,0,0,1-.375-1.137A3.672,3.672,0,0,1,20.578.234,4.5,4.5,0,0,1,17.531-.85a3.45,3.45,0,0,1-1.254-2.725A3.546,3.546,0,0,1,17.8-6.691a7.761,7.761,0,0,1,4.43-1.055h1.219v-.671q0-1.755-1.512-1.755a1.236,1.236,0,0,0-1.406,1.39H16.582a3.54,3.54,0,0,1,1.564-2.985,6.575,6.575,0,0,1,3.99-1.147,5.764,5.764,0,0,1,3.832,1.184A4.115,4.115,0,0,1,27.41-8.484v5.613A5.748,5.748,0,0,0,27.949-.2V0ZM21.527-2.578a2.2,2.2,0,0,0,1.225-.316,1.983,1.983,0,0,0,.7-.715V-5.637H22.3q-2.062,0-2.062,1.852a1.131,1.131,0,0,0,.363.873A1.315,1.315,0,0,0,21.527-2.578Zm11.7-10.1.129,1.488a4.3,4.3,0,0,1,3.621-1.723,3.618,3.618,0,0,1,2.959,1.184,5.635,5.635,0,0,1,1.014,3.563V0H36.984V-8A2.14,2.14,0,0,0,36.6-9.416a1.789,1.789,0,0,0-1.406-.451,1.883,1.883,0,0,0-1.723.914V0H29.52V-12.68ZM50.273,0A4.459,4.459,0,0,1,49.9-1.137,3.672,3.672,0,0,1,46.852.234,4.5,4.5,0,0,1,43.8-.85a3.45,3.45,0,0,1-1.254-2.725,3.546,3.546,0,0,1,1.523-3.117A7.761,7.761,0,0,1,48.5-7.746h1.219v-.671q0-1.755-1.512-1.755A1.236,1.236,0,0,0,46.8-8.782H42.855a3.54,3.54,0,0,1,1.564-2.985,6.575,6.575,0,0,1,3.99-1.147,5.764,5.764,0,0,1,3.832,1.184,4.115,4.115,0,0,1,1.441,3.246v5.613A5.748,5.748,0,0,0,54.223-.2V0ZM47.8-2.578a2.2,2.2,0,0,0,1.225-.316,1.983,1.983,0,0,0,.7-.715V-5.637H48.574q-2.062,0-2.062,1.852a1.131,1.131,0,0,0,.363.873A1.315,1.315,0,0,0,47.8-2.578ZM60.035,0H56.074V-18h3.961Z" transform="translate(765 2530)" fill="#fff"/>
    <path id="Trazado_111578" data-name="Trazado 111578" d="M15.094-5.777a6.231,6.231,0,0,1-.961,3.146A5.8,5.8,0,0,1,11.666-.516a8.4,8.4,0,0,1-3.627.75,6.7,6.7,0,0,1-5.3-2.191A9.048,9.048,0,0,1,.809-8.145v-.844a10.328,10.328,0,0,1,.873-4.389A6.615,6.615,0,0,1,4.2-16.283a7.013,7.013,0,0,1,3.8-1.025,7.354,7.354,0,0,1,4.992,1.635,6.459,6.459,0,0,1,2.145,4.506h-4.1a3.056,3.056,0,0,0-.785-2.238,3.229,3.229,0,0,0-2.25-.68,2.457,2.457,0,0,0-2.25,1.148,7.381,7.381,0,0,0-.75,3.668v1.207a8.167,8.167,0,0,0,.686,3.9A2.509,2.509,0,0,0,8.039-2.988a3.159,3.159,0,0,0,2.168-.668A2.835,2.835,0,0,0,11-5.777Zm16.395-2.4a10.062,10.062,0,0,1-.926,4.418A6.842,6.842,0,0,1,27.932-.8,7.326,7.326,0,0,1,24.047.234a7.429,7.429,0,0,1-3.867-1,6.831,6.831,0,0,1-2.631-2.865,9.772,9.772,0,0,1-.99-4.277v-.961a10.106,10.106,0,0,1,.92-4.424,6.825,6.825,0,0,1,2.637-2.959A7.377,7.377,0,0,1,24.023-17.3a7.3,7.3,0,0,1,3.867,1.031,6.948,6.948,0,0,1,2.643,2.936,9.816,9.816,0,0,1,.955,4.365ZM27.3-8.895a7.175,7.175,0,0,0-.85-3.861,2.725,2.725,0,0,0-2.432-1.318q-3.094,0-3.27,4.641L20.742-8.18a7.379,7.379,0,0,0,.832,3.855,2.721,2.721,0,0,0,2.473,1.348,2.688,2.688,0,0,0,2.4-1.324A7.178,7.178,0,0,0,27.3-8.109ZM47.859,0H43.77L37.723-10.617V0H33.609V-17.062h4.113L43.758-6.445V-17.062h4.1ZM63.516-13.887H58.395V0H54.281V-13.887H49.254v-3.176H63.516ZM75.832-7.242H69.363v4.078H77V0H65.25V-17.062H77.027v3.176H69.363v3.6h6.469Zm9.211-4.148,2.789-5.672h4.7L87.762-8.6,92.66,0H87.914L85.043-5.777,82.172,0H77.438l4.887-8.6-4.758-8.461h4.688Zm22.348-2.5H102.27V0H98.156V-13.887H93.129v-3.176h14.262ZM123.246-8.18a10.062,10.062,0,0,1-.926,4.418A6.842,6.842,0,0,1,119.689-.8,7.326,7.326,0,0,1,115.8.234a7.429,7.429,0,0,1-3.867-1,6.831,6.831,0,0,1-2.631-2.865,9.772,9.772,0,0,1-.99-4.277v-.961a10.106,10.106,0,0,1,.92-4.424,6.825,6.825,0,0,1,2.637-2.959,7.377,7.377,0,0,1,3.908-1.043,7.3,7.3,0,0,1,3.867,1.031,6.948,6.948,0,0,1,2.643,2.936,9.816,9.816,0,0,1,.955,4.365Zm-4.184-.715a7.175,7.175,0,0,0-.85-3.861,2.725,2.725,0,0,0-2.432-1.318q-3.094,0-3.27,4.641L112.5-8.18a7.379,7.379,0,0,0,.832,3.855A2.721,2.721,0,0,0,115.8-2.977a2.688,2.688,0,0,0,2.4-1.324,7.178,7.178,0,0,0,.855-3.809Z" transform="translate(738 2608)" fill="#12263f"/>
    <path id="Trazado_111585" data-name="Trazado 111585" d="M6.753-3.955H15.7V0H1.611V-21.328H6.753Zm23.511-.029H23.218L21.987,0H16.494l7.822-21.328H29.15L37.031,0H31.509Zm-5.815-3.97h4.585l-2.3-7.4Zm38.862.732a7.789,7.789,0,0,1-1.2,3.933A7.249,7.249,0,0,1,59.026-.645a10.5,10.5,0,0,1-4.534.938,8.375,8.375,0,0,1-6.621-2.739q-2.417-2.739-2.417-7.734v-1.055a12.91,12.91,0,0,1,1.091-5.486,8.269,8.269,0,0,1,3.142-3.633,8.767,8.767,0,0,1,4.746-1.282,9.193,9.193,0,0,1,6.24,2.043,8.074,8.074,0,0,1,2.681,5.632H58.228a3.82,3.82,0,0,0-.981-2.8,4.037,4.037,0,0,0-2.812-.85,3.071,3.071,0,0,0-2.812,1.436,9.226,9.226,0,0,0-.937,4.585v1.509A10.209,10.209,0,0,0,51.541-5.2a3.136,3.136,0,0,0,2.952,1.465A3.948,3.948,0,0,0,57.2-4.57a3.544,3.544,0,0,0,1-2.651Zm20.493-3A12.577,12.577,0,0,1,82.646-4.7,8.553,8.553,0,0,1,79.358-1,9.157,9.157,0,0,1,74.5.293,9.286,9.286,0,0,1,69.668-.959a8.538,8.538,0,0,1-3.289-3.582,12.215,12.215,0,0,1-1.238-5.347v-1.2a12.633,12.633,0,0,1,1.15-5.53,8.532,8.532,0,0,1,3.3-3.7,9.221,9.221,0,0,1,4.885-1.3,9.131,9.131,0,0,1,4.834,1.289,8.685,8.685,0,0,1,3.3,3.669A12.27,12.27,0,0,1,83.8-11.206Zm-5.229-.894a8.969,8.969,0,0,0-1.062-4.827,3.406,3.406,0,0,0-3.04-1.648q-3.867,0-4.087,5.8l-.015,1.567a9.224,9.224,0,0,0,1.04,4.819A3.4,3.4,0,0,0,74.5-3.721a3.36,3.36,0,0,0,3-1.655,8.972,8.972,0,0,0,1.069-4.761Zm14.634-10.21L97.969-6.489l4.746-14.839h6.768V0h-5.156V-4.98l.5-10.2L99.668,0h-3.4L91.1-15.19l.5,10.21V0H86.455V-21.328Zm36.27,0v13.96a8.023,8.023,0,0,1-1.011,4.109,6.548,6.548,0,0,1-2.9,2.644A10.218,10.218,0,0,1,121.1.293a8.827,8.827,0,0,1-6.138-2.021,7.21,7.21,0,0,1-2.285-5.537V-21.328h5.171V-7.163q.088,3.5,3.252,3.5a3.148,3.148,0,0,0,2.417-.879,4.108,4.108,0,0,0,.82-2.856V-21.328ZM150.5,0h-5.112l-7.559-13.271V0h-5.142V-21.328h5.142l7.544,13.271V-21.328H150.5Zm8.73,0H154.1V-21.328h5.127Zm20.83-7.222a7.789,7.789,0,0,1-1.2,3.933,7.249,7.249,0,0,1-3.083,2.644,10.5,10.5,0,0,1-4.534.938,8.375,8.375,0,0,1-6.621-2.739Q162.2-5.186,162.2-10.181v-1.055a12.91,12.91,0,0,1,1.091-5.486,8.269,8.269,0,0,1,3.142-3.633,8.767,8.767,0,0,1,4.746-1.282,9.193,9.193,0,0,1,6.24,2.043A8.074,8.074,0,0,1,180.1-13.96h-5.127a3.82,3.82,0,0,0-.981-2.8,4.037,4.037,0,0,0-2.812-.85,3.071,3.071,0,0,0-2.812,1.436,9.226,9.226,0,0,0-.937,4.585v1.509a10.209,10.209,0,0,0,.857,4.878,3.136,3.136,0,0,0,2.952,1.465,3.948,3.948,0,0,0,2.71-.835,3.544,3.544,0,0,0,1-2.651ZM194.6-3.984h-7.046L186.328,0h-5.493l7.822-21.328h4.834L201.372,0H195.85Zm-5.815-3.97h4.585l-2.3-7.4Zm31.084.732a7.789,7.789,0,0,1-1.2,3.933,7.249,7.249,0,0,1-3.083,2.644,10.5,10.5,0,0,1-4.534.938,8.375,8.375,0,0,1-6.621-2.739q-2.417-2.739-2.417-7.734v-1.055a12.91,12.91,0,0,1,1.091-5.486,8.269,8.269,0,0,1,3.142-3.633A8.767,8.767,0,0,1,211-21.636a9.193,9.193,0,0,1,6.24,2.043,8.074,8.074,0,0,1,2.681,5.632H214.79a3.82,3.82,0,0,0-.981-2.8,4.037,4.037,0,0,0-2.812-.85,3.071,3.071,0,0,0-2.812,1.436,9.226,9.226,0,0,0-.937,4.585v1.509A10.209,10.209,0,0,0,208.1-5.2a3.136,3.136,0,0,0,2.952,1.465,3.948,3.948,0,0,0,2.71-.835,3.544,3.544,0,0,0,1-2.651ZM227.783,0h-5.127V-21.328h5.127Zm21.636-10.225A12.577,12.577,0,0,1,248.262-4.7,8.553,8.553,0,0,1,244.973-1a9.157,9.157,0,0,1-4.856,1.3,9.286,9.286,0,0,1-4.834-1.252,8.538,8.538,0,0,1-3.289-3.582,12.215,12.215,0,0,1-1.238-5.347v-1.2a12.633,12.633,0,0,1,1.15-5.53,8.532,8.532,0,0,1,3.3-3.7,9.221,9.221,0,0,1,4.885-1.3,9.131,9.131,0,0,1,4.834,1.289,8.685,8.685,0,0,1,3.3,3.669,12.27,12.27,0,0,1,1.194,5.457Zm-5.229-.894a8.969,8.969,0,0,0-1.062-4.827,3.406,3.406,0,0,0-3.04-1.648q-3.867,0-4.087,5.8l-.015,1.567a9.224,9.224,0,0,0,1.04,4.819,3.4,3.4,0,0,0,3.091,1.685,3.36,3.36,0,0,0,3-1.655,8.972,8.972,0,0,0,1.069-4.761Zm-3.5-15.923H245.9l-4.072,4.6-4.028-.007ZM269.883,0h-5.112l-7.559-13.271V0H252.07V-21.328h5.142l7.544,13.271V-21.328h5.127Z" transform="translate(664 2285)" fill="#12263f"/>
    <g id="Grupo_87386" data-name="Grupo 87386" transform="translate(-2931.412 1602.479)">
      <ellipse id="Elipse_4387" data-name="Elipse 4387" cx="67.922" cy="5.536" rx="67.922" ry="5.536" transform="translate(3459.569 940.45)" fill="#81aebb" opacity="0.6"/>
      <path id="Trazado_110055" data-name="Trazado 110055" d="M3498.424,763.228a.5.5,0,0,0,.479-.361l3.37-12.309a.484.484,0,0,0-.353-.594.5.5,0,0,0-.61.344l-3.369,12.309a.484.484,0,0,0,.353.594A.525.525,0,0,0,3498.424,763.228Z" transform="translate(21.024 46.898)" fill="#474985"/>
      <path id="Trazado_110056" data-name="Trazado 110056" d="M3479.678,748.03l53.11-1.517c.556,9.793,1.848,36.8,2.836,51.784,2.155,41.9,6.2,95.227,6.2,95.227l6.042,6.257h-14.938L3514.5,798.3l-5.847-29.676-3.7.074-2.488,29.6-10,101.485h-12.583l3.122-5.708s-2.311-47.234-3.361-95.777C3479.289,785.16,3479.236,760.279,3479.678,748.03Z" transform="translate(10.848 45.015)" fill="url(#linear-gradient)"/>
      <path id="Trazado_110057" data-name="Trazado 110057" d="M3468.43,742.994a11.27,11.27,0,0,1,.539-2.971,40.707,40.707,0,0,1,3.344-10.086q4.754-11.04,9.51-22.079a50.96,50.96,0,0,1,5.434-8.909c3.982-5.369,9.9-7.132,17.349-7.106,3.475.011-5.784,13.993-7.993,17.409-3.268,5.05-4.336,11.184-9.423,20.729-1.7,3.192-3.055,8.145-5.042,11.906.045.69.047,1.387.041,2.07q-.075,7.4-.15,14.794c-.045,4.46-.2,8.623.921,12.964a4.621,4.621,0,0,1-1.859,4.861,7.172,7.172,0,0,1-4.482,1.746,91.42,91.42,0,0,1-7.15-20.593q-.448-2.266-.717-4.559A60.618,60.618,0,0,1,3468.43,742.994Z" transform="translate(4.811 15.05)" fill="#4374af"/>
      <path id="Trazado_110058" data-name="Trazado 110058" d="M3478.706,783.147l55.277,2.282c-.149-9.71-.813-23.219-1.3-30.7-.041-.478-.059-.94-.078-1.382-.339-4.808-.529-9.53-.469-14.572,0-.5,0-1,.021-1.5.042-1.977.144-4.013.3-6.123.251-3.424.637-7.056,1.212-11.009.8-5.511,4.234-13.27,3.346-17.525-1.112-5.154-5.7-9.139-11.3-10.781a20.16,20.16,0,0,0-6.446-.841l-22.972.759c-15.834.523-17.529,15.758-17.125,26.234.317,8.3.859,16.61,1.239,24.926a166.546,166.546,0,0,1-.7,28.258C3479.4,774.454,3478.774,779.8,3478.706,783.147Z" transform="translate(10.489 14.581)" fill="#729edb"/>
      <path id="Trazado_110059" data-name="Trazado 110059" d="M3492.8,726.846c6.968,3.113,23.745,9.169,27.16,11.071a59.827,59.827,0,0,0,6.037,2.9c-.039-.478-.057-.94-.075-1.382-.339-4.808-.531-9.53-.469-14.572a122.973,122.973,0,0,1-18.618-5.48c-1.875-.769-8.58-4.445-9.868-2.389a21.882,21.882,0,0,1-4.884,4.815A2.9,2.9,0,0,0,3492.8,726.846Z" transform="translate(17.181 28.498)" fill="#4374af"/>
      <path id="Trazado_110060" data-name="Trazado 110060" d="M3486.676,705.729a1.757,1.757,0,0,0,.031.457l4.457,16.9a2.02,2.02,0,0,0,1.946,1.375l9.64-.22a1.645,1.645,0,0,0,.824-.257l0-.019a1.065,1.065,0,0,0,.365-1.177l-4.453-16.916a1.993,1.993,0,0,0-1.929-1.351l-9.642.218A1.186,1.186,0,0,0,3486.676,705.729Z" transform="translate(14.856 21.996)" fill="#686868"/>
      <path id="Trazado_110061" data-name="Trazado 110061" d="M3486.676,705.474a1.757,1.757,0,0,0,.031.457l4.457,16.9a2.02,2.02,0,0,0,1.946,1.375l9.64-.22a1.645,1.645,0,0,0,.824-.257l0-.019a.888.888,0,0,0-.031-.455l-4.452-16.915a2.009,2.009,0,0,0-1.951-1.356l-9.64.218A1.455,1.455,0,0,0,3486.676,705.474Z" transform="translate(14.856 22.25)" fill="#3e403f"/>
      <path id="Trazado_110062" data-name="Trazado 110062" d="M3499.907,715.752c3.293,1.438,3.807,6.087,5.1,7.745,1.563,2.006-1.628,2.653-5.09,2.225-3.1-.382-6.894-1.687-8.13-3.152a8.134,8.134,0,0,1-2.267-6.48C3489.617,713.021,3495.608,713.875,3499.907,715.752Z" transform="translate(16.411 27.228)" fill="#ecc7a4"/>
      <path id="Trazado_110063" data-name="Trazado 110063" d="M3498.09,731.052c1.265-1.437,2.6-.384,4.466.175,6.7,2,18.311,1.513,26.965,2.536-.587-1.378-1.133-2.7-1.652-3.881-5.116-11.622-8.137-16.538-10.1-20.7-1.836-3.889-10.2-18.037-6.771-18.15,8.731-.288,13.888,1.689,17.438,7.7,7.449,12.62,11.151,23.4,13.613,30.029,1.592,4.288,3.639,7.041,3.942,11.2.014.119.014,2.816.022,2.94.094,1.98-.251,1.09-1.27,2.236-.1.2-.193.4-.311.608-2.271,4.025-17.449,3.256-27.62-.8-4.828-1.924-19.561-8.659-19.561-8.659A5.221,5.221,0,0,1,3498.09,731.052Z" transform="translate(20.455 14.59)" fill="#729edb"/>
      <path id="Trazado_110064" data-name="Trazado 110064" d="M3492.518,691.624a5.569,5.569,0,0,0,.548,1.385c1.2,2.288,3.838,3.7,7.294,3.582a15.7,15.7,0,0,0,10.746-5.285c.1-.1.195-.211.274-.3Z" transform="translate(18.06 14.589)" fill="#b17b45"/>
      <path id="Trazado_110065" data-name="Trazado 110065" d="M3509.436,683.871v11.646s-8.823,9.973-16.927.232l.708-11.879Z" transform="translate(18.055 10.68)" fill="#e0beab"/>
      <path id="Trazado_110066" data-name="Trazado 110066" d="M3500.22,690.656c.215.031.434.056.654.073a9.887,9.887,0,0,0,7.256-2.288.392.392,0,0,0,.007-.594.5.5,0,0,0-.659-.034,8.99,8.99,0,0,1-13.066-1.6.51.51,0,0,0-.652-.119.388.388,0,0,0-.1.582A10.117,10.117,0,0,0,3500.22,690.656Z" transform="translate(18.636 11.858)" fill="#b07762"/>
      <path id="Trazado_110067" data-name="Trazado 110067" d="M3514.086,679.957c1.059,9.5-.135,19.774-7.372,20.444-7.525.7-15.472-3.728-16.531-13.227s3.887-18.472,11.047-20.04S3513.027,670.458,3514.086,679.957Z" transform="translate(16.702 1.348)" fill="#ecc7a4"/>
      <path id="Trazado_110068" data-name="Trazado 110068" d="M3514.479,672.627a3.414,3.414,0,0,0-.5-3.12,7.619,7.619,0,0,0-.522-.726,18.8,18.8,0,0,0-3.166-3c-.037.006-.079.006-.113.014-5.477-1.729-11.812-2.147-16.765.314a7.923,7.923,0,0,0-4.393,4.943c-1.285,2.722-.9,7.109-.2,10.406.189.9.4,1.714.611,2.4.965,3.166,2.2,7.459,4.752,9.859a3.181,3.181,0,0,0,2.172.782c.042-.009.079-.016.113-.022-.089-.144-.184-.294-.268-.452a11.943,11.943,0,0,1-.2-2.989,1.741,1.741,0,0,1-1.057.563,2.189,2.189,0,0,1-1.254-.426,4.067,4.067,0,0,1-1.886-3.661,7.559,7.559,0,0,1,.228-1.694c.006-.008.006-.02.014-.028a2.945,2.945,0,0,1,.548-1.164.965.965,0,0,1,.745-.371,2.711,2.711,0,0,1,1.5,1c.029.04.056.081.082.115q.121.68.291,1.338c.118.508.268,1.016.423,1.509a5.724,5.724,0,0,0,1.878.774l.026-.328a22.963,22.963,0,0,1-.832-8.522c.026-.706.061-1.412.083-2.118.026-.658.045-1.308.045-1.96l-.006-.1c2.98-.192,6.013-.385,8.567-1.48a10.192,10.192,0,0,0-2.6,1.734c-.262.226-.511.458-.757.692-.593.562-1.163,1.138-1.756,1.674,3.392.246,8.457-1.661,11.9-3.771.5-.31.955-.618,1.375-.926l.013.014.014.02q.1,1.119.148,2.27a55.631,55.631,0,0,1-.107,8.289,1.248,1.248,0,0,1,.16.014c.14-.728.344-1.434.536-2.14a15.938,15.938,0,0,0,.587-2.941C3515.069,677.426,3515.538,674.471,3514.479,672.627Z" transform="translate(15.678 0)" fill="#204a59"/>
      <path id="Trazado_110069" data-name="Trazado 110069" d="M3482.986,746.435h0c-.833-.76-1.731-1.623-2.623-2.4a2.551,2.551,0,0,0-.36.447c-1.1,2.2-2.146,4.081-6.55,4.81.748,1.152,1.443,2.063,5.5,5.017a11.491,11.491,0,0,0,7.154,1.757c1.5-.164,2.649-1.448,2.627-2.248A74.929,74.929,0,0,0,3482.986,746.435Z" transform="translate(7.609 43.657)" fill="#ecc7a4"/>
      <path id="Trazado_110070" data-name="Trazado 110070" d="M3486.514,841.6l7.546.428-.647,5.637h-15.984Z" transform="translate(9.789 97.133)" fill="#18142d"/>
      <path id="Trazado_110071" data-name="Trazado 110071" d="M3541.139,849.545h-20.858l-1.576-1.987-1.334,1.987h-3.645v-9.129l10.37-1.886,5.159,6.3,11.885,3.534Z" transform="translate(29.684 95.451)" fill="#18142d"/>
    </g>
    <g id="Grupo_87398" data-name="Grupo 87398" transform="translate(-2477.068 1886.97)">
      <g id="Grupo_87387" data-name="Grupo 87387" transform="translate(3423.885 649.616)">
        <ellipse id="Elipse_4388" data-name="Elipse 4388" cx="50.613" cy="8.707" rx="50.613" ry="8.707" transform="translate(0 0)" fill="#c7d0dd" opacity="0.3"/>
      </g>
      <g id="Grupo_87397" data-name="Grupo 87397" transform="translate(3450.451 392.563)">
        <path id="Trazado_110092" data-name="Trazado 110092" d="M3322.668,556.835l-15.715,2.06,7.437-9.709,1.674-15.005h8.146l-.867,12.357Z" transform="translate(-3301.092 -293.576)" fill="#f3c6a0"/>
        <path id="Trazado_110093" data-name="Trazado 110093" d="M3320.84,548.015s-6.4.695-8.979,1.1a16.475,16.475,0,0,0-8.358,4.045h8.605l8.731-3.274v2.391h4.116v-6.325Z" transform="translate(-3303.503 -285.345)" fill="url(#linear-gradient-2)"/>
        <path id="Trazado_110094" data-name="Trazado 110094" d="M3341.285,557.623l-15.424,3.646,6.412-10.415.141-15.1,8.1-.828.394,12.381Z" transform="translate(-3287.876 -293.053)" fill="#f3c6a0"/>
        <path id="Trazado_110095" data-name="Trazado 110095" d="M3339.3,549.212s-6.294,1.341-8.823,2.01a16.475,16.475,0,0,0-7.9,4.873l8.561-.873,8.354-4.145.243,2.38,4.094-.42-.644-6.293Z" transform="translate(-3290.171 -284.795)" fill="url(#linear-gradient-3)"/>
        <path id="Trazado_110096" data-name="Trazado 110096" d="M3350.769,602.27l-11.823-.844s.781-25.141.469-53.383a448.807,448.807,0,0,0-3.964-53.222l-14.492,105.321-9.781-.7s2.121-72.993,3.182-94.228a245.049,245.049,0,0,1,5.985-41.117s13.648.342,23.215-.336a44.965,44.965,0,0,0,16.164-4.127,202.828,202.828,0,0,1,5.07,46C3364.795,532.055,3350.769,602.27,3350.769,602.27Z" transform="translate(-3298.138 -345.682)" fill="#314572"/>
        <path id="Trazado_110097" data-name="Trazado 110097" d="M3358.288,484.508,3344.464,490l-25-1.03-4.409-4.737a180.524,180.524,0,0,0-.693-29.45c-1.707-16.788-1.675-22.374,1.434-25.1s10.012-4.484,21.29-5.452c8.4-.722,18.249.88,21.2.88,6.913,0,12.569,11.312,12.569,11.312l-7.546,19.166a20.753,20.753,0,0,0-5.835,11.657C3356.578,474.375,3358.288,484.508,3358.288,484.508Z" transform="translate(-3296.702 -370.556)" fill="#f7882d"/>
        <path id="Trazado_110098" data-name="Trazado 110098" d="M3350.235,431.334l-7.5,17.91,10.956,16.653-10.956,16.653,5.615,4.713L3367.2,464.64Z" transform="translate(-3276.08 -365.463)" fill="#f7882d"/>
        <path id="Trazado_110099" data-name="Trazado 110099" d="M3317.421,476.126h-5.595l4.215-16.653,3.852,4.737Z" transform="translate(-3297.686 -345.794)" fill="#f7882d"/>
        <path id="Trazado_110100" data-name="Trazado 110100" d="M3346.568,432.814s-12.778,12.294-16.13,12.36-6.913.629-10.054-1.99,1.047-10.37,1.047-10.37,9.845-3.77,4.818-12.149,13.807-8.379,11.616,0S3346.568,432.814,3346.568,432.814Z" transform="translate(-3292.522 -377.313)" fill="#ecb5a1"/>
        <path id="Trazado_110101" data-name="Trazado 110101" d="M3334.945,422.255a8.888,8.888,0,0,1,.265-1.59c2.19-8.379-16.643-8.379-11.616,0,1.733,2.888,1.7,5.228.909,7.056A15.236,15.236,0,0,0,3334.945,422.255Z" transform="translate(-3290.059 -377.313)" fill="#bb673d"/>
        <path id="Trazado_110102" data-name="Trazado 110102" d="M3342.237,417.583c0,8.85-5.185,16.025-11.581,16.025s-9.367-6.031-11.025-16.025c-1.448-8.731,4.628-16.025,11.025-16.025S3342.237,408.733,3342.237,417.583Z" transform="translate(-3292.381 -386.275)" fill="#ecb5a1"/>
        <path id="Trazado_110103" data-name="Trazado 110103" d="M3335.215,394.653c-10.3,0-18.642,7.5-18.642,16.759,0,3.984,1.978,8.031,5.048,11.349,0-.119,0-.238,0-.352,0-5.09,4.517-9.113,10.357-9.113,1.46,0,6.906-2.2,6.906-2.2a18.227,18.227,0,0,0,.649,5.967c.938,3.107,3.018,6.215,3.018,8.17a9.916,9.916,0,0,1-1.438,4.611c8.1-1.933,12.75-10.314,12.75-18.436C3353.858,402.156,3345.513,394.653,3335.215,394.653Z" transform="translate(-3294.366 -391.102)" fill="#314572"/>
        <circle id="Elipse_4393" data-name="Elipse 4393" cx="7.641" cy="7.641" r="7.641" transform="translate(40.849)" fill="#314572"/>
        <path id="Trazado_110104" data-name="Trazado 110104" d="M3350.527,464.892l-4.57-2.87-1.688,1.842a14.786,14.786,0,0,0-4.512,6.2c-1.8,4.29-1.611,8.136.433,8.592s5.163-2.654,6.968-6.944a14.638,14.638,0,0,0,1.231-5.111Z" transform="translate(-3279.028 -344.013)" fill="#f3c6a0"/>
        <path id="Trazado_110105" data-name="Trazado 110105" d="M3317.523,469.275l-5.4.058-.425,2.462a14.794,14.794,0,0,0-.447,7.652c.8,4.584,3.044,7.715,5.01,6.993s2.909-5.026,2.107-9.609a14.686,14.686,0,0,0-1.726-4.964Z" transform="translate(-3298.284 -338.943)" fill="#f3c6a0"/>
      </g>
    </g>
    <path id="Trazado_111579" data-name="Trazado 111579" d="M0,0H173V61H0Z" transform="translate(514 2569)" fill="#f2df85"/>
    <path id="Trazado_111580" data-name="Trazado 111580" d="M11.871-7.242H5.4v4.078h7.641V0H1.289V-17.062H13.066v3.176H5.4v3.6h6.469Zm6.4-5.437.129,1.488a4.36,4.36,0,0,1,3.621-1.723A3.21,3.21,0,0,1,25.266-11a4.22,4.22,0,0,1,3.727-1.91q3.855,0,3.961,4.664V0H28.992V-8a2.417,2.417,0,0,0-.328-1.418,1.4,1.4,0,0,0-1.2-.445,1.871,1.871,0,0,0-1.746,1.043l.012.164V0H21.773V-7.98a2.541,2.541,0,0,0-.316-1.441,1.393,1.393,0,0,0-1.207-.445,1.894,1.894,0,0,0-1.734,1.043V0H14.566V-12.68ZM39.375,0H35.414V-12.68h3.961Zm-4.2-15.961a1.778,1.778,0,0,1,.609-1.391,2.29,2.29,0,0,1,1.582-.542,2.29,2.29,0,0,1,1.582.542,1.778,1.778,0,0,1,.609,1.391,1.778,1.778,0,0,1-.609,1.391,2.29,2.29,0,0,1-1.582.542,2.29,2.29,0,0,1-1.582-.542A1.778,1.778,0,0,1,35.18-15.961Zm13.266,12.4a.912.912,0,0,0-.527-.809,8.021,8.021,0,0,0-2-.633,9.138,9.138,0,0,1-2.437-.861A4.083,4.083,0,0,1,42.012-7.16a3.092,3.092,0,0,1-.5-1.746,3.5,3.5,0,0,1,1.441-2.877,5.938,5.938,0,0,1,3.773-1.131,6.579,6.579,0,0,1,4.031,1.137,3.555,3.555,0,0,1,1.523,2.988H48.316q0-1.523-1.605-1.523a1.591,1.591,0,0,0-1.043.346,1.07,1.07,0,0,0-.422.861.982.982,0,0,0,.516.855,4.872,4.872,0,0,0,1.646.539,14.228,14.228,0,0,1,1.986.5q2.859.984,2.859,3.527A3.321,3.321,0,0,1,50.713-.855a6.758,6.758,0,0,1-3.99,1.09,6.9,6.9,0,0,1-2.906-.586,4.86,4.86,0,0,1-1.992-1.594,3.609,3.609,0,0,1-.715-2.121H44.8a1.526,1.526,0,0,0,.586,1.283,2.41,2.41,0,0,0,1.441.4,1.9,1.9,0,0,0,1.213-.328A1.05,1.05,0,0,0,48.445-3.562ZM53.6-6.457a7.484,7.484,0,0,1,.738-3.381,5.28,5.28,0,0,1,2.121-2.279,6.388,6.388,0,0,1,3.246-.8A5.83,5.83,0,0,1,64.2-11.15a6.768,6.768,0,0,1,1.641,4.8v.141a6.566,6.566,0,0,1-1.646,4.705A5.846,5.846,0,0,1,59.73.234a5.912,5.912,0,0,1-4.348-1.623,6.348,6.348,0,0,1-1.77-4.4Zm3.949.246A4.718,4.718,0,0,0,58.1-3.633a1.835,1.835,0,0,0,1.629.82q2.109,0,2.156-3.246v-.4q0-3.41-2.18-3.41-1.98,0-2.145,2.941Zm17.7-2.895-1.3-.094a2.336,2.336,0,0,0-2.391,1.172V0H67.605V-12.68h3.7l.129,1.629a3.058,3.058,0,0,1,2.777-1.863,3.851,3.851,0,0,1,1.1.141Z" transform="translate(563 2608)" fill="#12263f"/>
    <path id="Trazado_111581" data-name="Trazado 111581" d="M0,0H173V61H0Z" transform="translate(927 2569)" fill="#f2df85"/>
    <path id="Trazado_111582" data-name="Trazado 111582" d="M7.629-6.035H5.4V0H1.289V-17.062H8a7.5,7.5,0,0,1,4.746,1.346,4.561,4.561,0,0,1,1.711,3.8,5.54,5.54,0,0,1-.721,2.95,5.115,5.115,0,0,1-2.256,1.9L15.047-.176V0H10.641ZM5.4-9.2H8a2.335,2.335,0,0,0,1.764-.617,2.384,2.384,0,0,0,.592-1.721,2.412,2.412,0,0,0-.6-1.733A2.313,2.313,0,0,0,8-13.9H5.4ZM22.9.234a6.518,6.518,0,0,1-4.723-1.74,6.009,6.009,0,0,1-1.8-4.529v-.328A7.787,7.787,0,0,1,17.092-9.8a5.274,5.274,0,0,1,2.1-2.3,6.35,6.35,0,0,1,3.281-.814A5.489,5.489,0,0,1,26.7-11.256a6.516,6.516,0,0,1,1.547,4.623V-5.1H20.391a2.846,2.846,0,0,0,.926,1.676,2.755,2.755,0,0,0,1.852.609A3.549,3.549,0,0,0,26.1-4.125l1.8,2.133A5.045,5.045,0,0,1,25.811-.369,7.069,7.069,0,0,1,22.9.234Zm-.445-10.1q-1.734,0-2.062,2.3h3.984v-.3a1.956,1.956,0,0,0-.48-1.471A1.912,1.912,0,0,0,22.453-9.867ZM35.191-2.812a1.756,1.756,0,0,0,1.289-.451,1.654,1.654,0,0,0,.445-1.26h3.7A4.384,4.384,0,0,1,39.135-1.1,5.558,5.558,0,0,1,35.285.234,5.627,5.627,0,0,1,30.926-1.5a6.834,6.834,0,0,1-1.594-4.8v-.164a7.723,7.723,0,0,1,.709-3.393,5.162,5.162,0,0,1,2.045-2.262,6.1,6.1,0,0,1,3.164-.791,5.488,5.488,0,0,1,3.926,1.371,4.863,4.863,0,0,1,1.453,3.715h-3.7a2.168,2.168,0,0,0-.48-1.512,1.658,1.658,0,0,0-1.289-.527q-1.535,0-1.793,1.957A13.809,13.809,0,0,0,33.281-6.2a5.424,5.424,0,0,0,.457,2.648A1.582,1.582,0,0,0,35.191-2.812ZM48.434.234a6.518,6.518,0,0,1-4.723-1.74,6.009,6.009,0,0,1-1.8-4.529v-.328A7.787,7.787,0,0,1,42.627-9.8a5.274,5.274,0,0,1,2.1-2.3,6.35,6.35,0,0,1,3.281-.814,5.489,5.489,0,0,1,4.219,1.658,6.516,6.516,0,0,1,1.547,4.623V-5.1H45.926a2.846,2.846,0,0,0,.926,1.676,2.755,2.755,0,0,0,1.852.609,3.549,3.549,0,0,0,2.93-1.312l1.8,2.133A5.045,5.045,0,0,1,51.346-.369,7.069,7.069,0,0,1,48.434.234Zm-.445-10.1q-1.734,0-2.062,2.3H49.91v-.3a1.956,1.956,0,0,0-.48-1.471A1.912,1.912,0,0,0,47.988-9.867ZM67.137-6.246a7.646,7.646,0,0,1-1.33,4.717A4.264,4.264,0,0,1,62.215.234a3.655,3.655,0,0,1-2.871-1.277V4.875H55.395V-12.68h3.691l.117,1.172a3.656,3.656,0,0,1,2.988-1.406,4.3,4.3,0,0,1,3.645,1.729,7.741,7.741,0,0,1,1.3,4.752Zm-3.949-.246q0-3.375-1.969-3.375a1.859,1.859,0,0,0-1.875,1.008v4.992a1.919,1.919,0,0,0,1.9,1.055q1.887,0,1.945-3.258Zm10.289-9.34v3.152h2.086v2.742H73.477v5.8a1.481,1.481,0,0,0,.258,1,1.383,1.383,0,0,0,1.02.281,5.793,5.793,0,0,0,.984-.07V-.105a7.288,7.288,0,0,1-2.227.34A4.137,4.137,0,0,1,70.5-.727a3.939,3.939,0,0,1-.973-2.918V-9.937H67.91V-12.68h1.617v-3.152Zm2.789,9.375A7.484,7.484,0,0,1,77-9.838a5.28,5.28,0,0,1,2.121-2.279,6.388,6.388,0,0,1,3.246-.8,5.83,5.83,0,0,1,4.488,1.764,6.768,6.768,0,0,1,1.641,4.8v.141a6.566,6.566,0,0,1-1.646,4.705A5.846,5.846,0,0,1,82.395.234a5.912,5.912,0,0,1-4.348-1.623,6.348,6.348,0,0,1-1.77-4.4Zm3.949.246a4.718,4.718,0,0,0,.551,2.578,1.835,1.835,0,0,0,1.629.82q2.109,0,2.156-3.246v-.4q0-3.41-2.18-3.41-1.98,0-2.145,2.941Zm17.7-2.895-1.3-.094a2.336,2.336,0,0,0-2.391,1.172V0H90.27V-12.68h3.7l.129,1.629a3.058,3.058,0,0,1,2.777-1.863,3.851,3.851,0,0,1,1.1.141Z" transform="translate(967 2608)" fill="#12263f"/>
    <g id="Grupo_87399" data-name="Grupo 87399" transform="translate(0 125)">
      <rect id="Rectángulo_34155" data-name="Rectángulo 34155" width="36" height="14" transform="translate(646 2314)" fill="#727997"/>
      <path id="Polígono_44" data-name="Polígono 44" d="M17,0,34,29H0Z" transform="translate(701.5 2304) rotate(90)" fill="#727997"/>
    </g>
    <g id="Grupo_87400" data-name="Grupo 87400" transform="translate(245.316 125)">
      <rect id="Rectángulo_34155-2" data-name="Rectángulo 34155" width="36" height="14" transform="translate(646 2314)" fill="#727997"/>
      <path id="Polígono_44-2" data-name="Polígono 44" d="M17,0,34,29H0Z" transform="translate(701.5 2304) rotate(90)" fill="#727997"/>
    </g>
  </g>
</svg>
