<svg xmlns="http://www.w3.org/2000/svg" width="365" height="321.47" viewBox="0 0 365 321.47">
  <g id="Grupo_87505" data-name="Grupo 87505" transform="translate(-1420.622 -301.034)">
    <g id="Grupo_87489" data-name="Grupo 87489" transform="translate(1420.622 301.034)">
      <path id="Trazado_110378" data-name="Trazado 110378" d="M1699.23,418.179c-76.393-40.5-72.4-120.739-172.448-83.3-69.3,25.937-115.24,111.719-104.641,185.172,8,55.409,34.375,96.492,83.618,83.188s91.1,2.846,128.948,13.263c47.627,13.108,121.442-27.866,133.448-84.1S1751.436,445.858,1699.23,418.179Z" transform="translate(-1420.622 -297.49)" fill="#daeef7"/>
      <ellipse id="Elipse_4406" data-name="Elipse 4406" cx="71.31" cy="8.683" rx="71.31" ry="8.683" transform="translate(188.018 287.99)" fill="#cddae7"/>
      <ellipse id="Elipse_4407" data-name="Elipse 4407" cx="41.383" cy="6.933" rx="41.383" ry="6.933" transform="translate(60.524 283.217)" fill="#cddae7"/>
      <circle id="Elipse_4408" data-name="Elipse 4408" cx="13.913" cy="13.913" r="13.913" transform="translate(210.916 2.936)" fill="#eaf0f9"/>
      <g id="Grupo_87485" data-name="Grupo 87485" transform="translate(328.985 69.092)">
        <g id="Grupo_87483" data-name="Grupo 87483">
          <path id="Trazado_110379" data-name="Trazado 110379" d="M1722.468,362.3v7.776h1.681V362.3a.855.855,0,1,0-1.681,0Z" transform="translate(-1705.301 -361.283)" fill="#e5803c"/>
          <path id="Trazado_110380" data-name="Trazado 110380" d="M1722.468,392.739a.856.856,0,1,0,1.681,0v-7.308h-1.681Z" transform="translate(-1705.301 -357.738)" fill="#e5803c"/>
          <path id="Trazado_110381" data-name="Trazado 110381" d="M1707.5,377.094a.94.94,0,0,0,1.015.841h7.775v-1.681h-7.775A.94.94,0,0,0,1707.5,377.094Z" transform="translate(-1707.498 -359.086)" fill="#e5803c"/>
          <path id="Trazado_110382" data-name="Trazado 110382" d="M1738.954,376.253h-7.307v1.681h7.307a.856.856,0,1,0,0-1.681Z" transform="translate(-1703.953 -359.086)" fill="#e5803c"/>
        </g>
        <g id="Grupo_87484" data-name="Grupo 87484" transform="translate(5.06 5.06)">
          <path id="Trazado_110383" data-name="Trazado 110383" d="M1712.248,367.221l5.5,5.5,1.189-1.188-5.5-5.5a.855.855,0,1,0-1.188,1.189Z" transform="translate(-1711.91 -365.695)" fill="#e5803c"/>
          <path id="Trazado_110384" data-name="Trazado 110384" d="M1733.822,388.8a.855.855,0,1,0,1.189-1.188l-5.168-5.167-1.188,1.188Z" transform="translate(-1709.453 -363.237)" fill="#e5803c"/>
          <path id="Trazado_110385" data-name="Trazado 110385" d="M1712.124,388.961a.94.94,0,0,0,1.312-.123l5.5-5.5-1.189-1.189-5.5,5.5A.939.939,0,0,0,1712.124,388.961Z" transform="translate(-1711.91 -363.28)" fill="#e5803c"/>
          <path id="Trazado_110386" data-name="Trazado 110386" d="M1733.822,366.032l-5.167,5.167,1.188,1.189,5.167-5.167a.855.855,0,1,0-1.188-1.189Z" transform="translate(-1709.453 -365.695)" fill="#e5803c"/>
        </g>
      </g>
      <g id="Grupo_87488" data-name="Grupo 87488" transform="translate(19.207)">
        <path id="Trazado_110387" data-name="Trazado 110387" d="M1594.906,469.267a71.152,71.152,0,0,0-32.3.986c-16.966,4.705-89.746,46.1-89.746,46.1s-12.47-5.044-23.553-23.515-10.144-32.653-10.144-32.653,62.68-52.043,73.791-62.791,17.218-35.2,17.218-35.2Z" transform="translate(-1437.109 -292.057)" fill="#729edb"/>
        <path id="Trazado_110388" data-name="Trazado 110388" d="M1562.064,410.093l31.523,52.143a71.152,71.152,0,0,0-32.3.986c-16.966,4.7-89.746,46.1-89.746,46.1s-12.365-5.006-23.412-23.287Z" transform="translate(-1435.791 -285.027)" fill="#6b90bd"/>
        <path id="Trazado_110389" data-name="Trazado 110389" d="M1476.991,492.019l-14.392,9.593s-9.668-3.522-18.426-18.119-6.556-23.522-6.556-23.522l14.392-9.594Z" transform="translate(-1437.37 -279.114)" fill="#cddadc"/>
        <ellipse id="Elipse_4409" data-name="Elipse 4409" cx="53.985" cy="87.244" rx="53.985" ry="87.244" transform="translate(66.847 52.783) rotate(-29.266)" fill="#227a81"/>
        <path id="Trazado_110390" data-name="Trazado 110390" d="M1625.633,365.938c24.772,41.289,24.7,88.191-.15,104.757s-65.084-3.474-89.855-44.762A141.3,141.3,0,0,1,1528.2,411.8l88.509-59A138.8,138.8,0,0,1,1625.633,365.938Z" transform="translate(-1424.038 -293.435)" fill="#104c56"/>
        <ellipse id="Elipse_4410" data-name="Elipse 4410" cx="50.181" cy="85.033" rx="50.181" ry="85.033" transform="translate(74.32 51.258) rotate(-29.502)" fill="#fff"/>
        <ellipse id="Elipse_4411" data-name="Elipse 4411" cx="43.76" cy="77.47" rx="43.76" ry="77.47" transform="translate(83.106 55.427) rotate(-29.682)" fill="#edad43"/>
        <path id="Trazado_110391" data-name="Trazado 110391" d="M1439.165,451.9s19.538-16.728,39.429-33.29a108.328,108.328,0,0,0,13.53,34.981,102,102,0,0,0,26.49,29.623c-23.23,12.566-45.751,24.854-45.751,24.854s-12.47-5.044-23.553-23.515S1439.165,451.9,1439.165,451.9Z" transform="translate(-1437.109 -283.776)" fill="#1e2d54"/>
        <path id="Trazado_110392" data-name="Trazado 110392" d="M1624.944,383.033c13.17,31.364,11.6,62.087-5.413,73.425s-44.017-.334-65.255-26.32Z" transform="translate(-1420.21 -288.999)" fill="#e9903d"/>
        <g id="Grupo_87486" data-name="Grupo 87486" transform="translate(110.503 80.067)">
          <path id="Trazado_110393" data-name="Trazado 110393" d="M1533.729,388.059l26.227-11.382,23.241,38.737-21.237,21.273a137.586,137.586,0,0,1-15.641-21.347A149.063,149.063,0,0,1,1533.729,388.059Z" transform="translate(-1533.729 -369.999)" fill="#cde7ec"/>
          <path id="Trazado_110394" data-name="Trazado 110394" d="M1571.553,396.2l9.587,15.979-20.563,20.823s-1.917-.9-6.639-6.72a94.5,94.5,0,0,1-7.687-10.954Z" transform="translate(-1531.891 -367.133)" fill="#add9de"/>
          <ellipse id="Elipse_4412" data-name="Elipse 4412" cx="12.951" cy="22.599" rx="12.951" ry="22.599" transform="translate(15.418 12.804) rotate(-29.626)" fill="#fff"/>
        </g>
        <path id="Trazado_110395" data-name="Trazado 110395" d="M1491.511,450.162a101.951,101.951,0,0,0,19.1,23.363l-44.5,27.413c-4.638-3.4-11.241-9.524-17.415-19.814a79.939,79.939,0,0,1-5.386-10.686l43.771-28.431Q1489.1,446.13,1491.511,450.162Z" transform="translate(-1436.498 -280.342)" fill="#09333a"/>
        <path id="Trazado_110396" data-name="Trazado 110396" d="M1545.745,534.536s-8.862,8.952-15.933,15.837-12.7-1.317-12.7-1.317l-41.4-54.033,28.476-15.647Z" transform="translate(-1431.741 -274.857)" fill="#729edb"/>
        <path id="Trazado_110397" data-name="Trazado 110397" d="M1496.485,481.8l4.59-2.522,41.55,55.159-3.3,3.28Z" transform="translate(-1428.693 -274.872)" fill="#729edb"/>
        <path id="Trazado_110398" data-name="Trazado 110398" d="M1459.1,493.749c-1.271-1.205-2.6-2.564-3.956-4.107l44.116-28.871q2.126,2.549,4.365,4.9Z" transform="translate(-1434.761 -277.588)" fill="#0b5b63"/>
        <g id="Grupo_87487" data-name="Grupo 87487" transform="translate(67.202 222.072)" opacity="0.5">
          <path id="Trazado_110399" data-name="Trazado 110399" d="M1526.63,518.463l-4.244-5.635-11.514,7.674a3.6,3.6,0,0,0-.975,4.8l.072.12a3.2,3.2,0,0,0,4.53,1.128Z" transform="translate(-1494.003 -492.018)" fill="#dceef1"/>
          <path id="Trazado_110400" data-name="Trazado 110400" d="M1496.564,507.074a3.2,3.2,0,0,0,4.53,1.128l11.83-7.885-4.245-5.635-11.212,7.474a3.6,3.6,0,0,0-.975,4.8Z" transform="translate(-1495.971 -494.682)" fill="#dceef1"/>
          <path id="Trazado_110401" data-name="Trazado 110401" d="M1519.987,509.568l-4.245-5.635-11.955,7.969a3.6,3.6,0,0,0-.975,4.8l.072.12a3.206,3.206,0,0,0,4.531,1.128Z" transform="translate(-1495.043 -493.324)" fill="#dceef1"/>
        </g>
      </g>
    </g>
    <g id="Grupo_87504" data-name="Grupo 87504" transform="translate(1630.427 362.237)">
      <path id="Trazado_110402" data-name="Trazado 110402" d="M1673.183,449.106c-.448,7.69-.089,9.881-2.192,19.64-3.256,15.12-2.889,11.556-3.2,13.678-1.444,3.732-5.705,20.133-7.275,23.282-.092,6.392-1.049,11.42-2.911,19.208-2.222,9.3-8.687,25.071-11.953,33.708l-6.453-1.541c.942-17.216,3.354-40.848,7.023-66.857,2.35-16.658.084-32.116,2.652-45.632Z" transform="translate(-1598.344 -341.166)" fill="#1e2d54"/>
      <g id="Grupo_87491" data-name="Grupo 87491" transform="translate(49.658 97.605)">
        <g id="Grupo_87490" data-name="Grupo 87490">
          <path id="Trazado_110403" data-name="Trazado 110403" d="M1684.083,447.129c1.6,7.585,1.873,15.92,2.139,25.9.413,15.463-2.217,22.523-1.991,24.659a104.734,104.734,0,0,1-2.378,11.125,85.777,85.777,0,0,1,2.623,21.692,207.59,207.59,0,0,1-1.959,29.539h-7.869c-3.661-16.962-7.391-40.509-10.329-66.658-1.881-16.749-3.2-32.515-3.967-46.258Z" transform="translate(-1644.896 -438.398)" fill="#153f5e"/>
          <ellipse id="Elipse_4413" data-name="Elipse 4413" cx="16.006" cy="12.223" rx="16.006" ry="12.223" fill="#153f5e"/>
        </g>
      </g>
      <g id="Grupo_87492" data-name="Grupo 87492" transform="translate(78.326 216.632)">
        <path id="Trazado_110404" data-name="Trazado 110404" d="M1674.455,551.457h5.529v-8.148h-6.512Z" transform="translate(-1671.638 -543.308)" fill="#ea9f88"/>
        <path id="Trazado_110405" data-name="Trazado 110405" d="M1671.873,559.384v1.182h13.1v-1.182a2.854,2.854,0,0,0-.139-.866c.557-.027.459-.039-.011-.04a2.378,2.378,0,0,0-.881-1.209c-.358-.7-.814-1.624-1.258-2.594-.389-.849-.6-3.446-1.2-4.732a4.012,4.012,0,0,0-2.037-2.182h-.592c-1.3.873-1.239,2.646-2.464,2.909a4.246,4.246,0,0,1-2.478-.37l-1.361,5.456a5.109,5.109,0,0,0-.235,1.575v.56A2.744,2.744,0,0,0,1671.873,559.384Zm5.527-2.469,0,.013h-.376v-.013Z" transform="translate(-1671.873 -542.655)" fill="#16415d"/>
      </g>
      <g id="Grupo_87493" data-name="Grupo 87493" transform="translate(21.429 215.301)">
        <path id="Trazado_110406" data-name="Trazado 110406" d="M1638.183,550.19l4.611,1.412,2.386-7.791-5.43-1.663Z" transform="translate(-1619.922 -542.147)" fill="#ea9f88"/>
        <path id="Trazado_110407" data-name="Trazado 110407" d="M1649.852,555.192l-2-5.627a16.841,16.841,0,0,1-4.75.383c-1.8-.273-1.795-1.914-2.51-3h-2.4s-3.151,5.591-9.337,6.985h-4.632c-1.08,0-1.964,1.3-1.964,2.885V558.1h19.48l.982-1.712h.546V558.1h6.93v-1.282A3.858,3.858,0,0,0,1649.852,555.192Z" transform="translate(-1622.259 -541.443)" fill="#16415d"/>
      </g>
      <g id="Grupo_87495" data-name="Grupo 87495" transform="translate(53.01)">
        <path id="Trazado_110408" data-name="Trazado 110408" d="M1673.737,386.294a15.4,15.4,0,0,1-14.1-.446,10.461,10.461,0,0,0,1.376-5.334,9.588,9.588,0,0,0-2.424-6.706v-3.48h8.85A25.8,25.8,0,0,0,1673.737,386.294Z" transform="translate(-1648.508 -352.066)" fill="#ea9f86"/>
        <g id="Grupo_87494" data-name="Grupo 87494">
          <path id="Trazado_110409" data-name="Trazado 110409" d="M1654.678,366.477c-.369-5.067,5.151-5.65,9.214-5.95,2.608-.193,4.97.009,6.681,2.584.427-.618,1.369.477,2.038.452,1.384-.053,2.249.38,2.322,2.329s-.675,4.678-2.06,4.73a1.911,1.911,0,0,1-.2-.021c-.047,1.589.539,2.806-.144,4.1-1.339,2.545-4.682,4.666-7.1,5.365C1657.547,382.349,1655.047,371.544,1654.678,366.477Z" transform="translate(-1649.084 -353.513)" fill="#ebb190"/>
          <path id="Trazado_110410" data-name="Trazado 110410" d="M1649.874,362.233c-.43-4.08.833-6.7,7.37-7.467a62.691,62.691,0,0,1,16.36.366c4.747.944,4.078,4.64,3.895,6.245-.451,3.953-1.629,9.771-3.556,10.4a1.208,1.208,0,0,1-1.164-.2,3.516,3.516,0,0,0,1.447-2.052c.433-1.555-.122-3.034-1.239-3.3a2.421,2.421,0,0,0-2.489,1.54c-1.473-2.779-3.687-5.531-9.151-3.01C1655.371,367.509,1650.3,366.313,1649.874,362.233Z" transform="translate(-1649.798 -354.404)" fill="#1c3054"/>
        </g>
      </g>
      <path id="Trazado_110411" data-name="Trazado 110411" d="M1673.188,417.254a322.856,322.856,0,0,1-34.942-1.83c.591-15.3,9.876-28.1,22.527-32.407a12.514,12.514,0,0,0,8.172,2.807,12.176,12.176,0,0,0,8.754-3.362c13.75,3.694,24.025,17.254,24.409,33.557C1693.038,416.82,1683.31,417.254,1673.188,417.254Z" transform="translate(-1598.483 -350.285)" fill="#729edb"/>
      <g id="Grupo_87499" data-name="Grupo 87499" transform="translate(0 64.455)">
        <g id="Grupo_87498" data-name="Grupo 87498" transform="translate(39.766)">
          <g id="Grupo_87497" data-name="Grupo 87497">
            <g id="Grupo_87496" data-name="Grupo 87496">
              <path id="Trazado_110412" data-name="Trazado 110412" d="M1638.939,410.609l-.69,11.966c6.47,1.533,10.615,4.253,11.993,8.47q3.678-4.02,4.21-13.478a43.637,43.637,0,0,0,0-5.08Z" transform="translate(-1638.249 -410.609)" fill="#ea9f87"/>
            </g>
          </g>
        </g>
        <path id="Trazado_110413" data-name="Trazado 110413" d="M1655.372,430.33c-1.125-7.006-5.6-8.327-11.28-9h0l-24.945-1.438c-.678-1.229-2.336-2.247-4.5-2.771-.4-.1-.9.484-.92.868-.1,1.76,1.033,3.4-2.419,3.305a53.017,53.017,0,0,1-6.46-.55c-.425-.08-1.886-.056-.994,1.234,1.407,2.033,4.818,4.712,8.516,4.82a7.156,7.156,0,0,0,5.38-2.066c7.977,3.568,22.525,7.616,30.783,7.854A9.513,9.513,0,0,0,1655.372,430.33Z" transform="translate(-1603.573 -409.654)" fill="#efb290"/>
      </g>
      <path id="Trazado_110414" data-name="Trazado 110414" d="M1686.264,458.939h-37.877c-.871,0-.7-2.422-.581-2.765.728-2.177,1.474-2.76,1.958-5.225a65.866,65.866,0,0,0,1.2-12.673c0-14.28-4.3-27.772-9.937-35.733,3.74-9.272,10.943-16.444,19.793-19.459a12.509,12.509,0,0,0,8.173,2.807,12.171,12.171,0,0,0,8.752-3.362c10.373,2.787,18.766,11.19,22.431,22.147-8.182,3.61-14.366,20.142-14.366,40,0,3.105.156,6.124.446,9.025a11.55,11.55,0,0,0,.911,2.834C1687.395,458.117,1686.718,458.939,1686.264,458.939Z" transform="translate(-1598.075 -350.275)" fill="#729edb"/>
      <g id="Grupo_87503" data-name="Grupo 87503" transform="translate(45.038 64.57)">
        <g id="Grupo_87502" data-name="Grupo 87502" transform="translate(42.113)">
          <g id="Grupo_87501" data-name="Grupo 87501">
            <g id="Grupo_87500" data-name="Grupo 87500">
              <path id="Trazado_110415" data-name="Trazado 110415" d="M1679.569,410.709l.45,14.335c7.071,1.391,11.774,4.355,13.667,9.3q3.532-5.05,3.164-16.379a59.046,59.046,0,0,0-.506-6.065Z" transform="translate(-1679.569 -410.709)" fill="#ea9f87"/>
            </g>
          </g>
        </g>
        <path id="Trazado_110416" data-name="Trazado 110416" d="M1699.142,433.226c-1.9-8.288-6.819-9.561-12.957-9.974h0l-26.819-.018a7.562,7.562,0,0,0-5.086-3c-.435-.088-.912.638-.9,1.1.065,2.109,1.443,3.994-2.259,4.111a51.315,51.315,0,0,1-6.963-.217c-.463-.068-2.023.062-.94,1.54,1.707,2.333,5.619,5.3,9.586,5.174a7.112,7.112,0,0,0,5.547-2.833c8.886,3.716,24.845,7.557,33.7,7.28A9.358,9.358,0,0,0,1699.142,433.226Z" transform="translate(-1642.846 -409.312)" fill="#efb290"/>
      </g>
    </g>
  </g>
</svg>
