<svg xmlns="http://www.w3.org/2000/svg" width="500.208" height="379.222" viewBox="0 0 500.208 379.222">
  <g id="Grupo_87701" data-name="Grupo 87701" transform="translate(-550 -2132.872)">
    <g id="Grupo_84826" data-name="Grupo 84826" transform="translate(611.349 2433.015)">
      <path id="Trazado_104390" data-name="Trazado 104390" d="M1917.109,842.989a5.464,5.464,0,1,1-5.464-5.464A5.464,5.464,0,0,1,1917.109,842.989Z" transform="translate(-1906.18 -829.238)" fill="#e5803c"/>
      <circle id="Elipse_4096" data-name="Elipse 4096" cx="2.398" cy="2.398" r="2.398" transform="translate(7.745 21.48)" fill="#e5803c"/>
      <circle id="Elipse_4097" data-name="Elipse 4097" cx="10.836" cy="10.836" r="10.836" transform="matrix(0.231, -0.973, 0.973, 0.231, 10.335, 21.089)" fill="#e5803c"/>
    </g>
    <g id="Grupo_84829" data-name="Grupo 84829" transform="translate(733.379 2461.691)">
      <g id="Grupo_84827" data-name="Grupo 84827">
        <path id="Trazado_104391" data-name="Trazado 104391" d="M1983.864,850.111v4.55h.983v-4.55a.5.5,0,1,0-.983,0Z" transform="translate(-1973.817 -849.518)" fill="#e5803c"/>
        <path id="Trazado_104392" data-name="Trazado 104392" d="M1983.864,863.325a.5.5,0,1,0,.983,0v-4.276h-.983Z" transform="translate(-1973.817 -842.844)" fill="#e5803c"/>
        <path id="Trazado_104393" data-name="Trazado 104393" d="M1977.955,855.918a.551.551,0,0,0,.6.491h4.55v-.983h-4.55A.551.551,0,0,0,1977.955,855.918Z" transform="translate(-1977.955 -845.381)" fill="#e5803c"/>
        <path id="Trazado_104394" data-name="Trazado 104394" d="M1991.763,855.427h-4.276v.983h4.276a.5.5,0,1,0,0-.983Z" transform="translate(-1971.281 -845.381)" fill="#e5803c"/>
      </g>
      <g id="Grupo_84828" data-name="Grupo 84828" transform="translate(2.962 2.96)">
        <path id="Trazado_104395" data-name="Trazado 104395" d="M1979.894,852.153l3.217,3.217.7-.7-3.217-3.217a.5.5,0,1,0-.7.7Z" transform="translate(-1979.697 -851.259)" fill="#e5803c"/>
        <path id="Trazado_104396" data-name="Trazado 104396" d="M1989.329,861.588a.5.5,0,1,0,.7-.7L1987,857.868l-.7.7Z" transform="translate(-1975.07 -846.632)" fill="#e5803c"/>
        <path id="Trazado_104397" data-name="Trazado 104397" d="M1979.823,861.738a.55.55,0,0,0,.767-.071l3.217-3.217-.7-.7-3.217,3.217A.55.55,0,0,0,1979.823,861.738Z" transform="translate(-1979.697 -846.711)" fill="#e5803c"/>
        <path id="Trazado_104398" data-name="Trazado 104398" d="M1989.329,851.458l-3.023,3.023.7.7,3.023-3.023a.5.5,0,1,0-.7-.7Z" transform="translate(-1975.07 -851.259)" fill="#e5803c"/>
      </g>
    </g>
    <g id="Grupo_84838" data-name="Grupo 84838" transform="translate(581.534 2132.872)">
      <g id="Grupo_84831" data-name="Grupo 84831" transform="translate(1.173 343.328)">
        <ellipse id="Elipse_4098" data-name="Elipse 4098" cx="94.212" cy="16.514" rx="94.212" ry="16.514" transform="translate(226.227)" fill="#c7d0dd" opacity="0.3"/>
        <ellipse id="Elipse_4099" data-name="Elipse 4099" cx="94.212" cy="16.514" rx="94.212" ry="16.514" transform="translate(0 2.865)" fill="#c7d0dd" opacity="0.3"/>
      </g>
      <g id="Grupo_84832" data-name="Grupo 84832">
        <path id="Trazado_104400" data-name="Trazado 104400" d="M2306.426,887.561c-.451-22.939-9.535-31.9-15.854-47.952-7.717-19.6-12.652-33.7-2.664-54.5,16.324-33.994,45.741-121.27-43.392-128.75-31.947-2.679-64.084,17.549-89.6,39.194-21.711,18.418-49.3,14.358-72.59,14.615-28.619.314-58.714,3.7-87.667,12.015-59.626,17.123-87.407,54.569-101.437,107.246-4.239,15.914-9.851,41.218,5.656,75.715,20.931,46.563,71.389,49.489,134.727,44.261,14.5-1.2,28.994-4.9,43.506-6.889a181.268,181.268,0,0,1,44.853-.626c34.262,3.856,62.637,30.753,97.8,27.016a118.874,118.874,0,0,0,53.725-20.178C2294.035,934.752,2306.9,911.773,2306.426,887.561Z" transform="translate(-1888.644 -656.116)" fill="#eaf0f9"/>
      </g>
      <g id="Grupo_84837" data-name="Grupo 84837" transform="translate(26.768 15.417)">
        <g id="Grupo_84834" data-name="Grupo 84834" transform="translate(0 2.502)">
          <path id="Trazado_104401" data-name="Trazado 104401" d="M1919.995,856.512l2.234-9.242a22.916,22.916,0,0,1-3.1-.547,23.413,23.413,0,0,1-4.752-1.766l-2.238,9.256a23.713,23.713,0,0,0,7.86,2.3Z" transform="translate(-1898.965 -541.811)" fill="#55b6ca"/>
          <path id="Trazado_104402" data-name="Trazado 104402" d="M1967.842,787.472l-1.114-4.426c-2.287.728-4.616,1.386-6.99,1.953-1.476.357-2.955.67-4.436.955l1.112,4.417q2.221-.434,4.434-.961Q1964.394,788.557,1967.842,787.472Z" transform="translate(-1868.739 -585.16)" fill="#314572"/>
          <path id="Trazado_104403" data-name="Trazado 104403" d="M1940.721,700.928s-8.125-10.313-5.748-22.162c1.255-6.25,16.844-10.869,22.177-10.869s4.643,7.245,4.643,7.245,9.868,12.75,10.657,14.98l-5.009,3.5s5.871,10.662,2.612,12.272c-1.925.95-11.3,1.738-11.3,1.738l-1.341,15.774-16.166-5.022Z" transform="translate(-1883.279 -665.786)" fill="#cf8e5a"/>
          <path id="Trazado_104404" data-name="Trazado 104404" d="M1949.94,676.12c-.34-3.735,7.705-1.16,11.646-2.341,2.506-.75.085-5.012-3.059-6.432-5.837-2.635-14.26,3.115-14.26,3.115s-8.593,4.07-9.951,9.735,3.4,20.717,3.4,20.717-3.2-1.573,2.6-2.994,3.071-7.921,6.18-8.238,7.921,5.357,7.921,5.357l3.679-.879S1950.279,679.857,1949.94,676.12Z" transform="translate(-1883.604 -666.655)" fill="#0f343d"/>
          <path id="Trazado_104405" data-name="Trazado 104405" d="M1940.716,684.831l6.806,11.787,6.219,1.282.679-2.121-6.526-.676-6.444-10.272Z" transform="translate(-1878.952 -653.929)" fill="#d3af94"/>
          <path id="Trazado_104406" data-name="Trazado 104406" d="M1957.747,683.743l-5.944-9.97,8.556,12.235-.8.831Z" transform="translate(-1871.189 -661.672)" fill="#cf8e5a"/>
          <path id="Trazado_104407" data-name="Trazado 104407" d="M2005.258,932.219l-19.453,5.65-5.448-62.622,2.184-20.532-8.737-65.091-17.474,61.159L1924.877,937.9h-19.221l14.678-55.574,13.062-40.5,5.46-74.521,41.277-2.669,23.814-2.573Z" transform="translate(-1903.501 -599.851)" fill="#314572"/>
          <path id="Trazado_104408" data-name="Trazado 104408" d="M2059.8,723.458l-33.125,12.092s-1.391,3.5-4.01-.267c-1.656-2.377-14.458-16.383-23.67-26.385l-8.336-9.977-.949-.07-.247-.265.027.25-11.4-.831-5.672,48.787-22.711-51.767L1922.841,714.3l-7.226,12.683-1.748,27.523,19.459-15.463,2.622,32.351-3.713,45.254,69.9-4.587-7.857-72.481,5.733,3.7,24.4,19.522s4.368,0,5.794-1.9,35.053-19.93,35.053-19.93Z" transform="translate(-1897.752 -646.792)" fill="#729edb"/>
          <path id="Trazado_104409" data-name="Trazado 104409" d="M1956.223,843.378l-1.833,22.938,4,61.745-6.2-62.853,2.029-21.609-8.486-61.817,2.4-8.519Z" transform="translate(-1875.436 -592.01)" fill="#314572"/>
          <line id="Línea_220" data-name="Línea 220" x1="6.553" y2="6.99" transform="translate(35.574 255.082)" fill="none" stroke="#3e2b68" stroke-miterlimit="10" stroke-width="1"/>
          <path id="Trazado_104410" data-name="Trazado 104410" d="M2002.56,877.378h-37.57l-2.839-2.621-2.4,2.621h-6.566V865.335l18.678-2.488,9.292,8.31,21.407,4.662Z" transform="translate(-1870.224 -529.284)" fill="#19132e"/>
          <path id="Trazado_104411" data-name="Trazado 104411" d="M1924.363,877.061l-18.722-.919-.5-4.978,2.621-5.679,16.6.655Z" transform="translate(-1903.861 -527.438)" fill="#19132e"/>
          <path id="Trazado_104412" data-name="Trazado 104412" d="M1957.387,746.681l-22.054-51.112,2.789-.388,14.9,8.033,6.328-6.632,3.707,1.311Z" transform="translate(-1882.722 -646.682)" fill="#729edb"/>
          <path id="Trazado_104413" data-name="Trazado 104413" d="M1948.491,706.549l5.14,18.83-2.089,18.083-7.863-17.925,2.846-18.552-2.846-3.058,3.276-4.15,3.5,3.932Z" transform="translate(-1876.878 -643.464)" fill="#729edb"/>
          <path id="Trazado_104414" data-name="Trazado 104414" d="M1931.864,705.072l27.952,41.719-22.71-51.767-4.587,6.116,4.273.207Z" transform="translate(-1885.151 -646.792)" fill="#729edb"/>
          <path id="Trazado_104415" data-name="Trazado 104415" d="M1960.98,700.132,1948.3,745.564l5.673-48.788Z" transform="translate(-1873.639 -645.565)" fill="#729edb"/>
          <path id="Trazado_104416" data-name="Trazado 104416" d="M1925.235,769.105l33.419-1.311,31.235-3.932L1924.8,766.7Z" transform="translate(-1890.098 -598.592)" fill="#29667d"/>
          <path id="Trazado_104417" data-name="Trazado 104417" d="M1950.107,808.741l.561-.02-1.965-64.743,12.663-44.735-.54-.153-12.687,44.82,0,.044Z" transform="translate(-1873.755 -643.945)" fill="#729edb"/>
          <line id="Línea_221" data-name="Línea 221" x2="1.311" y2="13.979" transform="translate(34.263 78.157)" fill="none" stroke="#382b66" stroke-miterlimit="10" stroke-width="1"/>
          <line id="Línea_222" data-name="Línea 222" x2="1.609" y2="20.395" transform="translate(94.913 72.395)" fill="none" stroke="#25596b" stroke-miterlimit="10" stroke-width="1"/>
          <path id="Trazado_104418" data-name="Trazado 104418" d="M2013.156,707.422l2.474,2.385-3.393,5.186,7.593-1.275,4.77,3.6-.2,3.025-6.545,3.979-7.034,2.308-6.271.728-3.787-7.226Z" transform="translate(-1836.905 -638.111)" fill="#cf8e5a"/>
          <line id="Línea_223" data-name="Línea 223" x1="10.239" y2="10.47" transform="translate(29.144 253.553)" fill="none" stroke="#3e2b68" stroke-miterlimit="10" stroke-width="1"/>
          <line id="Línea_224" data-name="Línea 224" x1="6.553" y2="6.99" transform="translate(91.272 251.587)" fill="none" stroke="#3e2b68" stroke-miterlimit="10" stroke-width="1"/>
          <path id="Trazado_104419" data-name="Trazado 104419" d="M1960.77,719.048l.218,3.125,30.58,23.808Z" transform="translate(-1864.911 -629.971)" fill="#729edb"/>
          <path id="Trazado_104420" data-name="Trazado 104420" d="M1917.509,733.557h0l14.416-11.065-.655-3.058-15.715,14.054Z" transform="translate(-1896.57 -629.701)" fill="#729edb"/>
          <g id="Grupo_84833" data-name="Grupo 84833" transform="translate(0 60.891)">
            <path id="Trazado_104421" data-name="Trazado 104421" d="M1923.534,759.857l18.539-19.12-3.617-38.268-10.1,7.246-23.968,44.535,4.192,55.5,14.89-3Z" transform="translate(-1904.389 -702.47)" fill="#729edb"/>
          </g>
          <path id="Trazado_104422" data-name="Trazado 104422" d="M1925.245,778.488l-2.875,1.538-3.873-4.258-.881,6.9,5.16,10.814-3.342.123-6.44-7.719-4.646-7.621-.226-6.682,1.027-5.619,7.705-1.445Z" transform="translate(-1901.774 -598.13)" fill="#cf8e5a"/>
        </g>
        <g id="Grupo_84835" data-name="Grupo 84835" transform="translate(272.384)" style="isolation: isolate">
          <path id="Trazado_104423" data-name="Trazado 104423" d="M2072.764,679.7h-3.106v-5.66H2064.6v-3.2h5.062v-5.66h3.106v5.66h5.063v3.2h-5.063Z" transform="translate(-2064.597 -665.184)" fill="#fcfcfd"/>
        </g>
        <g id="Grupo_84836" data-name="Grupo 84836" transform="translate(246.681 181.245)" style="isolation: isolate">
          <path id="Trazado_104424" data-name="Trazado 104424" d="M2060.935,792.152h-4.356v-7.94h-7.1v-4.487h7.1v-7.938h4.356v7.938h7.1v4.487h-7.1Z" transform="translate(-2049.479 -771.787)" fill="#fcfcfd"/>
        </g>
        <path id="Trazado_104425" data-name="Trazado 104425" d="M2088.371,702.273s9.007-11,6.372-23.636c-1.391-6.665-18.673-11.592-24.584-11.592s-6.743,7.726-6.743,7.726-5.386,12.729-6.262,15.108l1.6,4.606s-6.508,11.369-2.9,13.088c2.134,1.013,12.532,1.853,12.532,1.853l1.486,16.823,17.92-5.357Z" transform="translate(-1799.098 -663.881)" fill="#b06d55"/>
        <path id="Trazado_104426" data-name="Trazado 104426" d="M2072.926,680.421c.377-3.985-6.945-5.842-11.315-7.1-2.777-.8-.094-5.345,3.392-6.859,6.471-2.812,15.807,3.32,15.807,3.32s9.526,4.342,11.032,10.381-3.766,22.1-3.766,22.1,3.544-1.676-2.878-3.193,1.384-8.448-2.064-8.785-5.59,5.713-5.59,5.713l-3.28-1.7S2072.55,684.4,2072.926,680.421Z" transform="translate(-1795.109 -664.808)" fill="#314572"/>
        <path id="Trazado_104427" data-name="Trazado 104427" d="M2078.093,687l-6.692,11.15-6.115,1.213-.668-2.006,6.416-.639,6.336-9.717Z" transform="translate(-1792.197 -649.909)" fill="#633629"/>
        <path id="Trazado_104428" data-name="Trazado 104428" d="M2049.416,934.729l19.127,5.344,5.356-69.395-2.147-19.422,8.591-61.571,17.182,57.852,38.658,92.564h18.9l-17.653-62.728-17.354-38.307-5.369-79.134-40.585-2.525-23.416-2.434Z" transform="translate(-1802.842 -602.314)" fill="#314572"/>
        <path id="Trazado_104429" data-name="Trazado 104429" d="M2029.175,801.189s12.241-52.158,14.819-55.717c1.627-2.248,11.044-26.246,20.1-35.707l8.2-9.438.932-.065.241-.252-.026.236,11.208-.787,5.577,26.715,22.33-29.534s17.33,7.336,26.416,18.236,18.9,37.583,19.544,47.881.644,49.175.644,49.175l-15.2-1.17-4.989-42.5-10.952-21.208-1.933,21.829,3.65,34.164-68.725-4.339,7.724-59.92.161,3.5-14.651,21.434-8.963,38.989Z" transform="translate(-1817.014 -643.158)" fill="#ed971b"/>
        <path id="Trazado_104430" data-name="Trazado 104430" d="M2062.422,836.974l1.8,21.7-3.937,68.565,6.095-69.614-2-20.44,8.344-58.474-2.362-8.058Z" transform="translate(-1795.23 -591.338)" fill="#314572"/>
        <line id="Línea_225" data-name="Línea 225" x2="6.443" y2="6.612" transform="translate(305.205 249.148)" fill="#314572"/>
        <path id="Trazado_104431" data-name="Trazado 104431" d="M2031.731,875.111h36.94l2.792-2.479,2.363,2.479h6.456V863.719l-18.365-2.354-9.136,7.861-21.049,4.41Z" transform="translate(-1815.225 -527.82)" fill="#19132e"/>
        <path id="Trazado_104432" data-name="Trazado 104432" d="M2100.954,874.81l18.408-.869.491-4.709-2.577-5.372-16.322.62Z" transform="translate(-1766.755 -526.073)" fill="#19132e"/>
        <path id="Trazado_104433" data-name="Trazado 104433" d="M2068.265,721.148l20.8-23.99-2.743-.368-14.653,7.6-6.222-6.273-3.645,1.24Z" transform="translate(-1794.169 -643.054)" fill="#fff"/>
        <path id="Trazado_104434" data-name="Trazado 104434" d="M2093.957,777.893l2.936,1.51,3.953-4.182.9,6.779-5.268,10.62,3.412.121,6.574-7.581,4.743-7.485.231-6.563-1.049-5.518-7.866-1.419Z" transform="translate(-1771.654 -595.87)" fill="#b06d55"/>
        <path id="Trazado_104435" data-name="Trazado 104435" d="M2114.124,761.633l-32.859-1.24-30.712-3.719,64,2.686Z" transform="translate(-1802.046 -601.123)" fill="#19132e" opacity="0.6"/>
        <path id="Trazado_104436" data-name="Trazado 104436" d="M2101.486,773.909l-3.221-25.215-10.953-21.209.645-2.893,12.23,24.036Z" transform="translate(-1776.308 -623.587)" fill="#ed971b"/>
        <line id="Línea_226" data-name="Línea 226" x2="10.067" y2="9.904" transform="translate(307.903 247.702)" fill="#314572"/>
        <line id="Línea_227" data-name="Línea 227" x2="6.443" y2="6.612" transform="translate(250.439 245.843)" fill="#314572"/>
        <path id="Trazado_104437" data-name="Trazado 104437" d="M2059.062,721.133l-.107,2.953-15.034,22.491Z" transform="translate(-1806.69 -626.009)" fill="#ed971b"/>
        <path id="Trazado_104438" data-name="Trazado 104438" d="M2046.327,773.851l-3.191,1-3.025-4.768-2.27,6.513,3,11.314-3.374-.448-4.9-8.544-3.124-8.145,1.117-6.488,2.159-5.249,8.012-.086Z" transform="translate(-1816.83 -599.533)" fill="#b06d55"/>
        <path id="Trazado_104439" data-name="Trazado 104439" d="M2018.267,777.419v37.788h51.971V777.419h-11.267v-10.7h-29.437v10.7Zm38.375,0h-24.779v-9.008h24.779Z" transform="translate(-1824.652 -594.091)" fill="#314572"/>
      </g>
    </g>
    <g id="Grupo_84841" data-name="Grupo 84841" transform="translate(550 2154.478)">
      <g id="Grupo_84839" data-name="Grupo 84839">
        <path id="Trazado_104440" data-name="Trazado 104440" d="M1885.067,670.329v11.527h2.492V670.329a1.268,1.268,0,1,0-2.492,0Z" transform="translate(-1859.615 -668.824)" fill="#e5803c"/>
        <path id="Trazado_104441" data-name="Trazado 104441" d="M1885.067,703.808a1.268,1.268,0,1,0,2.492,0V692.973h-2.492Z" transform="translate(-1859.615 -651.915)" fill="#e5803c"/>
        <path id="Trazado_104442" data-name="Trazado 104442" d="M1870.1,685.04a1.393,1.393,0,0,0,1.5,1.246h11.527v-2.492H1871.6A1.393,1.393,0,0,0,1870.1,685.04Z" transform="translate(-1870.097 -658.342)" fill="#e5803c"/>
        <path id="Trazado_104443" data-name="Trazado 104443" d="M1905.08,683.794h-10.834v2.492h10.834a1.268,1.268,0,1,0,0-2.492Z" transform="translate(-1853.188 -658.342)" fill="#e5803c"/>
      </g>
      <g id="Grupo_84840" data-name="Grupo 84840" transform="translate(7.502 7.502)">
        <path id="Trazado_104444" data-name="Trazado 104444" d="M1875.009,675.5l8.152,8.152,1.763-1.763-8.153-8.151a1.268,1.268,0,1,0-1.763,1.761Z" transform="translate(-1874.509 -673.236)" fill="#e5803c"/>
        <path id="Trazado_104445" data-name="Trazado 104445" d="M1898.915,699.405a1.268,1.268,0,1,0,1.761-1.763l-7.661-7.661-1.761,1.763Z" transform="translate(-1862.785 -661.512)" fill="#e5803c"/>
        <path id="Trazado_104446" data-name="Trazado 104446" d="M1874.827,699.789a1.4,1.4,0,0,0,1.945-.182l8.151-8.152-1.761-1.761-8.152,8.151A1.4,1.4,0,0,0,1874.827,699.789Z" transform="translate(-1874.509 -661.714)" fill="#e5803c"/>
        <path id="Trazado_104447" data-name="Trazado 104447" d="M1898.915,673.737l-7.661,7.661,1.761,1.761,7.661-7.661a1.268,1.268,0,1,0-1.761-1.761Z" transform="translate(-1862.785 -673.237)" fill="#e5803c"/>
      </g>
    </g>
    <circle id="Elipse_4100" data-name="Elipse 4100" cx="20.628" cy="20.628" r="20.628" transform="translate(1008.953 2242.57)" fill="#eaf0f9"/>
  </g>
</svg>
