<?xml version="1.0" encoding="utf-8"?>
<!-- Generator: Adobe Illustrator 26.0.1, SVG Export Plug-In . SVG Version: 6.00 Build 0)  -->
<svg version="1.1" id="Capa_1" xmlns="http://www.w3.org/2000/svg" xmlns:xlink="http://www.w3.org/1999/xlink" x="0px" y="0px"
	 viewBox="0 0 294.2 254.6" style="enable-background:new 0 0 294.2 254.6;" xml:space="preserve">
<style type="text/css">
	.st0{fill:#E5803C;}
	.st1{opacity:0.3;fill:#C7D0DD;enable-background:new    ;}
	.st2{opacity:0.1;}
	.st3{fill:#729EDB;}
	.st4{fill:#55B6CA;}
	.st5{fill:#314572;}
	.st6{fill:#CF8E5A;}
	.st7{fill:#0F343D;}
	.st8{fill:#D3AF94;}
	.st9{fill:none;stroke:#3E2B68;stroke-miterlimit:10;}
	.st10{fill:#19132E;}
	.st11{fill:#29667D;}
	.st12{fill:none;stroke:#382B66;stroke-miterlimit:10;}
	.st13{fill:none;stroke:#25596B;stroke-miterlimit:10;}
	.st14{fill:#FCFCFD;}
	.st15{fill:#B06D55;}
	.st16{fill:#633629;}
	.st17{fill:#ED971B;}
	.st18{fill:none;}
	.st19{fill:#FFFFFF;}
	.st20{opacity:0.6;fill:#19132E;enable-background:new    ;}
	.st21{fill:#EAF0F9;}
</style>
<g id="Grupo_86156" transform="translate(-1870.097 -656.116)">
	<g id="Grupo_86140">
		<path id="Trazado_109786" class="st0" d="M1912.6,840.7c0,1.8-1.4,3.2-3.2,3.2s-3.2-1.4-3.2-3.2c0-1.8,1.4-3.2,3.2-3.2l0,0
			C1911.2,837.5,1912.6,839,1912.6,840.7z"/>
		<circle id="Elipse_4380" class="st0" cx="1912.1" cy="846.7" r="1.4"/>
		<circle id="Elipse_4381" class="st0" cx="1919.9" cy="840.3" r="6.4"/>
	</g>
	<g id="Grupo_86143">
		<g id="Grupo_86141">
			<path id="Trazado_109787" class="st0" d="M1983.9,849.9v2.7h0.6v-2.7c0-0.2-0.1-0.3-0.2-0.3c-0.2,0-0.3,0.1-0.3,0.2
				C1983.9,849.8,1983.9,849.8,1983.9,849.9z"/>
			<path id="Trazado_109788" class="st0" d="M1983.9,861.6c0,0.2,0.1,0.3,0.2,0.3c0.2,0,0.3-0.1,0.3-0.2c0,0,0-0.1,0-0.1V859h-0.6
				V861.6z"/>
			<path id="Trazado_109789" class="st0" d="M1978,855.7c0,0.2,0.2,0.3,0.3,0.3h2.7v-0.6h-2.7C1978.1,855.4,1978,855.5,1978,855.7z"
				/>
			<path id="Trazado_109790" class="st0" d="M1990,855.4h-2.5v0.6h2.5c0.2,0,0.3-0.1,0.3-0.2c0-0.2-0.1-0.3-0.2-0.3
				C1990.1,855.4,1990,855.4,1990,855.4z"/>
		</g>
		<g id="Grupo_86142">
			<path id="Trazado_109791" class="st0" d="M1979.8,851.8l1.9,1.9l0.4-0.4l-1.9-1.9c-0.1-0.1-0.3-0.2-0.4-0.1
				S1979.6,851.6,1979.8,851.8C1979.8,851.7,1979.8,851.8,1979.8,851.8z"/>
			<path id="Trazado_109792" class="st0" d="M1988.1,860.1c0.1,0.1,0.3,0.2,0.4,0.1s0.2-0.3,0.1-0.4c0,0,0-0.1-0.1-0.1l-1.8-1.8
				l-0.4,0.4L1988.1,860.1z"/>
			<path id="Trazado_109793" class="st0" d="M1979.8,860.1c0.1,0.1,0.3,0.1,0.5,0l1.9-1.9l-0.4-0.4l-1.9,1.9
				C1979.7,859.8,1979.7,860,1979.8,860.1z"/>
			<path id="Trazado_109794" class="st0" d="M1988.1,851.4l-1.8,1.8l0.4,0.4l1.8-1.8c0.1-0.1,0.2-0.3,0.1-0.4
				C1988.5,851.2,1988.3,851.2,1988.1,851.4C1988.1,851.3,1988.1,851.3,1988.1,851.4z"/>
		</g>
	</g>
	<g id="Grupo_86144">
		<path id="Trazado_109795" class="st0" d="M2013.9,908.6h-2v-1.2h2v-2.1h1.2v2.1h2v1.2h-2v2.1h-1.2V908.6z"/>
	</g>
	<g id="Grupo_86152">
		<g id="Grupo_86145">
			<ellipse id="Elipse_4382" class="st1" cx="2077.8" cy="867.8" rx="55.4" ry="9.7"/>
			<ellipse id="Elipse_4383" class="st1" cx="1944.7" cy="869.5" rx="55.4" ry="9.7"/>
		</g>
		<g id="Grupo_86146" class="st2">
			<path id="Trazado_109796" class="st3" d="M2134.4,792.2c-0.3-13.5-5.6-18.8-9.3-28.2c-4.5-11.5-7.4-19.8-1.6-32.1
				c9.6-20,26.9-71.3-25.5-75.7c-18.8-1.6-37.7,10.3-52.7,23.1c-12.8,10.8-29,8.4-42.7,8.6c-17.4,0-34.8,2.4-51.6,7.1
				c-35.1,10.1-51.4,32.1-59.7,63.1c-2.5,9.4-5.8,24.2,3.3,44.5c12.3,27.4,42,29.1,79.2,26c8.5-0.7,17.1-2.9,25.6-4.1
				c8.7-1.2,17.6-1.3,26.4-0.4c20.2,2.3,36.8,18.1,57.5,15.9c11.3-1.3,22.2-5.4,31.6-11.9C2127.1,820,2134.6,806.5,2134.4,792.2z"/>
		</g>
		<g id="Grupo_86151">
			<g id="Grupo_86148">
				<path id="Trazado_109797" class="st4" d="M1916.8,851.8l1.3-5.4c-0.6-0.1-1.2-0.2-1.8-0.3c-1-0.2-1.9-0.6-2.8-1l-1.3,5.4
					C1913.6,851.1,1915.2,851.6,1916.8,851.8L1916.8,851.8z"/>
				<path id="Trazado_109798" class="st5" d="M1962.7,785.6l-0.7-2.6c-1.3,0.4-2.7,0.8-4.1,1.1c-0.9,0.2-1.7,0.4-2.6,0.6l0.7,2.6
					c0.9-0.2,1.7-0.4,2.6-0.6C1960,786.5,1961.3,786.1,1962.7,785.6z"/>
				<path id="Trazado_109799" class="st6" d="M1938.2,687.3c0,0-4.8-6.1-3.4-13c0.7-3.7,9.9-6.4,13-6.4s2.7,4.3,2.7,4.3
					s5.8,7.5,6.3,8.8l-2.9,2.1c0,0,3.5,6.3,1.5,7.2c-1.1,0.6-6.6,1-6.6,1l-0.8,9.3l-9.5-3L1938.2,687.3z"/>
				<path id="Trazado_109800" class="st7" d="M1943.4,672.2c-0.2-2.2,4.5-0.7,6.8-1.4c1.5-0.4,0.1-2.9-1.8-3.8
					c-3.4-1.5-8.4,1.8-8.4,1.8s-5.1,2.4-5.9,5.7s2,12.2,2,12.2s-1.9-0.9,1.5-1.8s1.8-4.7,3.6-4.8s4.7,3.2,4.7,3.2l2.2-0.5
					C1948.2,682.8,1943.6,674.4,1943.4,672.2z"/>
				<path id="Trazado_109801" class="st8" d="M1940.7,684.8l4,6.9l3.7,0.8l0.4-1.2l-3.8-0.4l-3.8-6L1940.7,684.8z"/>
				<path id="Trazado_109802" class="st6" d="M1955.3,679.6l-3.5-5.9l5,7.2l-0.5,0.5L1955.3,679.6z"/>
				<path id="Trazado_109803" class="st5" d="M1964.2,862.1l-11.4,3.3l-3.2-36.8l1.3-12.1l-5.1-38.3l-10.3,36l-18.5,51.2h-11.3
					l8.6-32.7l7.7-23.8l3.2-43.8l24.3-1.6l14-1.5L1964.2,862.1z"/>
				<path id="Trazado_109804" class="st3" d="M1999.7,711.7l-19.5,7.1c0,0-0.8,2.1-2.4-0.2c-1-1.4-8.5-9.6-13.9-15.5l-4.9-5.9
					l-0.6,0l-0.1-0.2l0,0.1l-6.7-0.5l-3.3,28.7L1935,695l-15.8,11.3l-4.2,7.5l-1,16.2l11.4-9.1l1.5,19l-2.2,26.6l41.1-2.7l-4.6-42.6
					l3.4,2.2l14.4,11.5c0,0,2.6,0,3.4-1.1s20.6-11.7,20.6-11.7L1999.7,711.7z"/>
				<path id="Trazado_109805" class="st5" d="M1951.9,814.5l-1.1,13.5l2.4,36.3l-3.6-37l1.2-12.7l-5-36.4l1.4-5L1951.9,814.5z"/>
				<line id="Línea_294" class="st9" x1="1929.2" y1="816.7" x2="1925.3" y2="820.8"/>
				<path id="Trazado_109806" class="st10" d="M1982.2,871.4h-22.1l-1.7-1.5l-1.4,1.5h-3.9v-7.1l11-1.5l5.5,4.9l12.6,2.7
					L1982.2,871.4z"/>
				<path id="Trazado_109807" class="st10" d="M1916.4,872.3l-11-0.5l-0.3-2.9l1.5-3.3l9.8,0.4L1916.4,872.3z"/>
				<path id="Trazado_109808" class="st3" d="M1948.3,725.5l-13-30.1l1.6-0.2l8.8,4.7l3.7-3.9l2.2,0.8L1948.3,725.5z"/>
				<path id="Trazado_109809" class="st3" d="M1946.5,703.8l3,11.1l-1.2,10.6l-4.6-10.5l1.7-10.9l-1.7-1.8l1.9-2.4l2.1,2.3
					L1946.5,703.8z"/>
				<path id="Trazado_109810" class="st3" d="M1931.9,700.9l16.4,24.5l-13.4-30.4l-2.7,3.6l2.5,0.1L1931.9,700.9z"/>
				<path id="Trazado_109811" class="st3" d="M1955.8,698.8l-7.5,26.7l3.3-28.7L1955.8,698.8z"/>
				<path id="Trazado_109812" class="st11" d="M1925.1,766.9l19.7-0.8l18.4-2.3l-38.3,1.7L1925.1,766.9z"/>
				<path id="Trazado_109813" class="st3" d="M1949.3,763.6l0.3,0l-1.2-38.1l7.4-26.3l-0.3-0.1l-7.5,26.4v0L1949.3,763.6z"/>
				<line id="Línea_295" class="st12" x1="1924.5" y1="712.6" x2="1925.3" y2="720.8"/>
				<line id="Línea_296" class="st13" x1="1960.2" y1="709.2" x2="1961.2" y2="721.2"/>
				<path id="Trazado_109814" class="st6" d="M2008.1,707.4l1.5,1.4l-2,3l4.5-0.8l2.8,2.1l-0.1,1.8l-3.8,2.3l-4.1,1.4l-3.7,0.4
					l-2.2-4.2L2008.1,707.4z"/>
				<line id="Línea_297" class="st9" x1="1927.6" y1="815.8" x2="1921.5" y2="821.9"/>
				<line id="Línea_298" class="st9" x1="1961.9" y1="814.6" x2="1958.1" y2="818.7"/>
				<path id="Trazado_109815" class="st3" d="M1960.8,719l0.1,1.8l18,14L1960.8,719z"/>
				<path id="Trazado_109816" class="st3" d="M1916.7,727.7L1916.7,727.7l8.5-6.5l-0.4-1.8l-9.2,8.3L1916.7,727.7z"/>
				<g id="Grupo_86147">
					<path id="Trazado_109817" class="st3" d="M1915.6,736.2l10.9-11.2l-2.1-22.5l-5.9,4.3l-14.1,26.2l2.5,32.6l8.8-1.8
						L1915.6,736.2z"/>
				</g>
				<path id="Trazado_109818" class="st6" d="M1918.2,772.7l-1.7,0.9l-2.3-2.5l-0.5,4.1l3,6.4l-2,0.1l-3.8-4.5l-2.7-4.5l-0.1-3.9
					l0.6-3.3l4.5-0.8L1918.2,772.7z"/>
			</g>
			<g id="Grupo_86149">
				<path id="Trazado_109819" class="st14" d="M2069.4,673.7h-1.8v-3.3h-3v-1.9h3v-3.3h1.8v3.3h3v1.9h-3V673.7z"/>
			</g>
			<g id="Grupo_86150">
				<path id="Trazado_109820" class="st14" d="M2056.2,783.8h-2.6v-4.7h-4.2v-2.6h4.2v-4.7h2.6v4.7h4.2v2.6h-4.2V783.8z"/>
			</g>
			<path id="Trazado_109821" class="st15" d="M2074.5,687.8c0,0,5.3-6.5,3.7-13.9c-0.8-3.9-11-6.8-14.5-6.8s-4,4.5-4,4.5
				s-3.2,7.5-3.7,8.9l0.9,2.7c0,0-3.8,6.7-1.7,7.7c1.3,0.6,7.4,1.1,7.4,1.1l0.9,9.9l10.5-3.2L2074.5,687.8z"/>
			<path id="Trazado_109822" class="st5" d="M2067.8,674.4c0.2-2.3-4.1-3.4-6.7-4.2c-1.6-0.5-0.1-3.1,2-4c3.8-1.7,9.3,2,9.3,2
				s5.6,2.6,6.5,6.1s-2.2,13-2.2,13s2.1-1-1.7-1.9s0.8-5-1.2-5.2s-3.3,3.4-3.3,3.4l-1.9-1C2068.6,682.5,2067.6,676.7,2067.8,674.4z"
				/>
			<path id="Trazado_109823" class="st16" d="M2072.5,687l-3.9,6.6l-3.6,0.7l-0.4-1.2l3.8-0.4l3.7-5.7H2072.5z"/>
			<path id="Trazado_109824" class="st5" d="M2049.4,860.7l11.2,3.1l3.2-40.8l-1.3-11.4l5.1-36.2l10.1,34l22.7,54.4h11.1l-10.4-36.9
				l-10.2-22.5l-3.2-46.5l-23.9-1.5l-13.8-1.4L2049.4,860.7z"/>
			<path id="Trazado_109825" class="st17" d="M2029.2,758.1c0,0,7.2-30.7,8.7-32.8c1-1.3,6.5-15.4,11.8-21l4.8-5.6l0.5,0l0.1-0.1
				l0,0.1l6.6-0.5l3.3,15.7l13.1-17.4c0,0,10.2,4.3,15.5,10.7s11.1,22.1,11.5,28.2s0.4,28.9,0.4,28.9l-8.9-0.7l-2.9-25l-6.4-12.5
				l-1.1,12.8l2.1,20.1l-40.4-2.6l4.5-35.2l0.1,2.1l-8.6,12.6l-5.3,22.9L2029.2,758.1z"/>
			<path id="Trazado_109826" class="st5" d="M2061.5,809.7l1.1,12.8l-2.3,40.3l3.6-40.9l-1.2-12l4.9-34.4l-1.4-4.7L2061.5,809.7z"/>
			<line id="Línea_299" class="st18" x1="2083.9" y1="811.7" x2="2087.7" y2="815.6"/>
			<path id="Trazado_109827" class="st10" d="M2031.7,869.5h21.7l1.6-1.5l1.4,1.5h3.8v-6.7l-10.8-1.4l-5.4,4.6l-12.4,2.6
				L2031.7,869.5z"/>
			<path id="Trazado_109828" class="st10" d="M2101,870.3l10.8-0.5l0.3-2.8l-1.5-3.2l-9.6,0.4L2101,870.3z"/>
			<path id="Trazado_109829" class="st19" d="M2065.6,711.1l12.2-14.1l-1.6-0.2l-8.6,4.5l-3.7-3.7l-2.1,0.7L2065.6,711.1z"/>
			<path id="Trazado_109830" class="st15" d="M2094,772.2l1.7,0.9l2.3-2.5l0.5,4l-3.1,6.2l2,0.1l3.9-4.5l2.8-4.4l0.1-3.9l-0.6-3.2
				l-4.6-0.8L2094,772.2z"/>
			<path id="Trazado_109831" class="st20" d="M2087.9,759.6l-19.3-0.7l-18.1-2.2l37.6,1.6L2087.9,759.6z"/>
			<path id="Trazado_109832" class="st17" d="M2095.6,753.6l-1.9-14.8l-6.4-12.5l0.4-1.7l7.2,14.1L2095.6,753.6z"/>
			<line id="Línea_300" class="st18" x1="2085.5" y1="810.9" x2="2091.4" y2="816.7"/>
			<line id="Línea_301" class="st18" x1="2051.7" y1="809.8" x2="2055.5" y2="813.7"/>
			<path id="Trazado_109833" class="st17" d="M2052.8,721.1l-0.1,1.7l-8.8,13.2L2052.8,721.1z"/>
			<path id="Trazado_109834" class="st15" d="M2039.4,767.7l-1.9,0.6l-1.8-2.8l-1.3,3.8l1.8,6.7l-2-0.3l-2.9-5l-1.8-4.8l0.7-3.8
				l1.3-3.1l4.7-0.1L2039.4,767.7z"/>
			<path id="Trazado_109835" class="st5" d="M2018.3,773v22.2h30.6V773h-6.6v-6.3h-17.3v6.3H2018.3z M2040.8,773h-14.6v-5.3h14.6
				V773z"/>
		</g>
	</g>
	<g id="Grupo_86155">
		<g id="Grupo_86153">
			<path id="Trazado_109836" class="st0" d="M1885.1,669.7v6.8h1.5v-6.8c0.1-0.4-0.2-0.8-0.6-0.9c-0.4-0.1-0.8,0.2-0.9,0.6
				C1885,669.5,1885,669.6,1885.1,669.7z"/>
			<path id="Trazado_109837" class="st0" d="M1885.1,699.3c-0.1,0.4,0.2,0.8,0.6,0.9c0.4,0.1,0.8-0.2,0.9-0.6c0-0.1,0-0.2,0-0.3V693
				h-1.5V699.3z"/>
			<path id="Trazado_109838" class="st0" d="M1870.1,684.5c0,0.4,0.4,0.8,0.9,0.7h6.8v-1.5h-6.8
				C1870.5,683.8,1870.1,684.1,1870.1,684.5z"/>
			<path id="Trazado_109839" class="st0" d="M1900.6,683.8h-6.4v1.5h6.4c0.4,0.1,0.8-0.2,0.9-0.6c0.1-0.4-0.2-0.8-0.6-0.9
				C1900.8,683.8,1900.7,683.8,1900.6,683.8z"/>
		</g>
		<g id="Grupo_86154">
			<path id="Trazado_109840" class="st0" d="M1874.8,674.6l4.8,4.8l1-1l-4.8-4.8c-0.2-0.3-0.7-0.4-1-0.2c-0.3,0.2-0.4,0.7-0.2,1
				C1874.7,674.4,1874.7,674.5,1874.8,674.6z"/>
			<path id="Trazado_109841" class="st0" d="M1895.8,695.5c0.2,0.3,0.7,0.4,1,0.2s0.4-0.7,0.2-1c-0.1-0.1-0.1-0.1-0.2-0.2l-4.5-4.5
				l-1,1L1895.8,695.5z"/>
			<path id="Trazado_109842" class="st0" d="M1874.7,695.6c0.3,0.3,0.9,0.2,1.1-0.1l4.8-4.8l-1-1l-4.8,4.8
				C1874.5,694.8,1874.4,695.3,1874.7,695.6z"/>
			<path id="Trazado_109843" class="st0" d="M1895.8,673.5l-4.5,4.5l1,1l4.5-4.5c0.3-0.2,0.4-0.7,0.2-1c-0.2-0.3-0.7-0.4-1-0.2
				C1895.9,673.4,1895.8,673.5,1895.8,673.5z"/>
		</g>
	</g>
	<circle id="Elipse_4384" class="st21" cx="2152.2" cy="732.8" r="12.1"/>
</g>
</svg>
