<svg xmlns="http://www.w3.org/2000/svg" xmlns:xlink="http://www.w3.org/1999/xlink" width="317.65" height="261.748" viewBox="0 0 317.65 261.748">
  <defs>
    <linearGradient id="linear-gradient" x1="94.461" y1="1" x2="94.461" gradientUnits="objectBoundingBox">
      <stop offset="0" stop-color="#0f2d47"/>
      <stop offset="1" stop-color="#0a2635"/>
    </linearGradient>
    <linearGradient id="linear-gradient-2" x1="0.5" y1="1" x2="0.5" y2="0" xlink:href="#linear-gradient"/>
    <linearGradient id="linear-gradient-3" y1="0.5" x2="1" y2="0.5" gradientUnits="objectBoundingBox">
      <stop offset="0.062" stop-color="#aa6338"/>
      <stop offset="1" stop-color="#c96f43"/>
    </linearGradient>
    <linearGradient id="linear-gradient-4" x1="0" y1="0.5" x2="1" y2="0.5" xlink:href="#linear-gradient"/>
    <linearGradient id="linear-gradient-5" x1="170.133" y1="1" x2="170.133" y2="0" xlink:href="#linear-gradient"/>
    <linearGradient id="linear-gradient-7" x1="0.5" y1="1" x2="0.5" y2="0" xlink:href="#linear-gradient"/>
  </defs>
  <g id="Grupo_84922" data-name="Grupo 84922" transform="translate(-356.767 -45.87)">
    <path id="Trazado_104533" data-name="Trazado 104533" d="M590.582,137.075C526.471,103.084,529.82,35.747,445.859,67.169c-58.163,21.767-96.713,93.759-87.818,155.4,6.709,46.5,28.848,80.979,70.174,69.814s76.457,2.388,108.217,11.129c39.969,11,101.918-23.385,111.992-70.581S634.4,160.3,590.582,137.075Z" transform="translate(0 2.042)" fill="#ffcdc6"/>
    <g id="Grupo_84921" data-name="Grupo 84921" transform="translate(372.297 45.87)">
      <g id="Grupo_84896" data-name="Grupo 84896" transform="translate(207.142 7.567)">
        <g id="Grupo_84894" data-name="Grupo 84894">
          <path id="Trazado_104534" data-name="Trazado 104534" d="M555.511,52.83V55.96h.677V52.83a.345.345,0,1,0-.677,0Z" transform="translate(-548.598 -52.421)" fill="#ed971b"/>
          <path id="Trazado_104535" data-name="Trazado 104535" d="M555.511,65.017a.345.345,0,1,0,.677,0V62.075h-.677Z" transform="translate(-548.598 -50.923)" fill="#ed971b"/>
          <path id="Trazado_104536" data-name="Trazado 104536" d="M549.527,58.743a.378.378,0,0,0,.408.338h3.132V58.4h-3.132A.378.378,0,0,0,549.527,58.743Z" transform="translate(-549.527 -51.492)" fill="#ed971b"/>
          <path id="Trazado_104537" data-name="Trazado 104537" d="M562.123,58.4H559.18v.677h2.943a.344.344,0,1,0,0-.677Z" transform="translate(-548.029 -51.492)" fill="#ed971b"/>
        </g>
        <g id="Grupo_84895" data-name="Grupo 84895" transform="translate(2.037 2.037)">
          <path id="Trazado_104538" data-name="Trazado 104538" d="M551.426,54.8l2.214,2.213.478-.478L551.9,54.32a.344.344,0,1,0-.478.479Z" transform="translate(-551.291 -54.185)" fill="#ed971b"/>
          <path id="Trazado_104539" data-name="Trazado 104539" d="M560.066,63.438a.344.344,0,1,0,.478-.478l-2.081-2.08-.479.478Z" transform="translate(-550.252 -53.146)" fill="#ed971b"/>
          <path id="Trazado_104540" data-name="Trazado 104540" d="M551.377,63.505a.378.378,0,0,0,.528-.05l2.214-2.213-.478-.479-2.214,2.214A.379.379,0,0,0,551.377,63.505Z" transform="translate(-551.291 -53.164)" fill="#ed971b"/>
          <path id="Trazado_104541" data-name="Trazado 104541" d="M560.066,54.32,557.984,56.4l.479.478,2.081-2.08a.344.344,0,1,0-.478-.479Z" transform="translate(-550.252 -54.185)" fill="#ed971b"/>
        </g>
      </g>
      <g id="Grupo_84899" data-name="Grupo 84899" transform="translate(57.509 77.081)">
        <g id="Grupo_84897" data-name="Grupo 84897">
          <path id="Trazado_104542" data-name="Trazado 104542" d="M424.942,112.934v2.589h.559v-2.589a.285.285,0,1,0-.559,0Z" transform="translate(-419.227 -112.597)" fill="#56989c"/>
          <path id="Trazado_104543" data-name="Trazado 104543" d="M424.942,123.009a.285.285,0,1,0,.559,0v-2.433h-.559Z" transform="translate(-419.227 -111.359)" fill="#56989c"/>
          <path id="Trazado_104544" data-name="Trazado 104544" d="M419.995,117.824a.314.314,0,0,0,.338.28h2.588v-.56h-2.588A.314.314,0,0,0,419.995,117.824Z" transform="translate(-419.995 -111.829)" fill="#56989c"/>
          <path id="Trazado_104545" data-name="Trazado 104545" d="M430.407,117.543h-2.432v.56h2.432a.285.285,0,1,0,0-.56Z" transform="translate(-418.757 -111.829)" fill="#56989c"/>
        </g>
        <g id="Grupo_84898" data-name="Grupo 84898" transform="translate(1.685 1.684)">
          <path id="Trazado_104546" data-name="Trazado 104546" d="M421.566,114.563l1.83,1.83.4-.4-1.83-1.83a.285.285,0,1,0-.4.4Z" transform="translate(-421.453 -114.055)" fill="#56989c"/>
          <path id="Trazado_104547" data-name="Trazado 104547" d="M428.706,121.7a.284.284,0,1,0,.4-.4l-1.719-1.72-.4.4Z" transform="translate(-420.595 -113.196)" fill="#56989c"/>
          <path id="Trazado_104548" data-name="Trazado 104548" d="M421.525,121.76a.314.314,0,0,0,.437-.042l1.83-1.83-.4-.4-1.83,1.831A.313.313,0,0,0,421.525,121.76Z" transform="translate(-421.453 -113.211)" fill="#56989c"/>
          <path id="Trazado_104549" data-name="Trazado 104549" d="M428.706,114.167l-1.72,1.72.4.4,1.719-1.72a.285.285,0,1,0-.4-.4Z" transform="translate(-420.595 -114.055)" fill="#56989c"/>
        </g>
      </g>
      <g id="Grupo_84900" data-name="Grupo 84900" transform="translate(280.172 47.833)" style="isolation: isolate">
        <path id="Trazado_104550" data-name="Trazado 104550" d="M614.425,90.33h-1.678v-1.1h1.678v-1.95h1.029v1.95h1.678v1.1h-1.678v1.951h-1.029Z" transform="translate(-612.747 -87.278)" fill="#fcfdff"/>
      </g>
      <g id="Grupo_84901" data-name="Grupo 84901" transform="translate(0 93.815)" style="isolation: isolate">
        <path id="Trazado_104551" data-name="Trazado 104551" d="M371.888,130.135h-1.677v-1.1h1.677v-1.95h1.03v1.95H374.6v1.1h-1.677v1.95h-1.03Z" transform="translate(-370.211 -127.083)" fill="#fcfdff"/>
      </g>
      <g id="Grupo_84903" data-name="Grupo 84903" transform="translate(135.46 97.181)">
        <g id="Grupo_84902" data-name="Grupo 84902">
          <path id="Trazado_104552" data-name="Trazado 104552" d="M489.46,133.609h-1.986v-1.3h1.986V130h1.219v2.308h1.986v1.3h-1.986v2.308H489.46Z" transform="translate(-487.474 -129.997)" fill="#d68047"/>
        </g>
      </g>
      <g id="Grupo_84904" data-name="Grupo 84904" transform="translate(275.43 86.161)" style="isolation: isolate">
        <path id="Trazado_104553" data-name="Trazado 104553" d="M611.3,125.283h-2.653V123.54H611.3v-3.083h1.629v3.083h2.652v1.743h-2.652v3.084H611.3Z" transform="translate(-608.642 -120.457)" fill="#fcfdff"/>
      </g>
      <g id="Grupo_84905" data-name="Grupo 84905" transform="translate(31.184 46.379)" style="isolation: isolate">
        <path id="Trazado_104554" data-name="Trazado 104554" d="M399.859,90.846h-2.653V89.1h2.653V86.019h1.628V89.1h2.653v1.743h-2.653V93.93h-1.628Z" transform="translate(-397.206 -86.019)" fill="#fcfdff"/>
      </g>
      <g id="Grupo_84908" data-name="Grupo 84908" transform="translate(292.032 137.867)">
        <g id="Grupo_84906" data-name="Grupo 84906">
          <path id="Trazado_104555" data-name="Trazado 104555" d="M632.95,171.2a5.1,5.1,0,0,0,.089-1.212.18.18,0,0,0-.106-.155l-.87-.38-.012-.055a4.126,4.126,0,0,0-.3-.879l-.024-.051.467-.825a.175.175,0,0,0-.008-.186,4.867,4.867,0,0,0-.371-.483,4.811,4.811,0,0,0-.426-.433.176.176,0,0,0-.184-.035l-.881.345-.047-.031a4.127,4.127,0,0,0-.831-.414l-.052-.02-.255-.911a.176.176,0,0,0-.136-.127,5,5,0,0,0-1.216-.084.175.175,0,0,0-.153.106l-.379.866-.054.012a4.088,4.088,0,0,0-.883.3l-.051.023-.822-.466a.177.177,0,0,0-.186.007,5.488,5.488,0,0,0-.485.368,5.3,5.3,0,0,0-.436.432.176.176,0,0,0-.033.183l.344.881-.03.047a4.114,4.114,0,0,0-.415.832l-.02.053-.914.256a.176.176,0,0,0-.125.137,5.147,5.147,0,0,0-.087,1.214.177.177,0,0,0,.106.154l.871.379.012.055a4.35,4.35,0,0,0,.292.878l.023.051-.463.826a.177.177,0,0,0,.008.187,5.687,5.687,0,0,0,.37.484,5.567,5.567,0,0,0,.427.432.178.178,0,0,0,.184.033l.88-.347.047.031a4.15,4.15,0,0,0,.829.414l.052.02.257.915a.178.178,0,0,0,.139.126,5.239,5.239,0,0,0,1.211.084.179.179,0,0,0,.154-.105l.384-.87.055-.012a4.074,4.074,0,0,0,.881-.295l.051-.023.826.463a.177.177,0,0,0,.186-.008,5.512,5.512,0,0,0,.485-.37,5.568,5.568,0,0,0,.433-.429.176.176,0,0,0,.034-.184l-.349-.879.031-.047a4.1,4.1,0,0,0,.416-.834l.019-.053.913-.255A.177.177,0,0,0,632.95,171.2Zm-.315-.244-.01.069-.9.252a.173.173,0,0,0-.12.116,3.7,3.7,0,0,1-.5,1.008.177.177,0,0,0-.021.167l.343.863-.049.051c-.1.1-.189.188-.281.268s-.2.164-.305.241l-.057.04-.813-.455a.17.17,0,0,0-.166,0,3.688,3.688,0,0,1-1.065.356.177.177,0,0,0-.132.1l-.378.855h-.118a4.953,4.953,0,0,1-.724-.054l-.07-.01-.252-.9a.175.175,0,0,0-.114-.121,3.781,3.781,0,0,1-1-.5.181.181,0,0,0-.168-.021l-.865.341-.051-.05c-.094-.09-.184-.184-.267-.278s-.158-.193-.241-.306l-.042-.057.456-.81a.179.179,0,0,0,0-.167,3.923,3.923,0,0,1-.356-1.065.175.175,0,0,0-.1-.131l-.855-.372v-.072a4.754,4.754,0,0,1,.054-.774l.01-.069.9-.253a.177.177,0,0,0,.12-.116,3.866,3.866,0,0,1,.5-1.006.172.172,0,0,0,.02-.165l-.337-.868.049-.05c.089-.094.184-.184.281-.268s.206-.17.306-.243l.057-.042.809.459a.176.176,0,0,0,.167,0,3.726,3.726,0,0,1,1.067-.357.174.174,0,0,0,.132-.1l.372-.851h.07a4.446,4.446,0,0,1,.775.053l.069.01.251.9a.177.177,0,0,0,.115.12,3.788,3.788,0,0,1,1.005.5.176.176,0,0,0,.165.02l.866-.338.051.049c.1.1.187.189.267.282s.162.193.241.3l.042.057-.459.81a.176.176,0,0,0,0,.167,3.764,3.764,0,0,1,.357,1.064.176.176,0,0,0,.1.132l.855.374v.072A4.7,4.7,0,0,1,632.635,170.959Z" transform="translate(-623.006 -165.211)" fill="#f2f6f7"/>
          <path id="Trazado_104556" data-name="Trazado 104556" d="M628.067,175.3a5.249,5.249,0,0,1-.973-.091.226.226,0,0,1-.178-.162l-.25-.889-.028-.01a4.289,4.289,0,0,1-.84-.419l-.025-.017-.856.337a.229.229,0,0,1-.237-.044,5.669,5.669,0,0,1-.431-.436,5.751,5.751,0,0,1-.373-.489.23.23,0,0,1-.012-.241l.452-.8-.013-.028a4.337,4.337,0,0,1-.3-.888l-.006-.029-.848-.37a.227.227,0,0,1-.136-.2,5.255,5.255,0,0,1,.087-1.227.23.23,0,0,1,.162-.176l.888-.251.01-.028a4.217,4.217,0,0,1,.42-.842l.016-.024-.335-.858a.226.226,0,0,1,.043-.234,4.649,4.649,0,0,1,.931-.809.226.226,0,0,1,.239-.009l.8.453.027-.013a4.069,4.069,0,0,1,.894-.3l.029-.006.367-.843a.227.227,0,0,1,.2-.136,5.092,5.092,0,0,1,1.229.085.229.229,0,0,1,.176.163l.247.886.028.01a4.143,4.143,0,0,1,.841.419l.025.016.857-.335a.226.226,0,0,1,.236.044,5.26,5.26,0,0,1,.432.438,4.977,4.977,0,0,1,.373.487.226.226,0,0,1,.01.24l-.453.8.013.027a4.183,4.183,0,0,1,.3.891l.006.029.847.371a.229.229,0,0,1,.136.2,5.206,5.206,0,0,1-.09,1.224h0a.225.225,0,0,1-.162.174l-.886.248-.01.029a4.082,4.082,0,0,1-.42.844l-.017.025.34.854a.23.23,0,0,1-.043.238,5.643,5.643,0,0,1-.438.432,5.465,5.465,0,0,1-.491.373.224.224,0,0,1-.239.01l-.8-.451-.028.013a4.066,4.066,0,0,1-.892.3l-.03.007-.373.844a.227.227,0,0,1-.2.136C628.233,175.3,628.15,175.3,628.067,175.3Zm-2.281-1.7.069.045a4.173,4.173,0,0,0,.819.409l.076.029.265.939a.125.125,0,0,0,.1.09,5.143,5.143,0,0,0,1.2.083.127.127,0,0,0,.11-.075l.394-.893.081-.017a4.01,4.01,0,0,0,.87-.291l.074-.035.849.476a.125.125,0,0,0,.133,0,5.715,5.715,0,0,0,.481-.366,5.448,5.448,0,0,0,.43-.424.128.128,0,0,0,.024-.132l-.359-.9.045-.069a4.065,4.065,0,0,0,.411-.824l.028-.077.937-.263a.125.125,0,0,0,.089-.1,5.064,5.064,0,0,0,.088-1.2.128.128,0,0,0-.075-.111l-.894-.39-.017-.081a4.071,4.071,0,0,0-.292-.869l-.035-.074.479-.847a.128.128,0,0,0-.006-.133,4.8,4.8,0,0,0-.367-.478,4.88,4.88,0,0,0-.423-.43.123.123,0,0,0-.13-.024l-.906.355-.069-.045a4.087,4.087,0,0,0-.82-.409l-.077-.029-.261-.937a.125.125,0,0,0-.1-.09,4.945,4.945,0,0,0-1.2-.083.126.126,0,0,0-.11.075l-.388.891-.081.017a4.044,4.044,0,0,0-.871.291l-.075.036-.846-.479a.128.128,0,0,0-.133.006,5.433,5.433,0,0,0-.479.365,5.191,5.191,0,0,0-.432.426.128.128,0,0,0-.023.131l.353.907-.045.068a4.125,4.125,0,0,0-.409.821l-.029.077-.938.265a.123.123,0,0,0-.089.1,5.11,5.11,0,0,0-.085,1.2.126.126,0,0,0,.076.11l.894.389.017.08a4.242,4.242,0,0,0,.289.869l.035.074-.477.848a.127.127,0,0,0,.006.134,5.75,5.75,0,0,0,.366.479,5.281,5.281,0,0,0,.424.427.126.126,0,0,0,.13.024Zm2.285,1.349a4.9,4.9,0,0,1-.732-.055l-.1-.015-.26-.93a.127.127,0,0,0-.082-.085,3.867,3.867,0,0,1-1.018-.508.128.128,0,0,0-.119-.015l-.9.352-.075-.072c-.094-.091-.185-.186-.269-.282s-.161-.2-.244-.31l-.061-.083.472-.839a.124.124,0,0,0,0-.119,3.983,3.983,0,0,1-.36-1.079.122.122,0,0,0-.073-.092l-.886-.386v-.1a4.964,4.964,0,0,1,.054-.782l.016-.1.929-.262a.127.127,0,0,0,.085-.082,3.9,3.9,0,0,1,.508-1.02.126.126,0,0,0,.015-.118l-.35-.9.07-.074c.091-.094.187-.185.283-.27s.21-.172.311-.245l.083-.061.837.474a.121.121,0,0,0,.119,0,3.752,3.752,0,0,1,1.081-.362.127.127,0,0,0,.095-.074l.385-.883h.1a4.532,4.532,0,0,1,.783.053l.1.016.259.929a.126.126,0,0,0,.083.085,3.816,3.816,0,0,1,1.018.508.123.123,0,0,0,.118.014l.9-.35.074.072c.1.1.189.191.27.284s.162.194.244.306l.06.083-.474.838a.127.127,0,0,0,0,.12,3.825,3.825,0,0,1,.363,1.079.125.125,0,0,0,.074.094l.884.387v.1a4.761,4.761,0,0,1-.057.78l-.015.1-.929.261a.13.13,0,0,0-.087.083,3.724,3.724,0,0,1-.509,1.021.127.127,0,0,0-.014.12l.356.893-.073.075c-.1.1-.192.191-.283.27s-.2.165-.31.244l-.082.06-.841-.471a.124.124,0,0,0-.119,0,3.792,3.792,0,0,1-1.08.362.126.126,0,0,0-.094.073l-.39.885Zm-.754-.161.037,0a4.863,4.863,0,0,0,.717.054h.084l.365-.824a.225.225,0,0,1,.169-.133,3.654,3.654,0,0,0,1.05-.351.227.227,0,0,1,.216,0l.783.439.031-.022c.105-.076.207-.157.3-.238s.178-.164.276-.265l.026-.028-.331-.833a.229.229,0,0,1,.027-.216,3.67,3.67,0,0,0,.5-.993.227.227,0,0,1,.155-.15l.866-.243.006-.037a4.712,4.712,0,0,0,.054-.764v-.038l-.825-.36a.227.227,0,0,1-.133-.17,3.707,3.707,0,0,0-.354-1.05.231.231,0,0,1,0-.216l.442-.781-.022-.03c-.08-.11-.158-.208-.239-.3s-.165-.183-.265-.278l-.027-.027-.836.327a.225.225,0,0,1-.214-.025,3.678,3.678,0,0,0-.99-.494.229.229,0,0,1-.15-.155l-.241-.866-.037-.006a4.326,4.326,0,0,0-.766-.052h-.038l-.359.822a.223.223,0,0,1-.17.133,3.671,3.671,0,0,0-1.052.352.224.224,0,0,1-.216,0l-.78-.441-.03.022c-.1.072-.2.15-.3.239s-.187.172-.277.265l-.025.027.326.838a.225.225,0,0,1-.025.213,3.748,3.748,0,0,0-.494.993.23.23,0,0,1-.155.149l-.866.244-.006.037a4.645,4.645,0,0,0-.053.766v.038l.825.359a.223.223,0,0,1,.132.167,3.9,3.9,0,0,0,.351,1.051.225.225,0,0,1,0,.215l-.439.782.022.03c.081.112.159.211.238.3s.172.187.265.276l.027.027.835-.329a.23.23,0,0,1,.215.027,3.752,3.752,0,0,0,.99.5.225.225,0,0,1,.149.155Z" transform="translate(-623.013 -165.217)" fill="#f2f6f7"/>
        </g>
        <g id="Grupo_84907" data-name="Grupo 84907" transform="translate(3.347 3.346)">
          <path id="Trazado_104557" data-name="Trazado 104557" d="M627.594,171.391a1.595,1.595,0,1,1,1.594-1.594A1.6,1.6,0,0,1,627.594,171.391Zm0-2.94a1.345,1.345,0,1,0,1.346,1.346A1.347,1.347,0,0,0,627.594,168.452Z" transform="translate(-625.897 -168.1)" fill="#f2f6f7"/>
          <path id="Trazado_104558" data-name="Trazado 104558" d="M627.608,171.507a1.7,1.7,0,1,1,1.7-1.7A1.7,1.7,0,0,1,627.608,171.507Zm0-3.189a1.493,1.493,0,1,0,1.494,1.494A1.5,1.5,0,0,0,627.608,168.317Zm0,2.94a1.447,1.447,0,1,1,1.447-1.446A1.449,1.449,0,0,1,627.608,171.257Zm0-2.69a1.244,1.244,0,1,0,1.244,1.244A1.245,1.245,0,0,0,627.608,168.567Z" transform="translate(-625.911 -168.114)" fill="#f2f6f7"/>
        </g>
      </g>
      <g id="Grupo_84910" data-name="Grupo 84910" transform="translate(200.183 84.063)">
        <path id="Trazado_104559" data-name="Trazado 104559" d="M600.409,227.284l-.886-3.665a9.082,9.082,0,0,0,1.23-.216,9.261,9.261,0,0,0,1.885-.7l.887,3.671a9.4,9.4,0,0,1-3.117.911Z" transform="translate(-534.81 -102.493)" fill="#6eb4c7"/>
        <path id="Trazado_104560" data-name="Trazado 104560" d="M573.489,188.324l.441-1.755c.908.289,1.831.55,2.772.774.585.142,1.171.267,1.758.379l-.44,1.752q-.88-.173-1.758-.381Q574.856,188.755,573.489,188.324Z" transform="translate(-538.85 -108.099)" fill="#b4d6df"/>
        <ellipse id="Elipse_4107" data-name="Elipse 4107" cx="45.732" cy="3.75" rx="45.732" ry="3.75" transform="translate(5.429 134.488)" fill="#81aebb" opacity="0.6"/>
        <path id="Trazado_104561" data-name="Trazado 104561" d="M589.481,132.464s3.222-4.09,2.279-8.789c-.5-2.478-6.679-4.31-8.794-4.31s-1.841,2.872-1.841,2.872a68.19,68.19,0,0,0-4.226,5.941l1.986,1.39s-2.328,4.227-1.035,4.867a26.3,26.3,0,0,0,4.482.688l.533,6.255,6.41-1.993Z" transform="translate(-538.321 -118.528)" fill="#e0beab"/>
        <path id="Trazado_104562" data-name="Trazado 104562" d="M585.414,122.393c.134-1.481-3.055-.46-4.618-.928-.993-.3-.035-1.988,1.213-2.551,2.314-1.045,5.654,1.234,5.654,1.234s3.408,1.615,3.947,3.861-1.347,8.216-1.347,8.216,1.267-.624-1.03-1.188-1.218-3.141-2.45-3.266-3.142,2.124-3.142,2.124l-1.459-.349S585.279,123.875,585.414,122.393Z" transform="translate(-537.78 -118.64)" fill="#204a59"/>
        <path id="Trazado_104563" data-name="Trazado 104563" d="M587.037,129.248l-2.7,4.674-2.466.508-.269-.841,2.588-.268,2.555-4.073Z" transform="translate(-537.591 -116.994)" fill="#cdaf97"/>
        <path id="Trazado_104564" data-name="Trazado 104564" d="M577.935,126.748l2.357-3.954-3.393,4.852.317.329Z" transform="translate(-538.321 -117.996)" fill="#cdaf97"/>
        <path id="Trazado_104565" data-name="Trazado 104565" d="M572.578,241.8l7.714,2.24,2.16-24.832-.866-8.142,3.465-25.811L591.98,209.5l12.473,34.544h7.622l-5.82-22.037-5.18-16.058-2.165-29.55-16.368-1.058-9.443-1.02Z" transform="translate(-538.991 -110)" fill="url(#linear-gradient)"/>
        <path id="Trazado_104566" data-name="Trazado 104566" d="M552.174,146.473l13.136,4.794s.551,1.386,1.591-.106c.656-.941,5.733-6.5,9.386-10.462l3.306-3.956.375-.027.1-.105-.01.1,4.52-.329,2.249,19.346,9.006-20.528,10.653,7.644,2.866,5.031.693,10.913-7.717-6.132-1.04,12.829,1.473,17.945-27.716-1.819,3.114-28.742-2.273,1.468-9.676,7.741s-1.733,0-2.3-.753-13.9-7.9-13.9-7.9Z" transform="translate(-542.494 -116.071)" fill="#729edb"/>
        <path id="Trazado_104567" data-name="Trazado 104567" d="M579.892,208.663l.727,9.1-1.588,24.484,2.458-24.924-.8-8.569,3.365-24.513-.953-3.378Z" transform="translate(-537.99 -108.985)" fill="#0d0e20" opacity="0.6"/>
        <rect id="Rectángulo_24387" data-name="Rectángulo 24387" width="0.265" height="3.799" transform="translate(57.136 101.24) rotate(-43.152)" fill="#3a2e65"/>
        <path id="Trazado_104568" data-name="Trazado 104568" d="M562.081,238.9h14.9l1.126-1.039.953,1.039h2.6V234.13l-7.407-.987-3.685,3.3-8.489,1.849Z" transform="translate(-540.62 -100.872)" fill="#18142d"/>
        <path id="Trazado_104569" data-name="Trazado 104569" d="M600.471,239.272l7.424-.364.2-1.974-1.039-2.252-6.583.26Z" transform="translate(-534.663 -100.633)" fill="#18142d"/>
        <path id="Trazado_104570" data-name="Trazado 104570" d="M582.18,155.71l8.746-20.268-1.106-.154-5.91,3.186-2.509-2.63-1.47.52Z" transform="translate(-537.85 -116.057)" fill="#fff"/>
        <path id="Trazado_104571" data-name="Trazado 104571" d="M583.2,140.656l-2.038,7.467.828,7.171,3.118-7.108-1.129-7.357,1.129-1.213-1.3-1.646-1.388,1.559Z" transform="translate(-537.659 -115.641)" fill="#ed971b"/>
        <path id="Trazado_104572" data-name="Trazado 104572" d="M592.962,139.181l-11.084,16.543,9.005-20.528,1.819,2.425-1.694.082Z" transform="translate(-537.548 -116.071)" fill="#729edb"/>
        <path id="Trazado_104573" data-name="Trazado 104573" d="M577.527,137.55l5.026,18.016L580.3,136.22Z" transform="translate(-538.223 -115.913)" fill="#729edb"/>
        <path id="Trazado_104574" data-name="Trazado 104574" d="M598.891,177.452l-13.252-.52-12.386-1.559,25.811,1.126Z" transform="translate(-538.887 -109.837)" fill="#39667c"/>
        <path id="Trazado_104575" data-name="Trazado 104575" d="M581.9,181.051l-.222-.008.779-25.673-5.021-17.739.214-.061,5.031,17.773v.017Z" transform="translate(-538.238 -115.703)" fill="#729edb"/>
        <rect id="Rectángulo_24388" data-name="Rectángulo 24388" width="5.568" height="0.265" transform="matrix(0.094, -0.996, 0.996, 0.094, 59.699, 36.523)" fill="#352d62"/>
        <rect id="Rectángulo_24389" data-name="Rectángulo 24389" width="8.112" height="0.264" transform="translate(35.533 36.784) rotate(-85.515)" fill="#325869"/>
        <path id="Trazado_104576" data-name="Trazado 104576" d="M548.041,142.075l-.981.946,1.345,2.056-3.011-.505L543.5,146l.077,1.2,2.6,1.578,2.789.915,2.487.289,1.5-2.865Z" transform="translate(-543.503 -115.004)" fill="#e0beab"/>
        <rect id="Rectángulo_24390" data-name="Rectángulo 24390" width="0.264" height="5.807" transform="matrix(0.715, -0.699, 0.699, 0.715, 58.226, 100.636)" fill="#3a2e65"/>
        <rect id="Rectángulo_24391" data-name="Rectángulo 24391" width="0.265" height="3.799" transform="matrix(0.73, -0.684, 0.684, 0.73, 35.05, 99.854)" fill="#3a2e65"/>
        <path id="Trazado_104577" data-name="Trazado 104577" d="M576.243,149.218l-.087,1.239L564.031,159.9Z" transform="translate(-540.318 -113.896)" fill="#729edb"/>
        <path id="Trazado_104578" data-name="Trazado 104578" d="M601.089,155.043h0l-5.717-4.388.26-1.213,6.232,5.573Z" transform="translate(-535.454 -113.861)" fill="#18142d" opacity="0.6"/>
        <g id="Grupo_84909" data-name="Grupo 84909" transform="translate(58.995 24.145)">
          <path id="Trazado_104579" data-name="Trazado 104579" d="M601.924,162.3l-7.351-7.582,1.434-15.175,4,2.873,9.5,17.66-1.662,22.007-5.9-1.19Z" transform="translate(-594.573 -139.542)" fill="#729edb"/>
        </g>
        <path id="Trazado_104580" data-name="Trazado 104580" d="M599.452,181.3l1.14.61,1.536-1.688.349,2.737-2.046,4.288,1.325.049,2.554-3.061,1.842-3.022.09-2.65-.407-2.228-3.055-.573Z" transform="translate(-534.821 -109.777)" fill="#e0beab"/>
      </g>
      <g id="Grupo_84912" data-name="Grupo 84912" transform="translate(138.055 94.957)">
        <ellipse id="Elipse_4108" data-name="Elipse 4108" cx="33.242" cy="2.71" rx="33.242" ry="2.71" transform="translate(0 133.928)" fill="#81aebb" opacity="0.6"/>
        <g id="Grupo_84911" data-name="Grupo 84911" transform="translate(27.173 4.089)">
          <path id="Trazado_104581" data-name="Trazado 104581" d="M515.7,144.774s-3.222-4.11-2.279-8.831c.5-2.491,6.68-4.332,8.8-4.332s3.074,2.887,3.074,2.887l2.24,6.658s1.1,4.957-.2,5.6a26.165,26.165,0,0,1-4.483.693l-.531,6.286-6.411-1.509Z" transform="translate(-513.243 -131.611)" fill="#e0beab"/>
          <path id="Trazado_104582" data-name="Trazado 104582" d="M516.85,141.543l2.7,4.7,2.466.511.269-.845-2.588-.269-2.555-4.094Z" transform="translate(-512.684 -130.07)" fill="#cdaf97"/>
        </g>
        <path id="Trazado_104583" data-name="Trazado 104583" d="M508.476,245.263c-2.094.386-5.3.863-5.3.863l-.186-1.847.314-2.107,7.29-.2,3.606.6.824.7S510.1,244.964,508.476,245.263Z" transform="translate(-487.661 -110.396)" fill="#18142d"/>
        <path id="Trazado_104584" data-name="Trazado 104584" d="M533.674,250.243l-7.217,2.1-2.021-27.216.81-7.617-3.241-24.148-6.483,22.689-5.268,36.292H503.2l1.9-24.423,1.913-15.191,2.026-27.083,15.313-.99,8.835-.955Z" transform="translate(-487.629 -119.439)" fill="url(#linear-gradient-2)"/>
        <path id="Trazado_104585" data-name="Trazado 104585" d="M547.408,187.209s-4.618-20.456-5.591-21.851c-.615-.881-4.167-8.317-7.585-12.028l-2.269-2.714-1.011-1.013a.635.635,0,0,0-.256-.1l.01.091-4.228-.308-3.723,0-6.806-.114-7.831,3.135-7.906,20.047-1.847,19.07,5.734-.46-.15-17.951,6.165-7.033.729,8.561-1.377,17.351,25.93-1.7-2.915-27.452-.061,1.372,5.529,8.406,3.381,15.291Z" transform="translate(-488.379 -124.797)" fill="#ed971b"/>
        <path id="Trazado_104586" data-name="Trazado 104586" d="M523.369,215.336l-.68,8.51,1.486,26.891-2.3-27.3.753-8.016-3.148-22.933.891-3.16Z" transform="translate(-485.103 -118.566)" fill="#18142d" opacity="0.6"/>
        <path id="Trazado_104587" data-name="Trazado 104587" d="M537.245,247.078H527.037l-.771-.972-.653.972h-1.784V242.61l5.075-.923,2.525,3.083,5.817,1.73Z" transform="translate(-484.428 -110.44)" fill="#18142d"/>
        <path id="Trazado_104588" data-name="Trazado 104588" d="M505.732,190.967l-1.107.592-1.492-1.64-.339,2.659,1.988,4.165-1.287.048-2.481-2.973-1.79-2.935-.087-2.574.4-2.164,2.968-.556Z" transform="translate(-488.259 -119.146)" fill="#e0beab"/>
        <path id="Trazado_104589" data-name="Trazado 104589" d="M508.207,186.624l12.4-.486,11.588-1.459-24.148,1.053Z" transform="translate(-486.877 -119.287)" fill="#18142d" opacity="0.6"/>
        <path id="Trazado_104590" data-name="Trazado 104590" d="M535.158,188.414l1.2.391,1.141-1.87.857,2.554-1.131,4.437,1.273-.176,1.85-3.351,1.179-3.194-.421-2.545-.815-2.059-3.023-.034Z" transform="translate(-482.67 -119.614)" fill="#e0beab"/>
        <path id="Trazado_104591" data-name="Trazado 104591" d="M526.46,132.238c-.444-.79-2.234-1.332-3.441-1.474,0,0-.79-4.063-3.863-2.208s-5.771,3.255-6.619,6.509c-.433,1.66-.189,7.1.807,10.888s7.544,2.372,8.521,1.211a9.817,9.817,0,0,0,.832-3.53,7.417,7.417,0,0,1-1.1-1.291c-1-1.465-.738-2.184-.252-2.613.458-.4.953-.407,1.839.811.113-.591.241-1.178.394-1.74.3-1.1.337-2.514.992-3.133C525.962,134.349,526.962,133.133,526.46,132.238Z" transform="translate(-486.212 -128.071)" fill="#204a59"/>
        <path id="Trazado_104592" data-name="Trazado 104592" d="M508.119,151.885l-2.136,1.052s-5.685,12.3-6.716,18.779-.9,19.286-.9,19.286l5.734-.46s.424-11.21,1.883-16.667a20.821,20.821,0,0,1,4.132-8.317l.441,5.181q.01-.52.01-1.045C510.567,162.98,510.072,156.8,508.119,151.885Z" transform="translate(-488.38 -124.376)" fill="url(#linear-gradient-3)"/>
      </g>
      <g id="Grupo_84913" data-name="Grupo 84913" transform="translate(14.98 88.252)">
        <ellipse id="Elipse_4109" data-name="Elipse 4109" cx="33.242" cy="2.71" rx="33.242" ry="2.71" transform="translate(0 135.111)" fill="#81aebb" opacity="0.6"/>
        <path id="Trazado_104593" data-name="Trazado 104593" d="M408.58,184.886a.243.243,0,0,0,.236-.177l1.65-6.023a.237.237,0,0,0-.173-.291.243.243,0,0,0-.3.167l-1.65,6.024a.242.242,0,0,0,.236.3Z" transform="translate(-379.275 -113.559)" fill="#474985"/>
        <path id="Trazado_104594" data-name="Trazado 104594" d="M396.316,176.877l25.993-.743c.273,4.793.9,18.01,1.387,25.345,1.055,20.506,3.035,46.606,3.035,46.606l2.957,3.062h-7.311l-9.02-49.668-2.863-14.524-1.812.036-1.219,14.488-4.893,49.668h-6.158l1.528-2.793s-1.131-23.117-1.645-46.875C396.125,195.049,396.1,182.871,396.316,176.877Z" transform="translate(-381.164 -113.908)" fill="url(#linear-gradient-4)"/>
        <path id="Trazado_104595" data-name="Trazado 104595" d="M388.977,165.31a5.488,5.488,0,0,1,.263-1.453,19.948,19.948,0,0,1,1.637-4.936l4.654-10.806a24.985,24.985,0,0,1,2.659-4.361c1.949-2.627,4.846-3.491,8.491-3.478,1.7.006-2.83,6.849-3.911,8.521-1.6,2.471-2.122,5.473-4.611,10.145-.833,1.562-1.5,3.987-2.469,5.828.022.337.023.678.02,1.013q-.036,3.62-.074,7.24a23.633,23.633,0,0,0,.452,6.345,2.264,2.264,0,0,1-.91,2.38,3.507,3.507,0,0,1-2.193.854,44.691,44.691,0,0,1-3.5-10.078q-.22-1.111-.351-2.232A29.652,29.652,0,0,1,388.977,165.31Z" transform="translate(-382.285 -119.473)" fill="#4374af"/>
        <path id="Trazado_104596" data-name="Trazado 104596" d="M395.73,184.82l27.054,1.116c-.073-4.751-.4-11.363-.636-15.024-.02-.234-.029-.46-.038-.677-.165-2.353-.259-4.663-.229-7.132,0-.244,0-.489.01-.732.021-.968.07-1.964.149-3,.121-1.676.311-3.454.593-5.389.392-2.7,2.072-6.493,1.637-8.576-.544-2.522-2.789-4.473-5.528-5.277a9.862,9.862,0,0,0-3.155-.411l-11.243.372c-7.749.255-8.58,7.712-8.382,12.839.156,4.063.421,8.129.607,12.2a81.535,81.535,0,0,1-.341,13.83C396.073,180.566,395.765,183.183,395.73,184.82Z" transform="translate(-381.231 -119.56)" fill="#729edb"/>
        <path id="Trazado_104597" data-name="Trazado 104597" d="M404.661,161.492c3.41,1.524,11.621,4.488,13.293,5.418a29.392,29.392,0,0,0,2.956,1.421c-.02-.234-.029-.46-.038-.677-.165-2.353-.26-4.663-.23-7.132a60,60,0,0,1-9.111-2.682c-.918-.375-4.2-2.174-4.83-1.169a10.66,10.66,0,0,1-2.391,2.357A1.419,1.419,0,0,0,404.661,161.492Z" transform="translate(-379.988 -116.975)" fill="#4374af"/>
        <path id="Trazado_104598" data-name="Trazado 104598" d="M400.957,149.182a.862.862,0,0,0,.016.223l2.181,8.27a.99.99,0,0,0,.952.672l4.719-.106a.811.811,0,0,0,.4-.126l0-.009a.525.525,0,0,0,.179-.576l-2.18-8.279a.974.974,0,0,0-.944-.662l-4.719.107A.581.581,0,0,0,400.957,149.182Z" transform="translate(-380.42 -118.183)" fill="#686868"/>
        <path id="Trazado_104599" data-name="Trazado 104599" d="M400.957,149.134a.862.862,0,0,0,.016.223l2.181,8.27a.99.99,0,0,0,.952.672l4.719-.106a.811.811,0,0,0,.4-.126l0-.009a.436.436,0,0,0-.015-.223l-2.18-8.279a.982.982,0,0,0-.954-.663l-4.718.107A.706.706,0,0,0,400.957,149.134Z" transform="translate(-380.42 -118.136)" fill="#3e403f"/>
        <path id="Trazado_104600" data-name="Trazado 104600" d="M407.906,155.676c1.611.7,1.862,2.979,2.494,3.791.765.982-.8,1.3-2.491,1.088-1.518-.187-3.374-.826-3.978-1.542a3.983,3.983,0,0,1-1.11-3.172C402.869,154.34,405.8,154.758,407.906,155.676Z" transform="translate(-380.131 -117.211)" fill="#ecc7a4"/>
        <path id="Trazado_104601" data-name="Trazado 104601" d="M408.244,159.326c.619-.7,1.272-.188,2.186.085,3.277.981,8.962.74,13.2,1.242-.288-.675-.554-1.324-.809-1.9-2.5-5.688-3.982-8.093-4.943-10.13-.9-1.9-4.994-8.828-3.314-8.883,4.273-.141,6.8.827,8.534,3.77a83.236,83.236,0,0,1,6.662,14.7c.78,2.1,1.781,3.446,1.929,5.481.008.059.008,1.379.012,1.439.046.969-.122.534-.621,1.094-.051.1-.095.2-.152.3-1.111,1.97-8.54,1.593-13.518-.393-2.362-.941-9.573-4.238-9.573-4.238A2.557,2.557,0,0,1,408.244,159.326Z" transform="translate(-379.38 -119.558)" fill="#729edb"/>
        <path id="Trazado_104602" data-name="Trazado 104602" d="M404.79,140.03a2.742,2.742,0,0,0,.268.678,3.687,3.687,0,0,0,3.571,1.752,7.683,7.683,0,0,0,5.258-2.586,1.932,1.932,0,0,0,.134-.149Z" transform="translate(-379.825 -119.558)" fill="#b17b45"/>
        <path id="Trazado_104603" data-name="Trazado 104603" d="M413.068,135.047v5.7s-4.318,4.881-8.284.113l.347-5.814Z" transform="translate(-379.826 -120.284)" fill="#e0beab"/>
        <path id="Trazado_104604" data-name="Trazado 104604" d="M408.734,138.726c.105.015.213.027.32.035a4.834,4.834,0,0,0,3.551-1.119.192.192,0,0,0,0-.291.247.247,0,0,0-.323-.016,4.4,4.4,0,0,1-6.394-.784.249.249,0,0,0-.319-.059.189.189,0,0,0-.051.285A4.955,4.955,0,0,0,408.734,138.726Z" transform="translate(-379.718 -120.065)" fill="#b07762"/>
        <path id="Trazado_104605" data-name="Trazado 104605" d="M414.934,130.3c.518,4.648-.067,9.677-3.609,10a7.186,7.186,0,0,1-8.091-6.474c-.518-4.648,1.9-9.039,5.407-9.807S414.415,125.648,414.934,130.3Z" transform="translate(-380.077 -122.017)" fill="#ecc7a4"/>
        <path id="Trazado_104606" data-name="Trazado 104606" d="M414.814,126.3a1.671,1.671,0,0,0-.246-1.527,3.818,3.818,0,0,0-.255-.356,9.215,9.215,0,0,0-1.549-1.466c-.018,0-.038,0-.055.007-2.68-.846-5.781-1.05-8.205.155a3.883,3.883,0,0,0-2.15,2.419c-.628,1.332-.441,3.478-.1,5.092.092.44.2.84.3,1.175.471,1.55,1.077,3.65,2.325,4.825a1.554,1.554,0,0,0,1.064.382L406,137c-.045-.07-.091-.144-.132-.222a5.834,5.834,0,0,1-.1-1.462.846.846,0,0,1-.518.275,1.069,1.069,0,0,1-.615-.208,1.99,1.99,0,0,1-.922-1.792,3.685,3.685,0,0,1,.111-.828l.007-.014a1.426,1.426,0,0,1,.268-.57.476.476,0,0,1,.365-.183,1.329,1.329,0,0,1,.734.487c.015.02.028.039.04.057q.059.333.142.654c.058.248.132.5.208.738a2.827,2.827,0,0,0,.918.38l.013-.162a11.223,11.223,0,0,1-.407-4.17c.013-.345.03-.691.04-1.037.014-.321.023-.64.023-.959l0-.051a12.882,12.882,0,0,0,4.193-.724,5,5,0,0,0-1.273.849c-.128.11-.251.224-.371.338-.29.275-.568.557-.859.819a11.57,11.57,0,0,0,5.824-1.846c.241-.151.468-.3.672-.453l.006.007.007.01c.032.365.055.735.073,1.11a27.359,27.359,0,0,1-.052,4.057.491.491,0,0,1,.077.007c.068-.356.169-.7.262-1.048a7.788,7.788,0,0,0,.288-1.439C415.1,128.649,415.332,127.2,414.814,126.3Z" transform="translate(-380.267 -122.267)" fill="#204a59"/>
        <path id="Trazado_104607" data-name="Trazado 104607" d="M396.951,175.683h0c-.408-.372-.848-.794-1.285-1.175a1.306,1.306,0,0,0-.176.219,3.634,3.634,0,0,1-3.206,2.354c.365.564.706,1.01,2.693,2.456a5.614,5.614,0,0,0,3.5.859,1.433,1.433,0,0,0,1.286-1.1A36.916,36.916,0,0,0,396.951,175.683Z" transform="translate(-381.766 -114.161)" fill="#ecc7a4"/>
        <path id="Trazado_104608" data-name="Trazado 104608" d="M399.34,238.5l3.693.21-.317,2.759h-7.823Z" transform="translate(-381.361 -104.23)" fill="#18142d"/>
        <path id="Trazado_104609" data-name="Trazado 104609" d="M432.117,241.878H421.908l-.771-.972-.653.972H418.7V237.41l5.075-.923,2.525,3.083,5.817,1.73Z" transform="translate(-377.667 -104.543)" fill="#18142d"/>
      </g>
      <g id="Grupo_84915" data-name="Grupo 84915" transform="translate(74.861 91.462)">
        <ellipse id="Elipse_4110" data-name="Elipse 4110" cx="25.272" cy="3.519" rx="25.272" ry="3.519" transform="translate(0 136.21)" fill="#81aebb" opacity="0.6"/>
        <path id="Trazado_104610" data-name="Trazado 104610" d="M461.108,138.126s.579-10.167-2.188-11.223-4.758,3.876-4.758,3.876a14.736,14.736,0,0,0-1.672,4.5,4.261,4.261,0,0,0,.6,3.224s3.642.307,4.714,3.348-.264,11.51-.264,11.51,8.094-2.526,5.577-6.381C460.938,143.65,461.108,138.126,461.108,138.126Z" transform="translate(-432.313 -124.781)" fill="#204a59"/>
        <ellipse id="Elipse_4111" data-name="Elipse 4111" cx="5.596" cy="17.294" rx="5.596" ry="17.294" transform="translate(21.297 4.493) rotate(-23.672)" fill="#204a59"/>
        <g id="Grupo_84914" data-name="Grupo 84914" transform="translate(9.214 63.004)">
          <path id="Trazado_104611" data-name="Trazado 104611" d="M449.428,241.953l5.856.345,1.844-21.894,1.658-7.769.816-7.711,2.518,7.79,6.014,29.594h4.941l-1.258-19.824-1.73-14.446-1.4-26.583-10.611-.952-6.122-.918Z" transform="translate(-441.993 -179.586)" fill="url(#linear-gradient-5)"/>
          <path id="Trazado_104612" data-name="Trazado 104612" d="M471.227,245.55l-9.322,1.037,6.067-4.889v-7.555h2.516l.148,6.222Z" transform="translate(-440.057 -171.12)" fill="#cdaf97"/>
          <path id="Trazado_104613" data-name="Trazado 104613" d="M469.18,243.9s-3.8.35-5.328.556a10.414,10.414,0,0,0-4.957,2.037H464l5.18-1.648v1.2h2.441v-3.185Z" transform="translate(-440.524 -169.767)" fill="url(#linear-gradient-2)"/>
          <path id="Trazado_104614" data-name="Trazado 104614" d="M455.324,245.274,446,246.311l6.067-4.889v-7.555h2.515l.148,6.222Z" transform="translate(-442.525 -171.163)" fill="#cdaf97"/>
          <path id="Trazado_104615" data-name="Trazado 104615" d="M453.275,243.624s-3.8.35-5.327.556a10.427,10.427,0,0,0-4.957,2.037h5.1l5.179-1.648v1.2h2.441v-3.186Z" transform="translate(-442.992 -169.81)" fill="url(#linear-gradient-7)"/>
        </g>
        <path id="Trazado_104616" data-name="Trazado 104616" d="M469.741,158.042l-4.727-14.5-6.806,3.179a44.867,44.867,0,0,0-4.194,10.392c-1.026,4.238-.572,8.569-.442,12.126.3,8.1-2.792,17.184-2.792,17.184s4.666-.29,9.007-.1a55.721,55.721,0,0,1,8.92,1.281s-3.757-8.828-3.774-14.784S469.741,158.042,469.741,158.042Z" transform="translate(-432.57 -122.175)" fill="#729edb"/>
        <path id="Trazado_104617" data-name="Trazado 104617" d="M484.359,165.1l-20.635-21a7.964,7.964,0,0,0-1.722,6.38c.493,4.148,6.009,7.467,6.009,7.467l8.59,9.9-4.34,4.167,2.565,5.729s7.486-5.964,9.119-7.377S484.359,165.1,484.359,165.1Z" transform="translate(-430.839 -122.088)" fill="#729edb"/>
        <path id="Trazado_104618" data-name="Trazado 104618" d="M461.893,138.227l-5.4-10.58-1.52,2.595a7.519,7.519,0,0,0-.872,1.683c-.176.579-2.189,2.383-1.505,2.595a.714.714,0,0,1,.492.563,6.888,6.888,0,0,1-.127,1.517A4.258,4.258,0,0,0,454,139.709s3.65-.2,5.13,2.666,0,6.127,0,6.127,8.99,1.695,5.966-1.778C462.485,143.722,461.893,138.227,461.893,138.227Z" transform="translate(-432.309 -124.642)" fill="#ecc7a4"/>
        <ellipse id="Elipse_4112" data-name="Elipse 4112" cx="3.731" cy="5.978" rx="3.731" ry="5.978" transform="translate(22.408 3.645) rotate(-23.646)" fill="#204a59"/>
        <path id="Trazado_104619" data-name="Trazado 104619" d="M466.44,174.892l6.923-2.508-1.034-2.8-6.67,2.671Z" transform="translate(-430.26 -118.135)" fill="#ecc7a4"/>
        <ellipse id="Elipse_4113" data-name="Elipse 4113" cx="4.741" cy="1.963" rx="4.741" ry="1.963" transform="translate(27.691 53.658)" fill="#ecc7a4"/>
        <path id="Trazado_104620" data-name="Trazado 104620" d="M458,126.79a10.833,10.833,0,0,0-1.1.389,17.9,17.9,0,0,1,6.731,9.693c.165.566.3,1.132.412,1.7,3.083-1.771,4.788-4.9,3.952-7.769C466.962,127.277,462.487,125.482,458,126.79Z" transform="translate(-431.621 -124.842)" fill="#204a59"/>
      </g>
      <path id="Trazado_104621" data-name="Trazado 104621" d="M440.624,59.258c-6.71-1.983-21.523,1.681-32.976,5.109s-21.6,8.768-25.778,13.677c-1.882,2.213-1.938,5.369-1.233,7.867,2.273,8.037,5.717,20.214,5.717,20.214s1.236,4.094,9.868,2.323l1.073-.221c.237,6.653,6.509,12.012,14.357,12.344a15.409,15.409,0,0,1-4.513-10.929,15.59,15.59,0,0,1,.4-3.523c7.251-1.457,15.169-2.924,20.725-3.438,8.769-.812,9.941-7.728,9.941-7.728s3.343-14.471,5.551-27.342C444.514,63.219,443.646,60.151,440.624,59.258Z" transform="translate(-368.658 -43.88)" fill="#153f5e"/>
      <path id="Trazado_104622" data-name="Trazado 104622" d="M557.826,75.1c-.716-2.965-3.638-6.184-6.648-6.8a22.134,22.134,0,0,0-4.356-.42c-12.962,0-41.358.88-55.027.285-6.571-.285-9.073,2.823-9.181,7.265-.327,13.325,7.488,40.164,18.422,40.164,25.467,0,42.09-1.144,42.09-1.144s7.434,9.357,8.405,10.174,1.992,1.577,2.189.35C555.05,116.723,560.043,84.289,557.826,75.1Z" transform="translate(-352.77 -42.455)" fill="#ed971b"/>
      <path id="Trazado_104623" data-name="Trazado 104623" d="M631.954,77.537c-2.537-13.724-25.3-20.948-41.613-18.3s-29.315,14.692-25.888,29.651c3.914,17.092,18.755,22.7,35.072,20.048a45.678,45.678,0,0,0,15.983-6.132,20.207,20.207,0,0,1,.283,12.635c4.727-2.422,8.065-8.275,8.065-15.12a20.436,20.436,0,0,0-.322-3.617C629.492,91.027,633.172,84.133,631.954,77.537Z" transform="translate(-340.155 -43.88)" fill="#729edb"/>
      <path id="Trazado_104624" data-name="Trazado 104624" d="M458.6,107.191l-4.461-.556A7.816,7.816,0,0,1,447.1,98l6.412-45.453a8.127,8.127,0,0,1,9.186-6.612l35.364,4.407a7.816,7.816,0,0,1,7.035,8.634l-6.412,45.453a8.127,8.127,0,0,1-9.185,6.612l-21.578-2.689c-4.226,6.814-10.431,11.279-17.242,11.513a15.758,15.758,0,0,1-2.813-.161C452.592,117.454,456.125,112.965,458.6,107.191Z" transform="translate(-358.29 -45.87)" fill="#729edb"/>
      <g id="Grupo_84916" data-name="Grupo 84916" transform="translate(8.097 161.482)" style="isolation: isolate">
        <path id="Trazado_104625" data-name="Trazado 104625" d="M379.873,190.486H377.22v-1.743h2.653V185.66H381.5v3.083h2.653v1.743H381.5v3.083h-1.628Z" transform="translate(-377.22 -185.66)" fill="#fcfdff"/>
      </g>
      <g id="Grupo_84917" data-name="Grupo 84917" transform="translate(151.977 50.88)">
        <circle id="Elipse_4114" data-name="Elipse 4114" cx="3.41" cy="3.41" r="3.41" fill="#fff"/>
        <circle id="Elipse_4115" data-name="Elipse 4115" cx="3.41" cy="3.41" r="3.41" transform="translate(13.44)" fill="#fff"/>
        <circle id="Elipse_4116" data-name="Elipse 4116" cx="3.41" cy="3.41" r="3.41" transform="translate(27.023)" fill="#fff"/>
      </g>
      <g id="Grupo_84918" data-name="Grupo 84918" transform="translate(241.501 32.6)">
        <rect id="Rectángulo_24392" data-name="Rectángulo 24392" width="30.442" height="1.523" fill="#fff"/>
        <rect id="Rectángulo_24393" data-name="Rectángulo 24393" width="30.442" height="1.523" transform="translate(0 4.275)" fill="#fff"/>
        <rect id="Rectángulo_24394" data-name="Rectángulo 24394" width="30.442" height="1.523" transform="translate(0 8.55)" fill="#fff"/>
        <rect id="Rectángulo_24395" data-name="Rectángulo 24395" width="22.181" height="1.523" transform="translate(0 12.728)" fill="#fff"/>
      </g>
      <g id="Grupo_84919" data-name="Grupo 84919" transform="translate(32.471 34.123)">
        <path id="Trazado_104626" data-name="Trazado 104626" d="M412.5,84.7c0,2.554,0,2.982-2.13,2.982v4.755c4.968,0,6.389-3.338,6.389-9.228v-7.8h-9.228v7.8H412.5Z" transform="translate(-396.891 -75.409)" fill="#fff"/>
        <path id="Trazado_104627" data-name="Trazado 104627" d="M403.286,83.213V84.7c0,2.554,0,2.982-2.129,2.982v4.755c4.966,0,6.387-3.338,6.387-9.228v-7.8H398.32v7.8Z" transform="translate(-398.32 -75.409)" fill="#fff"/>
      </g>
      <g id="Grupo_84920" data-name="Grupo 84920" transform="translate(102.385 19.083)">
        <rect id="Rectángulo_24396" data-name="Rectángulo 24396" width="28.345" height="1.946" transform="matrix(0.992, 0.125, -0.125, 0.992, 2.272, 5.279)" fill="#fff"/>
        <rect id="Rectángulo_24397" data-name="Rectángulo 24397" width="28.345" height="1.946" transform="matrix(0.992, 0.125, -0.125, 0.992, 1.59, 10.699)" fill="#fff"/>
        <rect id="Rectángulo_24398" data-name="Rectángulo 24398" width="28.345" height="1.946" transform="matrix(0.992, 0.125, -0.125, 0.992, 0.909, 16.12)" fill="#fff"/>
        <rect id="Rectángulo_24399" data-name="Rectángulo 24399" width="20.653" height="1.946" transform="matrix(0.992, 0.125, -0.125, 0.992, 0.243, 21.417)" fill="#fff"/>
        <rect id="Rectángulo_24400" data-name="Rectángulo 24400" width="28.345" height="1.946" transform="matrix(0.992, 0.125, -0.125, 0.992, 2.935, 0)" fill="#fff"/>
      </g>
    </g>
  </g>
</svg>
