<svg xmlns="http://www.w3.org/2000/svg" width="84.201" height="139.501" viewBox="0 0 84.201 139.501">
  <g id="Grupo_87578" data-name="Grupo 87578" transform="translate(-92.982 -146.5)">
    <path id="Trazado_110564" data-name="Trazado 110564" d="M175.683,158.394v16.563a40.6,40.6,0,0,1-81.2,0V158.394" transform="translate(0 33.943)" fill="none" stroke="#db6e5f" stroke-linecap="round" stroke-linejoin="round" stroke-width="3"/>
    <line id="Línea_320" data-name="Línea 320" y2="35.004" transform="translate(135.081 249.497)" fill="none" stroke="#db6e5f" stroke-linecap="round" stroke-linejoin="round" stroke-width="3"/>
    <line id="Línea_321" data-name="Línea 321" x2="44.428" transform="translate(112.867 284.5)" fill="none" stroke="#db6e5f" stroke-linecap="round" stroke-linejoin="round" stroke-width="3"/>
    <path id="Trazado_110565" data-name="Trazado 110565" d="M112.8,165.886c-8.182-.729-13.974-3.37-14-12.686l0,.034v14.7c0,9.363,5.806,12.012,14,12.746" transform="translate(14.075 16.981)" fill="none" stroke="#db6e5f" stroke-linecap="round" stroke-linejoin="round" stroke-width="3"/>
    <path id="Trazado_110566" data-name="Trazado 110566" d="M98.792,156.654v14.789c0,9.367,5.806,12.016,14,12.75" transform="translate(14.075 28.261)" fill="none" stroke="#db6e5f" stroke-linecap="round" stroke-linejoin="round" stroke-width="3"/>
    <path id="Trazado_110567" data-name="Trazado 110567" d="M102.075,159.642" transform="translate(24.796 38.019)" fill="none" stroke="#db6e5f" stroke-linecap="round" stroke-linejoin="round" stroke-width="3"/>
    <path id="Trazado_110568" data-name="Trazado 110568" d="M102.075,156.174" transform="translate(24.796 26.693)" fill="none" stroke="#db6e5f" stroke-linecap="round" stroke-linejoin="round" stroke-width="3"/>
    <path id="Trazado_110569" data-name="Trazado 110569" d="M129.216,182.867c8.177-.729,13.97-3.37,14-12.686a22.211,22.211,0,0,0-44.422,0" transform="translate(14.078)" fill="none" stroke="#db6e5f" stroke-linecap="round" stroke-linejoin="round" stroke-width="3"/>
    <path id="Trazado_110570" data-name="Trazado 110570" d="M98.792,160.121v9.192a22.213,22.213,0,1,0,44.427,0v-9.192c0,9.367-5.8,12.016-14,12.75" transform="translate(14.075 39.583)" fill="none" stroke="#db6e5f" stroke-linecap="round" stroke-linejoin="round" stroke-width="3"/>
    <path id="Trazado_110571" data-name="Trazado 110571" d="M102.075,163.11" transform="translate(24.796 49.344)" fill="none" stroke="#db6e5f" stroke-linecap="round" stroke-linejoin="round" stroke-width="3"/>
    <path id="Trazado_110572" data-name="Trazado 110572" d="M105.925,180.679c8.2-.734,14-3.383,14-12.746V153.2c-.03,9.316-5.823,11.957-14,12.686" transform="translate(37.369 16.981)" fill="none" stroke="#db6e5f" stroke-linecap="round" stroke-linejoin="round" stroke-width="3"/>
    <path id="Trazado_110573" data-name="Trazado 110573" d="M119.925,171.443V156.654c0,9.363-5.8,12.012-14,12.746" transform="translate(37.369 28.261)" fill="none" stroke="#db6e5f" stroke-linecap="round" stroke-linejoin="round" stroke-width="3"/>
    <path id="Trazado_110574" data-name="Trazado 110574" d="M105.925,163.11" transform="translate(37.369 49.344)" fill="none" stroke="#db6e5f" stroke-linecap="round" stroke-linejoin="round" stroke-width="3"/>
    <path id="Trazado_110575" data-name="Trazado 110575" d="M105.925,159.642" transform="translate(37.369 38.019)" fill="none" stroke="#db6e5f" stroke-linecap="round" stroke-linejoin="round" stroke-width="3"/>
    <path id="Trazado_110576" data-name="Trazado 110576" d="M105.925,163.11" transform="translate(37.369 49.344)" fill="none" stroke="#db6e5f" stroke-linecap="round" stroke-linejoin="round" stroke-width="3"/>
    <path id="Trazado_110577" data-name="Trazado 110577" d="M102.075,163.11" transform="translate(24.796 49.344)" fill="none" stroke="#db6e5f" stroke-linecap="round" stroke-linejoin="round" stroke-width="3"/>
    <path id="Trazado_110578" data-name="Trazado 110578" d="M102.075,159.642" transform="translate(24.796 38.019)" fill="none" stroke="#db6e5f" stroke-linecap="round" stroke-linejoin="round" stroke-width="3"/>
    <path id="Trazado_110579" data-name="Trazado 110579" d="M105.925,156.174" transform="translate(37.369 26.693)" fill="none" stroke="#db6e5f" stroke-linecap="round" stroke-linejoin="round" stroke-width="3"/>
    <path id="Trazado_110580" data-name="Trazado 110580" d="M102.075,156.174" transform="translate(24.796 26.693)" fill="none" stroke="#db6e5f" stroke-linecap="round" stroke-linejoin="round" stroke-width="3"/>
  </g>
</svg>
