<svg xmlns="http://www.w3.org/2000/svg" width="323.493" height="247.871" viewBox="0 0 323.493 247.871">
  <g id="Grupo_85066" data-name="Grupo 85066" transform="translate(0 -44.444)">
    <g id="Background_Complete" data-name="Background Complete" transform="translate(0 44.444)">
      <g id="Grupo_85013" data-name="Grupo 85013" transform="translate(0 6.799)">
        <rect id="Rectángulo_33804" data-name="Rectángulo 33804" width="323.493" height="0.162" transform="translate(0 211.853)" fill="#ebebeb"/>
        <rect id="Rectángulo_33805" data-name="Rectángulo 33805" width="21.43" height="0.162" transform="translate(269.65 222.267)" fill="#ebebeb"/>
        <rect id="Rectángulo_33806" data-name="Rectángulo 33806" width="5.624" height="0.162" transform="translate(208.67 224.022)" fill="#ebebeb"/>
        <rect id="Rectángulo_33807" data-name="Rectángulo 33807" width="12.417" height="0.162" transform="translate(256.586 216.259)" fill="#ebebeb"/>
        <rect id="Rectángulo_33808" data-name="Rectángulo 33808" width="27.946" height="0.162" transform="translate(33.94 217.346)" fill="#ebebeb"/>
        <rect id="Rectángulo_33809" data-name="Rectángulo 33809" width="4.097" height="0.162" transform="translate(67.646 217.346)" fill="#ebebeb"/>
        <rect id="Rectángulo_33810" data-name="Rectángulo 33810" width="60.607" height="0.162" transform="translate(85.06 220.077)" fill="#ebebeb"/>
        <path id="Trazado_105175" data-name="Trazado 105175" d="M166.832,237.951H41.9a3.7,3.7,0,0,1-3.693-3.693V58.645A3.7,3.7,0,0,1,41.9,54.953H166.832a3.7,3.7,0,0,1,3.692,3.692V234.258A3.7,3.7,0,0,1,166.832,237.951ZM41.9,55.115a3.535,3.535,0,0,0-3.531,3.531V234.258a3.535,3.535,0,0,0,3.531,3.531H166.832a3.535,3.535,0,0,0,3.531-3.531V58.645a3.535,3.535,0,0,0-3.531-3.531Z" transform="translate(-13.488 -54.953)" fill="#ebebeb"/>
        <path id="Trazado_105176" data-name="Trazado 105176" d="M383.129,237.951H258.2a3.7,3.7,0,0,1-3.692-3.693V58.645a3.7,3.7,0,0,1,3.692-3.692H383.129a3.7,3.7,0,0,1,3.694,3.692V234.258A3.7,3.7,0,0,1,383.129,237.951ZM258.2,55.115a3.535,3.535,0,0,0-3.531,3.531V234.258a3.535,3.535,0,0,0,3.531,3.531H383.129a3.535,3.535,0,0,0,3.532-3.531V58.645a3.535,3.535,0,0,0-3.532-3.531Z" transform="translate(-89.844 -54.953)" fill="#ebebeb"/>
      </g>
      <path id="Trazado_105177" data-name="Trazado 105177" d="M318.66,112,248.239,88.217l-.054-.056-37.2-38.133L181.144,77.28l-.437-.478,30.3-27.674,37.587,38.525,69.822,23.582,28.658-39.425.523.38Z" transform="translate(-63.792 -46.098)" fill="#f0f0f0"/>
      <g id="Grupo_85014" data-name="Grupo 85014" transform="translate(29.02)">
        <path id="Trazado_105178" data-name="Trazado 105178" d="M51.815,234.889a3.48,3.48,0,1,1-3.48-3.481A3.48,3.48,0,0,1,51.815,234.889Z" transform="translate(-44.854 -110.445)" fill="#f0f0f0"/>
        <path id="Trazado_105179" data-name="Trazado 105179" d="M229.1,47.925a3.48,3.48,0,1,1-3.481-3.481A3.481,3.481,0,0,1,229.1,47.925Z" transform="translate(-107.438 -44.444)" fill="#f0f0f0"/>
        <path id="Trazado_105180" data-name="Trazado 105180" d="M439.833,82.582a3.48,3.48,0,1,1-3.48-3.48A3.481,3.481,0,0,1,439.833,82.582Z" transform="translate(-181.83 -56.679)" fill="#f0f0f0"/>
        <path id="Trazado_105181" data-name="Trazado 105181" d="M440.3,366.486a3.48,3.48,0,1,1-3.48-3.481A3.48,3.48,0,0,1,440.3,366.486Z" transform="translate(-181.995 -156.9)" fill="#f0f0f0"/>
        <path id="Trazado_105182" data-name="Trazado 105182" d="M286.942,107.211a3.481,3.481,0,1,1-3.481-3.481A3.48,3.48,0,0,1,286.942,107.211Z" transform="translate(-127.857 -65.373)" fill="#f0f0f0"/>
      </g>
      <path id="Trazado_105183" data-name="Trazado 105183" d="M143.579,276.886l-.27-.051L56.019,260.352l.12-.636,87.021,16.431L204.1,108.938l.608.222Z" transform="translate(-19.775 -67.211)" fill="#f0f0f0"/>
      <rect id="Rectángulo_33811" data-name="Rectángulo 33811" width="0.647" height="39.783" transform="matrix(0.663, -0.749, 0.749, 0.663, 39.991, 57.724)" fill="#f0f0f0"/>
      <path id="Trazado_105184" data-name="Trazado 105184" d="M414.909,289.983l-43.157-26.746.942-.258,45.342-43.622-32.354-73.581.592-.26,32.536,73.995-.163.157L373.211,263.38l42.039,26.054Z" transform="translate(-131.234 -80.123)" fill="#f0f0f0"/>
      <path id="Trazado_105185" data-name="Trazado 105185" d="M54.059,282.973l-.543-.351L79.6,242.331l-30.071-27.9.219-.237L87.412,173.42l.224.13,171.636,99.29-.324.56L87.536,174.239,50.441,214.4l30,27.826Z" transform="translate(-17.484 -89.974)" fill="#f0f0f0"/>
    </g>
    <g id="Shadow" transform="translate(36.303 277.664)">
      <ellipse id="_Path_" data-name="&lt;Path&gt;" cx="125.444" cy="7.326" rx="125.444" ry="7.326" fill="#f5f5f5"/>
    </g>
    <g id="World" transform="translate(107.661 104.212)">
      <g id="Grupo_85020" data-name="Grupo 85020">
        <g id="Grupo_85019" data-name="Grupo 85019">
          <g id="Grupo_85015" data-name="Grupo 85015">
            <path id="Trazado_105186" data-name="Trazado 105186" d="M214.666,241.834q2.611.215,5.172.175a52.59,52.59,0,0,0,51.576-48.257c.026-.32.049-.639.071-.956a52.472,52.472,0,0,0-2.239-18.962v0a52.646,52.646,0,0,0-40.577-36.114,53.742,53.742,0,0,0-5.337-.712,52.593,52.593,0,1,0-8.667,104.829Z" transform="translate(-166.403 -136.823)" fill="#407bff"/>
          </g>
          <g id="Grupo_85016" data-name="Grupo 85016" opacity="0.7">
            <path id="Trazado_105187" data-name="Trazado 105187" d="M214.666,241.834q2.611.215,5.172.175a52.59,52.59,0,0,0,51.576-48.257c.026-.32.049-.639.071-.956a52.472,52.472,0,0,0-2.239-18.962v0a52.646,52.646,0,0,0-40.577-36.114,53.742,53.742,0,0,0-5.337-.712,52.593,52.593,0,1,0-8.667,104.829Z" transform="translate(-166.403 -136.823)" fill="#fff"/>
          </g>
          <g id="Grupo_85017" data-name="Grupo 85017" transform="translate(1.801 0.678)">
            <path id="Trazado_105188" data-name="Trazado 105188" d="M180.592,229.377c-.17.978-1.413,1.329-2.415,1.455q-2.256.279-4.512.561c-.71-1.868-2.922-1.885-4.478-1.157a52.614,52.614,0,0,0,46.462,38.729q2.611.215,5.172.175a1.526,1.526,0,0,0,.085-.129c.784-1.378-.354-2.6-.962-3.728-.137-.256-1.427-3.513-1-3.522a13.919,13.919,0,0,1-4.1-.53.414.414,0,0,1-.263-.156c-.125-.215.175-.426.417-.483.619-.145,1.263-.179,1.872-.361a2.154,2.154,0,0,0,1.445-1.144,11.589,11.589,0,0,0,.2-1.9,2.62,2.62,0,0,1,1.489-1.7,8.573,8.573,0,0,1,2.173-.579c-1.589-.865-.433-2.668-1.679-3.872-.4-.387-.984-.86-.738-1.359.234-.475,1.075-.468,1.179-.987.074-.363-.309-.662-.67-.744a3.961,3.961,0,0,1-1.081-.232.968.968,0,0,1-.305-1.35c.272-.38.774-.5,1.187-.718s.785-.729.538-1.126a.739.739,0,0,0-.239-.224,2.135,2.135,0,0,0-2.213.372,4.006,4.006,0,0,1-2.116.987.658.658,0,0,1,.259-.894,1.1,1.1,0,0,0,.321-.166c.185-.189.046-.5-.08-.731a4.74,4.74,0,0,1-.363-3.612l4.816.092c.04-.361.08-.576.461-.686a50.089,50.089,0,0,1-3.2-3.882.976.976,0,0,0-.43-.415,3.089,3.089,0,0,0-.631-.032c-.695-.094-.807-1.044-.736-1.741-.1-.212-.439-.12-.567.074s-.159.447-.315.62a.893.893,0,0,1-.974.105,2.314,2.314,0,0,1-1.222-3,.7.7,0,0,1,.263-.333c.275-.157.608.036.919.092,1.229.221,1.042-1.137.745-1.779a3.83,3.83,0,0,0-2.466-1.654c-1.015-.26-7.788-1.554-6.671-3.762a1.021,1.021,0,0,1,.521-.441,15.544,15.544,0,0,1,2.068-.394c.677-.191,1.335-.9,1.04-1.536-.118-.256-.364-.432-.5-.679-.382-.688.206-1.581-.065-2.319a6.286,6.286,0,0,0-.6-.9c-.181-.313-.211-.785.1-.972.347-.21.822.1,1.191-.063a.636.636,0,0,0,.008-1.051,1.1,1.1,0,0,0-1.2.089,1.469,1.469,0,0,1-.578.32c-.4.052-.691-.341-.893-.685l-.962-1.641a.931.931,0,0,0-.764.679c-.124.341-.148.714-.289,1.051-.681,1.622-3.15,1.429-2.831,3.65a1.054,1.054,0,0,1,1.072,1.307c-.258.785-1.437,1.216-1.272,2.026.058.282.282.51.327.794.125.784-1.088,1.072-1.608,1.251-1.726.592-1.844-.542-3.34-.609-.685-.031-1.3.431-1.98.505-.627.069-1.25-.2-1.879-.159-1.73.1-.862,2.446-.74,3.465-.93-.619-2.172.1-2.911.938-1.136,1.282-1.03,1.056-2.534,1.113a1.094,1.094,0,0,0-.975.575c-.28.633.315,1.315.331,2.007.007.332-.122.659-.091.989.08.868,1.108,1.246,1.732,1.856a2.384,2.384,0,0,1,.667,2.095,4.98,4.98,0,0,1-1.329-.1l-.781-1.508a3.25,3.25,0,0,0-.879-1.2,2.709,2.709,0,0,1-.667-.5c-.328-.451-.063-1.069.015-1.621.189-1.339-.484-3.591-.811-4.919-.349-1.416-1.289-1.972-1.631-3.279a.408.408,0,0,0-.589-.188.9.9,0,0,0-.373.586,2.473,2.473,0,0,0,.143,1.619c-.3-.66-1.969,1.077-2.069,1.407-.166.54.193,1.31.179,1.87-.035,1.391-.371,2.173-1.809,1.149-.55-.391-1.254-.853-1.837-.512a.869.869,0,0,1-.485.983,1.836,1.836,0,0,1-1.169.089,1.167,1.167,0,0,1-.71-.345,1.94,1.94,0,0,0-.259-.342c-.369-.287-.834.211-1.035.633" transform="translate(-169.187 -164.632)" fill="#407bff" style="isolation: isolate"/>
            <path id="Trazado_105189" data-name="Trazado 105189" d="M275.042,161.408c.291.455-.016,1.049-.347,1.476s-.719.928-.574,1.449l1.872.171a.34.34,0,0,1,.373.464q-.074.6-.146,1.2c-.395.307-.774-.661-1.265-.565-.217.043-.327.276-.446.463-1.014,1.589-2.782.4-3.729-.428-1.1-.959-2.691-1.021-4.151-1.037a1.987,1.987,0,0,0-1.47.386c-.363.362-.384.934-.567,1.419-.314.839-1.119,1.388-1.574,2.16-1.592,2.7,1.27,4.774,3.7,4.04,1.262-.38,1.044-.6,2.334-.231.537.155,1.2.022,1.525.619a1,1,0,0,1-.877,1.462,4.275,4.275,0,0,1-2.073-.241,8.063,8.063,0,0,1-.093,2.732,1.192,1.192,0,0,0-1.273,1.592c.411.006.966.16.932.57a.685.685,0,0,1-.144.325c-.286.411-.652.765-.9,1.2-.377.672-.375,2.686-1.337,2.927-.17.043-.35.028-.516.082a.778.778,0,0,0-.472.9,1.052,1.052,0,0,0,.763.74c.24.064.5.058.73.139,1.244.433.152,1.661.45,2.27a11.027,11.027,0,0,0,2.481,1.65,2.932,2.932,0,0,0-1.4,2.21c-.029,1.012.74,1.5,1.7,1.8,1.016.318,2.248.423,2.981.706a1.252,1.252,0,0,0,1.205.032c.413-.327.323-1.1.8-1.321a1.459,1.459,0,0,1,.492-.08,1.856,1.856,0,0,0,1.584-2.088c.226-.294.667-.267,1.038-.257s.841-.112.895-.479c.062-.422-.479-.657-.905-.683a4.7,4.7,0,0,0-1.3.1,1.543,1.543,0,0,1-.956.039,1.241,1.241,0,0,1-.5-.526,2.842,2.842,0,0,1-.529-1.665,1.21,1.21,0,0,1,1.117-1.159,2.455,2.455,0,0,0,.475.028c.4-.065.578-.561.554-.969a3.663,3.663,0,0,1-.051-1.216c.111-.393.656-.685.928-.38.228-.522.38-1.282-.132-1.533a1.537,1.537,0,0,0-.537-.093c-1.125-.105-2.645-1.628-1.395-2.495.822-.57,2.149.619,2.871-.461.346-.516.132-1.267.487-1.777.21-.151.456.155.5.41a2.4,2.4,0,0,1-.784,2.213c.631.369,1.632-.052,2.061.541s-.2,1.6.356,2.059a1.163,1.163,0,0,0,.581.2c1.011.149,2.9-.023,2.963,1.427a2.076,2.076,0,0,0,.032.524c.155.51.849.559,1.38.507.273-.522-.083-1.132-.318-1.671s-.219-1.367.354-1.5c.411-.1.889.256,1.235.016.16-.112.234-.325.407-.417.418-.222.771.422,1.221.565.622.2,1.092-.617,1.093-1.269s-.162-1.394.263-1.889c.135-.157.316-.267.464-.41a2.767,2.767,0,0,0,.611-1.764c.1-1.011,4.092,1.607,4.343,1.649,1.918.32,3.1-1.582,4.409-2.624a11.718,11.718,0,0,1,2.29-1.3,53.055,53.055,0,0,0-38.079-35.587,17.022,17.022,0,0,0-2.442-.473c.247,1.222,1,3.152.182,4.312-1.042,1.474-3.247.184-4.059,1.912-.027.441.708.368,1.047.651a1.532,1.532,0,0,1,.33.648c.094.227.314.456.549.385.274.408-.152.91-.514,1.242a3.2,3.2,0,0,0-.984,1.4c-.335,1.156.424,2.3.911,3.4a15.75,15.75,0,0,1,.853,2.853c.007-.459.658-.644,1.068-.435a4.723,4.723,0,0,1,.993.947c.566.543,1.3.214,1.907.678.759.574,1.243,1.606,2.18,1.762,1.135.191,1.96-1.02,2.464-2.052,1.248.661,2.019,2.256,3.43,2.361a3.624,3.624,0,0,0,1.572-.362q1.551-.609,3.1-1.221a1.93,1.93,0,0,1,1.333-.184,1.951,1.951,0,0,1,.976,1.233l.668,1.625a1.175,1.175,0,0,1,.124.7,1.035,1.035,0,0,1-.5.564,5.6,5.6,0,0,1-4.014.82,22.652,22.652,0,0,0,1.1,5.51c-1.055-.273-2.269.079-3.246-.328" transform="translate(-200.094 -138.018)" fill="#407bff" style="isolation: isolate"/>
            <path id="Trazado_105190" data-name="Trazado 105190" d="M264.345,239.255a2.088,2.088,0,0,1-1.586.814,9.94,9.94,0,0,1-1.116-.211,1.031,1.031,0,0,0-1.022.339c-.265.405-.014.938.236,1.352a1.6,1.6,0,0,0,.819.808,7.553,7.553,0,0,0,.859.048c.562.092.923.623,1.3,1.053s.983.817,1.479.538c.327-.184.467-.6.784-.8.773-.487,1.724.572,2.425.173.83-.473.526-1.824.182-2.586a6.985,6.985,0,0,0-1.652-1.942C265.366,237.214,265.6,237.758,264.345,239.255Z" transform="translate(-201.424 -173.165)" fill="#407bff" style="isolation: isolate"/>
            <path id="Trazado_105191" data-name="Trazado 105191" d="M302.379,252.81c8.274-8.2,13.113-20.148,14.063-31.638.027-.32.049-.639.071-.956-1.6-1.646-4.774-2.7-5.606.265-.328-.024-.4-.219-.645-.4-.392-.29-.943.1-1.163.54-.721,1.43-.821,3.225-2.8,2.839-2.363-.46-.76-1.471-1.53-2.774a2.682,2.682,0,0,0-.461-.465,2.675,2.675,0,0,1-.376-2.29.916.916,0,0,0,1.242-.517,1.465,1.465,0,0,1,.182-.543c.267-.316.82-.02.948.374a11.908,11.908,0,0,1,.116,1.233c.085.405.527.8.881.587a.722.722,0,0,0,.277-.425,2.252,2.252,0,0,0-.406-2.05.906.906,0,0,0-.039-1.762c-.575-.126-1.4.214-1.63-.327a1.307,1.307,0,0,1-.507,1.265c-1.526,1.108-4.957.121-4.615,3.371a12.406,12.406,0,0,1,.226,1.556,1.2,1.2,0,0,1-.816,1.205c.926.747.587,2.459,1.583,3.112a1.264,1.264,0,0,0,1.543-.164.564.564,0,0,1,.217-.171c.181-.057.349.114.535.154.322.069.6-.265.93-.283.459-.026.71.523.791.976s.2,1.007.646,1.131c.151.042.314.021.465.064a.784.784,0,0,1,.5.731,2.3,2.3,0,0,1-.209.918c-.191.193-.532.075-.716-.124a5.279,5.279,0,0,0-.508-.633c-.119-.094-2.869.117-2.782-.082-.409.947-.615,3.018-2.036,2.49-.5-.186-1.013-.526-1.526-.373q.366-1,.708-2.015c-.208-.184-.531.068-.619.331s-.1.583-.324.75a.892.892,0,0,1-.562.115l-1.9-.038a2.3,2.3,0,0,0-1.909.557,1.736,1.736,0,0,0,.313,2.136.718.718,0,0,1,.258.483.706.706,0,0,1-.274.415,2.843,2.843,0,0,0-.934,2.409,1.855,1.855,0,0,0,1.852,1.59c.343-.03.769-.146.972.133.118.164.115.428.3.512.232.1.427-.187.594-.379a1.023,1.023,0,0,1,1.255-.2,5.1,5.1,0,0,1,.672,2.358c-.38.65-2.18.394-2.885.426a1.022,1.022,0,0,0-.755.245c-.279.321-.052.832.259,1.121s.719.514.874.91a1.764,1.764,0,0,1,.069.732,1.871,1.871,0,0,1-.455,1.386c-.178.151-.409.232-.587.383a1.45,1.45,0,0,0-.294,1.489c.142.515.418.991.517,1.516.21,1.118-.4,2.332.04,3.379.214.506.883.91,1.3.553.361-.308.358-1.035.829-1.088.452-.051,1.013,1.089,1.388,1.31.3.175.9-.114,1.441.281C301.812,251.755,301.9,252.462,302.379,252.81Z" transform="translate(-213.231 -164.92)" fill="#407bff" style="isolation: isolate"/>
            <path id="Trazado_105192" data-name="Trazado 105192" d="M194.176,155.687c.465-.592.758-1.273,1.632-1.425,1.19-.208,1.64.459,1.119,1.588a.505.505,0,0,0-.07.318c.082.344.6.143.888-.055a2.366,2.366,0,0,1,2.283-.11,11.138,11.138,0,0,0,.326-3.563c-.595-1.312-3.345-.694-2.781-2.122,1.029-.022,2.084.112,3.118.188l.17-1.49c-.042.37,1.881.294,2.1.183.846-.43.617-1.971,2.136-1.72,1.922.317,2.032,4.094-.153,3.478a9.8,9.8,0,0,0-.778,3.659c-.4,0-.794-.008-1.189-.013a1.074,1.074,0,0,0-.146.961,2.972,2.972,0,0,0,3.281.031c.624.478,1.506.02,2.149-.435a2.341,2.341,0,1,0,1.489-3.524,3.817,3.817,0,0,0-.811-2.2,4.978,4.978,0,0,0,4.753-3.293c.334-.984.409-2.176,1.24-2.8.368-.28.835-.4,1.221-.652a3.731,3.731,0,0,0,1.25-2.745q.133-1.036.2-2.077a52.636,52.636,0,0,0-31.173,17.336,2.086,2.086,0,0,0,.078,1.072,2.286,2.286,0,0,0,1.649,1.02c2.523.666,4.136.521,5.884-1.441C194.082,155.8,194.13,155.745,194.176,155.687Z" transform="translate(-175.26 -137.871)" fill="#407bff" style="isolation: isolate"/>
          </g>
          <g id="Grupo_85018" data-name="Grupo 85018" transform="translate(1.801 0.678)" opacity="0.4">
            <path id="Trazado_105193" data-name="Trazado 105193" d="M180.592,229.377c-.17.978-1.413,1.329-2.415,1.455q-2.256.279-4.512.561c-.71-1.868-2.922-1.885-4.478-1.157a52.614,52.614,0,0,0,46.462,38.729q2.611.215,5.172.175a1.526,1.526,0,0,0,.085-.129c.784-1.378-.354-2.6-.962-3.728-.137-.256-1.427-3.513-1-3.522a13.919,13.919,0,0,1-4.1-.53.414.414,0,0,1-.263-.156c-.125-.215.175-.426.417-.483.619-.145,1.263-.179,1.872-.361a2.154,2.154,0,0,0,1.445-1.144,11.589,11.589,0,0,0,.2-1.9,2.62,2.62,0,0,1,1.489-1.7,8.573,8.573,0,0,1,2.173-.579c-1.589-.865-.433-2.668-1.679-3.872-.4-.387-.984-.86-.738-1.359.234-.475,1.075-.468,1.179-.987.074-.363-.309-.662-.67-.744a3.961,3.961,0,0,1-1.081-.232.968.968,0,0,1-.305-1.35c.272-.38.774-.5,1.187-.718s.785-.729.538-1.126a.739.739,0,0,0-.239-.224,2.135,2.135,0,0,0-2.213.372,4.006,4.006,0,0,1-2.116.987.658.658,0,0,1,.259-.894,1.1,1.1,0,0,0,.321-.166c.185-.189.046-.5-.08-.731a4.74,4.74,0,0,1-.363-3.612l4.816.092c.04-.361.08-.576.461-.686a50.089,50.089,0,0,1-3.2-3.882.976.976,0,0,0-.43-.415,3.089,3.089,0,0,0-.631-.032c-.695-.094-.807-1.044-.736-1.741-.1-.212-.439-.12-.567.074s-.159.447-.315.62a.893.893,0,0,1-.974.105,2.314,2.314,0,0,1-1.222-3,.7.7,0,0,1,.263-.333c.275-.157.608.036.919.092,1.229.221,1.042-1.137.745-1.779a3.83,3.83,0,0,0-2.466-1.654c-1.015-.26-7.788-1.554-6.671-3.762a1.021,1.021,0,0,1,.521-.441,15.544,15.544,0,0,1,2.068-.394c.677-.191,1.335-.9,1.04-1.536-.118-.256-.364-.432-.5-.679-.382-.688.206-1.581-.065-2.319a6.286,6.286,0,0,0-.6-.9c-.181-.313-.211-.785.1-.972.347-.21.822.1,1.191-.063a.636.636,0,0,0,.008-1.051,1.1,1.1,0,0,0-1.2.089,1.469,1.469,0,0,1-.578.32c-.4.052-.691-.341-.893-.685l-.962-1.641a.931.931,0,0,0-.764.679c-.124.341-.148.714-.289,1.051-.681,1.622-3.15,1.429-2.831,3.65a1.054,1.054,0,0,1,1.072,1.307c-.258.785-1.437,1.216-1.272,2.026.058.282.282.51.327.794.125.784-1.088,1.072-1.608,1.251-1.726.592-1.844-.542-3.34-.609-.685-.031-1.3.431-1.98.505-.627.069-1.25-.2-1.879-.159-1.73.1-.862,2.446-.74,3.465-.93-.619-2.172.1-2.911.938-1.136,1.282-1.03,1.056-2.534,1.113a1.094,1.094,0,0,0-.975.575c-.28.633.315,1.315.331,2.007.007.332-.122.659-.091.989.08.868,1.108,1.246,1.732,1.856a2.384,2.384,0,0,1,.667,2.095,4.98,4.98,0,0,1-1.329-.1l-.781-1.508a3.25,3.25,0,0,0-.879-1.2,2.709,2.709,0,0,1-.667-.5c-.328-.451-.063-1.069.015-1.621.189-1.339-.484-3.591-.811-4.919-.349-1.416-1.289-1.972-1.631-3.279a.408.408,0,0,0-.589-.188.9.9,0,0,0-.373.586,2.473,2.473,0,0,0,.143,1.619c-.3-.66-1.969,1.077-2.069,1.407-.166.54.193,1.31.179,1.87-.035,1.391-.371,2.173-1.809,1.149-.55-.391-1.254-.853-1.837-.512a.869.869,0,0,1-.485.983,1.836,1.836,0,0,1-1.169.089,1.167,1.167,0,0,1-.71-.345,1.94,1.94,0,0,0-.259-.342c-.369-.287-.834.211-1.035.633" transform="translate(-169.187 -164.632)" fill="#fff" style="isolation: isolate"/>
            <path id="Trazado_105194" data-name="Trazado 105194" d="M275.042,161.408c.291.455-.016,1.049-.347,1.476s-.719.928-.574,1.449l1.872.171a.34.34,0,0,1,.373.464q-.074.6-.146,1.2c-.395.307-.774-.661-1.265-.565-.217.043-.327.276-.446.463-1.014,1.589-2.782.4-3.729-.428-1.1-.959-2.691-1.021-4.151-1.037a1.987,1.987,0,0,0-1.47.386c-.363.362-.384.934-.567,1.419-.314.839-1.119,1.388-1.574,2.16-1.592,2.7,1.27,4.774,3.7,4.04,1.262-.38,1.044-.6,2.334-.231.537.155,1.2.022,1.525.619a1,1,0,0,1-.877,1.462,4.275,4.275,0,0,1-2.073-.241,8.063,8.063,0,0,1-.093,2.732,1.192,1.192,0,0,0-1.273,1.592c.411.006.966.16.932.57a.685.685,0,0,1-.144.325c-.286.411-.652.765-.9,1.2-.377.672-.375,2.686-1.337,2.927-.17.043-.35.028-.516.082a.778.778,0,0,0-.472.9,1.052,1.052,0,0,0,.763.74c.24.064.5.058.73.139,1.244.433.152,1.661.45,2.27a11.027,11.027,0,0,0,2.481,1.65,2.932,2.932,0,0,0-1.4,2.21c-.029,1.012.74,1.5,1.7,1.8,1.016.318,2.248.423,2.981.706a1.252,1.252,0,0,0,1.205.032c.413-.327.323-1.1.8-1.321a1.459,1.459,0,0,1,.492-.08,1.856,1.856,0,0,0,1.584-2.088c.226-.294.667-.267,1.038-.257s.841-.112.895-.479c.062-.422-.479-.657-.905-.683a4.7,4.7,0,0,0-1.3.1,1.543,1.543,0,0,1-.956.039,1.241,1.241,0,0,1-.5-.526,2.842,2.842,0,0,1-.529-1.665,1.21,1.21,0,0,1,1.117-1.159,2.455,2.455,0,0,0,.475.028c.4-.065.578-.561.554-.969a3.663,3.663,0,0,1-.051-1.216c.111-.393.656-.685.928-.38.228-.522.38-1.282-.132-1.533a1.537,1.537,0,0,0-.537-.093c-1.125-.105-2.645-1.628-1.395-2.495.822-.57,2.149.619,2.871-.461.346-.516.132-1.267.487-1.777.21-.151.456.155.5.41a2.4,2.4,0,0,1-.784,2.213c.631.369,1.632-.052,2.061.541s-.2,1.6.356,2.059a1.163,1.163,0,0,0,.581.2c1.011.149,2.9-.023,2.963,1.427a2.076,2.076,0,0,0,.032.524c.155.51.849.559,1.38.507.273-.522-.083-1.132-.318-1.671s-.219-1.367.354-1.5c.411-.1.889.256,1.235.016.16-.112.234-.325.407-.417.418-.222.771.422,1.221.565.622.2,1.092-.617,1.093-1.269s-.162-1.394.263-1.889c.135-.157.316-.267.464-.41a2.767,2.767,0,0,0,.611-1.764c.1-1.011,4.092,1.607,4.343,1.649,1.918.32,3.1-1.582,4.409-2.624a11.718,11.718,0,0,1,2.29-1.3,53.055,53.055,0,0,0-38.079-35.587,17.022,17.022,0,0,0-2.442-.473c.247,1.222,1,3.152.182,4.312-1.042,1.474-3.247.184-4.059,1.912-.027.441.708.368,1.047.651a1.532,1.532,0,0,1,.33.648c.094.227.314.456.549.385.274.408-.152.91-.514,1.242a3.2,3.2,0,0,0-.984,1.4c-.335,1.156.424,2.3.911,3.4a15.75,15.75,0,0,1,.853,2.853c.007-.459.658-.644,1.068-.435a4.723,4.723,0,0,1,.993.947c.566.543,1.3.214,1.907.678.759.574,1.243,1.606,2.18,1.762,1.135.191,1.96-1.02,2.464-2.052,1.248.661,2.019,2.256,3.43,2.361a3.624,3.624,0,0,0,1.572-.362q1.551-.609,3.1-1.221a1.93,1.93,0,0,1,1.333-.184,1.951,1.951,0,0,1,.976,1.233l.668,1.625a1.175,1.175,0,0,1,.124.7,1.035,1.035,0,0,1-.5.564,5.6,5.6,0,0,1-4.014.82,22.652,22.652,0,0,0,1.1,5.51c-1.055-.273-2.269.079-3.246-.328" transform="translate(-200.094 -138.018)" fill="#fff" style="isolation: isolate"/>
            <path id="Trazado_105195" data-name="Trazado 105195" d="M264.345,239.255a2.088,2.088,0,0,1-1.586.814,9.94,9.94,0,0,1-1.116-.211,1.031,1.031,0,0,0-1.022.339c-.265.405-.014.938.236,1.352a1.6,1.6,0,0,0,.819.808,7.553,7.553,0,0,0,.859.048c.562.092.923.623,1.3,1.053s.983.817,1.479.538c.327-.184.467-.6.784-.8.773-.487,1.724.572,2.425.173.83-.473.526-1.824.182-2.586a6.985,6.985,0,0,0-1.652-1.942C265.366,237.214,265.6,237.758,264.345,239.255Z" transform="translate(-201.424 -173.165)" fill="#fff" style="isolation: isolate"/>
            <path id="Trazado_105196" data-name="Trazado 105196" d="M302.379,252.81c8.274-8.2,13.113-20.148,14.063-31.638.027-.32.049-.639.071-.956-1.6-1.646-4.774-2.7-5.606.265-.328-.024-.4-.219-.645-.4-.392-.29-.943.1-1.163.54-.721,1.43-.821,3.225-2.8,2.839-2.363-.46-.76-1.471-1.53-2.774a2.682,2.682,0,0,0-.461-.465,2.675,2.675,0,0,1-.376-2.29.916.916,0,0,0,1.242-.517,1.465,1.465,0,0,1,.182-.543c.267-.316.82-.02.948.374a11.908,11.908,0,0,1,.116,1.233c.085.405.527.8.881.587a.722.722,0,0,0,.277-.425,2.252,2.252,0,0,0-.406-2.05.906.906,0,0,0-.039-1.762c-.575-.126-1.4.214-1.63-.327a1.307,1.307,0,0,1-.507,1.265c-1.526,1.108-4.957.121-4.615,3.371a12.406,12.406,0,0,1,.226,1.556,1.2,1.2,0,0,1-.816,1.205c.926.747.587,2.459,1.583,3.112a1.264,1.264,0,0,0,1.543-.164.564.564,0,0,1,.217-.171c.181-.057.349.114.535.154.322.069.6-.265.93-.283.459-.026.71.523.791.976s.2,1.007.646,1.131c.151.042.314.021.465.064a.784.784,0,0,1,.5.731,2.3,2.3,0,0,1-.209.918c-.191.193-.532.075-.716-.124a5.279,5.279,0,0,0-.508-.633c-.119-.094-2.869.117-2.782-.082-.409.947-.615,3.018-2.036,2.49-.5-.186-1.013-.526-1.526-.373q.366-1,.708-2.015c-.208-.184-.531.068-.619.331s-.1.583-.324.75a.892.892,0,0,1-.562.115l-1.9-.038a2.3,2.3,0,0,0-1.909.557,1.736,1.736,0,0,0,.313,2.136.718.718,0,0,1,.258.483.706.706,0,0,1-.274.415,2.843,2.843,0,0,0-.934,2.409,1.855,1.855,0,0,0,1.852,1.59c.343-.03.769-.146.972.133.118.164.115.428.3.512.232.1.427-.187.594-.379a1.023,1.023,0,0,1,1.255-.2,5.1,5.1,0,0,1,.672,2.358c-.38.65-2.18.394-2.885.426a1.022,1.022,0,0,0-.755.245c-.279.321-.052.832.259,1.121s.719.514.874.91a1.764,1.764,0,0,1,.069.732,1.871,1.871,0,0,1-.455,1.386c-.178.151-.409.232-.587.383a1.45,1.45,0,0,0-.294,1.489c.142.515.418.991.517,1.516.21,1.118-.4,2.332.04,3.379.214.506.883.91,1.3.553.361-.308.358-1.035.829-1.088.452-.051,1.013,1.089,1.388,1.31.3.175.9-.114,1.441.281C301.812,251.755,301.9,252.462,302.379,252.81Z" transform="translate(-213.231 -164.92)" fill="#fff" style="isolation: isolate"/>
            <path id="Trazado_105197" data-name="Trazado 105197" d="M194.176,155.687c.465-.592.758-1.273,1.632-1.425,1.19-.208,1.64.459,1.119,1.588a.505.505,0,0,0-.07.318c.082.344.6.143.888-.055a2.366,2.366,0,0,1,2.283-.11,11.138,11.138,0,0,0,.326-3.563c-.595-1.312-3.345-.694-2.781-2.122,1.029-.022,2.084.112,3.118.188l.17-1.49c-.042.37,1.881.294,2.1.183.846-.43.617-1.971,2.136-1.72,1.922.317,2.032,4.094-.153,3.478a9.8,9.8,0,0,0-.778,3.659c-.4,0-.794-.008-1.189-.013a1.074,1.074,0,0,0-.146.961,2.972,2.972,0,0,0,3.281.031c.624.478,1.506.02,2.149-.435a2.341,2.341,0,1,0,1.489-3.524,3.817,3.817,0,0,0-.811-2.2,4.978,4.978,0,0,0,4.753-3.293c.334-.984.409-2.176,1.24-2.8.368-.28.835-.4,1.221-.652a3.731,3.731,0,0,0,1.25-2.745q.133-1.036.2-2.077a52.636,52.636,0,0,0-31.173,17.336,2.086,2.086,0,0,0,.078,1.072,2.286,2.286,0,0,0,1.649,1.02c2.523.666,4.136.521,5.884-1.441C194.082,155.8,194.13,155.745,194.176,155.687Z" transform="translate(-175.26 -137.871)" fill="#fff" style="isolation: isolate"/>
          </g>
        </g>
      </g>
    </g>
    <g id="People" transform="translate(29.453 53.094)">
      <g id="Grupo_85024" data-name="Grupo 85024" transform="translate(0 40.494)">
        <g id="Grupo_85021" data-name="Grupo 85021" transform="translate(2.416 0)">
          <path id="Trazado_105198" data-name="Trazado 105198" d="M50.234,129.083a7.706,7.706,0,1,0,7.706-7.706A7.7,7.7,0,0,0,50.234,129.083Z" transform="translate(-49.602 -120.746)" fill="#407bff"/>
          <circle id="Elipse_4125" data-name="Elipse 4125" cx="7.267" cy="7.267" r="7.267" transform="matrix(0.987, -0.16, 0.16, 0.987, 0, 2.328)" fill="#fff" opacity="0.3"/>
          <path id="Trazado_105199" data-name="Trazado 105199" d="M55.464,129.948a1.173,1.173,0,0,0,.892,1.077,1.661,1.661,0,0,0,.032,1.077c.217.591,1.406.591,1.406.591a.607.607,0,0,0,.54.364c.025.035.054.063.076.093.051.076.109.157.17.233a4.059,4.059,0,0,1-.454,3.029s.01.006.013.013c-.5.054-1,.121-1.5.2-.237.035-.473.076-.707.121a7.7,7.7,0,0,0,8.595-.61c-.221,0-.47-.006-.741-.006-.4,0-.856,0-1.352.013a.122.122,0,0,0-.012-.028,1.573,1.573,0,0,1-1.4-1.023,2.247,2.247,0,0,1-.093-.8,2.542,2.542,0,0,0,.639-.211,2.645,2.645,0,0,0,1.31-1.434,2.56,2.56,0,0,0,.089-.269,6.744,6.744,0,0,0,.166-2.294,1.08,1.08,0,0,0,.524-.741.793.793,0,0,0-.547-.969,1.033,1.033,0,0,0,.793-1.08.822.822,0,0,0-.793-.955s.281-.406-.265-1.16a.967.967,0,0,0-1.3-.29,1.515,1.515,0,0,0-1.511-.684,1.643,1.643,0,0,0-1.179.776s0-.553-1.068-.246a1.445,1.445,0,0,0-.936,1.537.783.783,0,0,0-1.086.406c-.371.77.432,2.118.432,2.118A1.049,1.049,0,0,0,55.464,129.948Z" transform="translate(-51.446 -121.733)" fill="#407bff"/>
          <path id="Trazado_105200" data-name="Trazado 105200" d="M50.234,129.083a7.706,7.706,0,1,0,7.706-7.706A7.7,7.7,0,0,0,50.234,129.083Z" transform="translate(-49.602 -120.746)" fill="#fff" opacity="0.7"/>
        </g>
        <g id="Grupo_85022" data-name="Grupo 85022" transform="translate(0 136.829)">
          <circle id="Elipse_4126" data-name="Elipse 4126" cx="6.85" cy="6.85" r="6.85" fill="#407bff"/>
          <path id="Trazado_105201" data-name="Trazado 105201" d="M59.047,338.953a6.459,6.459,0,1,1-6.461-6.461A6.434,6.434,0,0,1,59.047,338.953Z" transform="translate(-45.737 -332.102)" fill="#fff" opacity="0.3"/>
          <path id="Trazado_105202" data-name="Trazado 105202" d="M58.575,343.86a6.463,6.463,0,0,1-8.744,1.377c.215-.491.352-.784.352-.784a18.737,18.737,0,0,1,2.459-.6,1.914,1.914,0,0,1,.846-.421,2.475,2.475,0,0,0-.049-1.471,2.557,2.557,0,0,1-.659-.65,1.844,1.844,0,0,1-.349-.344,3.064,3.064,0,0,1-1.644-2.974c0-.093,0-.184.006-.275-.426-.043-.87.091-.563.957a2.563,2.563,0,0,1-.025,2.277,5.822,5.822,0,0,0-.049-.988c0,1.545-.835,1.644-.835,1.644s.531-.556-.253-2.275-.556-4.047.934-4.146a1.946,1.946,0,0,1,1.65.693,2.5,2.5,0,0,1,2.928-.341s1.341-.327,1.718.025c.082.077.019.253-.142.486a1.747,1.747,0,0,1,.75,1.108,2.649,2.649,0,0,1-.366,2.1c.179,1.7-.111,2.97-1.46,3.089,0,.043-.006.085-.009.125,0,.06-.005.119-.005.173a2.031,2.031,0,0,0,.094.725,3.7,3.7,0,0,1,.565.153c1.21,0,2.561.127,2.561.127l.014.008A1.8,1.8,0,0,1,58.575,343.86Z" transform="translate(-46.62 -333.05)" fill="#407bff"/>
          <circle id="Elipse_4127" data-name="Elipse 4127" cx="6.85" cy="6.85" r="6.85" fill="#fff" opacity="0.7"/>
        </g>
        <g id="Grupo_85023" data-name="Grupo 85023" transform="translate(247.045 79.473)">
          <circle id="Elipse_4128" data-name="Elipse 4128" cx="7.561" cy="7.561" r="7.561" transform="translate(0 10.692) rotate(-45)" fill="#407bff"/>
          <path id="Trazado_105203" data-name="Trazado 105203" d="M447.128,255.875A7.128,7.128,0,1,1,440,248.747,7.09,7.09,0,0,1,447.128,255.875Z" transform="translate(-429.308 -245.183)" fill="#fff" opacity="0.3"/>
          <path id="Trazado_105204" data-name="Trazado 105204" d="M447.423,260.631a7.121,7.121,0,0,1-10.3,1.683,3.99,3.99,0,0,1,.041-1.169c.087-.872,1.093-1.574,1.075-2.185s-1.031-1.4-.376-1.749a1.907,1.907,0,0,0,.27-2.47,1.659,1.659,0,0,1,.041-2.316,3.016,3.016,0,0,1,1.943-1.057,3.58,3.58,0,0,1,2.11-.3,4.469,4.469,0,0,1,2.1.712,3.056,3.056,0,0,1,1.091,1.345,4.256,4.256,0,0,1,.226,3.087c-.357,1.018,1.229.959,1.273,1.9s-.743.987-.6,1.614C446.37,260.007,446.916,260.277,447.423,260.631Z" transform="translate(-430.797 -245.989)" fill="#407bff"/>
          <circle id="Elipse_4129" data-name="Elipse 4129" cx="7.561" cy="7.561" r="7.561" transform="translate(0 10.692) rotate(-45)" fill="#fff" opacity="0.7"/>
        </g>
      </g>
      <g id="Grupo_85029" data-name="Grupo 85029" transform="translate(31.366 10.138)">
        <rect id="Rectángulo_33812" data-name="Rectángulo 33812" width="62.902" height="0.647" transform="matrix(0.917, -0.398, 0.398, 0.917, 135.928, 70.111)" fill="#407bff"/>
        <rect id="Rectángulo_33813" data-name="Rectángulo 33813" width="0.647" height="46.88" transform="matrix(0.85, -0.526, 0.526, 0.85, 56.039, 12.326)" fill="#407bff"/>
        <rect id="Rectángulo_33814" data-name="Rectángulo 33814" width="65.404" height="0.647" transform="translate(0.279 131.521) rotate(-11.833)" fill="#407bff"/>
        <rect id="Rectángulo_33815" data-name="Rectángulo 33815" width="62.902" height="0.647" transform="matrix(0.917, -0.398, 0.398, 0.917, 135.928, 70.111)" fill="#fff" opacity="0.8"/>
        <rect id="Rectángulo_33816" data-name="Rectángulo 33816" width="0.647" height="69.375" transform="matrix(0.847, -0.531, 0.531, 0.847, 143.179, 108.207)" fill="#407bff"/>
        <rect id="Rectángulo_33817" data-name="Rectángulo 33817" width="0.647" height="69.375" transform="matrix(0.847, -0.531, 0.531, 0.847, 143.179, 108.207)" fill="#fff" opacity="0.8"/>
        <rect id="Rectángulo_33818" data-name="Rectángulo 33818" width="0.647" height="46.88" transform="matrix(0.85, -0.526, 0.526, 0.85, 56.039, 12.326)" fill="#fff" opacity="0.8"/>
        <rect id="Rectángulo_33819" data-name="Rectángulo 33819" width="65.404" height="0.647" transform="translate(0.279 131.521) rotate(-11.833)" fill="#fff" opacity="0.8"/>
        <path id="Trazado_105205" data-name="Trazado 105205" d="M156.679,264.35,94,205.43l8.863-67.021.066-.074,47.223-53,.118-.016,85.579-11.835,52.258,45.252-.019.17L274.586,240.578l-.232.047Zm-61.99-59.164,62.19,58.464,117.116-23.613L287.431,119l-51.78-44.837L150.481,85.943l-47,52.749Z" transform="translate(-94.004 -73.483)" fill="#407bff"/>
        <path id="Trazado_105206" data-name="Trazado 105206" d="M156.679,264.35,94,205.43l8.863-67.021.066-.074,47.223-53,.118-.016,85.579-11.835,52.258,45.252-.019.17L274.586,240.578l-.232.047Zm-61.99-59.164,62.19,58.464,117.116-23.613L287.431,119l-51.78-44.837L150.481,85.943l-47,52.749Z" transform="translate(-94.004 -73.483)" fill="#fff" opacity="0.8"/>
        <g id="Grupo_85025" data-name="Grupo 85025" transform="translate(78.179 49.207)">
          <path id="Trazado_105207" data-name="Trazado 105207" d="M219.623,153.881l-.97,5.665-.97-5.665Z" transform="translate(-215.843 -151.072)" fill="#407bff"/>
          <path id="Trazado_105208" data-name="Trazado 105208" d="M220.458,152.348a2.809,2.809,0,1,1-2.809-2.809A2.809,2.809,0,0,1,220.458,152.348Z" transform="translate(-214.84 -149.539)" fill="#407bff"/>
          <path id="Trazado_105209" data-name="Trazado 105209" d="M218.313,150.667c.313.411.066,1.124-.551,1.595s-1.371.518-1.683.107-.066-1.124.551-1.594S218,150.257,218.313,150.667Z" transform="translate(-215.229 -149.839)" fill="#fff" opacity="0.3"/>
        </g>
        <g id="Grupo_85026" data-name="Grupo 85026" transform="translate(133.248 67.601)">
          <path id="Trazado_105210" data-name="Trazado 105210" d="M304.739,182.31l-.97,5.665-.97-5.665Z" transform="translate(-300.96 -179.501)" fill="#407bff"/>
          <circle id="Elipse_4130" data-name="Elipse 4130" cx="2.809" cy="2.809" r="2.809" transform="translate(0)" fill="#407bff"/>
          <path id="Trazado_105211" data-name="Trazado 105211" d="M303.43,179.1c.313.41.066,1.124-.551,1.594s-1.371.518-1.683.107-.066-1.124.551-1.594S303.117,178.686,303.43,179.1Z" transform="translate(-300.346 -178.268)" fill="#fff" opacity="0.3"/>
        </g>
        <g id="Grupo_85027" data-name="Grupo 85027" transform="translate(61.552 115.291)">
          <path id="Trazado_105212" data-name="Trazado 105212" d="M193.924,256.022l-.97,5.665-.97-5.665Z" transform="translate(-190.144 -253.213)" fill="#407bff"/>
          <circle id="Elipse_4131" data-name="Elipse 4131" cx="2.809" cy="2.809" r="2.809" fill="#407bff"/>
          <path id="Trazado_105213" data-name="Trazado 105213" d="M192.615,252.808c.312.411.065,1.124-.552,1.595s-1.371.518-1.683.107-.065-1.124.552-1.594S192.3,252.4,192.615,252.808Z" transform="translate(-189.53 -251.98)" fill="#fff" opacity="0.3"/>
        </g>
        <g id="Grupo_85028" data-name="Grupo 85028" transform="translate(140.644 105.226)">
          <path id="Trazado_105214" data-name="Trazado 105214" d="M316.17,240.466l-.97,5.665-.97-5.665Z" transform="translate(-312.391 -237.657)" fill="#407bff"/>
          <path id="Trazado_105215" data-name="Trazado 105215" d="M317.006,238.933a2.809,2.809,0,1,1-2.809-2.809A2.809,2.809,0,0,1,317.006,238.933Z" transform="translate(-311.388 -236.124)" fill="#407bff"/>
          <path id="Trazado_105216" data-name="Trazado 105216" d="M314.861,237.253c.313.41.066,1.124-.551,1.594s-1.371.518-1.683.107-.066-1.124.551-1.594S314.548,236.842,314.861,237.253Z" transform="translate(-311.777 -236.424)" fill="#fff" opacity="0.3"/>
        </g>
      </g>
      <g id="Grupo_85038" data-name="Grupo 85038" transform="translate(195.674 27.253)">
        <path id="Trazado_105217" data-name="Trazado 105217" d="M403.54,133.945a21.5,21.5,0,0,1-4.3,12.931,20.811,20.811,0,0,1-3.285,3.481,20.467,20.467,0,0,1-3.562,2.472,21.549,21.549,0,0,1-19.338.748c-.252-.105-.5-.228-.749-.358l-.008-.008a20.625,20.625,0,0,1-4.229-2.781,21.563,21.563,0,0,1-7.669-16.485,21.571,21.571,0,1,1,43.142,0Z" transform="translate(-352.352 -104.326)" fill="#407bff"/>
        <circle id="Elipse_4132" data-name="Elipse 4132" cx="20.943" cy="20.943" r="20.943" transform="translate(0 29.619) rotate(-45)" fill="#fff" opacity="0.7"/>
        <g id="Grupo_85037" data-name="Grupo 85037" transform="translate(11.437 12.128)">
          <path id="Trazado_105218" data-name="Trazado 105218" d="M370.132,152.33l2.021-8.395s1.282-1.022,1.363-1.764-.789-5.14-1.345-5.406-3.842.881-4,1.819,1.137,4.632,1.4,4.933l-3.319,9.764Z" transform="translate(-365.854 -125.052)" fill="#e4897b"/>
          <path id="Trazado_105219" data-name="Trazado 105219" d="M371.539,152.716l-1.216,11.03a20.7,20.7,0,0,1-4.682-5.613c.75-2.645,1.508-5.022,1.864-6.087.118-.379.19-.592.19-.592l.694.087,2.882.363.355.047Z" transform="translate(-365.64 -130.25)" fill="#407bff"/>
          <path id="Trazado_105220" data-name="Trazado 105220" d="M379.6,161.665l-1.879,6.98c-.245-.1-.49-.221-.727-.347l-.008-.008a20.043,20.043,0,0,1-4.106-2.7c.15-.339,4-9.016,5.432-8.914Z" transform="translate(-368.195 -132.093)" fill="#407bff"/>
          <path id="Trazado_105221" data-name="Trazado 105221" d="M371.539,152.716l-1.216,11.03a20.7,20.7,0,0,1-4.682-5.613c.75-2.645,1.508-5.022,1.864-6.087.118-.379.19-.592.19-.592l.694.087,2.882.363.355.047Z" transform="translate(-365.64 -130.25)" opacity="0.3" style="isolation: isolate"/>
          <path id="Trazado_105222" data-name="Trazado 105222" d="M379.6,161.665l-1.879,6.98c-.245-.1-.49-.221-.727-.347l-.008-.008a20.043,20.043,0,0,1-4.106-2.7c.15-.339,4-9.016,5.432-8.914Z" transform="translate(-368.195 -132.093)" opacity="0.3" style="isolation: isolate"/>
          <path id="Trazado_105223" data-name="Trazado 105223" d="M373.284,151.1l-.663,1.486-4.592-.764.1-.846Z" transform="translate(-366.484 -130.081)" fill="#407bff"/>
          <path id="Trazado_105224" data-name="Trazado 105224" d="M402.431,133.05c-.536,2.053,2.393,7.715,1.206,18.014s-12.483,9.671-17.559,6.238-4.2-22.066-2.452-25.74S402.431,133.05,402.431,133.05Z" transform="translate(-371.507 -122.762)" fill="#263238"/>
          <g id="Grupo_85030" data-name="Grupo 85030" transform="translate(8.788 24.202)">
            <path id="Trazado_105225" data-name="Trazado 105225" d="M404.351,158.829c-.111.3-.206.593-.309.892s-.205.584-.3.869c-.19.569-.371,1.121-.553,1.658-.363,1.073-.686,2.1-.994,3.063a19.827,19.827,0,0,1-3.458,2.4,20.915,20.915,0,0,1-18.776.727c-.245-.1-.49-.221-.727-.347.008-.205.008-.419.008-.616s0-.4.008-.6c.008-.592.032-1.145.047-1.666.016-.347.032-.687.039-1,.008-.166.016-.316.023-.474.032-.576.056-1.1.1-1.587.008-.158.024-.316.032-.466.031-.458.07-.869.1-1.247a11.052,11.052,0,0,1,.758-3.719.84.84,0,0,1,.111-.166c.063-.071.094-.079.094-.079s.316-.032.845-.071c1.4-.118,4.3-.324,6.916-.308a.969.969,0,0,1,.15.008q.521.012,1.042.047c1.35.071,2.7.19,4.035.356.5.063.994.134,1.492.205q.805.118,1.611.26c.07.016.15.024.221.04a53.571,53.571,0,0,1,5.874,1.342c.537.15,1.073.308,1.6.481Z" transform="translate(-379.227 -156.089)" fill="#407bff"/>
            <path id="Trazado_105226" data-name="Trazado 105226" d="M404.338,158.829c0,.008,0,.008-.008.016-.1.292-.205.584-.292.876-.11.292-.205.584-.3.869-.19.569-.371,1.121-.553,1.658-.363,1.073-.686,2.1-.994,3.063a19.827,19.827,0,0,1-3.458,2.4,20.915,20.915,0,0,1-18.776.727c-.245-.1-.49-.221-.727-.347l-.008-.008c0-.205.008-.411.016-.608s0-.4.008-.6c.008-.592.032-1.145.047-1.666.016-.347.032-.687.039-1,.008-.166.016-.316.023-.474.024-.576.056-1.1.1-1.587.008-.158.024-.316.032-.466.031-.458.071-.869.1-1.247a11.052,11.052,0,0,1,.758-3.719.843.843,0,0,1,.111-.166c.063-.071.094-.079.094-.079s.316-.032.845-.071c1.4-.118,4.3-.324,6.916-.308a.97.97,0,0,1,.15.008q.521.012,1.042.047c1.35.071,2.7.19,4.035.356.5.063.994.134,1.492.205q.806.118,1.611.26c.071.016.15.024.221.04a53.571,53.571,0,0,1,5.874,1.342C403.273,158.5,403.809,158.655,404.338,158.829Z" transform="translate(-379.223 -156.089)" opacity="0.3" style="isolation: isolate"/>
          </g>
          <path id="Trazado_105227" data-name="Trazado 105227" d="M396.016,155.209c4.621.362,5.188,1.759,4.694,2.49s-6.753,6.85-8.637,10.948C392.073,168.648,385.288,154.368,396.016,155.209Z" transform="translate(-374.224 -131.564)" fill="#fff"/>
          <path id="Trazado_105228" data-name="Trazado 105228" d="M394.793,156.957c4.574-.586,5.948-2.539,5.948-2.539-2.9-2.738-.491-7.482-.491-7.482l-5.5,1.028a16.176,16.176,0,0,1,.215,2.318c.042,3.341-1.469,3.374-1.469,3.374C392.524,155.465,394.793,156.957,394.793,156.957Z" transform="translate(-375.387 -128.656)" fill="#e4897b"/>
          <path id="Trazado_105229" data-name="Trazado 105229" d="M395.56,147.964a16.181,16.181,0,0,1,.215,2.318,6.124,6.124,0,0,0,5.29-3.346Z" transform="translate(-376.202 -128.656)" opacity="0.2" style="isolation: isolate"/>
          <g id="Grupo_85035" data-name="Grupo 85035" transform="translate(11.508)">
            <g id="Grupo_85034" data-name="Grupo 85034" transform="translate(3.59 2.059)">
              <path id="Trazado_105230" data-name="Trazado 105230" d="M396.278,124.723c-4.785-.262-6.466,2.216-7.086,7.128-.776,6.139.351,10.592,6.406,9.6C403.822,140.111,404.226,125.158,396.278,124.723Z" transform="translate(-388.976 -122.867)" fill="#e4897b"/>
              <path id="Trazado_105231" data-name="Trazado 105231" d="M393.295,135.6a10.144,10.144,0,0,1-1.5,1.909,1.317,1.317,0,0,0,1.232.611Z" transform="translate(-389.971 -126.712)" fill="#de5753"/>
              <g id="Grupo_85031" data-name="Grupo 85031" transform="translate(6.085 7.607)">
                <path id="Trazado_105232" data-name="Trazado 105232" d="M398.672,134.874c-.03.392.157.727.419.748s.5-.281.529-.674-.157-.727-.418-.748S398.7,134.481,398.672,134.874Z" transform="translate(-398.482 -133.826)" fill="#263238"/>
                <path id="Trazado_105233" data-name="Trazado 105233" d="M399.207,134.024l-.828-.4S398.749,134.374,399.207,134.024Z" transform="translate(-398.38 -133.622)" fill="#263238"/>
              </g>
              <g id="Grupo_85032" data-name="Grupo 85032" transform="translate(1.21 7.143)">
                <path id="Trazado_105234" data-name="Trazado 105234" d="M391.139,134.157c-.031.393.157.727.418.748s.5-.281.53-.674-.157-.728-.419-.748S391.17,133.764,391.139,134.157Z" transform="translate(-390.948 -133.109)" fill="#263238"/>
                <path id="Trazado_105235" data-name="Trazado 105235" d="M391.674,133.307l-.828-.4S391.215,133.657,391.674,133.307Z" transform="translate(-390.846 -132.905)" fill="#263238"/>
              </g>
              <path id="Trazado_105236" data-name="Trazado 105236" d="M400.943,131.074a.222.222,0,0,1-.18-.091,2.28,2.28,0,0,0-1.84-.747.219.219,0,0,1-.237-.205.222.222,0,0,1,.205-.237,2.7,2.7,0,0,1,2.232.928.222.222,0,0,1-.18.353Z" transform="translate(-392.403 -124.662)" fill="#263238"/>
              <path id="Trazado_105237" data-name="Trazado 105237" d="M390.567,129.867a.222.222,0,0,1-.113-.413,2.453,2.453,0,0,1,2.13-.3.222.222,0,0,1-.175.408,2.019,2.019,0,0,0-1.729.276A.22.22,0,0,1,390.567,129.867Z" transform="translate(-389.459 -124.395)" fill="#263238"/>
              <g id="Grupo_85033" data-name="Grupo 85033" transform="translate(3.65 12.601)">
                <path id="Trazado_105238" data-name="Trazado 105238" d="M394.617,142.066a12.179,12.179,0,0,1,.467,1.693c.1,0,.206,0,.31-.012,1.4-.064,2.029-.557,2.3-1.084a1.812,1.812,0,0,0,.184-.836,1.736,1.736,0,0,0-.063-.485,6.606,6.606,0,0,1-2.722.695C394.8,142.063,394.617,142.066,394.617,142.066Z" transform="translate(-394.617 -141.341)" fill="#263238"/>
                <path id="Trazado_105239" data-name="Trazado 105239" d="M395.354,142.036l.151.5a4.17,4.17,0,0,0,2.634-.705,1.738,1.738,0,0,0-.063-.485A6.606,6.606,0,0,1,395.354,142.036Z" transform="translate(-394.877 -141.341)" fill="#fff"/>
                <path id="Trazado_105240" data-name="Trazado 105240" d="M395.818,144.467c1.4-.064,2.029-.557,2.3-1.084a4.526,4.526,0,0,0-1.541.38A1.689,1.689,0,0,0,395.818,144.467Z" transform="translate(-395.041 -142.062)" fill="#de5753"/>
              </g>
              <path id="Trazado_105241" data-name="Trazado 105241" d="M401.232,132.072s-2.022-4.054-1.517-7.071c0,0-9.271-4.394-10.266,5.206,0,0-.458-8.6,7.778-8.338s7.543,12.293,3.1,15.646C400.325,137.516,402.482,134.607,401.232,132.072Z" transform="translate(-389.141 -121.864)" fill="#263238"/>
              <path id="Trazado_105242" data-name="Trazado 105242" d="M406.346,138.142a2.1,2.1,0,0,1,2.365-1.794c1.474.243,2.014,3.326-1.714,3.856C406.462,140.28,406.192,139.746,406.346,138.142Z" transform="translate(-395.092 -126.967)" fill="#e4897b"/>
            </g>
            <path id="Trazado_105243" data-name="Trazado 105243" d="M396.316,123.4a18.167,18.167,0,0,0,2.79,11.263,6.424,6.424,0,0,1-.4,7.628s4.777-3.042,4.945-7.628c0,0,3.949-10.966-4.246-13.922,0,0-.034-2.47-5.376-2s-9.647,5.049-10.463,10.886,2.227,12.346,2.227,12.346S382.558,121.288,396.316,123.4Z" transform="translate(-383.427 -118.681)" fill="#263238"/>
            <path id="Trazado_105244" data-name="Trazado 105244" d="M403.311,126.018a13.821,13.821,0,0,0-.4,4.242,20.988,20.988,0,0,0,.688,4.281,18.12,18.12,0,0,0,1.6,4.043,11.678,11.678,0,0,0,2.708,3.4,11.756,11.756,0,0,1-2.847-3.321,18.367,18.367,0,0,1-1.772-4.034,21.392,21.392,0,0,1-.861-4.339,14.247,14.247,0,0,1,.265-4.47Z" transform="translate(-390.114 -121.202)" fill="#263238"/>
          </g>
          <g id="Grupo_85036" data-name="Grupo 85036" transform="translate(28.298 26.942)">
            <path id="Trazado_105245" data-name="Trazado 105245" d="M416.026,163.427a20.169,20.169,0,0,1-3.19,3.379,19.828,19.828,0,0,1-3.458,2.4c.071-.276.166-.553.26-.829a21.387,21.387,0,0,1,3.45-5.913,23.927,23.927,0,0,1,1.887-2.124l.016-.016C415.489,160.735,415.813,161.864,416.026,163.427Z" transform="translate(-409.378 -160.324)" fill="#407bff"/>
            <path id="Trazado_105246" data-name="Trazado 105246" d="M416.026,163.427a20.169,20.169,0,0,1-3.19,3.379,19.828,19.828,0,0,1-3.458,2.4c.071-.276.166-.553.26-.829a21.387,21.387,0,0,1,3.45-5.913,23.927,23.927,0,0,1,1.887-2.124l.016-.016C415.489,160.735,415.813,161.864,416.026,163.427Z" transform="translate(-409.378 -160.324)" opacity="0.3" style="isolation: isolate"/>
          </g>
        </g>
      </g>
      <g id="Grupo_85039" data-name="Grupo 85039" transform="translate(160.696)">
        <circle id="Elipse_4133" data-name="Elipse 4133" cx="11.773" cy="11.773" r="11.773" fill="#407bff"/>
        <path id="Trazado_105247" data-name="Trazado 105247" d="M317.139,69.955a11.1,11.1,0,1,1-11.1-11.1A11.055,11.055,0,0,1,317.139,69.955Z" transform="translate(-294.265 -58.18)" fill="#fff" opacity="0.3"/>
        <path id="Trazado_105248" data-name="Trazado 105248" d="M315.561,78.2a11.1,11.1,0,0,1-16.687-.479,1.236,1.236,0,0,1,.175-.058,2.463,2.463,0,0,1,.532-.556.667.667,0,0,1,0-.093l.2-.034A2.327,2.327,0,0,1,301,76.66a3.2,3.2,0,0,1,.362.019l.693-.127s-.005.069-.015.19c.879.069,2.216.151,3.739.254a1.975,1.975,0,0,0,.688-.971,3.446,3.446,0,0,0,.132-1.279,3.847,3.847,0,0,1-1.552-.41,3.977,3.977,0,0,1-1.918-2.182,3.689,3.689,0,0,1-.122-.4,10.048,10.048,0,0,1-.059-4.193v-.01a.885.885,0,0,1-.117,0,.117.117,0,0,1-.1-.122c0-.01.005-.02.005-.029a.13.13,0,0,1,.146-.108c.01,0,.019,0,.034,0a8.517,8.517,0,0,1,.186-2.509,2.985,2.985,0,0,1-.019-2.533c.415-.6.092-.273,1.181-.366s.43-1.059,1.123-1.069.552.424,1.4.747.537-.644,1.5-.737,1.1.644,1.8.83a3.3,3.3,0,0,0,1.337,0c.508,0,.552,1.474.766,1.747s.571-.137,1.03.62a.689.689,0,0,1,.083.361,7.923,7.923,0,0,1-1.22,2.836,13.874,13.874,0,0,1-.249,1.376,1.267,1.267,0,0,1,.219,1.464,2.734,2.734,0,0,1-1.073,1.147,7.953,7.953,0,0,1-.7,1.22c-.307,1.694-.454,3.695.122,4.959A36.893,36.893,0,0,1,315.561,78.2Z" transform="translate(-295.655 -58.872)" fill="#407bff"/>
        <circle id="Elipse_4134" data-name="Elipse 4134" cx="11.773" cy="11.773" r="11.773" fill="#fff" opacity="0.5"/>
      </g>
      <g id="Grupo_85040" data-name="Grupo 85040" transform="translate(77.492 182.978)">
        <circle id="Elipse_4135" data-name="Elipse 4135" cx="11.773" cy="11.773" r="11.773" transform="translate(0 16.649) rotate(-45)" fill="#407bff"/>
        <path id="Trazado_105249" data-name="Trazado 105249" d="M196.078,360.307a11.1,11.1,0,1,1-11.1-11.1A11.046,11.046,0,0,1,196.078,360.307Z" transform="translate(-168.326 -343.659)" fill="#fff" opacity="0.2"/>
        <path id="Trazado_105250" data-name="Trazado 105250" d="M195.231,369.487a11.1,11.1,0,0,1-13.91,1.093c.805-.112,1.654-.215,2.518-.3.669-1.454.5-3.767.142-5.725a9.523,9.523,0,0,1-.8-1.411,3.089,3.089,0,0,1-1.24-1.322,1.465,1.465,0,0,1,.249-1.694,13.024,13.024,0,0,1-.362-2.669l-.049.024a3.96,3.96,0,0,1,2.445-4.71c3.339-1.264,6.711,1,6.711,1s.723-1.347,1.586-1c.732.3.342,1.255.205,1.548a1.779,1.779,0,0,1,.756-.659c.591-.268,1.406.483-.424,2.314a2.673,2.673,0,0,1-.654.469,9.007,9.007,0,0,1,.049,2.5,11.547,11.547,0,0,1-.069,4.837,3.341,3.341,0,0,1-.142.464,4.54,4.54,0,0,1-2.216,2.518,4.34,4.34,0,0,1-1.791.479,4.064,4.064,0,0,0,.151,1.474,2.316,2.316,0,0,0,.8,1.122c1.762-.122,3.3-.21,4.319-.293-.01-.146-.019-.219-.019-.219l.8.146A3.371,3.371,0,0,1,195.231,369.487Z" transform="translate(-170.954 -344.78)" fill="#407bff"/>
        <circle id="Elipse_4136" data-name="Elipse 4136" cx="11.773" cy="11.773" r="11.773" transform="translate(0 16.649) rotate(-45)" fill="#fff" opacity="0.5"/>
      </g>
      <g id="Grupo_85041" data-name="Grupo 85041" transform="translate(26.374 61.043)">
        <circle id="Elipse_4137" data-name="Elipse 4137" cx="11.773" cy="11.773" r="11.773" transform="translate(0 22.915) rotate(-76.717)" fill="#407bff"/>
        <path id="Trazado_105251" data-name="Trazado 105251" d="M113.225,168a11.1,11.1,0,1,1-11.1-11.1A11.064,11.064,0,0,1,113.225,168Z" transform="translate(-87.96 -153.835)" fill="#fff" opacity="0.2"/>
        <path id="Trazado_105252" data-name="Trazado 105252" d="M111.918,176.8A11.1,11.1,0,0,1,97.1,178.382l4.4-1.357c.083.093.161.2.244.3.185-.034.376-.073.566-.107.351-.063.7-.112,1.059-.166a3.291,3.291,0,0,0,.439-1.362c-.371.019-.606.024-.606.024.122-.439-.532-1.352-.532-1.352l-.219,1.205a2.4,2.4,0,0,1-.742-.259c-.293-.185-.678-1.5-.678-1.5s-.761,1.279-.928,1.572-.61,0-.61,0a4.47,4.47,0,0,1,.073-2.25.765.765,0,0,0-.776-1.113,3.96,3.96,0,0,1-.293,1.259,3.871,3.871,0,0,0-.3,1.645c0,.464.039.791-.293.791s-.371-.292-.336-.791-.479-.981-.181-1.386.073-1.518.073-1.518c-.186.776-1.035.742-1.181,1.293s.405,1.332.146,1.61-.7,0-.7,0,.371-.61.113-.966-.669-.532-.483-1.255.517-.717.41-1.518-.483-.752,0-1.049a3.95,3.95,0,0,0,1.108-2.309c0-.609-.259-2.011.776-2.5s1.293-.874,1.108-2.177.81-1.211,2.07-.952c0,0,.624-1,1.215-.81s1.035.073,1.161-.259,1.757-.3,2,0a1.778,1.778,0,0,0,1.655.292c.532-.219,1.947.664,1.9,1.255s-.034.928.727,1.264.9.512,1.235,1.836-.22,1.854.444,2.367.591,2.553.63,3.183,0,1.328,0,1.328l-.185.054c-.186.049-.332-.683-.3-1.225.039-.517-1.123-1.274-1.22-1.337.024.054.234.5.371.859a6.475,6.475,0,0,1,.146,1.982c-.034.63.7.976.7.976l-.81.405a3.986,3.986,0,0,1-.415-2.04,1.487,1.487,0,0,0-.4-1.323v1.323s-.219.473-.551,1.1.259.815.351,1.147-.727.351-.727.351l-.151-.8-.278.8a4.338,4.338,0,0,1-1.6.488,2.774,2.774,0,0,0,.322,1.264c.263-.015.527-.03.791-.039.522,0,1.064.005,1.586.025h.01C110.381,176.693,111.264,176.751,111.918,176.8Z" transform="translate(-89.474 -155.244)" fill="#407bff"/>
        <circle id="Elipse_4138" data-name="Elipse 4138" cx="11.773" cy="11.773" r="11.773" transform="translate(0 22.915) rotate(-76.717)" fill="#fff" opacity="0.5"/>
      </g>
      <g id="Grupo_85046" data-name="Grupo 85046" transform="translate(67.128 1.578)">
        <circle id="Elipse_4139" data-name="Elipse 4139" cx="19.747" cy="19.747" r="19.747" fill="#407bff"/>
        <path id="Trazado_105253" data-name="Trazado 105253" d="M188.479,80.354a18.993,18.993,0,0,1-3.973,11.639,18.59,18.59,0,0,1-2.27,2.471,17.867,17.867,0,0,1-2.452,1.889.3.3,0,0,1-.11.071,17.475,17.475,0,0,1-2.123,1.19,19.084,19.084,0,0,1-22.709-4.885l-.006-.006a19.1,19.1,0,1,1,33.643-12.37Z" transform="translate(-149.63 -60.606)" fill="#fff" opacity="0.7"/>
        <g id="_Group_" data-name="&lt;Group&gt;" transform="translate(4.746 4.23)">
          <path id="Trazado_105254" data-name="Trazado 105254" d="M186.149,90.485c.421-.935.72-.529,1.936.409a3.089,3.089,0,0,1,1.408,2.781c0,1-.192,2.978-.192,2.978l3.157,3.541-1.429,2.154L187.36,98.21a6.06,6.06,0,0,1-2.112-2.9C184.95,93.773,186.149,90.485,186.149,90.485Z" transform="translate(-166.705 -74.968)" fill="#ebb376"/>
          <g id="Grupo_85042" data-name="Grupo 85042" transform="translate(16.303 14.455)">
            <path id="Trazado_105255" data-name="Trazado 105255" d="M184.536,89.132l2.585,4.642a.569.569,0,0,1-.067.65l-2.006,2.316a.57.57,0,0,1-.918-.077l-2.318-3.82Z" transform="translate(-181.813 -89.132)" fill="#263238"/>
            <path id="Trazado_105256" data-name="Trazado 105256" d="M184.586,89.9l2.282,4.3L184.7,96.763l-2.337-3.8Z" transform="translate(-182.006 -89.405)" fill="#407bff" opacity="0.4"/>
          </g>
          <path id="Trazado_105257" data-name="Trazado 105257" d="M194.667,112.621c.019.1.032.188.045.278-.052-.065-.1-.136-.155-.207a17.474,17.474,0,0,1-2.123,1.19c.169-1.313.356-2.5.524-3.487.149-.906.285-1.65.389-2.174s.162-.828.174-.88v-.006a2.514,2.514,0,0,1,.679.22,8.411,8.411,0,0,1,2.919,3.177A17.867,17.867,0,0,1,194.667,112.621Z" transform="translate(-169.259 -81.103)" fill="#407bff"/>
          <g id="Grupo_85043" data-name="Grupo 85043" transform="translate(0 26.151)">
            <path id="Trazado_105258" data-name="Trazado 105258" d="M182.321,112.856c-.052-.065-.1-.136-.155-.207a17.471,17.471,0,0,1-2.123,1.19,19.084,19.084,0,0,1-22.709-4.885c.331-.078.666-.149,1-.214l.1-.019.2-.039c.873-.168,1.766-.317,2.66-.446a.022.022,0,0,1,.019-.006c.389-.058.783-.11,1.171-.162.518-.071,1.036-.129,1.547-.188a.785.785,0,0,1,.123-.013c1.184-.136,2.367-.246,3.52-.33.381-.026.756-.052,1.125-.071h.007c.485-.032.963-.065,1.436-.091s.945-.045,1.4-.065l.564-.019c.563-.019,1.106-.032,1.623-.045,1.7-.039,3.2-.039,4.387-.026.278.006.543.006.789.013.446.006.828.019,1.139.032.634.013.983.032.983.032.078.285.155.582.227.886v.006c.329,1.326.634,2.8.919,4.387C182.295,112.675,182.308,112.765,182.321,112.856Z" transform="translate(-156.868 -107.211)" fill="#407bff"/>
            <path id="Trazado_105259" data-name="Trazado 105259" d="M182.066,112.855c-.052-.065-.1-.136-.155-.207a17.473,17.473,0,0,1-2.123,1.19,19.084,19.084,0,0,1-22.709-4.885l-.466.1c.149-.032.3-.071.46-.1.336-.071.672-.142,1.009-.207l.1-.019.2-.039c.873-.168,1.766-.317,2.66-.446a.022.022,0,0,1,.019-.006c.389-.058.783-.11,1.171-.162.518-.071,1.036-.129,1.547-.188a.784.784,0,0,1,.123-.013c1.184-.136,2.367-.246,3.52-.33l1.119-.078c.492-.032.97-.058,1.449-.084s.945-.045,1.4-.065l.564-.019c.556-.019,1.1-.039,1.617-.052,1.708-.032,3.2-.032,4.392-.026.285.006.543.006.789.013.44.006.816.019,1.126.026.64.019,1,.039,1,.039v.006c.078.285.155.582.227.886v.006c.329,1.326.634,2.8.919,4.387C182.041,112.674,182.053,112.764,182.066,112.855Z" transform="translate(-156.614 -107.21)" opacity="0.2" style="isolation: isolate"/>
          </g>
          <path id="Trazado_105260" data-name="Trazado 105260" d="M167.648,102.159c2.1,1.909,7.247,1.2,7.247,1.2s3.212-.879,2.537-1.883c-1.892-.313-2.808-1.2-3.186-2.326a5.5,5.5,0,0,1-.192-2.16,11.5,11.5,0,0,1,.159-1.207l-6.362-4.711C168.684,94.185,169.7,99.905,167.648,102.159Z" transform="translate(-160.509 -75.363)" fill="#ebb376"/>
          <path id="Trazado_105261" data-name="Trazado 105261" d="M170.234,95.7a5.393,5.393,0,0,0,4.925,5.083,5.5,5.5,0,0,1-.192-2.16Z" transform="translate(-161.422 -76.997)" opacity="0.2" style="isolation: isolate"/>
          <g id="Grupo_85045" data-name="Grupo 85045" transform="translate(4.601)">
            <path id="Trazado_105262" data-name="Trazado 105262" d="M184.253,76.756s.9,5.941-2.25,8.226-3.153-8.775-3.153-8.775Z" transform="translate(-169.065 -70.114)" fill="#263238"/>
            <path id="Trazado_105263" data-name="Trazado 105263" d="M168.889,89.139a5.392,5.392,0,0,0,6.192,2.09,6.086,6.086,0,0,0,3.712-3.362c1.552-3.631,2.046-9.982-1.793-12.362a5.849,5.849,0,0,0-8.928,4.4C167.6,84.154,167.123,86.627,168.889,89.139Z" transform="translate(-165.107 -69.55)" fill="#ebb376"/>
            <path id="Trazado_105264" data-name="Trazado 105264" d="M177.862,86c-.082.336.073.65.3.688s.452-.212.512-.553-.078-.652-.3-.688S177.923,85.658,177.862,86Z" transform="translate(-168.708 -73.377)" fill="#263238"/>
            <path id="Trazado_105265" data-name="Trazado 105265" d="M183.851,87.027c-.082.336.078.652.3.688s.452-.212.512-.552-.078-.652-.3-.689S183.907,86.7,183.851,87.027Z" transform="translate(-170.823 -73.738)" fill="#263238"/>
            <path id="Trazado_105266" data-name="Trazado 105266" d="M181.608,87.266a12.4,12.4,0,0,0,1.137,3.212,2.012,2.012,0,0,1-1.7.026Z" transform="translate(-169.84 -74.018)" fill="#d58745"/>
            <path id="Trazado_105267" data-name="Trazado 105267" d="M176.272,83.546a.213.213,0,0,0,.208-.045,1.646,1.646,0,0,1,1.4-.454.2.2,0,1,0,.1-.394h0a2.025,2.025,0,0,0-1.777.549.2.2,0,0,0-.017.287l0,0A.32.32,0,0,0,176.272,83.546Z" transform="translate(-168.107 -72.379)" fill="#263238"/>
            <path id="Trazado_105268" data-name="Trazado 105268" d="M186.1,84.825a.2.2,0,0,0,.117.028.2.2,0,0,0,.142-.249v0a2.024,2.024,0,0,0-1.256-1.379.2.2,0,0,0-.253.136h0a.209.209,0,0,0,.136.254h0a1.644,1.644,0,0,1,.978,1.107A.209.209,0,0,0,186.1,84.825Z" transform="translate(-171.181 -72.588)" fill="#263238"/>
            <path id="Trazado_105269" data-name="Trazado 105269" d="M171.325,75.5v1.9a1.4,1.4,0,0,0-.914,1.669,5.127,5.127,0,0,1-2.1,4.8s.046-.686-.549-.594-.868,3.656.046,5.484a11.13,11.13,0,0,1-2.011-5.576c-.465-3.55-.225-6.432.645-7.678Z" transform="translate(-164.374 -69.865)" fill="#263238"/>
            <path id="Trazado_105270" data-name="Trazado 105270" d="M164.51,86.317a4.064,4.064,0,0,0,1.95,2.418c1.255.674,2.193-.375,2.109-1.724-.087-1.2-.832-3.029-2.222-3.133A1.814,1.814,0,0,0,164.51,86.317Z" transform="translate(-163.973 -72.82)" fill="#ebb376"/>
            <path id="Trazado_105271" data-name="Trazado 105271" d="M170.677,74.322a1.948,1.948,0,0,0,2.428.327s1.354,1.128,2.458.327a2.5,2.5,0,0,0,1.595,1.145.864.864,0,0,0,.994-.9s1.566.9,2.144.479-.316-2.1-.316-2.1.736-.4.263-1.749-2.66-1.038-2.66-1.038a3.444,3.444,0,0,0-1.441-2.577,1.482,1.482,0,0,0-2.434.316s-1.478-2-3.308-1.735-1.621,1.525-1.621,1.525-2.1-1.315-3.05,0,0,1.945,0,1.945-2.1.707-2,2.142,1.184,1.224,1.184,1.224-.6.684.762,1.262,2.651-.841,2.651-.841a.933.933,0,0,0,.452,1.367C169.762,75.991,170.677,74.322,170.677,74.322Z" transform="translate(-163.726 -66.79)" fill="#263238"/>
            <g id="Grupo_85044" data-name="Grupo 85044" transform="translate(8.112 15.641)">
              <path id="Trazado_105272" data-name="Trazado 105272" d="M179.271,93.084a12.1,12.1,0,0,0-1.195,1.286c-.091-.05-.182-.1-.269-.153-1.213-.7-1.544-1.43-1.542-2.022a1.807,1.807,0,0,1,.223-.827,1.746,1.746,0,0,1,.279-.4,6.608,6.608,0,0,0,2.094,1.872C179.108,93,179.271,93.084,179.271,93.084Z" transform="translate(-176.264 -90.966)" fill="#263238"/>
              <path id="Trazado_105273" data-name="Trazado 105273" d="M178.982,92.838l-.362.37c-1.141-.664-1.855-1.286-2.012-1.84a1.746,1.746,0,0,1,.279-.4A6.608,6.608,0,0,0,178.982,92.838Z" transform="translate(-176.385 -90.966)" fill="#fff"/>
              <path id="Trazado_105274" data-name="Trazado 105274" d="M177.806,94.887c-1.213-.7-1.544-1.43-1.542-2.022a4.519,4.519,0,0,1,1.192,1.047A1.694,1.694,0,0,1,177.806,94.887Z" transform="translate(-176.264 -91.636)" fill="#de5753"/>
            </g>
          </g>
          <path id="Trazado_105275" data-name="Trazado 105275" d="M171.751,107.15s-7.422-5.043-9.784-5.325-1.942,2.662-1.942,2.662-1.823,0-1.122,2.244,10.781,3.481,14.506,2.372,5.937-3.2,5.321-5.169-2.339-.283-2.339-.283-1-1.857-2.444-1.422S171.751,107.15,171.751,107.15Z" transform="translate(-157.366 -79.151)" fill="#407bff"/>
          <path id="Trazado_105276" data-name="Trazado 105276" d="M198.4,105.923a18.589,18.589,0,0,1-2.27,2.471,17.869,17.869,0,0,1-2.452,1.889c.019.1.032.188.045.278-.052-.065-.1-.136-.155-.207-.492-.66-1.061-1.462-1.6-2.3a13.859,13.859,0,0,1-1.559-3.118v-.006a3.292,3.292,0,0,1-.155-.8l-.615-.854.2-.233,1.63-1.915.356-.414.7.912s.9-.323,3.779,2.154A21.129,21.129,0,0,1,198.4,105.923Z" transform="translate(-168.274 -78.766)" fill="#407bff"/>
        </g>
      </g>
      <g id="Grupo_85050" data-name="Grupo 85050" transform="translate(13.622 124.216)">
        <circle id="Elipse_4140" data-name="Elipse 4140" cx="18.671" cy="18.671" r="18.671" fill="#407bff"/>
        <path id="Trazado_105277" data-name="Trazado 105277" d="M103.626,268.826a17.885,17.885,0,0,1-4.05,11.368,18.091,18.091,0,0,1-2.556,2.569c-.3.246-.608.485-.932.712a17.525,17.525,0,0,1-2.795,1.65,17.963,17.963,0,0,1-16.757-.731,16.8,16.8,0,0,1-1.96-1.326h-.006a1.107,1.107,0,0,1-.1-.084,16,16,0,0,1-2.038-1.876,18.016,18.016,0,1,1,31.191-12.28Z" transform="translate(-66.933 -250.157)" fill="#fff" opacity="0.7"/>
        <g id="Grupo_85049" data-name="Grupo 85049" transform="translate(5.502 4.719)">
          <path id="Trazado_105278" data-name="Trazado 105278" d="M100.779,285.152c-.3.246-.608.485-.932.712a17.524,17.524,0,0,1-2.795,1.65,17.963,17.963,0,0,1-16.757-.731,16.8,16.8,0,0,1-1.96-1.326h-.006a1.108,1.108,0,0,1-.1-.084c.013-.045.019-.078.032-.123v-.006c.155-.582.3-1.19.44-1.825.194-.854.369-1.74.524-2.666a39.425,39.425,0,0,0,.543-7.621c-.317-9.543,1.417-13.043,5.318-14.913.175-.084.356-.175.55-.252a5.227,5.227,0,0,1,2.75-.343H88.4c3.338.453,6.237,3.565,6.237,3.565a21.967,21.967,0,0,1,1.527,2.581,43.023,43.023,0,0,1,4.484,16.459v.006A48.544,48.544,0,0,1,100.779,285.152Z" transform="translate(-76.194 -257.267)" fill="#263238"/>
          <path id="Trazado_105279" data-name="Trazado 105279" d="M99.532,291.873v-.006a5.394,5.394,0,0,0-1.883-.983s-3.8-.369-7.11-.343c-.362.013-.731.032-1.093.052-1.7.091-3.39.265-5.066.518-.492.071-.983.149-1.469.239a48.276,48.276,0,0,0-4.794,1.042c-.757.2-1.507.421-2.258.66a6.164,6.164,0,0,0-.776,2.083,16,16,0,0,0,2.038,1.876,1.119,1.119,0,0,0,.1.084h.006a16.8,16.8,0,0,0,1.96,1.326,17.963,17.963,0,0,0,16.757.731,17.522,17.522,0,0,0,2.795-1.65c.323-.226.634-.466.932-.712a18.092,18.092,0,0,0,2.556-2.569A24.75,24.75,0,0,0,99.532,291.873Z" transform="translate(-75.082 -268.904)" fill="#407bff"/>
          <path id="Trazado_105280" data-name="Trazado 105280" d="M99.532,291.873v-.006a5.394,5.394,0,0,0-1.883-.983s-3.8-.369-7.11-.343c-.362.013-.731.032-1.093.052-1.7.091-3.39.265-5.066.518-.492.071-.983.149-1.469.239a48.276,48.276,0,0,0-4.794,1.042c-.757.2-1.507.421-2.258.66a6.164,6.164,0,0,0-.776,2.083,16,16,0,0,0,2.038,1.876,1.119,1.119,0,0,0,.1.084h.006a16.8,16.8,0,0,0,1.96,1.326,17.963,17.963,0,0,0,16.757.731,17.522,17.522,0,0,0,2.795-1.65c.323-.226.634-.466.932-.712a18.092,18.092,0,0,0,2.556-2.569A24.75,24.75,0,0,0,99.532,291.873Z" transform="translate(-75.082 -268.904)" fill="#fff" opacity="0.2" style="isolation: isolate"/>
          <path id="Trazado_105281" data-name="Trazado 105281" d="M93.837,291.339c-4.19-.538-5.45-2.329-5.45-2.329,1.713-1.613,1.4-4,.964-5.481a8.483,8.483,0,0,0-.516-1.37l5.044.943a14.479,14.479,0,0,0-.2,2.124,6.386,6.386,0,0,0,.142,1.56c.343,1.508,1.2,1.528,1.2,1.528C95.913,289.968,93.837,291.339,93.837,291.339Z" transform="translate(-79.779 -265.946)" fill="#eec1bb"/>
          <path id="Trazado_105282" data-name="Trazado 105282" d="M93.928,285.225a6.387,6.387,0,0,0,.142,1.56c-2-.263-3.52-1.866-4.475-3.257a8.484,8.484,0,0,0-.516-1.37l5.044.943A14.48,14.48,0,0,0,93.928,285.225Z" transform="translate(-80.023 -265.946)" opacity="0.2" style="isolation: isolate"/>
          <g id="Grupo_85048" data-name="Grupo 85048" transform="translate(4.664)">
            <path id="Trazado_105283" data-name="Trazado 105283" d="M92.061,262.03c4.385.162,5.71,2.563,5.864,7.095.192,5.663-1.209,9.63-6.648,8.22C83.89,275.43,84.778,261.759,92.061,262.03Z" transform="translate(-83.653 -258.839)" fill="#eec1bb"/>
            <path id="Trazado_105284" data-name="Trazado 105284" d="M99.982,272.456a9.29,9.29,0,0,0,1.209,1.867,1.206,1.206,0,0,1-1.174.453Z" transform="translate(-88.536 -262.521)" fill="#d4827d"/>
            <path id="Trazado_105285" data-name="Trazado 105285" d="M92.856,267.748a.226.226,0,0,1-.151-.056.229.229,0,0,1-.021-.323,2.5,2.5,0,0,1,2.137-.667.229.229,0,0,1-.076.452,2.072,2.072,0,0,0-1.717.518A.228.228,0,0,1,92.856,267.748Z" transform="translate(-85.94 -260.479)" fill="#263238"/>
            <path id="Trazado_105286" data-name="Trazado 105286" d="M102.507,267.464a.23.23,0,0,1-.134-.044,1.829,1.829,0,0,0-1.531-.393.229.229,0,0,1-.142-.435,2.259,2.259,0,0,1,1.94.457.23.23,0,0,1-.134.415Z" transform="translate(-88.734 -260.43)" fill="#263238"/>
            <g id="Grupo_85047" data-name="Grupo 85047" transform="translate(7.813 13.028)">
              <path id="Trazado_105287" data-name="Trazado 105287" d="M97.331,278.165a11.063,11.063,0,0,0-.569,1.5c-.094-.011-.188-.021-.281-.037-1.272-.177-1.8-.679-2.008-1.181a1.654,1.654,0,0,1-.1-.778,1.611,1.611,0,0,1,.1-.437,6.048,6.048,0,0,0,2.424.862C97.162,278.147,97.331,278.165,97.331,278.165Z" transform="translate(-94.366 -277.236)" fill="#263238"/>
              <path id="Trazado_105288" data-name="Trazado 105288" d="M96.9,278.1l-.179.439a3.818,3.818,0,0,1-2.343-.864,1.612,1.612,0,0,1,.1-.437A6.048,6.048,0,0,0,96.9,278.1Z" transform="translate(-94.371 -277.236)" fill="#fff"/>
              <path id="Trazado_105289" data-name="Trazado 105289" d="M96.54,280.3c-1.272-.177-1.8-.679-2.008-1.181a4.146,4.146,0,0,1,1.374.476A1.554,1.554,0,0,1,96.54,280.3Z" transform="translate(-94.425 -277.899)" fill="#de5753"/>
            </g>
            <path id="Trazado_105290" data-name="Trazado 105290" d="M86.38,268.282s2.184-3.528,1.977-6.321c0,0,8.823-3.228,8.925,5.609,0,0,1.14-7.8-6.394-8.256s-7.91,10.577-4.138,14.008C86.75,273.322,85.027,270.489,86.38,268.282Z" transform="translate(-83.039 -257.877)" fill="#263238"/>
            <path id="Trazado_105291" data-name="Trazado 105291" d="M86.783,273.65a1.926,1.926,0,0,0-2.006-1.835c-1.365.1-2.116,2.864,1.24,3.661C86.5,275.59,86.79,275.126,86.783,273.65Z" transform="translate(-82.761 -262.293)" fill="#eec1bb"/>
            <path id="Trazado_105292" data-name="Trazado 105292" d="M88.235,257.392c2.372-.659,8.7-.747,10.189,5.8l-.878.439a14.018,14.018,0,0,0-4.744-1.405,10.83,10.83,0,0,0-1.229-1.757,9.832,9.832,0,0,1,0,1.669s-4.126.6-5.973,2.284c-2.9,2.635-3.074,4.3-3.074,4.3S80.516,259.536,88.235,257.392Z" transform="translate(-82.291 -257.1)" fill="#263238"/>
            <path id="Trazado_105293" data-name="Trazado 105293" d="M102.006,263.181a.158.158,0,0,1-.15-.108,7.648,7.648,0,0,0-3.815-4.712c-3.252-1.6-7.1-.3-7.138-.283a.156.156,0,0,1-.2-.1.158.158,0,0,1,.1-.2c.04-.014,4.013-1.36,7.381.3a7.954,7.954,0,0,1,3.976,4.9.158.158,0,0,1-.1.2A.152.152,0,0,1,102.006,263.181Z" transform="translate(-85.257 -257.153)" fill="#263238"/>
            <path id="Trazado_105294" data-name="Trazado 105294" d="M93.991,271.585s1.027-.873,1.513.3A3.066,3.066,0,0,0,93.991,271.585Z" transform="translate(-86.421 -262.103)" fill="#263238"/>
            <path id="Trazado_105295" data-name="Trazado 105295" d="M101.531,272.4s.569-1.189,1.324-.347A2.947,2.947,0,0,0,101.531,272.4Z" transform="translate(-89.083 -262.273)" fill="#263238"/>
          </g>
        </g>
      </g>
      <g id="Grupo_85054" data-name="Grupo 85054" transform="translate(179.706 142.239)">
        <circle id="Elipse_4141" data-name="Elipse 4141" cx="23.139" cy="23.139" r="23.139" transform="translate(0 32.723) rotate(-45)" fill="#407bff"/>
        <path id="Trazado_105296" data-name="Trazado 105296" d="M384.078,315.964a22.281,22.281,0,0,1-2.4,10.1c-.3.608-.641,1.2-1,1.773-.278.446-.569.886-.886,1.313a22.512,22.512,0,0,1-4.691,4.781c-.408.311-.828.6-1.262.886a22.455,22.455,0,0,1-21.551,1.63c-.362-.168-.725-.343-1.08-.524v-.006a22.758,22.758,0,0,1-9.414-9.258c-.3-.556-.576-1.132-.828-1.715h-.007a22.492,22.492,0,1,1,43.115-8.98Z" transform="translate(-328.864 -283.244)" fill="#fff" opacity="0.7"/>
        <g id="_Group_2" data-name="&lt;Group&gt;" transform="translate(12.106 14.139)">
          <path id="Trazado_105297" data-name="Trazado 105297" d="M351.839,322.95a11.684,11.684,0,0,1-1.391,1.682l-1.941,9.181-1.268,5.991a22.637,22.637,0,0,1-3.966-5.273c.155-.485.323-.99.485-1.5,1.372-4.257,2.95-9.187,3.067-9.672.207-.867-.55-5.118-.375-5.9s4.057-1.7,4.9-1.682S352.124,322.4,351.839,322.95Z" transform="translate(-342.445 -305.256)" fill="#9f5b53"/>
          <path id="Trazado_105298" data-name="Trazado 105298" d="M354.422,342.361a.113.113,0,0,1-.006.032l-.815,8.366-.285,2.86c-.362-.168-.725-.343-1.08-.524v-.006a22.759,22.759,0,0,1-9.414-9.258c-.3-.556-.576-1.132-.828-1.715l1.313.214,4.749.783,1.022.168-1.2,5.8S352.235,343.021,354.422,342.361Z" transform="translate(-341.993 -314.554)" fill="#407bff"/>
          <path id="Trazado_105299" data-name="Trazado 105299" d="M354.422,342.361a.113.113,0,0,1-.006.032l-.815,8.366-.285,2.86c-.362-.168-.725-.343-1.08-.524v-.006a22.759,22.759,0,0,1-9.414-9.258c-.3-.556-.576-1.132-.828-1.715l1.313.214,4.749.783,1.022.168-1.2,5.8S352.235,343.021,354.422,342.361Z" transform="translate(-341.993 -314.554)" opacity="0.3"/>
          <g id="Grupo_85051" data-name="Grupo 85051" transform="translate(10.242 26.07)">
            <path id="Trazado_105300" data-name="Trazado 105300" d="M388.29,342.421c-.3.608-.641,1.2-1,1.773-.278.446-.569.886-.886,1.313a22.509,22.509,0,0,1-4.691,4.781c-.408.311-.828.6-1.262.886A22.455,22.455,0,0,1,358.9,352.8c-.362-.168-.725-.343-1.08-.524v-.006A73.913,73.913,0,0,1,360,341.58a.114.114,0,0,0,.006-.032,46.726,46.726,0,0,1,7.117-1.449c.039,0,.071-.006.11-.006h.007a90.1,90.1,0,0,1,10.41-.22h.032a49.454,49.454,0,0,1,7.175.712A19.683,19.683,0,0,1,388.29,342.421Z" transform="translate(-357.823 -339.811)" fill="#407bff"/>
            <path id="Trazado_105301" data-name="Trazado 105301" d="M388.29,342.421c-.3.608-.641,1.2-1,1.773-.278.446-.569.886-.886,1.313a22.509,22.509,0,0,1-4.691,4.781c-.408.311-.828.6-1.262.886A22.455,22.455,0,0,1,358.9,352.8c-.362-.168-.725-.343-1.08-.524v-.006A73.913,73.913,0,0,1,360,341.58a.114.114,0,0,0,.006-.032,46.726,46.726,0,0,1,7.117-1.449c.039,0,.071-.006.11-.006h.007a90.1,90.1,0,0,1,10.41-.22h.032a49.454,49.454,0,0,1,7.175.712A19.683,19.683,0,0,1,388.29,342.421Z" transform="translate(-357.823 -339.811)" opacity="0.3"/>
            <path id="Trazado_105302" data-name="Trazado 105302" d="M381.716,351.536c-.408.311-.828.6-1.262.886a22.455,22.455,0,0,1-21.551,1.63c-.362-.168-.725-.343-1.08-.524v-.006c.032-.188.058-.375.084-.556a20.9,20.9,0,0,1,1.281-1.773,60.373,60.373,0,0,1,7.227-7.382,4.114,4.114,0,0,0,2.517,1.307c2.122.414,4.548-.576,6.56-1.773a49.292,49.292,0,0,1,3.526,3.888,20.527,20.527,0,0,1,2.387,3.584Q381.58,351.186,381.716,351.536Z" transform="translate(-357.823 -341.058)" fill="#fff" opacity="0.8"/>
          </g>
          <path id="Trazado_105303" data-name="Trazado 105303" d="M382.633,333.477a10.912,10.912,0,0,1-7.661,3.476c-4.357.192-2.9-3.251-2.9-3.251a4.167,4.167,0,0,0,2.933-2.079,6.073,6.073,0,0,0,.04-4.046l-.08-.3,6.363-5.668C380.739,325.022,380.21,331.259,382.633,333.477Z" transform="translate(-352.529 -307.316)" fill="#9f5b53"/>
          <path id="Trazado_105304" data-name="Trazado 105304" d="M382.01,327.662c-.338,2.186-2.993,4.337-5.277,5.013a6.072,6.072,0,0,0,.04-4.046l5.27-4.039A8.256,8.256,0,0,1,382.01,327.662Z" transform="translate(-354.257 -308.368)" opacity="0.2" style="isolation: isolate"/>
          <g id="Grupo_85053" data-name="Grupo 85053" transform="translate(16.644)">
            <path id="Trazado_105305" data-name="Trazado 105305" d="M375.6,309.127c1.511,1.7.142,3.593-4.828,5.826-1.122-2.605-.322-6.9,1.283-7.625S374.278,307.647,375.6,309.127Z" transform="translate(-368.61 -302.191)" fill="#263238"/>
            <path id="Trazado_105306" data-name="Trazado 105306" d="M381.692,314.13c-1.337,4.414-1.9,7.061-4.7,8.826-4.22,2.65-9.263-.71-9.273-5.437,0-4.244,2.182-10.753,6.986-11.492a6.29,6.29,0,0,1,6.988,8.1Z" transform="translate(-367.718 -301.787)" fill="#9f5b53"/>
            <path id="Trazado_105307" data-name="Trazado 105307" d="M378.045,317.62c-.087.364-.351.614-.589.556s-.358-.395-.272-.759.346-.614.584-.562S378.105,317.255,378.045,317.62Z" transform="translate(-371.05 -305.635)" fill="#263238"/>
            <path id="Trazado_105308" data-name="Trazado 105308" d="M371.635,316.109c-.087.364-.351.614-.589.556s-.364-.395-.278-.764.352-.614.589-.556S371.722,315.745,371.635,316.109Z" transform="translate(-368.785 -305.101)" fill="#263238"/>
            <path id="Trazado_105309" data-name="Trazado 105309" d="M372.8,317.292A13.4,13.4,0,0,1,370.313,320a2.165,2.165,0,0,0,1.667.738Z" transform="translate(-368.634 -305.791)" fill="#892b29"/>
            <path id="Trazado_105310" data-name="Trazado 105310" d="M379.924,315.569a.217.217,0,0,0,.143,0,.223.223,0,0,0,.117-.29,2.174,2.174,0,0,0-1.534-1.3.211.211,0,0,0-.25.165l0,.016a.228.228,0,0,0,.18.253h0a1.733,1.733,0,0,1,1.2,1.036A.228.228,0,0,0,379.924,315.569Z" transform="translate(-371.487 -304.622)" fill="#263238"/>
            <path id="Trazado_105311" data-name="Trazado 105311" d="M369.629,313.026a.228.228,0,0,0,.224-.076,1.75,1.75,0,0,1,1.435-.683.221.221,0,0,0,.051-.439,2.193,2.193,0,0,0-1.825.845.217.217,0,0,0,.029.306l0,0A.252.252,0,0,0,369.629,313.026Z" transform="translate(-368.334 -303.862)" fill="#263238"/>
            <path id="Trazado_105312" data-name="Trazado 105312" d="M387,311.715c-2.264.221-2.543,2.539-.411,7.551,2.6-1.148,4.931-4.848,4.236-6.463S388.974,311.525,387,311.715Z" transform="translate(-373.866 -303.764)" fill="#263238"/>
            <path id="Trazado_105313" data-name="Trazado 105313" d="M388.823,323.26a4.387,4.387,0,0,1-2.634,2.07c-1.482.4-2.209-.928-1.79-2.321.38-1.255,1.612-2.977,3.093-2.762A1.954,1.954,0,0,1,388.823,323.26Z" transform="translate(-373.565 -306.828)" fill="#9f5b53"/>
            <path id="Trazado_105314" data-name="Trazado 105314" d="M376.728,305.6s-.474,4.641,3.758,6.023,5.838-1.042,5.838-1.042a8.235,8.235,0,0,1-1.082-.182,4.621,4.621,0,0,0,1.09-4.269c-.723-2.42-4.457-5.7-7.929-5.387a7.818,7.818,0,0,0-6.176-.954c-3.427.972-3.861,4.882-3.861,4.882s.453-2.327,2.007-2.613c0,0-2.926,4.282-.665,6.2C369.707,308.259,371.148,303.679,376.728,305.6Z" transform="translate(-367.946 -299.516)" fill="#263238"/>
            <g id="Grupo_85052" data-name="Grupo 85052" transform="translate(2.552 15.157)">
              <path id="Trazado_105315" data-name="Trazado 105315" d="M371.662,324.41a12.424,12.424,0,0,1,.859,1.578c.1-.027.205-.052.306-.084,1.381-.39,1.892-1.027,2.041-1.616a1.853,1.853,0,0,0-.012-.876,1.77,1.77,0,0,0-.176-.469,6.769,6.769,0,0,1-2.55,1.326C371.846,324.364,371.662,324.41,371.662,324.41Z" transform="translate(-371.662 -322.943)" fill="#263238"/>
              <path id="Trazado_105316" data-name="Trazado 105316" d="M372.386,324.269l.266.459a4.264,4.264,0,0,0,2.461-1.316,1.77,1.77,0,0,0-.176-.469A6.769,6.769,0,0,1,372.386,324.269Z" transform="translate(-371.918 -322.943)" fill="#fff"/>
              <path id="Trazado_105317" data-name="Trazado 105317" d="M373.463,326.638c1.381-.39,1.892-1.027,2.041-1.616a4.6,4.6,0,0,0-1.447.737A1.734,1.734,0,0,0,373.463,326.638Z" transform="translate(-372.298 -323.677)" fill="#de5753"/>
            </g>
          </g>
        </g>
      </g>
    </g>
    <g id="Speech_bubble" data-name="Speech bubble" transform="translate(162.107 104.975)">
      <g id="Grupo_85055" data-name="Grupo 85055" transform="translate(0)">
        <rect id="Rectángulo_33820" data-name="Rectángulo 33820" width="13.651" height="13.651" rx="3.692" transform="matrix(0.999, 0.048, -0.048, 0.999, 0.652, 0)" fill="#407bff"/>
        <path id="Trazado_105318" data-name="Trazado 105318" d="M263.227,144.505c-.888-1.61-2.757-1.1-3.765.072-.893-1.26-2.7-1.949-3.742-.432-1.749,2.559,1.48,5.162,3.014,6.194.173.118.318.216.437.293.127-.065.28-.148.464-.25C261.261,149.5,264.724,147.219,263.227,144.505Z" transform="translate(-252.202 -139.865)" fill="#fff" opacity="0.6" style="isolation: isolate"/>
        <path id="Trazado_105319" data-name="Trazado 105319" d="M260.136,157.867s-1.986,4-6.052,5.092c0,0,2.277-1.172,2.31-5.441Z" transform="translate(-251.803 -144.892)" fill="#407bff"/>
      </g>
    </g>
    <g id="Character" transform="translate(121.06 118.79)">
      <g id="Grupo_85065" data-name="Grupo 85065">
        <path id="Trazado_105320" data-name="Trazado 105320" d="M279.506,214.9s5.136-5.139,6.791-8.8c0,0-.625-2.046-.039-3.1s4.008-4.1,4.921-3.454,2.235,3.194,1.689,4.264-3.9,3.257-3.9,3.257-4.158,8.34-6.734,10.222S279.506,214.9,279.506,214.9Z" transform="translate(-219.729 -173.51)" fill="#ebb376"/>
        <path id="Trazado_105321" data-name="Trazado 105321" d="M259.132,199.453c2.992.389,6.405,14.893,8.794,16.258s8.588-6.652,8.588-6.652l2.844,3.245s-8.19,11.412-11.432,10.4-9.339-12.278-9.339-12.278Z" transform="translate(-212.345 -173.51)" fill="#263238"/>
        <path id="Trazado_105322" data-name="Trazado 105322" d="M259.132,199.453c2.992.389,6.405,14.893,8.794,16.258s8.588-6.652,8.588-6.652l2.844,3.245s-8.19,11.412-11.432,10.4-9.339-12.278-9.339-12.278Z" transform="translate(-212.345 -173.51)" fill="#fff" opacity="0.05" style="isolation: isolate"/>
        <path id="Trazado_105323" data-name="Trazado 105323" d="M283.666,400.151l-3.93.694-1.612-5.358-1.47-4.918,4.531-1.583L282.5,394.9Z" transform="translate(-218.723 -240.418)" fill="#ebb376"/>
        <path id="Trazado_105324" data-name="Trazado 105324" d="M280.048,406.591c-.067-.435,5.316-1.035,5.316-1.035s3.863,2.752,7.176,2.939,1.872,2.409-1.683,3.037l-8.8,1.553C279.537,413.531,280.735,411.1,280.048,406.591Z" transform="translate(-219.92 -246.267)" fill="#263238"/>
        <g id="Grupo_85056" data-name="Grupo 85056" transform="translate(66.055 157.769)">
          <path id="Trazado_105325" data-name="Trazado 105325" d="M291.244,405.626a8.36,8.36,0,0,1-1.929-.316.13.13,0,0,1-.047-.023h0a.139.139,0,0,1-.036-.039h0a.126.126,0,0,1-.015-.034h0a.151.151,0,0,1,0-.063c.01-.061.239-1.379.906-1.806a.833.833,0,0,1,.692-.1c.263.072.407.2.429.386.033.283-.3.63-.689.938a2.229,2.229,0,0,1,1.217-.081.582.582,0,0,1,.348.31.52.52,0,0,1-.028.591A1.133,1.133,0,0,1,291.244,405.626Zm-1.458-.491c.844.194,1.87.315,2.085.064.019-.022.076-.088-.014-.287a.3.3,0,0,0-.186-.159A3.528,3.528,0,0,0,289.786,405.134Zm.785-1.643a.546.546,0,0,0-.3.092,2.379,2.379,0,0,0-.712,1.306c.736-.439,1.424-.987,1.4-1.229-.009-.076-.142-.123-.221-.144A.614.614,0,0,0,290.571,403.492Z" transform="translate(-289.21 -403.207)" fill="#407bff"/>
        </g>
        <path id="Trazado_105326" data-name="Trazado 105326" d="M282.528,395.033l-4.379.576-1.48-4.972,4.526-1.61Z" transform="translate(-218.728 -240.433)" opacity="0.2" style="isolation: isolate"/>
        <path id="Trazado_105327" data-name="Trazado 105327" d="M244.083,402.612h-3.99l-.655-5.557-.593-5.1,4.737-.771.268,6.049Z" transform="translate(-205.375 -241.195)" fill="#ebb376"/>
        <path id="Trazado_105328" data-name="Trazado 105328" d="M239.129,408.329c.01-.44,5.416-.1,5.416-.1s3.325,3.382,6.555,4.142,1.425,2.7-2.185,2.7h-8.931C237.419,415.074,239.022,412.889,239.129,408.329Z" transform="translate(-205.267 -247.167)" fill="#263238"/>
        <g id="Grupo_85057" data-name="Grupo 85057" transform="translate(39.801 159.9)">
          <path id="Trazado_105329" data-name="Trazado 105329" d="M250.952,409.051a6.78,6.78,0,0,1-2.24-.685.128.128,0,0,1-.048-.037h0a.177.177,0,0,1-.019-.03.145.145,0,0,1-.006-.109c.019-.054.473-1.315,1.206-1.621a.834.834,0,0,1,.7.019c.247.117.366.27.355.455-.016.284-.4.569-.84.8a2.2,2.2,0,0,1,1.212.133.577.577,0,0,1,.289.366.519.519,0,0,1-.131.576A.748.748,0,0,1,250.952,409.051Zm-1.746-.776c.8.337,1.787.636,2.042.426.022-.018.089-.074.036-.285a.3.3,0,0,0-.155-.189A3.535,3.535,0,0,0,249.206,408.275Zm.967-1.489a.559.559,0,0,0-.219.047,2.374,2.374,0,0,0-.928,1.162c.8-.3,1.574-.725,1.588-.968,0-.076-.119-.146-.193-.181A.57.57,0,0,0,250.173,406.787Z" transform="translate(-248.631 -406.502)" fill="#407bff"/>
        </g>
        <path id="Trazado_105330" data-name="Trazado 105330" d="M243.85,397.373l-4.412-.194-.593-5.153,4.737-.8Z" transform="translate(-205.375 -241.209)" opacity="0.2" style="isolation: isolate"/>
        <g id="Grupo_85058" data-name="Grupo 85058" transform="translate(24.281 56.396)">
          <path id="Trazado_105331" data-name="Trazado 105331" d="M264.532,341.608l-6.46,1.139c-6.519-16.242-11.156-29.8-14.431-41.051-1.764-6.071-3.139-11.469-4.194-16.259l.3,17.681v40.166h-6.56c-15.959-76.107-4.649-93.5-4.649-93.5l19.092-3.263a86.467,86.467,0,0,1,1.6,10.684l.861,6.313,7.463,38.538Z" transform="translate(-224.643 -246.522)" fill="#407bff"/>
        </g>
        <path id="Trazado_105332" data-name="Trazado 105332" d="M274.746,392.567l8.013-2.657-.108,3.408-6.627,2.114Z" transform="translate(-218.049 -240.744)" fill="#407bff"/>
        <path id="Trazado_105333" data-name="Trazado 105333" d="M236.515,393.922l8.353-1.223-.7,3.338-6.894.929Z" transform="translate(-204.553 -241.729)" fill="#407bff"/>
        <path id="Trazado_105334" data-name="Trazado 105334" d="M254.886,183.178a.159.159,0,0,1-.083-.024c-2.435-1.471-4.607-6.874-4.7-7.1a.162.162,0,0,1,.3-.119c.022.055,2.223,5.531,4.566,6.947a.162.162,0,0,1-.084.3Z" transform="translate(-209.346 -165.171)" fill="#263238"/>
        <path id="Trazado_105335" data-name="Trazado 105335" d="M225.1,163.168s.95-3.228,7.288-3.779,9.494,5.7,8,10.337c0,0,1.333,6.32,3.891,8.173,0,0-12.2,5.514-18.358,5.544-1.371.007-4.3-6.8-4.678-11.7C220.877,167.018,222.3,163.319,225.1,163.168Z" transform="translate(-199.141 -159.355)" fill="#263238"/>
        <path id="Trazado_105336" data-name="Trazado 105336" d="M230.653,246.057v2.85l19.469-1.493v-3.371Z" transform="translate(-202.484 -189.251)" fill="#263238"/>
        <path id="Trazado_105337" data-name="Trazado 105337" d="M230.653,246.057v2.85l19.469-1.493v-3.371Z" transform="translate(-202.484 -189.251)" fill="#fff" opacity="0.3" style="isolation: isolate"/>
        <rect id="Rectángulo_33821" data-name="Rectángulo 33821" width="4.274" height="3.241" transform="translate(38.88 55.868) rotate(-5.118)" fill="#fff"/>
        <g id="Grupo_85059" data-name="Grupo 85059" transform="translate(33.739 55.607)">
          <rect id="Rectángulo_33822" data-name="Rectángulo 33822" width="0.967" height="4.925" transform="translate(0 0.049) rotate(-2.927)" fill="#407bff"/>
        </g>
        <g id="Grupo_85060" data-name="Grupo 85060" transform="translate(45.634 54.301)">
          <rect id="Rectángulo_33823" data-name="Rectángulo 33823" width="0.967" height="4.925" transform="translate(0 0.049) rotate(-2.919)" fill="#407bff"/>
        </g>
        <path id="Trazado_105338" data-name="Trazado 105338" d="M246.154,228.429l-19.474,1.682c-.188-2.944-.375-5.467-.822-8.294-.285-1.812-.679-3.753-1.249-6.01-.44-1.766-.99-3.733-1.689-5.985-.032-.123-.071-.246-.11-.369-.4-1.288-3.254-.3-3.513-1.85-1.126-6.884,6.3-7.389,9.038-7.841a61.985,61.985,0,0,1,8.747-.919c3.785-.032,8.139.395,8.139.395s.621.149,1.009,4.167C246.587,207.169,246.936,214.713,246.154,228.429Z" transform="translate(-198.434 -173.294)" fill="#263238"/>
        <path id="Trazado_105339" data-name="Trazado 105339" d="M240.958,199.748c-4.8-.614-6.241-2.664-6.241-2.664,3.045-2.873.515-7.851.515-7.851l5.777,1.078a16.923,16.923,0,0,0-.226,2.432c-.044,3.506,1.542,3.54,1.542,3.54C243.339,198.183,240.958,199.748,240.958,199.748Z" transform="translate(-203.918 -169.902)" fill="#ebb376"/>
        <path id="Trazado_105340" data-name="Trazado 105340" d="M241.29,190.311a16.923,16.923,0,0,0-.226,2.432,6.428,6.428,0,0,1-5.551-3.511Z" transform="translate(-204.199 -169.902)" opacity="0.2" style="isolation: isolate"/>
        <g id="Grupo_85063" data-name="Grupo 85063" transform="translate(26.141 2.246)">
          <path id="Trazado_105341" data-name="Trazado 105341" d="M235,165.759c4.9-1.111,7.079,1.157,8.583,6.13,1.879,6.215,1.5,11.02-4.943,11.06C229.9,183,226.855,167.6,235,165.759Z" transform="translate(-228.48 -163.764)" fill="#ebb376"/>
          <path id="Trazado_105342" data-name="Trazado 105342" d="M245.865,176.072a10.63,10.63,0,0,0,1.888,1.711,1.382,1.382,0,0,1-1.167.848Z" transform="translate(-233.994 -167.502)" fill="#d58745"/>
          <g id="Grupo_85061" data-name="Grupo 85061" transform="translate(7.777 7.73)">
            <path id="Trazado_105343" data-name="Trazado 105343" d="M240.538,176.168c.1.4-.034.78-.3.847s-.565-.2-.666-.6.034-.78.3-.847S240.438,175.767,240.538,176.168Z" transform="translate(-239.537 -175.05)" fill="#263238"/>
            <path id="Trazado_105344" data-name="Trazado 105344" d="M239.89,175.336l.786-.561S240.426,175.617,239.89,175.336Z" transform="translate(-239.662 -174.775)" fill="#263238"/>
          </g>
          <g id="Grupo_85062" data-name="Grupo 85062" transform="translate(12.738 6.396)">
            <path id="Trazado_105345" data-name="Trazado 105345" d="M248.207,174.1c.1.4-.034.78-.3.848s-.565-.2-.666-.6.034-.78.3-.847S248.106,173.7,248.207,174.1Z" transform="translate(-247.206 -172.987)" fill="#263238"/>
            <path id="Trazado_105346" data-name="Trazado 105346" d="M247.558,173.273l.786-.561S248.094,173.554,247.558,173.273Z" transform="translate(-247.33 -172.712)" fill="#263238"/>
          </g>
          <path id="Trazado_105347" data-name="Trazado 105347" d="M236.666,172.615a.234.234,0,0,1-.21-.338,2.828,2.828,0,0,1,2.147-1.353.234.234,0,0,1,.044.466,2.4,2.4,0,0,0-1.771,1.094A.234.234,0,0,1,236.666,172.615Z" transform="translate(-230.665 -165.684)" fill="#263238"/>
          <path id="Trazado_105348" data-name="Trazado 105348" d="M245.134,169.69a.234.234,0,0,1-.129-.43,2.571,2.571,0,0,1,2.257-.062.234.234,0,0,1-.167.438,2.116,2.116,0,0,0-1.836.017A.235.235,0,0,1,245.134,169.69Z" transform="translate(-233.653 -164.999)" fill="#263238"/>
          <path id="Trazado_105349" data-name="Trazado 105349" d="M244.669,183.156a12.743,12.743,0,0,0-.186,1.833c-.107.016-.215.032-.323.043-1.46.179-2.2-.221-2.57-.718a1.9,1.9,0,0,1-.336-.833,1.839,1.839,0,0,1-.021-.514,6.946,6.946,0,0,0,2.938.242C244.477,183.186,244.669,183.156,244.669,183.156Z" transform="translate(-232.356 -169.937)" fill="#263238"/>
          <path id="Trazado_105350" data-name="Trazado 105350" d="M244.17,183.21l-.069.539a4.377,4.377,0,0,1-2.848-.267,1.839,1.839,0,0,1-.021-.514A6.946,6.946,0,0,0,244.17,183.21Z" transform="translate(-232.356 -169.937)" fill="#fff"/>
          <path id="Trazado_105351" data-name="Trazado 105351" d="M244.359,185.754c-1.46.179-2.2-.221-2.57-.718a4.731,4.731,0,0,1,1.661.122A1.773,1.773,0,0,1,244.359,185.754Z" transform="translate(-232.556 -170.659)" fill="#de5753"/>
          <path id="Trazado_105352" data-name="Trazado 105352" d="M230.55,174.3s1.381-4.55.329-7.582c0,0,8.82-6.172,11.534,3.585,0,0-1.035-8.976-9.511-7.261s-5.646,14.042-.459,16.731C232.444,179.775,229.7,177.144,230.55,174.3Z" transform="translate(-227.518 -162.826)" fill="#263238"/>
          <path id="Trazado_105353" data-name="Trazado 105353" d="M231.8,181.032a2.208,2.208,0,0,0-2.762-1.441c-1.482.51-1.5,3.795,2.451,3.688C232.054,183.264,232.239,182.664,231.8,181.032Z" transform="translate(-227.73 -168.703)" fill="#ebb376"/>
        </g>
        <path id="Trazado_105354" data-name="Trazado 105354" d="M232.516,167.9s5.083-1.87,7.944-.461c0,0-3.084-2.768-8.305-.162Z" transform="translate(-203.014 -161.756)" fill="#263238"/>
        <path id="Trazado_105355" data-name="Trazado 105355" d="M227.84,200.983s5.635,4.572,10.881,4.5,7.09-5.974,7.09-5.974A29.9,29.9,0,0,0,227.84,200.983Z" transform="translate(-201.491 -173.269)" fill="#ebb376"/>
        <path id="Trazado_105356" data-name="Trazado 105356" d="M251.717,313.678c-1.764-6.071-3.139-11.469-4.194-16.259a149.756,149.756,0,0,1,1.233-16.956S251.552,302.333,251.717,313.678Z" transform="translate(-208.439 -202.108)" opacity="0.2" style="isolation: isolate"/>
        <path id="Trazado_105357" data-name="Trazado 105357" d="M197.7,208.241s-3.861-6.155-4.658-10.091c0,0,1.066-1.856.73-3.018s-2.992-4.889-4.026-4.464-2.891,2.615-2.6,3.779,3.076,4.045,3.076,4.045,2.193,9.058,4.284,11.467S197.7,208.241,197.7,208.241Z" transform="translate(-187.114 -170.397)" fill="#ebb376"/>
        <path id="Trazado_105358" data-name="Trazado 105358" d="M210.006,206.573c1.964-.272,5.924,3.559,5.321,6.873s-6.151,12.628-10.433,11.9c-6.049-1.024-12.7-16.97-12.7-16.97l3.32-2.893s7.832,13.569,9.376,13.3S210.006,206.573,210.006,206.573Z" transform="translate(-188.909 -175.64)" fill="#263238"/>
        <path id="Trazado_105359" data-name="Trazado 105359" d="M210.006,206.573c1.964-.272,5.924,3.559,5.321,6.873s-6.151,12.628-10.433,11.9c-6.049-1.024-12.7-16.97-12.7-16.97l3.32-2.893s7.832,13.569,9.376,13.3S210.006,206.573,210.006,206.573Z" transform="translate(-188.909 -175.64)" fill="#fff" opacity="0.05" style="isolation: isolate"/>
        <path id="Trazado_105360" data-name="Trazado 105360" d="M190.1,206.865l4.845-2.908.768,1.254-4.572,4.046Z" transform="translate(-188.169 -175.1)" fill="#263238"/>
        <path id="Trazado_105361" data-name="Trazado 105361" d="M284.626,213.746l3.925,4.856.683-1.524-3.527-4.1Z" transform="translate(-221.537 -178.285)" fill="#263238"/>
        <g id="Grupo_85064" data-name="Grupo 85064" transform="translate(64.668 20.819)">
          <path id="Trazado_105362" data-name="Trazado 105362" d="M287.586,199.771l6.2-7.554a.585.585,0,0,1,.853-.054l2.765,2.61a.584.584,0,0,1,.052.794l-6.3,7.728a.584.584,0,0,1-.875.036l-2.669-2.784A.584.584,0,0,1,287.586,199.771Z" transform="translate(-287.203 -191.7)" fill="#407bff"/>
          <path id="Trazado_105363" data-name="Trazado 105363" d="M287.586,199.771l6.2-7.554a.585.585,0,0,1,.853-.054l2.765,2.61a.584.584,0,0,1,.052.794l-6.3,7.728a.584.584,0,0,1-.875.036l-2.669-2.784A.584.584,0,0,1,287.586,199.771Z" transform="translate(-287.203 -191.7)" opacity="0.3" style="isolation: isolate"/>
          <path id="Trazado_105364" data-name="Trazado 105364" d="M287.2,199.3l6.2-7.554a.584.584,0,0,1,.853-.054l2.765,2.61a.584.584,0,0,1,.052.794l-6.3,7.728a.584.584,0,0,1-.875.036l-2.669-2.783A.584.584,0,0,1,287.2,199.3Z" transform="translate(-287.066 -191.534)" fill="#407bff"/>
          <path id="Trazado_105365" data-name="Trazado 105365" d="M294.015,192.333l3.065,2.965-6,7.378-2.985-3.134Z" transform="translate(-287.431 -191.816)" fill="#fff" opacity="0.6" style="isolation: isolate"/>
        </g>
      </g>
    </g>
  </g>
</svg>
