<svg xmlns="http://www.w3.org/2000/svg" xmlns:xlink="http://www.w3.org/1999/xlink" width="1239" height="411" viewBox="0 0 1239 411">
  <defs>
    <linearGradient id="linear-gradient" x1="0.154" y1="0.143" x2="0.768" y2="0.937" gradientUnits="objectBoundingBox">
      <stop offset="0" stop-color="#ffb7ad" stop-opacity="0.482"/>
      <stop offset="1" stop-color="#f2df85" stop-opacity="0.361"/>
    </linearGradient>
  </defs>
  <g id="Grupo_85531" data-name="Grupo 85531" transform="translate(-181 -14115)">
    <path id="Trazado_106394" data-name="Trazado 106394" d="M0,0H1239V411H0Z" transform="translate(181 14115)" fill="#f6f6f6"/>
    <path id="Trazado_106397" data-name="Trazado 106397" d="M71.5,0A71.5,71.5,0,1,1,0,71.5,71.5,71.5,0,0,1,71.5,0Z" transform="translate(414 14133)" fill="url(#linear-gradient)"/>
    <path id="Trazado_106401" data-name="Trazado 106401" d="M71.5,0A71.5,71.5,0,1,1,0,71.5,71.5,71.5,0,0,1,71.5,0Z" transform="translate(283 14330)" fill="url(#linear-gradient)"/>
    <path id="Trazado_106399" data-name="Trazado 106399" d="M71.5,0A71.5,71.5,0,1,1,0,71.5,71.5,71.5,0,0,1,71.5,0Z" transform="translate(566 14224)" fill="url(#linear-gradient)"/>
    <path id="Trazado_106402" data-name="Trazado 106402" d="M71.5,0A71.5,71.5,0,1,1,0,71.5,71.5,71.5,0,0,1,71.5,0Z" transform="translate(722 14133)" fill="url(#linear-gradient)"/>
    <path id="Trazado_106410" data-name="Trazado 106410" d="M71.5,0A71.5,71.5,0,1,1,0,71.5,71.5,71.5,0,0,1,71.5,0Z" transform="translate(1045 14133)" fill="url(#linear-gradient)"/>
    <path id="Trazado_106407" data-name="Trazado 106407" d="M71.5,0A71.5,71.5,0,1,1,0,71.5,71.5,71.5,0,0,1,71.5,0Z" transform="translate(890 14260)" fill="url(#linear-gradient)"/>
    <path id="Trazado_106403" data-name="Trazado 106403" d="M71.5,0A71.5,71.5,0,1,1,0,71.5,71.5,71.5,0,0,1,71.5,0Z" transform="translate(747 14349)" fill="url(#linear-gradient)"/>
    <path id="Trazado_106415" data-name="Trazado 106415" d="M71.5,0A71.5,71.5,0,1,1,0,71.5,71.5,71.5,0,0,1,71.5,0Z" transform="translate(1225 14223)" fill="url(#linear-gradient)"/>
    <path id="Trazado_106413" data-name="Trazado 106413" d="M71.5,0A71.5,71.5,0,1,1,0,71.5,71.5,71.5,0,0,1,71.5,0Z" transform="translate(1102 14321)" fill="url(#linear-gradient)"/>
    <path id="Trazado_106404" data-name="Trazado 106404" d="M71.5,0A71.5,71.5,0,1,1,0,71.5,71.5,71.5,0,0,1,71.5,0Z" transform="translate(469 14363)" fill="url(#linear-gradient)"/>
    <path id="Trazado_106406" data-name="Trazado 106406" d="M-30.054-5.713H-35.31v3.938h6.144V0h-8.367V-12.8h8.306V-11H-35.31v3.533h5.256ZM-25.291,0h-2.136V-13.5h2.136Zm10.714-1.529A1.931,1.931,0,0,0-13.25-2a1.591,1.591,0,0,0,.563-1.151h2.013a3.137,3.137,0,0,1-.554,1.657A3.632,3.632,0,0,1-12.634-.272,4.191,4.191,0,0,1-14.55.176a4.055,4.055,0,0,1-3.164-1.292,5.124,5.124,0,0,1-1.169-3.568V-4.9a5.039,5.039,0,0,1,1.16-3.476,4.018,4.018,0,0,1,3.164-1.305,3.907,3.907,0,0,1,2.764.989,3.542,3.542,0,0,1,1.121,2.6h-2.013a1.956,1.956,0,0,0-.558-1.345,1.8,1.8,0,0,0-1.332-.527,1.879,1.879,0,0,0-1.6.751,3.834,3.834,0,0,0-.571,2.281V-4.6a3.9,3.9,0,0,0,.558,2.307A1.878,1.878,0,0,0-14.577-1.529ZM-6.79,0H-8.925V-13.5H-6.79Zm4.6,0H-4.329V-9.51h2.136ZM-4.46-11.979a1.133,1.133,0,0,1,.312-.817,1.179,1.179,0,0,1,.892-.325,1.193,1.193,0,0,1,.9.325,1.125,1.125,0,0,1,.316.817,1.1,1.1,0,0,1-.316.8,1.2,1.2,0,0,1-.9.321,1.188,1.188,0,0,1-.892-.321A1.107,1.107,0,0,1-4.46-11.979ZM4.32.176A4.419,4.419,0,0,1,1.028-1.1,4.639,4.639,0,0,1-.233-4.509v-.264A5.706,5.706,0,0,1,.316-7.317,4.181,4.181,0,0,1,1.859-9.062a4.078,4.078,0,0,1,2.215-.624,3.733,3.733,0,0,1,3,1.239A5.24,5.24,0,0,1,8.134-4.939v.861H1.92a2.856,2.856,0,0,0,.787,1.863,2.362,2.362,0,0,0,1.736.686A2.892,2.892,0,0,0,6.833-2.716l1.151,1.1A3.845,3.845,0,0,1,6.46-.294,4.774,4.774,0,0,1,4.32.176ZM4.065-7.972a1.8,1.8,0,0,0-1.419.615,3.189,3.189,0,0,0-.69,1.714H6.025V-5.8a2.6,2.6,0,0,0-.571-1.622A1.785,1.785,0,0,0,4.065-7.972ZM11.773-9.51l.062,1.1A3.419,3.419,0,0,1,14.6-9.686q2.971,0,3.023,3.4V0H15.491V-6.161A1.958,1.958,0,0,0,15.1-7.5a1.645,1.645,0,0,0-1.279-.435A2.058,2.058,0,0,0,11.9-6.768V0H9.76V-9.51Zm10.705-2.312V-9.51h1.679v1.582H22.478v5.309a1.169,1.169,0,0,0,.215.787,1,1,0,0,0,.769.242,3.29,3.29,0,0,0,.747-.088V-.026a5.26,5.26,0,0,1-1.406.2q-2.461,0-2.461-2.716V-7.928H18.778V-9.51h1.564v-2.312Zm7.5,12A4.419,4.419,0,0,1,26.684-1.1a4.639,4.639,0,0,1-1.261-3.406v-.264a5.706,5.706,0,0,1,.549-2.544,4.181,4.181,0,0,1,1.542-1.745,4.078,4.078,0,0,1,2.215-.624,3.733,3.733,0,0,1,3,1.239A5.24,5.24,0,0,1,33.79-4.939v.861H27.576a2.856,2.856,0,0,0,.787,1.863,2.362,2.362,0,0,0,1.736.686,2.892,2.892,0,0,0,2.391-1.187l1.151,1.1A3.845,3.845,0,0,1,32.115-.294,4.774,4.774,0,0,1,29.975.176ZM29.72-7.972a1.8,1.8,0,0,0-1.419.615,3.189,3.189,0,0,0-.69,1.714H31.68V-5.8a2.6,2.6,0,0,0-.571-1.622A1.785,1.785,0,0,0,29.72-7.972ZM-42.341,20.175a5.654,5.654,0,0,1,1.02-3.529,3.267,3.267,0,0,1,2.733-1.332,3.1,3.1,0,0,1,2.443,1.055V11.5h2.136V25h-1.934l-.105-.984a3.148,3.148,0,0,1-2.558,1.16,3.248,3.248,0,0,1-2.7-1.345A5.861,5.861,0,0,1-42.341,20.175Zm2.136.185a3.958,3.958,0,0,0,.558,2.263,1.811,1.811,0,0,0,1.586.813,2.017,2.017,0,0,0,1.916-1.169V18.206a1.986,1.986,0,0,0-1.9-1.143,1.824,1.824,0,0,0-1.6.822A4.408,4.408,0,0,0-40.206,20.359Zm8.024-.2a5.607,5.607,0,0,1,.554-2.518,4.044,4.044,0,0,1,1.556-1.723,4.383,4.383,0,0,1,2.3-.6,4.154,4.154,0,0,1,3.125,1.239,4.874,4.874,0,0,1,1.3,3.287l.009.5a5.658,5.658,0,0,1-.541,2.514,4,4,0,0,1-1.547,1.714,4.415,4.415,0,0,1-2.325.606,4.125,4.125,0,0,1-3.221-1.34,5.133,5.133,0,0,1-1.208-3.573Zm2.136.185a3.832,3.832,0,0,0,.606,2.3,1.971,1.971,0,0,0,1.688.831,1.95,1.95,0,0,0,1.683-.844,4.232,4.232,0,0,0,.6-2.47,3.782,3.782,0,0,0-.62-2.285,1.979,1.979,0,0,0-1.683-.844,1.96,1.96,0,0,0-1.661.831A4.152,4.152,0,0,0-30.045,20.342Zm10.521-4.852.062.993a3.422,3.422,0,0,1,2.742-1.169,2.629,2.629,0,0,1,2.61,1.459,3.373,3.373,0,0,1,2.918-1.459,2.965,2.965,0,0,1,2.342.87,3.831,3.831,0,0,1,.787,2.566V25H-10.2V18.813a1.891,1.891,0,0,0-.4-1.327,1.731,1.731,0,0,0-1.31-.422,1.778,1.778,0,0,0-1.191.391,2.063,2.063,0,0,0-.646,1.024L-13.733,25h-2.136V18.742a1.523,1.523,0,0,0-1.714-1.679A1.88,1.88,0,0,0-19.4,18.109V25h-2.136V15.49ZM-3.6,25H-5.735V15.49H-3.6ZM-5.867,13.021a1.133,1.133,0,0,1,.312-.817,1.179,1.179,0,0,1,.892-.325,1.193,1.193,0,0,1,.9.325,1.125,1.125,0,0,1,.316.817,1.1,1.1,0,0,1-.316.8,1.2,1.2,0,0,1-.9.321,1.188,1.188,0,0,1-.892-.321A1.107,1.107,0,0,1-5.867,13.021ZM.708,15.49l.062,1.1a3.419,3.419,0,0,1,2.769-1.274q2.971,0,3.023,3.4V25H4.425V18.839a1.958,1.958,0,0,0-.391-1.34,1.645,1.645,0,0,0-1.279-.435A2.058,2.058,0,0,0,.831,18.232V25H-1.305V15.49ZM14.418,25a3.3,3.3,0,0,1-.246-.888,3.325,3.325,0,0,1-2.5,1.063,3.355,3.355,0,0,1-2.338-.817,2.615,2.615,0,0,1-.905-2.021A2.7,2.7,0,0,1,9.563,20a5.473,5.473,0,0,1,3.23-.813H14.1v-.624a1.666,1.666,0,0,0-.413-1.182,1.638,1.638,0,0,0-1.257-.444,1.881,1.881,0,0,0-1.2.365,1.129,1.129,0,0,0-.466.927H8.635a2.37,2.37,0,0,1,.519-1.463A3.455,3.455,0,0,1,10.564,15.7a4.955,4.955,0,0,1,1.991-.387,3.99,3.99,0,0,1,2.663.839,2.993,2.993,0,0,1,1.02,2.36V22.8a4.861,4.861,0,0,0,.36,2.048V25Zm-2.347-1.538a2.429,2.429,0,0,0,1.191-.308,2.055,2.055,0,0,0,.839-.826V20.535H12.951a3.148,3.148,0,0,0-1.784.413,1.338,1.338,0,0,0-.6,1.169,1.248,1.248,0,0,0,.409.98A1.583,1.583,0,0,0,12.072,23.462Zm8.385-7.972.062,1.1a3.419,3.419,0,0,1,2.769-1.274q2.971,0,3.023,3.4V25H24.174V18.839a1.958,1.958,0,0,0-.391-1.34,1.645,1.645,0,0,0-1.279-.435,2.058,2.058,0,0,0-1.925,1.169V25H18.444V15.49Zm10.705-2.312V15.49H32.84v1.582H31.162v5.309a1.169,1.169,0,0,0,.215.787,1,1,0,0,0,.769.242,3.29,3.29,0,0,0,.747-.088v1.652a5.26,5.26,0,0,1-1.406.2q-2.461,0-2.461-2.716V17.072H27.461V15.49h1.564V13.179Zm7.5,12A4.419,4.419,0,0,1,35.367,23.9a4.639,4.639,0,0,1-1.261-3.406v-.264a5.706,5.706,0,0,1,.549-2.544A4.181,4.181,0,0,1,36.2,15.938a4.078,4.078,0,0,1,2.215-.624,3.733,3.733,0,0,1,3,1.239,5.24,5.24,0,0,1,1.059,3.507v.861H36.259a2.856,2.856,0,0,0,.787,1.863,2.362,2.362,0,0,0,1.736.686,2.892,2.892,0,0,0,2.391-1.187l1.151,1.1A3.845,3.845,0,0,1,40.8,24.706,4.774,4.774,0,0,1,38.659,25.176ZM38.4,17.028a1.8,1.8,0,0,0-1.419.615,3.189,3.189,0,0,0-.69,1.714h4.069V19.2a2.6,2.6,0,0,0-.571-1.622A1.785,1.785,0,0,0,38.4,17.028Z" transform="translate(354 14395)" fill="#12263f"/>
    <path id="Trazado_106398" data-name="Trazado 106398" d="M-30.054-5.713H-35.31v3.938h6.144V0h-8.367V-12.8h8.306V-11H-35.31v3.533h5.256ZM-25.291,0h-2.136V-13.5h2.136Zm10.714-1.529A1.931,1.931,0,0,0-13.25-2a1.591,1.591,0,0,0,.563-1.151h2.013a3.137,3.137,0,0,1-.554,1.657A3.632,3.632,0,0,1-12.634-.272,4.191,4.191,0,0,1-14.55.176a4.055,4.055,0,0,1-3.164-1.292,5.124,5.124,0,0,1-1.169-3.568V-4.9a5.039,5.039,0,0,1,1.16-3.476,4.018,4.018,0,0,1,3.164-1.305,3.907,3.907,0,0,1,2.764.989,3.542,3.542,0,0,1,1.121,2.6h-2.013a1.956,1.956,0,0,0-.558-1.345,1.8,1.8,0,0,0-1.332-.527,1.879,1.879,0,0,0-1.6.751,3.834,3.834,0,0,0-.571,2.281V-4.6a3.9,3.9,0,0,0,.558,2.307A1.878,1.878,0,0,0-14.577-1.529ZM-6.79,0H-8.925V-13.5H-6.79Zm4.6,0H-4.329V-9.51h2.136ZM-4.46-11.979a1.133,1.133,0,0,1,.312-.817,1.179,1.179,0,0,1,.892-.325,1.193,1.193,0,0,1,.9.325,1.125,1.125,0,0,1,.316.817,1.1,1.1,0,0,1-.316.8,1.2,1.2,0,0,1-.9.321,1.188,1.188,0,0,1-.892-.321A1.107,1.107,0,0,1-4.46-11.979ZM4.32.176A4.419,4.419,0,0,1,1.028-1.1,4.639,4.639,0,0,1-.233-4.509v-.264A5.706,5.706,0,0,1,.316-7.317,4.181,4.181,0,0,1,1.859-9.062a4.078,4.078,0,0,1,2.215-.624,3.733,3.733,0,0,1,3,1.239A5.24,5.24,0,0,1,8.134-4.939v.861H1.92a2.856,2.856,0,0,0,.787,1.863,2.362,2.362,0,0,0,1.736.686A2.892,2.892,0,0,0,6.833-2.716l1.151,1.1A3.845,3.845,0,0,1,6.46-.294,4.774,4.774,0,0,1,4.32.176ZM4.065-7.972a1.8,1.8,0,0,0-1.419.615,3.189,3.189,0,0,0-.69,1.714H6.025V-5.8a2.6,2.6,0,0,0-.571-1.622A1.785,1.785,0,0,0,4.065-7.972ZM11.773-9.51l.062,1.1A3.419,3.419,0,0,1,14.6-9.686q2.971,0,3.023,3.4V0H15.491V-6.161A1.958,1.958,0,0,0,15.1-7.5a1.645,1.645,0,0,0-1.279-.435A2.058,2.058,0,0,0,11.9-6.768V0H9.76V-9.51Zm10.705-2.312V-9.51h1.679v1.582H22.478v5.309a1.169,1.169,0,0,0,.215.787,1,1,0,0,0,.769.242,3.29,3.29,0,0,0,.747-.088V-.026a5.26,5.26,0,0,1-1.406.2q-2.461,0-2.461-2.716V-7.928H18.778V-9.51h1.564v-2.312Zm7.5,12A4.419,4.419,0,0,1,26.684-1.1a4.639,4.639,0,0,1-1.261-3.406v-.264a5.706,5.706,0,0,1,.549-2.544,4.181,4.181,0,0,1,1.542-1.745,4.078,4.078,0,0,1,2.215-.624,3.733,3.733,0,0,1,3,1.239A5.24,5.24,0,0,1,33.79-4.939v.861H27.576a2.856,2.856,0,0,0,.787,1.863,2.362,2.362,0,0,0,1.736.686,2.892,2.892,0,0,0,2.391-1.187l1.151,1.1A3.845,3.845,0,0,1,32.115-.294,4.774,4.774,0,0,1,29.975.176ZM29.72-7.972a1.8,1.8,0,0,0-1.419.615,3.189,3.189,0,0,0-.69,1.714H31.68V-5.8a2.6,2.6,0,0,0-.571-1.622A1.785,1.785,0,0,0,29.72-7.972ZM-34.792,20.175a5.654,5.654,0,0,1,1.02-3.529,3.267,3.267,0,0,1,2.733-1.332A3.1,3.1,0,0,1-28.6,16.369V11.5h2.136V25h-1.934l-.105-.984a3.148,3.148,0,0,1-2.558,1.16,3.248,3.248,0,0,1-2.7-1.345A5.861,5.861,0,0,1-34.792,20.175Zm2.136.185a3.958,3.958,0,0,0,.558,2.263,1.811,1.811,0,0,0,1.586.813A2.017,2.017,0,0,0-28.6,22.267V18.206a1.986,1.986,0,0,0-1.9-1.143,1.824,1.824,0,0,0-1.6.822A4.408,4.408,0,0,0-32.656,20.359ZM-21.959,25H-24.1V15.49h2.136Zm-2.268-11.979a1.133,1.133,0,0,1,.312-.817,1.179,1.179,0,0,1,.892-.325,1.193,1.193,0,0,1,.9.325,1.125,1.125,0,0,1,.316.817,1.1,1.1,0,0,1-.316.8,1.2,1.2,0,0,1-.9.321,1.188,1.188,0,0,1-.892-.321A1.107,1.107,0,0,1-24.227,13.021Zm9.923,9.4a.968.968,0,0,0-.47-.87,5,5,0,0,0-1.56-.527,8.02,8.02,0,0,1-1.819-.58,2.428,2.428,0,0,1-1.6-2.241,2.531,2.531,0,0,1,1.037-2.057,4.1,4.1,0,0,1,2.637-.826,4.266,4.266,0,0,1,2.755.844,2.677,2.677,0,0,1,1.05,2.188H-14.41a1.316,1.316,0,0,0-.457-1.024,1.752,1.752,0,0,0-1.213-.409,1.893,1.893,0,0,0-1.147.325,1.025,1.025,0,0,0-.444.87.866.866,0,0,0,.413.765,5.68,5.68,0,0,0,1.67.549,7.9,7.9,0,0,1,1.973.659A2.794,2.794,0,0,1-12.551,21a2.342,2.342,0,0,1,.347,1.3,2.478,2.478,0,0,1-1.063,2.079,4.535,4.535,0,0,1-2.786.8,4.917,4.917,0,0,1-2.083-.422,3.428,3.428,0,0,1-1.424-1.16A2.746,2.746,0,0,1-20.07,22H-18a1.5,1.5,0,0,0,.571,1.165,2.22,2.22,0,0,0,1.4.409,2.16,2.16,0,0,0,1.283-.321A.993.993,0,0,0-14.3,22.416Zm6.636-9.237V15.49H-5.99v1.582H-7.668v5.309a1.169,1.169,0,0,0,.215.787,1,1,0,0,0,.769.242,3.29,3.29,0,0,0,.747-.088v1.652a5.26,5.26,0,0,1-1.406.2q-2.461,0-2.461-2.716V17.072h-1.564V15.49H-9.8V13.179ZM.62,17.441a5.285,5.285,0,0,0-.87-.07A1.959,1.959,0,0,0-2.228,18.5V25H-4.364V15.49h2.039l.053,1.063A2.406,2.406,0,0,1-.127,15.314a2,2,0,0,1,.756.123ZM7.387,25a3.3,3.3,0,0,1-.246-.888,3.325,3.325,0,0,1-2.5,1.063,3.355,3.355,0,0,1-2.338-.817A2.615,2.615,0,0,1,1.4,22.337,2.7,2.7,0,0,1,2.531,20a5.473,5.473,0,0,1,3.23-.813h1.31v-.624a1.666,1.666,0,0,0-.413-1.182A1.638,1.638,0,0,0,5.4,16.94a1.881,1.881,0,0,0-1.2.365,1.129,1.129,0,0,0-.466.927H1.6a2.37,2.37,0,0,1,.519-1.463A3.455,3.455,0,0,1,3.533,15.7a4.955,4.955,0,0,1,1.991-.387,3.99,3.99,0,0,1,2.663.839,2.993,2.993,0,0,1,1.02,2.36V22.8a4.861,4.861,0,0,0,.36,2.048V25ZM5.041,23.462a2.429,2.429,0,0,0,1.191-.308,2.055,2.055,0,0,0,.839-.826V20.535H5.919a3.148,3.148,0,0,0-1.784.413,1.338,1.338,0,0,0-.6,1.169,1.248,1.248,0,0,0,.409.98A1.583,1.583,0,0,0,5.041,23.462ZM13.742,25H11.606V15.49h2.136Zm-.4-13.438h2.435l-2.435,2.663H11.624Zm2.435,8.613a5.654,5.654,0,0,1,1.02-3.529,3.267,3.267,0,0,1,2.733-1.332,3.1,3.1,0,0,1,2.443,1.055V11.5H24.1V25H22.17l-.105-.984a3.148,3.148,0,0,1-2.558,1.16,3.248,3.248,0,0,1-2.7-1.345A5.861,5.861,0,0,1,15.772,20.175Zm2.136.185a3.958,3.958,0,0,0,.558,2.263,1.811,1.811,0,0,0,1.586.813,2.017,2.017,0,0,0,1.916-1.169V18.206a1.986,1.986,0,0,0-1.9-1.143,1.824,1.824,0,0,0-1.6.822A4.408,4.408,0,0,0,17.908,20.359Zm8.024-.2a5.607,5.607,0,0,1,.554-2.518,4.044,4.044,0,0,1,1.556-1.723,4.383,4.383,0,0,1,2.3-.6,4.154,4.154,0,0,1,3.125,1.239,4.874,4.874,0,0,1,1.3,3.287l.009.5a5.658,5.658,0,0,1-.541,2.514,4,4,0,0,1-1.547,1.714,4.415,4.415,0,0,1-2.325.606,4.125,4.125,0,0,1-3.221-1.34,5.133,5.133,0,0,1-1.208-3.573Zm2.136.185a3.832,3.832,0,0,0,.606,2.3,1.971,1.971,0,0,0,1.688.831,1.95,1.95,0,0,0,1.683-.844,4.232,4.232,0,0,0,.6-2.47,3.782,3.782,0,0,0-.62-2.285,2.089,2.089,0,0,0-3.344-.013A4.152,4.152,0,0,0,28.068,20.342Z" transform="translate(485 14198)" fill="#12263f"/>
    <path id="Trazado_106411" data-name="Trazado 106411" d="M-30.054-5.713H-35.31v3.938h6.144V0h-8.367V-12.8h8.306V-11H-35.31v3.533h5.256ZM-25.291,0h-2.136V-13.5h2.136Zm10.714-1.529A1.931,1.931,0,0,0-13.25-2a1.591,1.591,0,0,0,.563-1.151h2.013a3.137,3.137,0,0,1-.554,1.657A3.632,3.632,0,0,1-12.634-.272,4.191,4.191,0,0,1-14.55.176a4.055,4.055,0,0,1-3.164-1.292,5.124,5.124,0,0,1-1.169-3.568V-4.9a5.039,5.039,0,0,1,1.16-3.476,4.018,4.018,0,0,1,3.164-1.305,3.907,3.907,0,0,1,2.764.989,3.542,3.542,0,0,1,1.121,2.6h-2.013a1.956,1.956,0,0,0-.558-1.345,1.8,1.8,0,0,0-1.332-.527,1.879,1.879,0,0,0-1.6.751,3.834,3.834,0,0,0-.571,2.281V-4.6a3.9,3.9,0,0,0,.558,2.307A1.878,1.878,0,0,0-14.577-1.529ZM-6.79,0H-8.925V-13.5H-6.79Zm4.6,0H-4.329V-9.51h2.136ZM-4.46-11.979a1.133,1.133,0,0,1,.312-.817,1.179,1.179,0,0,1,.892-.325,1.193,1.193,0,0,1,.9.325,1.125,1.125,0,0,1,.316.817,1.1,1.1,0,0,1-.316.8,1.2,1.2,0,0,1-.9.321,1.188,1.188,0,0,1-.892-.321A1.107,1.107,0,0,1-4.46-11.979ZM4.32.176A4.419,4.419,0,0,1,1.028-1.1,4.639,4.639,0,0,1-.233-4.509v-.264A5.706,5.706,0,0,1,.316-7.317,4.181,4.181,0,0,1,1.859-9.062a4.078,4.078,0,0,1,2.215-.624,3.733,3.733,0,0,1,3,1.239A5.24,5.24,0,0,1,8.134-4.939v.861H1.92a2.856,2.856,0,0,0,.787,1.863,2.362,2.362,0,0,0,1.736.686A2.892,2.892,0,0,0,6.833-2.716l1.151,1.1A3.845,3.845,0,0,1,6.46-.294,4.774,4.774,0,0,1,4.32.176ZM4.065-7.972a1.8,1.8,0,0,0-1.419.615,3.189,3.189,0,0,0-.69,1.714H6.025V-5.8a2.6,2.6,0,0,0-.571-1.622A1.785,1.785,0,0,0,4.065-7.972ZM11.773-9.51l.062,1.1A3.419,3.419,0,0,1,14.6-9.686q2.971,0,3.023,3.4V0H15.491V-6.161A1.958,1.958,0,0,0,15.1-7.5a1.645,1.645,0,0,0-1.279-.435A2.058,2.058,0,0,0,11.9-6.768V0H9.76V-9.51Zm10.705-2.312V-9.51h1.679v1.582H22.478v5.309a1.169,1.169,0,0,0,.215.787,1,1,0,0,0,.769.242,3.29,3.29,0,0,0,.747-.088V-.026a5.26,5.26,0,0,1-1.406.2q-2.461,0-2.461-2.716V-7.928H18.778V-9.51h1.564v-2.312Zm7.5,12A4.419,4.419,0,0,1,26.684-1.1a4.639,4.639,0,0,1-1.261-3.406v-.264a5.706,5.706,0,0,1,.549-2.544,4.181,4.181,0,0,1,1.542-1.745,4.078,4.078,0,0,1,2.215-.624,3.733,3.733,0,0,1,3,1.239A5.24,5.24,0,0,1,33.79-4.939v.861H27.576a2.856,2.856,0,0,0,.787,1.863,2.362,2.362,0,0,0,1.736.686,2.892,2.892,0,0,0,2.391-1.187l1.151,1.1A3.845,3.845,0,0,1,32.115-.294,4.774,4.774,0,0,1,29.975.176ZM29.72-7.972a1.8,1.8,0,0,0-1.419.615,3.189,3.189,0,0,0-.69,1.714H31.68V-5.8a2.6,2.6,0,0,0-.571-1.622A1.785,1.785,0,0,0,29.72-7.972ZM-46.011,20.175a5.654,5.654,0,0,1,1.02-3.529,3.267,3.267,0,0,1,2.733-1.332,3.1,3.1,0,0,1,2.443,1.055V11.5h2.136V25h-1.934l-.105-.984a3.148,3.148,0,0,1-2.558,1.16,3.248,3.248,0,0,1-2.7-1.345A5.861,5.861,0,0,1-46.011,20.175Zm2.136.185a3.958,3.958,0,0,0,.558,2.263,1.811,1.811,0,0,0,1.586.813,2.017,2.017,0,0,0,1.916-1.169V18.206a1.986,1.986,0,0,0-1.9-1.143,1.824,1.824,0,0,0-1.6.822A4.408,4.408,0,0,0-43.875,20.359Zm12.612,4.816A4.419,4.419,0,0,1-34.554,23.9a4.639,4.639,0,0,1-1.261-3.406v-.264a5.706,5.706,0,0,1,.549-2.544,4.181,4.181,0,0,1,1.542-1.745,4.078,4.078,0,0,1,2.215-.624,3.733,3.733,0,0,1,3,1.239,5.24,5.24,0,0,1,1.059,3.507v.861h-6.214a2.856,2.856,0,0,0,.787,1.863,2.362,2.362,0,0,0,1.736.686,2.892,2.892,0,0,0,2.391-1.187l1.151,1.1a3.845,3.845,0,0,1-1.525,1.323A4.774,4.774,0,0,1-31.263,25.176Zm-.255-8.147a1.8,1.8,0,0,0-1.419.615,3.189,3.189,0,0,0-.69,1.714h4.069V19.2a2.6,2.6,0,0,0-.571-1.622A1.785,1.785,0,0,0-31.518,17.028Zm11.057,5.388a.968.968,0,0,0-.47-.87,5,5,0,0,0-1.56-.527,8.02,8.02,0,0,1-1.819-.58,2.428,2.428,0,0,1-1.6-2.241,2.531,2.531,0,0,1,1.037-2.057,4.1,4.1,0,0,1,2.637-.826,4.266,4.266,0,0,1,2.755.844,2.677,2.677,0,0,1,1.05,2.188h-2.136a1.316,1.316,0,0,0-.457-1.024,1.752,1.752,0,0,0-1.213-.409,1.893,1.893,0,0,0-1.147.325,1.025,1.025,0,0,0-.444.87.866.866,0,0,0,.413.765,5.68,5.68,0,0,0,1.67.549,7.9,7.9,0,0,1,1.973.659A2.794,2.794,0,0,1-18.708,21a2.342,2.342,0,0,1,.347,1.3,2.478,2.478,0,0,1-1.063,2.079,4.535,4.535,0,0,1-2.786.8,4.917,4.917,0,0,1-2.083-.422,3.428,3.428,0,0,1-1.424-1.16A2.746,2.746,0,0,1-26.227,22h2.074a1.5,1.5,0,0,0,.571,1.165,2.22,2.22,0,0,0,1.4.409,2.16,2.16,0,0,0,1.283-.321A.993.993,0,0,0-20.461,22.416Zm9.721,1.652a3.312,3.312,0,0,1-2.672,1.107,2.952,2.952,0,0,1-2.342-.905,3.851,3.851,0,0,1-.8-2.619V15.49h2.136v6.135q0,1.811,1.5,1.811a2.111,2.111,0,0,0,2.1-1.116V15.49h2.136V25h-2.013ZM1.846,20.342a5.712,5.712,0,0,1-.989,3.524,3.221,3.221,0,0,1-2.72,1.31,3.1,3.1,0,0,1-2.6-1.2L-4.57,25H-6.5V11.5h2.136v4.9a3.091,3.091,0,0,1,2.487-1.09A3.258,3.258,0,0,1,.853,16.606a5.807,5.807,0,0,1,.993,3.612ZM-.29,20.157a4.037,4.037,0,0,0-.545-2.32,1.815,1.815,0,0,0-1.582-.773,1.983,1.983,0,0,0-1.951,1.213V22.2A2,2,0,0,0-2.4,23.436a1.8,1.8,0,0,0,1.547-.747A3.912,3.912,0,0,0-.29,20.43ZM5.906,25H3.771V15.49H5.906ZM3.639,13.021a1.133,1.133,0,0,1,.312-.817,1.179,1.179,0,0,1,.892-.325,1.193,1.193,0,0,1,.9.325,1.125,1.125,0,0,1,.316.817,1.1,1.1,0,0,1-.316.8,1.2,1.2,0,0,1-.9.321,1.188,1.188,0,0,1-.892-.321A1.107,1.107,0,0,1,3.639,13.021Zm8.5,10.45A1.931,1.931,0,0,0,13.465,23a1.591,1.591,0,0,0,.563-1.151H16.04a3.137,3.137,0,0,1-.554,1.657,3.632,3.632,0,0,1-1.406,1.217,4.191,4.191,0,0,1-1.916.448A4.055,4.055,0,0,1,9,23.884a5.124,5.124,0,0,1-1.169-3.568V20.1a5.039,5.039,0,0,1,1.16-3.476,4.018,4.018,0,0,1,3.164-1.305,3.907,3.907,0,0,1,2.764.989,3.542,3.542,0,0,1,1.121,2.6H14.027a1.956,1.956,0,0,0-.558-1.345,1.8,1.8,0,0,0-1.332-.527,1.879,1.879,0,0,0-1.6.751,3.834,3.834,0,0,0-.571,2.281V20.4a3.9,3.9,0,0,0,.558,2.307A1.878,1.878,0,0,0,12.138,23.471ZM23.335,25a3.3,3.3,0,0,1-.246-.888,3.593,3.593,0,0,1-4.834.246,2.615,2.615,0,0,1-.905-2.021A2.7,2.7,0,0,1,18.479,20a5.473,5.473,0,0,1,3.23-.813h1.31v-.624a1.666,1.666,0,0,0-.413-1.182,1.638,1.638,0,0,0-1.257-.444,1.881,1.881,0,0,0-1.2.365,1.129,1.129,0,0,0-.466.927H17.552a2.37,2.37,0,0,1,.519-1.463A3.455,3.455,0,0,1,19.481,15.7a4.955,4.955,0,0,1,1.991-.387,3.99,3.99,0,0,1,2.663.839,2.993,2.993,0,0,1,1.02,2.36V22.8a4.861,4.861,0,0,0,.36,2.048V25Zm-2.347-1.538a2.429,2.429,0,0,0,1.191-.308,2.055,2.055,0,0,0,.839-.826V20.535H21.867a3.148,3.148,0,0,0-1.784.413,1.338,1.338,0,0,0-.6,1.169,1.248,1.248,0,0,0,.409.98A1.583,1.583,0,0,0,20.988,23.462Zm6-3.287a5.654,5.654,0,0,1,1.02-3.529,3.267,3.267,0,0,1,2.733-1.332,3.1,3.1,0,0,1,2.443,1.055V11.5h2.136V25H33.39l-.105-.984a3.148,3.148,0,0,1-2.558,1.16,3.248,3.248,0,0,1-2.7-1.345A5.861,5.861,0,0,1,26.991,20.175Zm2.136.185a3.958,3.958,0,0,0,.558,2.263,1.811,1.811,0,0,0,1.586.813,2.017,2.017,0,0,0,1.916-1.169V18.206a1.986,1.986,0,0,0-1.9-1.143,1.824,1.824,0,0,0-1.6.822A4.408,4.408,0,0,0,29.127,20.359Zm8.024-.2a5.607,5.607,0,0,1,.554-2.518,4.044,4.044,0,0,1,1.556-1.723,4.383,4.383,0,0,1,2.3-.6,4.154,4.154,0,0,1,3.125,1.239,4.874,4.874,0,0,1,1.3,3.287l.009.5a5.658,5.658,0,0,1-.541,2.514,4,4,0,0,1-1.547,1.714,4.415,4.415,0,0,1-2.325.606,4.125,4.125,0,0,1-3.221-1.34,5.133,5.133,0,0,1-1.208-3.573Zm2.136.185a3.832,3.832,0,0,0,.606,2.3,1.971,1.971,0,0,0,1.688.831,1.95,1.95,0,0,0,1.683-.844,4.232,4.232,0,0,0,.6-2.47,3.782,3.782,0,0,0-.62-2.285,2.089,2.089,0,0,0-3.344-.013A4.152,4.152,0,0,0,39.287,20.342Z" transform="translate(540 14432)" fill="#12263f"/>
    <path id="Trazado_106405" data-name="Trazado 106405" d="M-30.054-5.713H-35.31v3.938h6.144V0h-8.367V-12.8h8.306V-11H-35.31v3.533h5.256ZM-25.291,0h-2.136V-13.5h2.136Zm10.714-1.529A1.931,1.931,0,0,0-13.25-2a1.591,1.591,0,0,0,.563-1.151h2.013a3.137,3.137,0,0,1-.554,1.657A3.632,3.632,0,0,1-12.634-.272,4.191,4.191,0,0,1-14.55.176a4.055,4.055,0,0,1-3.164-1.292,5.124,5.124,0,0,1-1.169-3.568V-4.9a5.039,5.039,0,0,1,1.16-3.476,4.018,4.018,0,0,1,3.164-1.305,3.907,3.907,0,0,1,2.764.989,3.542,3.542,0,0,1,1.121,2.6h-2.013a1.956,1.956,0,0,0-.558-1.345,1.8,1.8,0,0,0-1.332-.527,1.879,1.879,0,0,0-1.6.751,3.834,3.834,0,0,0-.571,2.281V-4.6a3.9,3.9,0,0,0,.558,2.307A1.878,1.878,0,0,0-14.577-1.529ZM-6.79,0H-8.925V-13.5H-6.79Zm4.6,0H-4.329V-9.51h2.136ZM-4.46-11.979a1.133,1.133,0,0,1,.312-.817,1.179,1.179,0,0,1,.892-.325,1.193,1.193,0,0,1,.9.325,1.125,1.125,0,0,1,.316.817,1.1,1.1,0,0,1-.316.8,1.2,1.2,0,0,1-.9.321,1.188,1.188,0,0,1-.892-.321A1.107,1.107,0,0,1-4.46-11.979ZM4.32.176A4.419,4.419,0,0,1,1.028-1.1,4.639,4.639,0,0,1-.233-4.509v-.264A5.706,5.706,0,0,1,.316-7.317,4.181,4.181,0,0,1,1.859-9.062a4.078,4.078,0,0,1,2.215-.624,3.733,3.733,0,0,1,3,1.239A5.24,5.24,0,0,1,8.134-4.939v.861H1.92a2.856,2.856,0,0,0,.787,1.863,2.362,2.362,0,0,0,1.736.686A2.892,2.892,0,0,0,6.833-2.716l1.151,1.1A3.845,3.845,0,0,1,6.46-.294,4.774,4.774,0,0,1,4.32.176ZM4.065-7.972a1.8,1.8,0,0,0-1.419.615,3.189,3.189,0,0,0-.69,1.714H6.025V-5.8a2.6,2.6,0,0,0-.571-1.622A1.785,1.785,0,0,0,4.065-7.972ZM11.773-9.51l.062,1.1A3.419,3.419,0,0,1,14.6-9.686q2.971,0,3.023,3.4V0H15.491V-6.161A1.958,1.958,0,0,0,15.1-7.5a1.645,1.645,0,0,0-1.279-.435A2.058,2.058,0,0,0,11.9-6.768V0H9.76V-9.51Zm10.705-2.312V-9.51h1.679v1.582H22.478v5.309a1.169,1.169,0,0,0,.215.787,1,1,0,0,0,.769.242,3.29,3.29,0,0,0,.747-.088V-.026a5.26,5.26,0,0,1-1.406.2q-2.461,0-2.461-2.716V-7.928H18.778V-9.51h1.564v-2.312Zm7.5,12A4.419,4.419,0,0,1,26.684-1.1a4.639,4.639,0,0,1-1.261-3.406v-.264a5.706,5.706,0,0,1,.549-2.544,4.181,4.181,0,0,1,1.542-1.745,4.078,4.078,0,0,1,2.215-.624,3.733,3.733,0,0,1,3,1.239A5.24,5.24,0,0,1,33.79-4.939v.861H27.576a2.856,2.856,0,0,0,.787,1.863,2.362,2.362,0,0,0,1.736.686,2.892,2.892,0,0,0,2.391-1.187l1.151,1.1A3.845,3.845,0,0,1,32.115-.294,4.774,4.774,0,0,1,29.975.176ZM29.72-7.972a1.8,1.8,0,0,0-1.419.615,3.189,3.189,0,0,0-.69,1.714H31.68V-5.8a2.6,2.6,0,0,0-.571-1.622A1.785,1.785,0,0,0,29.72-7.972ZM-34.014,17.441a5.285,5.285,0,0,0-.87-.07A1.959,1.959,0,0,0-36.861,18.5V25H-39V15.49h2.039l.053,1.063a2.406,2.406,0,0,1,2.145-1.239,2,2,0,0,1,.756.123Zm5.37,7.734A4.419,4.419,0,0,1-31.935,23.9,4.639,4.639,0,0,1-33.2,20.491v-.264a5.706,5.706,0,0,1,.549-2.544A4.181,4.181,0,0,1-31.1,15.938a4.078,4.078,0,0,1,2.215-.624,3.733,3.733,0,0,1,3,1.239,5.24,5.24,0,0,1,1.059,3.507v.861h-6.214a2.856,2.856,0,0,0,.787,1.863,2.362,2.362,0,0,0,1.736.686,2.892,2.892,0,0,0,2.391-1.187l1.151,1.1A3.845,3.845,0,0,1-26.5,24.706,4.774,4.774,0,0,1-28.644,25.176Zm-.255-8.147a1.8,1.8,0,0,0-1.419.615,3.189,3.189,0,0,0-.69,1.714h4.069V19.2a2.6,2.6,0,0,0-.571-1.622A1.785,1.785,0,0,0-28.9,17.028Zm11.057,5.388a.968.968,0,0,0-.47-.87,5,5,0,0,0-1.56-.527,8.02,8.02,0,0,1-1.819-.58,2.428,2.428,0,0,1-1.6-2.241,2.531,2.531,0,0,1,1.037-2.057,4.1,4.1,0,0,1,2.637-.826,4.266,4.266,0,0,1,2.755.844,2.677,2.677,0,0,1,1.05,2.188h-2.136a1.316,1.316,0,0,0-.457-1.024,1.752,1.752,0,0,0-1.213-.409,1.893,1.893,0,0,0-1.147.325,1.025,1.025,0,0,0-.444.87.866.866,0,0,0,.413.765,5.68,5.68,0,0,0,1.67.549,7.9,7.9,0,0,1,1.973.659A2.794,2.794,0,0,1-16.088,21a2.342,2.342,0,0,1,.347,1.3A2.478,2.478,0,0,1-16.8,24.38a4.535,4.535,0,0,1-2.786.8,4.917,4.917,0,0,1-2.083-.422,3.428,3.428,0,0,1-1.424-1.16A2.746,2.746,0,0,1-23.607,22h2.074a1.5,1.5,0,0,0,.571,1.165,2.22,2.22,0,0,0,1.4.409,2.16,2.16,0,0,0,1.283-.321A.993.993,0,0,0-17.842,22.416Zm8.147,2.76A4.419,4.419,0,0,1-12.986,23.9a4.639,4.639,0,0,1-1.261-3.406v-.264a5.706,5.706,0,0,1,.549-2.544,4.181,4.181,0,0,1,1.542-1.745,4.078,4.078,0,0,1,2.215-.624,3.733,3.733,0,0,1,3,1.239A5.24,5.24,0,0,1-5.88,20.061v.861h-6.214a2.856,2.856,0,0,0,.787,1.863,2.362,2.362,0,0,0,1.736.686,2.892,2.892,0,0,0,2.391-1.187l1.151,1.1a3.845,3.845,0,0,1-1.525,1.323A4.774,4.774,0,0,1-9.694,25.176Zm-.255-8.147a1.8,1.8,0,0,0-1.419.615,3.189,3.189,0,0,0-.69,1.714h4.069V19.2a2.6,2.6,0,0,0-.571-1.622A1.785,1.785,0,0,0-9.949,17.028Zm10.705.413a5.285,5.285,0,0,0-.87-.07A1.959,1.959,0,0,0-2.092,18.5V25H-4.228V15.49h2.039l.053,1.063A2.406,2.406,0,0,1,.009,15.314a2,2,0,0,1,.756.123Zm4.86,4.852,2.013-6.8H9.835L6.539,25H4.685L1.362,15.49H3.577ZM16.717,25a3.3,3.3,0,0,1-.246-.888,3.325,3.325,0,0,1-2.5,1.063,3.355,3.355,0,0,1-2.338-.817,2.615,2.615,0,0,1-.905-2.021A2.7,2.7,0,0,1,11.861,20a5.473,5.473,0,0,1,3.23-.813H16.4v-.624a1.666,1.666,0,0,0-.413-1.182,1.638,1.638,0,0,0-1.257-.444,1.881,1.881,0,0,0-1.2.365,1.129,1.129,0,0,0-.466.927H10.934a2.37,2.37,0,0,1,.519-1.463A3.455,3.455,0,0,1,12.863,15.7a4.955,4.955,0,0,1,1.991-.387,3.99,3.99,0,0,1,2.663.839,2.993,2.993,0,0,1,1.02,2.36V22.8a4.861,4.861,0,0,0,.36,2.048V25ZM14.37,23.462a2.429,2.429,0,0,0,1.191-.308,2.055,2.055,0,0,0,.839-.826V20.535H15.249a3.148,3.148,0,0,0-1.784.413,1.338,1.338,0,0,0-.6,1.169,1.248,1.248,0,0,0,.409.98A1.583,1.583,0,0,0,14.37,23.462Zm6-3.287a5.654,5.654,0,0,1,1.02-3.529,3.267,3.267,0,0,1,2.733-1.332,3.1,3.1,0,0,1,2.443,1.055V11.5h2.136V25H26.771l-.105-.984a3.148,3.148,0,0,1-2.558,1.16,3.248,3.248,0,0,1-2.7-1.345A5.861,5.861,0,0,1,20.373,20.175Zm2.136.185a3.958,3.958,0,0,0,.558,2.263,1.811,1.811,0,0,0,1.586.813,2.017,2.017,0,0,0,1.916-1.169V18.206a1.986,1.986,0,0,0-1.9-1.143,1.824,1.824,0,0,0-1.6.822A4.408,4.408,0,0,0,22.509,20.359Zm8.024-.2a5.607,5.607,0,0,1,.554-2.518,4.044,4.044,0,0,1,1.556-1.723,4.383,4.383,0,0,1,2.3-.6,4.154,4.154,0,0,1,3.125,1.239,4.874,4.874,0,0,1,1.3,3.287l.009.5a5.658,5.658,0,0,1-.541,2.514,4,4,0,0,1-1.547,1.714,4.415,4.415,0,0,1-2.325.606,4.125,4.125,0,0,1-3.221-1.34,5.133,5.133,0,0,1-1.208-3.573Zm2.136.185a3.832,3.832,0,0,0,.606,2.3,1.971,1.971,0,0,0,1.688.831,1.95,1.95,0,0,0,1.683-.844,4.232,4.232,0,0,0,.6-2.47,3.782,3.782,0,0,0-.62-2.285,2.089,2.089,0,0,0-3.344-.013A4.152,4.152,0,0,0,32.669,20.342Z" transform="translate(795 14198)" fill="#12263f"/>
    <path id="Trazado_106400" data-name="Trazado 106400" d="M-30.054-5.713H-35.31v3.938h6.144V0h-8.367V-12.8h8.306V-11H-35.31v3.533h5.256ZM-25.291,0h-2.136V-13.5h2.136Zm10.714-1.529A1.931,1.931,0,0,0-13.25-2a1.591,1.591,0,0,0,.563-1.151h2.013a3.137,3.137,0,0,1-.554,1.657A3.632,3.632,0,0,1-12.634-.272,4.191,4.191,0,0,1-14.55.176a4.055,4.055,0,0,1-3.164-1.292,5.124,5.124,0,0,1-1.169-3.568V-4.9a5.039,5.039,0,0,1,1.16-3.476,4.018,4.018,0,0,1,3.164-1.305,3.907,3.907,0,0,1,2.764.989,3.542,3.542,0,0,1,1.121,2.6h-2.013a1.956,1.956,0,0,0-.558-1.345,1.8,1.8,0,0,0-1.332-.527,1.879,1.879,0,0,0-1.6.751,3.834,3.834,0,0,0-.571,2.281V-4.6a3.9,3.9,0,0,0,.558,2.307A1.878,1.878,0,0,0-14.577-1.529ZM-6.79,0H-8.925V-13.5H-6.79Zm4.6,0H-4.329V-9.51h2.136ZM-4.46-11.979a1.133,1.133,0,0,1,.312-.817,1.179,1.179,0,0,1,.892-.325,1.193,1.193,0,0,1,.9.325,1.125,1.125,0,0,1,.316.817,1.1,1.1,0,0,1-.316.8,1.2,1.2,0,0,1-.9.321,1.188,1.188,0,0,1-.892-.321A1.107,1.107,0,0,1-4.46-11.979ZM4.32.176A4.419,4.419,0,0,1,1.028-1.1,4.639,4.639,0,0,1-.233-4.509v-.264A5.706,5.706,0,0,1,.316-7.317,4.181,4.181,0,0,1,1.859-9.062a4.078,4.078,0,0,1,2.215-.624,3.733,3.733,0,0,1,3,1.239A5.24,5.24,0,0,1,8.134-4.939v.861H1.92a2.856,2.856,0,0,0,.787,1.863,2.362,2.362,0,0,0,1.736.686A2.892,2.892,0,0,0,6.833-2.716l1.151,1.1A3.845,3.845,0,0,1,6.46-.294,4.774,4.774,0,0,1,4.32.176ZM4.065-7.972a1.8,1.8,0,0,0-1.419.615,3.189,3.189,0,0,0-.69,1.714H6.025V-5.8a2.6,2.6,0,0,0-.571-1.622A1.785,1.785,0,0,0,4.065-7.972ZM11.773-9.51l.062,1.1A3.419,3.419,0,0,1,14.6-9.686q2.971,0,3.023,3.4V0H15.491V-6.161A1.958,1.958,0,0,0,15.1-7.5a1.645,1.645,0,0,0-1.279-.435A2.058,2.058,0,0,0,11.9-6.768V0H9.76V-9.51Zm10.705-2.312V-9.51h1.679v1.582H22.478v5.309a1.169,1.169,0,0,0,.215.787,1,1,0,0,0,.769.242,3.29,3.29,0,0,0,.747-.088V-.026a5.26,5.26,0,0,1-1.406.2q-2.461,0-2.461-2.716V-7.928H18.778V-9.51h1.564v-2.312Zm7.5,12A4.419,4.419,0,0,1,26.684-1.1a4.639,4.639,0,0,1-1.261-3.406v-.264a5.706,5.706,0,0,1,.549-2.544,4.181,4.181,0,0,1,1.542-1.745,4.078,4.078,0,0,1,2.215-.624,3.733,3.733,0,0,1,3,1.239A5.24,5.24,0,0,1,33.79-4.939v.861H27.576a2.856,2.856,0,0,0,.787,1.863,2.362,2.362,0,0,0,1.736.686,2.892,2.892,0,0,0,2.391-1.187l1.151,1.1A3.845,3.845,0,0,1,32.115-.294,4.774,4.774,0,0,1,29.975.176ZM29.72-7.972a1.8,1.8,0,0,0-1.419.615,3.189,3.189,0,0,0-.69,1.714H31.68V-5.8a2.6,2.6,0,0,0-.571-1.622A1.785,1.785,0,0,0,29.72-7.972ZM-30.625,25h-2.136V15.49h2.136Zm-2.268-11.979a1.133,1.133,0,0,1,.312-.817,1.179,1.179,0,0,1,.892-.325,1.193,1.193,0,0,1,.9.325,1.125,1.125,0,0,1,.316.817,1.1,1.1,0,0,1-.316.8,1.2,1.2,0,0,1-.9.321,1.188,1.188,0,0,1-.892-.321A1.107,1.107,0,0,1-32.893,13.021Zm6.574,2.47.062,1.1a3.419,3.419,0,0,1,2.769-1.274q2.971,0,3.023,3.4V25H-22.6V18.839a1.958,1.958,0,0,0-.391-1.34,1.645,1.645,0,0,0-1.279-.435A2.058,2.058,0,0,0-26.2,18.232V25h-2.136V15.49Zm7.629,4.685a5.654,5.654,0,0,1,1.02-3.529,3.267,3.267,0,0,1,2.733-1.332,3.1,3.1,0,0,1,2.443,1.055V11.5h2.136V25h-1.934l-.105-.984a3.148,3.148,0,0,1-2.558,1.16,3.248,3.248,0,0,1-2.7-1.345A5.861,5.861,0,0,1-18.69,20.175Zm2.136.185A3.958,3.958,0,0,0-16,22.623a1.811,1.811,0,0,0,1.586.813,2.017,2.017,0,0,0,1.916-1.169V18.206a1.986,1.986,0,0,0-1.9-1.143,1.824,1.824,0,0,0-1.6.822A4.408,4.408,0,0,0-16.554,20.359Zm12.612,4.816A4.419,4.419,0,0,1-7.233,23.9a4.639,4.639,0,0,1-1.261-3.406v-.264a5.706,5.706,0,0,1,.549-2.544A4.181,4.181,0,0,1-6.4,15.938a4.078,4.078,0,0,1,2.215-.624,3.733,3.733,0,0,1,3,1.239A5.24,5.24,0,0,1-.127,20.061v.861H-6.341a2.856,2.856,0,0,0,.787,1.863,2.362,2.362,0,0,0,1.736.686,2.892,2.892,0,0,0,2.391-1.187l1.151,1.1A3.845,3.845,0,0,1-1.8,24.706,4.774,4.774,0,0,1-3.942,25.176ZM-4.2,17.028a1.8,1.8,0,0,0-1.419.615,3.189,3.189,0,0,0-.69,1.714h4.069V19.2a2.6,2.6,0,0,0-.571-1.622A1.785,1.785,0,0,0-4.2,17.028Zm9.633,6.442A1.931,1.931,0,0,0,6.763,23a1.591,1.591,0,0,0,.563-1.151H9.338a3.137,3.137,0,0,1-.554,1.657,3.632,3.632,0,0,1-1.406,1.217,4.191,4.191,0,0,1-1.916.448A4.055,4.055,0,0,1,2.3,23.884a5.124,5.124,0,0,1-1.169-3.568V20.1A5.039,5.039,0,0,1,2.29,16.62a4.018,4.018,0,0,1,3.164-1.305,3.907,3.907,0,0,1,2.764.989,3.542,3.542,0,0,1,1.121,2.6H7.326a1.956,1.956,0,0,0-.558-1.345,1.8,1.8,0,0,0-1.332-.527,1.879,1.879,0,0,0-1.6.751,3.834,3.834,0,0,0-.571,2.281V20.4a3.9,3.9,0,0,0,.558,2.307A1.878,1.878,0,0,0,5.436,23.471ZM13.223,25H11.087V15.49h2.136ZM10.956,13.021a1.133,1.133,0,0,1,.312-.817,1.179,1.179,0,0,1,.892-.325,1.193,1.193,0,0,1,.9.325,1.125,1.125,0,0,1,.316.817,1.1,1.1,0,0,1-.316.8,1.2,1.2,0,0,1-.9.321,1.188,1.188,0,0,1-.892-.321A1.107,1.107,0,0,1,10.956,13.021Zm9.923,9.4a.968.968,0,0,0-.47-.87,5,5,0,0,0-1.56-.527,8.02,8.02,0,0,1-1.819-.58,2.428,2.428,0,0,1-1.6-2.241,2.531,2.531,0,0,1,1.037-2.057,4.1,4.1,0,0,1,2.637-.826,4.266,4.266,0,0,1,2.755.844,2.677,2.677,0,0,1,1.05,2.188H20.773a1.316,1.316,0,0,0-.457-1.024,1.752,1.752,0,0,0-1.213-.409,1.893,1.893,0,0,0-1.147.325,1.025,1.025,0,0,0-.444.87.866.866,0,0,0,.413.765,5.68,5.68,0,0,0,1.67.549,7.9,7.9,0,0,1,1.973.659A2.794,2.794,0,0,1,22.632,21a2.342,2.342,0,0,1,.347,1.3,2.478,2.478,0,0,1-1.063,2.079,4.535,4.535,0,0,1-2.786.8,4.917,4.917,0,0,1-2.083-.422,3.428,3.428,0,0,1-1.424-1.16A2.746,2.746,0,0,1,15.113,22h2.074a1.5,1.5,0,0,0,.571,1.165,2.22,2.22,0,0,0,1.4.409,2.16,2.16,0,0,0,1.283-.321A.993.993,0,0,0,20.878,22.416Zm3.56-2.259a5.607,5.607,0,0,1,.554-2.518,4.044,4.044,0,0,1,1.556-1.723,4.383,4.383,0,0,1,2.3-.6,4.154,4.154,0,0,1,3.125,1.239,4.874,4.874,0,0,1,1.3,3.287l.009.5a5.658,5.658,0,0,1-.541,2.514,4,4,0,0,1-1.547,1.714,4.415,4.415,0,0,1-2.325.606,4.125,4.125,0,0,1-3.221-1.34,5.133,5.133,0,0,1-1.208-3.573Zm2.136.185a3.832,3.832,0,0,0,.606,2.3,1.971,1.971,0,0,0,1.688.831,1.95,1.95,0,0,0,1.683-.844,4.232,4.232,0,0,0,.6-2.47,3.782,3.782,0,0,0-.62-2.285,2.089,2.089,0,0,0-3.344-.013A4.152,4.152,0,0,0,26.574,20.342Z" transform="translate(638 14289)" fill="#12263f"/>
    <path id="Trazado_106412" data-name="Trazado 106412" d="M-30.054-5.713H-35.31v3.938h6.144V0h-8.367V-12.8h8.306V-11H-35.31v3.533h5.256ZM-25.291,0h-2.136V-13.5h2.136Zm10.714-1.529A1.931,1.931,0,0,0-13.25-2a1.591,1.591,0,0,0,.563-1.151h2.013a3.137,3.137,0,0,1-.554,1.657A3.632,3.632,0,0,1-12.634-.272,4.191,4.191,0,0,1-14.55.176a4.055,4.055,0,0,1-3.164-1.292,5.124,5.124,0,0,1-1.169-3.568V-4.9a5.039,5.039,0,0,1,1.16-3.476,4.018,4.018,0,0,1,3.164-1.305,3.907,3.907,0,0,1,2.764.989,3.542,3.542,0,0,1,1.121,2.6h-2.013a1.956,1.956,0,0,0-.558-1.345,1.8,1.8,0,0,0-1.332-.527,1.879,1.879,0,0,0-1.6.751,3.834,3.834,0,0,0-.571,2.281V-4.6a3.9,3.9,0,0,0,.558,2.307A1.878,1.878,0,0,0-14.577-1.529ZM-6.79,0H-8.925V-13.5H-6.79Zm4.6,0H-4.329V-9.51h2.136ZM-4.46-11.979a1.133,1.133,0,0,1,.312-.817,1.179,1.179,0,0,1,.892-.325,1.193,1.193,0,0,1,.9.325,1.125,1.125,0,0,1,.316.817,1.1,1.1,0,0,1-.316.8,1.2,1.2,0,0,1-.9.321,1.188,1.188,0,0,1-.892-.321A1.107,1.107,0,0,1-4.46-11.979ZM4.32.176A4.419,4.419,0,0,1,1.028-1.1,4.639,4.639,0,0,1-.233-4.509v-.264A5.706,5.706,0,0,1,.316-7.317,4.181,4.181,0,0,1,1.859-9.062a4.078,4.078,0,0,1,2.215-.624,3.733,3.733,0,0,1,3,1.239A5.24,5.24,0,0,1,8.134-4.939v.861H1.92a2.856,2.856,0,0,0,.787,1.863,2.362,2.362,0,0,0,1.736.686A2.892,2.892,0,0,0,6.833-2.716l1.151,1.1A3.845,3.845,0,0,1,6.46-.294,4.774,4.774,0,0,1,4.32.176ZM4.065-7.972a1.8,1.8,0,0,0-1.419.615,3.189,3.189,0,0,0-.69,1.714H6.025V-5.8a2.6,2.6,0,0,0-.571-1.622A1.785,1.785,0,0,0,4.065-7.972ZM11.773-9.51l.062,1.1A3.419,3.419,0,0,1,14.6-9.686q2.971,0,3.023,3.4V0H15.491V-6.161A1.958,1.958,0,0,0,15.1-7.5a1.645,1.645,0,0,0-1.279-.435A2.058,2.058,0,0,0,11.9-6.768V0H9.76V-9.51Zm10.705-2.312V-9.51h1.679v1.582H22.478v5.309a1.169,1.169,0,0,0,.215.787,1,1,0,0,0,.769.242,3.29,3.29,0,0,0,.747-.088V-.026a5.26,5.26,0,0,1-1.406.2q-2.461,0-2.461-2.716V-7.928H18.778V-9.51h1.564v-2.312Zm7.5,12A4.419,4.419,0,0,1,26.684-1.1a4.639,4.639,0,0,1-1.261-3.406v-.264a5.706,5.706,0,0,1,.549-2.544,4.181,4.181,0,0,1,1.542-1.745,4.078,4.078,0,0,1,2.215-.624,3.733,3.733,0,0,1,3,1.239A5.24,5.24,0,0,1,33.79-4.939v.861H27.576a2.856,2.856,0,0,0,.787,1.863,2.362,2.362,0,0,0,1.736.686,2.892,2.892,0,0,0,2.391-1.187l1.151,1.1A3.845,3.845,0,0,1,32.115-.294,4.774,4.774,0,0,1,29.975.176ZM29.72-7.972a1.8,1.8,0,0,0-1.419.615,3.189,3.189,0,0,0-.69,1.714H31.68V-5.8a2.6,2.6,0,0,0-.571-1.622A1.785,1.785,0,0,0,29.72-7.972ZM-29.131,25.176A4.419,4.419,0,0,1-32.423,23.9a4.639,4.639,0,0,1-1.261-3.406v-.264a5.706,5.706,0,0,1,.549-2.544,4.181,4.181,0,0,1,1.542-1.745,4.078,4.078,0,0,1,2.215-.624,3.733,3.733,0,0,1,3,1.239,5.24,5.24,0,0,1,1.059,3.507v.861h-6.214a2.856,2.856,0,0,0,.787,1.863,2.362,2.362,0,0,0,1.736.686,2.892,2.892,0,0,0,2.391-1.187l1.151,1.1a3.845,3.845,0,0,1-1.525,1.323A4.774,4.774,0,0,1-29.131,25.176Zm-.255-8.147a1.8,1.8,0,0,0-1.419.615,3.189,3.189,0,0,0-.69,1.714h4.069V19.2A2.6,2.6,0,0,0-28,17.578,1.785,1.785,0,0,0-29.386,17.028Zm9.141,1.591,1.811-3.129h2.373l-2.909,4.685L-15.965,25h-2.355l-1.9-3.252L-22.109,25h-2.373l3.006-4.825-2.9-4.685h2.355ZM-12.335,25h-2.136V15.49h2.136ZM-14.6,13.021a1.133,1.133,0,0,1,.312-.817,1.179,1.179,0,0,1,.892-.325,1.193,1.193,0,0,1,.9.325,1.125,1.125,0,0,1,.316.817,1.1,1.1,0,0,1-.316.8,1.2,1.2,0,0,1-.9.321,1.188,1.188,0,0,1-.892-.321A1.107,1.107,0,0,1-14.6,13.021Zm4.219,7.154a5.562,5.562,0,0,1,1.042-3.538,3.343,3.343,0,0,1,2.764-1.323,3.132,3.132,0,0,1,2.558,1.134l.1-.958H-2v9.22a3.832,3.832,0,0,1-1.165,2.953,4.436,4.436,0,0,1-3.142,1.081,5.064,5.064,0,0,1-2.043-.435,3.631,3.631,0,0,1-1.516-1.138l1.011-1.283a3.053,3.053,0,0,0,2.426,1.169,2.359,2.359,0,0,0,1.679-.576,2.206,2.206,0,0,0,.615-1.692v-.642A3.144,3.144,0,0,1-6.6,25.176a3.335,3.335,0,0,1-2.729-1.327A5.742,5.742,0,0,1-10.384,20.175Zm2.127.185a3.829,3.829,0,0,0,.584,2.254,1.879,1.879,0,0,0,1.622.822,2.055,2.055,0,0,0,1.916-1.107V18.145a2.026,2.026,0,0,0-1.9-1.081,1.887,1.887,0,0,0-1.639.835A4.287,4.287,0,0,0-8.257,20.359ZM4.381,25.176A4.419,4.419,0,0,1,1.09,23.9,4.639,4.639,0,0,1-.171,20.491v-.264a5.706,5.706,0,0,1,.549-2.544A4.181,4.181,0,0,1,1.92,15.938a4.078,4.078,0,0,1,2.215-.624,3.733,3.733,0,0,1,3,1.239A5.24,5.24,0,0,1,8.2,20.061v.861H1.982a2.856,2.856,0,0,0,.787,1.863,2.362,2.362,0,0,0,1.736.686A2.892,2.892,0,0,0,6.9,22.284l1.151,1.1a3.845,3.845,0,0,1-1.525,1.323A4.774,4.774,0,0,1,4.381,25.176Zm-.255-8.147a1.8,1.8,0,0,0-1.419.615,3.189,3.189,0,0,0-.69,1.714H6.086V19.2a2.6,2.6,0,0,0-.571-1.622A1.785,1.785,0,0,0,4.126,17.028Zm7.708-1.538.062,1.1a3.419,3.419,0,0,1,2.769-1.274q2.971,0,3.023,3.4V25H15.552V18.839a1.958,1.958,0,0,0-.391-1.34,1.645,1.645,0,0,0-1.279-.435,2.058,2.058,0,0,0-1.925,1.169V25H9.822V15.49ZM22.54,13.179V15.49h1.679v1.582H22.54v5.309a1.169,1.169,0,0,0,.215.787,1,1,0,0,0,.769.242,3.29,3.29,0,0,0,.747-.088v1.652a5.26,5.26,0,0,1-1.406.2q-2.461,0-2.461-2.716V17.072H18.839V15.49H20.4V13.179Zm7.5,12A4.419,4.419,0,0,1,26.745,23.9a4.639,4.639,0,0,1-1.261-3.406v-.264a5.706,5.706,0,0,1,.549-2.544,4.181,4.181,0,0,1,1.542-1.745,4.078,4.078,0,0,1,2.215-.624,3.733,3.733,0,0,1,3,1.239,5.24,5.24,0,0,1,1.059,3.507v.861H27.637a2.856,2.856,0,0,0,.787,1.863,2.362,2.362,0,0,0,1.736.686,2.892,2.892,0,0,0,2.391-1.187l1.151,1.1a3.845,3.845,0,0,1-1.525,1.323A4.774,4.774,0,0,1,30.037,25.176Zm-.255-8.147a1.8,1.8,0,0,0-1.419.615,3.189,3.189,0,0,0-.69,1.714h4.069V19.2a2.6,2.6,0,0,0-.571-1.622A1.785,1.785,0,0,0,29.782,17.028Z" transform="translate(1116 14198)" fill="#12263f"/>
    <path id="Trazado_106408" data-name="Trazado 106408" d="M-30.054-5.713H-35.31v3.938h6.144V0h-8.367V-12.8h8.306V-11H-35.31v3.533h5.256ZM-25.291,0h-2.136V-13.5h2.136Zm10.714-1.529A1.931,1.931,0,0,0-13.25-2a1.591,1.591,0,0,0,.563-1.151h2.013a3.137,3.137,0,0,1-.554,1.657A3.632,3.632,0,0,1-12.634-.272,4.191,4.191,0,0,1-14.55.176a4.055,4.055,0,0,1-3.164-1.292,5.124,5.124,0,0,1-1.169-3.568V-4.9a5.039,5.039,0,0,1,1.16-3.476,4.018,4.018,0,0,1,3.164-1.305,3.907,3.907,0,0,1,2.764.989,3.542,3.542,0,0,1,1.121,2.6h-2.013a1.956,1.956,0,0,0-.558-1.345,1.8,1.8,0,0,0-1.332-.527,1.879,1.879,0,0,0-1.6.751,3.834,3.834,0,0,0-.571,2.281V-4.6a3.9,3.9,0,0,0,.558,2.307A1.878,1.878,0,0,0-14.577-1.529ZM-6.79,0H-8.925V-13.5H-6.79Zm4.6,0H-4.329V-9.51h2.136ZM-4.46-11.979a1.133,1.133,0,0,1,.312-.817,1.179,1.179,0,0,1,.892-.325,1.193,1.193,0,0,1,.9.325,1.125,1.125,0,0,1,.316.817,1.1,1.1,0,0,1-.316.8,1.2,1.2,0,0,1-.9.321,1.188,1.188,0,0,1-.892-.321A1.107,1.107,0,0,1-4.46-11.979ZM4.32.176A4.419,4.419,0,0,1,1.028-1.1,4.639,4.639,0,0,1-.233-4.509v-.264A5.706,5.706,0,0,1,.316-7.317,4.181,4.181,0,0,1,1.859-9.062a4.078,4.078,0,0,1,2.215-.624,3.733,3.733,0,0,1,3,1.239A5.24,5.24,0,0,1,8.134-4.939v.861H1.92a2.856,2.856,0,0,0,.787,1.863,2.362,2.362,0,0,0,1.736.686A2.892,2.892,0,0,0,6.833-2.716l1.151,1.1A3.845,3.845,0,0,1,6.46-.294,4.774,4.774,0,0,1,4.32.176ZM4.065-7.972a1.8,1.8,0,0,0-1.419.615,3.189,3.189,0,0,0-.69,1.714H6.025V-5.8a2.6,2.6,0,0,0-.571-1.622A1.785,1.785,0,0,0,4.065-7.972ZM11.773-9.51l.062,1.1A3.419,3.419,0,0,1,14.6-9.686q2.971,0,3.023,3.4V0H15.491V-6.161A1.958,1.958,0,0,0,15.1-7.5a1.645,1.645,0,0,0-1.279-.435A2.058,2.058,0,0,0,11.9-6.768V0H9.76V-9.51Zm10.705-2.312V-9.51h1.679v1.582H22.478v5.309a1.169,1.169,0,0,0,.215.787,1,1,0,0,0,.769.242,3.29,3.29,0,0,0,.747-.088V-.026a5.26,5.26,0,0,1-1.406.2q-2.461,0-2.461-2.716V-7.928H18.778V-9.51h1.564v-2.312Zm7.5,12A4.419,4.419,0,0,1,26.684-1.1a4.639,4.639,0,0,1-1.261-3.406v-.264a5.706,5.706,0,0,1,.549-2.544,4.181,4.181,0,0,1,1.542-1.745,4.078,4.078,0,0,1,2.215-.624,3.733,3.733,0,0,1,3,1.239A5.24,5.24,0,0,1,33.79-4.939v.861H27.576a2.856,2.856,0,0,0,.787,1.863,2.362,2.362,0,0,0,1.736.686,2.892,2.892,0,0,0,2.391-1.187l1.151,1.1A3.845,3.845,0,0,1,32.115-.294,4.774,4.774,0,0,1,29.975.176ZM29.72-7.972a1.8,1.8,0,0,0-1.419.615,3.189,3.189,0,0,0-.69,1.714H31.68V-5.8a2.6,2.6,0,0,0-.571-1.622A1.785,1.785,0,0,0,29.72-7.972ZM-41.366,25H-43.5V15.49h2.136Zm-2.268-11.979a1.133,1.133,0,0,1,.312-.817,1.179,1.179,0,0,1,.892-.325,1.193,1.193,0,0,1,.9.325,1.125,1.125,0,0,1,.316.817,1.1,1.1,0,0,1-.316.8,1.2,1.2,0,0,1-.9.321,1.188,1.188,0,0,1-.892-.321A1.107,1.107,0,0,1-43.633,13.021Zm6.6,2.47.062.993a3.422,3.422,0,0,1,2.742-1.169,2.629,2.629,0,0,1,2.61,1.459A3.373,3.373,0,0,1-28.7,15.314a2.965,2.965,0,0,1,2.342.87,3.831,3.831,0,0,1,.787,2.566V25h-2.136V18.813a1.891,1.891,0,0,0-.4-1.327,1.731,1.731,0,0,0-1.31-.422,1.778,1.778,0,0,0-1.191.391,2.063,2.063,0,0,0-.646,1.024L-31.241,25h-2.136V18.742a1.523,1.523,0,0,0-1.714-1.679,1.88,1.88,0,0,0-1.819,1.046V25h-2.136V15.49Zm21.981,4.852a5.662,5.662,0,0,1-1,3.52,3.209,3.209,0,0,1-2.689,1.314,3.23,3.23,0,0,1-2.5-1.028v4.509h-2.136V15.49h1.969l.088.967a3.137,3.137,0,0,1,2.558-1.143,3.242,3.242,0,0,1,2.729,1.3,5.813,5.813,0,0,1,.989,3.6Zm-2.127-.185a3.966,3.966,0,0,0-.567-2.259,1.843,1.843,0,0,0-1.622-.835,1.965,1.965,0,0,0-1.881,1.081v4.219a1.983,1.983,0,0,0,1.9,1.107,1.841,1.841,0,0,0,1.6-.822A4.366,4.366,0,0,0-17.178,20.157ZM-7.563,25a3.3,3.3,0,0,1-.246-.888,3.325,3.325,0,0,1-2.5,1.063,3.355,3.355,0,0,1-2.338-.817,2.615,2.615,0,0,1-.905-2.021A2.7,2.7,0,0,1-12.419,20a5.473,5.473,0,0,1,3.23-.813h1.31v-.624a1.666,1.666,0,0,0-.413-1.182,1.638,1.638,0,0,0-1.257-.444,1.881,1.881,0,0,0-1.2.365,1.129,1.129,0,0,0-.466.927h-2.136a2.37,2.37,0,0,1,.519-1.463A3.455,3.455,0,0,1-11.417,15.7a4.955,4.955,0,0,1,1.991-.387,3.99,3.99,0,0,1,2.663.839,2.993,2.993,0,0,1,1.02,2.36V22.8a4.861,4.861,0,0,0,.36,2.048V25ZM-9.91,23.462a2.429,2.429,0,0,0,1.191-.308,2.055,2.055,0,0,0,.839-.826V20.535H-9.031a3.148,3.148,0,0,0-1.784.413,1.338,1.338,0,0,0-.6,1.169A1.248,1.248,0,0,0-11,23.1,1.583,1.583,0,0,0-9.91,23.462ZM.4,23.471A1.931,1.931,0,0,0,1.727,23a1.591,1.591,0,0,0,.563-1.151H4.3a3.137,3.137,0,0,1-.554,1.657,3.632,3.632,0,0,1-1.406,1.217,4.191,4.191,0,0,1-1.916.448,4.055,4.055,0,0,1-3.164-1.292,5.124,5.124,0,0,1-1.169-3.568V20.1a5.039,5.039,0,0,1,1.16-3.476A4.018,4.018,0,0,1,.417,15.314a3.907,3.907,0,0,1,2.764.989A3.542,3.542,0,0,1,4.3,18.9H2.29a1.956,1.956,0,0,0-.558-1.345A1.8,1.8,0,0,0,.4,17.028a1.879,1.879,0,0,0-1.6.751,3.834,3.834,0,0,0-.571,2.281V20.4a3.9,3.9,0,0,0,.558,2.307A1.878,1.878,0,0,0,.4,23.471ZM8.187,25H6.051V15.49H8.187ZM5.919,13.021a1.133,1.133,0,0,1,.312-.817,1.179,1.179,0,0,1,.892-.325,1.193,1.193,0,0,1,.9.325,1.125,1.125,0,0,1,.316.817,1.1,1.1,0,0,1-.316.8,1.2,1.2,0,0,1-.9.321,1.188,1.188,0,0,1-.892-.321A1.107,1.107,0,0,1,5.919,13.021ZM14.7,25.176A4.419,4.419,0,0,1,11.408,23.9a4.639,4.639,0,0,1-1.261-3.406v-.264a5.706,5.706,0,0,1,.549-2.544,4.181,4.181,0,0,1,1.542-1.745,4.078,4.078,0,0,1,2.215-.624,3.733,3.733,0,0,1,3,1.239,5.24,5.24,0,0,1,1.059,3.507v.861H12.3a2.856,2.856,0,0,0,.787,1.863,2.362,2.362,0,0,0,1.736.686,2.892,2.892,0,0,0,2.391-1.187l1.151,1.1a3.845,3.845,0,0,1-1.525,1.323A4.774,4.774,0,0,1,14.7,25.176Zm-.255-8.147a1.8,1.8,0,0,0-1.419.615,3.189,3.189,0,0,0-.69,1.714H16.4V19.2a2.6,2.6,0,0,0-.571-1.622A1.785,1.785,0,0,0,14.445,17.028Zm7.708-1.538.062,1.1a3.419,3.419,0,0,1,2.769-1.274q2.971,0,3.023,3.4V25H25.871V18.839a1.958,1.958,0,0,0-.391-1.34,1.645,1.645,0,0,0-1.279-.435,2.058,2.058,0,0,0-1.925,1.169V25H20.14V15.49Zm10.705-2.312V15.49h1.679v1.582H32.858v5.309a1.169,1.169,0,0,0,.215.787,1,1,0,0,0,.769.242,3.29,3.29,0,0,0,.747-.088v1.652a5.26,5.26,0,0,1-1.406.2q-2.461,0-2.461-2.716V17.072H29.158V15.49h1.564V13.179Zm7.5,12A4.419,4.419,0,0,1,37.063,23.9,4.639,4.639,0,0,1,35.8,20.491v-.264a5.706,5.706,0,0,1,.549-2.544,4.181,4.181,0,0,1,1.542-1.745,4.078,4.078,0,0,1,2.215-.624,3.733,3.733,0,0,1,3,1.239,5.24,5.24,0,0,1,1.059,3.507v.861H37.956a2.856,2.856,0,0,0,.787,1.863,2.362,2.362,0,0,0,1.736.686,2.892,2.892,0,0,0,2.391-1.187l1.151,1.1A3.845,3.845,0,0,1,42.5,24.706,4.774,4.774,0,0,1,40.355,25.176ZM40.1,17.028a1.8,1.8,0,0,0-1.419.615,3.189,3.189,0,0,0-.69,1.714H42.06V19.2a2.6,2.6,0,0,0-.571-1.622A1.785,1.785,0,0,0,40.1,17.028Z" transform="translate(819 14418)" fill="#12263f"/>
    <path id="Trazado_106414" data-name="Trazado 106414" d="M-30.054-5.713H-35.31v3.938h6.144V0h-8.367V-12.8h8.306V-11H-35.31v3.533h5.256ZM-25.291,0h-2.136V-13.5h2.136Zm10.714-1.529A1.931,1.931,0,0,0-13.25-2a1.591,1.591,0,0,0,.563-1.151h2.013a3.137,3.137,0,0,1-.554,1.657A3.632,3.632,0,0,1-12.634-.272,4.191,4.191,0,0,1-14.55.176a4.055,4.055,0,0,1-3.164-1.292,5.124,5.124,0,0,1-1.169-3.568V-4.9a5.039,5.039,0,0,1,1.16-3.476,4.018,4.018,0,0,1,3.164-1.305,3.907,3.907,0,0,1,2.764.989,3.542,3.542,0,0,1,1.121,2.6h-2.013a1.956,1.956,0,0,0-.558-1.345,1.8,1.8,0,0,0-1.332-.527,1.879,1.879,0,0,0-1.6.751,3.834,3.834,0,0,0-.571,2.281V-4.6a3.9,3.9,0,0,0,.558,2.307A1.878,1.878,0,0,0-14.577-1.529ZM-6.79,0H-8.925V-13.5H-6.79Zm4.6,0H-4.329V-9.51h2.136ZM-4.46-11.979a1.133,1.133,0,0,1,.312-.817,1.179,1.179,0,0,1,.892-.325,1.193,1.193,0,0,1,.9.325,1.125,1.125,0,0,1,.316.817,1.1,1.1,0,0,1-.316.8,1.2,1.2,0,0,1-.9.321,1.188,1.188,0,0,1-.892-.321A1.107,1.107,0,0,1-4.46-11.979ZM4.32.176A4.419,4.419,0,0,1,1.028-1.1,4.639,4.639,0,0,1-.233-4.509v-.264A5.706,5.706,0,0,1,.316-7.317,4.181,4.181,0,0,1,1.859-9.062a4.078,4.078,0,0,1,2.215-.624,3.733,3.733,0,0,1,3,1.239A5.24,5.24,0,0,1,8.134-4.939v.861H1.92a2.856,2.856,0,0,0,.787,1.863,2.362,2.362,0,0,0,1.736.686A2.892,2.892,0,0,0,6.833-2.716l1.151,1.1A3.845,3.845,0,0,1,6.46-.294,4.774,4.774,0,0,1,4.32.176ZM4.065-7.972a1.8,1.8,0,0,0-1.419.615,3.189,3.189,0,0,0-.69,1.714H6.025V-5.8a2.6,2.6,0,0,0-.571-1.622A1.785,1.785,0,0,0,4.065-7.972ZM11.773-9.51l.062,1.1A3.419,3.419,0,0,1,14.6-9.686q2.971,0,3.023,3.4V0H15.491V-6.161A1.958,1.958,0,0,0,15.1-7.5a1.645,1.645,0,0,0-1.279-.435A2.058,2.058,0,0,0,11.9-6.768V0H9.76V-9.51Zm10.705-2.312V-9.51h1.679v1.582H22.478v5.309a1.169,1.169,0,0,0,.215.787,1,1,0,0,0,.769.242,3.29,3.29,0,0,0,.747-.088V-.026a5.26,5.26,0,0,1-1.406.2q-2.461,0-2.461-2.716V-7.928H18.778V-9.51h1.564v-2.312Zm7.5,12A4.419,4.419,0,0,1,26.684-1.1a4.639,4.639,0,0,1-1.261-3.406v-.264a5.706,5.706,0,0,1,.549-2.544,4.181,4.181,0,0,1,1.542-1.745,4.078,4.078,0,0,1,2.215-.624,3.733,3.733,0,0,1,3,1.239A5.24,5.24,0,0,1,33.79-4.939v.861H27.576a2.856,2.856,0,0,0,.787,1.863,2.362,2.362,0,0,0,1.736.686,2.892,2.892,0,0,0,2.391-1.187l1.151,1.1A3.845,3.845,0,0,1,32.115-.294,4.774,4.774,0,0,1,29.975.176ZM29.72-7.972a1.8,1.8,0,0,0-1.419.615,3.189,3.189,0,0,0-.69,1.714H31.68V-5.8a2.6,2.6,0,0,0-.571-1.622A1.785,1.785,0,0,0,29.72-7.972ZM-31.531,15.49l.062,1.1A3.419,3.419,0,0,1-28.7,15.314q2.971,0,3.023,3.4V25h-2.136V18.839A1.958,1.958,0,0,0-28.2,17.5a1.645,1.645,0,0,0-1.279-.435,2.058,2.058,0,0,0-1.925,1.169V25h-2.136V15.49Zm12.217,9.686A4.419,4.419,0,0,1-22.605,23.9a4.639,4.639,0,0,1-1.261-3.406v-.264a5.706,5.706,0,0,1,.549-2.544,4.181,4.181,0,0,1,1.542-1.745,4.078,4.078,0,0,1,2.215-.624,3.733,3.733,0,0,1,3,1.239A5.24,5.24,0,0,1-15.5,20.061v.861h-6.214a2.856,2.856,0,0,0,.787,1.863,2.362,2.362,0,0,0,1.736.686A2.892,2.892,0,0,0-16.8,22.284l1.151,1.1a3.845,3.845,0,0,1-1.525,1.323A4.774,4.774,0,0,1-19.314,25.176Zm-.255-8.147a1.8,1.8,0,0,0-1.419.615,3.189,3.189,0,0,0-.69,1.714h4.069V19.2a2.6,2.6,0,0,0-.571-1.622A1.785,1.785,0,0,0-19.569,17.028Zm5.353,3.146a5.562,5.562,0,0,1,1.042-3.538,3.343,3.343,0,0,1,2.764-1.323,3.132,3.132,0,0,1,2.558,1.134l.1-.958h1.925v9.22A3.832,3.832,0,0,1-7,27.663a4.436,4.436,0,0,1-3.142,1.081,5.064,5.064,0,0,1-2.043-.435A3.631,3.631,0,0,1-13.7,27.171l1.011-1.283a3.053,3.053,0,0,0,2.426,1.169,2.359,2.359,0,0,0,1.679-.576,2.206,2.206,0,0,0,.615-1.692v-.642a3.144,3.144,0,0,1-2.461,1.028,3.335,3.335,0,0,1-2.729-1.327A5.742,5.742,0,0,1-14.216,20.175Zm2.127.185a3.829,3.829,0,0,0,.584,2.254,1.879,1.879,0,0,0,1.622.822,2.055,2.055,0,0,0,1.916-1.107V18.145a2.026,2.026,0,0,0-1.9-1.081A1.887,1.887,0,0,0-11.5,17.9,4.287,4.287,0,0,0-12.089,20.359ZM2.043,25a3.3,3.3,0,0,1-.246-.888A3.325,3.325,0,0,1-.7,25.176a3.355,3.355,0,0,1-2.338-.817,2.615,2.615,0,0,1-.905-2.021A2.7,2.7,0,0,1-2.812,20a5.473,5.473,0,0,1,3.23-.813h1.31v-.624a1.666,1.666,0,0,0-.413-1.182A1.638,1.638,0,0,0,.057,16.94a1.881,1.881,0,0,0-1.2.365,1.129,1.129,0,0,0-.466.927H-3.74a2.37,2.37,0,0,1,.519-1.463A3.455,3.455,0,0,1-1.811,15.7,4.955,4.955,0,0,1,.18,15.314a3.99,3.99,0,0,1,2.663.839,2.993,2.993,0,0,1,1.02,2.36V22.8a4.861,4.861,0,0,0,.36,2.048V25ZM-.3,23.462a2.429,2.429,0,0,0,1.191-.308,2.055,2.055,0,0,0,.839-.826V20.535H.576a3.148,3.148,0,0,0-1.784.413,1.338,1.338,0,0,0-.6,1.169,1.248,1.248,0,0,0,.409.98A1.583,1.583,0,0,0-.3,23.462ZM8.776,13.179V15.49h1.679v1.582H8.776v5.309a1.169,1.169,0,0,0,.215.787,1,1,0,0,0,.769.242,3.29,3.29,0,0,0,.747-.088v1.652a5.26,5.26,0,0,1-1.406.2q-2.461,0-2.461-2.716V17.072H5.076V15.49H6.64V13.179ZM14.357,25H12.221V15.49h2.136ZM12.089,13.021A1.133,1.133,0,0,1,12.4,12.2a1.179,1.179,0,0,1,.892-.325,1.193,1.193,0,0,1,.9.325,1.125,1.125,0,0,1,.316.817,1.1,1.1,0,0,1-.316.8,1.2,1.2,0,0,1-.9.321,1.188,1.188,0,0,1-.892-.321A1.107,1.107,0,0,1,12.089,13.021Zm7.945,9.272,2.013-6.8h2.206L20.958,25H19.1l-3.322-9.51H18Zm5.019-2.136a5.607,5.607,0,0,1,.554-2.518,4.044,4.044,0,0,1,1.556-1.723,4.383,4.383,0,0,1,2.3-.6,4.154,4.154,0,0,1,3.125,1.239,4.874,4.874,0,0,1,1.3,3.287l.009.5a5.658,5.658,0,0,1-.541,2.514,4,4,0,0,1-1.547,1.714,4.415,4.415,0,0,1-2.325.606,4.125,4.125,0,0,1-3.221-1.34,5.133,5.133,0,0,1-1.208-3.573Zm2.136.185a3.832,3.832,0,0,0,.606,2.3,1.971,1.971,0,0,0,1.688.831,1.95,1.95,0,0,0,1.683-.844,4.232,4.232,0,0,0,.6-2.47,3.782,3.782,0,0,0-.62-2.285,2.089,2.089,0,0,0-3.344-.013A4.152,4.152,0,0,0,27.189,20.342Z" transform="translate(1174 14392)" fill="#12263f"/>
    <path id="Trazado_106409" data-name="Trazado 106409" d="M-30.054-5.713H-35.31v3.938h6.144V0h-8.367V-12.8h8.306V-11H-35.31v3.533h5.256ZM-25.291,0h-2.136V-13.5h2.136Zm10.714-1.529A1.931,1.931,0,0,0-13.25-2a1.591,1.591,0,0,0,.563-1.151h2.013a3.137,3.137,0,0,1-.554,1.657A3.632,3.632,0,0,1-12.634-.272,4.191,4.191,0,0,1-14.55.176a4.055,4.055,0,0,1-3.164-1.292,5.124,5.124,0,0,1-1.169-3.568V-4.9a5.039,5.039,0,0,1,1.16-3.476,4.018,4.018,0,0,1,3.164-1.305,3.907,3.907,0,0,1,2.764.989,3.542,3.542,0,0,1,1.121,2.6h-2.013a1.956,1.956,0,0,0-.558-1.345,1.8,1.8,0,0,0-1.332-.527,1.879,1.879,0,0,0-1.6.751,3.834,3.834,0,0,0-.571,2.281V-4.6a3.9,3.9,0,0,0,.558,2.307A1.878,1.878,0,0,0-14.577-1.529ZM-6.79,0H-8.925V-13.5H-6.79Zm4.6,0H-4.329V-9.51h2.136ZM-4.46-11.979a1.133,1.133,0,0,1,.312-.817,1.179,1.179,0,0,1,.892-.325,1.193,1.193,0,0,1,.9.325,1.125,1.125,0,0,1,.316.817,1.1,1.1,0,0,1-.316.8,1.2,1.2,0,0,1-.9.321,1.188,1.188,0,0,1-.892-.321A1.107,1.107,0,0,1-4.46-11.979ZM4.32.176A4.419,4.419,0,0,1,1.028-1.1,4.639,4.639,0,0,1-.233-4.509v-.264A5.706,5.706,0,0,1,.316-7.317,4.181,4.181,0,0,1,1.859-9.062a4.078,4.078,0,0,1,2.215-.624,3.733,3.733,0,0,1,3,1.239A5.24,5.24,0,0,1,8.134-4.939v.861H1.92a2.856,2.856,0,0,0,.787,1.863,2.362,2.362,0,0,0,1.736.686A2.892,2.892,0,0,0,6.833-2.716l1.151,1.1A3.845,3.845,0,0,1,6.46-.294,4.774,4.774,0,0,1,4.32.176ZM4.065-7.972a1.8,1.8,0,0,0-1.419.615,3.189,3.189,0,0,0-.69,1.714H6.025V-5.8a2.6,2.6,0,0,0-.571-1.622A1.785,1.785,0,0,0,4.065-7.972ZM11.773-9.51l.062,1.1A3.419,3.419,0,0,1,14.6-9.686q2.971,0,3.023,3.4V0H15.491V-6.161A1.958,1.958,0,0,0,15.1-7.5a1.645,1.645,0,0,0-1.279-.435A2.058,2.058,0,0,0,11.9-6.768V0H9.76V-9.51Zm10.705-2.312V-9.51h1.679v1.582H22.478v5.309a1.169,1.169,0,0,0,.215.787,1,1,0,0,0,.769.242,3.29,3.29,0,0,0,.747-.088V-.026a5.26,5.26,0,0,1-1.406.2q-2.461,0-2.461-2.716V-7.928H18.778V-9.51h1.564v-2.312Zm7.5,12A4.419,4.419,0,0,1,26.684-1.1a4.639,4.639,0,0,1-1.261-3.406v-.264a5.706,5.706,0,0,1,.549-2.544,4.181,4.181,0,0,1,1.542-1.745,4.078,4.078,0,0,1,2.215-.624,3.733,3.733,0,0,1,3,1.239A5.24,5.24,0,0,1,33.79-4.939v.861H27.576a2.856,2.856,0,0,0,.787,1.863,2.362,2.362,0,0,0,1.736.686,2.892,2.892,0,0,0,2.391-1.187l1.151,1.1A3.845,3.845,0,0,1,32.115-.294,4.774,4.774,0,0,1,29.975.176ZM29.72-7.972a1.8,1.8,0,0,0-1.419.615,3.189,3.189,0,0,0-.69,1.714H31.68V-5.8a2.6,2.6,0,0,0-.571-1.622A1.785,1.785,0,0,0,29.72-7.972Zm-66.7,31.442A1.931,1.931,0,0,0-35.648,23a1.591,1.591,0,0,0,.563-1.151h2.013a3.137,3.137,0,0,1-.554,1.657,3.632,3.632,0,0,1-1.406,1.217,4.191,4.191,0,0,1-1.916.448,4.055,4.055,0,0,1-3.164-1.292,5.124,5.124,0,0,1-1.169-3.568V20.1a5.039,5.039,0,0,1,1.16-3.476,4.018,4.018,0,0,1,3.164-1.305,3.907,3.907,0,0,1,2.764.989,3.542,3.542,0,0,1,1.121,2.6h-2.013a1.956,1.956,0,0,0-.558-1.345,1.8,1.8,0,0,0-1.332-.527,1.879,1.879,0,0,0-1.6.751,3.834,3.834,0,0,0-.571,2.281V20.4a3.9,3.9,0,0,0,.558,2.307A1.878,1.878,0,0,0-36.976,23.471Zm5.115-3.313a5.607,5.607,0,0,1,.554-2.518,4.044,4.044,0,0,1,1.556-1.723,4.383,4.383,0,0,1,2.3-.6,4.154,4.154,0,0,1,3.125,1.239,4.874,4.874,0,0,1,1.3,3.287l.009.5a5.658,5.658,0,0,1-.541,2.514,4,4,0,0,1-1.547,1.714,4.415,4.415,0,0,1-2.325.606,4.125,4.125,0,0,1-3.221-1.34,5.133,5.133,0,0,1-1.208-3.573Zm2.136.185a3.832,3.832,0,0,0,.606,2.3,1.971,1.971,0,0,0,1.688.831,1.95,1.95,0,0,0,1.683-.844,4.232,4.232,0,0,0,.6-2.47,3.782,3.782,0,0,0-.62-2.285,1.979,1.979,0,0,0-1.683-.844,1.96,1.96,0,0,0-1.661.831A4.152,4.152,0,0,0-29.725,20.342ZM-19.23,15.49l.062,1.1A3.419,3.419,0,0,1-16.4,15.314q2.971,0,3.023,3.4V25h-2.136V18.839A1.958,1.958,0,0,0-15.9,17.5a1.645,1.645,0,0,0-1.279-.435,2.058,2.058,0,0,0-1.925,1.169V25h-2.136V15.49ZM-5.045,13.2a11.607,11.607,0,0,0-1.547-.123q-1.723,0-1.723,1.617v.8h1.934v1.582H-8.314V25H-10.45V17.072H-11.9V15.49h1.45v-.853A3.183,3.183,0,0,1-9.5,12.172a3.831,3.831,0,0,1,2.667-.857,32.115,32.115,0,0,1,3.92.422V25H-5.045ZM1.723,25H-.413V15.49H1.723ZM-.545,13.021A1.133,1.133,0,0,1-.233,12.2a1.179,1.179,0,0,1,.892-.325,1.193,1.193,0,0,1,.9.325,1.125,1.125,0,0,1,.316.817,1.1,1.1,0,0,1-.316.8,1.2,1.2,0,0,1-.9.321,1.188,1.188,0,0,1-.892-.321A1.107,1.107,0,0,1-.545,13.021Zm8.5,10.45A1.931,1.931,0,0,0,9.281,23a1.591,1.591,0,0,0,.563-1.151h2.013A3.137,3.137,0,0,1,11.3,23.51,3.632,3.632,0,0,1,9.9,24.728a4.191,4.191,0,0,1-1.916.448,4.055,4.055,0,0,1-3.164-1.292,5.124,5.124,0,0,1-1.169-3.568V20.1a5.039,5.039,0,0,1,1.16-3.476,4.018,4.018,0,0,1,3.164-1.305,3.907,3.907,0,0,1,2.764.989,3.542,3.542,0,0,1,1.121,2.6H9.844a1.956,1.956,0,0,0-.558-1.345,1.8,1.8,0,0,0-1.332-.527,1.879,1.879,0,0,0-1.6.751,3.834,3.834,0,0,0-.571,2.281V20.4a3.9,3.9,0,0,0,.558,2.307A1.878,1.878,0,0,0,7.954,23.471Zm8.191-10.292V15.49h1.679v1.582H16.146v5.309a1.169,1.169,0,0,0,.215.787,1,1,0,0,0,.769.242,3.29,3.29,0,0,0,.747-.088v1.652a5.26,5.26,0,0,1-1.406.2q-2.461,0-2.461-2.716V17.072H12.445V15.49H14.01V13.179ZM21.727,25H19.591V15.49h2.136ZM19.459,13.021a1.133,1.133,0,0,1,.312-.817,1.179,1.179,0,0,1,.892-.325,1.193,1.193,0,0,1,.9.325,1.125,1.125,0,0,1,.316.817,1.1,1.1,0,0,1-.316.8,1.2,1.2,0,0,1-.9.321,1.188,1.188,0,0,1-.892-.321A1.107,1.107,0,0,1,19.459,13.021ZM27.4,22.293l2.013-6.8h2.206L28.327,25H26.473L23.15,15.49h2.215Zm5.019-2.136a5.607,5.607,0,0,1,.554-2.518,4.044,4.044,0,0,1,1.556-1.723,4.383,4.383,0,0,1,2.3-.6,4.154,4.154,0,0,1,3.125,1.239,4.874,4.874,0,0,1,1.3,3.287l.009.5a5.658,5.658,0,0,1-.541,2.514,4,4,0,0,1-1.547,1.714,4.415,4.415,0,0,1-2.325.606,4.125,4.125,0,0,1-3.221-1.34,5.133,5.133,0,0,1-1.208-3.573Zm2.136.185a3.832,3.832,0,0,0,.606,2.3,1.971,1.971,0,0,0,1.688.831,1.95,1.95,0,0,0,1.683-.844,4.232,4.232,0,0,0,.6-2.47,3.782,3.782,0,0,0-.62-2.285,2.089,2.089,0,0,0-3.344-.013A4.152,4.152,0,0,0,34.559,20.342Z" transform="translate(962 14326)" fill="#12263f"/>
    <path id="Trazado_106395" data-name="Trazado 106395" d="M71.5,0A71.5,71.5,0,1,1,0,71.5,71.5,71.5,0,0,1,71.5,0Z" transform="translate(205 14178)" fill="url(#linear-gradient)"/>
    <path id="Trazado_106396" data-name="Trazado 106396" d="M-30.054-5.713H-35.31v3.938h6.144V0h-8.367V-12.8h8.306V-11H-35.31v3.533h5.256ZM-25.291,0h-2.136V-13.5h2.136Zm10.714-1.529A1.931,1.931,0,0,0-13.25-2a1.591,1.591,0,0,0,.563-1.151h2.013a3.137,3.137,0,0,1-.554,1.657A3.632,3.632,0,0,1-12.634-.272,4.191,4.191,0,0,1-14.55.176a4.055,4.055,0,0,1-3.164-1.292,5.124,5.124,0,0,1-1.169-3.568V-4.9a5.039,5.039,0,0,1,1.16-3.476,4.018,4.018,0,0,1,3.164-1.305,3.907,3.907,0,0,1,2.764.989,3.542,3.542,0,0,1,1.121,2.6h-2.013a1.956,1.956,0,0,0-.558-1.345,1.8,1.8,0,0,0-1.332-.527,1.879,1.879,0,0,0-1.6.751,3.834,3.834,0,0,0-.571,2.281V-4.6a3.9,3.9,0,0,0,.558,2.307A1.878,1.878,0,0,0-14.577-1.529ZM-6.79,0H-8.925V-13.5H-6.79Zm4.6,0H-4.329V-9.51h2.136ZM-4.46-11.979a1.133,1.133,0,0,1,.312-.817,1.179,1.179,0,0,1,.892-.325,1.193,1.193,0,0,1,.9.325,1.125,1.125,0,0,1,.316.817,1.1,1.1,0,0,1-.316.8,1.2,1.2,0,0,1-.9.321,1.188,1.188,0,0,1-.892-.321A1.107,1.107,0,0,1-4.46-11.979ZM4.32.176A4.419,4.419,0,0,1,1.028-1.1,4.639,4.639,0,0,1-.233-4.509v-.264A5.706,5.706,0,0,1,.316-7.317,4.181,4.181,0,0,1,1.859-9.062a4.078,4.078,0,0,1,2.215-.624,3.733,3.733,0,0,1,3,1.239A5.24,5.24,0,0,1,8.134-4.939v.861H1.92a2.856,2.856,0,0,0,.787,1.863,2.362,2.362,0,0,0,1.736.686A2.892,2.892,0,0,0,6.833-2.716l1.151,1.1A3.845,3.845,0,0,1,6.46-.294,4.774,4.774,0,0,1,4.32.176ZM4.065-7.972a1.8,1.8,0,0,0-1.419.615,3.189,3.189,0,0,0-.69,1.714H6.025V-5.8a2.6,2.6,0,0,0-.571-1.622A1.785,1.785,0,0,0,4.065-7.972ZM11.773-9.51l.062,1.1A3.419,3.419,0,0,1,14.6-9.686q2.971,0,3.023,3.4V0H15.491V-6.161A1.958,1.958,0,0,0,15.1-7.5a1.645,1.645,0,0,0-1.279-.435A2.058,2.058,0,0,0,11.9-6.768V0H9.76V-9.51Zm10.705-2.312V-9.51h1.679v1.582H22.478v5.309a1.169,1.169,0,0,0,.215.787,1,1,0,0,0,.769.242,3.29,3.29,0,0,0,.747-.088V-.026a5.26,5.26,0,0,1-1.406.2q-2.461,0-2.461-2.716V-7.928H18.778V-9.51h1.564v-2.312Zm7.5,12A4.419,4.419,0,0,1,26.684-1.1a4.639,4.639,0,0,1-1.261-3.406v-.264a5.706,5.706,0,0,1,.549-2.544,4.181,4.181,0,0,1,1.542-1.745,4.078,4.078,0,0,1,2.215-.624,3.733,3.733,0,0,1,3,1.239A5.24,5.24,0,0,1,33.79-4.939v.861H27.576a2.856,2.856,0,0,0,.787,1.863,2.362,2.362,0,0,0,1.736.686,2.892,2.892,0,0,0,2.391-1.187l1.151,1.1A3.845,3.845,0,0,1,32.115-.294,4.774,4.774,0,0,1,29.975.176ZM29.72-7.972a1.8,1.8,0,0,0-1.419.615,3.189,3.189,0,0,0-.69,1.714H31.68V-5.8a2.6,2.6,0,0,0-.571-1.622A1.785,1.785,0,0,0,29.72-7.972ZM-22.988,25a3.3,3.3,0,0,1-.246-.888,3.325,3.325,0,0,1-2.5,1.063,3.355,3.355,0,0,1-2.338-.817,2.615,2.615,0,0,1-.905-2.021A2.7,2.7,0,0,1-27.844,20a5.473,5.473,0,0,1,3.23-.813h1.31v-.624a1.666,1.666,0,0,0-.413-1.182,1.638,1.638,0,0,0-1.257-.444,1.881,1.881,0,0,0-1.2.365,1.129,1.129,0,0,0-.466.927h-2.136a2.37,2.37,0,0,1,.519-1.463A3.455,3.455,0,0,1-26.842,15.7a4.955,4.955,0,0,1,1.991-.387,3.99,3.99,0,0,1,2.663.839,2.993,2.993,0,0,1,1.02,2.36V22.8a4.861,4.861,0,0,0,.36,2.048V25Zm-2.347-1.538a2.429,2.429,0,0,0,1.191-.308,2.055,2.055,0,0,0,.839-.826V20.535h-1.151a3.148,3.148,0,0,0-1.784.413,1.338,1.338,0,0,0-.6,1.169,1.248,1.248,0,0,0,.409.98A1.583,1.583,0,0,0-25.334,23.462Zm8.411-7.972.062.993a3.422,3.422,0,0,1,2.742-1.169,2.629,2.629,0,0,1,2.61,1.459,3.373,3.373,0,0,1,2.918-1.459,2.965,2.965,0,0,1,2.342.87,3.831,3.831,0,0,1,.787,2.566V25H-7.6V18.813a1.891,1.891,0,0,0-.4-1.327,1.731,1.731,0,0,0-1.31-.422,1.778,1.778,0,0,0-1.191.391,2.063,2.063,0,0,0-.646,1.024L-11.131,25h-2.136V18.742a1.523,1.523,0,0,0-1.714-1.679A1.88,1.88,0,0,0-16.8,18.109V25h-2.136V15.49ZM2.413,25a3.3,3.3,0,0,1-.246-.888,3.325,3.325,0,0,1-2.5,1.063,3.355,3.355,0,0,1-2.338-.817,2.615,2.615,0,0,1-.905-2.021A2.7,2.7,0,0,1-2.443,20a5.473,5.473,0,0,1,3.23-.813H2.1v-.624a1.666,1.666,0,0,0-.413-1.182A1.638,1.638,0,0,0,.426,16.94a1.881,1.881,0,0,0-1.2.365,1.129,1.129,0,0,0-.466.927H-3.371a2.37,2.37,0,0,1,.519-1.463A3.455,3.455,0,0,1-1.441,15.7a4.955,4.955,0,0,1,1.991-.387,3.99,3.99,0,0,1,2.663.839,2.993,2.993,0,0,1,1.02,2.36V22.8a4.861,4.861,0,0,0,.36,2.048V25ZM.066,23.462a2.429,2.429,0,0,0,1.191-.308,2.055,2.055,0,0,0,.839-.826V20.535H.945a3.148,3.148,0,0,0-1.784.413,1.338,1.338,0,0,0-.6,1.169,1.248,1.248,0,0,0,.409.98A1.583,1.583,0,0,0,.066,23.462Zm14.748-3.12a5.712,5.712,0,0,1-.989,3.524,3.221,3.221,0,0,1-2.72,1.31,3.1,3.1,0,0,1-2.6-1.2L8.4,25H6.464V11.5H8.6v4.9a3.091,3.091,0,0,1,2.487-1.09,3.258,3.258,0,0,1,2.733,1.292,5.807,5.807,0,0,1,.993,3.612Zm-2.136-.185a4.037,4.037,0,0,0-.545-2.32,1.815,1.815,0,0,0-1.582-.773A1.983,1.983,0,0,0,8.6,18.276V22.2a2,2,0,0,0,1.969,1.239,1.8,1.8,0,0,0,1.547-.747,3.912,3.912,0,0,0,.563-2.259ZM18.875,25H16.739V11.5h2.136Zm6.513.176A4.419,4.419,0,0,1,22.1,23.9a4.639,4.639,0,0,1-1.261-3.406v-.264a5.706,5.706,0,0,1,.549-2.544,4.181,4.181,0,0,1,1.542-1.745,4.078,4.078,0,0,1,2.215-.624,3.733,3.733,0,0,1,3,1.239A5.24,5.24,0,0,1,29.2,20.061v.861H22.988a2.856,2.856,0,0,0,.787,1.863,2.362,2.362,0,0,0,1.736.686A2.892,2.892,0,0,0,27.9,22.284l1.151,1.1a3.845,3.845,0,0,1-1.525,1.323A4.774,4.774,0,0,1,25.387,25.176Zm-.255-8.147a1.8,1.8,0,0,0-1.419.615,3.189,3.189,0,0,0-.69,1.714h4.069V19.2a2.6,2.6,0,0,0-.571-1.622A1.785,1.785,0,0,0,25.132,17.028Z" transform="translate(276 14244)" fill="#12263f"/>
    <path id="Trazado_106416" data-name="Trazado 106416" d="M-30.054-5.713H-35.31v3.938h6.144V0h-8.367V-12.8h8.306V-11H-35.31v3.533h5.256ZM-25.291,0h-2.136V-13.5h2.136Zm10.714-1.529A1.931,1.931,0,0,0-13.25-2a1.591,1.591,0,0,0,.563-1.151h2.013a3.137,3.137,0,0,1-.554,1.657A3.632,3.632,0,0,1-12.634-.272,4.191,4.191,0,0,1-14.55.176a4.055,4.055,0,0,1-3.164-1.292,5.124,5.124,0,0,1-1.169-3.568V-4.9a5.039,5.039,0,0,1,1.16-3.476,4.018,4.018,0,0,1,3.164-1.305,3.907,3.907,0,0,1,2.764.989,3.542,3.542,0,0,1,1.121,2.6h-2.013a1.956,1.956,0,0,0-.558-1.345,1.8,1.8,0,0,0-1.332-.527,1.879,1.879,0,0,0-1.6.751,3.834,3.834,0,0,0-.571,2.281V-4.6a3.9,3.9,0,0,0,.558,2.307A1.878,1.878,0,0,0-14.577-1.529ZM-6.79,0H-8.925V-13.5H-6.79Zm4.6,0H-4.329V-9.51h2.136ZM-4.46-11.979a1.133,1.133,0,0,1,.312-.817,1.179,1.179,0,0,1,.892-.325,1.193,1.193,0,0,1,.9.325,1.125,1.125,0,0,1,.316.817,1.1,1.1,0,0,1-.316.8,1.2,1.2,0,0,1-.9.321,1.188,1.188,0,0,1-.892-.321A1.107,1.107,0,0,1-4.46-11.979ZM4.32.176A4.419,4.419,0,0,1,1.028-1.1,4.639,4.639,0,0,1-.233-4.509v-.264A5.706,5.706,0,0,1,.316-7.317,4.181,4.181,0,0,1,1.859-9.062a4.078,4.078,0,0,1,2.215-.624,3.733,3.733,0,0,1,3,1.239A5.24,5.24,0,0,1,8.134-4.939v.861H1.92a2.856,2.856,0,0,0,.787,1.863,2.362,2.362,0,0,0,1.736.686A2.892,2.892,0,0,0,6.833-2.716l1.151,1.1A3.845,3.845,0,0,1,6.46-.294,4.774,4.774,0,0,1,4.32.176ZM4.065-7.972a1.8,1.8,0,0,0-1.419.615,3.189,3.189,0,0,0-.69,1.714H6.025V-5.8a2.6,2.6,0,0,0-.571-1.622A1.785,1.785,0,0,0,4.065-7.972ZM11.773-9.51l.062,1.1A3.419,3.419,0,0,1,14.6-9.686q2.971,0,3.023,3.4V0H15.491V-6.161A1.958,1.958,0,0,0,15.1-7.5a1.645,1.645,0,0,0-1.279-.435A2.058,2.058,0,0,0,11.9-6.768V0H9.76V-9.51Zm10.705-2.312V-9.51h1.679v1.582H22.478v5.309a1.169,1.169,0,0,0,.215.787,1,1,0,0,0,.769.242,3.29,3.29,0,0,0,.747-.088V-.026a5.26,5.26,0,0,1-1.406.2q-2.461,0-2.461-2.716V-7.928H18.778V-9.51h1.564v-2.312Zm7.5,12A4.419,4.419,0,0,1,26.684-1.1a4.639,4.639,0,0,1-1.261-3.406v-.264a5.706,5.706,0,0,1,.549-2.544,4.181,4.181,0,0,1,1.542-1.745,4.078,4.078,0,0,1,2.215-.624,3.733,3.733,0,0,1,3,1.239A5.24,5.24,0,0,1,33.79-4.939v.861H27.576a2.856,2.856,0,0,0,.787,1.863,2.362,2.362,0,0,0,1.736.686,2.892,2.892,0,0,0,2.391-1.187l1.151,1.1A3.845,3.845,0,0,1,32.115-.294,4.774,4.774,0,0,1,29.975.176ZM29.72-7.972a1.8,1.8,0,0,0-1.419.615,3.189,3.189,0,0,0-.69,1.714H31.68V-5.8a2.6,2.6,0,0,0-.571-1.622A1.785,1.785,0,0,0,29.72-7.972ZM-42.231,15.49l.062,1.1A3.419,3.419,0,0,1-39.4,15.314q2.971,0,3.023,3.4V25h-2.136V18.839A1.958,1.958,0,0,0-38.9,17.5a1.645,1.645,0,0,0-1.279-.435,2.058,2.058,0,0,0-1.925,1.169V25h-2.136V15.49Zm12.217,9.686A4.419,4.419,0,0,1-33.306,23.9a4.639,4.639,0,0,1-1.261-3.406v-.264a5.706,5.706,0,0,1,.549-2.544,4.181,4.181,0,0,1,1.542-1.745,4.078,4.078,0,0,1,2.215-.624,3.733,3.733,0,0,1,3,1.239A5.24,5.24,0,0,1-26.2,20.061v.861h-6.214a2.856,2.856,0,0,0,.787,1.863,2.362,2.362,0,0,0,1.736.686A2.892,2.892,0,0,0-27.5,22.284l1.151,1.1a3.845,3.845,0,0,1-1.525,1.323A4.774,4.774,0,0,1-30.015,25.176Zm-.255-8.147a1.8,1.8,0,0,0-1.419.615,3.189,3.189,0,0,0-.69,1.714h4.069V19.2a2.6,2.6,0,0,0-.571-1.622A1.785,1.785,0,0,0-30.27,17.028Zm5.353,3.146a5.562,5.562,0,0,1,1.042-3.538,3.343,3.343,0,0,1,2.764-1.323,3.132,3.132,0,0,1,2.558,1.134l.1-.958h1.925v9.22A3.832,3.832,0,0,1-17.7,27.663a4.436,4.436,0,0,1-3.142,1.081,5.064,5.064,0,0,1-2.043-.435A3.631,3.631,0,0,1-24.4,27.171l1.011-1.283a3.053,3.053,0,0,0,2.426,1.169,2.359,2.359,0,0,0,1.679-.576,2.206,2.206,0,0,0,.615-1.692v-.642a3.144,3.144,0,0,1-2.461,1.028,3.335,3.335,0,0,1-2.729-1.327A5.742,5.742,0,0,1-24.917,20.175Zm2.127.185a3.829,3.829,0,0,0,.584,2.254,1.879,1.879,0,0,0,1.622.822,2.055,2.055,0,0,0,1.916-1.107V18.145a2.026,2.026,0,0,0-1.9-1.081,1.887,1.887,0,0,0-1.639.835A4.287,4.287,0,0,0-22.79,20.359Zm8.051-.2a5.607,5.607,0,0,1,.554-2.518,4.044,4.044,0,0,1,1.556-1.723,4.383,4.383,0,0,1,2.3-.6A4.154,4.154,0,0,1-7.2,16.554a4.874,4.874,0,0,1,1.3,3.287l.009.5a5.658,5.658,0,0,1-.541,2.514,4,4,0,0,1-1.547,1.714,4.415,4.415,0,0,1-2.325.606,4.125,4.125,0,0,1-3.221-1.34,5.133,5.133,0,0,1-1.208-3.573Zm2.136.185A3.832,3.832,0,0,0-12,22.64a1.971,1.971,0,0,0,1.688.831,1.95,1.95,0,0,0,1.683-.844,4.232,4.232,0,0,0,.6-2.47,3.782,3.782,0,0,0-.62-2.285,1.979,1.979,0,0,0-1.683-.844,1.96,1.96,0,0,0-1.661.831A4.152,4.152,0,0,0-12.6,20.342ZM-.185,23.471A1.931,1.931,0,0,0,1.143,23a1.591,1.591,0,0,0,.563-1.151H3.718a3.137,3.137,0,0,1-.554,1.657,3.632,3.632,0,0,1-1.406,1.217,4.191,4.191,0,0,1-1.916.448,4.055,4.055,0,0,1-3.164-1.292,5.124,5.124,0,0,1-1.169-3.568V20.1a5.039,5.039,0,0,1,1.16-3.476A4.018,4.018,0,0,1-.167,15.314,3.907,3.907,0,0,1,2.6,16.3a3.542,3.542,0,0,1,1.121,2.6H1.705a1.956,1.956,0,0,0-.558-1.345,1.8,1.8,0,0,0-1.332-.527,1.879,1.879,0,0,0-1.6.751,3.834,3.834,0,0,0-.571,2.281V20.4A3.9,3.9,0,0,0-1.8,22.71,1.878,1.878,0,0,0-.185,23.471ZM7.6,25H5.467V15.49H7.6ZM5.335,13.021a1.133,1.133,0,0,1,.312-.817,1.179,1.179,0,0,1,.892-.325,1.193,1.193,0,0,1,.9.325,1.125,1.125,0,0,1,.316.817,1.1,1.1,0,0,1-.316.8,1.2,1.2,0,0,1-.9.321,1.188,1.188,0,0,1-.892-.321A1.107,1.107,0,0,1,5.335,13.021ZM15.609,25a3.3,3.3,0,0,1-.246-.888,3.325,3.325,0,0,1-2.5,1.063,3.355,3.355,0,0,1-2.338-.817,2.615,2.615,0,0,1-.905-2.021A2.7,2.7,0,0,1,10.753,20a5.473,5.473,0,0,1,3.23-.813h1.31v-.624a1.666,1.666,0,0,0-.413-1.182,1.638,1.638,0,0,0-1.257-.444,1.881,1.881,0,0,0-1.2.365,1.129,1.129,0,0,0-.466.927H9.826a2.37,2.37,0,0,1,.519-1.463A3.455,3.455,0,0,1,11.755,15.7a4.955,4.955,0,0,1,1.991-.387,3.99,3.99,0,0,1,2.663.839,2.993,2.993,0,0,1,1.02,2.36V22.8a4.861,4.861,0,0,0,.36,2.048V25Zm-2.347-1.538a2.429,2.429,0,0,0,1.191-.308,2.055,2.055,0,0,0,.839-.826V20.535H14.142a3.148,3.148,0,0,0-1.784.413,1.338,1.338,0,0,0-.6,1.169,1.248,1.248,0,0,0,.409.98A1.583,1.583,0,0,0,13.263,23.462Zm6-3.287a5.654,5.654,0,0,1,1.02-3.529,3.267,3.267,0,0,1,2.733-1.332,3.1,3.1,0,0,1,2.443,1.055V11.5H27.6V25H25.664l-.105-.984A3.148,3.148,0,0,1,23,25.176a3.248,3.248,0,0,1-2.7-1.345A5.861,5.861,0,0,1,19.266,20.175Zm2.136.185a3.958,3.958,0,0,0,.558,2.263,1.811,1.811,0,0,0,1.586.813,2.017,2.017,0,0,0,1.916-1.169V18.206a1.986,1.986,0,0,0-1.9-1.143,1.824,1.824,0,0,0-1.6.822A4.408,4.408,0,0,0,21.4,20.359Zm8.024-.2a5.607,5.607,0,0,1,.554-2.518,4.044,4.044,0,0,1,1.556-1.723,4.383,4.383,0,0,1,2.3-.6,4.154,4.154,0,0,1,3.125,1.239,4.874,4.874,0,0,1,1.3,3.287l.009.5a5.658,5.658,0,0,1-.541,2.514,4,4,0,0,1-1.547,1.714,4.415,4.415,0,0,1-2.325.606,4.125,4.125,0,0,1-3.221-1.34,5.133,5.133,0,0,1-1.208-3.573Zm2.136.185a3.832,3.832,0,0,0,.606,2.3,1.971,1.971,0,0,0,1.688.831,1.95,1.95,0,0,0,1.683-.844,4.232,4.232,0,0,0,.6-2.47,3.782,3.782,0,0,0-.62-2.285,2.089,2.089,0,0,0-3.344-.013A4.152,4.152,0,0,0,31.562,20.342Zm13.491-2.9a5.285,5.285,0,0,0-.87-.07A1.959,1.959,0,0,0,42.205,18.5V25H40.069V15.49h2.039l.053,1.063a2.406,2.406,0,0,1,2.145-1.239,2,2,0,0,1,.756.123Z" transform="translate(1298 14289)" fill="#12263f"/>
  </g>
</svg>
