<svg xmlns="http://www.w3.org/2000/svg" width="350.359" height="247.872" viewBox="0 0 350.359 247.872">
  <g id="Grupo_85091" data-name="Grupo 85091" transform="translate(-303.809 -11172.604)">
    <g id="Shadow" transform="translate(303.809 11400.015)">
      <ellipse id="_Path_" data-name="&lt;Path&gt;" cx="175.179" cy="10.231" rx="175.179" ry="10.231" fill="#f5f5f5"/>
    </g>
    <g id="Grupo_85090" data-name="Grupo 85090" transform="translate(341.21 11172.604)">
      <g id="Grupo_85069" data-name="Grupo 85069" transform="translate(183.088 11.665)">
        <path id="Trazado_105367" data-name="Trazado 105367" d="M2467.081,879.282l79.457.4a16.028,16.028,0,0,0,16.11-15.948l.873-171.968a16.029,16.029,0,0,0-15.948-16.11l-79.456-.4a16.028,16.028,0,0,0-16.11,15.948l-.873,171.969A16.029,16.029,0,0,0,2467.081,879.282Z" transform="translate(-2445.831 -673.043)" fill="#53bced"/>
        <g id="Grupo_85068" data-name="Grupo 85068" transform="translate(0)">
          <g id="Grupo_85067" data-name="Grupo 85067">
            <path id="Trazado_105368" data-name="Trazado 105368" d="M2551.17,868.85c-.035-4.193-1.449-174.918-1.511-182.375a21,21,0,0,0-21.028-20.693l-79.618-.041a20.537,20.537,0,0,0-20.685,20.655l1.511,182.375a21,21,0,0,0,21.028,20.693l79.618.041A20.536,20.536,0,0,0,2551.17,868.85Zm-20.427-2.234-80.513-.042a12.112,12.112,0,0,1-12.128-11.935l-.757-91.293-.641-77.386a11.845,11.845,0,0,1,11.931-11.913l80.512.042a12.111,12.111,0,0,1,12.128,11.935c.339,40.961,1.367,164.995,1.4,168.679A11.844,11.844,0,0,1,2530.743,866.617Z" transform="translate(-2428.328 -665.741)" fill="#2f2f3b"/>
          </g>
        </g>
      </g>
      <g id="Grupo_85082" data-name="Grupo 85082" transform="translate(0 6.613)">
        <g id="Grupo_85077" data-name="Grupo 85077" transform="translate(31.284 0)">
          <g id="Grupo_85070" data-name="Grupo 85070" transform="translate(64.603 76.948)">
            <path id="Trazado_105369" data-name="Trazado 105369" d="M2054.421,995.111a1.178,1.178,0,0,1-1.129-1.514l5.3-17.77a1.177,1.177,0,1,1,2.256.673l-5.3,17.77A1.178,1.178,0,0,1,2054.421,995.111Z" transform="translate(-2053.243 -974.986)" fill="#f7cc7f"/>
          </g>
          <g id="Grupo_85076" data-name="Grupo 85076">
            <rect id="Rectángulo_33824" data-name="Rectángulo 33824" width="35.436" height="46.732" transform="translate(58.765 91.859)" fill="#5fd6ff"/>
            <path id="Trazado_105370" data-name="Trazado 105370" d="M2169.161,869.248l.645.577a.794.794,0,0,0,1.115-.028l11.447-12.584a.779.779,0,0,0-.085-1.1l-.645-.577a.793.793,0,0,0-1.115.028l-11.447,12.584A.778.778,0,0,0,2169.161,869.248Z" transform="translate(-2077.397 -806.192)" fill="#2f2f3b"/>
            <path id="Trazado_105371" data-name="Trazado 105371" d="M1999.333,870.634c1.53-1.244,13.361,3.948,13.211,5.755s8.256,19.328,8.256,19.328l14.527-11.583.006,0c.128-.419,1.506-4.924,1.573-5.73.07-.845,2.525-2.325,3.665-2.107s-.975,1.648-1.114,1.91c-.378.715,1.083.983,1.083.983s4.2-2.3,4.287-3.658.956-4.194,1.862-3.6c.468.306.464,2.321.318,3.277.27-1.085.652-2.31,1.023-2.432.679-.222,1.017.642.893,1.066s-1.219,5.031-1.553,5.55-7.1,5.967-8.08,7.153c0,0-18.79,21.48-20.128,22.042-1.174.493-5.359-6.909-9.314-11.823S1994.551,874.521,1999.333,870.634Z" transform="translate(-1946.376 -817.8)" fill="#f7a491"/>
            <path id="Trazado_105372" data-name="Trazado 105372" d="M1794.652,1527.352s-2.583,2.519-2.641,3.444-.229,10.83.826,11.755,4.15,1.58,3.155,2.62c-.752.786-6.54.618-10.376.407-1.12-.062-2.524-9-2.968-10.309-.644-1.907-2.21-6.2-1.625-7.532a11.172,11.172,0,0,1,3.574-3.221,17.577,17.577,0,0,0,3.958-4.216Z" transform="translate(-1779.609 -1316.574)" fill="#f48c7f"/>
            <path id="Trazado_105373" data-name="Trazado 105373" d="M1944.679,1575.406s-2.311,6.527-2.313,6.544c-.172,1.034-.848,3.589-.848,4.529,0,3.532,15.928-3,12.358-4.563a3.776,3.776,0,0,1-1.443-2.475c-.164-1.852,1.342-4.175,1.342-4.175Z" transform="translate(-1902.89 -1358.761)" fill="#f7a491"/>
            <g id="Grupo_85071" data-name="Grupo 85071" transform="translate(5.872 95.095)">
              <path id="Trazado_105374" data-name="Trazado 105374" d="M1975.425,1053.043s1.161,11.7,1.161,11.876c0,18.929,3.752,55.9,3.038,59.463-1.741,8.68-20.478,52.961-20.478,52.961l-10.126-1.21,13.2-53.017-4.856-21.339-6.871-42.182Z" transform="translate(-1914.52 -1053.043)" fill="#272733"/>
              <path id="Trazado_105375" data-name="Trazado 105375" d="M1827.541,1068.905,1825.619,1080l-5.2,45.645-19.8,44.612s2.785,6.491,6.893,7.4l31.511-45.8,19.574-58.608-.687-13.021Z" transform="translate(-1800.622 -1058.555)" fill="#2f2f3b"/>
            </g>
            <path id="Trazado_105376" data-name="Trazado 105376" d="M2031.482,832.078l-14.043,1.434s-.644-11.512-.644-17c0-6.662.567-15.243,1.372-15.058a12.239,12.239,0,0,1,7.11,4.252C2031.542,814.31,2031.482,832.078,2031.482,832.078Z" transform="translate(-1960.667 -764.845)" fill="#efab50"/>
            <path id="Trazado_105377" data-name="Trazado 105377" d="M1816.638,942.913c-2.142-3.465-2.623-2.973-2.886-3.425-.311-.534.034-8.782.034-8.782s.859-24.318.951-25.629l10.97-22.45-9.483-8.813s-11.291,24.754-11.657,26.155,2.245,34.451,2.382,37.367c0,0-1.1,3.526-1.717,5.764a19.954,19.954,0,0,0-.3,5.309,21.027,21.027,0,0,0,.4,5.079c.472,2.39,1.1-.085,1.1-.085s-.093-4.578.263-4.52c.275.045.18,2.547.676,5.2.127.681.255,1.353.378,1.969.322,1.617,1.389,1.889,1.317.145a16.751,16.751,0,0,0-.241-2.362,13.934,13.934,0,0,1-.1-2.225,18.118,18.118,0,0,1-.085-2.294c.073.036.244-.238.4.48.189.865.191,2.787.566,4.037.212.709.568,2.217.568,2.217a14.709,14.709,0,0,0,1.1,2.169c.778-.068.538-1.74.126-2.667a11.251,11.251,0,0,0-.384-2.3s-.143-3.373.326-3.4c.2-.01.531,2.051,1.169,4.022.591,1.831,1.482,3.585,1.855,3.525.633-.1.189-2.2.189-2.2s-.389-1.456-.481-1.949c-.109-.578-.3-2.333-.3-2.333s-.4-6.139.047-6.122a2.905,2.905,0,0,1,1.735.9c.154.373.086,1.2.24,1.577a1,1,0,0,0,1.134.576c.463-.152.395-2.238.395-2.238A6.73,6.73,0,0,0,1816.638,942.913Z" transform="translate(-1797.751 -820.387)" fill="#f8a492"/>
            <path id="Trazado_105378" data-name="Trazado 105378" d="M1935.206,813.871c.294,2.031,5.692,57.252,5.692,57.252-25.568,12.349-39.676,2.2-39.676,2.2s.837-38.777-.166-44.055c-.664-3.492-1.49-26.7.772-27.346a56.651,56.651,0,0,1,9.863-2.1c3.1-.322,15.132-.508,17.285.215A27.418,27.418,0,0,1,1935.206,813.871Z" transform="translate(-1871.288 -763.383)" fill="#ffc063"/>
            <path id="Trazado_105379" data-name="Trazado 105379" d="M1828.223,833.305l12.165,8.167s6.856-10.2,10.536-13.834c4.611-4.55-1.679-18.489-4.649-17.7C1839.63,811.7,1828.223,833.305,1828.223,833.305Z" transform="translate(-1815.934 -771.337)" fill="#ffc063"/>
            <path id="Trazado_105380" data-name="Trazado 105380" d="M1780.478,1538.165s5.951,16.755,8.28,17.564c.618.215,3.586.76,4.146,2.072a5.68,5.68,0,0,1,0,1.716h-12.4s-1.569-7.383-2.188-10.626c0,0-3.284-7.926-2.919-8.646S1780.478,1538.165,1780.478,1538.165Z" transform="translate(-1775.365 -1330.286)" fill="#f5fcff"/>
            <path id="Trazado_105381" data-name="Trazado 105381" d="M1937.622,1609.489l1.824-5.762s3.83,1.62,5.746,1.35a57.986,57.986,0,0,0,5.655-1.35c7.645,2.516,13.908,3.738,12.769,5.762h-25.993Z" transform="translate(-1899.899 -1380.605)" fill="#f5fcff"/>
            <path id="Trazado_105382" data-name="Trazado 105382" d="M1957.556,749.66l-1.881,11.5s6.886,14.633,11,13.4c3.452-1.034,1.328-13.6,1.328-13.6s-1.882-6.75-1.317-10.127S1957.556,749.66,1957.556,749.66Z" transform="translate(-1913.755 -724.555)" fill="#f7a491"/>
            <path id="Trazado_105383" data-name="Trazado 105383" d="M1972.38,750.833c.564-3.377-9.131-1.173-9.131-1.173l-.156.989a5.469,5.469,0,0,0,1.051,1.663,13.018,13.018,0,0,0,8.477,3.679A17.67,17.67,0,0,1,1972.38,750.833Z" transform="translate(-1919.449 -724.555)" fill="#f47458"/>
            <g id="Grupo_85072" data-name="Grupo 85072" transform="translate(34.446)">
              <path id="Trazado_105384" data-name="Trazado 105384" d="M1954.448,667.1c-.274-.1-2.2,13.587,1.452,17.352s10.755,5,13.3,2.032c2.82-3.28,2.678-17.985-2.993-21.858S1954.448,667.1,1954.448,667.1Z" transform="translate(-1946.684 -658.869)" fill="#f7a491"/>
              <path id="Trazado_105385" data-name="Trazado 105385" d="M1932.628,646.964c-1.991.226-4.7,1.281-7.49,5.717-3.435,5.455-.9,11.5,3.1,14.463s3.927,6.361,3.927,6.361l.648-1.743a9.515,9.515,0,0,0,.5-4.173,7.888,7.888,0,0,0-.647-2.509c-.962-1.98,2.066-3.3,2.915-4.943.653-1.269.685-4.171,1.715-6.268l1.23-1.6s2.837-2.118,5.614-1.52S1943.509,638.357,1932.628,646.964Z" transform="translate(-1923.526 -644.009)" fill="#2f2f3b"/>
              <path id="Trazado_105386" data-name="Trazado 105386" d="M1962.568,713.98c.029,1.669-.762,3.036-1.767,3.053s-1.844-1.324-1.872-2.993.762-3.036,1.767-3.052S1962.539,712.311,1962.568,713.98Z" transform="translate(-1950.697 -695.416)" fill="#f7a491"/>
            </g>
            <g id="Grupo_85073" data-name="Grupo 85073" transform="translate(71.317 75.851)">
              <path id="Trazado_105387" data-name="Trazado 105387" d="M2084.16,992.835a.754.754,0,0,1-.884-.614,87.5,87.5,0,0,1-1.066-9.19c-.4-7.169.566-11.224,2.954-12.4s6.205.5,11.679,5.114a87.068,87.068,0,0,1,6.683,6.35.754.754,0,0,1-.04,1.076h0a.754.754,0,0,1-1.059-.042c-4.981-5.336-13.464-12.678-16.6-11.139s-2.351,12.758-1.07,19.973a.753.753,0,0,1-.6.872Z" transform="translate(-2082.122 -970.271)" fill="#d64747"/>
            </g>
            <g id="Grupo_85074" data-name="Grupo 85074" transform="translate(73.794 75.567)">
              <path id="Trazado_105388" data-name="Trazado 105388" d="M2098.07,987c-.638,0,.023-.267-.023-.906-1.219-17.148-5.05-15.371-5.219-15.855a.943.943,0,0,1,1.225-1.145c.539.192,4.848,2.294,5.194,16.7a1.177,1.177,0,0,1-1.149,1.2Z" transform="translate(-2092.775 -969.049)" fill="#5fd6ff"/>
            </g>
            <path id="Trazado_105389" data-name="Trazado 105389" d="M2096.01,1010.191l-25.609,12.221,12.155,49.664,43.219-21.862Z" transform="translate(-2001.809 -925.059)" fill="#ff5353"/>
            <g id="Grupo_85075" data-name="Grupo 85075" transform="translate(71.083 76.388)">
              <path id="Trazado_105390" data-name="Trazado 105390" d="M2082.821,986.982a3.339,3.339,0,0,0,.385-.287c-.455-5.41-.373-10.652,1.325-12.425-.041-.085-.412-.874-.8-1.692-1.967,1.522-2.9,5.565-2.536,12.129a11.264,11.264,0,0,0,.26,1.359C2082.026,986.693,2082.544,987.1,2082.821,986.982Z" transform="translate(-2081.118 -972.579)" fill="#f7a491"/>
            </g>
          </g>
          <path id="Trazado_105391" data-name="Trazado 105391" d="M2213.794,1043.6l-33.241-33.409,29.766,40.024,1.009-4.372Z" transform="translate(-2086.352 -925.059)" fill="#d64747"/>
        </g>
        <g id="Grupo_85081" data-name="Grupo 85081" transform="translate(0 20.915)">
          <g id="Grupo_85080" data-name="Grupo 85080">
            <g id="Grupo_85079" data-name="Grupo 85079">
              <path id="Trazado_105392" data-name="Trazado 105392" d="M1703.71,755.676a30.779,30.779,0,0,0-2.951-15.171c-2.054-4.164-7.136-6.527-11.77-6.532-14.716-.018-16.586,18.924-25.954,26.231-2.81,2.192-5.943,3.985-8.618,6.328a12.816,12.816,0,0,0,.707,4.555c2.892,7.662,10.265,12,17.349,15.9a46.4,46.4,0,0,0,20.166,5.225c2.587-5.226,4.411-11.02,6.4-16.42C1701.42,769.323,1703.416,762.586,1703.71,755.676Z" transform="translate(-1651.249 -733.973)" fill="#db6e5f"/>
              <g id="Grupo_85078" data-name="Grupo 85078" transform="translate(36.994 47.388)">
                <path id="Trazado_105393" data-name="Trazado 105393" d="M1840.148,993.89s-1.1-.837-1.447-1.143c-.4-.359-1.527-1.527-1.527-1.527s-3.715-4.248-3.368-4.5,1.4.13,1.729.313.722.365,1.046.547a.747.747,0,0,0,1-.284c.266-.381-.862-1.385-1.323-1.655a59.615,59.615,0,0,0-6.206-2.509c-.532-.209-5.573-8.754-7.54-11.544h0c-3.079-4.664-7.7-10.78-8.025-11.275l-4.986-21.737-9.576-.774s7.052,25.527,7.554,26.762c.239.588,8.239,10.846,8.243,10.843,4.268,4.8,8.4,9.024,9.1,9.855,0,0,1.045,3.05,1.822,5.042a18.168,18.168,0,0,0,2.622,4.038,13.611,13.611,0,0,0,2.955,3.651c1.685,1.47.784-.7.784-.7s-2.616-3.287-2.314-3.451c.232-.127,1.552,1.754,3.4,3.4.475.423.946.839,1.38,1.218,1.142.994,2.1.572,1.076-.659a14.822,14.822,0,0,0-1.495-1.584,12.168,12.168,0,0,1-1.311-1.567,16,16,0,0,1-1.341-1.625c.075-.016.051-.316.569.118.624.521,1.694,1.923,2.673,2.618.555.394,1.662,1.288,1.662,1.288a14.268,14.268,0,0,0,2.061,1.16c.551-.5-.585-1.8-1.411-2.235a9.967,9.967,0,0,0-1.568-1.456s-1.984-2.378-1.642-2.667c.281-.238,6.164,4.531,6.68,3.99C1841.85,995.4,1840.148,993.89,1840.148,993.89Z" transform="translate(-1799.927 -937.805)" fill="#f48c7f"/>
              </g>
              <path id="Trazado_105394" data-name="Trazado 105394" d="M1649.332,1547.158s-1.036,6.993-2.821,9.249a17.9,17.9,0,0,0-2.41,3.084c-1.117,2.131-.5,5.3.324,7.049.423.9-.03.895.934,1.183a5.969,5.969,0,0,0,7.1-3.242,16.086,16.086,0,0,0,1.394-5.958c.3-6.349,2.335-9.577,2.335-9.577Z" transform="translate(-1642.87 -1358.103)" fill="#f7a491"/>
              <path id="Trazado_105395" data-name="Trazado 105395" d="M1798.918,1560.915s.64,7.884.121,10.447c-.278,1.372-1.828,4.2-1.117,5.488a3.522,3.522,0,0,0,1.523,1.614l18.419.288c1,.016.34-.612-.469-1.19a37.416,37.416,0,0,0-6.622-3.562c-.276-.13-1.28-.751-1.642-.966a12.634,12.634,0,0,1-2.635-2.263c-1.322-1.432-1.438-8.375-1.438-8.375Z" transform="translate(-1761.252 -1368.662)" fill="#f7a491"/>
              <path id="Trazado_105396" data-name="Trazado 105396" d="M1806.658,1103.6s2.319,12.8.8,21.194-8.833,86.185-8.833,86.185l-8.123.446s-1.7-32.5-1.4-37.015,2.715-12.082,2.715-12.082l-.809-26.236,10.251-34.467Z" transform="translate(-1754.596 -1016.148)" fill="#ffc063"/>
              <path id="Trazado_105397" data-name="Trazado 105397" d="M1686.981,1088.948s-6.4,9.361-7.919,17.108,1.118,31.555-1.812,41.707c-1.586,5.5-7.6,13.982-8.51,21.083s-4.5,25.7-4.5,25.7l8.12,1.565,18.869-46.456,14.8-41.99,3.792-21.625Z" transform="translate(-1658.793 -1004.191)" fill="#efab50"/>
              <path id="Trazado_105398" data-name="Trazado 105398" d="M1743.178,869.359s-8.469-.524-11.819,3.026,7.432,31.638,8.041,36.158-3.105,16.535-3.105,16.535,19.894,3.892,25.58.234c0,0,1.044-32.81.435-36.038s-6.121-16.041-7.34-17.332S1743.178,869.359,1743.178,869.359Z" transform="translate(-1709.812 -837.863)" fill="#5fd6ff"/>
              <path id="Trazado_105399" data-name="Trazado 105399" d="M1786.193,821.516s-.044.242-.123.655c-.378,1.98-1.832,8.547-2.814,10.353-1.187,2.182,4.064,9.14,9.118,8.291,1.5-.253-1.272-6.394-1.139-7.044.256-1.245.6-2.944.956-4.685l.593-2.915c.54-2.661.981-4.837.981-4.837Z" transform="translate(-1750.008 -801.022)" fill="#f7a491"/>
              <path id="Trazado_105400" data-name="Trazado 105400" d="M1795.162,822.17c.079-.412.122-.655.122-.655l7.573-.184s-.441,2.176-.981,4.837c-.19.931-.391,1.922-.589,2.9a7.174,7.174,0,0,1-3.616-1.763,9.278,9.278,0,0,1-2.739-3.961C1795.025,822.879,1795.1,822.478,1795.162,822.17Z" transform="translate(-1759.099 -801.022)" fill="#f47458"/>
              <path id="Trazado_105401" data-name="Trazado 105401" d="M1790.964,750.061a6.937,6.937,0,0,0-5.807,2.413c-2.238,2.814-4.649,11.516.909,16.247s11.05-.624,11.864-6.3S1799.062,749.856,1790.964,750.061Z" transform="translate(-1749.682 -746.305)" fill="#f7a491"/>
              <path id="Trazado_105402" data-name="Trazado 105402" d="M1845.356,792.676c-.663,1.254-1.777,1.948-2.487,1.551s-.748-1.736-.085-2.991,1.777-1.948,2.487-1.551S1846.019,791.421,1845.356,792.676Z" transform="translate(-1795.463 -776.647)" fill="#f7a491"/>
              <path id="Trazado_105403" data-name="Trazado 105403" d="M1780.342,745.834s-4.769,8.275-8.181,8.657-3.859,4.779-3.859,4.779,1.219-10.132,4.6-12.086A12.863,12.863,0,0,1,1780.342,745.834Z" transform="translate(-1738.66 -743.009)" fill="#db6e5f"/>
              <path id="Trazado_105404" data-name="Trazado 105404" d="M1650.95,1603.719a9.182,9.182,0,0,1-8.9-3.617c-1.125,2.135-1.673,5.32-.846,7.073.729,1.545,2.858,1.5,4.535,1.561a4.394,4.394,0,0,0,4.024-2.394A14.13,14.13,0,0,0,1650.95,1603.719Z" transform="translate(-1640.804 -1398.739)" fill="#2f2f3b"/>
              <path id="Trazado_105405" data-name="Trazado 105405" d="M1808.992,1611.712a17.118,17.118,0,0,1-10.486-.4c-.519,1.431-1.208,3.227-.843,4.263.447,1.268,1.084,1.554,1.646,1.569,4.449.114,16.3.268,19.691.311a.538.538,0,0,0,.43-.886C1818.589,1615.592,1809.355,1611.928,1808.992,1611.712Z" transform="translate(-1761.116 -1407.343)" fill="#2f2f3b"/>
              <path id="Trazado_105406" data-name="Trazado 105406" d="M1776.97,784.6c.278,1.469-.28,2.817-1.246,3.01s-1.974-.842-2.251-2.312.281-2.817,1.246-3.01S1776.693,783.129,1776.97,784.6Z" transform="translate(-1742.574 -771.037)" fill="#f7a491"/>
              <path id="Trazado_105407" data-name="Trazado 105407" d="M1702.135,1070.364a55.806,55.806,0,0,1,6.634-7.572c3.413-3.132,6.717-4.886,11.274-3.9,4.179,1,6.38,3.126,8.136,4.411a46.366,46.366,0,0,1,6.294,6.686l-2.77,1.591a26.992,26.992,0,0,0-5.572-7.423,14.562,14.562,0,0,0-6.038-3.638,10.144,10.144,0,0,0-3.09-.356,7.82,7.82,0,0,0-1.245.173c-4.892,1.136-9.654,8.385-10.8,11.528Z" transform="translate(-1687.876 -983.144)" fill="#b75742"/>
              <path id="Trazado_105408" data-name="Trazado 105408" d="M1687.207,983.926l-4.177,14.539c5.437-.359,18.373,1,21.639,1.149,5.005-.613,6.553-.18,7.769.434.654.33,3.314,1.861,3.314,1.861s2.079,2.989,1.871,3.137c-.7.5-2.588-2.356-2.588-2.356s-1.811-.852-2.092-.941c-.7-.219-.421.089-.421.089.563.272,2.832,1.861,2.832,1.861s3.179,3.106,2.926,3.18a4.863,4.863,0,0,1-2.058-1.07c-.711-.508-1.743-1.512-2.413-1.922-1.176-.719-2.079-.8-1.689-.484.284.228.823.25,1.53.68,1.721,1.046,3.884,3.105,3.523,3.234-.317.114-2.118-1.14-3.793-1.965a11.246,11.246,0,0,0-3.266-.537,3.719,3.719,0,0,0,.605.732c.255.24,2.516,1.271,2.136,1.759s-5.551-1.6-5.551-1.6l-2.482-1.488-.158-.023,0,0s-25.09,5.559-30.265-.115c-4.413-4.839,4.021-25.375,4.073-25.25Z" transform="translate(-1665.607 -921.906)" fill="#f8a492"/>
              <path id="Trazado_105409" data-name="Trazado 105409" d="M1702.135,1070.364a55.806,55.806,0,0,1,6.634-7.572c3.413-3.132,6.717-4.886,11.274-3.9,4.179,1,.295,1.259.031,1.43-1.831-.143-3.085-.16-3.071-.16a7.82,7.82,0,0,0-1.245.173c-4.892,1.136-9.654,8.385-10.8,11.528Z" transform="translate(-1687.876 -983.144)" fill="#d64747"/>
              <path id="Trazado_105410" data-name="Trazado 105410" d="M1702.857,906.982s9.565-14.319,10.425-19.58-3.872-11.77-8.7-11.266-11.477,24.479-11.477,24.479Z" transform="translate(-1680.943 -843.064)" fill="#5fd6ff"/>
              <path id="Trazado_105411" data-name="Trazado 105411" d="M1717.794,1131.251h-28.813a5.124,5.124,0,0,1-5.15-5.87l4.159-21.587h32.232l2.764,21.906A5.134,5.134,0,0,1,1717.794,1131.251Z" transform="translate(-1673.778 -1017.816)" fill="#ff5353"/>
              <path id="Trazado_105412" data-name="Trazado 105412" d="M1813.8,1125.261l-2.764-21.906a41.859,41.859,0,0,0-6.521,0l2.764,21.906a5.133,5.133,0,0,1-5.191,5.551h6.52A5.134,5.134,0,0,0,1813.8,1125.261Z" transform="translate(-1764.589 -1017.376)" fill="#d64747"/>
            </g>
          </g>
        </g>
      </g>
      <g id="Grupo_85086" data-name="Grupo 85086" transform="translate(201.88 38.048)">
        <g id="Grupo_85084" data-name="Grupo 85084" transform="translate(8.5 33.444)">
          <rect id="Rectángulo_33825" data-name="Rectángulo 33825" width="1.528" height="9.697" transform="translate(15.391 15.911)" fill="#272733"/>
          <rect id="Rectángulo_33826" data-name="Rectángulo 33826" width="1.528" height="9.697" transform="translate(52.879 15.911)" fill="#272733"/>
          <path id="Trazado_105413" data-name="Trazado 105413" d="M2679.959,1051.358h-5.987v-4.338a4.631,4.631,0,0,0,.583-.15h-2.029v4.487h-6.981a8.436,8.436,0,0,0-8.427,8.426v.723h31.267v-.723A8.436,8.436,0,0,0,2679.959,1051.358Zm-21.357,7.7a6.991,6.991,0,0,1,6.944-6.257h14.414a6.991,6.991,0,0,1,6.943,6.257Z" transform="translate(-2631.219 -1018.09)" fill="#ffc063"/>
          <path id="Trazado_105414" data-name="Trazado 105414" d="M2691.876,1095.61h15.271l-6.97,17.959Z" transform="translate(-2657.896 -1055.497)" fill="#eaf5f9"/>
          <path id="Trazado_105415" data-name="Trazado 105415" d="M2694.339,1177.235l-8.934-45.166,2.78-20.576s-4.5-4.36-1.527-15.884h-7.283l-3.916,14.513-5.56-14.513h-6.892s1.409,13.338-2.35,14.9l4.229,21.555-5.012,45.166Z" transform="translate(-2633.333 -1055.498)" fill="#f5fcff"/>
          <path id="Trazado_105416" data-name="Trazado 105416" d="M2641.332,1051.358h-5.987v-4.338a4.567,4.567,0,0,0,.583-.15H2633.9v4.487h-6.981a8.435,8.435,0,0,0-8.426,8.426v.723h31.266v-.723A8.435,8.435,0,0,0,2641.332,1051.358Zm-21.357,7.7a6.99,6.99,0,0,1,6.943-6.257h14.414a6.99,6.99,0,0,1,6.943,6.257Z" transform="translate(-2601.573 -1018.09)" fill="#ffc063"/>
          <path id="Trazado_105417" data-name="Trazado 105417" d="M2596.417,1051.358h-5.987v-4.338a4.567,4.567,0,0,0,.583-.15h-2.029v4.487H2582a8.435,8.435,0,0,0-8.427,8.426v.723h31.267v-.723A8.436,8.436,0,0,0,2596.417,1051.358Zm-21.357,7.7A6.99,6.99,0,0,1,2582,1052.8h14.414a6.991,6.991,0,0,1,6.944,6.257Z" transform="translate(-2567.1 -1018.09)" fill="#efab50"/>
          <path id="Trazado_105418" data-name="Trazado 105418" d="M2565.128,1098.749l-5.639,40.8a21.6,21.6,0,0,0,16.446,1.566c4.671-1.485,6.97,1.331,10.808,1.723s8.379-1.018,8.928-1.018-3.642-43.074-3.642-43.074Z" transform="translate(-2556.287 -1057.907)" fill="#ff5353"/>
          <path id="Trazado_105419" data-name="Trazado 105419" d="M2607.328,1142.061c.208-.009.417-.021.629-.036l1.505-43.276h-.626Z" transform="translate(-2593.004 -1057.907)" fill="#d64747"/>
          <path id="Trazado_105420" data-name="Trazado 105420" d="M2622.58,1103.832a1.4,1.4,0,1,1-1.4-1.266A1.337,1.337,0,0,1,2622.58,1103.832Z" transform="translate(-2602.567 -1060.836)" fill="#f5fcff"/>
          <path id="Trazado_105421" data-name="Trazado 105421" d="M2622.58,1146.445a1.4,1.4,0,1,1-1.4-1.266A1.337,1.337,0,0,1,2622.58,1146.445Z" transform="translate(-2602.567 -1093.542)" fill="#f5fcff"/>
          <path id="Trazado_105422" data-name="Trazado 105422" d="M2667.159,1023.239a2.326,2.326,0,0,1-.082.632H2658.1a4.348,4.348,0,0,0-.571-2.832h8.389A2.515,2.515,0,0,1,2667.159,1023.239Z" transform="translate(-2631.535 -998.264)" fill="#2f2f3b"/>
          <path id="Trazado_105423" data-name="Trazado 105423" d="M2613.8,1127.565v2.836h-2.35v8.887h-4.724V1130.4h-54.947v8.887h-4.724V1130.4h-1.335v-3.1a.384.384,0,0,1,.384-.384h8.363v-94.23a11.66,11.66,0,0,1,11.346-11.641c.1-.006.207-.006.307-.006h3.54a2.516,2.516,0,0,1,1.241,2.2,2.345,2.345,0,0,1-.082.632h-4.7a8.847,8.847,0,0,0-8.821,8.822V1125.8h46.594v-93.115a8.827,8.827,0,0,0-8.815-8.815H2591.7a4.352,4.352,0,0,0-.57-2.832h3.94a11.648,11.648,0,0,1,11.647,11.648v94.23h6.425A.648.648,0,0,1,2613.8,1127.565Z" transform="translate(-2545.717 -998.264)" fill="#272733"/>
          <rect id="Rectángulo_33827" data-name="Rectángulo 33827" width="50.894" height="17.212" transform="translate(8.748)" fill="#ff5353"/>
          <path id="Trazado_105424" data-name="Trazado 105424" d="M2710.617,1023.239a2.345,2.345,0,0,1-.082.632h-7.512a4.35,4.35,0,0,0-.571-2.832h6.923A2.516,2.516,0,0,1,2710.617,1023.239Z" transform="translate(-2666.014 -998.264)" fill="#2f2f3b"/>
          <path id="Trazado_105425" data-name="Trazado 105425" d="M2720.461,1017.854a3.8,3.8,0,0,1-2.65,3.177h-2.03V1019.8h.721a2.574,2.574,0,0,0,2.493-1.943,2.327,2.327,0,0,0,.082-.633,2.516,2.516,0,0,0-1.241-2.2,2.582,2.582,0,0,0-2.675,0h-1.178l-.507-.445a4.011,4.011,0,0,1,3.026-1.378,3.816,3.816,0,0,1,3.39,1.823A4.346,4.346,0,0,1,2720.461,1017.854Z" transform="translate(-2674.474 -992.246)" fill="#ffc063"/>
          <path id="Trazado_105426" data-name="Trazado 105426" d="M2681.823,1017.854a3.8,3.8,0,0,1-2.657,3.177h-2.023V1019.8h.72a2.574,2.574,0,0,0,2.494-1.943,2.346,2.346,0,0,0,.082-.633,2.515,2.515,0,0,0-1.241-2.2,2.582,2.582,0,0,0-2.675,0h-1.184l-.507-.445a4.024,4.024,0,0,1,3.032-1.378,3.815,3.815,0,0,1,3.39,1.823A4.346,4.346,0,0,1,2681.823,1017.854Z" transform="translate(-2644.813 -992.246)" fill="#ffc063"/>
          <path id="Trazado_105427" data-name="Trazado 105427" d="M2636.92,1017.854a3.8,3.8,0,0,1-2.65,3.177h-2.03V1019.8h.72a2.575,2.575,0,0,0,2.494-1.943,2.365,2.365,0,0,0,.081-.633,2.515,2.515,0,0,0-1.24-2.2,2.582,2.582,0,0,0-2.675,0h-.864c-.1,0-.207,0-.308.006l-.513-.451a4.012,4.012,0,0,1,3.026-1.378,3.815,3.815,0,0,1,3.39,1.823A4.352,4.352,0,0,1,2636.92,1017.854Z" transform="translate(-2610.354 -992.246)" fill="#efab50"/>
          <g id="Grupo_85083" data-name="Grupo 85083" transform="translate(16.782 2.838)">
            <path id="Trazado_105428" data-name="Trazado 105428" d="M2618.228,943.939c1.7,1.047,4.429.938,4.429-1.059,0-2.562-4.548-1.607-4.548-4.847,0-2.655,3.488-3.361,5.473-2.237l-.358,1.059c-1.544-.841-3.8-.614-3.8,1.029,0,2.421,4.564,1.46,4.564,4.892,0,1.551-1.149,2.893-3.52,2.893a5.2,5.2,0,0,1-2.565-.641Z" transform="translate(-2617.899 -935.281)" fill="#fff"/>
            <path id="Trazado_105429" data-name="Trazado 105429" d="M2650.814,942.974l-1.044,3.162h-1.343l3.415-10.052h1.566l3.43,10.052h-1.387l-1.074-3.162Zm3.3-1.014c-.989-3.019-.958-2.592-1.507-4.728h-.029c-.529,2.114-.751,2.447-1.492,4.728Z" transform="translate(-2641.33 -935.897)" fill="#fff"/>
            <path id="Trazado_105430" data-name="Trazado 105430" d="M2690.955,936.084h1.3v8.963h4.3v1.089h-5.593Z" transform="translate(-2673.97 -935.897)" fill="#fff"/>
            <path id="Trazado_105431" data-name="Trazado 105431" d="M2726.435,941.423h-3.907v3.624h4.355v1.089h-5.653V936.084h5.428v1.088h-4.131v3.177h3.907Z" transform="translate(-2697.207 -935.897)" fill="#fff"/>
          </g>
        </g>
        <g id="Grupo_85085" data-name="Grupo 85085">
          <path id="Trazado_105432" data-name="Trazado 105432" d="M2564.257,821.719a.7.7,0,0,0-.885-.675c-.659.209-1.322.406-1.983.607-1.461.444-1.5.507-1.634.409-.309-.235.012-.849.151-1.064a8.338,8.338,0,0,0,.948-1.416c.407-1.048-.221-2.042-1.386-1.823-1.066.2-2.128.463-3.185.732.526-1.1,1.083-2.187,1.592-3.294a.482.482,0,0,0-.536-.7l-4.631.773c-.236.039-1.318.354-1.452.118-.12-.212.3-.952.371-1.128.4-.972.524-1.321,1.746-4.512a.564.564,0,0,0-.691-.691c-3.775,1.5-3.966,1.021-4.619,1.727a.267.267,0,0,0,.116.44c.464.194.587.208,2.331-.275q.676-.187,1.342-.408c-1.557,3.848-2.041,4.78-1.283,5.544.526.53.74.391,5.993-.5-.611,1.125-1.15,2.281-1.715,3.435a.549.549,0,0,0,.611.8c3.815-.737,3.885-.911,4.238-.885.01,0,.11-.2,0,.109-.179.519-1.191,1.3-1.326,2.345a1.656,1.656,0,0,0,1.416,1.993c.593.024.844-.136,2.991-.725a14.238,14.238,0,0,0,.239,3.363,2.211,2.211,0,0,0,.562,1.21.587.587,0,0,0,.975-.257C2564.785,825.77,2564,825.028,2564.257,821.719Z" transform="translate(-2538.959 -802.099)" fill="#ffcb71"/>
          <path id="Trazado_105433" data-name="Trazado 105433" d="M2680.568,792.146a19.232,19.232,0,0,1-3.135-1.371c-.2-.108-.587-.265-.608-.532-.051-.644,1.159-.942,2.531-2.607.595-.722,1.888-2.164.982-3.083a6.9,6.9,0,0,0-1.811-1.012c-.441-.225-.871-.468-1.307-.7,2.419-2.6,2.508-2.338,2.562-3.183a.435.435,0,0,0-.434-.434c-.827.074-.608.086-3.691,3.338a.677.677,0,0,0,.136,1.053c.6.3,3.371,1.537,3.687,1.743-.037.02-.084.18-.1.211a11.126,11.126,0,0,1-2.771,2.99c-.874.745-1.541,2.025-.488,2.943a13.44,13.44,0,0,0,3.044,1.566c-1.543,1.549-3.1,3.088-4.63,4.646a.744.744,0,0,0,.15,1.16c1.248.54,2.472,1.12,3.694,1.71a12.572,12.572,0,0,1-3.123,2.252c-.848.433-.337,1.8,1.728.565a12.152,12.152,0,0,0,3.141-2.522.749.749,0,0,0-.149-1.163c-1.193-.62-2.416-1.186-3.647-1.727,1.518-1.562,3.021-3.141,4.539-4.7A.69.69,0,0,0,2680.568,792.146Z" transform="translate(-2635.926 -779.222)" fill="#ffcb71"/>
          <path id="Trazado_105434" data-name="Trazado 105434" d="M2784.014,835.523a.691.691,0,0,0,.913-.24,15.992,15.992,0,0,0,2.634-4.837c.288-.934-1.111-1.285-1.444-.4a19.519,19.519,0,0,1-1.964,4.03,14.9,14.9,0,0,1-2.642-1.9.711.711,0,0,0-1.106.142c-.5,1.077-2.292,5.212-2.268,5.27a.222.222,0,0,0-.105-.052c-.456-.141-1.71-1.2-2.372-1.509-.742-.346-1.5.5-1.859,1.074-.723,1.156-.546,2.954-1.6,3.9-1.013.906-2.108-1.293-3.929-1.093-1.4.154-1.7,1.538-2.3,3.649a1.653,1.653,0,0,0,.045,1.5.354.354,0,0,0,.391.159c.812-.3.925-1.12,1.524-3.025.076-.242.136-.688.4-.8.868-.38,1.853,1.368,3.488,1.238a3.138,3.138,0,0,0,2.464-2.333c.313-.864.355-2.112,1.055-2.787.665.409,1.327.84,2.018,1.193a1.341,1.341,0,0,0,1.926-.475,23.5,23.5,0,0,0,1.224-2.651c.263-.59.53-1.178.788-1.77A16.819,16.819,0,0,0,2784.014,835.523Z" transform="translate(-2706.143 -817.839)" fill="#ffcb71"/>
          <path id="Trazado_105435" data-name="Trazado 105435" d="M2515.149,907.272c-4.834,2.1-3.113,5.331-1.344,4.921a1.138,1.138,0,0,0,.818-1.659.464.464,0,0,0-.839.11c-.058.329-.412.23-.381-.134.04-.491.589-.83.952-1.084.847-.592,1.938-1.373,3.025-.986,1.623.576,2.433,2.953.37,4.791-2.976,2.652-8.289-.289-7.383-4.261a5.589,5.589,0,0,1,4.523-4.161c.423-.071.275-.665-.1-.7-2.8-.262-5.219,2.258-5.59,4.922a5.661,5.661,0,0,0,3.986,6.007,5.386,5.386,0,0,0,6.851-2.866C2521.206,909.191,2518.529,905.8,2515.149,907.272Z" transform="translate(-2509.154 -875.059)" fill="#ffcb71"/>
          <path id="Trazado_105436" data-name="Trazado 105436" d="M2842.985,923.079c-.717.38-1.6,1.472-1,2.285a.751.751,0,0,0,1.159.149c.359-.355.334-.87.9-1,.483-.108.879.311,1.049.725.518,1.262-.625,2.791-1.619,3.467a2.549,2.549,0,0,1-4.03-1.9,5.785,5.785,0,0,1,.331-1.924c.089-.352-.329-.759-.667-.513-1.3.946-1.283,2.947-.59,4.262a4.075,4.075,0,0,0,3.9,2.044,5.265,5.265,0,0,0,3.961-2.984C2847.934,924.573,2845.309,921.849,2842.985,923.079Z" transform="translate(-2761.585 -889.402)" fill="#ffcb71"/>
        </g>
      </g>
      <g id="Grupo_85089" data-name="Grupo 85089" transform="translate(119.984 0)">
        <g id="Grupo_85087" data-name="Grupo 85087" transform="translate(0 0)">
          <path id="Trazado_105437" data-name="Trazado 105437" d="M2180.021,616.285c-14.316,2.666-24.594,11.956-22.956,20.751.819,4.4,4.461,7.838,9.688,9.846l-4.463,15.675,11.418-13.984a40.144,40.144,0,0,0,12.243-.441c14.317-2.666,24.594-11.956,22.957-20.751S2194.338,613.619,2180.021,616.285Z" transform="translate(-2156.894 -615.565)" fill="#f5fcff"/>
        </g>
        <g id="Grupo_85088" data-name="Grupo 85088" transform="translate(20.176 5.804)">
          <path id="Trazado_105438" data-name="Trazado 105438" d="M2248.024,661.525l-.023-2.442a11.861,11.861,0,0,1-3.083-.519,1.486,1.486,0,0,1-.994-1.773l.022-.092a1.483,1.483,0,0,1,1.9-1.058,8.654,8.654,0,0,0,2.792.454c1.465-.014,2.461-.589,2.452-1.617-.009-.976-.837-1.585-2.746-2.21-2.759-.9-4.647-2.166-4.671-4.659-.021-2.262,1.556-4.05,4.3-4.616l-.023-2.441,2.519-.024.021,2.261a10.968,10.968,0,0,1,2.349.316,1.484,1.484,0,0,1,1.067,1.793h0a1.485,1.485,0,0,1-1.846,1.074,7.9,7.9,0,0,0-2.261-.3c-1.671.016-2.2.741-2.2,1.46.008.848.913,1.379,3.1,2.181,3.069,1.05,4.316,2.452,4.338,4.765.021,2.287-1.579,4.256-4.529,4.8l.025,2.621Z" transform="translate(-2243.676 -640.529)" fill="#2f2f3b"/>
        </g>
      </g>
    </g>
  </g>
</svg>
