<svg xmlns="http://www.w3.org/2000/svg" width="399.5" height="282.641" viewBox="0 0 399.5 282.641">
  <g id="Grupo_85199" data-name="Grupo 85199" transform="translate(-181 -19773.469)">
    <g id="Grupo_85197" data-name="Grupo 85197" transform="translate(115.579 19728.117)">
      <g id="Grupo_85162" data-name="Grupo 85162" transform="translate(84.551 251.093)">
        <path id="Trazado_105647" data-name="Trazado 105647" d="M135.291,407.323H115.664l-3.979-20.417H139.27Z" transform="translate(-99.644 -359.086)" fill="#ffc154"/>
        <path id="Trazado_105648" data-name="Trazado 105648" d="M113.485,396.144l24.636-3.342,1.149-5.9H111.685Z" transform="translate(-99.644 -359.086)" fill="#ff9e55"/>
        <g id="Grupo_85161" data-name="Grupo 85161">
          <path id="Trazado_105649" data-name="Trazado 105649" d="M129.331,371.9c11.824-16.394.152-26.155,0-26.28v0h0v0c-.151.125-11.823,9.885,0,26.28v0l0,0v0Z" transform="translate(-103.675 -345.615)" fill="#a7e070"/>
          <g id="Grupo_85160" data-name="Grupo 85160" transform="translate(0 7.898)">
            <g id="Grupo_85158" data-name="Grupo 85158" transform="translate(24.777)">
              <path id="Trazado_105650" data-name="Trazado 105650" d="M130.588,377.752c.146-22.431,14.074-24.044,25.657-15.98Z" transform="translate(-130.588 -357.338)" fill="#75b75a"/>
              <path id="Trazado_105651" data-name="Trazado 105651" d="M133.417,382.157c0-14.367,16.273-19.205,24.63-2.785Z" transform="translate(-131.511 -361.157)" fill="#a7e070"/>
            </g>
            <g id="Grupo_85159" data-name="Grupo 85159">
              <path id="Trazado_105652" data-name="Trazado 105652" d="M120.776,377.752c-.147-22.431-14.074-24.044-25.657-15.98Z" transform="translate(-94.24 -357.338)" fill="#75b75a"/>
              <path id="Trazado_105653" data-name="Trazado 105653" d="M118.444,382.157c0-14.367-16.273-19.205-24.63-2.785Z" transform="translate(-93.814 -361.157)" fill="#a7e070"/>
            </g>
          </g>
        </g>
        <rect id="Rectángulo_33865" data-name="Rectángulo 33865" width="31.387" height="4.686" transform="translate(9.875 26.995)" fill="#ffc154"/>
      </g>
      <g id="Grupo_85171" data-name="Grupo 85171" transform="translate(96.999 97.238)">
        <path id="Trazado_105654" data-name="Trazado 105654" d="M240.88,188.517l-13.444-9.546V122.3a5.035,5.035,0,0,0-5.035-5.035H117.325a5.035,5.035,0,0,0-5.036,5.035v91.4a5.035,5.035,0,0,0,5.036,5.036H222.4a5.035,5.035,0,0,0,5.035-5.036V198.062Z" transform="translate(-112.289 -117.262)" fill="#fff"/>
        <g id="Grupo_85164" data-name="Grupo 85164" transform="translate(9.247 10.909)">
          <circle id="Elipse_4167" data-name="Elipse 4167" cx="6.84" cy="6.84" r="6.84" transform="translate(0 13.312) rotate(-76.659)" fill="#a7e070"/>
          <g id="Grupo_85163" data-name="Grupo 85163" transform="translate(18.685 3.721)">
            <path id="Trazado_105655" data-name="Trazado 105655" d="M228.516,147.015H155.551a1.8,1.8,0,0,0,0,3.61h72.965a1.8,1.8,0,0,0,0-3.61Z" transform="translate(-153.746 -141.599)" fill="#d6e6fd"/>
            <path id="Trazado_105656" data-name="Trazado 105656" d="M155.551,142.588h33.2a1.805,1.805,0,0,0,0-3.611h-33.2a1.805,1.805,0,0,0,0,3.611Z" transform="translate(-153.746 -138.977)" fill="#bdd3f4"/>
          </g>
        </g>
        <g id="Grupo_85166" data-name="Grupo 85166" transform="translate(10.641 33.014)">
          <path id="Trazado_105657" data-name="Trazado 105657" d="M247.094,173.1a6.84,6.84,0,1,0,6.841-6.841A6.841,6.841,0,0,0,247.094,173.1Z" transform="translate(-166.909 -166.262)" fill="#ffc154"/>
          <g id="Grupo_85165" data-name="Grupo 85165" transform="translate(0 2.328)">
            <path id="Trazado_105658" data-name="Trazado 105658" d="M202.852,177.755H129.887a1.805,1.805,0,1,0,0,3.61h72.965a1.805,1.805,0,1,0,0-3.61Z" transform="translate(-128.082 -172.339)" fill="#d6e6fd"/>
            <path id="Trazado_105659" data-name="Trazado 105659" d="M129.887,173.328h33.2a1.805,1.805,0,0,0,0-3.611h-33.2a1.805,1.805,0,0,0,0,3.611Z" transform="translate(-128.082 -169.717)" fill="#bdd3f4"/>
          </g>
        </g>
        <g id="Grupo_85168" data-name="Grupo 85168" transform="translate(10.641 54.106)">
          <circle id="Elipse_4168" data-name="Elipse 4168" cx="6.84" cy="6.84" r="6.84" fill="#a7e070"/>
          <g id="Grupo_85167" data-name="Grupo 85167" transform="translate(17.291 2.327)">
            <path id="Trazado_105660" data-name="Trazado 105660" d="M228.516,209.059H155.551a1.805,1.805,0,0,0,0,3.61h72.965a1.805,1.805,0,0,0,0-3.61Z" transform="translate(-153.746 -203.643)" fill="#d6e6fd"/>
            <path id="Trazado_105661" data-name="Trazado 105661" d="M155.551,204.632h33.2a1.805,1.805,0,0,0,0-3.611h-33.2a1.805,1.805,0,0,0,0,3.611Z" transform="translate(-153.746 -201.021)" fill="#bdd3f4"/>
          </g>
        </g>
        <g id="Grupo_85170" data-name="Grupo 85170" transform="translate(10.641 74.817)">
          <circle id="Elipse_4169" data-name="Elipse 4169" cx="6.84" cy="6.84" r="6.84" transform="translate(80.185)" fill="#ffc154"/>
          <g id="Grupo_85169" data-name="Grupo 85169" transform="translate(0 2.328)">
            <path id="Trazado_105662" data-name="Trazado 105662" d="M202.852,239.8H129.887a1.805,1.805,0,1,0,0,3.61h72.965a1.805,1.805,0,1,0,0-3.61Z" transform="translate(-128.082 -234.383)" fill="#d6e6fd"/>
            <path id="Trazado_105663" data-name="Trazado 105663" d="M129.887,235.372h33.2a1.805,1.805,0,0,0,0-3.611h-33.2a1.805,1.805,0,0,0,0,3.611Z" transform="translate(-128.082 -231.761)" fill="#bdd3f4"/>
          </g>
        </g>
      </g>
      <g id="Grupo_85186" data-name="Grupo 85186" transform="translate(136.35 90.144)">
        <g id="Grupo_85172" data-name="Grupo 85172" transform="translate(0 104.012)">
          <path id="Trazado_105664" data-name="Trazado 105664" d="M315.237,342.326l-5.581-57.9a10.594,10.594,0,0,0-21.091,2.033l4.726,49.024-65.743,17.979a7.607,7.607,0,0,0,3.441,14.809l76.1-14.611,9.072-1.742Z" transform="translate(-187.415 -265.592)" fill="#ffa67a"/>
          <path id="Trazado_105665" data-name="Trazado 105665" d="M341.894,288.566c-.034-.351-.086-.7-.152-1.035l-20.969,1.637a10.714,10.714,0,0,0,.03,1.43l2.625,27.231,21.432,1.5Z" transform="translate(-219.653 -269.729)" fill="#ef946c"/>
          <path id="Rectángulo_33866" data-name="Rectángulo 33866" d="M17.207,0h0A17.206,17.206,0,0,1,34.413,17.206V42.318a0,0,0,0,1,0,0H0a0,0,0,0,1,0,0V17.207A17.207,17.207,0,0,1,17.207,0Z" transform="translate(92.976 3.146) rotate(-5.246)" fill="#4278c6"/>
          <path id="Trazado_105666" data-name="Trazado 105666" d="M212.426,404.967c-6.986.425-19.11.3-23.944-5.017,0,0-10.647,4-13.607,4.179a4.442,4.442,0,0,1-4.181-2.26s17.613-13.254,21.45-14.649,21.275,2.093,21.275,2.093l2.844,10.31A4.232,4.232,0,0,1,212.426,404.967Z" transform="translate(-170.694 -302.143)" fill="#ffa67a"/>
        </g>
        <g id="Grupo_85174" data-name="Grupo 85174" transform="translate(105.052 94.736)">
          <g id="Grupo_85173" data-name="Grupo 85173">
            <path id="Trazado_105667" data-name="Trazado 105667" d="M371.678,247.341c-19.961,0-35.355,4.892-45.064,11.364l10.872,54.967-2.248,52.689s38.755,9.117,77.762,0l-4.5-52.7,3.9-55.7S396.652,250.258,371.678,247.341Z" transform="translate(-326.614 -247.341)" fill="#5295fe"/>
          </g>
          <path id="Trazado_105668" data-name="Trazado 105668" d="M399.879,257.405c0,8.666-10.1,15.691-22.55,15.691s-22.549-7.025-22.549-15.691,10.1-7.918,22.549-7.918S399.879,248.739,399.879,257.405Z" transform="translate(-335.803 -248.036)" fill="#ffb692"/>
        </g>
        <g id="Grupo_85175" data-name="Grupo 85175" transform="translate(75.452 104.012)">
          <path id="Trazado_105669" data-name="Trazado 105669" d="M427.224,342.326l-5.58-57.9a10.594,10.594,0,0,0-21.091,2.033l4.725,49.024-65.743,17.979a7.607,7.607,0,0,0,3.441,14.809l76.1-14.611,9.072-1.742Z" transform="translate(-299.402 -265.592)" fill="#ffb692"/>
          <path id="Trazado_105670" data-name="Trazado 105670" d="M454.983,300.567l-21.147,1.451,1.836,19.051,21.519,2.416Z" transform="translate(-331.994 -273.982)" fill="#d88d87"/>
          <path id="Rectángulo_33867" data-name="Rectángulo 33867" d="M17.207,0h0A17.206,17.206,0,0,1,34.413,17.206V42.318a0,0,0,0,1,0,0H0a0,0,0,0,1,0,0V17.207A17.207,17.207,0,0,1,17.207,0Z" transform="translate(92.976 3.146) rotate(-5.246)" fill="#4278c6"/>
          <path id="Trazado_105671" data-name="Trazado 105671" d="M324.413,404.967c-6.986.425-19.109.3-23.944-5.017,0,0-10.647,4-13.607,4.179a4.442,4.442,0,0,1-4.181-2.26s17.613-13.254,21.45-14.649,21.276,2.093,21.276,2.093l2.844,10.31A4.232,4.232,0,0,1,324.413,404.967Z" transform="translate(-282.681 -302.143)" fill="#ffb692"/>
        </g>
        <g id="Grupo_85185" data-name="Grupo 85185" transform="translate(100.646)">
          <g id="Grupo_85183" data-name="Grupo 85183">
            <g id="Grupo_85177" data-name="Grupo 85177" transform="translate(4.657 43.103)">
              <g id="Grupo_85176" data-name="Grupo 85176">
                <ellipse id="Elipse_4170" data-name="Elipse 4170" cx="9.912" cy="12.443" rx="9.912" ry="12.443" transform="translate(0 1.08) rotate(-3.123)" fill="#6d86aa"/>
              </g>
              <path id="Trazado_105672" data-name="Trazado 105672" d="M334.337,184.121c.374,6.862,5.109,12.183,10.575,11.884s9.594-6.1,9.22-12.964-5.11-12.183-10.576-11.884S333.962,177.259,334.337,184.121Z" transform="translate(-329.376 -170.85)" fill="#fff"/>
            </g>
            <path id="Trazado_105673" data-name="Trazado 105673" d="M339.384,150.7c-14.369,13.994,4.7,29.736,4.7,29.736l-.9-30.154Z" transform="translate(-324.625 -120.939)" fill="#323244"/>
            <path id="Trazado_105674" data-name="Trazado 105674" d="M396.782,242.105c-1.913-35.073-7.767-16.472-16.215-16.011s-16.168-15.131-14.377,17.68c.67,12.291,7.461,10.856,15.909,10.4S397.453,254.4,396.782,242.105Z" transform="translate(-335.034 -143.932)" fill="#ffb692"/>
            <path id="Trazado_105675" data-name="Trazado 105675" d="M365.961,233.512c.416-18.854,7.238-7.014,14.617-7.417,8.179-.446,13.927-17.9,16.021,12.833C383.762,243.913,373.351,239.507,365.961,233.512Z" transform="translate(-335.045 -143.933)" fill="#d88d87"/>
            <path id="Trazado_105676" data-name="Trazado 105676" d="M375.808,132.133l-13.611.743A19.4,19.4,0,0,0,343.94,153.24l1.534,28.112a27.086,27.086,0,0,0,28.437,25.494h0a27.085,27.085,0,0,0,25.494-28.437L397.965,152A21.1,21.1,0,0,0,375.808,132.133Z" transform="translate(-327.851 -115.009)" fill="#ffb692"/>
            <path id="Trazado_105677" data-name="Trazado 105677" d="M410.669,182.325c.362,6.643,4.784,11.95,10.31,12.887a26.875,26.875,0,0,0,.2-5l-1.2-21.93C414.347,169.611,410.3,175.493,410.669,182.325Z" transform="translate(-349.622 -126.813)" fill="#d88d87"/>
            <path id="Trazado_105678" data-name="Trazado 105678" d="M401,150.84a21.108,21.108,0,0,0-22.06-18.708l-13.611.743a19.222,19.222,0,0,0-11.823,4.917C367.975,156.195,388.28,154.462,401,150.84Z" transform="translate(-330.98 -115.009)" fill="#d88d87"/>
            <path id="Trazado_105679" data-name="Trazado 105679" d="M397.018,170.859l-4.555-1.468A2.7,2.7,0,0,1,390.727,166h0a2.7,2.7,0,0,1,3.388-1.736l4.555,1.468a2.7,2.7,0,0,1,1.736,3.388h0A2.7,2.7,0,0,1,397.018,170.859Z" transform="translate(-343.082 -125.461)" fill="#323244"/>
            <path id="Trazado_105680" data-name="Trazado 105680" d="M364.379,171.338l-4.188,2.316a2.7,2.7,0,0,1-3.658-1.053h0a2.7,2.7,0,0,1,1.053-3.659l4.188-2.315a2.7,2.7,0,0,1,3.658,1.053h0A2.7,2.7,0,0,1,364.379,171.338Z" transform="translate(-331.86 -126.164)" fill="#323244"/>
            <path id="Trazado_105681" data-name="Trazado 105681" d="M373.886,202.718s7.107.9,7.211,2.221-3.287,2.133-4.259,1.619S373.886,202.718,373.886,202.718Z" transform="translate(-337.63 -138.047)" fill="#d88d87"/>
            <g id="Grupo_85178" data-name="Grupo 85178" transform="translate(27.395 48.082)">
              <path id="Trazado_105682" data-name="Trazado 105682" d="M366.67,182.632a2.97,2.97,0,1,1-3.127-2.8A2.97,2.97,0,0,1,366.67,182.632Z" transform="translate(-360.734 -178.661)" fill="#34344f"/>
              <path id="Trazado_105683" data-name="Trazado 105683" d="M398.32,180.905a2.97,2.97,0,1,1-3.128-2.8A2.971,2.971,0,0,1,398.32,180.905Z" transform="translate(-371.06 -178.097)" fill="#34344f"/>
              <path id="Trazado_105684" data-name="Trazado 105684" d="M378.84,179.579s-4.506,14.764-4.616,15.337,3.837,2.835,3.837,2.835" transform="translate(-365.134 -178.581)" fill="none" stroke="#34344f" stroke-linecap="round" stroke-linejoin="round" stroke-width="2.007"/>
            </g>
            <g id="Grupo_85179" data-name="Grupo 85179" transform="translate(34.565 66.838)">
              <path id="Trazado_105685" data-name="Trazado 105685" d="M374.026,211.825a69.06,69.06,0,0,0,13-5.466c2.973-1.68,6.313,1.918,5.158,5.609-1.23,3.927-3.841,7.824-9.26,9.122-4.441,1.065-7.49.3-9.572-1.09C370.4,218.026,370.86,212.814,374.026,211.825Z" transform="translate(-371.376 -205.934)" fill="#34344f"/>
              <path id="Trazado_105686" data-name="Trazado 105686" d="M385.317,223.042c5.419-1.3,8.031-5.2,9.26-9.122a5.05,5.05,0,0,0,.222-1.634,12.755,12.755,0,0,0-8.105.718c-5.208,1.973-7.277,6.161-7.97,10.2,0,.008,0,.016,0,.024A14.039,14.039,0,0,0,385.317,223.042Z" transform="translate(-373.772 -207.886)" fill="#ff9292"/>
              <path id="Trazado_105687" data-name="Trazado 105687" d="M383.521,219.67c.677.847,2.731.388,4.588-1.024s2.811-3.244,2.133-4.09-2.732-.388-4.588,1.025S382.843,218.824,383.521,219.67Z" transform="translate(-375.267 -208.608)" fill="#ffabab"/>
              <path id="Trazado_105688" data-name="Trazado 105688" d="M374.028,211.825a69.06,69.06,0,0,0,13-5.466c1.826-1.032,3.786-.069,4.762,1.679a25.5,25.5,0,0,1-11.317,7.252,28.593,28.593,0,0,1-9.024,1.571C371.115,214.75,372.031,212.449,374.028,211.825Z" transform="translate(-371.377 -205.934)" fill="#fff"/>
            </g>
            <path id="Trazado_105689" data-name="Trazado 105689" d="M381.142,140.6c-67.641,16.647-60.88-17.394-60.88-17.394l3.662,5.226s-2.913-15.919,12.006-21.7l1.974,10s23.423-11.977,46.406,2.277S395.5,167.3,395.5,167.3,385.608,167.751,381.142,140.6Z" transform="translate(-320.074 -106.733)" fill="#323244"/>
            <path id="Trazado_105690" data-name="Trazado 105690" d="M390.894,130.566a28.458,28.458,0,0,0-6.51-5.538c-16.133,11.54-40.543,22.946-60.683,6.676a18.826,18.826,0,0,0,.224,2.7l-3.662-5.226a16.126,16.126,0,0,0-.071,4.5C342.668,153.815,372.925,144.779,390.894,130.566Z" transform="translate(-320.075 -112.702)" fill="#49496b"/>
            <g id="Grupo_85180" data-name="Grupo 85180" transform="translate(66.543 43.471)">
              <path id="Trazado_105691" data-name="Trazado 105691" d="M418.918,179.705c-.544,5.1,1.784,9.613,5.2,10.069s6.626-3.311,7.17-8.415-1.784-9.613-5.2-10.069S419.462,174.6,418.918,179.705Z" transform="translate(-418.839 -171.253)" fill="#ffb692"/>
              <path id="Trazado_105692" data-name="Trazado 105692" d="M423.566,181.544a2.9,2.9,0,0,0-1.522.22c.007-.085.009-.168.019-.253.359-3.372,2.48-5.861,4.737-5.559s3.795,3.28,3.435,6.652c-.276,2.593-1.6,4.657-3.215,5.339C427.278,184.676,425.766,181.838,423.566,181.544Z" transform="translate(-419.885 -172.778)" fill="#d88d87"/>
            </g>
            <g id="Grupo_85182" data-name="Grupo 85182" transform="translate(64.683 42.206)">
              <g id="Grupo_85181" data-name="Grupo 85181">
                <path id="Trazado_105693" data-name="Trazado 105693" d="M435.9,181.618c.375,6.862-3.754,12.667-9.22,12.965s-10.2-5.023-10.575-11.884,3.753-12.667,9.22-12.965S435.522,174.756,435.9,181.618Z" transform="translate(-416.078 -169.488)" fill="#fff"/>
                <path id="Trazado_105694" data-name="Trazado 105694" d="M442.252,181.272c.375,6.862-3.753,12.666-9.219,12.964s-10.2-5.023-10.576-11.884,3.754-12.667,9.22-12.964S441.878,174.409,442.252,181.272Z" transform="translate(-418.151 -169.375)" fill="#6d86aa"/>
              </g>
              <path id="Trazado_105695" data-name="Trazado 105695" d="M439.7,184.553c.187,3.431-1.876,6.333-4.609,6.482s-5.1-2.512-5.288-5.943,1.877-6.333,4.61-6.482S439.518,181.121,439.7,184.553Z" transform="translate(-420.553 -172.386)" fill="#ffac52"/>
            </g>
            <path id="Trazado_105696" data-name="Trazado 105696" d="M418.48,155.664c3.155-22.043-9.741-35.378-25.639-36.887l4.86-.6s29.263-.108,27.041,37.913Z" transform="translate(-343.814 -110.466)" fill="#6d86aa"/>
          </g>
          <g id="Grupo_85184" data-name="Grupo 85184" transform="translate(11.418 66.439)">
            <path id="Trazado_105697" data-name="Trazado 105697" d="M337.033,205.342c-.549,17.394,17.242,15.949,17.242,15.949" transform="translate(-337.021 -205.342)" fill="none" stroke="#6d86aa" stroke-miterlimit="10" stroke-width="2"/>
            <path id="Trazado_105698" data-name="Trazado 105698" d="M364.208,230l-2.911.087a2,2,0,0,1-2.056-1.937h0a2,2,0,0,1,1.938-2.056l2.911-.087a2,2,0,0,1,2.056,1.938h0A2,2,0,0,1,364.208,230Z" transform="translate(-344.269 -212.084)" fill="#fff"/>
          </g>
        </g>
      </g>
      <g id="Grupo_85190" data-name="Grupo 85190" transform="translate(320.534 55.884)">
        <g id="Grupo_85188" data-name="Grupo 85188">
          <g id="Grupo_85187" data-name="Grupo 85187">
            <path id="Trazado_105699" data-name="Trazado 105699" d="M504.456,55.884H455.8a11.744,11.744,0,0,0-11.743,11.744V91.953a11.734,11.734,0,0,0,10.9,11.7v13.184L468.108,103.7h36.349A11.743,11.743,0,0,0,516.2,91.953V67.628A11.743,11.743,0,0,0,504.456,55.884Z" transform="translate(-444.062 -55.884)" fill="#ffc154"/>
          </g>
        </g>
        <g id="Grupo_85189" data-name="Grupo 85189" transform="translate(14.287 19.893)">
          <path id="Trazado_105700" data-name="Trazado 105700" d="M470.3,85.41a5.036,5.036,0,1,0,5.036,5.036A5.036,5.036,0,0,0,470.3,85.41Z" transform="translate(-465.267 -85.41)" fill="#fff"/>
          <path id="Trazado_105701" data-name="Trazado 105701" d="M495.157,85.41a5.036,5.036,0,1,0,5.036,5.036A5.036,5.036,0,0,0,495.157,85.41Z" transform="translate(-473.375 -85.41)" fill="#fff"/>
          <path id="Trazado_105702" data-name="Trazado 105702" d="M520.011,85.41a5.036,5.036,0,1,0,5.036,5.036A5.035,5.035,0,0,0,520.011,85.41Z" transform="translate(-481.484 -85.41)" fill="#fff"/>
        </g>
      </g>
      <path id="Trazado_105703" data-name="Trazado 105703" d="M401.234,435.211H73.98c-4.726,0-8.559-4.117-8.559-9.2h0c0-5.079,3.832-9.2,8.559-9.2H401.234c4.726,0,8.558,4.117,8.558,9.2h0C409.792,431.094,405.96,435.211,401.234,435.211Z" transform="translate(0 -117.752)" fill="#bdd3f4"/>
      <g id="Grupo_85191" data-name="Grupo 85191" transform="translate(113.016 226.501)">
        <path id="Trazado_105704" data-name="Trazado 105704" d="M156.07,376.838l96.3-.013-20.108-67.709h-96.2Z" transform="translate(-136.061 -309.116)" fill="#fff"/>
        <rect id="Rectángulo_33868" data-name="Rectángulo 33868" width="140.823" height="4.81" transform="translate(160.839 72.508) rotate(180)" fill="#a0b8e8"/>
        <rect id="Rectángulo_33869" data-name="Rectángulo 33869" width="96.284" height="4.81" transform="translate(116.301 72.508) rotate(180)" fill="#eff6ff"/>
        <path id="Trazado_105705" data-name="Trazado 105705" d="M278.836,309.116h3.655l20.393,67.914-3.944-.216Z" transform="translate(-182.64 -309.116)" fill="#8ba6d1"/>
        <path id="Trazado_105706" data-name="Trazado 105706" d="M207.431,362.662c1.575,4.838,6.211,7.667,10.354,6.318s6.224-6.365,4.649-11.2-6.211-7.667-10.354-6.319S205.855,357.823,207.431,362.662Z" transform="translate(-159.173 -322.82)" fill="#a0b8e8"/>
      </g>
      <g id="Grupo_85194" data-name="Grupo 85194" transform="translate(353.956 262.823)">
        <g id="Grupo_85193" data-name="Grupo 85193" transform="translate(0 0)">
          <path id="Rectángulo_33870" data-name="Rectángulo 33870" d="M0,0H26.824a0,0,0,0,1,0,0V27.945a8.3,8.3,0,0,1-8.3,8.3H8.3a8.3,8.3,0,0,1-8.3-8.3V0A0,0,0,0,1,0,0Z" fill="#fff"/>
          <g id="Grupo_85192" data-name="Grupo 85192" transform="translate(22.187 3.638)">
            <path id="Trazado_105707" data-name="Trazado 105707" d="M535.3,393.822h-8.7v-25.4h8.7a7.428,7.428,0,0,1,7.419,7.42V386.4A7.428,7.428,0,0,1,535.3,393.822Zm-4.851-3.853H535.3a3.57,3.57,0,0,0,3.567-3.566V375.845a3.572,3.572,0,0,0-3.567-3.568h-4.851Z" transform="translate(-526.598 -368.425)" fill="#fff"/>
          </g>
        </g>
        <path id="Trazado_105708" data-name="Trazado 105708" d="M500.04,406.732h14.079a6.372,6.372,0,0,0,6.372-6.372v-4.172c-7.3,5.338-18-6.391-26.824-10.276V400.36A6.372,6.372,0,0,0,500.04,406.732Z" transform="translate(-493.668 -370.492)" fill="#eff6ff"/>
      </g>
      <g id="Grupo_85196" data-name="Grupo 85196" transform="translate(98.117 72.782)">
        <path id="Trazado_105709" data-name="Trazado 105709" d="M554.726,206.839H476.161a3.615,3.615,0,0,0-3.615,3.615v5.185l-9.523,4.779,9.523,4.779v5.185A3.615,3.615,0,0,0,476.161,234h78.565a3.615,3.615,0,0,0,3.615-3.615V210.454A3.615,3.615,0,0,0,554.726,206.839Z" transform="translate(-463.023 -206.839)" fill="#5295fe"/>
        <g id="Grupo_85195" data-name="Grupo 85195" transform="translate(14.99 8.128)">
          <path id="Trazado_105710" data-name="Trazado 105710" d="M491.1,228.7l-3.6,1.28.105-3.819-2.33-3.028,3.664-1.08,2.16-3.151,2.16,3.151,3.664,1.08-2.33,3.028.1,3.819Z" transform="translate(-485.272 -218.903)" fill="#ffc154"/>
          <path id="Trazado_105711" data-name="Trazado 105711" d="M514.715,228.7l-3.6,1.28.105-3.819-2.33-3.028,3.664-1.08,2.16-3.151,2.16,3.151,3.664,1.08-2.33,3.028.105,3.819Z" transform="translate(-492.977 -218.903)" fill="#ffc154"/>
          <path id="Trazado_105712" data-name="Trazado 105712" d="M538.334,228.7l-3.6,1.28.105-3.819-2.33-3.028,3.664-1.08,2.16-3.151,2.16,3.151,3.664,1.08-2.33,3.028.105,3.819Z" transform="translate(-500.683 -218.903)" fill="#ffc154"/>
          <path id="Trazado_105713" data-name="Trazado 105713" d="M561.953,228.7l-3.6,1.28.105-3.819-2.33-3.028,3.664-1.08,2.16-3.151,2.16,3.151,3.664,1.08-2.33,3.028.1,3.819Z" transform="translate(-508.388 -218.903)" fill="#ffc154"/>
          <path id="Trazado_105714" data-name="Trazado 105714" d="M585.572,228.7l-3.6,1.28.1-3.819-2.33-3.028,3.664-1.08,2.16-3.151,2.16,3.151,3.664,1.08-2.33,3.028.1,3.819Z" transform="translate(-516.094 -218.903)" fill="#fff"/>
        </g>
      </g>
    </g>
    <path id="Trazado_105715" data-name="Trazado 105715" d="M-8724,6411v282.641" transform="translate(9304 13362.469)" fill="none" stroke="#db6e5f" stroke-width="1"/>
  </g>
</svg>
