<svg xmlns="http://www.w3.org/2000/svg" xmlns:xlink="http://www.w3.org/1999/xlink" width="400" height="135" viewBox="0 0 400 135">
  <defs>
    <linearGradient id="linear-gradient" x1="0.446" y1="0.085" x2="0.572" y2="1.101" gradientUnits="objectBoundingBox">
      <stop offset="0" stop-color="#ffb133"/>
      <stop offset="1" stop-color="#ed7d1b"/>
    </linearGradient>
    <linearGradient id="linear-gradient-2" x1="0.436" y1="-0.104" x2="0.787" y2="1.209" xlink:href="#linear-gradient"/>
    <linearGradient id="linear-gradient-3" x1="0.453" y1="0.443" x2="1.059" y2="-0.014" xlink:href="#linear-gradient"/>
    <linearGradient id="linear-gradient-4" x1="0" y1="0.5" x2="1.006" y2="0.5" xlink:href="#linear-gradient"/>
    <linearGradient id="linear-gradient-5" x1="0.423" y1="-0.146" x2="0.575" y2="1.154" xlink:href="#linear-gradient"/>
    <linearGradient id="linear-gradient-6" x1="0.444" y1="-0.135" x2="0.718" y2="1.105" xlink:href="#linear-gradient"/>
    <linearGradient id="linear-gradient-7" x1="0.508" y1="0.236" x2="0.656" y2="1.01" xlink:href="#linear-gradient"/>
    <linearGradient id="linear-gradient-8" x1="0.452" y1="-0.028" x2="0.596" y2="1.65" xlink:href="#linear-gradient"/>
  </defs>
  <g id="Grupo_85523" data-name="Grupo 85523" transform="translate(-390 -28348)">
    <rect id="Rectángulo_33903" data-name="Rectángulo 33903" width="400" height="135" rx="12" transform="translate(390 28348)" fill="#f0f0f0"/>
    <g id="Grupo_85521" data-name="Grupo 85521" transform="translate(89.598 -25.286)">
      <g id="Grupo_85508" data-name="Grupo 85508" transform="translate(385.403 28420.043)">
        <path id="Trazado_106228" data-name="Trazado 106228" d="M329.546,164.019s.875,6.644,2.5,8.048c1.6,1.383,29.351,5.487,46.749-.2a1.924,1.924,0,0,0,1.158-1.056c.8-1.809,2.631-6.275,2.189-8.386C381.578,159.745,370.41,168.6,329.546,164.019Z" transform="translate(-326.084 -127.429)" fill="#f89945"/>
        <path id="Trazado_106229" data-name="Trazado 106229" d="M337.572,168.9c2.427.974,4.238-.933,6.372.031,2.113.954,2.607,1.316,4.327.092.314-.224.784-.022,1.092.059,2.449.64,3.81,1,6.657-.034a2.66,2.66,0,0,1,1.793-.175,7.8,7.8,0,0,0,5.338-.926.743.743,0,0,1,.378-.1c1.435,0,1.978.874,3.439,1.144,2.226.411,4.269.772,5.553-1.475a1.634,1.634,0,0,1,.942-.616c2.149-.591,2.9,1.73,5.052-.424,1.116-1.115,2.076-.125,3.047.088a9.575,9.575,0,0,0,.576-4.131c-.561-2.682-11.729,6.177-52.593,1.591a38.6,38.6,0,0,0,1.11,5.264C332.63,170.847,335.526,168.079,337.572,168.9Z" transform="translate(-326.084 -127.429)" fill="#d77124"/>
        <path id="Trazado_106230" data-name="Trazado 106230" d="M364.808,173.67c-2.551-1.447-6.019-3.647-7.525-6.383a182.049,182.049,0,0,1-25.551-.986s.787,5.414,2.243,6.557c1.167.917,17.9,3.3,32.514,1.662C365.918,174.261,365.355,173.98,364.808,173.67Z" transform="translate(-326.94 -129.15)" fill="#cd4200" opacity="0.55"/>
        <path id="Trazado_106231" data-name="Trazado 106231" d="M351.885,142.737s-21.649,2.475-22.647,4.858-.371,7.044,1.329,8.331,23.6,1.221,27.182,1.458a44.406,44.406,0,0,0,22.585-4.086c.562-.085,3.561-5.882,0-9.534C377.02,140.364,355.877,142.959,351.885,142.737Z" transform="translate(-325.776 -119.623)" fill="#be5b2a"/>
        <path id="Trazado_106232" data-name="Trazado 106232" d="M360.084,153.96a29.394,29.394,0,0,1-6.889-5.211,36.433,36.433,0,0,1-3.278-4.67,125.97,125.97,0,0,0-15.536,2.85c-.129,4.617,1.455,8.384,5.433,10.878,7.263.544,17.769.733,20.136.393,1.059-.152,3.441-.568,6.274-1.08A48.128,48.128,0,0,1,360.084,153.96Z" transform="translate(-327.976 -120.439)" fill="#ae4d25"/>
        <path id="Trazado_106233" data-name="Trazado 106233" d="M344.855,147.314c3.541-.1,6.723.857,10.186,1.443a55.588,55.588,0,0,1,8.412,1.827c2.211.738,6.893,4.081,8.413,1.594,1.158-1.894,3.222-2.748,4.994-3.905a15.64,15.64,0,0,1,4.891-2.19,5.838,5.838,0,0,0-1.395-2.32c-3.314-3.4-24.457-.8-28.449-1.027,0,0-21.649,2.475-22.647,4.858a6.75,6.75,0,0,0-.445,2.055C334.024,147.907,339.272,147.475,344.855,147.314Z" transform="translate(-325.797 -119.623)" fill="#953e25"/>
        <path id="Trazado_106234" data-name="Trazado 106234" d="M329.546,162.319a24.6,24.6,0,0,1,4.351-1.64c1.638-.325,6.27,1.172,10.762.376s4.246,1.968,9.452.889,6.644.936,8.329.374,6.6-.173,7.673.1,6.786-3.348,8.844-2.908,4.024-1.357,4.492-.515,1.357,2.8-1.5,3.438-4.164,1.663-5.428,1.1-8.142,3.322-9.03,2.2-3.837-.983-6.411-.608-3.556-.468-6.644.187-7.455-.582-8.8.094-5.568,1.263-6.644.327-4.679-1.5-5.615-.983S329.686,162.975,329.546,162.319Z" transform="translate(-326.084 -126.198)" fill="#7bb027"/>
        <path id="Trazado_106235" data-name="Trazado 106235" d="M330.471,160.165c0-.08-.072-.131.066-.092a3,3,0,0,1,.736-.419l-.014-.083c.35-.1.671-.353,1.009-.431,0-.023-.009-.046-.012-.069a18.94,18.94,0,0,0,2.3-.312c.764.038,1.8.622,1.207,1.454-.269.379-.742.423-.674,1.014a1.5,1.5,0,0,0,.8.967,8.543,8.543,0,0,0,3.159.138c.814-.086,2.51-.219,2.554-1.327.078-.319-.418-.519-.483-.852a1.014,1.014,0,0,1,.494-.958,5.483,5.483,0,0,0,1.356-.279,8.94,8.94,0,0,0,1.784-.135,12.805,12.805,0,0,1,1.581.135c.327.163.677.393,1.01.529.269.307.721.787.488,1.283-.139.294-.534.325-.767.5a4.081,4.081,0,0,0-.634.7,1.134,1.134,0,0,0,.494.679.605.605,0,0,1,.28.125c1.2-.129,2.437.336,3.614.084a.6.6,0,0,0,.531-.066,2.894,2.894,0,0,0,.883-.035.62.62,0,0,0-.012-.089.27.27,0,0,0,.141.027.1.1,0,0,0-.029-.089c.77-.334-.751-.941-.964-1.15-.758-.744.363-1.187,1.05-1.31,1.631-.294,4.018-.414,5.476.595a1.183,1.183,0,0,1-.871,1.37c-.13.159-.443.377-.609.6,0,.04,0,.207,0,.269a1.657,1.657,0,0,0,.41.209c.342.251.978.123,1.31.111a.627.627,0,0,0,.187,0,1.97,1.97,0,0,0,.525.022.826.826,0,0,1-.012-.087c.25.005.7-.141.686-.5.467-.647-.7-1.76.708-1.837.794-.044,1.887.35,2.4-.409a2.136,2.136,0,0,1,1.5-.173c.776,1.035-.161,1.537-.846,2.332a.885.885,0,0,1-.064.088c.021.108.019.218.032.332.036.049.088.078.122.132a.175.175,0,0,0-.027-.064,1.619,1.619,0,0,0,1.433.314c.961.424,1.755-1.1,2.24-1.737a6.522,6.522,0,0,1,1.074-1.234c.47-.371.917-.235,1.347-.461a3.3,3.3,0,0,1,1.85.99c.4.445.656,1.332,1.38,1.166,2.3.4,3.034-3.4,4.795-4.257a.979.979,0,0,1,1.343.3c.277.426.125.967.387,1.375a.858.858,0,0,0,1.251.184c.448-.334.359-.922.668-1.322a1.345,1.345,0,0,1,2.45.823,4.125,4.125,0,0,1-1.941,2.783c-.052.41-1.147,1.312-1.615,1.446a1.279,1.279,0,0,1-1.622-1.235c-.071-.687.091-1.751-.652-2.025a1.273,1.273,0,0,0-1.478,1.04,6.762,6.762,0,0,0-.368,1.735,4.667,4.667,0,0,1-.6,1.514c-.1.085-.111.083-.138.139a2.593,2.593,0,0,1-3.419-1.84c-.491-.471-1.361-1.578-1.719-.187a4.811,4.811,0,0,0,.012,1.435,10.744,10.744,0,0,0-.085,1.373,2.667,2.667,0,0,1-2.428,1.33,6.927,6.927,0,0,1-3.472-.847c-.866-.407-1.591-.692-1.355-1.777.069-.316.337-.923.17-1.268a.891.891,0,0,0-1.167-.334c-1.176-.022-.919,1.424-1.159,2.206a2.509,2.509,0,0,1-2.432,1.672c-.782.075-3.253.12-3.216-1.045.016-.511.642-.838.72-1.324.1-.6-.417-1.023-.922-1.251-.389-.176-1.855-.326-1.491.44-.013.249.244.537.32.825a6.2,6.2,0,0,0,.121.887c-.271.3-.28.8-.432,1.106a2.432,2.432,0,0,1-.9.941,1.2,1.2,0,0,0-.281.1,8.873,8.873,0,0,1-4-.738,3.868,3.868,0,0,1-1.18-.773c-.34-.463-.091-1.026-.344-1.523-.427-.841-2.454-1.311-2.161.111.143.7.691.976.677,1.764a1.31,1.31,0,0,1-.567,1.249.05.05,0,0,0,0,.063c-2.583.8-1.363-3.047-3.234-3.374a2.978,2.978,0,0,0-2.332.613c-.567.821.848,1.318.054,2.171-.036,0-.26.03-.214.026-1.136.275-2.966-.144-3.362-1.449-.155-.511.243-1.076.036-1.532a1.838,1.838,0,0,0-1.2-.724,1.064,1.064,0,0,0-1.1.1c-.486.337-.359.64-.1,1.109.6,1.115.746,1.76-.044,2.842a3.7,3.7,0,0,1-2.906-.268c-.66-.459-.837-1.684-1.086-2.354-.326-.468-1.586-.351-2.06-.249-2.25-.219-2.9-3.51-.284-3.466a6.009,6.009,0,0,1,2.686,1.17c.657.371,2.11.917,2.306-.3.154-.955-.979-.8-1.243-1.48C330.487,159.995,330.37,160.236,330.471,160.165Z" transform="translate(-324.263 -125.79)" fill="#9fcc29"/>
        <path id="Trazado_106236" data-name="Trazado 106236" d="M333.366,139.768s-7.315,2.382-9.514,5.893l.811,1.187s12.072-3.155,21.368-1.905,19.424,3.571,22.413,4.8c0,0,6.457-7.869,15.113-7.494V140.8a15.716,15.716,0,0,0-6.988-2.309C372.794,138.3,347.715,142.076,333.366,139.768Z" transform="translate(-323.851 -118.245)" fill="#ffcf08"/>
        <path id="Trazado_106237" data-name="Trazado 106237" d="M370.577,147.59c-1.421.993-2.614,1.894-2.614,1.894-9.814-2.416-17.161-4.427-24.134-4.427a91.021,91.021,0,0,0-19.979,2.1l.811,1.187s12.072-3.155,21.368-1.905,19.424,3.571,22.413,4.8c0,0,6.457-7.869,15.113-7.494V142.29C376.538,142.571,372.483,146.258,370.577,147.59Z" transform="translate(-323.851 -119.738)" fill="#efa708"/>
        <path id="Trazado_106238" data-name="Trazado 106238" d="M379.683,132.49s1.248.578,1.389,1.607-.16,3.118-.694,3.509c-1.141.836-27.492,3.68-48.095,1.466,0,0-.669-.343-1.044-4.32,0,0,6.02,2.23,27.56,1.418C375.866,135.526,379.683,132.49,379.683,132.49Z" transform="translate(-326.747 -115.896)" fill="#e72124"/>
        <path id="Trazado_106239" data-name="Trazado 106239" d="M357.408,138.343a128.15,128.15,0,0,0,13.257-1.256c3.911-.453,7.22-.919,10.388-3.063a2.6,2.6,0,0,0-1.369-1.534s-3.818,3.036-20.884,3.68c-21.54.812-27.56-1.418-27.56-1.418a19.269,19.269,0,0,0,.5,3.123C340.094,139.707,348.943,138.431,357.408,138.343Z" transform="translate(-326.747 -115.896)" fill="#c42124" opacity="0.55" style="mix-blend-mode: multiply;isolation: isolate"/>
        <path id="Trazado_106240" data-name="Trazado 106240" d="M354.487,105.2a53.775,53.775,0,0,0-13.658,1.957,29.42,29.42,0,0,0-8.555,3.641,13.452,13.452,0,0,0-5.207,6.44,8.438,8.438,0,0,0,1.372,7.487c2.748,3.72,44.62,2.136,50.51-2.113a6.844,6.844,0,0,0,.7-6.605c-.762-2.138-2.885-4.134-4.706-5.385a29.979,29.979,0,0,0-9.578-4.15A42.6,42.6,0,0,0,354.487,105.2Z" transform="translate(-324.977 -105.197)" fill="#f89945"/>
        <path id="Trazado_106241" data-name="Trazado 106241" d="M370.006,126.9c-5.947,1.809-11.8,1.225-17.925,1.338-6.288.116-12.764.76-18.991-.433-2.77-.531-4.857-1.35-6.093-3.155a8.491,8.491,0,0,0,1.442,7.259c2.748,3.72,44.62,2.136,50.51-2.113a6.8,6.8,0,0,0,.8-6.269C376.847,125.287,373.538,125.825,370.006,126.9Z" transform="translate(-324.976 -112.382)" fill="#e8761f"/>
        <path id="Trazado_106242" data-name="Trazado 106242" d="M370.575,108.069c-1.338-.413-5.038-.764-5.414,1.248-.323,1.729,2.959,2.07,4.044,2.121,1.227.058,3.175-.212,3.327-1.473C372.65,108.992,371.684,108.41,370.575,108.069Z" transform="translate(-340.036 -106.198)" fill="#fde5c1" opacity="0.32" style="mix-blend-mode: screen;isolation: isolate"/>
        <path id="Trazado_106243" data-name="Trazado 106243" d="M384.554,114.817c-3.089-.291-6.524-.089-8.8,1.844-1.843,1.567-.049,2.687,1.605,3.2a20.317,20.317,0,0,0,8.038.873c1.77-.21,4.976-.575,4.63-2.96a2.721,2.721,0,0,0-1.242-1.675A12.426,12.426,0,0,0,384.554,114.817Z" transform="translate(-343.893 -108.926)" fill="#fde5c1" opacity="0.32" style="mix-blend-mode: screen;isolation: isolate"/>
        <path id="Trazado_106244" data-name="Trazado 106244" d="M353.009,114.569c.212.418-.2,1.053-.927,1.419s-1.481.325-1.692-.093.2-1.053.927-1.419S352.8,114.151,353.009,114.569Z" transform="translate(-334.233 -108.737)" fill="#fbd198"/>
        <path id="Trazado_106245" data-name="Trazado 106245" d="M372.634,124.981c.212.418-.2,1.053-.927,1.419s-1.481.324-1.693-.094.2-1.052.927-1.419S372.423,124.563,372.634,124.981Z" transform="translate(-341.926 -112.818)" fill="#fbd198"/>
        <path id="Trazado_106246" data-name="Trazado 106246" d="M388.949,123.472c.211.418-.2,1.053-.927,1.42s-1.481.324-1.693-.094.2-1.053.927-1.419S388.738,123.055,388.949,123.472Z" transform="translate(-348.322 -112.227)" fill="#fbd198"/>
        <path id="Trazado_106247" data-name="Trazado 106247" d="M341.465,119.1c.212.418-.2,1.053-.927,1.419s-1.481.324-1.692-.094.2-1.052.927-1.419S341.253,118.684,341.465,119.1Z" transform="translate(-329.707 -110.514)" fill="#fbd198"/>
        <path id="Trazado_106248" data-name="Trazado 106248" d="M404.88,118.435c.212.418-.2,1.053-.927,1.419s-1.481.325-1.692-.093.2-1.053.927-1.419S404.668,118.017,404.88,118.435Z" transform="translate(-354.566 -110.252)" fill="#fbd198"/>
        <path id="Trazado_106249" data-name="Trazado 106249" d="M377.753,120.409c-.2.422-.959.478-1.69.127s-1.158-.978-.955-1.4.959-.478,1.69-.127S377.956,119.987,377.753,120.409Z" transform="translate(-343.924 -110.521)" fill="#fbd198"/>
        <path id="Trazado_106250" data-name="Trazado 106250" d="M391.98,116.442c.1.458-.471.964-1.265,1.128s-1.515-.074-1.609-.532.471-.963,1.265-1.128S391.885,115.983,391.98,116.442Z" transform="translate(-349.427 -109.376)" fill="#fbd198"/>
        <path id="Trazado_106251" data-name="Trazado 106251" d="M353.016,125.488c-.2.422-.96.479-1.691.127s-1.158-.978-.955-1.4.96-.479,1.69-.128S353.219,125.066,353.016,125.488Z" transform="translate(-334.227 -112.512)" fill="#fbd198"/>
        <path id="Trazado_106252" data-name="Trazado 106252" d="M364.312,121c-.19.358-.926.34-1.645-.04s-1.148-.979-.958-1.338.926-.34,1.645.04S364.5,120.64,364.312,121Z" transform="translate(-338.674 -110.751)" fill="#fbd198"/>
        <path id="Trazado_106253" data-name="Trazado 106253" d="M338.751,126.357c-.1.393-.816.554-1.606.36s-1.351-.672-1.254-1.065.816-.554,1.605-.36S338.848,125.963,338.751,126.357Z" transform="translate(-328.567 -113.042)" fill="#fbd198"/>
        <path id="Trazado_106254" data-name="Trazado 106254" d="M383.426,111.065c-.2.384-.929.4-1.621.033s-1.088-.975-.885-1.359.929-.4,1.622-.033S383.629,110.68,383.426,111.065Z" transform="translate(-346.201 -106.861)" fill="#fbd198"/>
        <path id="Trazado_106255" data-name="Trazado 106255" d="M398.851,113.171c-.2.384-.929.4-1.622.033s-1.088-.975-.885-1.359.929-.4,1.622-.033S399.054,112.786,398.851,113.171Z" transform="translate(-352.248 -107.686)" fill="#fbd198"/>
        <ellipse id="Elipse_4248" data-name="Elipse 4248" cx="0.788" cy="1.418" rx="0.788" ry="1.418" transform="translate(19.704 3.019) rotate(-62.125)" fill="#fbd198"/>
        <path id="Trazado_106256" data-name="Trazado 106256" d="M379.324,116.564c-5.865,2.943-13.515,3.993-19.628,4.537-4.415.393-9.236.833-13.559-.418-4.261-1.233-7.368-4.132-6.842-8.847a7.1,7.1,0,0,1,1.3-3.308,29.078,29.078,0,0,0-8.325,3.574,13.452,13.452,0,0,0-5.207,6.44,8.438,8.438,0,0,0,1.372,7.487c2.748,3.72,44.62,2.136,50.51-2.113a6.844,6.844,0,0,0,.7-6.605A6.505,6.505,0,0,0,379.324,116.564Z" transform="translate(-324.977 -106.503)" fill="#d48745" opacity="0.35" style="mix-blend-mode: multiply;isolation: isolate"/>
        <path id="Trazado_106257" data-name="Trazado 106257" d="M354.332,129.558c-.751,0-1.507,0-2.266.013-6.085.1-12.353.648-18.378-.368-2.681-.452-4.7-1.149-5.9-2.686a6.513,6.513,0,0,0,1.4,6.179c1.5,1.788,15.064,2.136,27.619,1.451A19.3,19.3,0,0,1,354.332,129.558Z" transform="translate(-325.291 -113.555)" fill="#ba773d" opacity="0.32" style="mix-blend-mode: multiply;isolation: isolate"/>
      </g>
      <g id="Grupo_85517" data-name="Grupo 85517" transform="translate(485.355 28404.984)">
        <path id="Trazado_106258" data-name="Trazado 106258" d="M182.065,207.554s-12.757-1.588-19.252-1.916-23.737,1.916-23.737,1.916l4.252,3.224s17.2,7.663,22.056,6.775S182.065,207.554,182.065,207.554Z" transform="translate(-138.445 -179.051)" fill="#b0000f"/>
        <g id="Grupo_85516" data-name="Grupo 85516" transform="translate(0 0)">
          <path id="Trazado_106259" data-name="Trazado 106259" d="M186.4,194.2l-5.381-40.117-4.766,1.075,6.416,40.4Z" transform="translate(-156.459 -154.081)" fill="#e88d3b"/>
          <path id="Trazado_106260" data-name="Trazado 106260" d="M137.852,188.745l7.342,13.477,2.541-1.141-6.448-14.859Z" transform="translate(-137.852 -169.657)" fill="#e88d3b"/>
          <path id="Trazado_106261" data-name="Trazado 106261" d="M142.476,177.091,154.952,188.8l.981-5.467L145.35,173.166Z" transform="translate(-140.093 -163.33)" fill="#e8a33b"/>
          <path id="Trazado_106262" data-name="Trazado 106262" d="M150.713,178.661c-.315,1.886-1.112,3.748-3.123,3.523-.043,0-.089-.015-.132-.021l9.908,9.3.981-5.467Z" transform="translate(-142.507 -165.993)" fill="#db8300" opacity="0.55" style="mix-blend-mode: multiply;isolation: isolate"/>
          <path id="Trazado_106263" data-name="Trazado 106263" d="M173.6,181.467l-2.523-12.336,5.374.187.662,12.383Z" transform="translate(-153.955 -161.375)" fill="#e8a33b"/>
          <path id="Trazado_106264" data-name="Trazado 106264" d="M196.1,201l-2.523-23.617-3.551,1.028,2.009,23.55Z" transform="translate(-163.138 -165.373)" fill="#f6be51"/>
          <path id="Trazado_106265" data-name="Trazado 106265" d="M181.455,197.826l14.793-25.793,5.28,3.364-16.883,27.219Z" transform="translate(-158.983 -162.781)" fill="#e88d3b"/>
          <path id="Trazado_106266" data-name="Trazado 106266" d="M192.37,195.762a8.044,8.044,0,0,1-2.261-2.96l-8.654,15.089,3.189,4.789,9.846-15.874A5.416,5.416,0,0,1,192.37,195.762Z" transform="translate(-158.983 -172.846)" fill="#db8300" opacity="0.55" style="mix-blend-mode: multiply;isolation: isolate"/>
          <path id="Trazado_106267" data-name="Trazado 106267" d="M181.007,164.87l-10.244,33.423,5.511.851,10.746-32.078Z" transform="translate(-153.801 -159.31)" fill="url(#linear-gradient)"/>
          <path id="Trazado_106268" data-name="Trazado 106268" d="M178.634,194.175a18.229,18.229,0,0,1-1.86-2.509l-6.011,19.613,5.511.851,5.468-16.323A4.458,4.458,0,0,1,178.634,194.175Z" transform="translate(-153.801 -172.295)" fill="#db8300" opacity="0.55" style="mix-blend-mode: multiply;isolation: isolate"/>
          <path id="Trazado_106269" data-name="Trazado 106269" d="M207.257,205.231l6.355-10.136-4.2-2.663-5.244,11.962Z" transform="translate(-169.992 -172.667)" fill="#e88d3b"/>
          <path id="Trazado_106270" data-name="Trazado 106270" d="M167.624,183.187l-5.7-16.868,4.719-1.449,4.392,17.009Z" transform="translate(-149.517 -159.31)" fill="#f6be51"/>
          <path id="Trazado_106271" data-name="Trazado 106271" d="M170.073,181.309a4.326,4.326,0,0,1-3.284.124l3.193,9.448,3.411-1.308-2.28-8.827A10.784,10.784,0,0,1,170.073,181.309Z" transform="translate(-151.875 -167.003)" fill="#db8300" opacity="0.55" style="mix-blend-mode: multiply;isolation: isolate"/>
          <path id="Trazado_106272" data-name="Trazado 106272" d="M195.922,173.366l5.7-.607.607,19.415-3.154.3Z" transform="translate(-165.994 -163.132)" fill="#f6be51"/>
          <path id="Trazado_106273" data-name="Trazado 106273" d="M200.96,192.261c-.654-.07-1.551-1-2.213-1.271l1.7,10.29,3.154-.3-.315-10.054C202.552,191.437,201.926,192.365,200.96,192.261Z" transform="translate(-167.362 -171.935)" fill="#e4a23f" opacity="0.55" style="mix-blend-mode: multiply;isolation: isolate"/>
          <path id="Trazado_106274" data-name="Trazado 106274" d="M156.676,202.23l-1.145-25.573,6.238,1.355-.7,26.845Z" transform="translate(-146.42 -165.022)" fill="url(#linear-gradient-2)"/>
          <path id="Trazado_106275" data-name="Trazado 106275" d="M160.522,202.257c-1.347-.139-2.288-1.221-3.207-2.135-.264-.262-.521-.527-.768-.8l.622,13.89,4.392,2.626.365-13.992A2.2,2.2,0,0,1,160.522,202.257Z" transform="translate(-146.911 -176.007)" fill="#db8300" opacity="0.55" style="mix-blend-mode: multiply;isolation: isolate"/>
          <g id="Grupo_85510" data-name="Grupo 85510" transform="translate(29.929 16.894)">
            <g id="Grupo_85509" data-name="Grupo 85509">
              <path id="Trazado_106276" data-name="Trazado 106276" d="M199.076,204.918l7.733-15.186s.28-1.963-.374-2.43-3.785-.7-4.346,0-6.168,19.008-6.168,19.008Z" transform="translate(-195.922 -186.86)" fill="#f5b538"/>
            </g>
            <path id="Trazado_106277" data-name="Trazado 106277" d="M206.179,190.2c-.772-.019-1.54.074-2.311.081-1.477.013-1.814-1.216-1.818-2.423-.733,1.328-6.127,18.938-6.127,18.938l3.154-1.392,7.729-15.177C206.591,190.216,206.378,190.2,206.179,190.2Z" transform="translate(-195.922 -187.341)" fill="url(#linear-gradient-3)"/>
            <path id="Trazado_106278" data-name="Trazado 106278" d="M199.889,197.833a60.838,60.838,0,0,1,3.37-7.647c-.957-.293-1.2-1.316-1.209-2.332-.733,1.328-6.127,18.938-6.127,18.938l1.049-.463C197.483,203.374,199,200.707,199.889,197.833Z" transform="translate(-195.922 -187.341)" fill="#e27e1b"/>
          </g>
          <g id="Grupo_85511" data-name="Grupo 85511" transform="translate(11.518 11.09)">
            <path id="Trazado_106279" data-name="Trazado 106279" d="M160.2,201.1l9.532-25.5,5.28,2.009L165.2,202.843Z" transform="translate(-160.201 -175.599)" fill="#f6be51"/>
            <path id="Trazado_106280" data-name="Trazado 106280" d="M172.738,179.806a5.688,5.688,0,0,1-3.53-1.481L160.2,202.417l5,1.746,9.726-25.012A3.556,3.556,0,0,1,172.738,179.806Z" transform="translate(-160.201 -176.92)" fill="url(#linear-gradient-4)"/>
            <path id="Trazado_106281" data-name="Trazado 106281" d="M168.1,195.463a10.121,10.121,0,0,1-1.655-2.805L160.2,209.363l5,1.746,5.593-14.383A3.169,3.169,0,0,1,168.1,195.463Z" transform="translate(-160.201 -183.866)" fill="#db8300" opacity="0.55" style="mix-blend-mode: multiply;isolation: isolate"/>
            <path id="Trazado_106282" data-name="Trazado 106282" d="M166.707,190.154c.846-2.434,1.525-4.941,2.412-7.357.467-1.274,1.084-2.337,1.534-3.518a6.252,6.252,0,0,1-1.445-.954L160.2,202.417l3.532,1.234A48.621,48.621,0,0,1,166.707,190.154Z" transform="translate(-160.201 -176.92)" fill="#e27e1b"/>
          </g>
          <g id="Grupo_85512" data-name="Grupo 85512" transform="translate(11.518 16.54)">
            <path id="Trazado_106283" data-name="Trazado 106283" d="M165.808,206.454,160.2,188.417s3.094-2.523,4.117-2.219,1.677.444,2,1.705,3.878,19.952,3.878,19.952Z" transform="translate(-160.201 -186.173)" fill="#f6be51"/>
            <path id="Trazado_106284" data-name="Trazado 106284" d="M166.581,190.465a3.676,3.676,0,0,1-1,.982c-.8.513-2,1.415-3.032.982a7.258,7.258,0,0,1-1.316-.66,3.928,3.928,0,0,1-.722-.756l5.447,17.52,4.393,1.4S167.26,193.667,166.581,190.465Z" transform="translate(-160.352 -188.253)" fill="url(#linear-gradient-5)"/>
            <path id="Trazado_106285" data-name="Trazado 106285" d="M166.247,205.379a124.528,124.528,0,0,1-2.935-12.332,1.537,1.537,0,0,1-.762-.1,7.257,7.257,0,0,1-1.316-.66,3.927,3.927,0,0,1-.722-.756l5.447,17.52,1.214.388C166.72,207.979,166.5,206.366,166.247,205.379Z" transform="translate(-160.352 -188.769)" fill="#e27e1b"/>
          </g>
          <g id="Grupo_85513" data-name="Grupo 85513" transform="translate(24.415 15.766)">
            <path id="Trazado_106286" data-name="Trazado 106286" d="M187.14,205.914l-1.916-19.356s3.084-2.325,4.065-1.811a1.842,1.842,0,0,1,1.168,2.056c-.187.747.28,18.878.28,18.878S188.4,208.577,187.14,205.914Z" transform="translate(-185.224 -184.672)" fill="#f6be51"/>
            <path id="Trazado_106287" data-name="Trazado 106287" d="M190.522,188.631a1.534,1.534,0,0,0,.029-.186c-.025.026-.048.053-.075.076a6.759,6.759,0,0,1-3.208,1.9,2,2,0,0,1-1.911-1.333l1.847,18.659c1.262,2.664,3.6-.233,3.6-.233S190.336,189.378,190.522,188.631Z" transform="translate(-185.289 -186.501)" fill="url(#linear-gradient-6)"/>
            <path id="Trazado_106288" data-name="Trazado 106288" d="M188.595,202.732c-.055-.8-.123-1.6-.21-2.391-.228-2.058-.506-4.119-.84-6.164-.155-.945-.216-2.117-.447-3.159a2.072,2.072,0,0,1-1.739-1.334l1.847,18.659c.486,1.025,1.13,1.225,1.74,1.085Q188.7,206.083,188.595,202.732Z" transform="translate(-185.289 -187.101)" fill="#e27e1b"/>
          </g>
          <g id="Grupo_85514" data-name="Grupo 85514" transform="translate(20.101 25.777)">
            <path id="Trazado_106289" data-name="Trazado 106289" d="M177.476,216.028s-.794-10.582-.588-11.083,3.485-1.35,4.046-.461a7.208,7.208,0,0,1,.654,3.179c-.047.327.008,9.626.008,9.626S178.084,217.523,177.476,216.028Z" transform="translate(-176.854 -204.096)" fill="#f6be51"/>
            <path id="Trazado_106290" data-name="Trazado 106290" d="M181.589,208.677a4.064,4.064,0,0,0-.017-.689,2.2,2.2,0,0,1-1.032.506c-.909.186-2.2.3-2.918-.443a3.194,3.194,0,0,1-.761-1.863c-.076,1.63.616,10.854.616,10.854.608,1.5,4.121,1.262,4.121,1.262S181.542,209,181.589,208.677Z" transform="translate(-176.855 -205.11)" fill="url(#linear-gradient-7)"/>
            <path id="Trazado_106291" data-name="Trazado 106291" d="M178.166,214.332a36.7,36.7,0,0,1,.425-5.775,1.881,1.881,0,0,1-.969-.506,3.194,3.194,0,0,1-.761-1.863c-.076,1.63.616,10.854.616,10.854a1.409,1.409,0,0,0,.543.625C178.024,216.541,178.173,215.38,178.166,214.332Z" transform="translate(-176.855 -205.11)" fill="#e27e1b"/>
          </g>
          <g id="Grupo_85515" data-name="Grupo 85515" transform="translate(2.38 17.358)">
            <path id="Trazado_106292" data-name="Trazado 106292" d="M148.945,203.439s-6.635-12.8-6.472-13.248,3.678-2.687,4.514-2.406a2.856,2.856,0,0,1,1.957,1.635c.257.841,3.925,15.046,3.925,15.046A17.446,17.446,0,0,1,148.945,203.439Z" transform="translate(-142.47 -187.761)" fill="#f6be51"/>
            <path id="Trazado_106293" data-name="Trazado 106293" d="M148.965,190.935c-.005-.017-.014-.032-.02-.048a14.819,14.819,0,0,0-2.318,1.472,2.609,2.609,0,0,1-1.681.889c-.768,0-1.192-.535-1.773-.927a7.9,7.9,0,0,1-.662-.489c.366,1.374,6.454,13.121,6.454,13.121a17.447,17.447,0,0,0,3.925,1.028S149.221,191.777,148.965,190.935Z" transform="translate(-142.49 -189.276)" fill="url(#linear-gradient-8)"/>
            <path id="Trazado_106294" data-name="Trazado 106294" d="M144.946,194.138c-.768,0-1.192-.535-1.773-.927a7.9,7.9,0,0,1-.662-.489c.366,1.374,6.454,13.121,6.454,13.121.747.514,2.056,1.635,2.056,1.635S145.623,194.138,144.946,194.138Z" transform="translate(-142.49 -190.165)" fill="#e27e1b"/>
          </g>
        </g>
        <path id="Trazado_106295" data-name="Trazado 106295" d="M180.3,207.294c-.07.036-.141.07-.21.107a5.19,5.19,0,0,1-1.515,2.341,4.015,4.015,0,0,1-3.435.74,1.119,1.119,0,0,1-.162-.047,13.481,13.481,0,0,1-1.738.6.981.981,0,0,1-.151.517,2.253,2.253,0,0,1-1.722,1.138,3.8,3.8,0,0,1-1.413-.249,1.152,1.152,0,0,1-.77-.759c-.343.024-.688.043-1.033.057a1.022,1.022,0,0,1-.638,1.59,6.326,6.326,0,0,1-3.727-.421,1.506,1.506,0,0,1-.306-.165,1.449,1.449,0,0,1-.313.165,3.685,3.685,0,0,1-4.4-1.357,1.224,1.224,0,0,1-.094-.2,7.814,7.814,0,0,1-2.594-.972c-.463-.28-.939-.619-1.427-.956a14.907,14.907,0,0,1-5.529.2l1.529,2.805,1.03-.462.421.814.062.12c.36.247.847.634,1.259.97l.143,3.2,4.392,2.626.056-2.135.346.121,1.467.512.6-1.54.008.027.455.145-.618,2.018,5.511.851.325-.968a10.314,10.314,0,0,0,2.047.1s0-.135,0-.367l.82,1.231.226-.364.318,2,3.73-1.355-.393-2.93a4.952,4.952,0,0,0,.386-.412s0-.154-.011-.428l3.048-.721-.063-.595.18-.079,1.576-3.094,2.606.707,3.008-4.8-.09-.018A4.677,4.677,0,0,1,180.3,207.294Z" transform="translate(-143.318 -179.869)" fill="#c25900" opacity="0.32" style="mix-blend-mode: multiply;isolation: isolate"/>
        <path id="Trazado_106296" data-name="Trazado 106296" d="M139.076,209.386s8.13,21.214,8.037,31.775l3.738,2.149s16.1-1.308,26.039-.841c0,0,1.53-23.457,5.175-33.083l-7.383.538s-1.249,6.353-13.107,6.448c-8.762.071-11.986-5.467-11.986-5.467l-5.981.584Z" transform="translate(-138.445 -180.883)" fill="#ec2734"/>
        <path id="Trazado_106297" data-name="Trazado 106297" d="M148.153,227.131a93.734,93.734,0,0,0-4.544-15.642l-4.532-2.1s8.13,21.214,8.037,31.775l3.738,2.149C150.81,241.036,148.739,230.1,148.153,227.131Z" transform="translate(-138.445 -180.883)" fill="#d22734" opacity="0.75" style="mix-blend-mode: multiply;isolation: isolate"/>
        <path id="Trazado_106298" data-name="Trazado 106298" d="M179.108,231.619c-2.811,1.388-7.122.98-9.812-.509-3.733-2.064-6.344-5.463-8.915-8.779a36.018,36.018,0,0,1-5.107-8.351c-1.349.129-2.7.33-4.039.581,2.614,5.954,6.219,25.02,6.855,29.859.549-.006,19.168-.756,23.783-.7.483-5.343,1.89-15.989,1.89-15.989A14.871,14.871,0,0,1,179.108,231.619Z" transform="translate(-144.338 -183.109)" fill="#d42734" opacity="0.75" style="mix-blend-mode: multiply;isolation: isolate"/>
        <path id="Trazado_106299" data-name="Trazado 106299" d="M195.305,234.082a1.453,1.453,0,0,0-.649,1.143.987.987,0,0,0,.8.783,2.262,2.262,0,0,0,1.175-.136,2.7,2.7,0,0,0,1.222-.721,1.241,1.241,0,0,0,.24-1.331,1.278,1.278,0,0,0-1.405-.554A3.219,3.219,0,0,0,195.305,234.082Z" transform="translate(-165.378 -192.439)" fill="#f6985c" opacity="0.75" style="mix-blend-mode: screen;isolation: isolate"/>
        <path id="Trazado_106300" data-name="Trazado 106300" d="M206.934,223.569a3.2,3.2,0,0,0-4.429,1.584,1.859,1.859,0,0,0-.007,1.659,1.659,1.659,0,0,0,1.2.732,3.727,3.727,0,0,0,1.434-.127,5,5,0,0,0,1.783-.763,2.613,2.613,0,0,0,.985-1.359A1.591,1.591,0,0,0,206.934,223.569Z" transform="translate(-169.087 -187.58)" fill="#f6985c" opacity="0.75" style="mix-blend-mode: screen;isolation: isolate"/>
      </g>
      <g id="Grupo_85518" data-name="Grupo 85518" transform="translate(578.926 28404)">
        <path id="Trazado_106301" data-name="Trazado 106301" d="M482.926,157.8a59,59,0,0,1-6.834.26c-2.064-.014-4.294.279-6.291-.2l.541,4.513s5.074,1.625,8.475,1.232a38.671,38.671,0,0,0,6.394-1.337l.756-5.1A17.07,17.07,0,0,1,482.926,157.8Z" transform="translate(-458.893 -97.005)" fill="#d5d8d6"/>
        <path id="Trazado_106302" data-name="Trazado 106302" d="M475.744,158.695a26.636,26.636,0,0,1-5.041-.108q.167.869.318,1.742c.168.987.339,1.961.59,2.929a31.743,31.743,0,0,0,4.582.92A18.373,18.373,0,0,1,475.744,158.695Z" transform="translate(-459.292 -97.631)" fill="#b3b8bb"/>
        <path id="Trazado_106303" data-name="Trazado 106303" d="M472.265,161.219a30.262,30.262,0,0,0,6.452.4c2.282-.092,4.606-.954,6.8-1.435l.447-3.013a17.07,17.07,0,0,1-3.042.63,59,59,0,0,1-6.834.26c-2.064-.014-4.294.279-6.291-.2l.342,2.85C470.847,160.908,471.553,161.094,472.265,161.219Z" transform="translate(-458.893 -97.005)" fill="#d3d5d6" style="mix-blend-mode: multiply;isolation: isolate"/>
        <path id="Trazado_106304" data-name="Trazado 106304" d="M455.322,102.318s6.8,23.166,6.365,30.591c0,0,2.206,2.435,9.793,2.6s9.3-2.109,9.3-2.109.184-16.9,5.494-30.678C486.277,102.725,474.04,106.1,455.322,102.318Z" transform="translate(-452.488 -72.741)" fill="#ec2734"/>
        <path id="Trazado_106305" data-name="Trazado 106305" d="M483.741,114.722s1.192,5.29-7.775,5.232-10.721,8.661-7.4,13.719,11.446,6.859,15.23,1.395a6.257,6.257,0,0,1-7.827.64c-4.316-2.849-1.932-7.324,2.311-9.941S486.822,121.64,483.741,114.722Z" transform="translate(-457.655 -78.228)" fill="#e7f8f5"/>
        <path id="Trazado_106306" data-name="Trazado 106306" d="M489.863,126.479a1.192,1.192,0,1,1-1.192-1.177A1.184,1.184,0,0,1,489.863,126.479Z" transform="translate(-466.713 -82.908)" fill="#ec2734"/>
        <path id="Trazado_106307" data-name="Trazado 106307" d="M487.809,108.183c-.263,5-1.4,28.228-1.514,29.164a24.254,24.254,0,0,0,3.73-.3c.018-.278,4.08-29.088,4.436-30.595A19.654,19.654,0,0,1,487.809,108.183Z" transform="translate(-466.188 -74.571)" fill="#cb1c19" style="mix-blend-mode: screen;isolation: isolate"/>
        <path id="Trazado_106308" data-name="Trazado 106308" d="M455.322,102.318s.834,2.842,1.9,6.851c1.633,1.433,6.792,2.871,12.532,2.653,4.707-.179,11.51-1.831,15.015-4.673.452-1.453.949-2.928,1.509-4.424C486.277,102.725,474.04,106.1,455.322,102.318Z" transform="translate(-452.488 -72.741)" fill="#c30300" opacity="0.65" style="mix-blend-mode: multiply;isolation: isolate"/>
        <path id="Trazado_106309" data-name="Trazado 106309" d="M480.418,129.6a2.028,2.028,0,1,1-2.02-1.845A1.939,1.939,0,0,1,480.418,129.6Z" transform="translate(-461.802 -83.991)" fill="#ec2734"/>
        <path id="Trazado_106310" data-name="Trazado 106310" d="M473.958,140.851a1.529,1.529,0,1,1-1.526-1.424A1.478,1.478,0,0,1,473.958,140.851Z" transform="translate(-459.382 -89.156)" fill="#ec2734"/>
        <path id="Trazado_106311" data-name="Trazado 106311" d="M476.723,149.6a.855.855,0,1,1-.85-.763A.81.81,0,0,1,476.723,149.6Z" transform="translate(-461.203 -93.317)" fill="#ec2734"/>
        <path id="Trazado_106312" data-name="Trazado 106312" d="M481.186,153.93a.5.5,0,1,1-.5-.483A.492.492,0,0,1,481.186,153.93Z" transform="translate(-463.485 -95.357)" fill="#ec2734"/>
        <path id="Trazado_106313" data-name="Trazado 106313" d="M495.839,123.675a.48.48,0,1,1-.48-.509A.495.495,0,0,1,495.839,123.675Z" transform="translate(-469.986 -81.963)" fill="#ec2734"/>
        <path id="Trazado_106314" data-name="Trazado 106314" d="M481.334,130.291c-4.806-1.063-9.047-3.78-11.219-8.646-2.44-5.468-2.386-11.609-2.314-17.539a87.342,87.342,0,0,1-9.525-1.219c.121.236.239.473.348.715.678,1.494,2.521,11.3,3.43,14.517.878,3.1,2.1,14.737,2.142,14.988a18.987,18.987,0,0,0,8.131,1.614c7.346.162,9.008-2.042,9.008-2.042S481.3,131.82,481.334,130.291Z" transform="translate(-453.795 -72.993)" fill="#ca4d41" opacity="0.65" style="mix-blend-mode: multiply;isolation: isolate"/>
        <path id="Trazado_106315" data-name="Trazado 106315" d="M450.736,99.383a27.684,27.684,0,0,0,18.994,5.1c11.44-1.036,15.972-4.229,17.483-5.624a17.733,17.733,0,0,1-4.68-4.36l-27.367,1.125S452.494,98.642,450.736,99.383Z" transform="translate(-450.46 -69.283)" fill="#dedede"/>
        <path id="Trazado_106316" data-name="Trazado 106316" d="M466.785,99.317a10.187,10.187,0,0,1-1.683-.031,12.622,12.622,0,0,1-6.294-2.418,11.171,11.171,0,0,0-1.053,1.5,17.914,17.914,0,0,1-2.148,2.376q-.575.547-1.177,1.06a28.339,28.339,0,0,0,13.64,3.833A14.3,14.3,0,0,1,466.785,99.317Z" transform="translate(-452.094 -70.331)" fill="#cfcfce" style="mix-blend-mode: multiply;isolation: isolate"/>
        <path id="Trazado_106317" data-name="Trazado 106317" d="M491.578,98.916c-1.956.417-3.882.858-5.823,1.205.149,2.072.356,4.139.607,6.2a50.259,50.259,0,0,0,8.066-1.475c-.41-.884-.824-1.766-1.267-2.631C492.6,101.123,492.058,100.03,491.578,98.916Z" transform="translate(-465.95 -71.237)" fill="#bacfd6" style="mix-blend-mode: screen;isolation: isolate"/>
        <path id="Trazado_106318" data-name="Trazado 106318" d="M486.047,93.346s-4.1-1.947-13.559-1.337-11.931,1.017-13.808,2.462c0,0,2.991,3.856,14.651,3.235C483.141,97.183,485.786,94.247,486.047,93.346Z" transform="translate(-453.974 -68.129)" fill="#e2e5e3"/>
        <path id="Trazado_106319" data-name="Trazado 106319" d="M498.512,92.583a44.105,44.105,0,0,1-1.957,4.561c4.587-1.1,6.054-2.835,6.245-3.492A16.823,16.823,0,0,0,498.512,92.583Z" transform="translate(-470.727 -68.435)" fill="#f8fafb"/>
        <path id="Trazado_106320" data-name="Trazado 106320" d="M462.9,95.487c.344-.678.775-1.379,1.161-2.1-2.922.387-4.261.88-5.384,1.745a7.965,7.965,0,0,0,3.41,2.017Q462.485,96.315,462.9,95.487Z" transform="translate(-453.974 -68.792)" fill="#f8fafb"/>
        <path id="Trazado_106321" data-name="Trazado 106321" d="M485.516,92.918s-11.147-3.924-21.959.916c0,0,3.314,2.267,11.888,2.064C482.466,95.731,485.516,92.918,485.516,92.918Z" transform="translate(-456.131 -67.92)" fill="#a1a8a6"/>
        <path id="Trazado_106322" data-name="Trazado 106322" d="M465.694,89.135a4.334,4.334,0,0,1,1.046,3.092,42.591,42.591,0,0,0,10,.959,32.41,32.41,0,0,0,7.63-1.657s-.189-1.173.9-3.746Z" transform="translate(-457.076 -66.312)" fill="#dedede"/>
        <path id="Trazado_106323" data-name="Trazado 106323" d="M475.584,89.163l-6.094.42a19.343,19.343,0,0,1-.22,2.08c-.084.447-.177.891-.273,1.335a48.637,48.637,0,0,0,6.515.817A29.507,29.507,0,0,1,475.584,89.163Z" transform="translate(-458.537 -66.923)" fill="#cfcfcf" style="mix-blend-mode: multiply;isolation: isolate"/>
        <path id="Trazado_106324" data-name="Trazado 106324" d="M489.465,88.424l-2.032.141c-.246,1.607-.434,3.215-.548,4.832a30.668,30.668,0,0,0,4.224-.793C490.517,91.227,489.938,89.846,489.465,88.424Z" transform="translate(-466.449 -66.596)" fill="#bacfd6" style="mix-blend-mode: screen;isolation: isolate"/>
        <path id="Trazado_106325" data-name="Trazado 106325" d="M485.269,86.74a37.813,37.813,0,0,0-10.347-1.279c-4.65.291-7.266,1.25-9.228,2.631,0,0,2.543,2.017,9.693,2.017s9.828-3.233,9.828-3.233Z" transform="translate(-457.076 -65.269)" fill="#e2e5e3"/>
        <path id="Trazado_106326" data-name="Trazado 106326" d="M469.809,86.857a12.62,12.62,0,0,0-4.115,1.868,8.24,8.24,0,0,0,2.534,1.124A23.108,23.108,0,0,1,469.809,86.857Z" transform="translate(-457.076 -65.903)" fill="#f8fafb"/>
        <path id="Trazado_106327" data-name="Trazado 106327" d="M493.634,86.456c-.165.4-.338.794-.5,1.191q-.454,1.119-.872,2.247a9.874,9.874,0,0,0,4.7-2.564l.055-.135S495.616,86.81,493.634,86.456Z" transform="translate(-468.828 -65.725)" fill="#f8fafb"/>
        <path id="Trazado_106328" data-name="Trazado 106328" d="M473.512,89.112a23.353,23.353,0,0,1,6.409-.981,20.908,20.908,0,0,1,4.425.488,11.5,11.5,0,0,1-5.973,1.43C474.384,90.115,473.512,89.112,473.512,89.112Z" transform="translate(-460.534 -66.464)" fill="#a1a8a6"/>
        <path id="Trazado_106329" data-name="Trazado 106329" d="M450.241,72.843s-.051,2.376,1.9,2.442c0,0,.494-1.308-.407-1.991S450.749,72.7,450.241,72.843Z" transform="translate(-450.241 -59.659)" fill="#aca9b1"/>
        <path id="Trazado_106330" data-name="Trazado 106330" d="M469.773,71.666s.741.61,2.485,0l-5.581-19.75s1.111-.283.218-1.264c0,0,.327-1.2-.829-.589,0,0-.2-1.221-1.09-.5,0,0,.022-.828-1.2.371s-13.537,12.534-13.537,12.534,2.078.523,1.9,2.442c0,0,12.266-12.323,12.44-12.091S468.857,67.829,469.773,71.666Z" transform="translate(-450.241 -49.282)" fill="#ced3d6"/>
        <path id="Trazado_106331" data-name="Trazado 106331" d="M466.237,51.4c-.127-.331-.5-1.1-1.132-.681-2.261,1.487-10.162,9.177-13.789,12.457a1.7,1.7,0,0,1,.373.212c.181-.323,11.286-10.75,13.507-12.2a.378.378,0,0,1,.58.153c1.1,2.273,4.668,15.671,5.884,20.1.148,0,.172.008.321,0C471.011,67.748,466.914,53.165,466.237,51.4Z" transform="translate(-450.716 -49.862)" fill="#bacfd6" style="mix-blend-mode: screen;isolation: isolate"/>
      </g>
      <g id="Grupo_85519" data-name="Grupo 85519" transform="translate(456.294 28428.418)">
        <rect id="Rectángulo_33901" data-name="Rectángulo 33901" width="5.698" height="17.907" transform="translate(6.105)" fill="#727997"/>
        <rect id="Rectángulo_33902" data-name="Rectángulo 33902" width="5.561" height="17.875" transform="translate(17.875 6.189) rotate(90)" fill="#727997"/>
      </g>
      <g id="Grupo_85520" data-name="Grupo 85520" transform="translate(545.013 28428.418)">
        <rect id="Rectángulo_33901-2" data-name="Rectángulo 33901" width="5.698" height="17.907" transform="translate(6.105)" fill="#727997"/>
        <rect id="Rectángulo_33902-2" data-name="Rectángulo 33902" width="5.561" height="17.875" transform="translate(17.875 6.189) rotate(90)" fill="#727997"/>
      </g>
    </g>
  </g>
</svg>
