<svg xmlns="http://www.w3.org/2000/svg" xmlns:xlink="http://www.w3.org/1999/xlink" width="345.426" height="344.486" viewBox="0 0 345.426 344.486">
  <defs>
    <linearGradient id="linear-gradient" x1="1.705" y1="0.062" x2="-0.299" y2="0.79" gradientUnits="objectBoundingBox">
      <stop offset="0" stop-color="#ab316d"/>
      <stop offset="1" stop-color="#792d3d"/>
    </linearGradient>
    <linearGradient id="linear-gradient-2" x1="0.157" y1="0.033" x2="0.86" y2="1.027" gradientUnits="objectBoundingBox">
      <stop offset="0" stop-color="#ffc444"/>
      <stop offset="0.996" stop-color="#f36f56"/>
    </linearGradient>
    <linearGradient id="linear-gradient-3" y1="0.5" x2="1" y2="0.5" gradientUnits="objectBoundingBox">
      <stop offset="0" stop-color="#444b8c"/>
      <stop offset="0.996" stop-color="#26264f"/>
    </linearGradient>
    <linearGradient id="linear-gradient-4" x1="0.888" y1="-0.283" x2="0.052" y2="1.048" gradientUnits="objectBoundingBox">
      <stop offset="0" stop-color="#ff9085"/>
      <stop offset="1" stop-color="#fb6fbb"/>
    </linearGradient>
    <linearGradient id="linear-gradient-5" x1="-19.064" y1="6.505" x2="-17.858" y2="6.505" gradientUnits="objectBoundingBox">
      <stop offset="0.004" stop-color="#f36f56"/>
      <stop offset="1" stop-color="#ffc444"/>
    </linearGradient>
    <linearGradient id="linear-gradient-6" x1="-8.532" y1="2.195" x2="-10.175" y2="8.486" xlink:href="#linear-gradient-3"/>
    <linearGradient id="linear-gradient-7" x1="0.923" y1="0.274" x2="-0.277" y2="0.87" xlink:href="#linear-gradient"/>
    <linearGradient id="linear-gradient-8" x1="6.219" y1="-22.875" x2="4.977" y2="-9.975" xlink:href="#linear-gradient-3"/>
    <linearGradient id="linear-gradient-9" x1="6.395" y1="-6.379" x2="7.363" y2="-6.379" xlink:href="#linear-gradient-5"/>
    <linearGradient id="linear-gradient-10" x1="-0.868" y1="1.646" x2="-2.571" y2="1.127" xlink:href="#linear-gradient"/>
    <linearGradient id="linear-gradient-11" x1="-1.806" y1="0.915" x2="-2.701" y2="1.532" xlink:href="#linear-gradient"/>
    <linearGradient id="linear-gradient-12" x1="-2.475" y1="0.897" x2="-3.634" y2="1.507" xlink:href="#linear-gradient"/>
    <linearGradient id="linear-gradient-13" x1="0.489" y1="0.996" x2="0.545" y2="-0.591" gradientUnits="objectBoundingBox">
      <stop offset="0" stop-color="#aa80f9"/>
      <stop offset="0.996" stop-color="#6165d7"/>
    </linearGradient>
    <linearGradient id="linear-gradient-14" x1="-87.812" y1="0.38" x2="-87.669" y2="1.756" xlink:href="#linear-gradient-5"/>
    <linearGradient id="linear-gradient-15" x1="-46.396" y1="2.583" x2="-46.513" y2="1.488" xlink:href="#linear-gradient-3"/>
    <linearGradient id="linear-gradient-16" x1="0.418" y1="-0.915" x2="0.616" y2="3.156" xlink:href="#linear-gradient-5"/>
    <linearGradient id="linear-gradient-17" x1="52.218" y1="14.995" x2="53.671" y2="16.581" xlink:href="#linear-gradient-5"/>
    <linearGradient id="linear-gradient-18" x1="-92.531" y1="0.882" x2="-92.158" y2="1.618" xlink:href="#linear-gradient-5"/>
    <linearGradient id="linear-gradient-19" x1="-0.113" y1="1.166" x2="0.806" y2="0.027" xlink:href="#linear-gradient-13"/>
    <linearGradient id="linear-gradient-20" x1="-9.308" y1="0.009" x2="-9.04" y2="1.163" xlink:href="#linear-gradient-13"/>
    <linearGradient id="linear-gradient-21" x1="1.024" y1="1.931" x2="0.513" y2="1.114" gradientUnits="objectBoundingBox">
      <stop offset="0" stop-color="#311944"/>
      <stop offset="1" stop-color="#893976"/>
    </linearGradient>
    <linearGradient id="linear-gradient-22" x1="1.23" y1="1.922" x2="0.321" y2="1.055" xlink:href="#linear-gradient-21"/>
    <linearGradient id="linear-gradient-23" x1="-0.03" y1="0.289" x2="0.977" y2="1.652" gradientUnits="objectBoundingBox">
      <stop offset="0" stop-color="#e38ddd"/>
      <stop offset="0.004" stop-color="#91dcff"/>
      <stop offset="1" stop-color="#0d66bf"/>
    </linearGradient>
    <linearGradient id="linear-gradient-24" x1="21.371" y1="0.5" x2="22.371" y2="0.5" gradientUnits="objectBoundingBox">
      <stop offset="0" stop-color="#311944"/>
      <stop offset="1" stop-color="#6b3976"/>
    </linearGradient>
    <linearGradient id="linear-gradient-25" x1="70.874" y1="1.387" x2="73.615" y2="-4.63" xlink:href="#linear-gradient-2"/>
    <linearGradient id="linear-gradient-27" x1="48.156" y1="1.496" x2="50.202" y2="-5.228" xlink:href="#linear-gradient-2"/>
    <linearGradient id="linear-gradient-28" x1="-32.622" y1="-0.126" x2="-31.842" y2="0.819" xlink:href="#linear-gradient-24"/>
    <linearGradient id="linear-gradient-29" x1="-30.452" y1="0.5" x2="-29.452" y2="0.5" xlink:href="#linear-gradient-24"/>
    <linearGradient id="linear-gradient-30" x1="-58.046" y1="-1.024" x2="-58.753" y2="4.366" xlink:href="#linear-gradient"/>
    <linearGradient id="linear-gradient-31" x1="-22.535" y1="1.268" x2="-21.085" y2="0.258" xlink:href="#linear-gradient-13"/>
    <linearGradient id="linear-gradient-32" x1="-11.068" y1="0.69" x2="-10.393" y2="-0.006" xlink:href="#linear-gradient-13"/>
    <linearGradient id="linear-gradient-33" x1="-20.158" y1="0.18" x2="-19.798" y2="1.967" xlink:href="#linear-gradient-2"/>
    <linearGradient id="linear-gradient-34" x1="-73.895" y1="-0.567" x2="-74.66" y2="4.962" xlink:href="#linear-gradient"/>
    <linearGradient id="linear-gradient-35" x1="-20.235" y1="0.655" x2="-19.047" y2="-0.119" xlink:href="#linear-gradient-13"/>
    <linearGradient id="linear-gradient-36" x1="-26.941" y1="22.077" x2="-26.886" y2="19.975" xlink:href="#linear-gradient"/>
    <linearGradient id="linear-gradient-37" x1="31.948" y1="22.529" x2="31.311" y2="20.773" xlink:href="#linear-gradient-3"/>
    <linearGradient id="linear-gradient-38" x1="-78.561" y1="21.247" x2="-78.594" y2="24.273" xlink:href="#linear-gradient"/>
    <linearGradient id="linear-gradient-39" x1="-19.952" y1="0.858" x2="-18.791" y2="-0.261" xlink:href="#linear-gradient-13"/>
  </defs>
  <g id="Grupo_85227" data-name="Grupo 85227" transform="translate(-199.403 -743.756)">
    <path id="Trazado_105721" data-name="Trazado 105721" d="M460.6,763.775c11.794,16.51-1.546,43.619,15.826,55.947,16.91,12,37.316-8.176,53.242,2.139,23.625,15.3,20.089,86.5-13.748,131.063-10.176,13.4-18.741,18.666-22.4,33.741-7.858,32.371,21.154,51.272,15.839,67.3-11.966,36.083-201.5,68.248-278.81-39-36.108-50.089-42.2-122.9-10.993-178.582C275.94,735.768,434.136,726.729,460.6,763.775Z" transform="translate(0 0)" fill="#f4f7fa"/>
    <g id="Grupo_85214" data-name="Grupo 85214" transform="translate(218.019 745.214)">
      <path id="Trazado_105722" data-name="Trazado 105722" d="M375.237,1596.124H358.084a7.369,7.369,0,0,1-7.369-7.369v-57.278h24.522Z" transform="translate(-350.715 -1436.022)" fill="url(#linear-gradient)"/>
      <g id="Grupo_85211" data-name="Grupo 85211" transform="translate(7.743 0)">
        <path id="Trazado_105723" data-name="Trazado 105723" d="M641.31,992.063,423.2,979.445c-5.023-.245-9.545,5.237-9.545,9.84v280.858c0,6.384,6.521,7.668,11.544,7.156l216.112-22.071a8.2,8.2,0,0,0,7.135-8.07v-247.4A7.679,7.679,0,0,0,641.31,992.063Z" transform="translate(-413.654 -951.9)" fill="#db6e5f"/>
        <path id="Trazado_105724" data-name="Trazado 105724" d="M670.468,987.206,451.927,976.456c-5.023-.247-9.115,3.312-9.115,7.951v283.052c0,4.639,4.091,7.978,9.115,7.461l218.541-22.493a8.244,8.244,0,0,0,7.135-8.133V994.956A7.714,7.714,0,0,0,670.468,987.206Z" transform="translate(-439.225 -949.274)" fill="url(#linear-gradient-2)"/>
        <path id="Trazado_105725" data-name="Trazado 105725" d="M481.829,1298.487a4.215,4.215,0,0,1-4.919-4.037V1012a4.486,4.486,0,0,1,4.919-4.3l218.541,10.323a4.177,4.177,0,0,1,3.866,4.192v249.806a4.463,4.463,0,0,1-3.866,4.4Z" transform="translate(-469.128 -976.68)" fill="#dbbe36" opacity="0.3" style="mix-blend-mode: multiply;isolation: isolate"/>
        <path id="Trazado_105726" data-name="Trazado 105726" d="M846.354,1408.391,659.435,1426.4V1165.816l186.919,7.04Z" transform="translate(-629.196 -1115.349)" fill="#fff"/>
        <path id="Trazado_105727" data-name="Trazado 105727" d="M1038.567,1035.462l-74.7.934,1.676-16.847a4.565,4.565,0,0,1,3.792-4.306l12.651-1.944a4.552,4.552,0,0,0,3.423-2.627l1.372-2.979,33.091,2.043Z" transform="translate(-896.171 -976.679)" fill="#97a6b7" opacity="0.3" style="mix-blend-mode: multiply;isolation: isolate"/>
        <path id="Trazado_105728" data-name="Trazado 105728" d="M1078.459,803.466a4,4,0,0,0-3.806-3.33l-11.937-.535a9.584,9.584,0,0,1-9.191-10.219l.461-12.919a4.192,4.192,0,0,0-3.966-4.444l-3.922-.234a4.965,4.965,0,0,1-4.562-5.864,8.857,8.857,0,0,0-8.207-10.285,10.749,10.749,0,0,0-11.1,9.106,6,6,0,0,1-.829,2.3,6.14,6.14,0,0,1-5.505,2.938l-4.045-.242a5.364,5.364,0,0,0-5.4,3.995l-3.364,13.114a12.846,12.846,0,0,1-12.769,9.508l-13.094-.587a5.688,5.688,0,0,0-5.237,3.114l-7.891,15.657a1.811,1.811,0,0,0,1.558,2.714l113.554,3.772a2.109,2.109,0,0,0,2.068-2.429Zm-46.74-36.649a2.6,2.6,0,0,1-2.422-3.037,3.148,3.148,0,0,1,3.245-2.677,2.6,2.6,0,0,1,2.413,3.036A3.15,3.15,0,0,1,1031.719,766.817Z" transform="translate(-896.171 -755.613)" fill="url(#linear-gradient-3)"/>
        <path id="Trazado_105729" data-name="Trazado 105729" d="M1083.927,806.312a4,4,0,0,0-3.806-3.33l-11.937-.535a9.585,9.585,0,0,1-9.191-10.219l.461-12.919a4.192,4.192,0,0,0-3.966-4.444l-3.922-.234a4.965,4.965,0,0,1-4.562-5.863,8.857,8.857,0,0,0-8.207-10.285,10.748,10.748,0,0,0-11.1,9.105,6,6,0,0,1-.83,2.3,6.139,6.139,0,0,1-5.5,2.938l-4.046-.242a5.364,5.364,0,0,0-5.4,3.995l-3.364,13.114a12.846,12.846,0,0,1-12.769,9.509l-13.094-.587a5.688,5.688,0,0,0-5.237,3.114l-7.891,15.657a1.811,1.811,0,0,0,1.558,2.714l113.554,3.772a2.109,2.109,0,0,0,2.068-2.429Zm-46.74-36.649a2.6,2.6,0,0,1-2.422-3.037,3.149,3.149,0,0,1,3.245-2.677,2.6,2.6,0,0,1,2.413,3.036A3.15,3.15,0,0,1,1037.187,769.663Z" transform="translate(-900.966 -758.109)" fill="#97a6b7"/>
        <g id="Grupo_85203" data-name="Grupo 85203" transform="translate(68.365 20.647)">
          <path id="Trazado_105730" data-name="Trazado 105730" d="M1064.493,958.187c-10.129-6.253-17.9-1.819-24.214-8.872-6.758-7.55-2.2-17.489-9.193-22.179-4.477-3-8.47-.354-13.676-1.167a14.357,14.357,0,0,1-6.055-2.532l-2.805,10.937a12.847,12.847,0,0,1-12.769,9.509l-13.094-.587a5.689,5.689,0,0,0-5.237,3.114l-7.89,15.657a1.811,1.811,0,0,0,1.558,2.714l103.2,3.428A30.786,30.786,0,0,0,1064.493,958.187Z" transform="translate(-969.332 -923.436)" fill="#fff" opacity="0.5" style="mix-blend-mode: soft-light;isolation: isolate"/>
        </g>
        <g id="Grupo_85210" data-name="Grupo 85210" transform="translate(51.999 81.682)">
          <g id="Grupo_85209" data-name="Grupo 85209">
            <g id="Grupo_85204" data-name="Grupo 85204" transform="translate(77.871)">
              <path id="Trazado_105731" data-name="Trazado 105731" d="M1538.3,1429.006l-69.06-.881v-8.6l69.06,1.2Z" transform="translate(-1469.24 -1419.528)" fill="#d8dee8"/>
              <path id="Trazado_105732" data-name="Trazado 105732" d="M1538.3,1550.777l-69.06-.329v-8.6l69.06.645Z" transform="translate(-1469.24 -1526.802)" fill="#d8dee8"/>
              <path id="Trazado_105733" data-name="Trazado 105733" d="M1538.3,1672.548l-69.06.223v-8.6l69.06.092Z" transform="translate(-1469.24 -1634.076)" fill="#d8dee8"/>
              <path id="Trazado_105734" data-name="Trazado 105734" d="M1538.3,1791.037l-69.06.776v-8.6l69.06-.46Z" transform="translate(-1469.24 -1738.069)" fill="#d8dee8"/>
            </g>
            <g id="Grupo_85205" data-name="Grupo 85205" transform="translate(0 68.453)">
              <path id="Trazado_105735" data-name="Trazado 105735" d="M958.753,1984.314,836.3,1987.263v-8.952l122.451-2.39Z" transform="translate(-836.302 -1975.922)" fill="#d8dee8"/>
              <path id="Trazado_105736" data-name="Trazado 105736" d="M958.753,2103.739,836.3,2107.668v-8.952l122.451-3.369Z" transform="translate(-836.302 -2080.654)" fill="#d8dee8"/>
              <path id="Trazado_105737" data-name="Trazado 105737" d="M958.753,2223.163,836.3,2228.072v-8.952l122.451-4.349Z" transform="translate(-836.302 -2185.385)" fill="#d8dee8"/>
              <path id="Trazado_105738" data-name="Trazado 105738" d="M958.753,2342.588,836.3,2348.476v-8.952l122.451-5.328Z" transform="translate(-836.302 -2290.117)" fill="#d8dee8"/>
            </g>
            <g id="Grupo_85206" data-name="Grupo 85206" transform="translate(130.823 67.976)">
              <path id="Trazado_105739" data-name="Trazado 105739" d="M1915.745,1980.319l-16.108.388v-8.354l16.108-.315Z" transform="translate(-1899.637 -1972.038)" fill="#d8dee8"/>
              <path id="Trazado_105740" data-name="Trazado 105740" d="M1915.745,2098.152l-16.108.517v-8.354l16.108-.443Z" transform="translate(-1899.637 -2075.374)" fill="#d8dee8"/>
              <path id="Trazado_105741" data-name="Trazado 105741" d="M1915.745,2215.984l-16.108.646v-8.354l16.108-.572Z" transform="translate(-1899.637 -2178.71)" fill="#d8dee8"/>
              <path id="Trazado_105742" data-name="Trazado 105742" d="M1915.745,2333.817l-16.108.775v-8.354l16.108-.7Z" transform="translate(-1899.637 -2282.046)" fill="#d8dee8"/>
            </g>
            <g id="Grupo_85207" data-name="Grupo 85207" transform="translate(0 136.376)">
              <path id="Trazado_105743" data-name="Trazado 105743" d="M958.753,2536.388,836.3,2543.866v-8.952L958.753,2528Z" transform="translate(-836.302 -2527.996)" fill="#d8dee8"/>
              <path id="Trazado_105744" data-name="Trazado 105744" d="M958.753,2655.813,836.3,2664.27v-8.952l122.451-7.9Z" transform="translate(-836.302 -2632.728)" fill="#d8dee8"/>
              <path id="Trazado_105745" data-name="Trazado 105745" d="M958.753,2775.238,836.3,2784.675v-8.952l122.451-8.877Z" transform="translate(-836.302 -2737.46)" fill="#d8dee8"/>
              <path id="Trazado_105746" data-name="Trazado 105746" d="M958.753,2894.662,836.3,2905.079v-8.952l122.451-9.857Z" transform="translate(-836.302 -2842.191)" fill="#d8dee8"/>
            </g>
            <g id="Grupo_85208" data-name="Grupo 85208" transform="translate(130.823 134.992)">
              <path id="Trazado_105747" data-name="Trazado 105747" d="M1915.745,2525.034l-16.108.984v-8.354l16.108-.91Z" transform="translate(-1899.637 -2516.754)" fill="#d8dee8"/>
              <path id="Trazado_105748" data-name="Trazado 105748" d="M1915.745,2642.867l-16.108,1.113v-8.354l16.108-1.039Z" transform="translate(-1899.637 -2620.09)" fill="#d8dee8"/>
              <path id="Trazado_105749" data-name="Trazado 105749" d="M1915.745,2760.7l-16.108,1.241v-8.354l16.108-1.168Z" transform="translate(-1899.637 -2723.425)" fill="#d8dee8"/>
              <path id="Trazado_105750" data-name="Trazado 105750" d="M1915.745,2878.533l-16.108,1.37v-8.354l16.108-1.3Z" transform="translate(-1899.637 -2826.762)" fill="#d8dee8"/>
            </g>
          </g>
        </g>
      </g>
      <g id="Grupo_85213" data-name="Grupo 85213" transform="translate(0 74.896)">
        <path id="Trazado_105751" data-name="Trazado 105751" d="M460.836,1366.538l-100.285-2.163a9.629,9.629,0,0,0-9.837,9.626v69.506h0a9.6,9.6,0,0,1,9.445-9.595l100.677-1.588,21.253-32.838Z" transform="translate(-350.715 -1364.372)" fill="url(#linear-gradient-4)"/>
        <g id="Grupo_85212" data-name="Grupo 85212" transform="translate(22.954 15.969)">
          <path id="Trazado_105752" data-name="Trazado 105752" d="M722.075,1530.4a6.914,6.914,0,0,0-.473-2.213,5.61,5.61,0,0,0,4.375-5.416,5.414,5.414,0,0,0-.851-2.918,5.533,5.533,0,0,0,3.321-5.04,5.42,5.42,0,0,0-.4-2.042l.075-.179,16.844-.945a5.57,5.57,0,0,0,5.044-6.271c-.3-2.883-2.6-4.368-5.348-4.394l-29.393-.283-.714-1.265c-2.482-4.4-7.9-6.716-12.209-4.274l-13.25,7.517v30.393l19.308,4.17C711.059,1537.813,722.766,1537.891,722.075,1530.4Z" transform="translate(-670.42 -1494.169)" fill="#fff"/>
          <path id="Trazado_105753" data-name="Trazado 105753" d="M554.588,1585.624V1557.44a1.9,1.9,0,0,0-1.861-1.918l-13.55-.12a1.886,1.886,0,0,0-1.893,1.9v28.455a1.886,1.886,0,0,0,1.893,1.9l13.55-.12A1.9,1.9,0,0,0,554.588,1585.624Z" transform="translate(-537.284 -1547.869)" fill="#fff"/>
        </g>
      </g>
    </g>
    <g id="Grupo_85220" data-name="Grupo 85220" transform="translate(307.273 846.535)">
      <g id="Grupo_85218" data-name="Grupo 85218" transform="translate(0 87.244)">
        <path id="Trazado_105754" data-name="Trazado 105754" d="M1525.007,3347.315l-.342,5.475a2.065,2.065,0,0,0,2.273.25l1.634-5.376Z" transform="translate(-1469.487 -3217.021)" fill="url(#linear-gradient-5)"/>
        <path id="Trazado_105755" data-name="Trazado 105755" d="M1517.137,3380.035s-2.681,1.094-2.161,2.28a29.025,29.025,0,0,0,2.083,3.271,3.134,3.134,0,0,0,3.464,1.208c.434-.13.878-.257,1.271-.358a.85.85,0,0,0,.069-1.625,6.376,6.376,0,0,0-1.1-.3c-.982-.151-2.333-2.471-2.49-3.4A1.4,1.4,0,0,0,1517.137,3380.035Z" transform="translate(-1460.932 -3245.715)" fill="url(#linear-gradient-6)"/>
        <path id="Trazado_105756" data-name="Trazado 105756" d="M1403.185,2920.193c3.95,1.363,18.555,6.884,21.808,19.547a22.887,22.887,0,0,1,.639,5.626c.084,12.782-7.349,23.6-12.754,29.892l-5.113-.085a28.978,28.978,0,0,1-.409-13.631c1.87-8.391,6.719-10.568,5.784-14.686-1.7-7.479-19.065-6.347-20.7-13.044C1391.848,2931.392,1393.147,2927.287,1403.185,2920.193Z" transform="translate(-1353.424 -2842.448)" fill="url(#linear-gradient-7)"/>
        <path id="Trazado_105757" data-name="Trazado 105757" d="M1077.086,3520.974l7.416-.173a.494.494,0,0,0,.3-.875,1.876,1.876,0,0,0-1.431-.463c-1.41.146-4.574-1.826-6.01-1.4-.469.138-.85,1.241-1.045,1.547A.888.888,0,0,0,1077.086,3520.974Z" transform="translate(-1076.177 -3366.706)" fill="url(#linear-gradient-8)"/>
        <path id="Trazado_105758" data-name="Trazado 105758" d="M1088.882,3495.859l-3.054,2.784a3.4,3.4,0,0,0,2.621.455l3.121-2.149Z" transform="translate(-1084.641 -3347.289)" fill="url(#linear-gradient-9)"/>
        <g id="Grupo_85215" data-name="Grupo 85215" transform="translate(38.895 83.675)" opacity="0.3" style="mix-blend-mode: color-burn;isolation: isolate">
          <path id="Trazado_105759" data-name="Trazado 105759" d="M1416.289,2995.437c2.048-5.53,4.5-12.349,1.7-16.221-2.839-3.918-9.059-.611-15.3-3.768a15.52,15.52,0,0,1-6.672-7.059c-3.5,3.616-3.979,6.043-3.577,7.689,1.636,6.7,19,5.566,20.7,13.045.935,4.118-3.915,6.295-5.784,14.686a28.4,28.4,0,0,0,.061,12.163,42.092,42.092,0,0,1,3-9.178C1412.654,3001.943,1414.131,3001.263,1416.289,2995.437Z" transform="translate(-1392.322 -2968.389)" fill="url(#linear-gradient-10)"/>
        </g>
        <path id="Trazado_105760" data-name="Trazado 105760" d="M1146.473,2904.736a132.236,132.236,0,0,1-44.982,73.981,6.219,6.219,0,0,1-4.477-.344,42.533,42.533,0,0,1,4.183-12.673c4.72-9.084,8.922-8.792,13.663-16.81,3.471-5.87,4.6-12.107,6.857-24.58,1.743-9.631,1.744-11.934,4.131-14.7C1130.673,2904.032,1139.734,2903.969,1146.473,2904.736Z" transform="translate(-1094.45 -2828.587)" fill="url(#linear-gradient-11)"/>
        <g id="Grupo_85216" data-name="Grupo 85216" transform="translate(2.564 76.659)" opacity="0.3" style="mix-blend-mode: multiply;isolation: isolate">
          <path id="Trazado_105761" data-name="Trazado 105761" d="M1103.006,2973.871c1.684-2.658,4.673-5.427,10.568-10.888,6.092-5.643,5.858-4.623,7.057-6.291,5.369-7.467,2.462-15.446,3.789-25.075.741-5.372,3.113-12.392,10.019-20.255a14.929,14.929,0,0,0-8.592,4.369c-2.77,3.056-2.566,6.049-4.131,14.7-2.257,12.473-3.386,18.709-6.857,24.58-4.74,8.018-8.943,7.726-13.663,16.81a42.536,42.536,0,0,0-4.183,12.672,6.182,6.182,0,0,0,3.64.532C1100.265,2978.708,1102.151,2975.219,1103.006,2973.871Z" transform="translate(-1097.014 -2911.362)" fill="url(#linear-gradient-12)"/>
        </g>
        <path id="Trazado_105762" data-name="Trazado 105762" d="M1455.413,2324.27s1.975,14.7-13.519,25.072l16.487,3.933s5.277-9.867,1.457-26.211Z" transform="translate(-1396.9 -2319.842)" fill="url(#linear-gradient-13)"/>
        <path id="Trazado_105763" data-name="Trazado 105763" d="M1546.6,2295.5a9.385,9.385,0,0,0,.745-3.181c-.143-.987-2.494-2.305-4.1-3.666s.06,1.369.433,1.99,1.68,1.552,1.492,3.663Z" transform="translate(-1485.181 -2288.276)" fill="url(#linear-gradient-14)"/>
        <path id="Trazado_105764" data-name="Trazado 105764" d="M1376.363,2389.383c.81-1.595,1.144-1.586,1.342-2.427.453-1.918-.717-4.354-1.709-4.388-.64-.022-.693.973-2.047,2.522-1.659,1.9-2.666,1.649-3.642,3.3-.228.386-1.256,2.121-.624,3.416.806,1.653,3.986,1.915,5.316.64C1375.63,2391.838,1375.365,2391.347,1376.363,2389.383Z" transform="translate(-1333.396 -2370.966)" fill="url(#linear-gradient-15)"/>
        <path id="Trazado_105765" data-name="Trazado 105765" d="M1368.608,2451.92a18.855,18.855,0,0,1,.164,5.5c-.365,2.227-4.491,4.541-5.282,5.2s2.1,1.383,4.747,1.036,9.9-2.668,11.006-3.961-1.284-.656-3.29-.9-3.922-3.608-3.981-5.324S1368.608,2451.92,1368.608,2451.92Z" transform="translate(-1328.025 -2431.783)" fill="url(#linear-gradient-16)"/>
        <g id="Grupo_85217" data-name="Grupo 85217" transform="translate(39.478 16.565)">
          <path id="Trazado_105766" data-name="Trazado 105766" d="M1399.022,2428.749a3.919,3.919,0,0,0,3.825-.546c1.608-1.286-.783-5.238-2.419-5.288a2.594,2.594,0,0,0-1.813.947c-.278.338-.294.563-.759,1.106-.428.5-.617.546-.682.79-.082.3.058.813,1.16,1.688a1.118,1.118,0,0,0-1.205.364.7.7,0,0,0-.072.375C1397.122,2428.78,1397.9,2429.056,1399.022,2428.749Z" transform="translate(-1397.053 -2422.915)" fill="url(#linear-gradient-17)"/>
        </g>
        <path id="Trazado_105767" data-name="Trazado 105767" d="M1775.359,2333.284s1.228-.171.845-2.517c-.3-1.839-.073-2.457.361-2.131s.5,1.389.5,1.389a8.691,8.691,0,0,0,2.236-3.12c.652-1.77,1.071-.28,1.211.605a8.02,8.02,0,0,1-1.537,4.145,11.058,11.058,0,0,0-1.49,2.77Z" transform="translate(-1689.338 -2321.427)" fill="url(#linear-gradient-18)"/>
        <path id="Trazado_105768" data-name="Trazado 105768" d="M1345.571,2368.833l-4.192-2.936c-1.7,10.451-5.565,14.553-8.847,16.347-7.919,4.329-14.986-3.385-30.143-.237-4.177.868-11.457,2.483-15.494,8.433-1.061,1.564-1.439,2.748-3.2,13.968-2.252,14.342-2.332,16.845-2.015,19.933.581,5.651.933,9.076,3.539,12.107,6.92,8.05,21.626,3.9,23.47,3.353,3.406-1.009,8.7-2.577,10.8-7.078.99-2.118.885-4.054-.636-11.8-3.013-15.342-3.4-16.335-2.557-18.015,2.838-5.67,11.831-2.426,19.429-7.7C1340.171,2392.131,1345.177,2385.413,1345.571,2368.833Z" transform="translate(-1256.278 -2356.348)" fill="url(#linear-gradient-19)"/>
        <path id="Trazado_105769" data-name="Trazado 105769" d="M1415.426,2592.3c1.483-3.041-.51-5.844,1.676-9.5,2.786-4.659,7.8-3.077,9.686-6.52,3.226-5.887-9.472-14.1-6.892-23.47,1.232-4.475,5.534-7.714,9.127-8.941,7.978-2.724,13.2,4.22,20.676,2.049a12.848,12.848,0,0,0,5.865-3.794,18.7,18.7,0,0,1-6.208,7.635c-7.6,5.272-16.59,2.028-19.429,7.7-.841,1.68-.456,2.673,2.557,18.015,1.521,7.745,1.626,9.681.637,11.8-2.1,4.5-7.4,6.069-10.8,7.078a38.865,38.865,0,0,1-11.2,1.541A7.653,7.653,0,0,0,1415.426,2592.3Z" transform="translate(-1369.906 -2510.89)" opacity="0.3" fill="url(#linear-gradient-20)" style="mix-blend-mode: multiply;isolation: isolate"/>
      </g>
    </g>
    <g id="Grupo_85221" data-name="Grupo 85221" transform="translate(399.587 931.062)">
      <path id="Trazado_105773" data-name="Trazado 105773" d="M1937.943,2364.719c5.135,2.06,11.106-.776,13.337-6.336s-.123-11.737-5.257-13.8c-.266-.107-.535-.192-.805-.273a62.61,62.61,0,0,0,1.278-9.062c.281-.026.564-.055.849-.107a11.349,11.349,0,0,0,8.922-12.385c-.635-5.845-5.659-9.777-11.221-8.782-.291.052-.574.124-.856.2a57.4,57.4,0,0,0-3.15-8.268c.244-.174.487-.352.722-.55a11.349,11.349,0,0,0,2.116-15.116c-3.331-4.564-9.679-5.2-14.178-1.412-.23.194-.445.4-.657.61a50.859,50.859,0,0,0-6.734-5.257c.135-.273.267-.549.382-.837,2.231-5.56,5.248-11.684.082-13.664-11.951-4.58-16.444.642-18.676,6.2-.115.288-.211.579-.3.869a50.842,50.842,0,0,0-8.5-.857c-.009-.3-.021-.595-.054-.895-.635-5.845.822-9.167-4.815-8.779-12.293.846-15.962,6.538-15.328,12.383.033.306.085.6.142.9a57.369,57.369,0,0,0-7.991,3.8c-.151-.25-.307-.5-.48-.737-3.331-4.564-9.679-5.2-14.178-1.412a11.35,11.35,0,0,0-2.116,15.117c.171.234.354.45.54.664a62.56,62.56,0,0,0-5.341,7.431c-.251-.128-.5-.252-.771-.359-5.135-2.061-11.105.776-13.337,6.336s.122,11.737,5.257,13.8c.266.107.536.193.805.273a62.546,62.546,0,0,0-1.278,9.062c-.282.026-.564.055-.849.106a11.35,11.35,0,0,0-8.921,12.386c.635,5.845,5.659,9.777,11.221,8.781.291-.052.574-.124.856-.2a57.369,57.369,0,0,0,3.15,8.268c-.245.174-.488.352-.723.55a11.349,11.349,0,0,0-2.115,15.117c3.331,4.564,13.146,5.954,17.646,2.17.23-.194-3.022-1.158-2.81-1.367a50.884,50.884,0,0,0,6.734,5.257c-.135.273-.266.549-.382.837-2.231,5.56.122,11.737,5.257,13.8s11.106-.776,13.337-6.335c.115-.288.211-.579.3-.869a50.818,50.818,0,0,0,8.5.857c.009.3.021.595.054.895.635,5.845,5.659,9.777,11.221,8.781a11.35,11.35,0,0,0,8.921-12.386c-.033-.305-.085-.6-.142-.9a57.331,57.331,0,0,0,7.991-3.8c.151.25.306.5.48.736,3.331,4.564,9.679,5.2,14.178,1.412a11.35,11.35,0,0,0,2.116-15.117c-.171-.234-.354-.45-.54-.664a62.543,62.543,0,0,0,5.341-7.432C1937.423,2364.488,1937.677,2364.612,1937.943,2364.719Zm-61.189,6.192c-18.642-7.482-27.188-29.91-19.087-50.1s29.78-30.485,48.423-23,27.188,29.91,19.087,50.1S1895.4,2378.392,1876.754,2370.911Z" transform="translate(-1826.512 -2266.191)" fill="url(#linear-gradient-21)"/>
      <path id="Trazado_105774" data-name="Trazado 105774" d="M2352.921,2394.274a11.351,11.351,0,0,0,8.922-12.386c-.635-5.845-5.659-9.777-11.221-8.781-.291.052-.575.124-.856.2a57.368,57.368,0,0,0-3.15-8.268c.244-.173.487-.352.723-.55,4.5-3.785,9.716-12.429,5.934-16.627-7.177-7.968-13.5-3.686-18,.1-.23.194-.445.4-.657.609a50.875,50.875,0,0,0-6.734-5.257c.135-.273.267-.549.382-.837a11.206,11.206,0,0,0-.149-8.858q-5.869,12.846-11.52,25.786c15.156,9.172,21.5,29.325,14.156,47.635-6.226,15.516-20.476,25.179-35.2,25.427-.5,1.751-.993,3.509-1.544,5.248-1.495,4.718-3.256,9.364-5.02,14q2.07.2,4.14.239c.009.3.021.6.054.895.635,5.845,4.63,10.506,14.743,9.069,5.594-.8,6.035-6.828,5.4-12.673-.033-.305-.085-.6-.142-.9a57.343,57.343,0,0,0,7.991-3.8c.151.25.307.5.481.736,3.331,4.565,13.589,5.722,18.089,1.938s1.536-11.078-1.795-15.642c-.171-.234-.354-.45-.54-.664a62.545,62.545,0,0,0,5.341-7.432c.251.128.505.253.771.359,5.135,2.061,11.106-.776,13.337-6.336s-.122-11.737-5.257-13.8c-.266-.107-.536-.193-.805-.274a62.612,62.612,0,0,0,1.278-9.062C2352.354,2394.354,2352.636,2394.325,2352.921,2394.274Z" transform="translate(-2232.088 -2325.321)" fill="url(#linear-gradient-22)"/>
      <path id="Trazado_105775" data-name="Trazado 105775" d="M1981.334,2364.913c5.135,2.061,11.106-.776,13.337-6.336s-.123-11.737-5.258-13.8c-.266-.106-.535-.192-.8-.273a62.575,62.575,0,0,0,1.278-9.062c.282-.026.564-.055.849-.107a11.349,11.349,0,0,0,8.921-12.385c-.635-5.845-5.659-9.777-11.221-8.781-.291.052-.574.124-.856.2a57.4,57.4,0,0,0-3.15-8.268c.244-.174.487-.352.722-.55a11.35,11.35,0,0,0,2.116-15.117c-3.331-4.564-9.679-5.2-14.178-1.412-.231.194-.445.4-.657.609a50.839,50.839,0,0,0-6.734-5.257c.135-.273.267-.549.382-.837,2.231-5.56-.123-11.737-5.257-13.8s-11.106.776-13.337,6.336c-.115.288-.211.579-.3.869a50.813,50.813,0,0,0-8.5-.857c-.009-.3-.021-.6-.054-.895-.635-5.845-5.659-9.776-11.221-8.781a11.35,11.35,0,0,0-8.921,12.386c.033.305.085.6.142.9a57.343,57.343,0,0,0-7.991,3.8c-.151-.25-.306-.5-.48-.737-3.331-4.564-9.679-5.2-14.179-1.412a11.35,11.35,0,0,0-2.115,15.117c.171.234.354.45.54.664a62.563,62.563,0,0,0-5.342,7.431c-.251-.128-.5-.252-.771-.359-5.135-2.061-11.106.776-13.337,6.336s.122,11.737,5.257,13.8c.266.107.536.192.805.273a62.542,62.542,0,0,0-1.278,9.062c-.281.026-.564.055-.849.106a11.351,11.351,0,0,0-8.922,12.386c.635,5.845,5.659,9.777,11.221,8.781.29-.052.574-.123.856-.2a57.358,57.358,0,0,0,3.15,8.268c-.245.174-.488.352-.722.55a11.35,11.35,0,0,0-2.116,15.117c3.331,4.564,9.679,5.2,14.179,1.412.23-.194.445-.4.657-.609a50.921,50.921,0,0,0,6.734,5.257c-.135.273-.267.549-.382.837-2.231,5.559.122,11.737,5.257,13.8s11.106-.776,13.337-6.335c.116-.288.211-.579.3-.869a50.842,50.842,0,0,0,8.5.857c.009.3.021.595.053.895.635,5.845,5.659,9.777,11.221,8.781a11.35,11.35,0,0,0,8.922-12.385c-.033-.305-.085-.6-.142-.9a57.36,57.36,0,0,0,7.991-3.8c.151.25.307.5.48.736,3.331,4.564,9.679,5.2,14.178,1.412a11.35,11.35,0,0,0,2.116-15.117c-.171-.234-.354-.45-.54-.664a62.565,62.565,0,0,0,5.341-7.432C1980.814,2364.682,1981.068,2364.806,1981.334,2364.913Zm-61.189,6.192c-18.642-7.482-27.188-29.91-19.087-50.1s29.781-30.485,48.423-23,27.188,29.91,19.087,50.1S1938.787,2378.587,1920.145,2371.105Z" transform="translate(-1864.564 -2266.252)" fill="url(#linear-gradient-23)"/>
    </g>
    <g id="Grupo_85226" data-name="Grupo 85226" transform="translate(410.713 802.126)">
      <g id="Grupo_85222" data-name="Grupo 85222" transform="translate(74.303 123.526)">
        <path id="Trazado_105776" data-name="Trazado 105776" d="M2522.518,2245.878l3.989-2.4h1.8a21.632,21.632,0,0,1,.544,2.4c-.8,1.314-4.537,2.314-6.868,2.4-.387.014-.927.016-1.066-.265C2520.681,2247.535,2521.737,2246.539,2522.518,2245.878Z" transform="translate(-2520.884 -2240.865)" fill="url(#linear-gradient-24)"/>
        <path id="Trazado_105777" data-name="Trazado 105777" d="M2564.167,2222.222a5.307,5.307,0,0,1-.4,2.815c-.246.305,2.119.991,2.132-.2a13.672,13.672,0,0,1,.257-2.524Z" transform="translate(-2558.473 -2222.222)" fill="url(#linear-gradient-25)"/>
      </g>
      <g id="Grupo_85223" data-name="Grupo 85223" transform="translate(47.632 123.152)">
        <path id="Trazado_105778" data-name="Trazado 105778" d="M2305.73,2242.7l3.989-2.4h1.8a21.629,21.629,0,0,1,.544,2.4c-.8,1.315-4.537,2.314-6.867,2.4-.387.013-.927.016-1.066-.265C2303.893,2244.354,2304.949,2243.357,2305.73,2242.7Z" transform="translate(-2304.096 -2237.7)" fill="url(#linear-gradient-24)"/>
        <path id="Trazado_105779" data-name="Trazado 105779" d="M2348.5,2219.179a26.651,26.651,0,0,1-1.544,2.8c-.246.3,1.719.917,2.132-.2.335-.906,1.273-2.112,1.4-2.507Z" transform="translate(-2341.661 -2219.179)" fill="url(#linear-gradient-27)"/>
      </g>
      <path id="Trazado_105780" data-name="Trazado 105780" d="M2348.773,1664.271a177.939,177.939,0,0,1-2.462,66.064l3.693.957a9.119,9.119,0,0,0,5.2-3.009c1.962-2.479,1.067-4.766,2.462-8.89,1.331-3.938,2.922-4.147,4.513-7.523,2.076-4.4.808-7.1.958-12.994.253-9.969,4.1-10.741,5.334-23.115.648-6.478.968-10.2-1.368-12.583C2363.83,1659.837,2356.637,1660.43,2348.773,1664.271Z" transform="translate(-2293.485 -1606.516)" fill="url(#linear-gradient-28)"/>
      <path id="Trazado_105781" data-name="Trazado 105781" d="M2435.25,1651.3a181.825,181.825,0,0,1,14.772,69.209h4.1a25.839,25.839,0,0,0,3.693-7.933c.943-3.518.35-4.425.957-9.985.828-7.577,1.912-7.926,1.778-12.447-.154-5.2-1.733-5.175-2.325-10.4-.876-7.722,2.313-10.106,2.188-17.234a27.463,27.463,0,0,0-4.377-13.951Z" transform="translate(-2371.482 -1595.618)" fill="url(#linear-gradient-29)"/>
      <path id="Trazado_105782" data-name="Trazado 105782" d="M1926.819,1661.045l-1.608,1.426a26.978,26.978,0,0,0-4.8.184,23.65,23.65,0,0,0-3.466,1.426,1.192,1.192,0,0,0,1.326.5,6.522,6.522,0,0,1,2.21-.609,3.911,3.911,0,0,0,2.626,1.822c1.852.245,2.713-1.935,2.713-1.935l1.753-1.489Z" transform="translate(-1916.942 -1606.561)" fill="url(#linear-gradient-30)"/>
      <path id="Trazado_105783" data-name="Trazado 105783" d="M2004.446,1355.753c-.652.08-1.929.474-4.822,5.847-3.743,6.954-4.725,12.09-6.155,16.311a45.82,45.82,0,0,1-9.027,15.387l2.564,2.667c7.333-.182,10.965-2.52,12.926-4.616,2.862-3.06,1.978-5.405,5.437-10.053,4.046-5.437,7.113-4.723,8.514-8.309C2016.511,1366.264,2009.078,1355.184,2004.446,1355.753Z" transform="translate(-1976.137 -1338.81)" fill="url(#linear-gradient-31)"/>
      <path id="Trazado_105784" data-name="Trazado 105784" d="M2165.709,1271.894c-4.2-1.344-7.48-.972-13.336-.308-8.546.969-14.024,3.8-18.773,6.257-4.667,2.413-5.9,3.775-6.565,5.334-1.546,3.636.337,7.608,1.539,10.053,3.067,6.243,5.913,6.026,12.413,13.541,5.718,6.611,8.577,9.917,10.463,14.772.835,2.148,1.65,4.929,4.309,6.565,2.581,1.589,5.511,1.244,7.181,1.026,7.015-.918,7.637-5.445,12.207-5.129,3.642.252,4.432,3.209,10.669,4.206,2.787.446,3.6.01,4-.308,1.518-1.205,1.341-4.086-.1-9.95-2.219-9.016-4.2-11.939-6.052-19.081-1.927-7.416-.443-6.764-2.052-10.976C2181.069,1286.481,2176.639,1275.4,2165.709,1271.894Z" transform="translate(-2100.676 -1264.491)" fill="url(#linear-gradient-32)"/>
      <path id="Trazado_105785" data-name="Trazado 105785" d="M2195.721,1461.982l-14.787-16.23a1.6,1.6,0,0,0-1.529-.611l-16.935,2.768a.969.969,0,0,0-.609,1.551l13.767,17.712a1.6,1.6,0,0,0,1.565.587l17.562-3.249A1.6,1.6,0,0,0,2195.721,1461.982Z" transform="translate(-2131.549 -1417.201)" fill="url(#linear-gradient-33)"/>
      <path id="Trazado_105786" data-name="Trazado 105786" d="M2373.436,1514.767l-3.165-1.381s-1.209-1.727-2.187-2.014a21,21,0,0,0-4.489.115s.345,1.381,1.036,1.612,2.82.4,3.165,1.094a2.135,2.135,0,0,0,2.072.979c.461-.23,3.4.748,3.4.748Z" transform="translate(-2308.642 -1475.211)" fill="url(#linear-gradient-34)"/>
      <path id="Trazado_105787" data-name="Trazado 105787" d="M2362.62,1367.425c1.459-1.782.672-3.919,2.667-5.745,3.25-2.974,9.132-.774,9.438-1.847.366-1.285-8.444-3.148-9.438-8.206-.45-2.294,1.209-2.684,1.026-5.745-.171-2.87-1.963-5.235-5.54-9.848-2.824-3.642-3.588-3.939-3.693-5.334-.317-4.2,4.983-7.116,7.181-8.617a20.107,20.107,0,0,1,8.119-3.224,30.819,30.819,0,0,1,7.473,11.02c1.609,4.212.125,3.56,2.052,10.976,1.855,7.142,3.833,10.064,6.052,19.08,1.443,5.864,1.621,8.745.1,9.951-.4.318-1.213.754-4,.308-6.237-1-7.027-3.954-10.669-4.206-4.571-.316-5.193,4.211-12.208,5.129-1.67.219-4.6.563-7.181-1.026a7.348,7.348,0,0,1-1.494-1.221C2358.711,1370.011,2361.4,1368.919,2362.62,1367.425Z" transform="translate(-2298.921 -1306.474)" opacity="0.3" fill="url(#linear-gradient-35)" style="mix-blend-mode: multiply;isolation: isolate"/>
      <g id="Grupo_85225" data-name="Grupo 85225" transform="translate(26.555)">
        <path id="Trazado_105788" data-name="Trazado 105788" d="M2174.974,1242.228c.937,2.252,4.446,7.933,12.028,5.149,2.029-.745,2.375-.483,2.493-.326.572.763-3.493,5.836-9.244,7.382-3.509.943-7.261.47-7.46-.507s2.306-.894,2.594-2.945c.2-1.427-2.687-3.138-4.172-4.1C2171.455,1245.012,2174.73,1244.1,2174.974,1242.228Z" transform="translate(-2166.485 -1239.271)" fill="url(#linear-gradient-36)"/>
        <g id="Grupo_85224" data-name="Grupo 85224">
          <path id="Trazado_105789" data-name="Trazado 105789" d="M2134.965,1225.6a3.261,3.261,0,0,1-2.159-3.341,4.036,4.036,0,0,1,1.84-2.509c1.819-1.376,4.784-2.129,6.733-1.033,1.156.65,1.392,3.3,1.459,3.758.077.521-.185.872-.307,1.373-.17.7-.429,1.794-.832,3.613a8.722,8.722,0,0,0-1.248-.924,8.157,8.157,0,0,0-1.872-.841C2136.81,1225.2,2136.2,1226.006,2134.965,1225.6Z" transform="translate(-2132.783 -1218.194)" fill="url(#linear-gradient-37)"/>
          <path id="Trazado_105790" data-name="Trazado 105790" d="M2157.846,1253.7a4.86,4.86,0,0,1-2.684,4.039c-2.384,1.232-5.816-3.165-5.012-5.015a3.54,3.54,0,0,1,2.085-1.614c.55-.164.826-.084,1.72-.368.825-.261.979-.453,1.3-.42.406.042.938.42,1.4,2.036a1.475,1.475,0,0,1,1.075-1.192.965.965,0,0,1,.487.083C2158.895,1251.587,2158.81,1252.581,2157.846,1253.7Z" transform="translate(-2147.909 -1246.369)" fill="url(#linear-gradient-38)"/>
        </g>
      </g>
      <path id="Trazado_105791" data-name="Trazado 105791" d="M2331.314,1270.506c2.773-4.681,15.826-2.969,24.62,2.154,2.864,1.668,11.6,6.756,12.207,15.593a14.638,14.638,0,0,1-2.052,8.514c-3.85,6.142-12.951,8.852-22.568,6.463l.308-3.078a10.511,10.511,0,0,0,6.975-2.359c.581-.482,4.029-3.346,3.488-5.95-.908-4.371-11.809-1.988-18.875-9.335C2332.249,1279.214,2329.489,1273.587,2331.314,1270.506Z" transform="translate(-2279.822 -1261.668)" fill="url(#linear-gradient-39)"/>
    </g>
    <g id="Grupo_85228" data-name="Grupo 85228" transform="translate(362.838 863.063)">
      <path id="Trazado_105773-2" data-name="Trazado 105773" d="M1887.107,2319.77a5.917,5.917,0,0,0,4.394-10.948c-.145-.058-.291-.1-.438-.149a34.035,34.035,0,0,0,.695-4.928c.153-.014.307-.03.462-.058a6.171,6.171,0,0,0,4.851-6.735,5.227,5.227,0,0,0-6.1-4.775c-.158.028-.312.067-.465.109a31.244,31.244,0,0,0-1.713-4.5c.133-.094.265-.191.393-.3a6.172,6.172,0,0,0,1.151-8.22,5.227,5.227,0,0,0-7.71-.768c-.125.106-.242.218-.357.332a27.685,27.685,0,0,0-3.662-2.859c.073-.148.145-.3.208-.455,1.213-3.023,2.854-6.354.044-7.43-6.5-2.49-8.942.349-10.156,3.372-.063.157-.115.315-.165.473a27.665,27.665,0,0,0-4.622-.466c0-.162-.011-.323-.029-.487-.345-3.178.447-4.985-2.618-4.774-6.685.46-8.68,3.556-8.335,6.734.018.167.047.328.077.488a31.173,31.173,0,0,0-4.345,2.064c-.082-.136-.167-.271-.261-.4a5.227,5.227,0,0,0-7.71-.768,6.172,6.172,0,0,0-1.151,8.22c.093.127.193.245.294.361a34.013,34.013,0,0,0-2.9,4.041c-.136-.07-.275-.137-.419-.2a5.917,5.917,0,0,0-4.394,10.948c.145.058.292.1.438.148a34.011,34.011,0,0,0-.695,4.928c-.153.014-.307.03-.462.058a6.172,6.172,0,0,0-4.851,6.735,5.226,5.226,0,0,0,6.1,4.775c.158-.028.313-.067.466-.108a31.223,31.223,0,0,0,1.713,4.5c-.133.094-.265.191-.393.3a6.171,6.171,0,0,0-1.15,8.22c1.811,2.482,7.149,3.238,9.6,1.18.125-.106-1.643-.63-1.528-.743a27.667,27.667,0,0,0,3.662,2.859c-.073.148-.145.3-.208.455a5.465,5.465,0,1,0,10.111,4.058c.063-.156.115-.314.165-.473a27.615,27.615,0,0,0,4.622.466c0,.162.011.324.029.486a5.227,5.227,0,0,0,6.1,4.775,6.172,6.172,0,0,0,4.851-6.735c-.018-.166-.046-.328-.077-.488a31.135,31.135,0,0,0,4.346-2.064c.082.136.167.271.261.4a5.227,5.227,0,0,0,7.71.768,6.172,6.172,0,0,0,1.151-8.221c-.093-.127-.193-.245-.293-.361a34.013,34.013,0,0,0,2.9-4.041C1886.824,2319.644,1886.962,2319.711,1887.107,2319.77Zm-33.274,3.367c-10.137-4.068-14.784-16.265-10.379-27.242s16.194-16.577,26.332-12.509,14.785,16.265,10.379,27.242S1863.97,2327.205,1853.833,2323.137Z" transform="translate(-1826.512 -2266.191)" fill="url(#linear-gradient-21)"/>
      <path id="Trazado_105774-2" data-name="Trazado 105774" d="M2323.753,2366.6a6.172,6.172,0,0,0,4.852-6.735,5.227,5.227,0,0,0-6.1-4.775c-.158.028-.312.067-.466.109a31.211,31.211,0,0,0-1.713-4.5c.133-.094.265-.191.393-.3,2.447-2.058,5.283-6.759,3.227-9.042-3.9-4.333-7.34-2-9.787.053-.125.106-.242.218-.357.331a27.65,27.65,0,0,0-3.662-2.858c.073-.148.145-.3.208-.455a6.094,6.094,0,0,0-.081-4.817q-3.191,6.985-6.264,14.022c8.241,4.988,11.694,15.947,7.7,25.9-3.386,8.438-11.135,13.692-19.143,13.827-.273.952-.54,1.908-.84,2.854-.813,2.565-1.771,5.092-2.73,7.615q1.126.111,2.251.13c0,.162.012.324.029.486.345,3.179,2.518,5.713,8.017,4.932,3.042-.433,3.281-3.713,2.936-6.892-.018-.166-.046-.328-.077-.488a31.175,31.175,0,0,0,4.346-2.064c.082.136.167.271.261.4,1.812,2.482,7.39,3.111,9.837,1.054s.835-6.024-.976-8.506c-.093-.127-.193-.245-.294-.361a34.024,34.024,0,0,0,2.9-4.041c.136.07.274.137.419.2a5.917,5.917,0,0,0,4.394-10.948c-.145-.058-.291-.1-.438-.149a34.083,34.083,0,0,0,.7-4.928C2323.445,2366.645,2323.6,2366.629,2323.753,2366.6Z" transform="translate(-2258.046 -2329.106)" fill="url(#linear-gradient-22)"/>
      <path id="Trazado_105775-2" data-name="Trazado 105775" d="M1930.5,2319.907a5.917,5.917,0,0,0,4.394-10.948c-.145-.058-.291-.1-.438-.149a34.023,34.023,0,0,0,.695-4.928c.153-.014.307-.03.462-.058a6.171,6.171,0,0,0,4.851-6.735,5.227,5.227,0,0,0-6.1-4.775c-.158.029-.312.067-.466.109a31.215,31.215,0,0,0-1.713-4.5c.133-.094.265-.191.393-.3a6.172,6.172,0,0,0,1.151-8.22,5.227,5.227,0,0,0-7.71-.768c-.125.105-.242.218-.357.331a27.636,27.636,0,0,0-3.662-2.859c.074-.148.145-.3.208-.455a5.465,5.465,0,1,0-10.111-4.058c-.063.157-.115.315-.165.473a27.614,27.614,0,0,0-4.622-.466c0-.162-.011-.324-.029-.487a5.227,5.227,0,0,0-6.1-4.775,6.172,6.172,0,0,0-4.851,6.735c.018.166.046.327.077.488a31.16,31.16,0,0,0-4.345,2.064c-.082-.136-.167-.271-.261-.4a5.227,5.227,0,0,0-7.71-.768,6.171,6.171,0,0,0-1.15,8.22c.093.127.192.245.293.361a34.052,34.052,0,0,0-2.9,4.041c-.136-.07-.274-.137-.419-.2a5.917,5.917,0,0,0-4.394,10.948c.145.058.291.1.438.148a34.024,34.024,0,0,0-.7,4.928c-.153.014-.307.03-.461.058a6.173,6.173,0,0,0-4.852,6.735,5.227,5.227,0,0,0,6.1,4.775c.158-.028.312-.067.465-.108a31.184,31.184,0,0,0,1.713,4.5c-.133.095-.265.192-.393.3a6.172,6.172,0,0,0-1.151,8.22,5.227,5.227,0,0,0,7.71.768c.125-.105.242-.218.357-.332a27.682,27.682,0,0,0,3.662,2.859c-.073.148-.145.3-.208.455a5.465,5.465,0,1,0,10.111,4.058c.063-.156.115-.314.165-.473a27.637,27.637,0,0,0,4.622.466c0,.162.011.324.029.486a5.227,5.227,0,0,0,6.1,4.775,6.172,6.172,0,0,0,4.851-6.735c-.018-.166-.046-.328-.077-.488a31.151,31.151,0,0,0,4.346-2.065c.082.136.167.271.261.4a5.227,5.227,0,0,0,7.71.768,6.172,6.172,0,0,0,1.151-8.22c-.093-.127-.193-.245-.294-.361a34.019,34.019,0,0,0,2.9-4.041C1930.215,2319.781,1930.353,2319.849,1930.5,2319.907Zm-33.274,3.367c-10.137-4.068-14.785-16.265-10.379-27.242s16.194-16.577,26.332-12.509,14.784,16.265,10.379,27.242S1907.361,2327.342,1897.224,2323.274Z" transform="translate(-1867 -2266.256)" fill="url(#linear-gradient-23)"/>
    </g>
  </g>
</svg>
