<svg xmlns="http://www.w3.org/2000/svg" xmlns:xlink="http://www.w3.org/1999/xlink" width="400" height="135" viewBox="0 0 400 135">
  <defs>
    <linearGradient id="linear-gradient" x1="0.446" y1="0.085" x2="0.572" y2="1.101" gradientUnits="objectBoundingBox">
      <stop offset="0" stop-color="#ffb133"/>
      <stop offset="1" stop-color="#ed7d1b"/>
    </linearGradient>
    <linearGradient id="linear-gradient-2" x1="0.436" y1="-0.104" x2="0.787" y2="1.209" xlink:href="#linear-gradient"/>
    <linearGradient id="linear-gradient-3" x1="0.453" y1="0.443" x2="1.059" y2="-0.014" xlink:href="#linear-gradient"/>
    <linearGradient id="linear-gradient-4" x1="0" y1="0.5" x2="1.006" y2="0.5" xlink:href="#linear-gradient"/>
    <linearGradient id="linear-gradient-5" x1="0.423" y1="-0.146" x2="0.575" y2="1.154" xlink:href="#linear-gradient"/>
    <linearGradient id="linear-gradient-6" x1="0.444" y1="-0.135" x2="0.718" y2="1.105" xlink:href="#linear-gradient"/>
    <linearGradient id="linear-gradient-7" x1="0.508" y1="0.236" x2="0.656" y2="1.01" xlink:href="#linear-gradient"/>
    <linearGradient id="linear-gradient-8" x1="0.452" y1="-0.028" x2="0.596" y2="1.65" xlink:href="#linear-gradient"/>
  </defs>
  <g id="Grupo_85524" data-name="Grupo 85524" transform="translate(-915 -28348)">
    <rect id="Rectángulo_33904" data-name="Rectángulo 33904" width="400" height="135" rx="12" transform="translate(915 28348)" fill="#f0f0f0"/>
    <g id="Grupo_85517" data-name="Grupo 85517" transform="translate(1147.351 28363.465)">
      <path id="Trazado_106258" data-name="Trazado 106258" d="M200.819,208.4s-18.322-2.281-27.651-2.751-34.093,2.751-34.093,2.751l6.107,4.631s24.7,11.006,31.677,9.731S200.819,208.4,200.819,208.4Z" transform="translate(-138.17 -167.466)" fill="#b0000f"/>
      <g id="Grupo_85516" data-name="Grupo 85516" transform="translate(0 0)">
        <path id="Trazado_106259" data-name="Trazado 106259" d="M190.822,211.7l-7.728-57.618-6.845,1.544,9.216,58.02Z" transform="translate(-147.826 -154.081)" fill="#e88d3b"/>
        <path id="Trazado_106260" data-name="Trazado 106260" d="M137.852,189.846,148.4,209.2l3.649-1.639-9.261-21.342Z" transform="translate(-137.852 -162.43)" fill="#e88d3b"/>
        <path id="Trazado_106261" data-name="Trazado 106261" d="M142.476,178.8l17.919,16.812,1.409-7.852-15.2-14.6Z" transform="translate(-139.053 -159.039)" fill="#e8a33b"/>
        <path id="Trazado_106262" data-name="Trazado 106262" d="M152.133,178.661c-.453,2.709-1.6,5.384-4.486,5.06-.061-.007-.127-.022-.19-.03l14.231,13.352,1.409-7.852Z" transform="translate(-140.347 -160.466)" fill="#db8300" opacity="0.55" style="mix-blend-mode: multiply;isolation: isolate"/>
        <path id="Trazado_106263" data-name="Trazado 106263" d="M174.7,186.849l-3.624-17.718,7.718.268.951,17.785Z" transform="translate(-146.484 -157.991)" fill="#e8a33b"/>
        <path id="Trazado_106264" data-name="Trazado 106264" d="M198.754,211.3l-3.624-33.92-5.1,1.476,2.886,33.824Z" transform="translate(-151.406 -160.134)" fill="#f6be51"/>
        <path id="Trazado_106265" data-name="Trazado 106265" d="M181.455,209.079,202.7,172.033l7.583,4.832-24.249,39.093Z" transform="translate(-149.179 -158.744)" fill="#e88d3b"/>
        <path id="Trazado_106266" data-name="Trazado 106266" d="M197.132,197.054a11.554,11.554,0,0,1-3.247-4.252l-12.429,21.672,4.581,6.879,14.142-22.8A7.779,7.779,0,0,1,197.132,197.054Z" transform="translate(-149.179 -164.14)" fill="#db8300" opacity="0.55" style="mix-blend-mode: multiply;isolation: isolate"/>
        <path id="Trazado_106267" data-name="Trazado 106267" d="M185.477,164.87l-14.714,48,7.915,1.223,15.434-46.072Z" transform="translate(-146.401 -156.884)" fill="url(#linear-gradient)"/>
        <path id="Trazado_106268" data-name="Trazado 106268" d="M182.068,195.269a26.183,26.183,0,0,1-2.671-3.6l-8.634,28.169,7.915,1.222,7.854-23.445A6.4,6.4,0,0,1,182.068,195.269Z" transform="translate(-146.401 -163.845)" fill="#db8300" opacity="0.55" style="mix-blend-mode: multiply;isolation: isolate"/>
        <path id="Trazado_106269" data-name="Trazado 106269" d="M208.6,210.815l9.127-14.558-6.025-3.825-7.531,17.181Z" transform="translate(-155.08 -164.044)" fill="#e88d3b"/>
        <path id="Trazado_106270" data-name="Trazado 106270" d="M170.111,191.178l-8.188-24.227,6.778-2.081L175.01,189.3Z" transform="translate(-144.105 -156.884)" fill="#f6be51"/>
        <path id="Trazado_106271" data-name="Trazado 106271" d="M171.505,181.555a6.214,6.214,0,0,1-4.716.178l4.586,13.569,4.9-1.879L173,180.746A15.485,15.485,0,0,1,171.505,181.555Z" transform="translate(-145.369 -161.008)" fill="#db8300" opacity="0.55" style="mix-blend-mode: multiply;isolation: isolate"/>
        <path id="Trazado_106272" data-name="Trazado 106272" d="M195.922,173.631l8.188-.872.872,27.885-4.53.436Z" transform="translate(-152.937 -158.933)" fill="#f6be51"/>
        <path id="Trazado_106273" data-name="Trazado 106273" d="M201.925,192.845c-.939-.1-2.227-1.441-3.178-1.826l2.439,14.779,4.53-.436-.452-14.44C204.212,191.662,203.314,192.994,201.925,192.845Z" transform="translate(-153.671 -163.651)" fill="#e4a23f" opacity="0.55" style="mix-blend-mode: multiply;isolation: isolate"/>
        <path id="Trazado_106274" data-name="Trazado 106274" d="M157.176,213.386l-1.644-36.73,8.959,1.946-1.007,38.556Z" transform="translate(-142.445 -159.946)" fill="url(#linear-gradient-2)"/>
        <path id="Trazado_106275" data-name="Trazado 106275" d="M162.256,203.536c-1.934-.2-3.287-1.754-4.606-3.066-.38-.377-.748-.757-1.1-1.144l.893,19.949,6.308,3.772.525-20.1A3.158,3.158,0,0,1,162.256,203.536Z" transform="translate(-142.708 -165.835)" fill="#db8300" opacity="0.55" style="mix-blend-mode: multiply;isolation: isolate"/>
        <g id="Grupo_85510" data-name="Grupo 85510" transform="translate(42.985 24.263)">
          <g id="Grupo_85509" data-name="Grupo 85509">
            <path id="Trazado_106276" data-name="Trazado 106276" d="M200.452,212.8l11.107-21.812s.4-2.819-.537-3.489-5.436-1.007-6.242,0-8.859,27.3-8.859,27.3Z" transform="translate(-195.922 -186.86)" fill="#f5b538"/>
          </g>
          <path id="Trazado_106277" data-name="Trazado 106277" d="M210.653,191.218c-1.108-.027-2.212.106-3.319.116-2.121.019-2.6-1.747-2.612-3.481-1.053,1.907-8.8,27.2-8.8,27.2l4.53-2,11.1-21.8C211.245,191.246,210.94,191.225,210.653,191.218Z" transform="translate(-195.922 -187.118)" fill="url(#linear-gradient-3)"/>
          <path id="Trazado_106278" data-name="Trazado 106278" d="M201.62,202.186c1.223-3.96,3.158-7.345,4.84-10.983-1.374-.421-1.731-1.891-1.737-3.35-1.053,1.907-8.8,27.2-8.8,27.2l1.507-.665C198.163,210.145,200.344,206.314,201.62,202.186Z" transform="translate(-195.922 -187.118)" fill="#e27e1b"/>
        </g>
        <g id="Grupo_85511" data-name="Grupo 85511" transform="translate(16.543 15.928)">
          <path id="Trazado_106279" data-name="Trazado 106279" d="M160.2,212.22,173.892,175.6l7.584,2.886-14.094,36.243Z" transform="translate(-160.201 -175.599)" fill="#f6be51"/>
          <path id="Trazado_106280" data-name="Trazado 106280" d="M178.208,180.452a8.17,8.17,0,0,1-5.071-2.127l-12.936,34.6,7.181,2.508,13.969-35.923A5.107,5.107,0,0,1,178.208,180.452Z" transform="translate(-160.201 -176.307)" fill="url(#linear-gradient-4)"/>
          <path id="Trazado_106281" data-name="Trazado 106281" d="M171.549,196.687a14.536,14.536,0,0,1-2.378-4.029l-8.97,23.993,7.181,2.508,8.033-20.658A4.551,4.551,0,0,1,171.549,196.687Z" transform="translate(-160.201 -180.031)" fill="#db8300" opacity="0.55" style="mix-blend-mode: multiply;isolation: isolate"/>
          <path id="Trazado_106282" data-name="Trazado 106282" d="M169.546,195.315c1.215-3.5,2.19-7.1,3.464-10.566.671-1.83,1.557-3.357,2.2-5.053a8.98,8.98,0,0,1-2.076-1.371l-12.936,34.6,5.074,1.772A69.832,69.832,0,0,1,169.546,195.315Z" transform="translate(-160.201 -176.307)" fill="#e27e1b"/>
        </g>
        <g id="Grupo_85512" data-name="Grupo 85512" transform="translate(16.543 23.755)">
          <path id="Trazado_106283" data-name="Trazado 106283" d="M168.254,215.3,160.2,189.4s4.444-3.624,5.913-3.187,2.409.637,2.879,2.449,5.57,28.657,5.57,28.657Z" transform="translate(-160.201 -186.173)" fill="#f6be51"/>
          <path id="Trazado_106284" data-name="Trazado 106284" d="M169.228,190.465a5.279,5.279,0,0,1-1.435,1.411c-1.154.737-2.877,2.032-4.355,1.411a10.421,10.421,0,0,1-1.89-.948,5.641,5.641,0,0,1-1.037-1.085l7.823,25.163,6.309,2.013S170.2,195.064,169.228,190.465Z" transform="translate(-160.282 -187.288)" fill="url(#linear-gradient-5)"/>
          <path id="Trazado_106285" data-name="Trazado 106285" d="M168.749,211.421a178.859,178.859,0,0,1-4.215-17.712,2.207,2.207,0,0,1-1.095-.145,10.421,10.421,0,0,1-1.89-.948,5.64,5.64,0,0,1-1.037-1.085l7.823,25.163,1.743.557C169.429,215.154,169.119,212.838,168.749,211.421Z" transform="translate(-160.282 -187.564)" fill="#e27e1b"/>
        </g>
        <g id="Grupo_85513" data-name="Grupo 85513" transform="translate(35.066 22.644)">
          <path id="Trazado_106286" data-name="Trazado 106286" d="M187.975,215.181l-2.751-27.8s4.43-3.339,5.839-2.6a2.646,2.646,0,0,1,1.677,2.954c-.268,1.073.4,27.113.4,27.113S189.788,219.006,187.975,215.181Z" transform="translate(-185.224 -184.672)" fill="#f6be51"/>
          <path id="Trazado_106287" data-name="Trazado 106287" d="M192.775,188.712a2.2,2.2,0,0,0,.041-.267c-.035.037-.07.076-.107.11-1.224,1.092-2.93,2.526-4.607,2.722a2.868,2.868,0,0,1-2.744-1.914l2.652,26.8c1.812,3.826,5.168-.335,5.168-.335S192.507,189.786,192.775,188.712Z" transform="translate(-185.259 -185.652)" fill="url(#linear-gradient-6)"/>
          <path id="Trazado_106288" data-name="Trazado 106288" d="M190.007,208.424c-.079-1.153-.176-2.3-.3-3.434-.327-2.956-.727-5.916-1.207-8.852-.222-1.357-.311-3.041-.642-4.537a2.975,2.975,0,0,1-2.5-1.916l2.652,26.8c.7,1.472,1.623,1.76,2.5,1.558Q190.153,213.237,190.007,208.424Z" transform="translate(-185.259 -185.974)" fill="#e27e1b"/>
        </g>
        <g id="Grupo_85514" data-name="Grupo 85514" transform="translate(28.871 37.022)">
          <path id="Trazado_106289" data-name="Trazado 106289" d="M177.748,221.233s-1.141-15.2-.844-15.918,5.005-1.939,5.811-.662a10.353,10.353,0,0,1,.939,4.566c-.067.47.012,13.825.012,13.825S178.62,223.38,177.748,221.233Z" transform="translate(-176.854 -204.096)" fill="#f6be51"/>
          <path id="Trazado_106290" data-name="Trazado 106290" d="M183.654,209.763a5.835,5.835,0,0,0-.024-.99,3.16,3.16,0,0,1-1.482.727c-1.306.267-3.162.425-4.191-.637a4.587,4.587,0,0,1-1.093-2.676c-.11,2.341.885,15.588.885,15.588.873,2.147,5.918,1.812,5.918,1.812S183.587,210.233,183.654,209.763Z" transform="translate(-176.854 -204.639)" fill="url(#linear-gradient-7)"/>
          <path id="Trazado_106291" data-name="Trazado 106291" d="M178.738,217.884a52.715,52.715,0,0,1,.61-8.294,2.7,2.7,0,0,1-1.392-.726,4.587,4.587,0,0,1-1.093-2.676c-.11,2.341.885,15.588.885,15.588a2.024,2.024,0,0,0,.779.9C178.534,221.058,178.748,219.391,178.738,217.884Z" transform="translate(-176.854 -204.639)" fill="#e27e1b"/>
        </g>
        <g id="Grupo_85515" data-name="Grupo 85515" transform="translate(3.418 24.931)">
          <path id="Trazado_106292" data-name="Trazado 106292" d="M151.77,210.279s-9.53-18.389-9.3-19.027,5.283-3.859,6.484-3.456a4.1,4.1,0,0,1,2.811,2.349c.369,1.208,5.638,21.61,5.638,21.61S152.843,211.017,151.77,210.279Z" transform="translate(-142.47 -187.761)" fill="#f6be51"/>
          <path id="Trazado_106293" data-name="Trazado 106293" d="M151.78,190.957c-.007-.024-.021-.046-.029-.07A21.282,21.282,0,0,0,148.422,193a3.747,3.747,0,0,1-2.414,1.277c-1.1,0-1.711-.768-2.546-1.331a11.344,11.344,0,0,1-.951-.7c.526,1.973,9.269,18.846,9.269,18.846,1.073.738,5.638,1.476,5.638,1.476S152.149,192.165,151.78,190.957Z" transform="translate(-142.481 -188.573)" fill="url(#linear-gradient-8)"/>
          <path id="Trazado_106294" data-name="Trazado 106294" d="M146.009,194.755c-1.1,0-1.711-.768-2.546-1.331a11.35,11.35,0,0,1-.951-.7c.526,1.973,9.269,18.846,9.269,18.846,1.073.738,2.953,2.349,2.953,2.349S146.981,194.755,146.009,194.755Z" transform="translate(-142.481 -189.05)" fill="#e27e1b"/>
        </g>
      </g>
      <path id="Trazado_106295" data-name="Trazado 106295" d="M193.9,207.294c-.1.052-.2.1-.3.154a7.454,7.454,0,0,1-2.176,3.362,5.767,5.767,0,0,1-4.933,1.062,1.605,1.605,0,0,1-.232-.067,19.36,19.36,0,0,1-2.5.867,1.409,1.409,0,0,1-.217.742,3.236,3.236,0,0,1-2.474,1.634,5.464,5.464,0,0,1-2.03-.358,1.655,1.655,0,0,1-1.106-1.09c-.493.034-.987.062-1.483.081a1.468,1.468,0,0,1-.916,2.284,9.085,9.085,0,0,1-5.353-.6,2.163,2.163,0,0,1-.44-.238,2.081,2.081,0,0,1-.449.238,5.293,5.293,0,0,1-6.315-1.948,1.759,1.759,0,0,1-.135-.281,11.223,11.223,0,0,1-3.726-1.4c-.665-.4-1.349-.89-2.049-1.373-2.521.42-5.663.861-7.94.281l2.2,4.029,1.48-.664.6,1.17.089.172c.517.355,1.217.91,1.808,1.393l.206,4.6,6.308,3.772.08-3.066.5.174,2.107.736.86-2.212.012.039.654.209-.888,2.9,7.915,1.222.466-1.391a14.813,14.813,0,0,0,2.939.15s0-.194,0-.527l1.178,1.768.324-.523.457,2.874,5.358-1.946-.565-4.209a7.11,7.11,0,0,0,.554-.591s-.005-.221-.016-.614l4.378-1.035-.091-.854.259-.114,2.264-4.444,3.743,1.016,4.32-6.889c-.044-.007-.086-.018-.129-.025A6.717,6.717,0,0,1,193.9,207.294Z" transform="translate(-140.782 -167.904)" fill="#c25900" opacity="0.32" style="mix-blend-mode: multiply;isolation: isolate"/>
      <path id="Trazado_106296" data-name="Trazado 106296" d="M139.076,209.386s11.677,30.469,11.543,45.637l5.369,3.087s23.121-1.879,37.4-1.208c0,0,2.2-33.69,7.433-47.515l-10.6.772s-1.794,9.125-18.825,9.261c-12.584.1-17.215-7.852-17.215-7.852l-8.59.839Z" transform="translate(-138.17 -168.448)" fill="#ec2734"/>
      <path id="Trazado_106297" data-name="Trazado 106297" d="M152.112,234.872a134.624,134.624,0,0,0-6.527-22.466l-6.51-3.02s11.677,30.469,11.543,45.637l5.369,3.087C155.929,254.844,152.954,239.131,152.112,234.872Z" transform="translate(-138.17 -168.448)" fill="#d22734" opacity="0.75" style="mix-blend-mode: multiply;isolation: isolate"/>
      <path id="Trazado_106298" data-name="Trazado 106298" d="M191.268,239.314c-4.038,1.994-10.229,1.407-14.093-.731-5.361-2.964-9.111-7.846-12.8-12.608a51.731,51.731,0,0,1-7.335-11.994c-1.938.186-3.875.474-5.8.835,3.754,8.551,8.932,35.935,9.845,42.885.789-.008,27.531-1.085,34.158-1.007.694-7.673,2.714-22.965,2.714-22.965A21.359,21.359,0,0,1,191.268,239.314Z" transform="translate(-141.329 -169.641)" fill="#d42734" opacity="0.75" style="mix-blend-mode: multiply;isolation: isolate"/>
      <path id="Trazado_106299" data-name="Trazado 106299" d="M195.59,234.453a2.087,2.087,0,0,0-.932,1.641,1.417,1.417,0,0,0,1.152,1.124,3.249,3.249,0,0,0,1.688-.2,3.881,3.881,0,0,0,1.755-1.036,1.782,1.782,0,0,0,.344-1.912,1.835,1.835,0,0,0-2.019-.8A4.623,4.623,0,0,0,195.59,234.453Z" transform="translate(-152.607 -174.643)" fill="#f6985c" opacity="0.75" style="mix-blend-mode: screen;isolation: isolate"/>
      <path id="Trazado_106300" data-name="Trazado 106300" d="M208.953,223.727A4.6,4.6,0,0,0,202.592,226a2.67,2.67,0,0,0-.01,2.382,2.383,2.383,0,0,0,1.717,1.052,5.353,5.353,0,0,0,2.059-.183,7.175,7.175,0,0,0,2.56-1.1,3.752,3.752,0,0,0,1.415-1.952A2.285,2.285,0,0,0,208.953,223.727Z" transform="translate(-154.595 -172.038)" fill="#f6985c" opacity="0.75" style="mix-blend-mode: screen;isolation: isolate"/>
    </g>
    <g id="Grupo_85522" data-name="Grupo 85522" transform="translate(1004.351 28408.297)">
      <path id="Trazado_106258-2" data-name="Trazado 106258" d="M169.948,207s-9.161-1.141-13.826-1.376S139.076,207,139.076,207l3.054,2.316s12.349,5.5,15.839,4.866S169.948,207,169.948,207Z" transform="translate(-138.623 -186.535)" fill="#b0000f"/>
      <g id="Grupo_85516-2" data-name="Grupo 85516" transform="translate(0 0)">
        <path id="Trazado_106259-2" data-name="Trazado 106259" d="M183.535,182.891l-3.864-28.809-3.423.772,4.608,29.011Z" transform="translate(-162.037 -154.081)" fill="#e88d3b"/>
        <path id="Trazado_106260-2" data-name="Trazado 106260" d="M137.852,188.034l5.273,9.678,1.825-.819-4.631-10.671Z" transform="translate(-137.852 -174.326)" fill="#e88d3b"/>
        <path id="Trazado_106261-2" data-name="Trazado 106261" d="M142.476,175.985l8.96,8.406.7-3.926-7.6-7.3Z" transform="translate(-140.765 -166.102)" fill="#e8a33b"/>
        <path id="Trazado_106262-2" data-name="Trazado 106262" d="M149.8,178.661c-.227,1.355-.8,2.692-2.243,2.53-.031,0-.064-.011-.095-.015l7.116,6.676.7-3.926Z" transform="translate(-143.903 -169.564)" fill="#db8300" opacity="0.55" style="mix-blend-mode: multiply;isolation: isolate"/>
        <path id="Trazado_106263-2" data-name="Trazado 106263" d="M172.892,177.99l-1.812-8.859,3.859.134.475,8.893Z" transform="translate(-158.782 -163.561)" fill="#e8a33b"/>
        <path id="Trazado_106264-2" data-name="Trazado 106264" d="M194.391,194.342l-1.812-16.96-2.55.738,1.443,16.913Z" transform="translate(-170.717 -168.758)" fill="#f6be51"/>
        <path id="Trazado_106265-2" data-name="Trazado 106265" d="M181.455,190.556l10.623-18.523,3.792,2.416L183.745,194Z" transform="translate(-165.317 -165.388)" fill="#e88d3b"/>
        <path id="Trazado_106266-2" data-name="Trazado 106266" d="M189.293,194.928a5.777,5.777,0,0,1-1.624-2.126l-6.215,10.836,2.29,3.44,7.071-11.4A3.89,3.89,0,0,1,189.293,194.928Z" transform="translate(-165.317 -178.471)" fill="#db8300" opacity="0.55" style="mix-blend-mode: multiply;isolation: isolate"/>
        <path id="Trazado_106267-2" data-name="Trazado 106267" d="M178.12,164.87l-7.357,24,3.957.611,7.717-23.037Z" transform="translate(-158.582 -160.877)" fill="url(#linear-gradient)"/>
        <path id="Trazado_106268-2" data-name="Trazado 106268" d="M176.415,193.468a13.09,13.09,0,0,1-1.335-1.8l-4.317,14.085,3.957.611,3.927-11.722A3.2,3.2,0,0,1,176.415,193.468Z" transform="translate(-158.582 -177.755)" fill="#db8300" opacity="0.55" style="mix-blend-mode: multiply;isolation: isolate"/>
        <path id="Trazado_106269-2" data-name="Trazado 106269" d="M206.387,201.624l4.564-7.279-3.013-1.913-3.766,8.59Z" transform="translate(-179.626 -178.238)" fill="#e88d3b"/>
        <path id="Trazado_106270-2" data-name="Trazado 106270" d="M166.017,178.024l-4.094-12.114,3.389-1.04,3.154,12.215Z" transform="translate(-153.014 -160.877)" fill="#f6be51"/>
        <path id="Trazado_106271-2" data-name="Trazado 106271" d="M169.147,181.151a3.107,3.107,0,0,1-2.358.089l2.293,6.785,2.45-.939-1.637-6.339A7.741,7.741,0,0,1,169.147,181.151Z" transform="translate(-156.079 -170.877)" fill="#db8300" opacity="0.55" style="mix-blend-mode: multiply;isolation: isolate"/>
        <path id="Trazado_106272-2" data-name="Trazado 106272" d="M195.922,173.194l4.094-.436.436,13.943-2.265.218Z" transform="translate(-174.429 -165.845)" fill="#f6be51"/>
        <path id="Trazado_106273-2" data-name="Trazado 106273" d="M200.336,191.884c-.469-.05-1.114-.721-1.589-.913l1.22,7.389,2.265-.218-.226-7.22C201.48,191.292,201.03,191.958,200.336,191.884Z" transform="translate(-176.208 -177.286)" fill="#e4a23f" opacity="0.55" style="mix-blend-mode: multiply;isolation: isolate"/>
        <path id="Trazado_106274-2" data-name="Trazado 106274" d="M156.354,195.022l-.822-18.365,4.48.973-.5,19.278Z" transform="translate(-148.988 -168.301)" fill="url(#linear-gradient-2)"/>
        <path id="Trazado_106275-2" data-name="Trazado 106275" d="M159.4,201.431a4.147,4.147,0,0,1-2.3-1.533c-.19-.188-.374-.378-.552-.572l.447,9.975,3.154,1.886.262-10.048A1.579,1.579,0,0,1,159.4,201.431Z" transform="translate(-149.627 -182.58)" fill="#db8300" opacity="0.55" style="mix-blend-mode: multiply;isolation: isolate"/>
        <g id="Grupo_85510-2" data-name="Grupo 85510" transform="translate(21.493 12.132)">
          <g id="Grupo_85509-2" data-name="Grupo 85509">
            <path id="Trazado_106276-2" data-name="Trazado 106276" d="M198.187,199.828l5.554-10.906s.2-1.409-.268-1.745-2.718-.5-3.121,0-4.43,13.65-4.43,13.65Z" transform="translate(-195.922 -186.86)" fill="#f5b538"/>
          </g>
          <path id="Trazado_106277-2" data-name="Trazado 106277" d="M203.288,189.536c-.554-.013-1.106.053-1.66.058-1.06.01-1.3-.873-1.306-1.74-.527.953-4.4,13.6-4.4,13.6l2.265-1,5.55-10.9C203.584,189.55,203.431,189.54,203.288,189.536Z" transform="translate(-195.922 -187.486)" fill="url(#linear-gradient-3)"/>
          <path id="Trazado_106278-2" data-name="Trazado 106278" d="M198.771,195.02a43.689,43.689,0,0,1,2.42-5.491c-.687-.211-.865-.945-.868-1.675-.527.953-4.4,13.6-4.4,13.6l.754-.333C197.043,199,198.133,197.084,198.771,195.02Z" transform="translate(-195.922 -187.486)" fill="#e27e1b"/>
        </g>
        <g id="Grupo_85511-2" data-name="Grupo 85511" transform="translate(8.272 7.964)">
          <path id="Trazado_106279-2" data-name="Trazado 106279" d="M160.2,193.91l6.846-18.311,3.792,1.443-7.047,18.122Z" transform="translate(-160.201 -175.599)" fill="#f6be51"/>
          <path id="Trazado_106280-2" data-name="Trazado 106280" d="M169.2,179.389a4.085,4.085,0,0,1-2.535-1.064l-6.468,17.3,3.591,1.254,6.985-17.962A2.554,2.554,0,0,1,169.2,179.389Z" transform="translate(-160.201 -177.316)" fill="url(#linear-gradient-4)"/>
          <path id="Trazado_106281-2" data-name="Trazado 106281" d="M165.875,194.673a7.268,7.268,0,0,1-1.189-2.015l-4.485,12,3.591,1.254,4.017-10.329A2.276,2.276,0,0,1,165.875,194.673Z" transform="translate(-160.201 -186.344)" fill="#db8300" opacity="0.55" style="mix-blend-mode: multiply;isolation: isolate"/>
          <path id="Trazado_106282-2" data-name="Trazado 106282" d="M164.873,186.82c.608-1.748,1.095-3.548,1.732-5.283.336-.915.778-1.679,1.1-2.526a4.49,4.49,0,0,1-1.038-.685l-6.468,17.3,2.537.886A34.917,34.917,0,0,1,164.873,186.82Z" transform="translate(-160.201 -177.316)" fill="#e27e1b"/>
        </g>
        <g id="Grupo_85512-2" data-name="Grupo 85512" transform="translate(8.272 11.878)">
          <path id="Trazado_106283-2" data-name="Trazado 106283" d="M164.228,200.737,160.2,187.785s2.222-1.812,2.957-1.594,1.2.319,1.439,1.225,2.785,14.329,2.785,14.329Z" transform="translate(-160.201 -186.173)" fill="#f6be51"/>
          <path id="Trazado_106284-2" data-name="Trazado 106284" d="M164.87,190.465a2.64,2.64,0,0,1-.717.705c-.577.368-1.438,1.016-2.177.705a5.212,5.212,0,0,1-.945-.474,2.822,2.822,0,0,1-.519-.543l3.911,12.582,3.155,1.007S165.358,192.765,164.87,190.465Z" transform="translate(-160.397 -188.876)" fill="url(#linear-gradient-5)"/>
          <path id="Trazado_106285-2" data-name="Trazado 106285" d="M164.63,201.476a89.432,89.432,0,0,1-2.107-8.856,1.1,1.1,0,0,1-.547-.073,5.21,5.21,0,0,1-.945-.474,2.82,2.82,0,0,1-.519-.543l3.911,12.582.872.278C164.97,203.342,164.816,202.184,164.63,201.476Z" transform="translate(-160.397 -189.547)" fill="#e27e1b"/>
        </g>
        <g id="Grupo_85513-2" data-name="Grupo 85513" transform="translate(17.533 11.322)">
          <path id="Trazado_106286-2" data-name="Trazado 106286" d="M186.6,199.927l-1.376-13.9s2.215-1.67,2.92-1.3a1.323,1.323,0,0,1,.839,1.477c-.134.537.2,13.557.2,13.557S187.506,201.839,186.6,199.927Z" transform="translate(-185.224 -184.672)" fill="#f6be51"/>
          <path id="Trazado_106287-2" data-name="Trazado 106287" d="M189.067,188.579a1.1,1.1,0,0,0,.021-.134c-.018.018-.035.038-.054.055a4.854,4.854,0,0,1-2.3,1.361,1.434,1.434,0,0,1-1.372-.957l1.326,13.4c.906,1.913,2.584-.168,2.584-.168S188.933,189.115,189.067,188.579Z" transform="translate(-185.308 -187.049)" fill="url(#linear-gradient-6)"/>
          <path id="Trazado_106288-2" data-name="Trazado 106288" d="M187.682,199.054c-.04-.576-.088-1.149-.151-1.717-.164-1.478-.363-2.958-.6-4.426-.111-.678-.155-1.52-.321-2.268a1.488,1.488,0,0,1-1.249-.958l1.326,13.4c.349.736.812.88,1.25.779Q187.755,201.461,187.682,199.054Z" transform="translate(-185.308 -187.829)" fill="#e27e1b"/>
        </g>
        <g id="Grupo_85514-2" data-name="Grupo 85514" transform="translate(14.436 18.511)">
          <path id="Trazado_106289-2" data-name="Trazado 106289" d="M177.3,212.665s-.57-7.6-.422-7.959,2.5-.97,2.905-.331a5.177,5.177,0,0,1,.47,2.283c-.034.235.006,6.913.006,6.913S177.737,213.738,177.3,212.665Z" transform="translate(-176.854 -204.096)" fill="#f6be51"/>
          <path id="Trazado_106290-2" data-name="Trazado 106290" d="M180.254,207.976a2.918,2.918,0,0,0-.012-.495,1.58,1.58,0,0,1-.741.363,2.337,2.337,0,0,1-2.1-.318,2.293,2.293,0,0,1-.547-1.338c-.055,1.171.442,7.794.442,7.794.436,1.074,2.959.906,2.959.906S180.221,208.211,180.254,207.976Z" transform="translate(-176.855 -205.414)" fill="url(#linear-gradient-7)"/>
          <path id="Trazado_106291-2" data-name="Trazado 106291" d="M177.8,212.036a26.357,26.357,0,0,1,.3-4.147,1.351,1.351,0,0,1-.7-.363,2.293,2.293,0,0,1-.547-1.338c-.055,1.171.442,7.794.442,7.794a1.012,1.012,0,0,0,.39.449C177.695,213.623,177.8,212.789,177.8,212.036Z" transform="translate(-176.855 -205.414)" fill="#e27e1b"/>
        </g>
        <g id="Grupo_85515-2" data-name="Grupo 85515" transform="translate(1.709 12.466)">
          <path id="Trazado_106292-2" data-name="Trazado 106292" d="M147.12,199.02s-4.765-9.195-4.648-9.514,2.642-1.929,3.242-1.728a2.051,2.051,0,0,1,1.406,1.174c.184.6,2.819,10.805,2.819,10.805A12.529,12.529,0,0,1,147.12,199.02Z" transform="translate(-142.47 -187.761)" fill="#f6be51"/>
          <path id="Trazado_106293-2" data-name="Trazado 106293" d="M147.146,190.922c0-.012-.01-.023-.014-.035a10.642,10.642,0,0,0-1.664,1.057,1.874,1.874,0,0,1-1.207.638c-.552,0-.856-.384-1.273-.665a5.669,5.669,0,0,1-.476-.351c.263.986,4.635,9.423,4.635,9.423a12.529,12.529,0,0,0,2.819.738S147.33,191.526,147.146,190.922Z" transform="translate(-142.496 -189.73)" fill="url(#linear-gradient-8)"/>
          <path id="Trazado_106294-2" data-name="Trazado 106294" d="M144.26,193.739c-.552,0-.856-.384-1.273-.665a5.676,5.676,0,0,1-.476-.351c.263.986,4.635,9.423,4.635,9.423.537.369,1.476,1.174,1.476,1.174S144.746,193.739,144.26,193.739Z" transform="translate(-142.496 -190.886)" fill="#e27e1b"/>
        </g>
      </g>
      <path id="Trazado_106295-2" data-name="Trazado 106295" d="M171.518,207.294c-.05.026-.1.05-.151.077a3.727,3.727,0,0,1-1.088,1.681,2.884,2.884,0,0,1-2.467.531.8.8,0,0,1-.116-.034,9.685,9.685,0,0,1-1.248.433.7.7,0,0,1-.108.371,1.618,1.618,0,0,1-1.237.817,2.732,2.732,0,0,1-1.015-.179.827.827,0,0,1-.553-.545c-.247.017-.494.031-.742.041a.734.734,0,0,1-.458,1.142,4.543,4.543,0,0,1-2.676-.3,1.08,1.08,0,0,1-.22-.119,1.041,1.041,0,0,1-.225.119,2.647,2.647,0,0,1-3.158-.974.879.879,0,0,1-.067-.14,5.612,5.612,0,0,1-1.863-.7c-.333-.2-.674-.445-1.024-.687a10.705,10.705,0,0,1-3.97.141l1.1,2.015.74-.332.3.585.044.086c.258.177.608.455.9.7l.1,2.3,3.154,1.886.04-1.533.249.087,1.054.368.43-1.106.006.02.327.1-.444,1.449,3.957.611.233-.7a7.408,7.408,0,0,0,1.47.075s0-.1,0-.264l.589.884.162-.262.228,1.437,2.679-.973-.282-2.1a3.558,3.558,0,0,0,.277-.3s0-.111-.008-.307l2.189-.517-.046-.427.13-.057,1.132-2.222,1.871.508,2.16-3.445-.064-.013A3.359,3.359,0,0,1,171.518,207.294Z" transform="translate(-144.957 -187.599)" fill="#c25900" opacity="0.32" style="mix-blend-mode: multiply;isolation: isolate"/>
      <path id="Trazado_106296-2" data-name="Trazado 106296" d="M139.076,209.386s5.839,15.235,5.772,22.819l2.684,1.543s11.561-.939,18.7-.6c0,0,1.1-16.845,3.716-23.758l-5.3.386s-.9,4.563-9.413,4.631c-6.292.051-8.608-3.926-8.608-3.926l-4.3.419Z" transform="translate(-138.623 -188.917)" fill="#ec2734"/>
      <path id="Trazado_106297-2" data-name="Trazado 106297" d="M145.594,222.129a67.314,67.314,0,0,0-3.263-11.233l-3.255-1.51s5.839,15.235,5.772,22.819l2.684,1.543C147.5,232.116,146.015,224.259,145.594,222.129Z" transform="translate(-138.623 -188.917)" fill="#d22734" opacity="0.75" style="mix-blend-mode: multiply;isolation: isolate"/>
      <path id="Trazado_106298-2" data-name="Trazado 106298" d="M171.252,226.648a8.414,8.414,0,0,1-7.047-.365c-2.681-1.482-4.556-3.923-6.4-6.3a25.865,25.865,0,0,1-3.668-6c-.969.093-1.938.237-2.9.417,1.877,4.276,4.466,17.968,4.923,21.443.395,0,13.766-.543,17.079-.5.347-3.837,1.357-11.483,1.357-11.483A10.68,10.68,0,0,1,171.252,226.648Z" transform="translate(-146.282 -191.811)" fill="#d42734" opacity="0.75" style="mix-blend-mode: multiply;isolation: isolate"/>
      <path id="Trazado_106299-2" data-name="Trazado 106299" d="M195.121,233.843a1.044,1.044,0,0,0-.466.821.708.708,0,0,0,.576.562,1.625,1.625,0,0,0,.844-.1,1.941,1.941,0,0,0,.878-.518.891.891,0,0,0,.172-.956.918.918,0,0,0-1.009-.4A2.311,2.311,0,0,0,195.121,233.843Z" transform="translate(-173.629 -203.937)" fill="#f6985c" opacity="0.75" style="mix-blend-mode: screen;isolation: isolate"/>
      <path id="Trazado_106300-2" data-name="Trazado 106300" d="M205.629,223.466a2.3,2.3,0,0,0-3.18,1.138,1.335,1.335,0,0,0-.005,1.191,1.192,1.192,0,0,0,.858.526,2.677,2.677,0,0,0,1.03-.091,3.588,3.588,0,0,0,1.28-.548,1.876,1.876,0,0,0,.707-.976A1.143,1.143,0,0,0,205.629,223.466Z" transform="translate(-178.45 -197.621)" fill="#f6985c" opacity="0.75" style="mix-blend-mode: screen;isolation: isolate"/>
    </g>
    <path id="Trazado_106332" data-name="Trazado 106332" d="M-8211.494,16774.49h40.6v-39.705h44.033" transform="translate(9262.037 11659)" fill="none" stroke="#727997" stroke-linecap="round" stroke-width="3"/>
    <path id="Polígono_22" data-name="Polígono 22" d="M7,0l7,12H0Z" transform="translate(1141.037 28386) rotate(90)" fill="#727997"/>
  </g>
</svg>
