<svg xmlns="http://www.w3.org/2000/svg" width="1239" height="279" viewBox="0 0 1239 279">
  <g id="Grupo_87740" data-name="Grupo 87740" transform="translate(-181 -24137)">
    <rect id="Rectángulo_33880" data-name="Rectángulo 33880" width="1239" height="279" transform="translate(181 24137)" fill="#f2df85"/>
    <path id="Trazado_105720" data-name="Trazado 105720" d="M126.275-36.656H61.453L50.133,0H-.4L71.561-196.219h44.473L188.537,0H137.73Zm-53.5-36.521h42.182L93.8-141.234ZM253.225,0H206.057V-196.219h47.168Zm32.883,0V-196.219h63.205q26.01,0,46.764,11.792a82.887,82.887,0,0,1,32.411,33.287q11.657,21.5,11.792,48.179v9.029q0,26.953-11.388,48.313A83.245,83.245,0,0,1,396.817-12.2Q376.131-.135,350.66,0Zm47.3-159.7V-36.387h16.441q20.35,0,31.266-14.487t10.916-43.058v-8.49q0-28.436-10.916-42.855t-31.8-14.42ZM573.158-36.656H508.336L497.016,0H446.479l71.965-196.219h44.473L635.42,0H584.613Zm-53.5-36.521h42.182L540.68-141.234Z" transform="translate(483 24371)" fill="#12263f"/>
  </g>
</svg>
