<svg xmlns="http://www.w3.org/2000/svg" width="203" height="182" viewBox="0 0 203 182">
  <g id="Grupo_85624" data-name="Grupo 85624" transform="translate(-228 -29400)">
    <g id="Grupo_55930" data-name="Grupo 55930" transform="translate(-31.272 28942)">
      <g id="Right" transform="translate(259 458)">
        <rect id="BG" width="203" height="182" transform="translate(0.273)" fill="#fff" opacity="0.949"/>
      </g>
    </g>
    <g id="Grupo_85623" data-name="Grupo 85623" transform="translate(-217.069 28876.311)">
      <g id="Color" transform="translate(469.097 544.738)">
        <g id="Grupo_85535" data-name="Grupo 85535" transform="translate(35.955 15.324)">
          <path id="Trazado_106493" data-name="Trazado 106493" d="M969.357,695.677H951.264l-49.564.566-11,30.867v84.745a4.384,4.384,0,0,0,4.384,4.384h74.269a4.384,4.384,0,0,0,4.384-4.384V700.061A4.384,4.384,0,0,0,969.357,695.677Z" transform="translate(-890.703 -695.677)" fill="#4a91d6"/>
        </g>
        <g id="Grupo_85536" data-name="Grupo 85536" transform="translate(0 0)">
          <path id="Trazado_106494" data-name="Trazado 106494" d="M598.748,557.468l-15.169-5.756a3.955,3.955,0,0,0-5.1,2.295l-1.988,5.238L565.1,589.265l-12.712,33.5a1,1,0,0,0,.578,1.285l16.805-12.925,3.9,20.78a1,1,0,0,0,1.285-.578l12.471-32.865,11.822-31.157,1.8-4.738A3.955,3.955,0,0,0,598.748,557.468Z" transform="translate(-552.322 -551.453)" fill="#5ed45e"/>
        </g>
        <g id="Grupo_85537" data-name="Grupo 85537" transform="translate(109.164 75.233)">
          <path id="Trazado_106495" data-name="Trazado 106495" d="M1597.554,1259.5a17.851,17.851,0,1,0,17.851,17.851A17.871,17.871,0,0,0,1597.554,1259.5Zm0,34.108a16.257,16.257,0,1,1,16.257-16.257A16.276,16.276,0,0,1,1597.554,1293.608Z" transform="translate(-1579.703 -1259.5)" fill="#1e243a"/>
        </g>
        <g id="Grupo_85538" data-name="Grupo 85538" transform="translate(43.789 24.711)">
          <path id="Trazado_106496" data-name="Trazado 106496" d="M981.039,784.019H968.855l-4.416,13.74v87.77h67.723V784.019H981.039Z" transform="translate(-964.439 -784.019)" fill="#fff"/>
        </g>
        <g id="Grupo_85539" data-name="Grupo 85539" transform="translate(10.069 7.379)">
          <path id="Trazado_106497" data-name="Trazado 106497" d="M683.085,641.166a5.277,5.277,0,0,0-.843-.242,15.355,15.355,0,0,0-.043-1.594,5.259,5.259,0,1,0-4.242-9.47,15.355,15.355,0,0,0-1.136-1.073,5.259,5.259,0,1,0-9.705-3.689,15.391,15.391,0,0,0-1.6.05,5.259,5.259,0,1,0-9.451,4.286A15.333,15.333,0,0,0,655,630.571a5.259,5.259,0,1,0-3.648,9.7,15.366,15.366,0,0,0,.053,1.575,5.259,5.259,0,1,0,4.279,9.425q.525.545,1.107,1.04a5.259,5.259,0,1,0,9.67,3.675,15.363,15.363,0,0,0,1.555-.045,5.259,5.259,0,1,0,9.449-4.226,15.332,15.332,0,0,0,1.059-1.117,5.258,5.258,0,1,0,4.559-9.433Z" transform="translate(-647.083 -620.898)" fill="#e1e1e5"/>
        </g>
        <g id="Grupo_85540" data-name="Grupo 85540" transform="translate(19.739 17.049)">
          <circle id="Elipse_4260" data-name="Elipse 4260" cx="7.335" cy="7.335" r="7.335" transform="translate(0 12.685) rotate(-59.849)" fill="#5ed45e"/>
        </g>
        <g id="Grupo_85541" data-name="Grupo 85541" transform="translate(100.026 66.095)">
          <circle id="Elipse_4261" data-name="Elipse 4261" cx="26.989" cy="26.989" r="26.989" fill="#fcd118"/>
        </g>
        <g id="Grupo_85542" data-name="Grupo 85542" transform="translate(109.961 76.03)">
          <circle id="Elipse_4262" data-name="Elipse 4262" cx="17.054" cy="17.054" r="17.054" fill="#e1e1e5"/>
        </g>
        <g id="Grupo_85543" data-name="Grupo 85543" transform="translate(121.224 87.293)">
          <circle id="Elipse_4263" data-name="Elipse 4263" cx="5.791" cy="5.791" r="5.791" fill="#fcd118"/>
        </g>
        <g id="Grupo_85544" data-name="Grupo 85544" transform="translate(59.198 8.877)">
          <path id="Trazado_106498" data-name="Trazado 106498" d="M1109.453,645.614a10,10,0,0,0,10,10h16.553a10,10,0,0,0,10-10V635h-36.552Z" transform="translate(-1109.453 -635)" fill="#e1e1e5"/>
        </g>
      </g>
      <g id="GOAL" transform="translate(459.203 543.94)">
        <g id="Grupo_85545" data-name="Grupo 85545" transform="translate(138.458 39.177)">
          <path id="Trazado_106499" data-name="Trazado 106499" d="M1768.045,932.825a1.063,1.063,0,1,0,.336,1.465A1.062,1.062,0,0,0,1768.045,932.825Z" transform="translate(-1765.979 -930.536)" fill="#1e243a"/>
          <path id="Trazado_106500" data-name="Trazado 106500" d="M1762.995,970.013a1.063,1.063,0,0,0,.352,2.066,1.064,1.064,0,0,0,1-1.415A1.061,1.061,0,0,0,1762.995,970.013Z" transform="translate(-1762.283 -963.863)" fill="#1e243a"/>
          <path id="Trazado_106501" data-name="Trazado 106501" d="M1833.889,926.753l.012.011a1.063,1.063,0,0,0,1.5-1.507l0,0-.008-.007a1.062,1.062,0,1,0-1.5,1.507Z" transform="translate(-1826.001 -923.63)" fill="#1e243a"/>
          <path id="Trazado_106502" data-name="Trazado 106502" d="M1826.62,992.369h0a1.063,1.063,0,0,0,.568,1.963,1.051,1.051,0,0,0,.565-.165,1.062,1.062,0,1,0-1.134-1.8Z" transform="translate(-1819.341 -983.751)" fill="#1e243a"/>
          <path id="Trazado_106503" data-name="Trazado 106503" d="M1847.239,960.433a1.062,1.062,0,1,0-.236,2.111.908.908,0,0,0,.119.007,1.063,1.063,0,0,0,.117-2.119Z" transform="translate(-1837.156 -955.349)" fill="#1e243a"/>
          <path id="Trazado_106504" data-name="Trazado 106504" d="M1799.078,912.651a1.062,1.062,0,0,0,.12,2.118,1.184,1.184,0,0,0,.122-.006,1.063,1.063,0,0,0-.242-2.111Z" transform="translate(-1794.326 -912.644)" fill="#1e243a"/>
          <path id="Trazado_106505" data-name="Trazado 106505" d="M1790.262,996.5a1.063,1.063,0,0,0-.7,2.007,1.074,1.074,0,0,0,.349.058,1.062,1.062,0,0,0,.35-2.066Z" transform="translate(-1786.027 -987.536)" fill="#1e243a"/>
        </g>
        <g id="Grupo_85546" data-name="Grupo 85546" transform="translate(153.015 24.62)">
          <path id="Trazado_106506" data-name="Trazado 106506" d="M1899.995,833.013a1.062,1.062,0,1,0,1.354.65A1.062,1.062,0,0,0,1899.995,833.013Z" transform="translate(-1899.283 -826.863)" fill="#1e243a"/>
          <path id="Trazado_106507" data-name="Trazado 106507" d="M1970.889,789.754l.012.011a1.063,1.063,0,0,0,1.5-1.507l-.012-.011a1.062,1.062,0,1,0-1.5,1.507Z" transform="translate(-1963.001 -786.631)" fill="#1e243a"/>
          <path id="Trazado_106508" data-name="Trazado 106508" d="M1905.045,795.825a1.062,1.062,0,0,0-1.464.336h0a1.062,1.062,0,1,0,1.464-.337Z" transform="translate(-1902.979 -793.535)" fill="#1e243a"/>
          <path id="Trazado_106509" data-name="Trazado 106509" d="M1984.239,823.433a1.062,1.062,0,1,0-.236,2.111,1.126,1.126,0,0,0,.119.007,1.063,1.063,0,0,0,.117-2.119Z" transform="translate(-1974.156 -818.349)" fill="#1e243a"/>
          <path id="Trazado_106510" data-name="Trazado 106510" d="M1963.62,855.369a1.063,1.063,0,0,0,.568,1.961,1.051,1.051,0,0,0,.565-.165,1.062,1.062,0,1,0-1.134-1.8Z" transform="translate(-1956.341 -846.751)" fill="#1e243a"/>
          <path id="Trazado_106511" data-name="Trazado 106511" d="M1936.076,775.651a1.062,1.062,0,0,0,.12,2.118,1.2,1.2,0,0,0,.122-.006,1.063,1.063,0,0,0-.242-2.111Z" transform="translate(-1931.325 -775.644)" fill="#1e243a"/>
          <path id="Trazado_106512" data-name="Trazado 106512" d="M1927.262,859.5a1.062,1.062,0,1,0-.7,2.007,1.064,1.064,0,0,0,1.353-.654A1.063,1.063,0,0,0,1927.262,859.5Z" transform="translate(-1923.027 -850.536)" fill="#1e243a"/>
        </g>
        <g id="Grupo_85547" data-name="Grupo 85547" transform="translate(6.703 4.006)">
          <path id="Trazado_106513" data-name="Trazado 106513" d="M528.043,601.827a1.063,1.063,0,1,0,.336,1.465A1.064,1.064,0,0,0,528.043,601.827Z" transform="translate(-525.976 -599.538)" fill="#1e243a"/>
          <path id="Trazado_106514" data-name="Trazado 106514" d="M550.262,665.5a1.063,1.063,0,0,0-.7,2.007,1.064,1.064,0,0,0,1.353-.654A1.063,1.063,0,0,0,550.262,665.5Z" transform="translate(-546.027 -656.536)" fill="#1e243a"/>
          <path id="Trazado_106515" data-name="Trazado 106515" d="M593.891,595.753l0,.005a1.063,1.063,0,0,0,1.5-1.5l0,0-.007-.008a1.063,1.063,0,1,0-1.5,1.508Z" transform="translate(-586 -592.629)" fill="#1e243a"/>
          <path id="Trazado_106516" data-name="Trazado 106516" d="M522.995,639.013a1.063,1.063,0,0,0,.352,2.066,1.074,1.074,0,0,0,.352-.061,1.062,1.062,0,0,0-.7-2.005Z" transform="translate(-522.283 -632.863)" fill="#1e243a"/>
          <path id="Trazado_106517" data-name="Trazado 106517" d="M559.078,581.651a1.062,1.062,0,0,0,.12,2.118,1.2,1.2,0,0,0,.122-.006,1.063,1.063,0,0,0-.242-2.111Z" transform="translate(-554.326 -581.644)" fill="#1e243a"/>
          <path id="Trazado_106518" data-name="Trazado 106518" d="M607.239,629.433a1.062,1.062,0,1,0-.236,2.111,1.131,1.131,0,0,0,.119.007,1.063,1.063,0,0,0,.117-2.119Z" transform="translate(-597.156 -624.349)" fill="#1e243a"/>
          <path id="Trazado_106519" data-name="Trazado 106519" d="M586.62,661.369a1.062,1.062,0,0,0,.568,1.96,1.04,1.04,0,0,0,.565-.164,1.062,1.062,0,1,0-1.134-1.8Z" transform="translate(-579.341 -652.751)" fill="#1e243a"/>
        </g>
        <g id="Grupo_85548" data-name="Grupo 85548" transform="translate(6.703 88.266)">
          <path id="Trazado_106520" data-name="Trazado 106520" d="M550.262,1458.5a1.063,1.063,0,0,0-.7,2.007,1.081,1.081,0,0,0,.349.058,1.062,1.062,0,0,0,.35-2.066Z" transform="translate(-546.027 -1449.536)" fill="#1e243a"/>
          <path id="Trazado_106521" data-name="Trazado 106521" d="M528.043,1394.827a1.063,1.063,0,1,0,.336,1.465A1.064,1.064,0,0,0,528.043,1394.827Z" transform="translate(-525.976 -1392.538)" fill="#1e243a"/>
          <path id="Trazado_106522" data-name="Trazado 106522" d="M522.995,1432.013a1.062,1.062,0,0,0-.651,1.354h0a1.063,1.063,0,1,0,.651-1.355Z" transform="translate(-522.283 -1425.863)" fill="#1e243a"/>
          <path id="Trazado_106523" data-name="Trazado 106523" d="M593.892,1388.755a.009.009,0,0,1,0,0,1.063,1.063,0,0,0,1.5-1.5l0,0-.007-.009a1.063,1.063,0,1,0-1.5,1.508S593.891,1388.754,593.892,1388.755Z" transform="translate(-586.001 -1385.629)" fill="#1e243a"/>
          <path id="Trazado_106524" data-name="Trazado 106524" d="M607.239,1422.433a1.062,1.062,0,1,0-.236,2.111,1.133,1.133,0,0,0,.12.007,1.063,1.063,0,0,0,.116-2.119Z" transform="translate(-597.156 -1417.349)" fill="#1e243a"/>
          <path id="Trazado_106525" data-name="Trazado 106525" d="M586.62,1454.369a1.063,1.063,0,0,0,.568,1.961,1.051,1.051,0,0,0,.565-.165,1.062,1.062,0,1,0-1.134-1.8Z" transform="translate(-579.341 -1445.751)" fill="#1e243a"/>
          <path id="Trazado_106526" data-name="Trazado 106526" d="M559.078,1374.651a1.062,1.062,0,0,0,.119,2.118,1.224,1.224,0,0,0,.123-.006,1.063,1.063,0,0,0-.242-2.111Z" transform="translate(-554.326 -1374.644)" fill="#1e243a"/>
        </g>
        <g id="Grupo_85549" data-name="Grupo 85549" transform="translate(22.003 115.255)">
          <path id="Trazado_106527" data-name="Trazado 106527" d="M666.995,1686.013a1.063,1.063,0,0,0,.352,2.066,1.074,1.074,0,0,0,.352-.061,1.062,1.062,0,0,0-.7-2.005Z" transform="translate(-666.283 -1679.863)" fill="#1e243a"/>
          <path id="Trazado_106528" data-name="Trazado 106528" d="M672.045,1648.827a1.063,1.063,0,1,0,.336,1.465A1.062,1.062,0,0,0,672.045,1648.827Z" transform="translate(-669.979 -1646.538)" fill="#1e243a"/>
          <path id="Trazado_106529" data-name="Trazado 106529" d="M694.262,1712.5a1.063,1.063,0,1,0-.7,2.007,1.076,1.076,0,0,0,.349.058,1.062,1.062,0,0,0,.35-2.065Z" transform="translate(-690.027 -1703.536)" fill="#1e243a"/>
          <path id="Trazado_106530" data-name="Trazado 106530" d="M730.62,1708.369a1.062,1.062,0,1,0,1.466.332A1.062,1.062,0,0,0,730.62,1708.369Z" transform="translate(-723.341 -1699.751)" fill="#1e243a"/>
          <path id="Trazado_106531" data-name="Trazado 106531" d="M751.239,1676.433a1.062,1.062,0,1,0-.236,2.111,1.131,1.131,0,0,0,.119.007,1.063,1.063,0,0,0,.117-2.119Z" transform="translate(-741.156 -1671.349)" fill="#1e243a"/>
          <path id="Trazado_106532" data-name="Trazado 106532" d="M703.078,1628.651a1.062,1.062,0,0,0,.12,2.118,1.186,1.186,0,0,0,.122-.006,1.063,1.063,0,0,0-.242-2.111Z" transform="translate(-698.326 -1628.644)" fill="#1e243a"/>
          <path id="Trazado_106533" data-name="Trazado 106533" d="M737.889,1642.752a0,0,0,0,0,0,0l0,.005a1.063,1.063,0,1,0,1.5-1.5l0,0-.007-.009a1.063,1.063,0,0,0-1.5,1.508Z" transform="translate(-730 -1639.63)" fill="#1e243a"/>
        </g>
        <g id="Grupo_85550" data-name="Grupo 85550" transform="translate(156.628 124.605)">
          <path id="Trazado_106534" data-name="Trazado 106534" d="M1939.045,1736.827a1.063,1.063,0,1,0,.336,1.465A1.063,1.063,0,0,0,1939.045,1736.827Z" transform="translate(-1936.979 -1734.538)" fill="#1e243a"/>
          <path id="Trazado_106535" data-name="Trazado 106535" d="M1933.995,1774.013a1.063,1.063,0,0,0,.352,2.066,1.074,1.074,0,0,0,.352-.061,1.062,1.062,0,0,0-.7-2.005Z" transform="translate(-1933.283 -1767.863)" fill="#1e243a"/>
          <path id="Trazado_106536" data-name="Trazado 106536" d="M2004.891,1730.756a.008.008,0,0,1,0,0l0,0a1.062,1.062,0,0,0,1.5-1.5l0,0a.007.007,0,0,1,0,0,.027.027,0,0,1-.007-.008,1.063,1.063,0,0,0-1.5,1.508Z" transform="translate(-1997 -1727.63)" fill="#1e243a"/>
          <path id="Trazado_106537" data-name="Trazado 106537" d="M1961.262,1800.5a1.062,1.062,0,1,0-.7,2.007,1.076,1.076,0,0,0,.349.058,1.062,1.062,0,0,0,.349-2.065Z" transform="translate(-1957.027 -1791.536)" fill="#1e243a"/>
          <path id="Trazado_106538" data-name="Trazado 106538" d="M2018.239,1764.433a1.062,1.062,0,1,0-.236,2.111,1.181,1.181,0,0,0,.12.007,1.063,1.063,0,0,0,1.054-.946h0A1.063,1.063,0,0,0,2018.239,1764.433Z" transform="translate(-2008.156 -1759.349)" fill="#1e243a"/>
          <path id="Trazado_106539" data-name="Trazado 106539" d="M1997.62,1796.369a1.062,1.062,0,0,0,.568,1.96,1.049,1.049,0,0,0,.565-.164,1.062,1.062,0,1,0-1.134-1.8Z" transform="translate(-1990.341 -1787.751)" fill="#1e243a"/>
          <path id="Trazado_106540" data-name="Trazado 106540" d="M1970.078,1716.651a1.062,1.062,0,0,0,.12,2.118,1.185,1.185,0,0,0,.122-.006,1.063,1.063,0,0,0-.242-2.111Z" transform="translate(-1965.326 -1716.644)" fill="#1e243a"/>
        </g>
        <g id="Grupo_85551" data-name="Grupo 85551" transform="translate(134.102 3.156)">
          <path id="Trazado_106541" data-name="Trazado 106541" d="M1749.262,657.5a1.063,1.063,0,0,0-.7,2.007,1.079,1.079,0,0,0,.349.058,1.062,1.062,0,0,0,.349-2.066Z" transform="translate(-1745.027 -648.536)" fill="#1e243a"/>
          <path id="Trazado_106542" data-name="Trazado 106542" d="M1721.994,631.013a1.062,1.062,0,0,0-.651,1.355h0a1.064,1.064,0,0,0,1,.712,1.075,1.075,0,0,0,.352-.061,1.062,1.062,0,0,0-.7-2.005Z" transform="translate(-1721.282 -624.863)" fill="#1e243a"/>
          <path id="Trazado_106543" data-name="Trazado 106543" d="M1727.045,593.827a1.063,1.063,0,1,0,.336,1.465A1.062,1.062,0,0,0,1727.045,593.827Z" transform="translate(-1724.979 -591.538)" fill="#1e243a"/>
          <path id="Trazado_106544" data-name="Trazado 106544" d="M1792.891,587.755l0,.005a1.063,1.063,0,1,0,1.5-1.5l-.012-.011h0a1.063,1.063,0,0,0-1.5,1.508Z" transform="translate(-1785 -584.63)" fill="#1e243a"/>
          <path id="Trazado_106545" data-name="Trazado 106545" d="M1806.239,621.433a1.062,1.062,0,1,0-.236,2.111.916.916,0,0,0,.119.007,1.063,1.063,0,0,0,1.055-.946h0A1.063,1.063,0,0,0,1806.239,621.433Z" transform="translate(-1796.156 -616.349)" fill="#1e243a"/>
          <path id="Trazado_106546" data-name="Trazado 106546" d="M1785.62,653.369a1.062,1.062,0,0,0,.568,1.96,1.05,1.05,0,0,0,.565-.164,1.062,1.062,0,1,0-1.134-1.8Z" transform="translate(-1778.341 -644.751)" fill="#1e243a"/>
          <path id="Trazado_106547" data-name="Trazado 106547" d="M1758.077,573.651a1.062,1.062,0,0,0,.12,2.118,1.208,1.208,0,0,0,.122-.006,1.063,1.063,0,0,0-.242-2.111Z" transform="translate(-1753.326 -573.644)" fill="#1e243a"/>
        </g>
        <g id="Grupo_85554" data-name="Grupo 85554" transform="translate(155.185 5.691)">
          <g id="Grupo_85552" data-name="Grupo 85552" transform="translate(2.497)">
            <path id="Trazado_106548" data-name="Trazado 106548" d="M1944,597.5a.8.8,0,0,0-.8.8v5.1a.8.8,0,0,0,1.594,0v-5.1A.8.8,0,0,0,1944,597.5Z" transform="translate(-1943.203 -597.5)" fill="#1e243a"/>
          </g>
          <g id="Grupo_85553" data-name="Grupo 85553" transform="translate(0 2.603)">
            <path id="Trazado_106549" data-name="Trazado 106549" d="M1925.6,622h-5.1a.8.8,0,0,0,0,1.594h5.1a.8.8,0,0,0,0-1.594Z" transform="translate(-1919.703 -622)" fill="#1e243a"/>
          </g>
        </g>
        <g id="Grupo_85557" data-name="Grupo 85557" transform="translate(3.985 121.615)">
          <g id="Grupo_85555" data-name="Grupo 85555" transform="translate(2.497)">
            <path id="Trazado_106550" data-name="Trazado 106550" d="M521,1688.5a.8.8,0,0,0-.8.8v5.1a.8.8,0,0,0,1.594,0v-5.1A.8.8,0,0,0,521,1688.5Z" transform="translate(-520.203 -1688.5)" fill="#1e243a"/>
          </g>
          <g id="Grupo_85556" data-name="Grupo 85556" transform="translate(0 2.603)">
            <path id="Trazado_106551" data-name="Trazado 106551" d="M502.6,1713h-5.1a.8.8,0,0,0,0,1.594h5.1a.8.8,0,0,0,0-1.594Z" transform="translate(-496.703 -1713)" fill="#1e243a"/>
          </g>
        </g>
        <g id="Grupo_85560" data-name="Grupo 85560" transform="translate(6.535 32.999)">
          <g id="Grupo_85558" data-name="Grupo 85558" transform="translate(2.497)">
            <path id="Trazado_106552" data-name="Trazado 106552" d="M545,854.5a.8.8,0,0,0-.8.8v5.1a.8.8,0,1,0,1.594,0v-5.1A.8.8,0,0,0,545,854.5Z" transform="translate(-544.203 -854.5)" fill="#1e243a"/>
          </g>
          <g id="Grupo_85559" data-name="Grupo 85559" transform="translate(0 2.603)">
            <path id="Trazado_106553" data-name="Trazado 106553" d="M526.6,879h-5.1a.8.8,0,1,0,0,1.594h5.1a.8.8,0,1,0,0-1.594Z" transform="translate(-520.703 -879)" fill="#1e243a"/>
          </g>
        </g>
        <g id="Grupo_85563" data-name="Grupo 85563" transform="translate(155.079 55.312)">
          <g id="Grupo_85561" data-name="Grupo 85561" transform="translate(2.497)">
            <path id="Trazado_106554" data-name="Trazado 106554" d="M1943,1064.5a.8.8,0,0,0-.8.8v5.1a.8.8,0,1,0,1.594,0v-5.1A.8.8,0,0,0,1943,1064.5Z" transform="translate(-1942.203 -1064.5)" fill="#1e243a"/>
          </g>
          <g id="Grupo_85562" data-name="Grupo 85562" transform="translate(0 2.603)">
            <path id="Trazado_106555" data-name="Trazado 106555" d="M1924.6,1089h-5.1a.8.8,0,0,0,0,1.594h5.1a.8.8,0,0,0,0-1.594Z" transform="translate(-1918.703 -1089)" fill="#1e243a"/>
          </g>
        </g>
        <g id="Grupo_85566" data-name="Grupo 85566" transform="translate(24.067 96.326)">
          <g id="Grupo_85564" data-name="Grupo 85564" transform="translate(2.497)">
            <path id="Trazado_106556" data-name="Trazado 106556" d="M710,1450.5a.8.8,0,0,0-.8.8v5.1a.8.8,0,0,0,1.594,0v-5.1A.8.8,0,0,0,710,1450.5Z" transform="translate(-709.203 -1450.5)" fill="#1e243a"/>
          </g>
          <g id="Grupo_85565" data-name="Grupo 85565" transform="translate(0 2.603)">
            <path id="Trazado_106557" data-name="Trazado 106557" d="M691.6,1475h-5.1a.8.8,0,0,0,0,1.594h5.1a.8.8,0,1,0,0-1.594Z" transform="translate(-685.703 -1475)" fill="#1e243a"/>
          </g>
        </g>
        <g id="Grupo_85593" data-name="Grupo 85593" transform="translate(45.052 8.879)">
          <g id="Grupo_85567" data-name="Grupo 85567" transform="translate(11.755 6.447)">
            <path id="Trazado_106558" data-name="Trazado 106558" d="M1005.893,688.177H994.63a.8.8,0,1,0,0,1.594h11.263a.8.8,0,0,0,0-1.594Z" transform="translate(-993.833 -688.177)" fill="#1e243a"/>
          </g>
          <g id="Grupo_85568" data-name="Grupo 85568" transform="translate(0 37.88)">
            <path id="Trazado_106559" data-name="Trazado 106559" d="M967.038,1056.838a.8.8,0,0,0-.8.8v11.907a3.592,3.592,0,0,1-3.587,3.588H888.384a3.592,3.592,0,0,1-3.587-3.588V984.8a.8.8,0,0,0-1.594,0v84.745a5.187,5.187,0,0,0,5.181,5.181h74.269a5.187,5.187,0,0,0,5.181-5.181v-11.907A.8.8,0,0,0,967.038,1056.838Z" transform="translate(-883.203 -984)" fill="#1e243a"/>
          </g>
          <g id="Grupo_85569" data-name="Grupo 85569" transform="translate(60.561 6.447)">
            <path id="Trazado_106560" data-name="Trazado 106560" d="M1472.056,688.177h-18.092a.8.8,0,1,0,0,1.594h18.092a3.591,3.591,0,0,1,3.588,3.588v46.865a.8.8,0,1,0,1.594,0V693.358A5.187,5.187,0,0,0,1472.056,688.177Z" transform="translate(-1453.167 -688.177)" fill="#1e243a"/>
          </g>
          <g id="Grupo_85570" data-name="Grupo 85570" transform="translate(12.251 15.834)">
            <path id="Trazado_106561" data-name="Trazado 106561" d="M1011.481,776.519H999.3a.8.8,0,1,0,0,1.594h12.184a.8.8,0,0,0,0-1.594Z" transform="translate(-998.5 -776.519)" fill="#1e243a"/>
          </g>
          <g id="Grupo_85571" data-name="Grupo 85571" transform="translate(7.835 29.574)">
            <path id="Trazado_106562" data-name="Trazado 106562" d="M1025.459,983.364a.8.8,0,0,0-.8.8V993.6H958.533V906.63a.8.8,0,0,0-1.594,0V994.4a.8.8,0,0,0,.8.8h67.723a.8.8,0,0,0,.8-.8V984.16A.8.8,0,0,0,1025.459,983.364Z" transform="translate(-956.939 -905.833)" fill="#1e243a"/>
          </g>
          <g id="Grupo_85572" data-name="Grupo 85572" transform="translate(59.286 15.834)">
            <path id="Trazado_106563" data-name="Trazado 106563" d="M1458.235,776.519h-16.271a.8.8,0,0,0,0,1.594h15.474v44.466a.8.8,0,1,0,1.594,0V777.316A.8.8,0,0,0,1458.235,776.519Z" transform="translate(-1441.167 -776.519)" fill="#1e243a"/>
          </g>
          <g id="Grupo_85573" data-name="Grupo 85573" transform="translate(23.243)">
            <path id="Trazado_106564" data-name="Trazado 106564" d="M1139.3,627.5H1102.75a.8.8,0,0,0-.8.8v10.614a10.808,10.808,0,0,0,10.8,10.8H1129.3a10.809,10.809,0,0,0,10.8-10.8V628.3A.8.8,0,0,0,1139.3,627.5Zm-.8,11.411a9.213,9.213,0,0,1-9.2,9.2h-16.553a9.213,9.213,0,0,1-9.2-9.2v-9.817H1138.5Z" transform="translate(-1101.953 -627.5)" fill="#1e243a"/>
          </g>
          <g id="Grupo_85576" data-name="Grupo 85576" transform="translate(27.6 4.303)">
            <g id="Grupo_85574" data-name="Grupo 85574">
              <path id="Trazado_106565" data-name="Trazado 106565" d="M1171.589,668H1143.75a.8.8,0,0,0,0,1.594h27.839a.8.8,0,0,0,0-1.594Z" transform="translate(-1142.953 -668)" fill="#1e243a"/>
            </g>
            <g id="Grupo_85575" data-name="Grupo 85575" transform="translate(5.1 8.182)">
              <path id="Trazado_106566" data-name="Trazado 106566" d="M1209.388,745H1191.75a.8.8,0,0,0,0,1.594h17.638a.8.8,0,0,0,0-1.594Z" transform="translate(-1190.953 -745)" fill="#1e243a"/>
            </g>
          </g>
          <g id="Grupo_85581" data-name="Grupo 85581" transform="translate(14.557 26.637)">
            <g id="Grupo_85577" data-name="Grupo 85577">
              <path id="Trazado_106567" data-name="Trazado 106567" d="M1033.963,878.193H1021a.8.8,0,0,0-.8.8v12.963a.8.8,0,0,0,.8.8h12.963a.8.8,0,0,0,.8-.8V878.99A.8.8,0,0,0,1033.963,878.193Zm-.8,12.963H1021.8V879.787h11.369Z" transform="translate(-1020.203 -878.193)" fill="#1e243a"/>
            </g>
            <g id="Grupo_85578" data-name="Grupo 85578" transform="translate(0 22.313)">
              <path id="Trazado_106568" data-name="Trazado 106568" d="M1033.963,1088.193H1021a.8.8,0,0,0-.8.8v12.963a.8.8,0,0,0,.8.8h12.963a.8.8,0,0,0,.8-.8V1088.99A.8.8,0,0,0,1033.963,1088.193Zm-.8,12.963H1021.8v-11.369h11.369Z" transform="translate(-1020.203 -1088.193)" fill="#1e243a"/>
            </g>
            <g id="Grupo_85579" data-name="Grupo 85579" transform="translate(0 44.627)">
              <path id="Trazado_106569" data-name="Trazado 106569" d="M1033.963,1298.193H1021a.8.8,0,0,0-.8.8v12.963a.8.8,0,0,0,.8.8h12.963a.8.8,0,0,0,.8-.8V1298.99A.8.8,0,0,0,1033.963,1298.193Zm-.8,12.963H1021.8v-11.369h11.369Z" transform="translate(-1020.203 -1298.193)" fill="#1e243a"/>
            </g>
            <g id="Grupo_85580" data-name="Grupo 85580" transform="translate(0 66.94)">
              <path id="Trazado_106570" data-name="Trazado 106570" d="M1033.963,1508.193H1021a.8.8,0,0,0-.8.8v12.963a.8.8,0,0,0,.8.8h12.963a.8.8,0,0,0,.8-.8V1508.99A.8.8,0,0,0,1033.963,1508.193Zm-.8,12.963H1021.8v-11.369h11.369Z" transform="translate(-1020.203 -1508.193)" fill="#1e243a"/>
            </g>
          </g>
          <g id="Grupo_85582" data-name="Grupo 85582" transform="translate(17.851 27.892)">
            <path id="Trazado_106571" data-name="Trazado 106571" d="M1063.535,890.042c-3.516,1.212-6.321,4.132-8.549,8.909l-2.367-2.919a.8.8,0,0,0-1.238,1l3.188,3.931a.8.8,0,0,0,.619.295.806.806,0,0,0,.113-.008.8.8,0,0,0,.622-.48c2.122-5.053,4.782-8.07,8.131-9.224a.8.8,0,0,0-.519-1.507Z" transform="translate(-1051.203 -889.998)" fill="#1e243a"/>
          </g>
          <g id="Grupo_85583" data-name="Grupo 85583" transform="translate(17.851 72.412)">
            <path id="Trazado_106572" data-name="Trazado 106572" d="M1063.535,1309.042c-3.516,1.212-6.321,4.131-8.549,8.909l-2.367-2.919a.8.8,0,0,0-1.238,1l3.188,3.931a.8.8,0,0,0,1.354-.193c2.122-5.053,4.782-8.07,8.131-9.224a.8.8,0,1,0-.519-1.507Z" transform="translate(-1051.203 -1308.998)" fill="#1e243a"/>
          </g>
          <g id="Grupo_85584" data-name="Grupo 85584" transform="translate(34.32 27.892)">
            <path id="Trazado_106573" data-name="Trazado 106573" d="M1232.5,890H1207a.8.8,0,1,0,0,1.594h25.5a.8.8,0,1,0,0-1.594Z" transform="translate(-1206.203 -890)" fill="#1e243a"/>
          </g>
          <g id="Grupo_85585" data-name="Grupo 85585" transform="translate(34.32 35.117)">
            <path id="Trazado_106574" data-name="Trazado 106574" d="M1219.75,958H1207a.8.8,0,1,0,0,1.594h12.75a.8.8,0,1,0,0-1.594Z" transform="translate(-1206.203 -958)" fill="#1e243a"/>
          </g>
          <g id="Grupo_85586" data-name="Grupo 85586" transform="translate(34.32 48.93)">
            <path id="Trazado_106575" data-name="Trazado 106575" d="M1232.5,1088H1207a.8.8,0,1,0,0,1.594h25.5a.8.8,0,1,0,0-1.594Z" transform="translate(-1206.203 -1088)" fill="#1e243a"/>
          </g>
          <g id="Grupo_85587" data-name="Grupo 85587" transform="translate(34.32 56.156)">
            <path id="Trazado_106576" data-name="Trazado 106576" d="M1219.75,1156H1207a.8.8,0,1,0,0,1.594h12.75a.8.8,0,1,0,0-1.594Z" transform="translate(-1206.203 -1156)" fill="#1e243a"/>
          </g>
          <g id="Grupo_85588" data-name="Grupo 85588" transform="translate(34.32 71.244)">
            <path id="Trazado_106577" data-name="Trazado 106577" d="M1232.5,1298H1207a.8.8,0,1,0,0,1.594h25.5a.8.8,0,1,0,0-1.594Z" transform="translate(-1206.203 -1298)" fill="#1e243a"/>
          </g>
          <g id="Grupo_85589" data-name="Grupo 85589" transform="translate(34.32 78.469)">
            <path id="Trazado_106578" data-name="Trazado 106578" d="M1219.75,1366H1207a.8.8,0,1,0,0,1.594h12.75a.8.8,0,1,0,0-1.594Z" transform="translate(-1206.203 -1366)" fill="#1e243a"/>
          </g>
          <g id="Grupo_85590" data-name="Grupo 85590" transform="translate(34.32 93.557)">
            <path id="Trazado_106579" data-name="Trazado 106579" d="M1232.5,1508H1207a.8.8,0,1,0,0,1.594h25.5a.8.8,0,1,0,0-1.594Z" transform="translate(-1206.203 -1508)" fill="#1e243a"/>
          </g>
          <g id="Grupo_85591" data-name="Grupo 85591" transform="translate(34.32 100.039)">
            <path id="Trazado_106580" data-name="Trazado 106580" d="M1219.75,1569H1207a.8.8,0,1,0,0,1.594h12.75a.8.8,0,1,0,0-1.594Z" transform="translate(-1206.203 -1569)" fill="#1e243a"/>
          </g>
          <g id="Grupo_85592" data-name="Grupo 85592" transform="translate(34.32 106.52)">
            <path id="Trazado_106581" data-name="Trazado 106581" d="M1225.488,1630H1207a.8.8,0,1,0,0,1.594h18.488a.8.8,0,0,0,0-1.594Z" transform="translate(-1206.203 -1630)" fill="#1e243a"/>
          </g>
        </g>
        <g id="Grupo_85594" data-name="Grupo 85594" transform="translate(0 80.547)">
          <path id="Trazado_106582" data-name="Trazado 106582" d="M466.694,1302H460a.8.8,0,0,0,0,1.594h6.694a.8.8,0,0,0,0-1.594Z" transform="translate(-459.203 -1302)" fill="#1e243a"/>
        </g>
        <g id="Grupo_85595" data-name="Grupo 85595" transform="translate(14.132 80.547)">
          <path id="Trazado_106583" data-name="Trazado 106583" d="M617.757,1302H593a.8.8,0,1,0,0,1.594h24.757a.8.8,0,1,0,0-1.594Z" transform="translate(-592.203 -1302)" fill="#1e243a"/>
        </g>
        <g id="Grupo_85596" data-name="Grupo 85596" transform="translate(16.044 135.906)">
          <path id="Trazado_106584" data-name="Trazado 106584" d="M625.026,1823H611a.8.8,0,1,0,0,1.594h14.026a.8.8,0,0,0,0-1.594Z" transform="translate(-610.203 -1823)" fill="#1e243a"/>
        </g>
        <g id="Grupo_85597" data-name="Grupo 85597" transform="translate(39.633 135.906)">
          <path id="Trazado_106585" data-name="Trazado 106585" d="M847.132,1823H833a.8.8,0,1,0,0,1.594h14.132a.8.8,0,1,0,0-1.594Z" transform="translate(-832.203 -1823)" fill="#1e243a"/>
        </g>
        <g id="Grupo_85598" data-name="Grupo 85598" transform="translate(122.522 135.906)">
          <path id="Trazado_106586" data-name="Trazado 106586" d="M1638.164,1823H1613.1a.8.8,0,0,0,0,1.594h25.066a.8.8,0,0,0,0-1.594Z" transform="translate(-1612.301 -1823)" fill="#1e243a"/>
        </g>
        <g id="Grupo_85608" data-name="Grupo 85608" transform="translate(9.097 0)">
          <g id="Grupo_85603" data-name="Grupo 85603">
            <g id="Grupo_85599" data-name="Grupo 85599" transform="translate(10.058 7.373)">
              <path id="Trazado_106587" data-name="Trazado 106587" d="M676.56,633.643q-.16-.061-.326-.113,0-.2-.011-.409.161-.062.317-.132a6.056,6.056,0,1,0-4.984-11.038q-.142.064-.282.136-.138-.133-.279-.263.063-.144.119-.289a6.056,6.056,0,0,0-11.324-4.3q-.055.145-.1.295-.212,0-.422.013-.057-.146-.121-.288a6.056,6.056,0,0,0-11.041,4.979q.07.156.151.309-.128.134-.253.271-.158-.071-.319-.132a6.056,6.056,0,1,0-4.3,11.324q.18.068.367.125,0,.191.013.381-.183.069-.36.148a6.056,6.056,0,0,0,4.985,11.038q.19-.086.377-.187.113.108.229.215-.089.192-.163.388a6.056,6.056,0,1,0,11.324,4.3q.074-.2.135-.4.176,0,.353-.01.073.2.159.389a6.056,6.056,0,1,0,11.04-4.979q-.079-.176-.172-.349.119-.123.235-.248.178.081.358.15h0a6.056,6.056,0,1,0,4.3-11.324Zm2.023,7.245a4.467,4.467,0,0,1-5.755,2.589,4.513,4.513,0,0,1-.7-.338.8.8,0,0,0-1.012.167c-.317.37-.654.726-1,1.059a.8.8,0,0,0-.109,1.025,4.462,4.462,0,1,1-8.014,3.59.8.8,0,0,0-.837-.6,14.61,14.61,0,0,1-1.474.043.8.8,0,0,0-.8.652,4.508,4.508,0,0,1-.216.776,4.462,4.462,0,0,1-8.343-3.166,4.507,4.507,0,0,1,.353-.724.8.8,0,0,0-.167-1.018c-.365-.31-.718-.641-1.05-.985a.8.8,0,0,0-1.025-.1,4.462,4.462,0,1,1-3.635-7.994.8.8,0,0,0,.6-.84,14.676,14.676,0,0,1-.051-1.493.8.8,0,0,0-.646-.8,4.505,4.505,0,0,1-.747-.211,4.462,4.462,0,0,1,3.166-8.343,4.516,4.516,0,0,1,.672.322.8.8,0,0,0,1.011-.174,14.6,14.6,0,0,1,1.008-1.078.8.8,0,0,0,.109-1.016,4.52,4.52,0,0,1-.36-.647,4.462,4.462,0,0,1,8.135-3.669,4.532,4.532,0,0,1,.241.676.8.8,0,0,0,.837.586,14.7,14.7,0,0,1,1.516-.048.794.794,0,0,0,.8-.636,4.512,4.512,0,0,1,.2-.687,4.462,4.462,0,0,1,8.343,3.166,4.492,4.492,0,0,1-.307.647.8.8,0,0,0,.174,1,14.635,14.635,0,0,1,1.078,1.017.8.8,0,0,0,1.015.114,4.461,4.461,0,0,1,6.531,1.883,4.462,4.462,0,0,1-2.23,5.9,4.529,4.529,0,0,1-.7.247.8.8,0,0,0-.59.834,14.6,14.6,0,0,1,.042,1.511.8.8,0,0,0,.641.8,4.514,4.514,0,0,1,.716.2,4.462,4.462,0,0,1,2.589,5.755Z" transform="translate(-639.473 -613.328)" fill="#1e243a"/>
            </g>
            <g id="Grupo_85600" data-name="Grupo 85600" transform="translate(22.421 19.736)">
              <path id="Trazado_106588" data-name="Trazado 106588" d="M766.844,730.21a8.132,8.132,0,1,0,4.718,10.488A8.079,8.079,0,0,0,766.844,730.21Zm3.228,9.922a6.546,6.546,0,1,1-3.793-8.432A6.494,6.494,0,0,1,770.071,740.132Z" transform="translate(-755.823 -729.677)" fill="#1e243a"/>
            </g>
            <g id="Grupo_85601" data-name="Grupo 85601" transform="translate(0 37.813)">
              <path id="Trazado_106589" data-name="Trazado 106589" d="M581,909.058a.8.8,0,0,0-1.028.462l-12.4,32.672-3.727-19.873a.8.8,0,0,0-1.269-.485L546.494,934.2l12.642-33.315a.8.8,0,0,0-1.49-.565l-12.712,33.5a1.793,1.793,0,0,0,1.04,2.313.8.8,0,0,0,.769-.113l15.775-12.133,3.658,19.5a.8.8,0,0,0,.5.6,1.793,1.793,0,0,0,2.313-1.041l12.47-32.865A.8.8,0,0,0,581,909.058Z" transform="translate(-544.816 -899.807)" fill="#1e243a"/>
            </g>
            <g id="Grupo_85602" data-name="Grupo 85602" transform="translate(24.169)">
              <path id="Trazado_106590" data-name="Trazado 106590" d="M795.612,550.007l-15.169-5.756a4.752,4.752,0,0,0-6.129,2.757l-1.988,5.238a.8.8,0,0,0,1.49.565l1.988-5.238a3.158,3.158,0,0,1,4.073-1.832l15.169,5.756a3.158,3.158,0,0,1,1.832,4.073l-1.8,4.738a.8.8,0,1,0,1.49.565l1.8-4.738a4.752,4.752,0,0,0-2.757-6.129Z" transform="translate(-772.274 -543.94)" fill="#1e243a"/>
            </g>
          </g>
          <g id="Grupo_85604" data-name="Grupo 85604" transform="translate(22.354 56.233)">
            <path id="Trazado_106591" data-name="Trazado 106591" d="M761.992,1073.218a.8.8,0,0,0-1.028.463l-5.712,15.07a.8.8,0,1,0,1.49.565l5.712-15.07A.8.8,0,0,0,761.992,1073.218Z" transform="translate(-755.201 -1073.166)" fill="#1e243a"/>
          </g>
          <g id="Grupo_85605" data-name="Grupo 85605" transform="translate(29.87 48.033)">
            <path id="Trazado_106592" data-name="Trazado 106592" d="M828.317,996.05a.8.8,0,0,0-1.028.463l-1.3,3.439a.8.8,0,1,0,1.49.565l1.3-3.439A.8.8,0,0,0,828.317,996.05Z" transform="translate(-825.934 -995.998)" fill="#1e243a"/>
          </g>
          <g id="Grupo_85606" data-name="Grupo 85606" transform="translate(5.354 50.176)">
            <path id="Trazado_106593" data-name="Trazado 106593" d="M601.992,1016.218a.8.8,0,0,0-1.028.463l-5.712,15.07a.8.8,0,1,0,1.49.565l5.712-15.07A.8.8,0,0,0,601.992,1016.218Z" transform="translate(-595.201 -1016.166)" fill="#1e243a"/>
          </g>
          <g id="Grupo_85607" data-name="Grupo 85607" transform="translate(12.869 41.977)">
            <path id="Trazado_106594" data-name="Trazado 106594" d="M668.317,939.05a.8.8,0,0,0-1.028.463l-1.3,3.439a.8.8,0,1,0,1.49.565l1.3-3.439A.8.8,0,0,0,668.317,939.05Z" transform="translate(-665.934 -938.998)" fill="#1e243a"/>
          </g>
        </g>
        <g id="Grupo_85618" data-name="Grupo 85618" transform="translate(105.086 62.059)">
          <g id="Grupo_85609" data-name="Grupo 85609" transform="translate(4.038 4.038)">
            <path id="Trazado_106595" data-name="Trazado 106595" d="M1513.989,1166a27.786,27.786,0,1,0,19.647,8.138A27.6,27.6,0,0,0,1513.989,1166Zm0,53.977a26.192,26.192,0,1,1,26.192-26.192A26.221,26.221,0,0,1,1513.989,1219.977Z" transform="translate(-1486.203 -1166)" fill="#1e243a"/>
          </g>
          <g id="Grupo_85610" data-name="Grupo 85610" transform="translate(8.713 8.713)">
            <path id="Trazado_106596" data-name="Trazado 106596" d="M1553.313,1210a23.11,23.11,0,1,0,16.342,6.769A22.959,22.959,0,0,0,1553.313,1210Zm0,44.627a21.517,21.517,0,1,1,21.517-21.517A21.541,21.541,0,0,1,1553.313,1254.627Z" transform="translate(-1530.203 -1210)" fill="#1e243a"/>
          </g>
          <g id="Grupo_85611" data-name="Grupo 85611" transform="translate(13.972 13.972)">
            <path id="Trazado_106597" data-name="Trazado 106597" d="M1597.554,1259.5a17.851,17.851,0,1,0,17.851,17.851A17.871,17.871,0,0,0,1597.554,1259.5Zm0,34.108a16.257,16.257,0,1,1,16.257-16.257A16.276,16.276,0,0,1,1597.554,1293.608Z" transform="translate(-1579.703 -1259.5)" fill="#1e243a"/>
          </g>
          <g id="Grupo_85612" data-name="Grupo 85612" transform="translate(19.02 19.02)">
            <path id="Trazado_106598" data-name="Trazado 106598" d="M1640.007,1307a12.8,12.8,0,1,0,12.8,12.8A12.818,12.818,0,0,0,1640.007,1307Zm0,24.013a11.21,11.21,0,1,1,11.21-11.21A11.222,11.222,0,0,1,1640.007,1331.013Z" transform="translate(-1627.203 -1307)" fill="#1e243a"/>
          </g>
          <g id="Grupo_85613" data-name="Grupo 85613" transform="translate(25.235 25.235)">
            <path id="Trazado_106599" data-name="Trazado 106599" d="M1692.291,1365.5a6.588,6.588,0,1,0,6.588,6.588A6.6,6.6,0,0,0,1692.291,1365.5Zm0,11.582a4.994,4.994,0,1,1,4.994-4.994A5,5,0,0,1,1692.291,1377.082Z" transform="translate(-1685.703 -1365.5)" fill="#1e243a"/>
          </g>
          <g id="Grupo_85614" data-name="Grupo 85614" transform="translate(31.026)">
            <path id="Trazado_106600" data-name="Trazado 106600" d="M1741,1128a.8.8,0,0,0-.8.8v11.9a.8.8,0,0,0,1.594,0v-11.9A.8.8,0,0,0,1741,1128Z" transform="translate(-1740.203 -1128)" fill="#1e243a"/>
          </g>
          <g id="Grupo_85615" data-name="Grupo 85615" transform="translate(31.026 50.152)">
            <path id="Trazado_106601" data-name="Trazado 106601" d="M1741,1600a.8.8,0,0,0-.8.8v11.9a.8.8,0,0,0,1.594,0v-11.9A.8.8,0,0,0,1741,1600Z" transform="translate(-1740.203 -1600)" fill="#1e243a"/>
          </g>
          <g id="Grupo_85616" data-name="Grupo 85616" transform="translate(50.152 31.026)">
            <path id="Trazado_106602" data-name="Trazado 106602" d="M1932.9,1420H1921a.8.8,0,0,0,0,1.594h11.9a.8.8,0,0,0,0-1.594Z" transform="translate(-1920.203 -1420)" fill="#1e243a"/>
          </g>
          <g id="Grupo_85617" data-name="Grupo 85617" transform="translate(0 31.026)">
            <path id="Trazado_106603" data-name="Trazado 106603" d="M1460.9,1420H1449a.8.8,0,1,0,0,1.594h11.9a.8.8,0,0,0,0-1.594Z" transform="translate(-1448.203 -1420)" fill="#1e243a"/>
          </g>
        </g>
        <g id="Grupo_85619" data-name="Grupo 85619" transform="translate(131.968 17.857)">
          <path id="Trazado_106604" data-name="Trazado 106604" d="M1702,712a.8.8,0,0,0-.8.8v11.582a.8.8,0,0,0,1.594,0V712.8A.8.8,0,0,0,1702,712Z" transform="translate(-1701.203 -712)" fill="#1e243a"/>
        </g>
        <g id="Grupo_85620" data-name="Grupo 85620" transform="translate(131.968 38.471)">
          <path id="Trazado_106605" data-name="Trazado 106605" d="M1702,906a.8.8,0,0,0-.8.8v25.289a.8.8,0,0,0,1.594,0V906.8A.8.8,0,0,0,1702,906Z" transform="translate(-1701.203 -906)" fill="#1e243a"/>
        </g>
        <g id="Grupo_85621" data-name="Grupo 85621" transform="translate(38.889 86.179)">
          <path id="Trazado_106606" data-name="Trazado 106606" d="M826,1355a.8.8,0,0,0-.8.8v8.288a.8.8,0,0,0,1.594,0V1355.8A.8.8,0,0,0,826,1355Z" transform="translate(-825.203 -1355)" fill="#1e243a"/>
        </g>
        <g id="Grupo_85622" data-name="Grupo 85622" transform="translate(38.889 105.092)">
          <path id="Trazado_106607" data-name="Trazado 106607" d="M826,1533a.8.8,0,0,0-.8.8v26.67a.8.8,0,0,0,1.594,0V1533.8A.8.8,0,0,0,826,1533Z" transform="translate(-825.203 -1533)" fill="#1e243a"/>
        </g>
      </g>
    </g>
  </g>
</svg>
