<svg xmlns="http://www.w3.org/2000/svg" xmlns:xlink="http://www.w3.org/1999/xlink" width="399" height="472" viewBox="0 0 399 472">
  <defs>
    <linearGradient id="linear-gradient" x1="0.846" y1="0.62" x2="0.328" y2="0.409" gradientUnits="objectBoundingBox">
      <stop offset="0" stop-color="#fdc597"/>
      <stop offset="0.466" stop-color="#fdc89b"/>
      <stop offset="0.985" stop-color="#ffd3a9"/>
    </linearGradient>
    <linearGradient id="linear-gradient-2" x1="0.504" y1="0.98" x2="0.501" y2="0.489" gradientUnits="objectBoundingBox">
      <stop offset="0" stop-color="#df2d5e"/>
      <stop offset="1" stop-color="#be264d"/>
    </linearGradient>
    <linearGradient id="linear-gradient-3" x1="0" y1="0.5" x2="1" y2="0.5" xlink:href="#linear-gradient"/>
    <linearGradient id="linear-gradient-4" x1="-0.422" y1="0.5" x2="0.578" y2="0.5" gradientUnits="objectBoundingBox">
      <stop offset="0.158" stop-color="#e24775"/>
      <stop offset="0.405" stop-color="#e03e6d"/>
      <stop offset="1" stop-color="#df2d5e"/>
    </linearGradient>
    <linearGradient id="linear-gradient-5" x1="0.541" y1="0.652" x2="0.67" y2="1.528" xlink:href="#linear-gradient-2"/>
    <linearGradient id="linear-gradient-6" x1="0.58" y1="0.334" x2="-0.094" y2="1.593" xlink:href="#linear-gradient-2"/>
    <linearGradient id="linear-gradient-7" x1="1.12" y1="0.608" x2="0.493" y2="0.5" xlink:href="#linear-gradient"/>
    <linearGradient id="linear-gradient-8" x1="-0.183" y1="0.5" x2="0.817" y2="0.5" xlink:href="#linear-gradient"/>
    <linearGradient id="linear-gradient-9" x1="0.355" y1="0.936" x2="0.448" y2="0.674" xlink:href="#linear-gradient"/>
  </defs>
  <g id="Grupo_87744" data-name="Grupo 87744" transform="translate(-181 -29803)">
    <rect id="Rectángulo_33945" data-name="Rectángulo 33945" width="399" height="472" transform="translate(181 29803)" fill="#91dcff"/>
    <g id="Grupo_85725" data-name="Grupo 85725" transform="translate(82.233 29821.592)">
      <g id="Grupo_85712" data-name="Grupo 85712" transform="translate(335.237 179.333)">
        <path id="Trazado_107165" data-name="Trazado 107165" d="M753.576,515.059c14.394-15.368,13.07-33.533.9-39.483s-25.864-4.1-25.864-4.1l-14.737,14.383s-5.493,21.214,2.2,32.856S739.184,530.426,753.576,515.059Z" transform="translate(-711.978 -471.206)" fill="#2e1c17"/>
        <path id="Trazado_107166" data-name="Trazado 107166" d="M756.275,519.448c14.394-15.368,13.07-33.533.9-39.483s-19.3,2.747-19.3,2.747L722.313,498.1s-11.23,13.365-3.532,25.007S741.883,534.815,756.275,519.448Z" transform="translate(-714.677 -475.594)" fill="#46281f"/>
        <path id="Trazado_107167" data-name="Trazado 107167" d="M806.315,488.254a16.516,16.516,0,0,0-1.919-1.443c-13.847,11.31-25,29.643-15.6,41.8,1.2,1.354,2.247,3.031,3.486,4.58a39.227,39.227,0,0,0,4-2.782,20.133,20.133,0,0,1-6.4-13.081C788.961,507.147,796.02,495.531,806.315,488.254Z" transform="translate(-760.179 -481.462)" fill="#382018"/>
        <path id="Trazado_107168" data-name="Trazado 107168" d="M761.627,474.854c-.815-.21-1.617-.386-2.414-.547-17.052,11.021-25.81,32.828-24.7,50.649a16.955,16.955,0,0,0,11.04,4.1,19.671,19.671,0,0,1-3.463-11.066C742.547,503.616,748.382,485.376,761.627,474.854Z" transform="translate(-726.728 -473.244)" fill="#382018"/>
        <path id="Trazado_107169" data-name="Trazado 107169" d="M773.732,537.7q1.121-3.677,2.244-7.352a17.363,17.363,0,0,0,.222,7.473c.75-5.318,1.508-10.677,3.285-15.745a26.078,26.078,0,0,0-2.7,3.383q.771-3.527,1.543-7.056A24.636,24.636,0,0,0,773.732,537.7Z" transform="translate(-752.298 -502.228)" fill="#553026"/>
        <path id="Trazado_107170" data-name="Trazado 107170" d="M839.643,552.693a18.743,18.743,0,0,0,5.878-13.063l-1.969,3a6.132,6.132,0,0,0-1.012-4.2A28.888,28.888,0,0,1,839.7,548.9a13.393,13.393,0,0,0,2.757-3.783C842.66,547.854,841.122,550.382,839.643,552.693Z" transform="translate(-795.885 -515.394)" fill="#553026"/>
        <path id="Trazado_107171" data-name="Trazado 107171" d="M795.356,496.267c-5.872,8.024-9.86,18.368-5.576,28.048a22.983,22.983,0,0,0,2.423,4.218c.266.365,2.192,3,2.542,2.745a23.283,23.283,0,0,1-5.718-19c.957-5.906,4.01-11.543,7.5-16.307a51.728,51.728,0,0,1,8.355-8.919c-.276-.2-.2-.155-.461-.044a3.1,3.1,0,0,0-.594.466q-.635.5-1.251,1.034c-.856.735-1.682,1.505-2.481,2.3a47.552,47.552,0,0,0-4.735,5.459C793.31,499.064,797.417,493.478,795.356,496.267Zm-2.86,1.188a42.844,42.844,0,0,0-6.274,11.991,22.535,22.535,0,0,0,.981,16.672,22.861,22.861,0,0,0,2.513,4.1c.288.374,2.224,2.926,2.583,2.706a23.309,23.309,0,0,1-5.984-20.282c1.288-6.474,4.871-12.57,9-17.617a49.683,49.683,0,0,1,8.819-8.469c-.435-.276-2.237,1.376-2.679,1.717q-1.65,1.278-3.173,2.707a48.067,48.067,0,0,0-5.785,6.475C790.45,500.25,794.557,494.665,792.5,497.455Z" transform="translate(-760.023 -481.275)" fill="#2e1c17"/>
      </g>
      <g id="Grupo_85713" data-name="Grupo 85713" transform="translate(202.092 191.663)">
        <path id="Trazado_107172" data-name="Trazado 107172" d="M589.068,614.966s3.559-3.259,24.843-2.741,29.881,2.741,29.881,2.741a250.146,250.146,0,0,1-20.5,22.247c-10.562,9.892-22.615,17.925-22.985,17.7s-5.718-8.986-9.518-19.933A39.719,39.719,0,0,1,589.068,614.966Z" transform="translate(-497.679 -576.184)" fill="#8d1f38"/>
        <path id="Trazado_107173" data-name="Trazado 107173" d="M392.084,652.408s-14.926,6.844-19.556,11.112-6.067,6.546-24.282,39.483c-5.2,9.411-26.37,50.093-24.623,53.086,6.339,10.868,19.815,20.48,24.982,15.549s26.016-46.565,31.754-55.8C421.564,649.548,391.7,662.314,392.084,652.408Z" transform="translate(-323.52 -602.63)" fill="url(#linear-gradient)"/>
        <path id="Trazado_107174" data-name="Trazado 107174" d="M410.169,651.512c-4.857,4.973-20.023,19.276-23.017,23.766-2.9,4.354-12.339,13.24-12.339,13.24s15.957,22.316,39.411,26.558c2.739-30.5,19.414-72.3,19.414-72.3S417.071,644.447,410.169,651.512Z" transform="translate(-357.232 -596.299)" fill="#df2d5e"/>
        <path id="Trazado_107175" data-name="Trazado 107175" d="M468.932,775.768a47.086,47.086,0,0,1-10.88-3.444c7.586-11.558,12.745-24.438,18.054-37.207C473.058,748.022,470.087,762.9,468.932,775.768Z" transform="translate(-411.941 -656.99)" fill="#be264d"/>
        <path id="Trazado_107176" data-name="Trazado 107176" d="M558.426,551.214c6.1-2.568,11.873-8.921,13.512-10.82,2.315-2.679,3.44-22.353,3.44-22.353l28.809-10.862s.655,34.716,5.716,38.783c2.419,1.943,22.123,8.534,22.123,8.534s-25.452,35.016-50.916,38.276c-16.356,2.094-34-38.942-34-38.942S554.544,552.848,558.426,551.214Z" transform="translate(-470.473 -507.179)" fill="#ffd3a9"/>
        <path id="Trazado_107177" data-name="Trazado 107177" d="M620.942,556.239c-1.985-.234-3.977-.409-5.969-.574-1.552-.129-4.188.125-5.679-.451,1.818.25,1.768.231-.17-.058.051.022.115.037.17.058l-2-.278c-.459-.063-.919-.125-1.379-.183-.955-.122-1.909-.237-2.866-.323a30.7,30.7,0,0,0-6.214.011c-2.653.3-6.383,3.864-8.836,4.873-1.461.6-4.538-1.127-4.538-1.127-.351-.006-13.738-2.35-18.319-3.157q-4.933-.869-9.886-1.639a44.943,44.943,0,0,0,8.525-2.177c6.1-2.568,11.873-8.921,13.512-10.82,2.315-2.679,3.44-22.353,3.44-22.353l28.809-10.862s.655,34.716,5.716,38.783c2.419,1.943,22.123,8.534,22.123,8.534s-1.2,1.647-3.33,4.256A66.239,66.239,0,0,0,620.942,556.239Z" transform="translate(-475.826 -507.179)" fill="#fdc597"/>
        <path id="Trazado_107178" data-name="Trazado 107178" d="M622.958,537.357c1.523-6.3,2.268-19.316,2.268-19.316l28.809-10.862s.977,15.291,1.744,25.19C655.957,534.679,622.437,549.657,622.958,537.357Z" transform="translate(-520.32 -507.179)" fill="#f0a576"/>
        <path id="Trazado_107179" data-name="Trazado 107179" d="M654.077,619.162c2.246-4.49,1.034-9.069,1.034-14.307-2.245,5.988-2.994,12.725-5.239,18.713,12.369-6.431,26.046-3.055,39.518-1.971.12-.328.18-.507.18-.507S660.337,617.284,654.077,619.162Z" transform="translate(-538.013 -571.375)" fill="#f0a576"/>
        <path id="Trazado_107180" data-name="Trazado 107180" d="M483.32,767.567c-.539,2.078-6.917,19.208-8.223,22.991-1.861,5.39-3.817,11.417-5.625,17.805-2.711,9.577-4.563,21.786-5.68,34.836H610.321a279.358,279.358,0,0,0-7.12-34.836c-5.614-19.836-10.285-36.322-11.476-40.92-3.494-13.473-1.777-24.765.5-38.424,1.247-7.486,4.055-23.885,1.247-32.437-3.633-11.063-2.619-21.8-4.741-33.435-2.855-15.656,3.806-32-2.37-33.31s-24.532-9.507-24.532-9.507l-43.476,36.332a145.316,145.316,0,0,1-8.483-19.589,55.408,55.408,0,0,1-2.765-16.743l-23.669,9.32s-4.12,17.842-6.975,33.5c-2.122,11.632-5.077,23.038-5.937,27.789-6.549,36.21,9.919,46,11.416,50.06A41.431,41.431,0,0,1,483.32,767.567Z" transform="translate(-415.713 -581.546)" fill="#df2d5e"/>
        <path id="Trazado_107181" data-name="Trazado 107181" d="M599.987,845.563h-106.6c-.509-1.827-1.053-3.31-1.46-4.411-1.24-3.36-12.739-10.671-12.934-33.654,3.808,5.207,3.255,9.464,13.21,13.824s64.484,3.362,76.252-.167c12.966-3.457,24.449-36.21,28-48.437,2.229,8.805,6.948,49.3,5.755,56.458C601.254,834.946,600.4,840.293,599.987,845.563Z" transform="translate(-425.707 -681.703)" fill="#be264d"/>
        <path id="Trazado_107182" data-name="Trazado 107182" d="M559.376,854.834c19.56,3.108,49.158,37.215,49.158,37.215-3.408-12.061-5.977-21.209-6.817-24.451-3.494-13.473,5.409-52.332,7.684-65.992,1.193-7.158-10.711-20.084-12.94-28.89-3.554,12.227-7.974,54.315-20.94,57.772-11.768,3.53-73.3,3.35-83.252-1.009S482.8,812.705,479,807.5c.2,22.982,11.694,30.294,12.934,33.654a41.432,41.432,0,0,1,1.382,26.572c-.633,2.445,11.354-5.593,22.1-11.221C525.794,850.775,539.816,851.726,559.376,854.834Z" transform="translate(-425.707 -681.703)" fill="url(#linear-gradient-2)"/>
        <path id="Trazado_107183" data-name="Trazado 107183" d="M676.958,631.133l-2.894-1.2c-7.03,15.556-42.885,37-51.1,42.773C657.009,657.358,673.393,637.872,676.958,631.133Z" transform="translate(-520.332 -587.857)" fill="#8d1f38"/>
        <path id="Trazado_107184" data-name="Trazado 107184" d="M559.483,630.691l2.156-.761c4.289,17.853,6.606,29.451,14.965,40.553C562.006,654.775,563.049,637.43,559.483,630.691Z" transform="translate(-478.606 -587.857)" fill="#8d1f38"/>
        <path id="Trazado_107185" data-name="Trazado 107185" d="M814.772,665.849s12-9.525,18.24-8.707,30.326,28.286,36.637,36.582c8.77,11.527,33.074,52.912,33.074,62.666,0,4.721-31.614,9.491-31.614,9.491s-3.04-16.316-29.6-47.02C832.729,708.717,814.772,665.849,814.772,665.849Z" transform="translate(-646.393 -605.708)" fill="url(#linear-gradient-3)"/>
        <path id="Trazado_107186" data-name="Trazado 107186" d="M816.278,638.593c6.342,2.848,15.4,15.937,18.625,20.053s21.808,24.992,21.808,24.992-16.6,19.584-42.83,29.958c-7.444-5.3-18.49-22.614-23.84-33.3-9.919-19.813-7.019-45.514-7.019-45.514S807.268,634.548,816.278,638.593Z" transform="translate(-625.265 -591.043)" fill="#df2d5e"/>
        <path id="Trazado_107187" data-name="Trazado 107187" d="M576.55,729.545c-11.36-2.576-30.086,12.478-43.934,5.535s-17.96-19.105-26.223-11.366-20.017,47.719-6.795,56.757,55.035,4.791,71.194,0S599.013,734.638,576.55,729.545Z" transform="translate(-435.332 -647.86)" fill="url(#linear-gradient-4)"/>
      </g>
      <g id="Grupo_85714" data-name="Grupo 85714" transform="translate(321.543 394.676)">
        <path id="Trazado_107188" data-name="Trazado 107188" d="M672.985,1102.828c.982-.235,48.179-2.43,48.179-2.43l4.944,41.114s-10.681,8.818-22.421,9.672c-12.2.887-23.508-7.128-24.715-8.608S672.985,1102.828,672.985,1102.828Z" transform="translate(-672.656 -1100.083)" fill="url(#linear-gradient-5)"/>
        <path id="Trazado_107189" data-name="Trazado 107189" d="M677.306,1144.02c-1.229-1.508-4.846-37.651-5.254-41.767l-.026-.265.258-.061c.981-.235,43.4-2.213,48.236-2.438l.282-.012,4.994,41.53-.091.1c-.1.117-10.6,11.727-22.333,12.58q-.461.033-.923.048C690.529,1154.128,678.543,1145.537,677.306,1144.02Zm42.959-43.911c-15.639.729-44.415,2.1-47.578,2.38,1.593,16.028,5.854,39.3,6.7,40.443,1.241,1.519,12.385,8.142,24.378,7.252,10.9-.792,20.339-8.242,21.392-9.379Z" transform="translate(-672.026 -1099.477)" fill="#8d1f38"/>
      </g>
      <g id="Grupo_85715" data-name="Grupo 85715" transform="translate(251.264 393.703)">
        <path id="Trazado_107190" data-name="Trazado 107190" d="M474.7,1096.638c8.706.94,19.916,2.173,20.286,2.328,0,0-5.057,39.951-5.917,41.4s-8.933,7.347-16.62,6.212a14.254,14.254,0,0,1-5.447-2.167C466.778,1128.1,468.983,1111.947,474.7,1096.638Z" transform="translate(-466.982 -1096.638)" fill="#8d1f38"/>
        <path id="Trazado_107191" data-name="Trazado 107191" d="M474.7,1096.638c8.706.94,18.392,2.427,18.762,2.582,0,0-4.691,36.643-5.551,38.094s-6.307,11.1-20.91,7.1C466.778,1128.1,468.983,1111.947,474.7,1096.638Z" transform="translate(-466.982 -1096.638)" fill="url(#linear-gradient-6)"/>
      </g>
      <g id="Grupo_85716" data-name="Grupo 85716" transform="translate(347.745 331.85)">
        <path id="Trazado_107192" data-name="Trazado 107192" d="M881.573,1177.274c-2.9,3.968-15.67,9.676-24.065,10.492-7.908.768-12.544-1.415-12.544-1.415-2.532-.427-3.548-11.456-4.5-13.98s-1.794-12.981.317-12.934,13.713,4.343,18.906,6.856,7.769-1.245,9.205-5.622C870.75,1155,883.911,1174.073,881.573,1177.274Z" transform="translate(-808.275 -1076.06)" fill="url(#linear-gradient-7)"/>
        <path id="Trazado_107193" data-name="Trazado 107193" d="M910.958,1006.842c3.929-.715,19.512-67.937,21.721-70.677,6.648-8.25,17.454-26.618,28.327-17.511,8.166,6.839.127,37.964-5.406,49.35-1.634,3.364-24.3,47.027-28.688,49.391C920.227,1021,901.784,1008.515,910.958,1006.842Z" transform="translate(-853.616 -916.18)" fill="url(#linear-gradient-8)"/>
        <path id="Trazado_107194" data-name="Trazado 107194" d="M788.3,1159.893c-2.29-.108-12.6-3.382-14.511-3.273s-11.585,3.84-12.964,1.208,2.78-5.133,12.284-7.129c8.9-1.871,19.454,3.937,19.454,3.937C793.575,1155.152,790.585,1160,788.3,1159.893Z" transform="translate(-756.419 -1070.072)" fill="#ffd3a9"/>
        <path id="Trazado_107195" data-name="Trazado 107195" d="M791.173,1174.779c6.922-2.9,11.817-2,19.018-.993a61.948,61.948,0,0,0-12.9,1.314C795.548,1175.4,788.676,1175.826,791.173,1174.779Z" transform="translate(-776.181 -1084.853)" fill="#f0a576"/>
        <path id="Trazado_107196" data-name="Trazado 107196" d="M785.4,1181.559c-1.086.136-14.205.042-17.542,1.082s-13.985,4.225-15.489.652,9.857-6.446,16.248-8.258c4.152-1.178,16.594-.245,17.911,0s1.376.664,1.8,1.9C788.759,1178.218,786.483,1181.424,785.4,1181.559Z" transform="translate(-750.941 -1085.928)" fill="#ffd3a9"/>
        <path id="Trazado_107197" data-name="Trazado 107197" d="M800.617,1198a91.171,91.171,0,0,0-14.733,1.649c-3.138.528-15.9,4.155-15.072,1.874,2.659-7.33,22.312-10,26.382-7.634C794.537,1193.9,795.752,1197.392,800.617,1198Z" transform="translate(-763.129 -1098.151)" fill="#f0a576"/>
        <path id="Trazado_107198" data-name="Trazado 107198" d="M800.308,1203.092c-1.622,0-13.746-1.013-16.2-.569s-14.231,4.456-15.16.687c-.636-2.588,8.194-5.635,13.089-7.1s13.936-.857,13.936-.857c.789-.088,6.927,2.326,7.953,4.888S801.928,1203.091,800.308,1203.092Z" transform="translate(-761.906 -1099.521)" fill="#ffd3a9"/>
        <path id="Trazado_107199" data-name="Trazado 107199" d="M818.106,1222.925c-14.928-4.011-26.167,3.032-25.589.489,1.656-7.293,13.545-9.163,21.936-6.928C812.529,1216.611,813.48,1221.365,818.106,1222.925Z" transform="translate(-777.405 -1112.971)" fill="#f0a576"/>
        <path id="Trazado_107200" data-name="Trazado 107200" d="M817.719,1225.291a75.41,75.41,0,0,0-16.462-2.06c-5.1.1-11.206,3.589-12.162.782-1.053-3.1,4.231-5.824,9.217-6.573s15.925-.885,15.925-.885C817.433,1217.873,821.646,1226.212,817.719,1225.291Z" transform="translate(-775.082 -1113.6)" fill="#ffd3a9"/>
        <path id="Trazado_107201" data-name="Trazado 107201" d="M748.482,1191.6c.15,1.266,1.661,1.967,3,1.7a14.809,14.809,0,0,0,4.47-1.588c.857-.635.247-3.111-.441-3.5s-4.044,1.168-5.291,1.551S748.374,1190.694,748.482,1191.6Z" transform="translate(-748.47 -1094.926)" fill="#f29c93"/>
        <path id="Trazado_107202" data-name="Trazado 107202" d="M765.107,1210.671c.15,1.266,1.661,1.967,3,1.7a14.8,14.8,0,0,0,4.47-1.588c.857-.635.247-3.111-.441-3.5s-4.044,1.169-5.291,1.551S765,1209.769,765.107,1210.671Z" transform="translate(-759.396 -1107.463)" fill="#f29c93"/>
        <path id="Trazado_107203" data-name="Trazado 107203" d="M756.11,1162.265a2.313,2.313,0,0,0,2.58,2.164,12.045,12.045,0,0,0,4.025-1.491c.857-.636.247-3.111-.441-3.5s-2.775.52-4.022.9S756,1161.363,756.11,1162.265Z" transform="translate(-753.486 -1075.996)" fill="#f29c93"/>
        <path id="Trazado_107204" data-name="Trazado 107204" d="M785.072,1228.389a2.161,2.161,0,0,0,2.411,2.022,11.235,11.235,0,0,0,3.762-1.393c.8-.594.231-2.908-.412-3.274s-2.594.486-3.758.843S784.971,1227.546,785.072,1228.389Z" transform="translate(-772.521 -1119.581)" fill="#f29c93"/>
      </g>
      <g id="Grupo_85717" data-name="Grupo 85717" transform="translate(165.596 273.348)">
        <path id="Trazado_107205" data-name="Trazado 107205" d="M246.09,819.331c-3.13-6.59-12.015-25.9-16.212-35.884-5.464-13-12.835-26.269-12.835-26.269l16.9-11.681s23.388,33.448,25.368,36.289c4.77,6.835,21.161,31.2,20.477,46.335-.308,6.827-5.59,8.2-13.1,7.308C257.337,834.314,249.327,826.147,246.09,819.331Z" transform="translate(-217.042 -745.497)" fill="url(#linear-gradient-9)"/>
        <path id="Trazado_107206" data-name="Trazado 107206" d="M355.935,874.848s2.185,3.057,7.82,11.893a36.121,36.121,0,0,1,5.413,14.772Z" transform="translate(-308.329 -830.512)" fill="#f0a576"/>
      </g>
      <g id="Grupo_85718" data-name="Grupo 85718" transform="translate(138.766 199.325)">
        <path id="Trazado_107207" data-name="Trazado 107207" d="M233.345,585.2a12.714,12.714,0,0,0-.962-4.313c-.972-2.447-1.661-3.146-3.076-2.563s-1.436,2.4-.488,3.784S233.345,585.2,233.345,585.2Z" transform="translate(-197.524 -561.471)" fill="#f29c93"/>
        <path id="Trazado_107208" data-name="Trazado 107208" d="M225.871,609.985s5.618,1.3,6.484-1.979-3.471-10.306-4.862-14.151-1.813-10.037-.1-10.952,3.5,3.268,5.363,6.368,3.309,4.8,5.365,9.244,8.565,19.291,9.325,24.128-1.57,10.152-2.414,12.578-8.573-2.136-12.471-9.576A126.54,126.54,0,0,1,225.871,609.985Z" transform="translate(-196.015 -564.527)" fill="#ffd3a9"/>
        <path id="Trazado_107209" data-name="Trazado 107209" d="M153.228,641.647c-1.161,1-1.677,3.464-1.677,3.464s-.088,2.47,5.048,7.823,13.579,19.224,15.613,23.564,3.385,5.281,3.894,7.085,3.551,2.028,11.238-3.629,7.456-12.424,9.358-17.749-6.148-15.142-8.937-18.568-4.266-3.842-7.234-5.2-7.881-9.535-8.479-10.786S153.228,641.647,153.228,641.647Z" transform="translate(-147.169 -593.97)" fill="#ffd3a9"/>
        <path id="Trazado_107210" data-name="Trazado 107210" d="M174.782,643.045l-2.749,3.6a46.207,46.207,0,0,1,7.87,5.347,193.93,193.93,0,0,1,15.306,14.484c1.34,1.548-2.7-7.637-1.619-11.714a54.83,54.83,0,0,1,2.3-6.9s-3.13-2.569-7.253-5.769S174.782,643.045,174.782,643.045Z" transform="translate(-160.631 -602.713)" fill="#fdc597"/>
        <path id="Trazado_107211" data-name="Trazado 107211" d="M160.765,637.5s1.65,3.574-.5,5.865-6.962,3.418-7.819,3.4-2.587-11.835-.964-13.156S160.765,637.5,160.765,637.5Z" transform="translate(-146.682 -597.796)" fill="#e4944e"/>
        <path id="Trazado_107212" data-name="Trazado 107212" d="M160.134,637.5s.917,3.631-1.236,5.922-7.309,6.638-8.166,6.616-1.507-15.112.116-16.433S160.134,637.5,160.134,637.5Z" transform="translate(-146.051 -597.796)" fill="#ffd3a9"/>
        <path id="Trazado_107213" data-name="Trazado 107213" d="M180.537,667.745a41.781,41.781,0,0,0,4.078-2.959,49.145,49.145,0,0,0,3.708-3.384c1.2-1.176,2.364-2.389,3.541-3.593s2.346-2.42,3.549-3.611c-.986,1.376-2.05,2.691-3.154,3.972s-2.253,2.523-3.454,3.719c-.6.593-1.222,1.176-1.863,1.737s-1.31,1.087-2,1.582A22.3,22.3,0,0,1,180.537,667.745Z" transform="translate(-166.22 -611.469)" fill="#e4944e"/>
        <path id="Trazado_107214" data-name="Trazado 107214" d="M244.063,757.649c.51-.722,1.04-1.411,1.554-2.107s1.019-1.393,1.492-2.11.931-1.442,1.361-2.187.82-1.516,1.214-2.307a10.009,10.009,0,0,1-.734,2.544,14.311,14.311,0,0,1-1.271,2.331,16.685,16.685,0,0,1-1.652,2.07A14.219,14.219,0,0,1,244.063,757.649Z" transform="translate(-207.972 -673.735)" fill="#e4944e"/>
        <path id="Trazado_107215" data-name="Trazado 107215" d="M143.153,535.75s-.789.762-2.109-.381-2.513-3.861-2.237-4.775a1.6,1.6,0,0,1,2.537-.566C142.207,530.794,143.812,535.124,143.153,535.75Z" transform="translate(-138.766 -529.596)" fill="#f29c93"/>
        <path id="Trazado_107216" data-name="Trazado 107216" d="M141.889,529.755c-1.3.622-.561,2.735,1.629,5.869a80.9,80.9,0,0,1,6.217,9.959c1.486,3.078,4.029,9.223,4.029,9.223l7.783,1.46s-4.075-10.864-7.8-17.064S144.583,528.461,141.889,529.755Z" transform="translate(-140.397 -529.534)" fill="#ffd3a9"/>
        <path id="Trazado_107217" data-name="Trazado 107217" d="M179.719,601.936c-2.967-1.55-9.967-2.89-12.149-1.924s-3.436,4.655-3.469,5.941,9.593.736,12.105,3.638,7.436,10.167,9.585,10.966,4.235-.676,3.692-2.632-3.366-5.218-5.026-8.363S181.649,602.943,179.719,601.936Z" transform="translate(-155.418 -575.64)" fill="#e4944e"/>
        <path id="Trazado_107218" data-name="Trazado 107218" d="M179.618,602.549c-2.967-1.55-9.866-3.392-12.047-2.426s-3.436,4.655-3.469,5.941,9.593.736,12.105,3.638,6.871,9.547,9.02,10.346,4.709.334,4.166-1.622-3.276-5.609-4.936-8.754S181.548,603.557,179.618,602.549Z" transform="translate(-155.418 -575.752)" fill="#ffd3a9"/>
        <path id="Trazado_107219" data-name="Trazado 107219" d="M222.478,639.785c-1.176.492-1.435,2.137-.811,3.351A14.808,14.808,0,0,0,224.42,647c.846.649,3.06-.616,3.248-1.385s-2.233-3.569-2.943-4.663S223.316,639.434,222.478,639.785Z" transform="translate(-193.036 -601.917)" fill="#f29c93"/>
        <path id="Trazado_107220" data-name="Trazado 107220" d="M172.127,616.051c-1.622-1.3-9.686-3.539-12.285-2.533s-3.656,4.385-3.864,6.083,7.839.275,10.722,1.976,4.32,6.707,6.323,8.285,4.344,1.8,5.843.88.18-2.615-1.83-5.9S173.425,617.093,172.127,616.051Z" transform="translate(-150.076 -584.566)" fill="#e4944e"/>
        <path id="Trazado_107221" data-name="Trazado 107221" d="M171.924,616.645c-1.622-1.3-9.483-4.064-12.082-3.058s-3.656,4.385-3.864,6.083,7.839.275,10.722,1.976,4.288,6.324,6.291,7.9,3.811,1.564,5.311.644.461-1.754-1.549-5.034S173.222,617.688,171.924,616.645Z" transform="translate(-150.076 -584.636)" fill="#ffd3a9"/>
        <path id="Trazado_107222" data-name="Trazado 107222" d="M155.811,638.339s5.868-1.238,6.826-1.239,2.438,5.991,5.911,6.281,4.771-.105,2.331-4.355-3.662-9.73-8.152-10.753-9.1-.207-10.386,1.678S155.811,638.339,155.811,638.339Z" transform="translate(-147.544 -594.137)" fill="#e4944e"/>
        <path id="Trazado_107223" data-name="Trazado 107223" d="M155.052,638.635a70.59,70.59,0,0,1,7.123-1.979c.959,0,2.058,6.359,5.532,6.649s4.432.29,1.993-3.96-3.877-9.576-8.367-10.6-8.349-.3-9.751,1.5C149.07,633.471,155.052,638.635,155.052,638.635Z" transform="translate(-146.785 -594.434)" fill="#ffd3a9"/>
        <path id="Trazado_107224" data-name="Trazado 107224" d="M197.389,657.2c-.8.4-1.324.988-.624,2.7s1.122,3.239,2.146,3.17c1.37-.091,2.329-.306,1.95-1.767a11.131,11.131,0,0,0-1.683-3.487C198.725,657.227,198.155,656.821,197.389,657.2Z" transform="translate(-176.671 -613.346)" fill="#f29c93"/>
        <path id="Trazado_107225" data-name="Trazado 107225" d="M208.831,644.927c-1.219.374-1.64,1.985-1.139,3.254a12.778,12.778,0,0,0,2.233,3.811c.778.73,3.23-.006,3.493-.753s-1.908-3.624-2.507-4.784S209.7,644.661,208.831,644.927Z" transform="translate(-183.932 -605.336)" fill="#f29c93"/>
      </g>
      <g id="Grupo_85719" data-name="Grupo 85719" transform="translate(236.868 27.122)">
        <path id="Trazado_107226" data-name="Trazado 107226" d="M443.394,155.646c-27.535-34.366-23.737-87.209,8.386-112.973S532.268,23.879,559.8,58.244s23.814,83.111-8.31,108.877S470.929,190.01,443.394,155.646Z" transform="translate(-424.983 -27.122)" fill="#2e1c17"/>
        <path id="Trazado_107227" data-name="Trazado 107227" d="M489.413,183.08a75.366,75.366,0,0,1-46.019-27.435c-27.535-34.366-23.737-87.209,8.386-112.973S532.268,23.879,559.8,58.244a84.239,84.239,0,0,1,15.163,29C565.831,76.26,553.921,67.8,540.254,65.117c16.2,4.646,28.717,17.051,36.936,31.894q.555,3.381.815,6.771a70.334,70.334,0,0,0-25.993-23.991c11.741,6.591,21.209,17.985,26.231,30.765a77.236,77.236,0,0,1-2.188,17.711c-1.391-5.194-2.923-10.288-5.775-14.924-4.38-7.121-9.164-13.918-15.561-19.42,8.448,12.251,16.978,28.131,18.507,43.382a72.2,72.2,0,0,1-3.238,7.2c-2.272-13.849-10.248-26.7-18.092-38.4,6.937,13.746,16.984,28.824,14.826,44.062a70.124,70.124,0,0,1-15.229,16.946,78.212,78.212,0,0,1-8.561,5.964c-13.163-5.611-25.8-13.038-32.763-26.418,6.24,12.438,15.387,23.589,27.215,29.459q-3.3,1.637-6.715,2.942a63.581,63.581,0,0,1-31.048-28.2c6.734,12.433,16.545,23.8,29.428,28.8A78,78,0,0,1,516.588,183c-12.735-6.025-23.282-16.479-30.854-28.789,5.265,11.448,12.225,22.3,22.139,29.862a77.075,77.075,0,0,1-8.366.1c-14.583-6.01-27.736-14.959-35.731-30.072C468.957,166.373,478,176.937,489.413,183.08Z" transform="translate(-424.983 -27.122)" fill="#46281f"/>
        <path id="Trazado_107228" data-name="Trazado 107228" d="M514,227.032A75.366,75.366,0,0,1,467.981,199.6C440.446,165.231,522.818,79.639,537.7,96.066c-4.525-4.333,44.527,30.635,38.894,27.676,11.741,6.591,21.209,17.985,26.231,30.766-.02,2.537-.19,5.058-.453,7.565-10.51-24.047-34.9-41.535-57.609-52.789a140.011,140.011,0,0,1,36.225,31.089c7.867,11.869,15.394,26.65,16.821,40.885-.323.839-.684,1.663-1.038,2.489-10.4-27.449-25.894-61.754-57.726-63.73,19.734,23.158,40.619,51.437,47.507,80.667-.663.813-1.342,1.615-2.045,2.4-12.02-27.541-32.122-52.374-57.307-66.42,18.661,22.766,35.535,47.557,48.891,74.4l-.014.012c-.35.281-.709.549-1.063.822-13.712-20.389-27.029-40.666-48.34-53.519,15.412,18.752,30.035,37.928,45.647,55.516q-1.288.909-2.6,1.761c-21.737-15.143-43.242-33.438-54.507-58.48.071,24.189,18.105,53.375,40.617,65.613-.192.076-.381.161-.573.235a63.581,63.581,0,0,1-31.048-28.2c6.734,12.434,16.545,23.8,29.428,28.8q-3.069,1.1-6.21,1.938c-23.328-14.974-41.079-39.684-48.2-67.084-6.236,25.9,7.021,52.767,27.58,69.694-.9-.007-1.812,0-2.715-.042-14.583-6.01-27.736-14.959-35.731-30.072C493.544,210.325,502.589,220.888,514,227.032Z" transform="translate(-449.57 -71.073)" fill="#382018"/>
      </g>
      <g id="Grupo_85720" data-name="Grupo 85720" transform="translate(232.917 57.007)">
        <path id="Trazado_107229" data-name="Trazado 107229" d="M815.859,328.051s4.981-10.09,10.793-7.116,8.026,17.139,5.374,25.651S815.6,361.053,813.39,359.351a2.552,2.552,0,0,1-.523-3.747Z" transform="translate(-675.567 -249.755)" fill="#ffd3a9"/>
        <path id="Trazado_107230" data-name="Trazado 107230" d="M843.483,352.155s1.358-12.375-4.752-12.674-8.612,11.157-6.2,12.177,4.747,1.594,2.27,3.3a15.61,15.61,0,0,0-4.1,4.64s4.48.269,7.169-1.006,3.025-6.93,3.025-6.93-2.243,4.339-4.361,4.863,4.854-2.046.185-6.134-2.226-9.081.269-8.853C842.856,342.068,843.483,352.155,843.483,352.155Z" transform="translate(-687.687 -262.301)" fill="#f0a576"/>
        <path id="Trazado_107231" data-name="Trazado 107231" d="M428.807,338.221s-4.927-8.99-10.1-6.053-6.635,15.911-3.888,23.555,15.521,12.525,17.46,10.89a2.326,2.326,0,0,0,.33-3.43Z" transform="translate(-413.456 -257.111)" fill="#ffd3a9"/>
        <path id="Trazado_107232" data-name="Trazado 107232" d="M419.245,360.983s-1.719-11.21,3.829-11.72,8.273,9.817,6.125,10.84-4.258,1.637-1.939,3.091a14.2,14.2,0,0,1,3.911,4.061s-4.067.42-6.563-.635-3.028-6.189-3.028-6.189,2.216,3.86,4.162,4.256-4.5-1.673-.41-5.575,1.675-8.353-.588-8.048C419.422,351.777,419.245,360.983,419.245,360.983Z" transform="translate(-417.095 -268.721)" fill="#f0a576"/>
        <path id="Trazado_107233" data-name="Trazado 107233" d="M517.609,114.315c-35.063,5.84-65.989,40.064-64.205,81.234.616,14.256.538,25.359,4.006,37.171,8.006,27.277,45.716,45.461,64.81,45.258s50.667-19.124,58.092-46.566c3.216-11.882,2.9-22.981,3.215-37.247C584.436,152.967,552.789,119.408,517.609,114.315Z" transform="translate(-439.663 -114.315)" fill="#ffd3a9"/>
        <path id="Trazado_107234" data-name="Trazado 107234" d="M561.816,114.315c-15.18,2.528-29.914,9.282-41.225,20.711,4.168,10.369,15.393,26.139,31.331,32.994s30.505,9.94,45.586,16.452c6.169,2.742,10.968,7.883,17.138,11.311a13.073,13.073,0,0,1,5.141,5.484,57.246,57.246,0,0,1,6.953,18.122c.853-7.786.788-15.816.994-25.223C628.642,152.967,597,119.408,561.816,114.315Z" transform="translate(-483.87 -114.315)" fill="#fdc597"/>
        <path id="Trazado_107235" data-name="Trazado 107235" d="M634.7,390.065c-3.72.479-11.107,12.992-3.738,14.02s10.048,1.178,11.022-1.211S638.439,389.584,634.7,390.065Z" transform="translate(-554.343 -295.541)" fill="#ffe4ca"/>
        <path id="Trazado_107236" data-name="Trazado 107236" d="M639.471,434.33s-.629,7.222-8.729,7.7c-6.488.389-9.606-5.7-9.656-7.507C626.358,436.881,634.213,437.143,639.471,434.33Z" transform="translate(-549.92 -324.643)" fill="#f0a576"/>
        <path id="Trazado_107237" data-name="Trazado 107237" d="M498.362,403.769c-.4,5.243-7.777,8.962-16.487,8.307s-15.451-5.438-15.057-10.68,7.776-8.963,16.487-8.308S498.757,398.527,498.362,403.769Z" transform="translate(-448.517 -297.489)" fill="#fabda0"/>
        <path id="Trazado_107238" data-name="Trazado 107238" d="M732.932,401.216c.507,5.233,7.966,8.8,16.661,7.955s15.33-5.765,14.826-11-7.966-8.795-16.661-7.955S732.427,395.983,732.932,401.216Z" transform="translate(-623.413 -295.57)" fill="#fabda0"/>
      </g>
      <g id="Grupo_85721" data-name="Grupo 85721" transform="translate(326.503 117.081)">
        <path id="Trazado_107239" data-name="Trazado 107239" d="M696.927,332.32c-5.365,2.49-10.271,13.54-10.416,17.038-.073,1.768,6.654,2,12.727,1.969,5.206-.024,12.551.693,18.105-3.9s5.183-11.566,4.392-13.005C717.707,327.1,702.294,329.83,696.927,332.32Z" transform="translate(-686.506 -315.941)" fill="#fff"/>
        <path id="Trazado_107240" data-name="Trazado 107240" d="M700.074,335.82a11.994,11.994,0,1,0,11.052-12.868A11.994,11.994,0,0,0,700.074,335.82Z" transform="translate(-695.397 -311.491)" fill="#553026"/>
        <path id="Trazado_107241" data-name="Trazado 107241" d="M716.622,364.5a10.286,10.286,0,0,0,9.474-11.031c0-.071-.02-.138-.029-.208-7.187-1.846-14.841-1.022-20.232,3.288A10.277,10.277,0,0,0,716.622,364.5Z" transform="translate(-699.206 -330.825)" fill="#7b4437"/>
        <path id="Trazado_107242" data-name="Trazado 107242" d="M697.47,318.428c-10.557,4.967-10.533,20.641-10.533,20.641a49.937,49.937,0,0,1,5.877-11.774c4.206-6.307,12.641-8.381,21.164-5.9S727.833,333.4,724,324.731C720.695,317.275,708.029,313.458,697.47,318.428Z" transform="translate(-686.786 -307.067)" fill="#f29c93"/>
        <path id="Trazado_107243" data-name="Trazado 107243" d="M698.389,290.013c-4.039,1.246-10.23,11.1-10.23,11.1s3.774-3.568,16.465-6.849,29.061,5.038,29.061,5.038a75.77,75.77,0,0,0-11.977-6.47C715.679,290.387,702.428,288.767,698.389,290.013Z" transform="translate(-687.59 -289.583)" fill="#2e1c17"/>
        <path id="Trazado_107244" data-name="Trazado 107244" d="M712.819,341.969A7.791,7.791,0,1,0,720,333.612,7.791,7.791,0,0,0,712.819,341.969Z" transform="translate(-703.782 -318.506)" fill="#1d1008"/>
        <path id="Trazado_107245" data-name="Trazado 107245" d="M746.319,365.538a1.877,1.877,0,0,0,2.706,2.331,1.634,1.634,0,0,0,.718-.827,1.876,1.876,0,0,0-2.711-2.34A1.628,1.628,0,0,0,746.319,365.538Z" transform="translate(-725.723 -338.773)" fill="#fff"/>
        <path id="Trazado_107246" data-name="Trazado 107246" d="M717.951,343.248a21.8,21.8,0,0,1-7.39,4.719s8.982-1.723,13.889-9.126c1.927-2.91,2.514-8-4.453-10.6s-13.356-4.453-21.424-.977-12.321,16.037-12.066,19.405c0,0,4.287-12.987,15.043-15.368s18.044,1.917,18.222,4.247S720.84,340.166,717.951,343.248Z" transform="translate(-686.496 -313.098)" fill="#161615"/>
        <path id="Trazado_107247" data-name="Trazado 107247" d="M741.29,326.253c-11.444-3.3-17.823,1.875-17.823,1.875a109.98,109.98,0,0,1,12.526.35c6.033.584,10.608,5.963,11.225,7.218s1.049,2.6,4.714,3.809c6.412,2.115,9.042-.949,9.042-.949s-2.551.715-6.869-1.3C748.2,334.5,752.739,329.55,741.29,326.253Z" transform="translate(-710.795 -312.962)" fill="#161615"/>
      </g>
      <g id="Grupo_85722" data-name="Grupo 85722" transform="translate(239.54 40.269)">
        <path id="Trazado_107248" data-name="Trazado 107248" d="M606.174,84.011C643.32,120.985,620.3,175.1,620.3,175.1s-.8-23.882-52.255-38.951c-35.928-10.521-53.654-30.317-53.654-30.317s-11.265-13.67-3.944-20.108S566.6,44.614,606.174,84.011Z" transform="translate(-482.202 -65.48)" fill="#553026"/>
        <path id="Trazado_107249" data-name="Trazado 107249" d="M640.03,194.534c5.066,17.956,3.05,51.262-5.2,62.869a50.5,50.5,0,0,0-24.066-28.856c-6.2-3.292-38.906-14.787-45.372-17.44-12.824-5.259-25.552-13.019-34.555-23.559,1.883,1.6,3.862,3.082,5.873,4.522-.342-.241-.466-.328.348.252.886.626.668.469.264.183a118.148,118.148,0,0,0,29.512,14.824c7.41,2.538,30.8,9.279,37.826,12.893,17.434,8.969,33.2,24.736,31.963,27.354C643.379,233.284,640.03,194.534,640.03,194.534Z" transform="translate(-497.229 -145.709)" fill="#2e1c17"/>
        <path id="Trazado_107250" data-name="Trazado 107250" d="M463.85,123.415c5.836-3.056,18.284,6.414,15.651,11.438,0,0-3.444,7.643-7.118,11.009s-12.365,9.332-20.135,24.361-12.271,42.121-12.271,42.121a132.016,132.016,0,0,1-.184-54.461C446.011,128.208,458.014,126.473,463.85,123.415Z" transform="translate(-435.603 -103.167)" fill="#553026"/>
        <path id="Trazado_107251" data-name="Trazado 107251" d="M437.13,247.939c2.436-11.659,5.507-23.661,10.869-33.829,5.563-10.551,13.086-17.84,21.561-24.062-8.642,9.294-16.77,18.453-21.713,31.641-5.093,13.6-5.931,25.115-6.562,47.7,0,0-15.4-35.868-4.753-65.139a14.082,14.082,0,0,0-.35,3.3A153.676,153.676,0,0,0,437.13,247.939Z" transform="translate(-432.779 -147.352)" fill="#2e1c17"/>
        <path id="Trazado_107252" data-name="Trazado 107252" d="M688.564,143.872a13.129,13.129,0,0,1-6.21,1.476q.356.492.712.986A31.983,31.983,0,0,1,671.7,146.2l8.559-2.4a8.493,8.493,0,0,1-2.888-1.8,37.023,37.023,0,0,0,7.2-1.087,19.588,19.588,0,0,0-2.776-3.9l5.847.291c.524.025,1.157,0,1.4-.46a1.383,1.383,0,0,0-.01-.992,15.707,15.707,0,0,0-9.406-10.348,39.573,39.573,0,0,1,17.681,4.2c3.423,1.638,6.823,3.8,8.766,7.078A21.582,21.582,0,0,0,695.1,135.8q.967.683,1.937,1.363a1.444,1.444,0,0,1,.582.615c.284.764-.773,1.213-1.567,1.275l-5.565.438,2.335,1.768-6.227,1.025A3.557,3.557,0,0,1,688.564,143.872Z" transform="translate(-589.812 -104.934)" fill="#7b4437"/>
        <path id="Trazado_107253" data-name="Trazado 107253" d="M720.554,264.691c-4.066-13.269-14.791-25.505-25.574-33.11-11.952-8.43-25.233-14.652-38.383-20.679a118.537,118.537,0,0,1,40.089,18C707.558,236.608,719.051,250.34,720.554,264.691Z" transform="translate(-579.882 -161.058)" fill="#2e1c17"/>
      </g>
      <g id="Grupo_85723" data-name="Grupo 85723" transform="translate(283.546 177.525)">
        <path id="Trazado_107254" data-name="Trazado 107254" d="M596.28,481.538c-20.315.2-28.737-8.573-28.737-8.573a91.2,91.2,0,0,0,7.445,10.953c3.864,4.723,13.12,7.934,21.4,7.593,8.281.164,17.468-3.242,21.231-8.046a39.036,39.036,0,0,0,5.6-9.7S616.593,481.3,596.28,481.538Z" transform="translate(-565.357 -470.553)" fill="#e76478"/>
        <path id="Trazado_107255" data-name="Trazado 107255" d="M615.83,473.987c-4.888.557-14.521.729-18.98.77v0l-.643.009-.643,0v0c-4.459.054-14.092.086-18.992-.366a86.853,86.853,0,0,1-9.029-1.439s8.115,9.856,28.743,9.261c20.636.156,27.271-9.261,27.271-9.261S620.087,473.5,615.83,473.987Z" transform="translate(-565.357 -470.553)" fill="#e76478"/>
        <path id="Trazado_107256" data-name="Trazado 107256" d="M588.262,477.277c-17.5-.763-24.167-7.444-24.711-7.837-.268-.194-2.656-2.229-2.36-2.587s1.961.952,2.134,1.236c.75,1.235,9.328,8.8,30.9,7.808,21.127-.97,27.753-10.4,27.968-9.952.578,1.212-1.833,2.293-2.632,2.969-.377.316-4.38,6.618-23.9,8.285A59.881,59.881,0,0,1,588.262,477.277Z" transform="translate(-561.166 -465.928)" fill="#8a0046"/>
        <path id="Trazado_107257" data-name="Trazado 107257" d="M686.6,504.971c.321.395-.175,1.242-1.107,1.9s-1.947.862-2.266.47.178-1.242,1.109-1.9S686.28,504.58,686.6,504.971Z" transform="translate(-641.323 -491.459)" fill="#ec8a9d"/>
        <path id="Trazado_107258" data-name="Trazado 107258" d="M694.6,500.945c.321.395-.175,1.242-1.107,1.9s-1.947.862-2.266.47.178-1.243,1.11-1.9S694.28,500.553,694.6,500.945Z" transform="translate(-646.581 -488.813)" fill="#ec8a9d"/>
        <path id="Trazado_107259" data-name="Trazado 107259" d="M690.6,503.471c.321.395-.175,1.242-1.107,1.9s-1.947.862-2.266.47.178-1.242,1.109-1.9S690.28,503.08,690.6,503.471Z" transform="translate(-643.952 -490.474)" fill="#fff"/>
      </g>
      <g id="Grupo_85724" data-name="Grupo 85724" transform="translate(249.346 117.725)">
        <path id="Trazado_107260" data-name="Trazado 107260" d="M496.476,291.81c4.065,1.16,10.463,10.881,10.463,10.881s-3.849-3.487-16.606-6.5-28.947,5.655-28.947,5.655a75.7,75.7,0,0,1,11.837-6.723C479.2,292.551,492.412,290.65,496.476,291.81Z" transform="translate(-461.386 -291.462)" fill="#2e1c17"/>
        <path id="Trazado_107261" data-name="Trazado 107261" d="M522.769,380.548c-6.924-2.21-15.3-4.1-22.27-3.932-7.953.169-15.754,2.278-23.718,2.387a41.314,41.314,0,0,1,23.484-8.334C507.936,370.6,518.328,373.808,522.769,380.548Z" transform="translate(-471.504 -343.519)" fill="#180400"/>
        <path id="Trazado_107262" data-name="Trazado 107262" d="M507.045,374.754a30.857,30.857,0,0,1-4.143-.4c-1.746-.647-3.956-1.583-4.511-3.518,1.1,1.254,7.1,4.869,8.655,3.916C507.047,374.756,507.042,374.756,507.045,374.754Z" transform="translate(-485.707 -343.632)" fill="#180400"/>
        <path id="Trazado_107263" data-name="Trazado 107263" d="M556.779,384.683a3.776,3.776,0,0,1-2.113,2.3A2.846,2.846,0,0,1,556.779,384.683Z" transform="translate(-522.694 -352.731)" fill="#180400"/>
        <path id="Trazado_107264" data-name="Trazado 107264" d="M518.191,386.237a26.866,26.866,0,0,1-5.23,3.744A8.4,8.4,0,0,1,518.191,386.237Z" transform="translate(-495.283 -353.752)" fill="#180400"/>
        <path id="Trazado_107265" data-name="Trazado 107265" d="M490,377.619a64.236,64.236,0,0,1-14.982,2.655A64.232,64.232,0,0,1,490,377.619Z" transform="translate(-470.349 -348.088)" fill="#180400"/>
        <path id="Trazado_107266" data-name="Trazado 107266" d="M488.854,387.08c-2.525,1.673-5.119,3.294-7.729,4.83A13.254,13.254,0,0,1,488.854,387.08Z" transform="translate(-474.359 -354.306)" fill="#180400"/>
        <path id="Trazado_107267" data-name="Trazado 107267" d="M584.541,389.009a12.433,12.433,0,0,1,7.817,6.295A69.413,69.413,0,0,0,584.541,389.009Z" transform="translate(-542.329 -355.574)" fill="#180400"/>
        <path id="Trazado_107268" data-name="Trazado 107268" d="M583.842,381.659a26.29,26.29,0,0,1,11.619,4C591.553,384.509,587.628,383.162,583.842,381.659Z" transform="translate(-541.87 -350.743)" fill="#180400"/>
      </g>
    </g>
  </g>
</svg>
