<svg xmlns="http://www.w3.org/2000/svg" xmlns:xlink="http://www.w3.org/1999/xlink" width="399" height="472" viewBox="0 0 399 472">
  <defs>
    <linearGradient id="linear-gradient" x1="-71.918" y1="-10.176" x2="-70.736" y2="-10.176" gradientUnits="objectBoundingBox">
      <stop offset="0.006" stop-color="#f5bd89"/>
      <stop offset="0.423" stop-color="#fac899"/>
      <stop offset="0.92" stop-color="#ffd3a9"/>
    </linearGradient>
    <linearGradient id="linear-gradient-2" x1="-8.01" y1="0.5" x2="-7.01" y2="0.5" xlink:href="#linear-gradient"/>
    <linearGradient id="linear-gradient-3" x1="0.522" y1="1.025" x2="0.473" y2="0.15" gradientUnits="objectBoundingBox">
      <stop offset="0" stop-color="#ffd3a9"/>
      <stop offset="1" stop-color="#ffe1c6"/>
    </linearGradient>
  </defs>
  <g id="Grupo_87742" data-name="Grupo 87742" transform="translate(-601 -29803)">
    <rect id="Rectángulo_33938" data-name="Rectángulo 33938" width="399" height="472" transform="translate(601 29803)" fill="#ffb7ad"/>
    <g id="Grupo_85831" data-name="Grupo 85831" transform="translate(529.905 29787)">
      <g id="Background" transform="translate(130.095 183.57)">
        <g id="Grupo_85818" data-name="Grupo 85818" transform="translate(235.92)">
          <path id="Trazado_108748" data-name="Trazado 108748" d="M881.076,547.181l19.2-40.277,12.045,6.776Z" transform="translate(-879.542 -506.904)" fill="#dd0f2c"/>
          <path id="Trazado_108749" data-name="Trazado 108749" d="M876.226,620.485l41.126-17.3,4.487,13.072Z" transform="translate(-876.226 -572.74)" fill="#dd0f2c"/>
        </g>
        <g id="Grupo_85819" data-name="Grupo 85819" transform="translate(0 52.418)">
          <path id="Trazado_108750" data-name="Trazado 108750" d="M175.79,689.072l-41.5-16.39-4.2,13.167Z" transform="translate(-130.095 -672.682)" fill="#dd0f2c"/>
          <path id="Trazado_108751" data-name="Trazado 108751" d="M203.671,738.5l-41.888,15.367,5.626,12.624Z" transform="translate(-151.764 -717.686)" fill="#dd0f2c"/>
        </g>
      </g>
      <g id="Man" transform="translate(141.202 34.061)">
        <g id="Grupo_85820" data-name="Grupo 85820" transform="translate(105.711 370.408)">
          <path id="Trazado_108752" data-name="Trazado 108752" d="M539.181,1232.607s-2.338,24.6,2.62,34.576,14.459,16.548,20.461,11.024,6.161-10.717,6.643-18.186-2.693-18.6-4.228-26.29-6.871-8.871-6.871-8.871Z" transform="translate(-526.273 -1218.748)" fill="#301b14"/>
          <path id="Trazado_108753" data-name="Trazado 108753" d="M554.619,1250.588a27.193,27.193,0,0,0,6.544,1.51,13.331,13.331,0,0,0,6.892-1.933,13.848,13.848,0,0,0,4.853-4.859,98.658,98.658,0,0,0-1.923-14.752c-1.534-7.691-3.481-6.024-3.481-6.024l-14.69,8.342,1.769,17.71C554.6,1250.584,554.608,1250.584,554.619,1250.588Z" transform="translate(-535.973 -1218.418)" fill="#4b2b22"/>
          <path id="Trazado_108754" data-name="Trazado 108754" d="M573.477,1302.924a15.322,15.322,0,0,1-7.73,2.359,23.052,23.052,0,0,1-6.736-1.39l.655,6.556s2.605,2.868,7.809,2.494c7.952-.572,10.033-1.3,9.916-8.787-.026-1.644-.064-3.16-.115-4.593A15.249,15.249,0,0,1,573.477,1302.924Z" transform="translate(-540.21 -1269.83)" fill="#4b2b22"/>
          <path id="Trazado_108755" data-name="Trazado 108755" d="M568.9,1261.8c.208-3.228-.373-8.521-1.1-13.487-.956-6.522-3.218-20.851-3.218-20.851l-1.879,2.745c.584,6.155,1.193,12.236,1.826,20.653.271,3.6.415,11.882-1.639,12.75-6.275,3.359-14.849.41-17.1-.439-2.384-2.36-3.255-15.619-3.039-17.135.544-8.064-3.3-3.539-3.6-11.413-.221,2.523-2.034,24.927,2.641,34.339,4.958,9.979,14.459,16.548,20.461,11.024S568.423,1269.271,568.9,1261.8Z" transform="translate(-526.272 -1220.528)" fill="#583328"/>
          <path id="Trazado_108756" data-name="Trazado 108756" d="M499.547,1214.7s3.311,7.921,6.975,12.414c2.527,3.1,4.02,6.976,9.458,9.458,1.536.7,7.907,1.245,14.732-1.468s9.67-6.425,9.67-6.425a29.778,29.778,0,0,0,0-11.191,49.476,49.476,0,0,0-3.98-11.957Z" transform="translate(-499.547 -1205.529)" fill="#b2742d"/>
          <path id="Trazado_108757" data-name="Trazado 108757" d="M560.254,1245.294c6.789-1.964,15.268-11,16.382-17.171-.04-.207-5.607,2.643-5.649,2.432-1.534-7.691-3.481-6.024-3.481-6.024l-14.69,8.342,1.171,11.721C555.729,1245.783,558.077,1245.725,560.254,1245.294Z" transform="translate(-535.973 -1218.418)" fill="#966326"/>
        </g>
        <g id="Grupo_85821" data-name="Grupo 85821" transform="translate(169.403 363.721)">
          <path id="Trazado_108758" data-name="Trazado 108758" d="M739.554,1207.736s11.913,21.645,11.328,32.772-6.7,20.929-14.4,18.244-9.911-7.389-13.319-14.051-4.915-18.139-6.561-25.807,2.783-10.87,2.783-10.87Z" transform="translate(-711.412 -1200.352)" fill="#301b14"/>
          <path id="Trazado_108759" data-name="Trazado 108759" d="M745.406,1227.4a27.173,27.173,0,0,1-5.406,3.986,13.328,13.328,0,0,1-7.093.963,13.844,13.844,0,0,1-6.384-2.531,98.709,98.709,0,0,1-4.094-14.3c-1.646-7.668.8-6.911.8-6.911l16.794,1.821,5.41,16.956C745.425,1227.383,745.416,1227.388,745.406,1227.4Z" transform="translate(-715.259 -1200.928)" fill="#4b2b22"/>
          <path id="Trazado_108760" data-name="Trazado 108760" d="M744.624,1278.634a15.32,15.32,0,0,0,8.03-.906,23.067,23.067,0,0,0,5.63-3.951l2,6.277s-1.252,3.667-6.176,5.39c-7.525,2.633-9.726,2.788-12.59-4.126-.629-1.519-1.2-2.925-1.718-4.261A15.247,15.247,0,0,0,744.624,1278.634Z" transform="translate(-727.528 -1245.511)" fill="#4b2b22"/>
          <path id="Trazado_108761" data-name="Trazado 108761" d="M717.224,1245.153c-1.473-2.88-3.041-7.968-4.346-12.815-1.713-6.365-5.328-20.414-5.328-20.414l2.814,1.773c1.909,5.881,3.765,11.7,6.527,19.68,1.181,3.41,4.338,11.069,6.568,11.049,7.093.59,13.791-5.521,15.518-7.194,1.251-3.113-3.216-15.627-4.016-16.933-3.7-7.185,1.618-4.557-1.233-11.9,1.205,2.227,11.767,22.069,11.214,32.563-.587,11.128-6.7,20.929-14.4,18.244S720.633,1251.816,717.224,1245.153Z" transform="translate(-705.474 -1200.804)" fill="#583328"/>
          <path id="Trazado_108762" data-name="Trazado 108762" d="M742.46,1184.382s-.4,6.093-2.635,9.406-.118,6.029-2.956,11.231c-.808,1.482-9.856,8.2-17.2,8.419s-11.426-2.056-11.426-2.056-4.1-7.563-5.575-13.882,9.519-5.782,9.519-5.782Z" transform="translate(-702.044 -1184.382)" fill="#b2742d"/>
          <path id="Trazado_108763" data-name="Trazado 108763" d="M723.139,1224.892c-7.011.894-18.684-6.671-22.156-11.89-.045-.207,7.215,2.718,7.17,2.508-1.646-7.668.8-6.911.8-6.911l16.794,1.821,7.993,11.273C732.616,1223.477,728.031,1225.01,723.139,1224.892Z" transform="translate(-700.982 -1200.928)" fill="#966326"/>
        </g>
        <g id="Grupo_85822" data-name="Grupo 85822" transform="translate(86.81 313.475)">
          <path id="Trazado_108764" data-name="Trazado 108764" d="M560.62,1025.471s-.434,3.752,4.487,16.054,5.983,52.7-13.742,56.865c-14.972,3.164-27.023-14.54-40.283-11.473s-19.338,20.538-32.061,22.035c-16.213,1.907-35.188-27.237-37.311-42.185s-3.841-34.292,2.419-37.386S560.62,1025.471,560.62,1025.471Z" transform="translate(-439.77 -1025.471)" fill="#ce8433"/>
          <path id="Trazado_108765" data-name="Trazado 108765" d="M656.25,1155.776c0,.355,1.419,6.266,1.891,9.576s1.528,8.874,1.528,8.874-.109-6.509-.464-11.475-.946-8.276-.946-8.276Z" transform="translate(-587.801 -1113.686)" fill="#966326"/>
          <path id="Trazado_108766" data-name="Trazado 108766" d="M643,1154.353c0,.355,1.8,5.66,2.276,8.97a17.478,17.478,0,0,0,1.685,5.5,46.878,46.878,0,0,1-1-7.492c-.354-4.965-.946-8.276-.946-8.276Z" transform="translate(-578.739 -1112.712)" fill="#966326"/>
        </g>
        <g id="Grupo_85823" data-name="Grupo 85823" transform="translate(13.786 208.748)">
          <path id="Trazado_108767" data-name="Trazado 108767" d="M350.989,940.535l.206-.635c.3.009.449.016.449.016Z" transform="translate(-306.037 -862.23)" fill="#f7a26e"/>
          <path id="Trazado_108768" data-name="Trazado 108768" d="M368.248,857.839c-6.892-28.823-32.677-52.45-31.21-95.064.481-13.963,16.6-24.212,16.6-24.212s85.941,9.8,92.326,7.24c4.505-1.809,17.883-14.677,30.765-21.522s2.826,72.129,18.713,100.35S375.14,886.662,368.248,857.839Z" transform="translate(-296.456 -714.501)" fill="#19436d"/>
          <path id="Trazado_108769" data-name="Trazado 108769" d="M731.247,941.492a64.416,64.416,0,0,1-13.158,7.937c-8.772,4.177-17.335,7.519-17.335,7.519s3.759,10.861,8.355,13.158,23.392-4.386,25.9-7.519S731.247,941.492,731.247,941.492Z" transform="translate(-545.21 -863.318)" fill="#678a9c"/>
          <path id="Trazado_108770" data-name="Trazado 108770" d="M707.062,978.813c1.536,3.223,3.819,7.11,6.36,8.38,4.6,2.3,23.392-4.386,25.9-7.519,1.381-1.726.1-7.95-1.33-13.194C728.519,972.611,718.072,977.3,707.062,978.813Z" transform="translate(-549.523 -880.406)" fill="#516d7a"/>
          <path id="Trazado_108771" data-name="Trazado 108771" d="M259.507,759.782c-7.454,2.635-38.667,10.246-45.481,21.173s-7.088,26.705.086,41.534,4.483,39.238,4.9,46.452,1.6,21.575,17.308,25.408,32.142-59.018,29.037-77.76S259.507,759.782,259.507,759.782Z" transform="translate(-208.823 -739.064)" fill="#19436d"/>
          <path id="Trazado_108772" data-name="Trazado 108772" d="M260.712,1009.859s-16.291,6.579-25.376,15.351-9.085,24.124,1.879,35.4,26,2.506,26,2.506Z" transform="translate(-222.442 -910.068)" fill="#7fabc3"/>
          <path id="Trazado_108773" data-name="Trazado 108773" d="M779.131,694.327c7.9.262,39.956-1.9,49.75,6.459s14.818,23.32,12.453,39.623,7.569,38.762,9.345,45.766,4.99,21.05-8.833,29.447-48.456-46.565-51.152-65.37S779.131,694.327,779.131,694.327Z" transform="translate(-598.804 -694.257)" fill="#19436d"/>
          <path id="Trazado_108774" data-name="Trazado 108774" d="M892.04,921.044s17.517,1.355,28.826,6.976,15.943,20.256,8.893,34.318-24.034,10.238-24.034,10.238Z" transform="translate(-676.013 -849.336)" fill="#7fabc3"/>
          <path id="Trazado_108775" data-name="Trazado 108775" d="M576.534,840.088s-11.765,36.724-17.906,36.273c-5.6-.41-19.955-23.24-20.586-30.894a93.949,93.949,0,0,1-.18-13.476Z" transform="translate(-433.716 -788.441)" fill="#fcbb8b"/>
          <path id="Trazado_108776" data-name="Trazado 108776" d="M552.894,857.074c-5.062-1.246-11.845-8.857-14.636-13.162-.185-5.235-.1-11.921-.1-11.921l38.93,6.672S561.432,859.288,552.894,857.074Z" transform="translate(-434.011 -788.441)" fill="#f7a26e"/>
          <path id="Trazado_108777" data-name="Trazado 108777" d="M606.087,1034.841c-.484-2.135-11.858-52.345-12.139-56.422-.328-4.752,3.094-5.982,3.236-6.046l2.01.131.157.13-1.326,1.421c-.085.041-2.088,1.045-1.87,4.212.216,3.127,8,38.053,12.09,56.085Z" transform="translate(-472.16 -884.435)" fill="#17395c"/>
          <path id="Trazado_108778" data-name="Trazado 108778" d="M611.45,994.271a3.237,3.237,0,1,1-3.237-3.237A3.237,3.237,0,0,1,611.45,994.271Z" transform="translate(-479.715 -897.195)" fill="#678a9c"/>
          <path id="Trazado_108779" data-name="Trazado 108779" d="M628.009,1063.338a2.914,2.914,0,1,1-2.913-2.914A2.914,2.914,0,0,1,628.009,1063.338Z" transform="translate(-491.481 -944.645)" fill="#678a9c"/>
          <path id="Trazado_108780" data-name="Trazado 108780" d="M636.464,1107.133a2.914,2.914,0,1,1-2.913-2.914A2.913,2.913,0,0,1,636.464,1107.133Z" transform="translate(-497.263 -974.593)" fill="#678a9c"/>
          <path id="Trazado_108781" data-name="Trazado 108781" d="M644.126,1148.681a2.914,2.914,0,1,1-2.913-2.913A2.913,2.913,0,0,1,644.126,1148.681Z" transform="translate(-502.502 -1003.004)" fill="#678a9c"/>
          <path id="Trazado_108782" data-name="Trazado 108782" d="M481.912,806.415s6.324,23.434,10.865,31.1,8.348,13.284,8.348,13.284a43.222,43.222,0,0,0-13.141,5.146,74.619,74.619,0,0,1-15.088,6.429s-19.164-43.166-19.537-52.52A22.51,22.51,0,0,1,458.6,794.53Z" transform="translate(-376.026 -762.825)" fill="#17395c"/>
          <path id="Trazado_108783" data-name="Trazado 108783" d="M485.63,806.415s6.324,23.434,10.865,31.1,8.348,13.284,8.348,13.284-8.358-.933-15.159,3.106a72.629,72.629,0,0,1-11.939,5.82s-18.57-40.138-18.943-49.492a30.136,30.136,0,0,1,3.513-15.7Z" transform="translate(-379.744 -762.825)" fill="#1a4977"/>
          <path id="Trazado_108784" data-name="Trazado 108784" d="M492.539,828.5c-3.568-9.706-6.908-22.081-6.908-22.081L462.315,794.53a30.136,30.136,0,0,0-3.513,15.7c0,.052.008.109.011.163C467.217,820.661,480.368,823.957,492.539,828.5Z" transform="translate(-379.744 -762.825)" fill="#19436d"/>
          <path id="Trazado_108785" data-name="Trazado 108785" d="M621.108,803.062s-5.228,23.7-9.408,31.571a139.09,139.09,0,0,1-7.826,13.086,57.514,57.514,0,0,1,13.471,5.1,74.626,74.626,0,0,0,15.371,5.72s15.431-43.549,15.369-52.911a30.141,30.141,0,0,0-4.239-15.523Z" transform="translate(-478.962 -759.799)" fill="#17395c"/>
          <path id="Trazado_108786" data-name="Trazado 108786" d="M621.108,803.062s-5.228,23.7-9.408,31.571a139.09,139.09,0,0,1-7.826,13.086s8.6-.35,15.578,3.37a88.35,88.35,0,0,0,12.343,5.5s14.59-43.684,14.528-53.045-2.477-13.434-2.477-13.434Z" transform="translate(-478.962 -759.799)" fill="#1a4977"/>
          <path id="Trazado_108787" data-name="Trazado 108787" d="M674.287,790.106,651.55,803.062s-1.317,5.972-3.158,12.915c7.32-5.772,16-9.152,23.391-15.284a43.179,43.179,0,0,0,4.375-4.436A19.738,19.738,0,0,0,674.287,790.106Z" transform="translate(-509.404 -759.799)" fill="#19436d"/>
        </g>
        <g id="Grupo_85824" data-name="Grupo 85824" transform="translate(0 0)">
          <path id="Trazado_108788" data-name="Trazado 108788" d="M361.014,72.068s1.019,7.157.044,12.191a24.808,24.808,0,0,1-2.217,7.154s.373-15.995-4.68-25.936c-7.462-14.686-10.75-17.12-10.75-17.12s.1,8.857-.25,16.8-5.2,7.786-5.2,7.786-.839-8.756-7.007-21.042-15.1-17.175-15.1-17.175a61.928,61.928,0,0,1,3.924,12.946,42.394,42.394,0,0,1,.042,11.242,154.235,154.235,0,0,0-14.354-15.164,100.948,100.948,0,0,0-12.9-9.694l7.947,13.062S291.708,41.6,272.873,39.3s-39.934,5.879-39.934,5.879a65.92,65.92,0,0,1,15.383,4.35c7.873,3.36,9.214,7.6,9.214,7.6a161.489,161.489,0,0,1-27.065-.781,163.413,163.413,0,0,0-27.216-.783l14.206,8.621s-15.9,2.774-31.989,17.643-20.25,23.541-20.25,23.541,8.373-4.93,15.715-2.424,9.443,4.168,9.443,4.168-1.556,1.91-9.395,8.7-10.44,11.23-10.44,11.23l17.812-1.229s-6.261,5.253-7.264,17.536,8.181,48.5,15.122,62.453,4.611,10.7,10.777,13.218c7.537,3.08,1.271,13.435,5.469,14.728,0,0,1.252-20.453-1.521-60.507-1.849-26.65-1.678-39.95-1.678-39.95s57.16-33.365,101.893-28.262,39.012,15.635,39.012,15.635,15.251,20.04,18.508,44.9a107.975,107.975,0,0,1-3.815,45.076s9.1.315,9.294-15.978c1.833-5.623,5.257-8.45,6.037-14.076,1.253-8.17,2.634-26.136,3.884-34.3.826-8.092,3.043-25.4-.923-33.123C379.659,106.306,361.014,72.068,361.014,72.068Z" transform="translate(-165.222 -34.061)" fill="#553026"/>
          <path id="Trazado_108789" data-name="Trazado 108789" d="M229.422,547.742s-9.079-13.08-16.592-7.7-7.653,25.66-2.162,37.02,26.017,16.815,28.745,13.975a3.613,3.613,0,0,0-.051-5.353Z" transform="translate(-193.678 -379.167)" fill="#f7a26e"/>
          <path id="Trazado_108790" data-name="Trazado 108790" d="M223.242,545.636a30.7,30.7,0,0,0-6.809-6.859,6.587,6.587,0,0,0-3.6,1.287c-7.507,5.377-7.653,25.66-2.162,37.02,2.535,5.262,8.315,9.259,14.055,11.749,4.145,1.06,6.3.209,7.3-.831,2.727-2.839.835-6.475.835-6.475Z" transform="translate(-193.678 -379.19)" fill="#fcbb8b"/>
          <path id="Trazado_108791" data-name="Trazado 108791" d="M236.039,593.4c-3.819-1.869-.661-3.165,2.491-5.093s-2.739-17.443-11.229-15.746-4,18.728-4,18.728-1.229-14.247,6.876-16.217c3.447-.84,7.911,5.642,2.223,12.335s4.616,8.835,1.541,8.546-7.123-5.9-7.123-5.9,1.656,7.844,5.685,9.065,10.242-.089,10.242-.089A22.068,22.068,0,0,0,236.039,593.4Z" transform="translate(-204.126 -402.201)" fill="#f7a26e"/>
          <path id="Trazado_108792" data-name="Trazado 108792" d="M820.733,465.12c-7.87-4.19-14.886,9.475-14.886,9.475l-4.686,37.553a3.488,3.488,0,0,0,.631,5.128c2.971,2.37,21.917-5.46,25.717-17.022S828.6,469.309,820.733,465.12Z" transform="translate(-599.487 -328.277)" fill="#f7a26e"/>
          <path id="Trazado_108793" data-name="Trazado 108793" d="M838.164,465.122a6.344,6.344,0,0,0-3.606-.774,29.609,29.609,0,0,0-5.643,7.428L826,508.051a5.058,5.058,0,0,0,1.817,5.537c1.087.867,1.343,1.234,5.173-.306,5.173-3.113,10.193-7.67,11.948-13.026C848.749,488.693,846.03,469.311,838.164,465.122Z" transform="translate(-616.919 -328.279)" fill="#fcbb8b"/>
          <path id="Trazado_108794" data-name="Trazado 108794" d="M829.965,498.091c-8.334-.542-12,15.042-8.737,16.49s6.445,2.28,3.032,4.552a21.271,21.271,0,0,0-5.7,6.243s6.109.464,9.806-1.216,4.285-9.394,4.285-9.394-3.164,5.871-6.063,6.545,6.671-2.689.389-8.369-2.846-12.448.554-12.082c8,.853,8.642,14.639,8.642,14.639S838.3,498.632,829.965,498.091Z" transform="translate(-611.982 -351.359)" fill="#f7a26e"/>
          <path id="Trazado_108795" data-name="Trazado 108795" d="M387.9,249.415c-11.689-1.96-23.492-1.357-35.167.439a211.1,211.1,0,0,0-34.357,8.355,217.733,217.733,0,0,0-31.882,13.36,51.545,51.545,0,0,0-12.316,9.19c-2.16,2.1-4.316,4.227-6.67,6.1a80.632,80.632,0,0,0-4.54,32.5c1.337,18.762,3.942,33.95,9.18,60.685,8.512,43.448,71.8,70.707,94.818,67.372,24.874-3.6,65.521-32.068,71.626-72.936,2.619-17.514.741-33.53-.739-54.192-2.074-28.98-19.725-52.31-37.25-67.921A122.378,122.378,0,0,0,387.9,249.415Z" transform="translate(-231.924 -180.49)" fill="#fcbb8b"/>
          <path id="Trazado_108796" data-name="Trazado 108796" d="M447.551,369.471s-93.459.748-94.3,1.566c-2.16,2.1-52.633,32.582-43.657,89.814,6.86,43.74,68.078,69.209,91.093,65.873,24.874-3.6,57.932-31.171,64.037-72.04C467.344,437.171,454.1,381.978,447.551,369.471Z" transform="translate(-263.214 -263.417)" fill="#ffd3a9"/>
          <path id="Trazado_108797" data-name="Trazado 108797" d="M587.812,446.18c-2.544,2.8-6.394,23.02-1.175,16.17,5.026-6.6,16.7-20.531,24.594-24.515a106.745,106.745,0,0,1,10.874-5.014S596.436,436.694,587.812,446.18Z" transform="translate(-451.615 -306.737)" fill="url(#linear-gradient)"/>
          <path id="Trazado_108798" data-name="Trazado 108798" d="M397.585,475.31c3.243,1.947,12.761,20.2,5.788,15.144-6.715-4.868-21.908-14.844-30.619-16.382a106.705,106.705,0,0,0-11.858-1.665S386.591,468.714,397.585,475.31Z" transform="translate(-299.026 -333.101)" fill="url(#linear-gradient-2)"/>
          <path id="Trazado_108799" data-name="Trazado 108799" d="M541.727,584.133c-5.765,0-9.212,14.393-7.485,16.7s9.212,4.894,13.818,1.439S545.181,584.133,541.727,584.133Z" transform="translate(-417.256 -410.205)" fill="#ffd9b5"/>
          <path id="Trazado_108800" data-name="Trazado 108800" d="M548.635,602.978c-3.455.963-5.843,10.343,3.317,11.4C561.2,615.441,552.09,602.014,548.635,602.978Z" transform="translate(-425.297 -423.057)" fill="url(#linear-gradient-3)"/>
          <path id="Trazado_108801" data-name="Trazado 108801" d="M387.9,249.415c-11.689-1.96-23.492-1.357-35.167.439a211.1,211.1,0,0,0-34.357,8.355,217.733,217.733,0,0,0-31.882,13.36,51.545,51.545,0,0,0-12.316,9.19c-2.16,2.1-4.316,4.227-6.67,6.1a80.632,80.632,0,0,0-4.54,32.5c1.264,17.734,3.662,32.279,8.344,56.4,3.778-27.333.869-55.756,14.895-81.081.386,3.74-.722,7.634.412,11.3a54.3,54.3,0,0,0,5.187-15.654,39.274,39.274,0,0,1-1.371,16.016c10.086-4.82,22.493-9.125,28.3-18.8-.285,4.565-2.968,7.866-4,12.509,4.928-3.533,7.532-7.582,11.635-11.785a49.849,49.849,0,0,1-5.264,14.906c8.745-3.171,14.111-9.772,19.4-17.121.542,5.236,1,9.724-1.524,14.52a33.472,33.472,0,0,0,14.781-10.6c.309,2.992-2.529,4.8-2.22,7.789,1.342-1.65,3.354-4.126,4.7-5.777,1.289,5.159-2.143,8.537-3.175,13.179,9.622-9.309,21.051-15.781,28.2-27.1-.053,6.81-.854,13.7-3.977,20.066,7.326-2.269,11.118-9.464,14.241-15.834a58.109,58.109,0,0,1-.338,11.374c4.488-.463,5.521-5.105,8.281-7.658-1.7,5.468,1.082,10.472-.623,15.94,5.237-.541,13.842-12.65,13.842-12.65l3.561,13.744s3.826-7.822,4.858-12.464c14.131,19.708,12.78,46.45,14.426,69.715.719,14.29-3.29,30.555-7.406,42.2-.13.347-.251.7-.368,1.05a77.381,77.381,0,0,0,10.838-29.061c2.619-17.514.741-33.53-.739-54.192-2.074-28.98-19.725-52.31-37.25-67.921A122.378,122.378,0,0,0,387.9,249.415Z" transform="translate(-231.924 -180.49)" fill="#fcbb8b"/>
          <path id="Trazado_108802" data-name="Trazado 108802" d="M686.549,571.078c-10.36,2.978-17.317,10.916-15.545,17.728s11.6,9.923,21.955,6.945,17.317-10.917,15.547-17.728S696.9,568.1,686.549,571.078Z" transform="translate(-510.892 -400.505)" fill="#fabfa1"/>
          <path id="Trazado_108803" data-name="Trazado 108803" d="M348.182,598.764c-10.71-1.688-19.973,2.589-20.681,9.557s7.4,13.978,18.118,15.665,19.976-2.59,20.685-9.557S358.9,600.451,348.182,598.764Z" transform="translate(-276.16 -419.958)" fill="#fabfa1"/>
          <path id="Trazado_108804" data-name="Trazado 108804" d="M523.507,625.326s.734,13.132,12.651,12.7c9.546-.346,14.716-6.375,10.131-15.948.4,4.584,1.618,7.146-3.1,8.367C536.408,632.2,526.292,634.934,523.507,625.326Z" transform="translate(-410.22 -436.151)" fill="#f7a26e"/>
        </g>
        <g id="Grupo_85825" data-name="Grupo 85825" transform="translate(25.076 36.383)">
          <path id="Trazado_108805" data-name="Trazado 108805" d="M419.885,218.811c-7.116-10.492-21.946-14.963-33.012-21.146-6.429-3.593-13.033-7-20.114-9.029-10.9-3.128-22.493-2.878-33.743-1.466-17.889,2.246-35.661,7.5-50.67,17.485s-30.684,18.964-34.918,36.488a114.184,114.184,0,0,0-2.876,28.355c.452,22.256.753,32.823,14.723,66.1.381-11.545-1.912-23.354-1.493-34.9.93-25.541,5.869-44.191,20.322-61.471q-1.868,8.963-2.864,18.078a93.492,93.492,0,0,1,10.5-23.174,270.543,270.543,0,0,1-6.051,26.584c15.595-7.407,26.108-22.235,35.913-36.445a79.253,79.253,0,0,1-10.163,27.137,150.985,150.985,0,0,0,16.444-22.148q-4.848,14.52-9.7,29.039,12.424-15.485,23.265-32.157a76.384,76.384,0,0,0-3.516,26.748,52.977,52.977,0,0,0,14.232-19.487,38.771,38.771,0,0,1-2.981,14.582,102.167,102.167,0,0,0,8.463-14.177,126.7,126.7,0,0,1-8.705,24.291,72.8,72.8,0,0,0,28.516-32.247,35.289,35.289,0,0,1,.417,24.425,57.4,57.4,0,0,0,11.661-18.32q-.085,5.726-.17,11.45a76.1,76.1,0,0,0,6.835-9.349q.586,10.116,1.175,20.231a28.261,28.261,0,0,0,9.454-18.061q1.209,10.941,3.167,21.781a65,65,0,0,0,6.794-21.688c9.694,26.51,13.894,56.745,16.413,84.859,6.99-22.718,7.17-55.952,1.362-79C426.2,232.779,425.328,226.838,419.885,218.811Z" transform="translate(-244.527 -174.456)" fill="#382018"/>
          <path id="Trazado_108806" data-name="Trazado 108806" d="M421.575,189.229c-7.116-10.492-42.961-41.678-84.456-40.04-40.432,1.6-80.175,38.438-84.408,55.963-2.178,9.023-4.526,66.451,5.441,82.65.381-11.546.265-58.859,25.354-81.293-1.245,5.975-3.315,19.4-3.977,25.47a93.492,93.492,0,0,1,10.5-23.174,270.533,270.533,0,0,1-6.051,26.584c15.595-7.407,27.843-31.648,37.648-45.857-1.681,9.568-6.881,28.231-11.9,36.549,6.141-6.86,12.738-22.841,17.528-30.706-1.084,8.558-7.549,27.918-10.78,37.6,8.283-10.323,17.44-28.311,24.653-39.408-2.745,8.612-5.331,24.968-4.9,34,6.159-5.286,11.467-19.4,14.627-26.875-.039,4.991-1.454,17.363-3.376,21.97a102.166,102.166,0,0,0,8.463-14.177,126.7,126.7,0,0,1-8.705,24.291c10.785-11.09,20.375-23.782,26.339-37.075,3.041,7.742,5.369,21.412,2.594,29.253,5.005-5.291,9.443-19.651,12.117-26.426-.057,3.817-.569,15.739-.626,19.555,2.512-2.936,4.1-12.683,6.138-15.967.393,6.743,1.48,20.106,1.872,26.849,5.252-4.562,7.481-19.052,8.236-25.965.808,7.293,3.081,22.465,4.385,29.686,3.515-6.755,3.162-20.215,4.129-27.768,9.693,26.511,18.488,59.29,18.488,59.29s5.059-29.19-.749-52.239C427.79,202.563,427.018,197.254,421.575,189.229Z" transform="translate(-248.816 -149.126)" fill="#553026"/>
          <path id="Trazado_108807" data-name="Trazado 108807" d="M418.13,224.323a58.34,58.34,0,0,0-15.419,8.2,10.753,10.753,0,0,1,.638-5.831,16.786,16.786,0,0,0-12.459,10.843,79.325,79.325,0,0,1,9.408-3.526,34.99,34.99,0,0,0-3.521,9.5l8.507-5.619a38.955,38.955,0,0,0-.856,5.894c5.866-3.94,9.806-10.531,16.2-13.532q-.024,2.259-.047,4.518a22.08,22.08,0,0,0,5.616-3.959,5.746,5.746,0,0,1-.862,2.244,15.506,15.506,0,0,0,2.04-9.744q-4.532,2.052-8.954,4.338Q418.277,225.988,418.13,224.323Z" transform="translate(-344.611 -199.856)" fill="#734033"/>
          <path id="Trazado_108808" data-name="Trazado 108808" d="M583.173,230.077c-.738-.274-.917-1.219-.982-2q-.2-2.451-.407-4.9l-7.008,5.68a11.22,11.22,0,0,1-.466-6.207q-2.944,1.521-5.733,3.318l-.575,3.9-.5.052q.141-.517.281-1.034a16.189,16.189,0,0,0-1.1,7.436l5.015-4.86a21.038,21.038,0,0,1,.169,7.279l4.353-4.355a3.965,3.965,0,0,1,.139,2.059,2.44,2.44,0,0,0,.476,1.965c.5.489,1.573.306,1.618-.389.816,3.674.4,7.5-.021,11.238a43.545,43.545,0,0,0,11.059-21.9l-4.672,2.395A2.128,2.128,0,0,1,583.173,230.077Z" transform="translate(-464.779 -199.399)" fill="#734033"/>
        </g>
        <g id="Grupo_85826" data-name="Grupo 85826" transform="translate(133.775 123.116)">
          <path id="Trazado_108809" data-name="Trazado 108809" d="M635.632,509.107c-15.3,3.119-19.806,17.538-19.621,20.217s8.046,1.363,19.707-.6,13.11-3.221,17.042-5.675,9.184-9.872,7.265-11.662S643.095,507.586,635.632,509.107Z" transform="translate(-607.247 -481.65)" fill="#e1e4f4"/>
          <path id="Trazado_108810" data-name="Trazado 108810" d="M641.106,525.878c-15.577,1.056-25.274,12.557-25.089,15.237s8.046,1.363,19.707-.6,13.11-3.221,17.042-5.675S653.428,525.043,641.106,525.878Z" transform="translate(-607.253 -493.441)" fill="#fff"/>
          <path id="Trazado_108811" data-name="Trazado 108811" d="M661.072,518.736a7.88,7.88,0,1,0,8.408,7.312A7.881,7.881,0,0,0,661.072,518.736Z" transform="translate(-633.05 -488.589)" fill="#553026"/>
          <path id="Trazado_108812" data-name="Trazado 108812" d="M671,533.782a24.958,24.958,0,0,0-10.759,3.462c0,.02,0,.04,0,.061A5.837,5.837,0,1,0,671,533.782Z" transform="translate(-637.496 -498.891)" fill="#7b4437"/>
          <path id="Trazado_108813" data-name="Trazado 108813" d="M668.387,529.093a4.6,4.6,0,1,0,4.912,4.271A4.6,4.6,0,0,0,668.387,529.093Z" transform="translate(-640.137 -495.676)" fill="#1d1008"/>
          <path id="Trazado_108814" data-name="Trazado 108814" d="M686.259,532.615a2.005,2.005,0,1,0,2.14,1.861A2,2,0,0,0,686.259,532.615Z" transform="translate(-654.01 -498.089)" fill="#fff"/>
          <path id="Trazado_108815" data-name="Trazado 108815" d="M657.267,500.608c-10.148-2.114-22.78-3.028-31.849,2.989S613.137,522.405,615.3,524.05c0,0,2.725-16.09,16.091-19.33s23.094.185,25.243,1.575-1.55,7.423-3.721,9.37,1.589.524,6.208-3.132S667.416,502.721,657.267,500.608Z" transform="translate(-606.322 -475.108)" fill="#3a1e16"/>
          <path id="Trazado_108816" data-name="Trazado 108816" d="M596.9,429.951c7.05-6.12,13.309-6.849,24.635-6.417,7.516.287,18,8.547,17.727,10.689s-9.183-3.4-26.621-2.5c-12.351.643-20.06,12.237-24.028,15.09C587.368,447.711,589.848,436.072,596.9,429.951Z" transform="translate(-588.304 -423.433)" fill="#3a1e16"/>
        </g>
        <g id="Grupo_85827" data-name="Grupo 85827" transform="translate(50.42 132.209)">
          <path id="Trazado_108817" data-name="Trazado 108817" d="M364.893,535.038c-7.615.006-21.921,4.98-23.442,7.118s5.11,8.353,9.454,9.969,6.017,2.555,17.835,2.145,19.781-.695,19.428-3.357S380.506,535.028,364.893,535.038Z" transform="translate(-335.997 -508.842)" fill="#e1e4f4"/>
          <path id="Trazado_108818" data-name="Trazado 108818" d="M377.459,555.654c-13.367,1.88-14.746,8.715-10.4,10.331s6.017,2.555,17.835,2.145,19.781-.695,19.428-3.357S392.92,553.48,377.459,555.654Z" transform="translate(-352.15 -522.702)" fill="#fff"/>
          <path id="Trazado_108819" data-name="Trazado 108819" d="M410.356,542.053a7.88,7.88,0,1,0,8.409,7.313A7.882,7.882,0,0,0,410.356,542.053Z" transform="translate(-378.253 -513.626)" fill="#553026"/>
          <path id="Trazado_108820" data-name="Trazado 108820" d="M420.286,557.1a24.951,24.951,0,0,0-10.758,3.462c0,.021,0,.04,0,.061a5.837,5.837,0,1,0,10.757-3.523Z" transform="translate(-382.701 -523.929)" fill="#7b4437"/>
          <path id="Trazado_108821" data-name="Trazado 108821" d="M417.671,552.411a4.6,4.6,0,1,0,4.911,4.271A4.6,4.6,0,0,0,417.671,552.411Z" transform="translate(-385.341 -520.714)" fill="#1d1008"/>
          <path id="Trazado_108822" data-name="Trazado 108822" d="M435.544,555.932a2.006,2.006,0,1,0,2.14,1.861A2,2,0,0,0,435.544,555.932Z" transform="translate(-399.215 -523.127)" fill="#fff"/>
          <path id="Trazado_108823" data-name="Trazado 108823" d="M364.082,454.578c-8.516-3.827-14.719-2.72-25.439.96-7.114,2.443-14.77,13.375-13.891,15.347s7.811-5.907,24.77-10.067c12.012-2.947,22.737,5.932,27.359,7.519C378.33,468.834,372.6,458.406,364.082,454.578Z" transform="translate(-324.683 -452.191)" fill="#3a1e16"/>
          <path id="Trazado_108824" data-name="Trazado 108824" d="M364.984,528.386c-10.091-4.078-22.282-.651-31.8,3.454s-4.686,9.4.571,12.054,9.544,3.4,7.024,1.928-7.664-6.747-5.838-8.539,10.671-7.1,24.416-6.6S378.991,546.4,378.991,546.4C380.785,544.351,375.076,532.464,364.984,528.386Z" transform="translate(-326.78 -503.04)" fill="#3a1e16"/>
        </g>
        <g id="Grupo_85828" data-name="Grupo 85828" transform="translate(105.354 206.511)">
          <path id="Trazado_108825" data-name="Trazado 108825" d="M542.914,818.724s9.507,7.053,17.093,5.836,10.148-6.754,10.148-6.754Z" transform="translate(-528.845 -776.504)" fill="#f7a26e"/>
          <path id="Trazado_108826" data-name="Trazado 108826" d="M521.548,690.726c6.084-1.248,13.435-1.983,19.062.316s8.842,12.044,9.95,18.642c1.058,6.3-6.742,18.212-15.564,20.552-14.55,3.859-33.138,4.418-35.54-7.4s-.474-24.757,4.144-27.248S510.8,692.93,521.548,690.726Z" transform="translate(-498.419 -688.8)" fill="#752e22"/>
          <path id="Trazado_108827" data-name="Trazado 108827" d="M548.418,694.561c-3.507,2.855-13.344,4.345-20.845,5.7s-12.159-.045-13.175-1.56a4.592,4.592,0,0,1-.988-4.131,4.506,4.506,0,0,1,.383-.24c5.013-2.69,6.763-.553,18.362-3.05,5.864-1.262,11.883-3.608,17.386-2.454A4.414,4.414,0,0,1,548.418,694.561Z" transform="translate(-508.573 -688.095)" fill="#fff"/>
          <path id="Trazado_108828" data-name="Trazado 108828" d="M558.58,767.992s-4.33-8.529-6.447-8.073.8,3.414-5.061,6.194-22.017,3.665-26.234,2.336-1.859-5.685-4.855-5.061-4.195,8.663-4.4,11.891,15.96,10.761,27.977,7.6S557.886,770.6,558.58,767.992Z" transform="translate(-507.418 -736.908)" fill="#fff"/>
          <path id="Trazado_108829" data-name="Trazado 108829" d="M550.455,744.161s4.812,20.6-23.944,23.005-27.363-14.255-27.363-14.255-4.37,23.063,28.384,20.223S550.455,744.161,550.455,744.161Z" transform="translate(-498.785 -726.144)" fill="#ffd3a9"/>
          <path id="Trazado_108830" data-name="Trazado 108830" d="M561.964,763.389s5.218-6.511-6.607-8.15-23.915,2.074-26.8,5.293-1.979,6.2,2.753,7.091S552.3,769.436,561.964,763.389Z" transform="translate(-517.898 -733.445)" fill="#dc0a18"/>
          <path id="Trazado_108831" data-name="Trazado 108831" d="M504.139,698.588s.358-4.332,15.146-6.463,20.5-3.807,23.986-3.019a10.64,10.64,0,0,1,5.685,3.989s-2.469-6.116-10.432-5.91-12.19,1.36-16.151,1.521-9.654,1.185-13.909,3.947S504.139,698.588,504.139,698.588Z" transform="translate(-502.33 -687.181)" fill="#f7a26e"/>
        </g>
        <g id="Grupo_85829" data-name="Grupo 85829" transform="translate(24.658 184.47)">
          <path id="Trazado_108832" data-name="Trazado 108832" d="M279.691,843.424c-4.639,10.206-23,34.388-30.7,47.307s-9.242,25,5.013,37.595,28,4.243,37.608-12.847,16.593-55.821,19.411-65.684a134.432,134.432,0,0,1,7.152-18.852L285.33,811.364S287.523,826.193,279.691,843.424Z" transform="translate(-243.208 -750.058)" fill="#ffd3a9"/>
          <path id="Trazado_108833" data-name="Trazado 108833" d="M385.94,751.915c2.611,4.7,14,16.48,15.524,22.409s-3.747,15.333-9.676,16.856-23.288-3.76-28.3-9.5c-4.891-5.6-7.274-12.569-9.4-19.842S385.94,751.915,385.94,751.915Z" transform="translate(-318.964 -709.406)" fill="#f7a26e"/>
          <path id="Trazado_108834" data-name="Trazado 108834" d="M362.884,755.318c2.819,4.7,11.7,13.355,13.228,19.284s-2.28,16.128-8.21,17.651-20.874-5.787-26.585-10.553-19.761-20.023-21.885-27.3S362.884,755.318,362.884,755.318Z" transform="translate(-295.281 -709.05)" fill="#ffd3a9"/>
          <path id="Trazado_108835" data-name="Trazado 108835" d="M305.277,678.7c-2.52-1.161-7.164-15.033-8.22-19.087s-2.025-19.179-.141-22.182c1.3-2.066,5.506-3.282,7.208,2.143s.706,16.172,3.388,20.187,8.408,12.382,9.661,15.712S307.8,679.861,305.277,678.7Z" transform="translate(-279.202 -629.925)" fill="#f7a26e"/>
          <path id="Trazado_108836" data-name="Trazado 108836" d="M306.443,680.577c-1.816-2.6-6.767-16.414-7.823-20.467s-2.122-18-.239-21c1.3-2.066,4.122-4.015,5.825,1.409s.8,16.791,3.485,20.806,9.256,11.72,10.509,15.05S308.259,683.175,306.443,680.577Z" transform="translate(-280.229 -630.827)" fill="#ffd3a9"/>
          <path id="Trazado_108837" data-name="Trazado 108837" d="M332.2,666.218c-2.744-2.37-5.823-16.261-6.237-20.429s1.651-24.117,4.087-26.692c2.121-2.243,6.086-2.853,6.925,2.77s-1.5,20.054.522,24.437,8.184,14.367,8.9,17.851S334.94,668.588,332.2,666.218Z" transform="translate(-299.758 -617.475)" fill="#f7a26e"/>
          <path id="Trazado_108838" data-name="Trazado 108838" d="M333.647,667.541s-5.149-16.477-5.563-20.646,1.538-22.638,3.342-25.69c1.358-2.3,5.323-3.221,6.162,2.4s-1.712,19.74.313,24.123,9.228,14.263,9.948,17.747S337.82,673.769,333.647,667.541Z" transform="translate(-301.208 -618.798)" fill="#ffd3a9"/>
          <path id="Trazado_108839" data-name="Trazado 108839" d="M373.385,684.278c-2.309-1.539-4.924-16.69-5.337-20.859s1.537-19.256,3.864-21.93c1.6-1.839,5.949-2.386,6.788,3.237s-1.816,16.085.209,20.468,6.381,13.538,7.1,17.022S375.694,685.817,373.385,684.278Z" transform="translate(-328.536 -633.024)" fill="#f7a26e"/>
          <path id="Trazado_108840" data-name="Trazado 108840" d="M374.941,685.255s-4.193-16.377-4.606-20.545,1.119-18.734,3.446-21.408c1.6-1.839,4.7-3.325,5.535,2.3s-1.816,16.712.209,21.095,7.321,13.016,8.041,16.5S379.113,691.483,374.941,685.255Z" transform="translate(-330.092 -634.001)" fill="#ffd3a9"/>
          <path id="Trazado_108841" data-name="Trazado 108841" d="M412.679,699.6c-1.932-1.891-4.368-16.686-4.782-20.854s1.239-13.5,3.372-16.333c1.491-1.979,5.489-.912,5.709,4.769.209,5.4-1.538,8.705.487,13.089s6.347,10.406,7.066,13.889S414.611,701.488,412.679,699.6Z" transform="translate(-355.78 -647.575)" fill="#f7a26e"/>
          <path id="Trazado_108842" data-name="Trazado 108842" d="M413.413,701.256s-4.025-17.25-4.438-21.419,1.1-11.789,3.237-14.62c1.491-1.979,3.965-2.281,4.8,3.342s-2.13,8.044-.1,12.427,6.025,11.491,8.635,16.4C427.217,700.526,417.586,707.484,413.413,701.256Z" transform="translate(-356.514 -649.233)" fill="#ffd3a9"/>
        </g>
        <g id="Grupo_85830" data-name="Grupo 85830" transform="translate(160.166 163.892)">
          <path id="Trazado_108843" data-name="Trazado 108843" d="M747.853,774.723c7.5,8.33,32.3,25.843,43.548,35.834s16.356,21.044,6.568,37.354-25.41,12.5-39.732-.9-32.667-48.21-38.33-56.762A134.421,134.421,0,0,0,707.4,774.438l25.4-28.578S735.185,760.66,747.853,774.723Z" transform="translate(-696.133 -684.688)" fill="#ffd3a9"/>
          <path id="Trazado_108844" data-name="Trazado 108844" d="M679.068,705.378c-1.071,5.268-7.623,20.149-7.286,26.262s6.906,13.843,13.019,13.506,21.61-11.182,24.655-18.17c2.972-6.819,3.142-14.178,2.972-21.753S679.068,705.378,679.068,705.378Z" transform="translate(-671.769 -654.625)" fill="#f7a26e"/>
          <path id="Trazado_108845" data-name="Trazado 108845" d="M681.835,691.109c-1.27,5.331-7.127,16.265-6.791,22.378s7.041,14.687,13.154,14.35,18.154-11.817,22.161-18.084,12.8-25.053,12.626-32.629S681.835,691.109,681.835,691.109Z" transform="translate(-674 -636.582)" fill="#ffd3a9"/>
          <path id="Trazado_108846" data-name="Trazado 108846" d="M797.518,600.327c2.052-1.868,2.293-16.494,2.077-20.678s-3.859-18.9-6.56-21.19c-1.858-1.579-6.24-1.467-6.226,4.219s4.208,15.631,2.863,20.268-4.279,14.343-4.468,17.895S795.467,602.2,797.518,600.327Z" transform="translate(-749.335 -555.946)" fill="#f7a26e"/>
          <path id="Trazado_108847" data-name="Trazado 108847" d="M797.681,602.406c.947-3.025,1.5-17.691,1.281-21.874s-3.409-17.8-6.11-20.092c-1.858-1.579-5.142-2.584-5.128,3.1s4.3,16.251,2.956,20.888-5.286,13.967-5.476,17.519S796.733,605.431,797.681,602.406Z" transform="translate(-749.335 -557.053)" fill="#ffd3a9"/>
          <path id="Trazado_108848" data-name="Trazado 108848" d="M765.864,598.667c1.9-3.088.644-17.26-.22-21.359s-8.853-22.494-11.953-24.214c-2.7-1.5-6.663-.883-5.766,4.731s7.486,18.665,6.878,23.455-3.466,16.167-3.1,19.706S763.964,601.754,765.864,598.667Z" transform="translate(-723.757 -552.394)" fill="#f7a26e"/>
          <path id="Trazado_108849" data-name="Trazado 108849" d="M767.864,599.671s-.064-17.263-.927-21.362-8.3-21.118-10.94-23.483c-1.988-1.781-6.047-1.465-5.149,4.149s7.59,18.3,6.982,23.093-4.493,16.383-4.128,19.922S765.765,606.867,767.864,599.671Z" transform="translate(-725.756 -553.398)" fill="#ffd3a9"/>
          <path id="Trazado_108850" data-name="Trazado 108850" d="M732.882,627.835c1.737-2.164-.343-17.4-1.207-21.5s-7.277-17.894-10.3-19.741c-2.081-1.271-6.392-.479-5.494,5.135s6.586,14.787,5.979,19.577-2,14.833-1.632,18.372S731.145,630,732.882,627.835Z" transform="translate(-701.848 -575.424)" fill="#f7a26e"/>
          <path id="Trazado_108851" data-name="Trazado 108851" d="M734.694,629.127s-.946-16.878-1.81-20.977-6.721-17.523-9.747-19.37c-2.081-1.271-5.481-1.753-4.583,3.861s6.776,15.384,6.168,20.174-3.052,14.619-2.686,18.157S732.6,636.324,734.694,629.127Z" transform="translate(-703.66 -576.715)" fill="#ffd3a9"/>
          <path id="Trazado_108852" data-name="Trazado 108852" d="M703.5,653.46c1.271-2.386-.871-17.226-1.735-21.325s-5.256-12.5-8.145-14.554c-2.019-1.437-5.508.787-4,6.269,1.43,5.207,4.093,7.836,3.486,12.625s-2.91,11.836-2.545,15.374S702.23,655.845,703.5,653.46Z" transform="translate(-683.724 -596.678)" fill="#f7a26e"/>
          <path id="Trazado_108853" data-name="Trazado 108853" d="M705.135,655.386s-1.369-17.661-2.233-21.76-4.611-10.906-7.5-12.961c-2.019-1.437-4.469-.978-3.571,4.636s4.458,7.026,3.85,11.816-2.133,12.428-3.141,17.895C691.9,658.51,703.036,662.583,705.135,655.386Z" transform="translate(-685.357 -598.604)" fill="#ffd3a9"/>
        </g>
      </g>
    </g>
  </g>
</svg>
