<svg xmlns="http://www.w3.org/2000/svg" xmlns:xlink="http://www.w3.org/1999/xlink" width="399" height="472.365" viewBox="0 0 399 472.365">
  <defs>
    <linearGradient id="linear-gradient" x1="1.147" y1="0.494" x2="-0.045" y2="0.505" gradientUnits="objectBoundingBox">
      <stop offset="0" stop-color="#a8a8a7"/>
      <stop offset="0.037" stop-color="#acacab"/>
      <stop offset="0.23" stop-color="#bcbcbb"/>
      <stop offset="0.441" stop-color="#c6c5c5"/>
      <stop offset="0.707" stop-color="#cac9c9"/>
      <stop offset="1" stop-color="#a8a8a7"/>
    </linearGradient>
    <radialGradient id="radial-gradient" cx="0.496" cy="0.437" r="3.053" gradientTransform="translate(0.41) scale(0.18 1)" gradientUnits="objectBoundingBox">
      <stop offset="0" stop-color="#a9723f"/>
      <stop offset="1" stop-color="#cb8547"/>
    </radialGradient>
  </defs>
  <g id="Grupo_87750" data-name="Grupo 87750" transform="translate(-181 -31836.586)">
    <rect id="Rectángulo_33964" data-name="Rectángulo 33964" width="399" height="472" transform="translate(181 31836.586)" fill="#ffb7ad"/>
    <g id="Grupo_85870" data-name="Grupo 85870" transform="translate(33.726 31252.371)">
      <g id="Businessman" transform="translate(-80 583.097)">
        <g id="Grupo_85846" data-name="Grupo 85846" transform="translate(363.605 400.373)">
          <path id="Trazado_108945" data-name="Trazado 108945" d="M550.6,1238.587c-1.042-31.789-2.6-33.984-5.091-65.5H422.716c-.3,12.12-1.022,38.371-1.58,65.5Z" transform="translate(-421.136 -1165.479)" fill="#1a2732"/>
          <path id="Trazado_108946" data-name="Trazado 108946" d="M456.7,1175.192c5.7-1.141,21.444,2.792,20.655,16.86-6.846,4-20.405,2.564-27.249,7.128,7.985,2.282,15.97,2.851,23.385,6.843a45.7,45.7,0,0,1-11.978,2.853c3.422,5.134,13.118,2.851,13.689,7.416,0,3.422-7.985,0-11.408,2.851-1.141,1.711,1.141,2.853,2.282,3.422,4.262,1.162,8.523,2.327,11.89,4.919H481.2c-3.7-23.926,1.81-41.654,2.732-66.381l-59.441-4.588s-.419,16.4-.91,39.144C429.719,1169.711,445.956,1177.045,456.7,1175.192Z" transform="translate(-422.772 -1154.375)" fill="#131d26"/>
          <path id="Trazado_108947" data-name="Trazado 108947" d="M607.725,1200.587c2.189,4.69,2.318,23.07,1.652,38h6.646a.619.619,0,0,1-.312-.355c-2.853-7.416,7.414-11.408,12.548-15.4-4.563-3.422-8.555,1.141-12.548,2.282,3.421-9.7-.8-39.165,5.471-34.6,14.755-2.529,42.153-10.959,48.238,35.48-1.023-20.526-2.462-26.151-4.58-52.9H601.413c-.563,7.57-1.424,15.113-2.18,22.651C602.537,1197.369,606.5,1197.969,607.725,1200.587Z" transform="translate(-540.469 -1165.479)" fill="#131d26"/>
          <path id="Trazado_108948" data-name="Trazado 108948" d="M550.522,1164.321c-.724-11.757-2.884-14.292-2.884-14.292s-26.664,3.708-47.768,3.422-74.176-1.281-74.176-1.281-.124,4.865-.317,12.963C466.844,1169.479,509.177,1169.978,550.522,1164.321Z" transform="translate(-423.977 -1150.029)" fill="#3d0e00"/>
          <path id="Trazado_108949" data-name="Trazado 108949" d="M688.366,1150.029s-26.664,3.708-47.768,3.422c-1.567-.021-3.311-.046-5.193-.076,1.4,5.083,2.263,10.657,5.1,14.948a458.109,458.109,0,0,0,50.751-4C690.527,1152.564,688.366,1150.029,688.366,1150.029Z" transform="translate(-564.705 -1150.029)" fill="#230800"/>
          <path id="Trazado_108950" data-name="Trazado 108950" d="M481.109,1157.5c-24.088-.4-55.416-.99-55.416-.99s-.124,4.865-.317,12.963c17.832,1.871,35.823,3.024,53.828,3.286A26.966,26.966,0,0,1,481.109,1157.5Z" transform="translate(-423.977 -1154.375)" fill="#230800"/>
          <path id="Trazado_108951" data-name="Trazado 108951" d="M604.7,1154.825H587.4a3.708,3.708,0,0,0-3.709,3.708V1168.8a3.708,3.708,0,0,0,3.709,3.708h17.3a3.708,3.708,0,0,0,3.708-3.708v-10.264A3.708,3.708,0,0,0,604.7,1154.825Zm.728,11.879a2.477,2.477,0,0,1-2.687,2.195H590.215a2.476,2.476,0,0,1-2.686-2.195v-6.078a2.478,2.478,0,0,1,2.686-2.2h12.529a2.478,2.478,0,0,1,2.687,2.2Z" transform="translate(-530.055 -1153.242)" fill="url(#linear-gradient)"/>
          <path id="Trazado_108952" data-name="Trazado 108952" d="M604.124,1172.209h-17.3a4,4,0,0,1-3.993-3.993v-10.264a4,4,0,0,1,3.993-3.995h17.3a4,4,0,0,1,3.994,3.995v10.264A4,4,0,0,1,604.124,1172.209Zm-17.3-17.681a3.427,3.427,0,0,0-3.422,3.424v10.264a3.425,3.425,0,0,0,3.422,3.423h17.3a3.426,3.426,0,0,0,3.422-3.423v-10.264a3.428,3.428,0,0,0-3.422-3.424Zm15.345,14.077H589.636a2.763,2.763,0,0,1-2.971-2.481v-6.077a2.764,2.764,0,0,1,2.971-2.484h12.529a2.764,2.764,0,0,1,2.971,2.484v6.077A2.763,2.763,0,0,1,602.166,1168.6Zm-12.529-10.471a2.2,2.2,0,0,0-2.4,1.913v6.077a2.2,2.2,0,0,0,2.4,1.911h12.529a2.2,2.2,0,0,0,2.4-1.911v-6.077a2.2,2.2,0,0,0-2.4-1.913Z" transform="translate(-529.476 -1152.661)" fill="#373736"/>
          <path id="Trazado_108953" data-name="Trazado 108953" d="M601.547,1180.172a.57.57,0,1,1-.57-.57A.57.57,0,0,1,601.547,1180.172Z" transform="translate(-541.255 -1169.844)" fill="#230800"/>
          <path id="Trazado_108954" data-name="Trazado 108954" d="M621.715,1182.477a.57.57,0,1,1-.57-.57A.571.571,0,0,1,621.715,1182.477Z" transform="translate(-554.768 -1171.389)" fill="#230800"/>
          <path id="Trazado_108955" data-name="Trazado 108955" d="M643.359,1180.427a.57.57,0,1,1-.57-.571A.569.569,0,0,1,643.359,1180.427Z" transform="translate(-569.272 -1170.015)" fill="#230800"/>
          <path id="Trazado_108956" data-name="Trazado 108956" d="M661.473,1180.749a.57.57,0,1,1-.57-.571A.571.571,0,0,1,661.473,1180.749Z" transform="translate(-581.409 -1170.23)" fill="#230800"/>
          <path id="Trazado_108957" data-name="Trazado 108957" d="M680.489,1181.323a.57.57,0,1,1-.57-.569A.569.569,0,0,1,680.489,1181.323Z" transform="translate(-594.15 -1170.616)" fill="#230800"/>
          <path id="Trazado_108958" data-name="Trazado 108958" d="M648,1180.172a.571.571,0,0,1-.57.57h-2.661a.571.571,0,0,1-.571-.57h0a.57.57,0,0,1,.571-.57h2.661a.57.57,0,0,1,.57.57Z" transform="translate(-570.597 -1169.844)" fill="#cacaca"/>
          <path id="Trazado_108959" data-name="Trazado 108959" d="M646.851,1180.447H644.19a.856.856,0,0,1,0-1.711h2.661a.856.856,0,1,1,0,1.711Zm-2.661-1.141a.285.285,0,0,0,0,.57h2.661a.285.285,0,1,0,0-.57Z" transform="translate(-570.019 -1169.264)" fill="#373736"/>
          <path id="Trazado_108960" data-name="Trazado 108960" d="M594.068,1262.71c-1.2-16.207-1.479-42.307-1.479-53.241l-3.659-.38-1.127,27.057s1.1,13.389,3.047,26.565Z" transform="translate(-532.81 -1189.602)" fill="#111b24"/>
          <path id="Trazado_108961" data-name="Trazado 108961" d="M629.6,1291.361v-38.482c0-.363-.945-1.394-.945-.9v39.38Z" transform="translate(-560.183 -1218.253)" fill="#111b24"/>
        </g>
        <g id="Grupo_85847" data-name="Grupo 85847" transform="translate(392.049 207.749)">
          <path id="Trazado_108962" data-name="Trazado 108962" d="M525.953,567.421s2.756,21.262.393,24.018S510.3,609.2,507.736,609.4s7.088,21.854,36.225,23.034,38.786-27.168,38.786-27.168a36.3,36.3,0,0,1-10.632-2.362c-5.514-2.166-12.5-11.066-13.087-14.414s.395-22.247.395-22.247Z" transform="translate(-507.341 -566.239)" fill="#ffd3a9"/>
          <path id="Trazado_108963" data-name="Trazado 108963" d="M597.063,579.7c.174-5.225.525-11.747.525-11.747l-33.326,4.219s.7,5.81,1.044,9.5C574.6,588.935,586.541,587.3,597.063,579.7Z" transform="translate(-545.481 -567.39)" fill="#e4944e"/>
        </g>
        <g id="Grupo_85848" data-name="Grupo 85848" transform="translate(348.351 64.405)">
          <path id="Trazado_108964" data-name="Trazado 108964" d="M803.4,192.8s.04,16.332-1.417,27.472-1.442,17.079-4.4,23.4-5.176,8.18-5.176,8.18.616-51.227-.135-54.565S803.4,192.8,803.4,192.8Z" transform="translate(-654.537 -172.677)" fill="#502a0d"/>
          <path id="Trazado_108965" data-name="Trazado 108965" d="M387.216,193.892s.041,16.332,1.554,27.464,1.526,17.072,4.512,23.374,5.216,8.154,5.216,8.154-.869-51.223-.135-54.565S387.216,193.892,387.216,193.892Z" transform="translate(-383.154 -173.406)" fill="#6a3612"/>
          <path id="Trazado_108966" data-name="Trazado 108966" d="M391.5,326.574s-5.332-9.717-10.924-6.539-7.169,17.206-4.193,25.469,16.784,13.536,18.881,11.767a2.516,2.516,0,0,0,.355-3.709Z" transform="translate(-374.904 -257.499)" fill="#e4944e"/>
          <path id="Trazado_108967" data-name="Trazado 108967" d="M391.478,350.756l-2.814-26.1a21.349,21.349,0,0,0-4.216-5.245,4.555,4.555,0,0,0-2.586.628c-5.59,3.175-6.274,16.491-3.3,24.754a16.011,16.011,0,0,0,7.7,8.755c2.794,1.036,3.246,1.884,4.012,1.237A3.654,3.654,0,0,0,391.478,350.756Z" transform="translate(-376.192 -257.503)" fill="#ffd3a9"/>
          <path id="Trazado_108968" data-name="Trazado 108968" d="M386.157,351.287s-1.863-12.12,4.136-12.674,8.947,10.611,6.625,11.717-4.6,1.771-2.1,3.344a15.327,15.327,0,0,1,4.23,4.389s-4.4.456-7.1-.685-3.274-6.69-3.274-6.69,2.4,4.173,4.5,4.6-4.864-1.809-.445-6.029,1.807-9.032-.639-8.7C386.344,341.333,386.157,351.287,386.157,351.287Z" transform="translate(-382.261 -270.362)" fill="#e4944e"/>
          <path id="Trazado_108969" data-name="Trazado 108969" d="M781.079,325.887s4.674-10.048,10.465-7.249,8.294,16.694,5.872,25.137-15.85,14.618-18.058,12.993a2.513,2.513,0,0,1-.6-3.677Z" transform="translate(-645.128 -256.661)" fill="#fec490"/>
          <path id="Trazado_108970" data-name="Trazado 108970" d="M802.5,349.765s1.054-12.215-4.969-12.371-8.224,11.182-5.833,12.132,4.709,1.463,2.311,3.2a15.356,15.356,0,0,0-3.93,4.661s4.417.163,7.036-1.154,2.823-6.892,2.823-6.892-2.114,4.323-4.187,4.888,4.734-2.127.047-6.044-2.4-8.892.06-8.725C801.647,339.847,802.5,349.765,802.5,349.765Z" transform="translate(-653.088 -269.557)" fill="#e4944e"/>
          <path id="Trazado_108971" data-name="Trazado 108971" d="M538.383,162.835c-4.98-20.415-34.206-31.648-62.331-31.005-28.128-.5-57.3,10.874-62.178,31.314-5.177,21.685-.623,36.532-.623,36.532s1.135,19.456,4.021,34.377,5.565,31.523,17.2,36.306,14.8,6.788,20.994,10.534c7.666,4.637,13.9,6.662,20.141,6.8v0c.038,0,.077,0,.116,0,.237,0,.476,0,.714,0s.476,0,.714-.007h.116v0c6.233-.171,12.463-2.228,20.106-6.9,6.174-3.777,9.329-5.8,20.942-10.638s14.21-21.456,17.022-36.39,3.85-34.4,3.85-34.4S543.668,184.494,538.383,162.835Z" transform="translate(-399.357 -131.804)" fill="#ffd3a9"/>
          <path id="Trazado_108972" data-name="Trazado 108972" d="M597.3,390.276c-3.145.436-7.139,18.586-5.9,20.492s11.5,2.468,13.488-.51S603.629,389.4,597.3,390.276Z" transform="translate(-519.81 -304.971)" fill="#ffdebe"/>
          <path id="Trazado_108973" data-name="Trazado 108973" d="M597.856,459.035c-3.711.01-6.685-1.84-7.611-1.1s1.63,3.012,3.86,3.934a11.608,11.608,0,0,0,6.961.261c2.5-.7,4.4-3.3,3.47-4.045S601.754,459.025,597.856,459.035Z" transform="translate(-519.062 -350.211)" fill="#e4944e"/>
          <path id="Trazado_108974" data-name="Trazado 108974" d="M452.072,414.6c-.541,3.694,3.748,7.381,9.58,8.236s11-1.445,11.54-5.138-3.746-7.381-9.579-8.236S452.614,410.909,452.072,414.6Z" transform="translate(-426.58 -317.729)" fill="#f1b186"/>
          <path id="Trazado_108975" data-name="Trazado 108975" d="M722.452,414.6c.541,3.694-3.749,7.381-9.58,8.236s-11-1.445-11.54-5.138,3.746-7.381,9.579-8.236S721.91,410.909,722.452,414.6Z" transform="translate(-593.595 -317.729)" fill="#f1b186"/>
          <path id="Trazado_108976" data-name="Trazado 108976" d="M419.2,354.338c-.1-1.563-.4-13.593,5.546-12.424,3.179.625,4.053,26.647,5.284,30.168s2.3,11.906,1.261,18.952-1.1,9.368-3.933,13.62-6.545,7.629-10.2,6.033-5.693-12.194-4.416-18.744c1.206-6.19,3.627-9.395,5.262-14.369.1-.29-1.285-9.237-1.085-8.992.36.441,2.2,4.313,2.513,3.166C420.392,368.222,419.458,358.466,419.2,354.338Z" transform="translate(-400.001 -272.534)" fill="#e4944e"/>
          <path id="Trazado_108977" data-name="Trazado 108977" d="M419.971,355.347c-.1-1.563-1.169-14.59,4.777-13.421,3.179.625,2.9,26.735,4.13,30.256s2.128,12.084,1.09,19.129-1.687,12.005-4.521,16.257-4.632,4.726-8.29,3.129-5.693-12.194-4.416-18.744,6.159-11.8,7.134-17.452C420.6,370.321,420.309,360.819,419.971,355.347Z" transform="translate(-400.001 -272.545)" fill="#ffd3a9"/>
          <path id="Trazado_108978" data-name="Trazado 108978" d="M761.966,354.665c.064-1.565.114-13.6-5.807-12.3-3.165.692-3.49,26.726-4.646,30.273s-2.048,11.952-.86,18.974,1.3,9.342,4.219,13.533,6.7,7.489,10.328,5.816,5.434-12.312,4.019-18.833-4.117-9.673-5.86-15.137S761.743,360.142,761.966,354.665Z" transform="translate(-626.297 -272.821)" fill="#e4944e"/>
          <path id="Trazado_108979" data-name="Trazado 108979" d="M763.822,355.692c.064-1.565.861-14.611-5.06-13.317-3.165.692-2.334,26.79-3.49,30.337s-1.873,12.125-.686,19.147,1.94,11.967,4.863,16.158,4.731,4.627,8.354,2.953,4.256-26.965,2.842-33.485-5.108,1.347-6.2-4.283C763.634,369.038,763.6,361.17,763.822,355.692Z" transform="translate(-628.9 -272.836)" fill="#ffd3a9"/>
        </g>
        <g id="Grupo_85849" data-name="Grupo 85849" transform="translate(350.118 31.215)">
          <path id="Trazado_108980" data-name="Trazado 108980" d="M420.409,199.345s-7.025,11.153-8.83,31.573-.1,49.078-.1,49.078a27.954,27.954,0,0,1-3.285-6.367c-1.122-3.338-2.11-13-3.632-27.845s-2.671-29.318-1.568-33.775S420.409,199.345,420.409,199.345Z" transform="translate(-395.2 -143.87)" fill="#502a0d"/>
          <path id="Trazado_108981" data-name="Trazado 108981" d="M450.472,46.976s9.424-16.727,51.557-15.717,56.1,21.391,65.048,35.473,11.944,27.067,9.368,35.983-3.619,11.144-4.77,9.291,5.082-33.049-37.24-35.542-72.392-3.532-72.392-3.532S446.823,72.6,450.472,46.976Z" transform="translate(-426.927 -31.215)" fill="#6a3612"/>
          <path id="Trazado_108982" data-name="Trazado 108982" d="M395.286,100.423s-5.19,2.611-10,10.418-7.731,26-1.4,32.668,15.6,1.817,18.931-.047,5.545-9.294,5.9-14.491S394.611,127.522,395.286,100.423Z" transform="translate(-380.261 -77.587)" fill="#502a0d"/>
          <path id="Trazado_108983" data-name="Trazado 108983" d="M393.886,147.094c-9.474-3.317-12.288-15.56-10.64-25.03-1.04,11.215,7.148,28.032,20.077,22.5a8.691,8.691,0,0,0,1.333-3.206s-10.219,2.218-13.25-10.546c-4.361-18.363.795-23.759.795-23.759a50.684,50.684,0,0,0-6.912,8.231c-4.806,7.807-7.731,26-1.4,32.668,6.038,6.361,12.888,1.356,16.4-.735A11.241,11.241,0,0,1,393.886,147.094Z" transform="translate(-380.261 -82.028)" fill="#6a3612"/>
          <path id="Trazado_108984" data-name="Trazado 108984" d="M435.7,101.409a16.884,16.884,0,0,1-5.446,11.621c-5.555,5.211-16.333.04-17.473-10.721s-2.644-18.553,4.764-24.882,9.265-6.334,9.265-6.334-8.382,13.463.99,23.319A51.943,51.943,0,0,0,435.7,101.409Z" transform="translate(-401.414 -57.936)" fill="#502a0d"/>
          <path id="Trazado_108985" data-name="Trazado 108985" d="M422.791,104.225c-5.581-5-6.52-17.806-5.065-21.7-.47,9.376,5.192,22.224,14.618,22.3,2.956-3.964,3.35-6.85,3.35-6.85s-2.284-.374-6.324-5.552c-5.493-7.04-1.8-22.728-1.8-22.728s-2.618.468-10.026,6.8-5.9,14.12-4.764,24.882,8.945,14.456,14.5,9.245a41.1,41.1,0,0,0,3.943-4.338A8.455,8.455,0,0,1,422.791,104.225Z" transform="translate(-401.414 -56.995)" fill="#6a3612"/>
          <path id="Trazado_108986" data-name="Trazado 108986" d="M752.286,198.611s7.08,11.118,8.987,31.529,3.539,46.541,3.539,46.541,1.1-.08,1.732-3.545c.757-4.164.37-13.314,1.819-28.166s2.526-29.331,1.4-33.783S752.286,198.611,752.286,198.611Z" transform="translate(-629.535 -143.378)" fill="#502a0d"/>
          <path id="Trazado_108987" data-name="Trazado 108987" d="M481.247,124.433s12.97,13.437,33.385,13.015,48.242-4.945,58.653,1.71,19.736,25.193,19.736,25.193,7.367-23.033-14.955-43.022S516.813,96.505,481.247,124.433Z" transform="translate(-447.926 -80.592)" fill="#502a0d"/>
          <path id="Trazado_108988" data-name="Trazado 108988" d="M538.991,112.66c14.914,2.519,29.508,9.281,38.807,21.035-2.266-6.563-9.174-15.193-15.96-20.819-23.066-19.125-63.911-28.942-95.384,2.317,0,0,18.585,12.722,39,12.3s48.243-4.945,58.653,1.711c4.878,3.118,8.639,5.883,11.275,7.951C566.808,125.023,553.647,115.828,538.991,112.66Z" transform="translate(-438.015 -73.979)" fill="#6a3612"/>
          <path id="Trazado_108989" data-name="Trazado 108989" d="M605.524,121.841a34.743,34.743,0,0,0-15.627-8.183,71.122,71.122,0,0,0-17.7-1.754,150.412,150.412,0,0,0-17.111,1.058,71.5,71.5,0,0,1,18.4,8.316l-23.033,2.505c13.994,8.8,36.582,8.486,52.939,6.1-9.206-3.007-14.713-7.65-22.421-9.6C590.05,119.549,596.686,119.609,605.524,121.841Z" transform="translate(-494.292 -85.279)" fill="#91531d"/>
        </g>
        <g id="Grupo_85850" data-name="Grupo 85850" transform="translate(374.163 218.936)">
          <path id="Trazado_108990" data-name="Trazado 108990" d="M493.561,637.273c-1.486.6-28.588,144.342-23.408,172.108,0,0,70.512-2.7,93.1-3.807,10.186-.5,14.524-6.738,15.906-14.688,6.55-37.721-41.668-149.231-41.668-149.231s-8.595-2.249-22.345-2.224S493.561,637.273,493.561,637.273Z" transform="translate(-464.097 -625.022)" fill="#fff"/>
          <path id="Trazado_108991" data-name="Trazado 108991" d="M557.914,910.627c-15.236,16.408-31.058,31.058-45.708,47.466,4.688-4.1,11.134-4.1,16.408-7.032-4.1,9.376,11.443,30.469.9,33.4-8.79,2.344-47.76,6.437-50.1-1.181s14.048-29.288,19.908-35.734c-6.446,3.516-11.134,11.72-19.338,11.72,5.274-8.2,9.962-16.408,15.236-24.612-5.274,1.172-7.032,6.446-11.134,8.79-1.73-12.54-8.567-23.163-16.975-32.345-4.148,30.639-15.843,70.9-13.713,82.32,0,0,79.738.653,102.321-.452,10.186-.5,11.1-11.026,12.479-18.976,2.444-14.08-2.742-38.44-10.2-63.446Z" transform="translate(-453.133 -808.127)" fill="#cfcfcf"/>
          <path id="Trazado_108992" data-name="Trazado 108992" d="M495.791,1154.151c25.664-.827,51.35-.711,77.023-.748,3.437,0,6.874-.013,10.311-.063,3.23-.047,6.237-.646,8.572-3.047-3.893,4.661-11.028,3.873-16.509,4.112-6.566.287-13.138.427-19.709.517q-21.108.29-42.226-.2Q504.518,1154.52,495.791,1154.151Z" transform="translate(-481.716 -968.77)" fill="#9a9a99"/>
          <path id="Trazado_108993" data-name="Trazado 108993" d="M602.94,794.658c3.4-.1,14.107-9.486,13.032-18.974l-9.124-113.727,2.41-11.322s-4.006-6.619-7.91-6.619-7.043,7.664-7.043,7.664,3.484,9.059,4.531,10.277-7.068,115.766-7.068,115.766S600.447,794.733,602.94,794.658Z" transform="translate(-546.024 -629.541)" fill="#f99300"/>
          <path id="Trazado_108994" data-name="Trazado 108994" d="M623.153,771.21l-7.364-104.073,1.483-5.279c-1.331-4.309-3.112-6.739-5.942-10.11-1.4.578-2.226,2.16-2.768,3.57a20.389,20.389,0,0,0-.946,3.347c.626,3.741,2.878,7.418,6.561,8.236-1.758,3.516-1.172,7.618-1.758,11.134-.586-2.93.586-7.032-2.344-9.376-.274,1.273-3.007,109.583-3.007,109.583s4.69,11.079,7.183,11C617.649,789.143,624.229,780.7,623.153,771.21Z" transform="translate(-556.277 -634.721)" fill="#ffbf00"/>
          <path id="Trazado_108995" data-name="Trazado 108995" d="M621.721,616.649c.182.727,8.018,7.952,10.953,16.809.61,1.841,7.953-7.264,7.623-21.823-.055-2.442-4.805-8.374-4.805-8.374s-3.225,6.421-6.9,9.584A19.68,19.68,0,0,1,621.721,616.649Z" transform="translate(-566.095 -602.233)" fill="#cfcfcf"/>
          <path id="Trazado_108996" data-name="Trazado 108996" d="M621.721,620.929c.182.727,8.434,7.538,11.367,16.394.61,1.842,8.009-12.362,6.758-21.408-.231-1.674-2.422-4.409-3.758-6.213-.5-.678-3.818,5.2-6.159,7.22A22.516,22.516,0,0,1,621.721,620.929Z" transform="translate(-566.095 -606.512)" fill="#fff"/>
          <path id="Trazado_108997" data-name="Trazado 108997" d="M556.693,600.145s-4.659,7.6-4.66,10.041c0,9.791,9.822,23.32,10.578,23.225,2.431-.3,6.038-13.62,12.416-18.849,0,0-7.579-2.678-11.8-6.254A31.631,31.631,0,0,1,556.693,600.145Z" transform="translate(-519.401 -600.145)" fill="#cfcfcf"/>
          <path id="Trazado_108998" data-name="Trazado 108998" d="M555.876,607.2c-1.221,2.117-3.739,6.345-3.874,8.026-.564,7.022,9.783,21.718,10.54,21.624,2.431-.3,6.072-12.388,12.449-17.617,0,0-8.854-2.494-13.078-6.07C559.6,611.208,556.325,606.419,555.876,607.2Z" transform="translate(-519.365 -604.813)" fill="#fff"/>
        </g>
        <g id="Grupo_85851" data-name="Grupo 85851" transform="translate(335.275 226.793)">
          <path id="Trazado_108999" data-name="Trazado 108999" d="M366.668,679.376c-6.154.476-10.258-2.387-22.025-.682-3.461.5-6.009,3.122-8.356,6.98-2.616,4.3.754,10.316,0,25.368-1.5,29.889,1.724,84.68,17.844,86.11C358.809,794.907,372.823,678.9,366.668,679.376Z" transform="translate(-335.275 -660.266)" fill="#131d26"/>
          <path id="Trazado_109000" data-name="Trazado 109000" d="M785.27,679.376c6.153.476,10.258-2.387,22.025-.682,7.854,1.138,14.406.158,11.672,16.8-.676,4.112-.357,19.848-.493,24.629-1.09,38.359,1.108,65-11.907,73.824C801.685,799.167,779.115,678.9,785.27,679.376Z" transform="translate(-636.085 -660.266)" fill="#131d26"/>
          <path id="Trazado_109001" data-name="Trazado 109001" d="M409.192,857.572c11.307-10.978,12.044-84.925,13.613-92.411,4.092-19.533,6.786-124.54,6.786-124.54s-38.068,14.115-46.675,16.237c-2.391.589,2.936,35.971,4.677,46.714.788,4.855,1.936,46.291,3.976,70.373.992,11.7-27.867,74.839-19.561,79.443C380.942,858.339,402.625,863.947,409.192,857.572Z" transform="translate(-358.881 -635.122)" fill="#000d15"/>
          <path id="Trazado_109002" data-name="Trazado 109002" d="M401.824,854.6c12.855-10.364,12.643-70.617,14.938-84.231,3.121-18.516,5.764-46.566,7.539-71.485,2.3-32.343,2.132-65.167.436-61.9,0,0-2.085-1.526-8.518.879-12.721,4.757-33.557,8.841-39.274,10.25-2.392.589,1.992,40.367,3.733,51.11.788,4.855,1.14,35.159,3.181,59.241.664,7.835-11.515,43.445-17.779,67.8-3.09,12.016-3.252,22.423-2.654,23.171S394.7,860.344,401.824,854.6Z" transform="translate(-353.953 -632.368)" fill="#1a2732"/>
          <path id="Trazado_109003" data-name="Trazado 109003" d="M411.278,787.551c1,4.188,1.834,8.437,2.634,12.667a104.671,104.671,0,0,1,1.223,14.663c.485,10.765.079,32.449.079,32.449s-2.544-21.792-2.9-32.689c-.151-4.674,0-9.481-.408-14.1A124.223,124.223,0,0,1,411.278,787.551Z" transform="translate(-386.193 -733.572)" fill="#070f16"/>
          <path id="Trazado_109004" data-name="Trazado 109004" d="M494.252,655.019c-.266,2.637,2.856,32.281,4.474,53.815,2.1,27.93,5.869,53.123,5.869,53.123s4.532-17.47,8.707-42.917c3.576-21.789,3.892-44.609,3.882-60.724-.006-10.11-1.815-27.948-3.5-34.359-3.323.382-13.572,8.317-13.572,8.317s-3.773,10.938.306,12.245,11.338,2.932,11.338,2.932S494.632,651.24,494.252,655.019Z" transform="translate(-441.786 -623.956)" fill="#1a2732"/>
          <path id="Trazado_109005" data-name="Trazado 109005" d="M703.477,858.918c-12.082-8.027-23.511-92.264-25.08-99.751-4.092-19.533-9.984-70.967-9.984-70.967,1.493-6.938,3.9-47.579,3.9-47.579s38.068,14.115,46.676,16.237c2.391.589-2.937,35.971-4.677,46.714-.788,4.855-1.936,46.291-3.976,70.373-.992,11.7,18.4,55.608,18.636,65.1.106,4.291,3.365,10.014,0,14.607C728.975,853.653,709.989,863.244,703.477,858.918Z" transform="translate(-558.493 -635.122)" fill="#000d15"/>
          <path id="Trazado_109006" data-name="Trazado 109006" d="M708.645,854.892c-7.823-7-16.471-54.214-20.3-73.99-3.566-18.435-8.728-56.589-10.5-81.508-2.3-32.343-2.131-65.167-.435-61.9a99.872,99.872,0,0,1,12.462,3.7c12.722,4.757,27.754,3.723,33.471,5.132,2.392.589-.133,42.667-1.874,53.41-.788,4.855-1.139,35.159-3.18,59.241-.992,11.7,21.835,83.655,20.531,90.084C738.732,849.5,715.466,861,708.645,854.892Z" transform="translate(-563.661 -632.879)" fill="#1a2732"/>
          <path id="Trazado_109007" data-name="Trazado 109007" d="M688.964,655.019c.266,2.637-2.856,32.281-4.474,53.815-2.1,27.93-4.617,56.911-4.617,56.911s-5.785-21.257-9.96-46.7c-3.575-21.789-3.892-44.609-3.882-60.724.007-10.11,1.815-27.948,3.505-34.359,3.323.382,13.572,8.317,13.572,8.317s3.774,10.938-.306,12.245-11.338,2.932-11.338,2.932S688.583,651.24,688.964,655.019Z" transform="translate(-556.896 -623.956)" fill="#1a2732"/>
          <path id="Trazado_109008" data-name="Trazado 109008" d="M510.626,647c-3.527-.769-7.078-1.551-10.536-2.593-2.838-.855-2.622-3.822-2.289-6.348a20.045,20.045,0,0,1,1.107-5.065c.634-1.475,10.191-8.471,13.544-9.033-3.41.447-6.609,2.711-9.36,4.6a22.954,22.954,0,0,0-4.411,3.572c-.825,1.081-1.081,3.578-1.338,4.907-.5,2.575-1.14,6.7,1.9,7.893a71.777,71.777,0,0,0,9.255,2.513c-4.655,1.118-10.029,2.292-14.051,5.021-2.669,1.811-2.027,3.937-1.828,6.836.353,5.138.848,10.267,1.309,15.4.621,6.915,1.26,13.83,1.865,20.747,1.2,13.717,2.363,27.437,3.587,41.153.848,9.5,3.086,16.072,4.012,25.564-.953-14.746-3.343-26.562-4.418-41.3q-1.757-24.074-3.983-48.106-.219-2.4-.438-4.791-.279-3.075-.536-6.152c-.166-2-.689-4.385-.415-6.384.384-2.809,5.7-4.146,7.97-4.924,3.625-1.241,7.331-2.183,11.055-3.07Z" transform="translate(-440.558 -623.957)" fill="#070f16"/>
          <path id="Trazado_109009" data-name="Trazado 109009" d="M696.537,654.108c-1.179-2.448-4.922-3.726-7.261-4.658-2.2-.876-4.456-1.618-6.733-2.275a32.792,32.792,0,0,0,7.761-2.3c2.867-1.44,1.953-5.945,1.407-8.442-.267-1.223-.512-3.348-1.271-4.365-.909-1.217-3.149-2.273-4.4-3.118-2.665-1.8-6.088-4.618-9.389-4.991a23.542,23.542,0,0,1,6.7,3.6c2.266,1.545,4.464,3.191,6.615,4.891,1.023,3.238,3.406,10.58-1.1,11.88-3.71,1.071-7.488,1.887-11.26,2.7,3.129.887,6.247,1.8,9.295,2.941,2.3.864,7.771,2.436,8.455,5.155.374,1.489-.169,3.587-.292,5.1q-.3,3.691-.636,7.379c-.44,4.884-.908,9.766-1.347,14.65-1.489,16.552-2.657,33.126-3.82,49.7q-1.184,16.892-2.278,33.789,1.327-12.287,2.495-24.594,1.529-16.414,2.875-32.843c1.079-13.2,2.357-26.374,3.51-39.564.274-3.138.554-6.276.767-9.418C696.744,657.758,697.263,655.617,696.537,654.108Z" transform="translate(-564.014 -623.957)" fill="#070f16"/>
          <path id="Trazado_109010" data-name="Trazado 109010" d="M810.334,787.551a122.179,122.179,0,0,1-.631,12.99c-.414,4.618-.256,9.427-.408,14.1-.354,10.9-3.324,33.993-3.324,33.993s.021-22.987.507-33.753a104.565,104.565,0,0,1,1.223-14.663C808.5,795.988,809.339,791.739,810.334,787.551Z" transform="translate(-650.663 -733.572)" fill="#070f16"/>
        </g>
        <g id="Grupo_85853" data-name="Grupo 85853" transform="translate(402.925 186.308)">
          <path id="Trazado_109011" data-name="Trazado 109011" d="M542.465,521.482c-.43-.223-2.252,1.438-2.157,3.561s1.843,4.649,2.6,3.753-.732-2.715-1.135-3.521C540.655,523.039,542.895,521.705,542.465,521.482Z" transform="translate(-540.304 -514.796)" fill="#e4944e"/>
          <g id="Grupo_85852" data-name="Grupo 85852" transform="translate(5.062 2.923)">
            <path id="Trazado_109012" data-name="Trazado 109012" d="M579.042,526.027s6.17,6.459,11.929,6.461a10.135,10.135,0,0,0,8.331-3.855Z" transform="translate(-571.322 -520.778)" fill="#e4944e"/>
            <path id="Trazado_109013" data-name="Trazado 109013" d="M555.666,515.544s3.706,4.748,18.967,4.771c14.165.021,20.73-6.052,20.73-6.052s-4.176-4.319-20.325-4.138C554.25,510.358,555.666,515.544,555.666,515.544Z" transform="translate(-555.645 -510.119)" fill="#ffd3a9"/>
          </g>
          <path id="Trazado_109014" data-name="Trazado 109014" d="M553.38,513.483a1.635,1.635,0,0,0-1.141,1.6c.144,1.723,1.865,1.365,1.141.233-.694-1.085.471-1.209.471-1.209s7.229-3.674,19.741-3.61c12.3.063,19.485,2.841,19.485,2.841s.7.607.336,1.261c-.483.862.783,1.261.766-.307a1.451,1.451,0,0,0-1.1-1.352s-11.457-4.007-19.5-4.2S553.38,513.483,553.38,513.483Z" transform="translate(-548.298 -506.267)" fill="url(#radial-gradient)"/>
          <path id="Trazado_109015" data-name="Trazado 109015" d="M555.707,508.475s11.4-3.914,19.234-3.745,20.462,3.2,20.462,3.2a35.257,35.257,0,0,0-20.744-6.67C561.619,501.259,555.707,508.475,555.707,508.475Z" transform="translate(-550.625 -501.259)" fill="#e4944e"/>
        </g>
        <g id="Grupo_85854" data-name="Grupo 85854" transform="translate(372.883 123.468)">
          <path id="Trazado_109016" data-name="Trazado 109016" d="M493.508,310.808s-19.617,3.518-28.808,3.234a47.143,47.143,0,0,0-15.446,1.884,85.588,85.588,0,0,0,12.665,3.946c5.267.987,18.321-.591,23.848-1.88S493.508,310.808,493.508,310.808Z" transform="translate(-449.254 -310.808)" fill="#3d1f06"/>
          <path id="Trazado_109017" data-name="Trazado 109017" d="M467.356,349.824c4.03.211,14.185.184,17.437,2.935s9.925,10.943,9.669,11.741c-.652,2.035-6.488,2.859-9.224,3.151a114.426,114.426,0,0,1-20.938-.658c-7.111-.915-10.224-4.467-11.554-6.122s-1.814-4.548-.5-6.119S461.838,349.535,467.356,349.824Z" transform="translate(-450.74 -336.94)" fill="#f1f1f1"/>
          <path id="Trazado_109018" data-name="Trazado 109018" d="M474.151,360.936c4.029.211,13.449,1.661,16.7,4.412s7.656,5.568,7.4,6.365-2.835,2.271-7,2.717a103.652,103.652,0,0,1-20.671.012c-7.111-.915-8.27-5.27-9.6-6.924S468.631,360.647,474.151,360.936Z" transform="translate(-457.027 -344.388)" fill="#fff"/>
          <path id="Trazado_109019" data-name="Trazado 109019" d="M501.352,351.028c.951,1.9,2.364,3.166,2.292,5.443-.143,4.6-2.413,8.941-6.242,10.858-1.464.732-14.685-.177-15.663-.982a13.214,13.214,0,0,1-4.67-10.712c.088-2.835,1.018-3.927,2.6-6.036C487.073,348.288,494.03,349.085,501.352,351.028Z" transform="translate(-467.887 -336.368)" fill="#3d1f06"/>
          <path id="Trazado_109020" data-name="Trazado 109020" d="M505.269,366.487a11.677,11.677,0,0,1-4.644,8.5c-2.045,1.535-4.736,1.082-7.492,1-3.093-.1-5.735-.059-7.763-2.088a11.646,11.646,0,0,1-3.417-8.628c.006-.18.029-.355.043-.534A31.356,31.356,0,0,1,505.269,366.487Z" transform="translate(-471.16 -345.953)" fill="#633110"/>
          <path id="Trazado_109021" data-name="Trazado 109021" d="M491.93,353.161a8.391,8.391,0,1,0,8.651-8.124A8.391,8.391,0,0,0,491.93,353.161Z" transform="translate(-477.846 -333.74)" fill="#2a1500"/>
          <path id="Trazado_109022" data-name="Trazado 109022" d="M527.348,374.508a3.453,3.453,0,1,0,3.56-3.343A3.453,3.453,0,0,0,527.348,374.508Z" transform="translate(-501.58 -351.249)" fill="#fff"/>
          <path id="Trazado_109023" data-name="Trazado 109023" d="M493.849,357.211s-2.679-10.565-5.522-13.591-15.374-3.112-20.719-3.453-14.848-.863-16.523,10.052c-.189,1.231,2.931-4.708,8.827-5.83,8.206-1.561,20.241,1.214,22.452,1.233C486.163,345.656,493.849,357.211,493.849,357.211Z" transform="translate(-450.475 -330.39)" fill="#e4944e"/>
          <path id="Trazado_109024" data-name="Trazado 109024" d="M493.021,363.7c-.345,0-7.415-10.275-9.62-11.553s-16.25-2.107-21.466-1.062-8.578,2.629-9.841,4.316,1.174,5.585,3.714,7.219a30.271,30.271,0,0,0,11.114,3.631c3.273.276,4.309.309,4.309.309a69.237,69.237,0,0,1-13.434-1.286,10.012,10.012,0,0,1-8.486-9.749c0-4.946,5.866-7.582,13.3-7.694s17.006.867,20.085,1.829S493.994,363.7,493.021,363.7Z" transform="translate(-449.292 -335.608)" fill="#161615"/>
        </g>
        <g id="Grupo_85855" data-name="Grupo 85855" transform="translate(434.332 123.468)">
          <path id="Trazado_109025" data-name="Trazado 109025" d="M635.488,310.808s19.617,3.518,28.808,3.234a47.143,47.143,0,0,1,15.446,1.884,85.608,85.608,0,0,1-12.665,3.946c-5.267.987-18.321-.591-23.849-1.88S635.488,310.808,635.488,310.808Z" transform="translate(-635.488 -310.808)" fill="#3d1f06"/>
          <path id="Trazado_109026" data-name="Trazado 109026" d="M667.336,348.255c-3.916.206-13.784.179-16.944,2.852s-9.644,10.634-9.4,11.409c.633,1.977,6.3,2.778,8.963,3.062a111.231,111.231,0,0,0,20.345-.64c6.91-.889,9.935-4.341,11.226-5.948s1.763-4.419.485-5.946S672.7,347.974,667.336,348.255Z" transform="translate(-639.175 -335.889)" fill="#f1f1f1"/>
          <path id="Trazado_109027" data-name="Trazado 109027" d="M671.757,359.052c-3.915.205-13.069,1.613-16.23,4.287s-7.439,5.41-7.191,6.184,2.755,2.207,6.8,2.64a100.722,100.722,0,0,0,20.086.012c6.91-.889,8.036-5.12,9.329-6.728S677.12,358.771,671.757,359.052Z" transform="translate(-644.09 -343.126)" fill="#fff"/>
          <path id="Trazado_109028" data-name="Trazado 109028" d="M666.687,349.424c-.924,1.85-2.3,3.076-2.228,5.289.14,4.473,2.344,8.688,6.065,10.551,1.422.711,14.27-.172,15.22-.955a12.839,12.839,0,0,0,4.538-10.409c-.086-2.754-.99-3.816-2.525-5.865C680.562,346.761,673.8,347.536,666.687,349.424Z" transform="translate(-654.899 -335.333)" fill="#3d1f06"/>
          <path id="Trazado_109029" data-name="Trazado 109029" d="M669.319,364.446a11.346,11.346,0,0,0,4.513,8.264c1.987,1.491,4.6,1.051,7.279.967,3.005-.095,5.573-.057,7.543-2.029a11.318,11.318,0,0,0,3.32-8.384c-.006-.175-.029-.345-.042-.519A30.467,30.467,0,0,0,669.319,364.446Z" transform="translate(-658.156 -344.647)" fill="#633110"/>
          <path id="Trazado_109030" data-name="Trazado 109030" d="M695.187,351.5a8.153,8.153,0,1,1-8.406-7.894A8.153,8.153,0,0,1,695.187,351.5Z" transform="translate(-664.565 -332.78)" fill="#2a1500"/>
          <path id="Trazado_109031" data-name="Trazado 109031" d="M719.147,373.32a3.355,3.355,0,1,1-3.459-3.248A3.355,3.355,0,0,1,719.147,373.32Z" transform="translate(-687.048 -350.517)" fill="#fff"/>
          <path id="Trazado_109032" data-name="Trazado 109032" d="M642.037,355.433s2.6-10.267,5.366-13.206,14.939-3.024,20.133-3.356,14.428-.839,16.056,9.767c.183,1.2-2.848-4.575-8.577-5.665-7.974-1.517-19.669,1.18-21.817,1.2C649.505,344.2,642.037,355.433,642.037,355.433Z" transform="translate(-639.876 -329.524)" fill="#e4944e"/>
          <path id="Trazado_109033" data-name="Trazado 109033" d="M640.833,361.735c.335,0,7.2-9.984,9.347-11.226s15.79-2.047,20.858-1.031,8.336,2.555,9.563,4.194-1.14,5.427-3.608,7.015a29.407,29.407,0,0,1-10.8,3.529c-3.18.269-4.187.3-4.187.3a67.29,67.29,0,0,0,13.054-1.25,9.728,9.728,0,0,0,8.246-9.473c0-4.806-6.443-7.367-13.663-7.476s-15.781.842-18.773,1.776S639.888,361.735,640.833,361.735Z" transform="translate(-639.018 -334.594)" fill="#161615"/>
        </g>
        <g id="Grupo_85856" data-name="Grupo 85856" transform="translate(383.64 397.202)">
          <path id="Trazado_109034" data-name="Trazado 109034" d="M488.811,1147.682c.208-.782-5.77-3.784-6.015-3.556s-2.354.024.689,1.733S488.632,1148.353,488.811,1147.682Z" transform="translate(-481.857 -1142.895)" fill="#070f16"/>
          <path id="Trazado_109035" data-name="Trazado 109035" d="M489.178,1145.241a2.985,2.985,0,1,1-1.427-3.971A2.984,2.984,0,0,1,489.178,1145.241Z" transform="translate(-482.953 -1140.798)" fill="#1a2732"/>
          <path id="Trazado_109036" data-name="Trazado 109036" d="M484.751,1146.459a3.17,3.17,0,1,1,4.218-1.516A3.173,3.173,0,0,1,484.751,1146.459Zm2.543-5.4a2.8,2.8,0,1,0,1.338,3.725A2.8,2.8,0,0,0,487.294,1141.06Z" transform="translate(-482.577 -1140.42)" fill="#070f16"/>
          <path id="Trazado_109037" data-name="Trazado 109037" d="M490.068,1144.621a.677.677,0,1,1-.325-.9A.678.678,0,0,1,490.068,1144.621Z" transform="translate(-486.494 -1142.59)" fill="#070f16"/>
          <path id="Trazado_109038" data-name="Trazado 109038" d="M487.234,1150.626a.677.677,0,1,1-.322-.9A.677.677,0,0,1,487.234,1150.626Z" transform="translate(-484.596 -1146.612)" fill="#070f16"/>
          <path id="Trazado_109039" data-name="Trazado 109039" d="M496.583,1147.694a.675.675,0,1,1-.322-.9A.672.672,0,0,1,496.583,1147.694Z" transform="translate(-490.862 -1144.649)" fill="#070f16"/>
          <path id="Trazado_109040" data-name="Trazado 109040" d="M493.754,1153.7a.676.676,0,1,1-.324-.9A.677.677,0,0,1,493.754,1153.7Z" transform="translate(-488.964 -1148.673)" fill="#070f16"/>
          <rect id="Rectángulo_33965" data-name="Rectángulo 33965" width="0.373" height="2.378" transform="translate(2.88 1.914) rotate(-64.772)" fill="#070f16"/>
          <path id="Trazado_109041" data-name="Trazado 109041" d="M489.905,1152.556l-2.151-1.015.16-.337,2.152,1.014Z" transform="translate(-485.808 -1147.646)" fill="#070f16"/>
        </g>
        <g id="Grupo_85857" data-name="Grupo 85857" transform="translate(388.085 367.952)">
          <path id="Trazado_109042" data-name="Trazado 109042" d="M502.955,1059.728c-.1-.8-6.76-1.384-6.9-1.082s-2.177.891,1.281,1.356S503.036,1060.418,502.955,1059.728Z" transform="translate(-495.327 -1056.323)" fill="#000e1a"/>
          <path id="Trazado_109043" data-name="Trazado 109043" d="M503.894,1055.5a2.985,2.985,0,1,1-2.793-3.163A2.985,2.985,0,0,1,503.894,1055.5Z" transform="translate(-497.072 -1052.149)" fill="#1a2732"/>
          <path id="Trazado_109044" data-name="Trazado 109044" d="M500.342,1058.1a3.17,3.17,0,1,1,3.36-2.968A3.173,3.173,0,0,1,500.342,1058.1Zm.369-5.956a2.8,2.8,0,1,0,2.62,2.967A2.8,2.8,0,0,0,500.711,1052.148Z" transform="translate(-496.695 -1051.77)" fill="#000e1a"/>
          <path id="Trazado_109045" data-name="Trazado 109045" d="M503.09,1056.662a.677.677,0,1,1-.634-.715A.678.678,0,0,1,503.09,1056.662Z" transform="translate(-499.622 -1054.568)" fill="#000e1a"/>
          <path id="Trazado_109046" data-name="Trazado 109046" d="M502.677,1063.288a.677.677,0,1,1-.632-.717A.677.677,0,0,1,502.677,1063.288Z" transform="translate(-499.346 -1059.006)" fill="#000e1a"/>
          <path id="Trazado_109047" data-name="Trazado 109047" d="M510.281,1057.109a.676.676,0,1,1-.632-.716A.672.672,0,0,1,510.281,1057.109Z" transform="translate(-504.442 -1054.867)" fill="#000e1a"/>
          <path id="Trazado_109048" data-name="Trazado 109048" d="M509.869,1063.738a.676.676,0,1,1-.632-.716A.676.676,0,0,1,509.869,1063.738Z" transform="translate(-504.166 -1059.309)" fill="#000e1a"/>
          <rect id="Rectángulo_33966" data-name="Rectángulo 33966" width="0.373" height="2.378" transform="matrix(0.062, -0.998, 0.998, 0.062, 2.78, 2.241)" fill="#000e1a"/>
          <path id="Trazado_109049" data-name="Trazado 109049" d="M505.713,1064.579l-2.374-.148.024-.373,2.374.148Z" transform="translate(-500.695 -1060.004)" fill="#000e1a"/>
        </g>
        <g id="Grupo_85861" data-name="Grupo 85861" transform="translate(353.265 122.734)">
          <g id="Grupo_85858" data-name="Grupo 85858" transform="translate(16.955)">
            <path id="Trazado_109050" data-name="Trazado 109050" d="M465.08,356.377a23.9,23.9,0,1,1,23.9-23.9A23.923,23.923,0,0,1,465.08,356.377Zm0-42.843a18.947,18.947,0,1,0,18.947,18.947A18.968,18.968,0,0,0,465.08,313.534Z" transform="translate(-441.184 -308.585)" fill="#22201e"/>
          </g>
          <g id="Grupo_85859" data-name="Grupo 85859" transform="translate(79.746)">
            <path id="Trazado_109051" data-name="Trazado 109051" d="M655.382,356.377a23.9,23.9,0,1,1,23.9-23.9A23.923,23.923,0,0,1,655.382,356.377Zm0-42.843a18.947,18.947,0,1,0,18.947,18.947A18.968,18.968,0,0,0,655.382,313.534Z" transform="translate(-631.486 -308.585)" fill="#22201e"/>
          </g>
          <path id="Trazado_109052" data-name="Trazado 109052" d="M405.6,320.751s-8.216-9-10.512-9.842-5.293,3.886-5.293,3.886,1.5-1.761,4.21-.339,10.819,13.083,10.819,13.083Z" transform="translate(-389.798 -310.075)" fill="#100e0c"/>
          <path id="Trazado_109053" data-name="Trazado 109053" d="M440.477,341.139s-6.044-2.017-7.034,0-2.227,6.71,2.315,6.906S440.477,341.139,440.477,341.139Z" transform="translate(-418.414 -329.797)" fill="#22201e"/>
          <path id="Trazado_109054" data-name="Trazado 109054" d="M775.607,320.751s8.217-9,10.512-9.842,5.293,3.886,5.293,3.886-1.5-1.761-4.21-.339-10.819,13.083-10.819,13.083Z" transform="translate(-648.308 -310.075)" fill="#100e0c"/>
          <path id="Trazado_109055" data-name="Trazado 109055" d="M756.644,341.139s6.044-2.017,7.033,0,2.227,6.71-2.315,6.906S756.644,341.139,756.644,341.139Z" transform="translate(-635.601 -329.797)" fill="#22201e"/>
          <g id="Grupo_85860" data-name="Grupo 85860" transform="translate(60.318 18.899)">
            <path id="Trazado_109056" data-name="Trazado 109056" d="M592.856,375.375c-1.141-1.261-4.868-4.547-8.316-4.564h-.027c-3.456,0-7.168,3.108-8.309,4.308l-3.6-3.4c.226-.24,5.591-5.861,11.909-5.861h.051c6.362.03,11.75,5.956,11.976,6.208Z" transform="translate(-572.604 -365.862)" fill="#22201e"/>
          </g>
          <path id="Trazado_109057" data-name="Trazado 109057" d="M495.7,345.217a18.18,18.18,0,0,0-1.657-6.6,17.455,17.455,0,0,0-3.947-5.406,17.066,17.066,0,0,0-23.985.751,17.407,17.407,0,0,0-3.594,5.639,12.1,12.1,0,0,0-.546,1.605,13.264,13.264,0,0,0-.388,1.658,12.376,12.376,0,0,0-.231,1.7,14.881,14.881,0,0,0-.1,1.72,14.95,14.95,0,0,1-.1-1.728,12.389,12.389,0,0,1,.068-1.738,11.8,11.8,0,0,1,.253-1.729,12.747,12.747,0,0,1,.432-1.7,17.078,17.078,0,0,1,3.444-6.118A17.42,17.42,0,0,1,470.991,329a17.507,17.507,0,0,1,13.912-.43,17.393,17.393,0,0,1,5.9,3.907,17.124,17.124,0,0,1,3.826,5.891A16.47,16.47,0,0,1,495.7,345.217Z" transform="translate(-437.604 -321.15)" fill="#fff"/>
          <path id="Trazado_109058" data-name="Trazado 109058" d="M461.453,382.591a18.09,18.09,0,0,0,1.95,6.244,17.532,17.532,0,0,0,4,5.045,17.122,17.122,0,0,0,23.26-.721,17.508,17.508,0,0,0,3.672-5.285,18.354,18.354,0,0,0,1.568-6.35,16.437,16.437,0,0,1-.967,6.594,17.071,17.071,0,0,1-3.534,5.758,17.344,17.344,0,0,1-5.525,3.984,17.524,17.524,0,0,1-13.4.408,17.335,17.335,0,0,1-5.761-3.63,17.094,17.094,0,0,1-3.89-5.524A16.245,16.245,0,0,1,461.453,382.591Z" transform="translate(-437.81 -357.457)" fill="#fff"/>
          <path id="Trazado_109059" data-name="Trazado 109059" d="M687.325,345.217a18.193,18.193,0,0,0-1.657-6.6,17.457,17.457,0,0,0-3.948-5.406,17.065,17.065,0,0,0-23.985.751,17.4,17.4,0,0,0-3.594,5.639,12.145,12.145,0,0,0-.547,1.605,13.285,13.285,0,0,0-.388,1.658,12.31,12.31,0,0,0-.231,1.7,14.854,14.854,0,0,0-.1,1.72,14.97,14.97,0,0,1-.1-1.728,12.289,12.289,0,0,1,.068-1.738,11.811,11.811,0,0,1,.253-1.729,12.686,12.686,0,0,1,.432-1.7,17.077,17.077,0,0,1,3.444-6.118A17.415,17.415,0,0,1,662.62,329a17.506,17.506,0,0,1,13.911-.43,17.391,17.391,0,0,1,5.9,3.907,17.125,17.125,0,0,1,3.826,5.891A16.471,16.471,0,0,1,687.325,345.217Z" transform="translate(-566.005 -321.15)" fill="#fff"/>
          <path id="Trazado_109060" data-name="Trazado 109060" d="M653.082,382.591a18.1,18.1,0,0,0,1.95,6.244,17.536,17.536,0,0,0,4,5.045,17.121,17.121,0,0,0,23.259-.721,17.5,17.5,0,0,0,3.672-5.285,18.352,18.352,0,0,0,1.568-6.35,16.438,16.438,0,0,1-.967,6.594,17.075,17.075,0,0,1-3.533,5.758,17.351,17.351,0,0,1-5.525,3.984,17.525,17.525,0,0,1-13.4.408,17.337,17.337,0,0,1-5.761-3.63,17.1,17.1,0,0,1-3.89-5.524A16.252,16.252,0,0,1,653.082,382.591Z" transform="translate(-566.21 -357.457)" fill="#fff"/>
          <path id="Trazado_109061" data-name="Trazado 109061" d="M484.193,346.428c-2.3.082-4.984,2.05-6.457,3.675-.848.935-2.391,3.752-.324,4.255,1.516.369,2.9-1.995,4.053-2.764a21.316,21.316,0,0,1,4.09-2.129c.669-.271,1.548-.9,1.585-1.733.042-.92-.466-.9-1.2-1.2Z" transform="translate(-447.813 -333.942)" fill="#fff"/>
          <path id="Trazado_109062" data-name="Trazado 109062" d="M667.52,346.428c-2.3.082-4.984,2.05-6.457,3.675-.848.935-2.391,3.752-.324,4.255,1.516.369,2.9-1.995,4.053-2.764a21.306,21.306,0,0,1,4.09-2.129c.669-.271,1.547-.9,1.585-1.733.042-.92-.466-.9-1.2-1.2Z" transform="translate(-570.651 -333.942)" fill="#fff"/>
        </g>
        <g id="Grupo_85862" data-name="Grupo 85862" transform="translate(335.784 120.364)">
          <path id="Trazado_109063" data-name="Trazado 109063" d="M403.289,611.451c-7.033-4.223-32.751.833-40.5,2.688.6,1.974-.2,6.68,1.334,8.06,1.013.912,1.425.256,2.77.477,5.407.883,10.858,1.77,16.332,1.539,4.335-.182,9.177-1.035,12.922-3.368C400,618.444,403.466,615.388,403.289,611.451Z" transform="translate(-354.218 -508.05)" fill="#070f16"/>
          <path id="Trazado_109064" data-name="Trazado 109064" d="M403.268,603.056c-10.577-1.428-23.873.323-31.754,1.518.431,2.017-1.124,6.917.287,8.421a7.223,7.223,0,0,0,3.652,1.7c5.314,1.336,10.671,2.679,16.145,2.911,4.335.184,3.879,2.047,7.807.038C403.451,615.577,403.114,606.994,403.268,603.056Z" transform="translate(-359.852 -503.165)" fill="#a8a8a7"/>
          <path id="Trazado_109065" data-name="Trazado 109065" d="M375.229,394.046c-5.067,5.172.143,19.482,4.107,24.891s13.449,17.5,17.372,14.25c2.92-2.42-1.085-38.7-2.778-29.486-.147.8-.991,3.108-1.487,1.855-.511-1.288-1-2.409-1.45-3.295-1.036-2.058-1.476-8.746-2.939-9.915C382.6,387.984,376.559,392.688,375.229,394.046Z" transform="translate(-361.15 -361.123)" fill="#ffd3a9"/>
          <path id="Trazado_109066" data-name="Trazado 109066" d="M385.617,343.371a25.341,25.341,0,0,0-6.05-1.049,19.463,19.463,0,0,0-5.171.459,1.266,1.266,0,0,0-.115.357c-.311,2.379,4.386,17.534,4.386,17.534,4.516,4.273,9.2.457,10.094.017s.8-8.36-.2-13.7a5.078,5.078,0,0,1,.94-3.1C388.9,343.1,386.4,343.6,385.617,343.371Z" transform="translate(-361.91 -328.806)" fill="#e4944e"/>
          <path id="Trazado_109067" data-name="Trazado 109067" d="M387.965,343.372a25.341,25.341,0,0,0-6.05-1.049,19.053,19.053,0,0,0-3.734.194,1.805,1.805,0,0,0-.393.826c-.312,2.38,3.742,17.615,3.742,17.615,4.516,4.273,8.683.173,9.579-.267s-1.021-9.755-.606-15.179a2.152,2.152,0,0,1,.6-1.124A18.582,18.582,0,0,0,387.965,343.372Z" transform="translate(-364.259 -328.807)" fill="#fec490"/>
          <path id="Trazado_109068" data-name="Trazado 109068" d="M365.349,352.857a25.327,25.327,0,0,0-6.05-1.049,19.452,19.452,0,0,0-5.171.459,1.268,1.268,0,0,0-.115.357c-.311,2.379,4.54,19.28,4.54,19.28,4.516,4.273,10.31-1.251,11.09-1.873,1.956-1.56-.354-8.216-1.353-13.559a5.074,5.074,0,0,1,.94-3.1C368.631,352.59,366.127,353.087,365.349,352.857Z" transform="translate(-348.33 -335.162)" fill="#e4944e"/>
          <path id="Trazado_109069" data-name="Trazado 109069" d="M367.695,352.857a25.328,25.328,0,0,0-6.05-1.049,19.032,19.032,0,0,0-3.734.194,1.813,1.813,0,0,0-.393.826c-.312,2.38,3.637,19.593,3.637,19.593,4.517,4.273,9.939-1.949,10.835-2.39s-2.171-9.611-1.756-15.034a2.149,2.149,0,0,1,.6-1.124A18.545,18.545,0,0,0,367.695,352.857Z" transform="translate(-350.676 -335.162)" fill="#fec490"/>
          <path id="Trazado_109070" data-name="Trazado 109070" d="M390.873,304.314s-14.322,4.191-16.624,5.493-3.163,3.049-4.322,4.879a30.3,30.3,0,0,0-3.346,8.434c-.243.885-.489,1.778-.728,2.675,2.432-2.329,5.5-5.264,7.843-7.522,4.585-4.409,9.088-3.754,14.549-7.106S390.873,304.314,390.873,304.314Z" transform="translate(-356.273 -303.353)" fill="#e4944e"/>
          <path id="Trazado_109071" data-name="Trazado 109071" d="M391.153,305.925s-13.521,4.534-16.408,5.4a23.846,23.846,0,0,0-4.423,4.444,30.3,30.3,0,0,0-3.346,8.434q-.267.97-.533,1.951c2.2-2.341,4.862-5.124,7.046-7.224,4.585-4.409,8.972-3.571,14.434-6.923S391.153,305.925,391.153,305.925Z" transform="translate(-356.669 -304.432)" fill="#ffd3a9"/>
          <path id="Trazado_109072" data-name="Trazado 109072" d="M359.249,315.8c3.028-1.907,10.235-7.006,13.122-7.867s15.055-7.2,16.838-6.472,2.58,4.917-2.88,8.269-9.964,2.7-14.549,7.106-11.907,11.409-11.907,11.409S356.6,317.465,359.249,315.8Z" transform="translate(-351.154 -301.4)" fill="#e4944e"/>
          <path id="Trazado_109073" data-name="Trazado 109073" d="M343.278,320.913s15.558-10.087,18.447-10.95,14.51-7.175,16.51-6.814,2.129,4.146-3.332,7.5-9.849,2.514-14.434,6.922-11.3,11.836-11.3,11.836S339.017,325.351,343.278,320.913Z" transform="translate(-340.447 -302.563)" fill="#ffd3a9"/>
          <path id="Trazado_109074" data-name="Trazado 109074" d="M405.653,519.8s-2.329,7.8-1.537,13.264.663,134.858.663,134.858l-26.18-1.591s-.429-131.918.279-134.63,3.337-3.353,3.937-4.006S405.653,519.8,405.653,519.8Z" transform="translate(-364.728 -447.741)" fill="#ffd3a9"/>
          <path id="Trazado_109075" data-name="Trazado 109075" d="M354.226,424.934s7.636,14.346,12.128,21.176,6.992,14.349,1.54,20.845c-4.625,5.511-5.788,4.6-8.259,5.482s-2.1,3.391-3.1-2.829-6.041-11.172-8.626-18.155-4.566-26.915-4.406-29.124S351.187,423.042,354.226,424.934Z" transform="translate(-341.29 -381.898)" fill="#ffd3a9"/>
          <path id="Trazado_109076" data-name="Trazado 109076" d="M344.849,354.421s-4.532-17.69-3.8-19.974c1.394-4.342,8.091-5.561,11.457-8.147s8.994-4.473,13.392-4.967,5.808-.147,6.841,1.2-.411,5.227-5.341,7.282-13.346,6.321-12.813,9.174c1,5.344,2.25,13.117,1.353,13.559S349.365,358.694,344.849,354.421Z" transform="translate(-339.6 -314.613)" fill="#e4944e"/>
          <path id="Trazado_109077" data-name="Trazado 109077" d="M346.079,356.133s-3.949-17.213-3.637-19.593,6.812-6.224,10.489-8.343c4.691-2.7,7.59-4.074,11.989-4.568s6.761-1.35,7.795,0,.235,4.59-4.695,6.645-12.706,6.393-12.862,8.439c-.415,5.423,2.653,14.592,1.756,15.034S350.6,360.405,346.079,356.133Z" transform="translate(-340.575 -315.807)" fill="#ffd3a9"/>
          <path id="Trazado_109078" data-name="Trazado 109078" d="M345.908,367.59c1.071,5.488,2.505,11.738,2.505,11.738,4.516,4.273,9.939-1.95,10.835-2.39s-2.171-9.611-1.756-15.034c.081-1.059,2.206-2.732,4.919-4.385A30.621,30.621,0,0,0,345.908,367.59Z" transform="translate(-342.909 -339.002)" fill="#fec490"/>
          <path id="Trazado_109079" data-name="Trazado 109079" d="M339.03,375.815s-3.346-12.4-1.8-16.912c.64-1.874,3.839-3.153,7.071-4.5,3.337-1.391,5.3-2.332,8.943-2.282s6.058.024,6.764,1.233-2.057,5.419-7.969,5.977c-4.384.414-5.441,3.142-5.87,5.066-.65,2.913,3.855,10.627,3.166,11.757C348.9,376.856,342.282,379.778,339.03,375.815Z" transform="translate(-336.819 -335.384)" fill="#e4944e"/>
          <path id="Trazado_109080" data-name="Trazado 109080" d="M341.681,387.42s-2.644-24.859-2.143-26.773,3.413-2.526,6.433-4.294,5.269-2.159,8.917-2.108,5.352-.811,6.058.4-1.4,3.965-5.845,4.9c-4.308.906-6.549.784-8.156,4.969s12.361,28.059,11.58,28.327S353,395.843,341.681,387.42Z" transform="translate(-338.599 -336.641)" fill="#ffd3a9"/>
          <path id="Trazado_109081" data-name="Trazado 109081" d="M407.373,426.075c-.511.514-7.08,6.679-10.38,7.874,3.91-3.022,6.786-7.4,9.564-11.437a7.243,7.243,0,0,0,.96,1.955C407.65,425.45,407.623,425.882,407.373,426.075Z" transform="translate(-377.138 -382.551)" fill="#fec490"/>
          <path id="Trazado_109082" data-name="Trazado 109082" d="M417.2,440.3c1.392-9.161,3.6-11.912,3.491-12.167.127.285.726,1.4.558,1.742-.387.727-1.613,2.6-2.852,10.392a64.428,64.428,0,0,0-.144,16.584A36.655,36.655,0,0,1,417.2,440.3Z" transform="translate(-390.369 -386.318)" fill="#e4944e"/>
        </g>
        <g id="Grupo_85863" data-name="Grupo 85863" transform="translate(338.808 220.255)">
          <path id="Trazado_109083" data-name="Trazado 109083" d="M402.354,605.623c-11.19,5.233-20.671,7.128-31.415,1.03-.587,2.774-1.112,8,.3,9.508a7.219,7.219,0,0,0,3.652,1.7c5.313,1.336,10.671,2.679,16.144,2.912,4.335.183,4.614-.259,8.541-2.267C403.624,616.437,402.2,609.56,402.354,605.623Z" transform="translate(-362.301 -605.135)" fill="#fff"/>
          <path id="Trazado_109084" data-name="Trazado 109084" d="M402.207,616.371c.049-.067.078-.111.093-.135,2.415-3.461,1.425-8.1,1.616-12.093-11.672,4.943-19.823,7.06-31.754,1.519,11.328,6.346,19.728,4.574,31.1-.541C403.29,608.882,404.273,613,402.207,616.371Z" transform="translate(-363.523 -604.143)" fill="#a8a8a7"/>
          <path id="Trazado_109085" data-name="Trazado 109085" d="M347.867,726.816c2.114,9.256,7.409,26.752,18.984,28.486s22.721-15.651,25.388-31.38.1-77.656.77-91.618-.979-17.526-.979-17.526-9.41,8.83-19.312,7.853c-10.2-1.007-21.192-5.164-21.192-5.164s-3.492,25.3-4.793,54.277C345.831,691.854,345.279,715.486,347.867,726.816Z" transform="translate(-345.982 -611.27)" fill="#070f16"/>
          <path id="Trazado_109086" data-name="Trazado 109086" d="M350.829,734.956c2.115,9.256,4.475,18.994,16.05,20.728s22.747-15.238,25.414-30.967-.341-77.9.328-91.861,1.107-18.078,1.107-18.078-9.41,8.83-19.312,7.853c-10.2-1.007-21.192-5.164-21.192-5.164s-1.66,39.647-3.551,59.688S348.241,723.626,350.829,734.956Z" transform="translate(-347.681 -611.27)" fill="#1a2732"/>
        </g>
        <g id="Grupo_85864" data-name="Grupo 85864" transform="translate(376.49 246.092)">
          <path id="Trazado_109087" data-name="Trazado 109087" d="M460.188,686.34c-.074.569,4.411,2.125,4.562,1.941s1.653-.235-.646-1.155S460.251,685.851,460.188,686.34Z" transform="translate(-460.187 -684.908)" fill="#070f16"/>
          <path id="Trazado_109088" data-name="Trazado 109088" d="M461.639,684.321a2.118,2.118,0,1,1,1.373,2.661A2.117,2.117,0,0,1,461.639,684.321Z" transform="translate(-461.093 -682.716)" fill="#1a2732"/>
          <path id="Trazado_109089" data-name="Trazado 109089" d="M464.072,682.553a2.249,2.249,0,1,1-2.826,1.459A2.251,2.251,0,0,1,464.072,682.553Zm-1.287,4.034a1.985,1.985,0,1,0-1.288-2.5A1.987,1.987,0,0,0,462.786,686.587Z" transform="translate(-460.825 -682.446)" fill="#070f16"/>
          <path id="Trazado_109090" data-name="Trazado 109090" d="M468.13,691.026a.48.48,0,1,1,.312.6A.482.482,0,0,1,468.13,691.026Z" transform="translate(-465.495 -687.97)" fill="#070f16"/>
          <path id="Trazado_109091" data-name="Trazado 109091" d="M469.566,686.537a.48.48,0,1,1,.31.6A.48.48,0,0,1,469.566,686.537Z" transform="translate(-466.456 -684.963)" fill="#070f16"/>
          <path id="Trazado_109092" data-name="Trazado 109092" d="M463.263,689.471a.479.479,0,1,1,.31.6A.476.476,0,0,1,463.263,689.471Z" transform="translate(-462.233 -686.929)" fill="#070f16"/>
          <path id="Trazado_109093" data-name="Trazado 109093" d="M464.694,684.983a.48.48,0,1,1,.311.6A.481.481,0,0,1,464.694,684.983Z" transform="translate(-463.192 -683.921)" fill="#070f16"/>
          <path id="Trazado_109094" data-name="Trazado 109094" d="M464.652,690.208l1.607.513-.079.252-1.608-.511Z" transform="translate(-463.125 -687.647)" fill="#070f16"/>
          <path id="Trazado_109095" data-name="Trazado 109095" d="M466.082,685.718l1.608.514-.081.252L466,685.971Z" transform="translate(-464.082 -684.639)" fill="#070f16"/>
        </g>
        <g id="Grupo_85865" data-name="Grupo 85865" transform="translate(376.815 238.754)">
          <path id="Trazado_109096" data-name="Trazado 109096" d="M461.172,664.1c-.074.569,4.411,2.125,4.562,1.942s1.653-.236-.646-1.155S461.236,663.613,461.172,664.1Z" transform="translate(-461.171 -662.669)" fill="#070f16"/>
          <path id="Trazado_109097" data-name="Trazado 109097" d="M462.624,662.083A2.117,2.117,0,1,1,464,664.744,2.117,2.117,0,0,1,462.624,662.083Z" transform="translate(-462.077 -660.477)" fill="#1a2732"/>
          <path id="Trazado_109098" data-name="Trazado 109098" d="M465.057,660.314a2.25,2.25,0,1,1-2.826,1.459A2.252,2.252,0,0,1,465.057,660.314Zm-1.287,4.034a1.985,1.985,0,1,0-1.287-2.5A1.986,1.986,0,0,0,463.77,664.348Z" transform="translate(-461.809 -660.207)" fill="#070f16"/>
          <path id="Trazado_109099" data-name="Trazado 109099" d="M469.115,668.787a.48.48,0,1,1,.312.6A.48.48,0,0,1,469.115,668.787Z" transform="translate(-466.479 -665.731)" fill="#070f16"/>
          <path id="Trazado_109100" data-name="Trazado 109100" d="M470.55,664.3a.48.48,0,1,1,.31.6A.48.48,0,0,1,470.55,664.3Z" transform="translate(-467.44 -662.724)" fill="#070f16"/>
          <path id="Trazado_109101" data-name="Trazado 109101" d="M464.247,667.232a.479.479,0,1,1,.31.6A.478.478,0,0,1,464.247,667.232Z" transform="translate(-463.217 -664.69)" fill="#070f16"/>
          <path id="Trazado_109102" data-name="Trazado 109102" d="M465.676,662.744a.48.48,0,1,1,.311.6A.481.481,0,0,1,465.676,662.744Z" transform="translate(-464.175 -661.683)" fill="#070f16"/>
          <path id="Trazado_109103" data-name="Trazado 109103" d="M465.635,667.968l1.607.513-.079.251-1.608-.511Z" transform="translate(-464.108 -665.408)" fill="#070f16"/>
          <path id="Trazado_109104" data-name="Trazado 109104" d="M467.065,663.479l1.608.514-.081.252-1.608-.513Z" transform="translate(-465.066 -662.399)" fill="#070f16"/>
        </g>
        <g id="Grupo_85866" data-name="Grupo 85866" transform="translate(471.406 120.364)">
          <path id="Trazado_109105" data-name="Trazado 109105" d="M747.86,611.451c7.033-4.223,31.3.833,39.049,2.688-.6,1.974.2,6.68-1.334,8.06-1.013.912-1.425.256-2.77.477-5.407.883-10.858,1.77-16.332,1.539-4.335-.182-9.178-1.035-12.922-3.368C749.692,618.444,747.682,615.388,747.86,611.451Z" transform="translate(-747.849 -508.05)" fill="#070f16"/>
          <path id="Trazado_109106" data-name="Trazado 109106" d="M766.6,603.056c10.577-1.428,21.894.323,29.775,1.518-.431,2.017,1.124,6.917-.287,8.421a7.223,7.223,0,0,1-3.652,1.7c-5.314,1.336-10.671,2.679-16.145,2.911-4.335.184-2.557,1.732-6.485-.278C765.762,615.262,766.758,606.994,766.6,603.056Z" transform="translate(-760.412 -503.165)" fill="#a8a8a7"/>
          <path id="Trazado_109107" data-name="Trazado 109107" d="M807.644,390.966c5.067,5.172-5.182,33.846-9.145,39.255s-5.775-31.786-8.172-27.29c-2.024,3.8-3.307.9-3.307.9,2.862-.323,5.963-15.25,7.425-16.419C799.9,383.051,806.314,389.607,807.644,390.966Z" transform="translate(-774.095 -358.043)" fill="#e4944e"/>
          <path id="Trazado_109108" data-name="Trazado 109108" d="M804.644,395.659c5.067,5.171-8.3,32.69-12.259,38.1s-9.429-5.612-13.352-8.863,3.291-15.343,6.734-22.178c1.037-2.058,1.476-8.746,2.939-9.915C794.161,388.441,803.314,394.3,804.644,395.659Z" transform="translate(-767.982 -361.58)" fill="#ffd3a9"/>
          <path id="Trazado_109109" data-name="Trazado 109109" d="M812.467,343.371a25.341,25.341,0,0,1,6.05-1.049,19.461,19.461,0,0,1,5.171.459,1.264,1.264,0,0,1,.115.357c.311,2.379-4.386,17.534-4.386,17.534-4.516,4.273-9.2.457-10.094.017s-.8-8.36.2-13.7a5.078,5.078,0,0,0-.939-3.1C809.184,343.1,811.688,343.6,812.467,343.371Z" transform="translate(-788.546 -328.806)" fill="#e4944e"/>
          <path id="Trazado_109110" data-name="Trazado 109110" d="M813.472,343.372a25.339,25.339,0,0,1,6.05-1.049,19.056,19.056,0,0,1,3.734.194,1.8,1.8,0,0,1,.393.826c.312,2.38-3.742,17.615-3.742,17.615-4.516,4.273-8.683.173-9.579-.267s1.021-9.755.606-15.179a2.143,2.143,0,0,0-.6-1.124A18.578,18.578,0,0,1,813.472,343.372Z" transform="translate(-789.55 -328.807)" fill="#fec490"/>
          <path id="Trazado_109111" data-name="Trazado 109111" d="M830.348,352.857a25.326,25.326,0,0,1,6.05-1.049,19.451,19.451,0,0,1,5.171.459,1.268,1.268,0,0,1,.115.357c.311,2.379-4.54,19.28-4.54,19.28-4.516,4.273-10.31-1.251-11.09-1.873-1.957-1.56.354-8.216,1.353-13.559a5.074,5.074,0,0,0-.94-3.1C827.065,352.59,829.57,353.087,830.348,352.857Z" transform="translate(-799.739 -335.162)" fill="#e4944e"/>
          <path id="Trazado_109112" data-name="Trazado 109112" d="M831.561,352.857a25.328,25.328,0,0,1,6.05-1.049,19.03,19.03,0,0,1,3.734.194,1.812,1.812,0,0,1,.393.826c.312,2.38-3.637,19.593-3.637,19.593-4.516,4.273-9.939-1.949-10.835-2.39s2.171-9.611,1.756-15.034a2.15,2.15,0,0,0-.6-1.124A18.53,18.53,0,0,1,831.561,352.857Z" transform="translate(-800.952 -335.162)" fill="#fec490"/>
          <path id="Trazado_109113" data-name="Trazado 109113" d="M785.842,304.314s14.321,4.191,16.624,5.493,3.163,3.049,4.322,4.879a30.31,30.31,0,0,1,3.346,8.434c.243.885.488,1.778.727,2.675-2.432-2.329-5.5-5.264-7.843-7.522-4.585-4.409-9.088-3.754-14.549-7.106S785.842,304.314,785.842,304.314Z" transform="translate(-772.814 -303.353)" fill="#e4944e"/>
          <path id="Trazado_109114" data-name="Trazado 109114" d="M786.767,305.925s13.521,4.534,16.408,5.4a23.824,23.824,0,0,1,4.423,4.444,30.308,30.308,0,0,1,3.346,8.434q.266.97.533,1.951c-2.2-2.341-4.862-5.124-7.045-7.224-4.585-4.409-8.972-3.571-14.434-6.923S786.767,305.925,786.767,305.925Z" transform="translate(-773.624 -304.432)" fill="#ffd3a9"/>
          <path id="Trazado_109115" data-name="Trazado 109115" d="M804.113,315.8c-3.028-1.907-10.235-7.006-13.122-7.867s-15.055-7.2-16.838-6.472-2.58,4.917,2.88,8.269,9.964,2.7,14.549,7.106,11.907,11.409,11.907,11.409S806.763,317.465,804.113,315.8Z" transform="translate(-764.58 -301.4)" fill="#e4944e"/>
          <path id="Trazado_109116" data-name="Trazado 109116" d="M810.057,320.913s-15.558-10.087-18.446-10.95-14.51-7.175-16.51-6.814-2.128,4.146,3.332,7.5,9.849,2.514,14.434,6.922,11.3,11.836,11.3,11.836S814.318,325.351,810.057,320.913Z" transform="translate(-765.26 -302.563)" fill="#ffd3a9"/>
          <path id="Trazado_109117" data-name="Trazado 109117" d="M768.16,519.8s2.329,7.8,1.537,13.264,2.634,101.882,2.634,101.882l23.478,3.087s-.111-102.243-.819-104.956S791.6,528.353,791,527.7,768.16,519.8,768.16,519.8Z" transform="translate(-761.458 -447.741)" fill="#ffd3a9"/>
          <path id="Trazado_109118" data-name="Trazado 109118" d="M818.925,424.934s-7.636,14.346-12.129,21.176-6.991,14.349-1.54,20.845c4.625,5.511,5.788,4.6,8.26,5.482s2.1,3.391,3.1-2.829,6.04-11.172,8.626-18.155,4.566-26.915,4.406-29.124S821.964,423.042,818.925,424.934Z" transform="translate(-784.233 -381.898)" fill="#ffd3a9"/>
          <path id="Trazado_109119" data-name="Trazado 109119" d="M819.008,354.421s4.532-17.69,3.8-19.974c-1.394-4.342-8.091-5.561-11.457-8.147s-8.994-4.473-13.392-4.967-5.807-.147-6.841,1.2.411,5.227,5.341,7.282,13.347,6.321,12.813,9.174c-1,5.344-2.25,13.117-1.352,13.559S814.492,358.694,819.008,354.421Z" transform="translate(-776.629 -314.613)" fill="#e4944e"/>
          <path id="Trazado_109120" data-name="Trazado 109120" d="M820.619,356.133s3.948-17.213,3.636-19.593-6.811-6.224-10.489-8.343c-4.691-2.7-7.591-4.074-11.988-4.568s-6.761-1.35-7.795,0-.234,4.59,4.695,6.645,12.705,6.393,12.862,8.439c.415,5.423-2.653,14.592-1.756,15.034S816.1,360.405,820.619,356.133Z" transform="translate(-778.495 -315.807)" fill="#ffd3a9"/>
          <path id="Trazado_109121" data-name="Trazado 109121" d="M849.594,367.59c-1.071,5.488-2.5,11.738-2.5,11.738-4.517,4.273-9.939-1.95-10.835-2.39s2.17-9.611,1.756-15.034c-.081-1.059-2.206-2.732-4.919-4.385A30.62,30.62,0,0,1,849.594,367.59Z" transform="translate(-804.966 -339.002)" fill="#fec490"/>
          <path id="Trazado_109122" data-name="Trazado 109122" d="M842.669,375.813s3.369-12.231,1.827-16.747c-.64-1.874-3.243-3.652-6.475-5a21.807,21.807,0,0,0-9.561-1.949c-3.648.05-6.058.024-6.765,1.233s1.895,4.877,6.139,6.048,6.382,1.164,7.847,5.4c.974,2.821-3.976,10.838-3.2,11.107S839.417,379.776,842.669,375.813Z" transform="translate(-797.252 -335.382)" fill="#e4944e"/>
          <path id="Trazado_109123" data-name="Trazado 109123" d="M843.457,387.42s2.644-24.859,2.143-26.773-3.412-2.526-6.433-4.294-5.269-2.159-8.917-2.108-5.352-.811-6.058.4,1.4,3.965,5.844,4.9c4.308.906,6.549.784,8.156,4.969s-12.36,28.059-11.58,28.327S832.14,395.843,843.457,387.42Z" transform="translate(-798.912 -336.641)" fill="#ffd3a9"/>
          <path id="Trazado_109124" data-name="Trazado 109124" d="M799.123,426.332c.511.514,7.081,6.679,10.38,7.874-3.909-3.022-6.851-7.272-9.629-11.31a17.073,17.073,0,0,1-1.5,2.857Z" transform="translate(-781.702 -382.807)" fill="#fec490"/>
          <path id="Trazado_109125" data-name="Trazado 109125" d="M801.637,440.149c-1.392-9.161-4.214-11.988-4.1-12.243a3.944,3.944,0,0,1-.494.813c.183.334.376.663.544,1,.387.727,1.614,2.6,2.852,10.392a64.423,64.423,0,0,1,.143,16.584A36.658,36.658,0,0,0,801.637,440.149Z" transform="translate(-780.812 -386.165)" fill="#e4944e"/>
        </g>
        <g id="Grupo_85867" data-name="Grupo 85867" transform="translate(468.906 220.255)">
          <path id="Trazado_109126" data-name="Trazado 109126" d="M767.4,605.623c11.19,5.233,18.691,7.128,29.435,1.03.768,1.991,1.112,8-.3,9.508a7.219,7.219,0,0,1-3.652,1.7c-5.313,1.336-10.671,2.679-16.144,2.912-4.335.183-2.634-.259-6.561-2.267C766.127,616.437,767.55,609.56,767.4,605.623Z" transform="translate(-758.366 -605.135)" fill="#fff"/>
          <path id="Trazado_109127" data-name="Trazado 109127" d="M768.232,616.371c-.049-.067-.078-.111-.093-.135-2.416-3.461-1.425-8.1-1.616-12.093,11.672,4.943,17.844,7.06,29.775,1.519-11.328,6.346-17.748,4.574-29.118-.541C767.148,608.882,766.165,613,768.232,616.371Z" transform="translate(-757.832 -604.143)" fill="#a8a8a7"/>
          <path id="Trazado_109128" data-name="Trazado 109128" d="M785.65,725.251c-2.4,9.185-7.567,28.317-19.142,30.051s-22.721-15.651-25.388-31.38S743,646.266,742.33,632.3s.979-17.526.979-17.526,7.43,8.83,17.332,7.853c10.2-1.007,21.191-5.164,21.191-5.164s3.492,25.3,4.793,54.277C787.528,691.854,789.716,709.7,785.65,725.251Z" transform="translate(-740.273 -611.27)" fill="#070f16"/>
          <path id="Trazado_109129" data-name="Trazado 109129" d="M787.681,734.956c-2.114,9.256-4.475,18.994-16.049,20.728s-22.747-15.238-25.415-30.967,2.32-77.9,1.652-91.861-1.107-18.078-1.107-18.078,14.525,6.558,24.428,5.581c10.2-1.007,14.1-2.893,14.1-2.893s1.66,39.647,3.551,59.688S790.269,723.626,787.681,734.956Z" transform="translate(-743.726 -611.27)" fill="#1a2732"/>
        </g>
        <g id="Grupo_85868" data-name="Grupo 85868" transform="translate(475.389 246.931)">
          <path id="Trazado_109130" data-name="Trazado 109130" d="M765.1,688.883c.073.569-4.411,2.125-4.562,1.942s-1.653-.235.646-1.155S765.04,688.394,765.1,688.883Z" transform="translate(-759.92 -687.451)" fill="#070f16"/>
          <path id="Trazado_109131" data-name="Trazado 109131" d="M765.578,686.864a2.118,2.118,0,1,0-1.373,2.661A2.117,2.117,0,0,0,765.578,686.864Z" transform="translate(-760.94 -685.259)" fill="#1a2732"/>
          <path id="Trazado_109132" data-name="Trazado 109132" d="M765.436,686.555a2.249,2.249,0,1,1-2.826-1.459A2.252,2.252,0,0,1,765.436,686.555Zm-.251.08a1.985,1.985,0,1,0-1.288,2.5A1.989,1.989,0,0,0,765.185,686.635Z" transform="translate(-760.673 -684.989)" fill="#070f16"/>
          <path id="Trazado_109133" data-name="Trazado 109133" d="M765.739,693.569a.48.48,0,1,0-.312.6A.482.482,0,0,0,765.739,693.569Z" transform="translate(-763.19 -690.513)" fill="#070f16"/>
          <path id="Trazado_109134" data-name="Trazado 109134" d="M764.3,689.08a.48.48,0,1,0-.31.6A.481.481,0,0,0,764.3,689.08Z" transform="translate(-762.23 -687.505)" fill="#070f16"/>
          <path id="Trazado_109135" data-name="Trazado 109135" d="M770.608,692.014a.479.479,0,1,0-.914.29.479.479,0,1,0,.914-.29Z" transform="translate(-766.454 -689.472)" fill="#070f16"/>
          <path id="Trazado_109136" data-name="Trazado 109136" d="M769.177,687.526a.48.48,0,1,0-.312.6A.48.48,0,0,0,769.177,687.526Z" transform="translate(-765.495 -686.464)" fill="#070f16"/>
          <path id="Trazado_109137" data-name="Trazado 109137" d="M767.743,692.75l-1.607.513.079.252,1.608-.511Z" transform="translate(-764.085 -690.19)" fill="#070f16"/>
          <path id="Trazado_109138" data-name="Trazado 109138" d="M766.307,688.261l-1.608.514.081.252,1.608-.513Z" transform="translate(-763.122 -687.182)" fill="#070f16"/>
        </g>
        <g id="Grupo_85869" data-name="Grupo 85869" transform="translate(475.064 239.593)">
          <path id="Trazado_109139" data-name="Trazado 109139" d="M764.12,666.644c.074.569-4.411,2.125-4.563,1.942s-1.653-.236.646-1.155S764.055,666.156,764.12,666.644Z" transform="translate(-758.936 -665.212)" fill="#070f16"/>
          <path id="Trazado_109140" data-name="Trazado 109140" d="M764.594,664.626a2.117,2.117,0,1,0-1.373,2.661A2.117,2.117,0,0,0,764.594,664.626Z" transform="translate(-759.956 -663.02)" fill="#1a2732"/>
          <path id="Trazado_109141" data-name="Trazado 109141" d="M764.452,664.317a2.249,2.249,0,1,1-2.826-1.459A2.252,2.252,0,0,1,764.452,664.317Zm-.252.079a1.985,1.985,0,1,0-1.287,2.5A1.988,1.988,0,0,0,764.2,664.4Z" transform="translate(-759.689 -662.75)" fill="#070f16"/>
          <path id="Trazado_109142" data-name="Trazado 109142" d="M764.755,671.33a.48.48,0,1,0-.312.6A.481.481,0,0,0,764.755,671.33Z" transform="translate(-762.207 -668.274)" fill="#070f16"/>
          <path id="Trazado_109143" data-name="Trazado 109143" d="M763.321,666.841a.48.48,0,1,0-.31.6A.48.48,0,0,0,763.321,666.841Z" transform="translate(-761.246 -665.267)" fill="#070f16"/>
          <path id="Trazado_109144" data-name="Trazado 109144" d="M769.625,669.775a.479.479,0,1,0-.31.6A.478.478,0,0,0,769.625,669.775Z" transform="translate(-765.471 -667.233)" fill="#070f16"/>
          <path id="Trazado_109145" data-name="Trazado 109145" d="M768.193,665.287a.48.48,0,1,0-.311.6A.48.48,0,0,0,768.193,665.287Z" transform="translate(-764.511 -664.226)" fill="#070f16"/>
          <path id="Trazado_109146" data-name="Trazado 109146" d="M766.759,670.511l-1.607.513.079.252,1.608-.511Z" transform="translate(-763.101 -667.95)" fill="#070f16"/>
          <path id="Trazado_109147" data-name="Trazado 109147" d="M765.324,666.022l-1.608.514.081.252,1.609-.513Z" transform="translate(-762.139 -664.942)" fill="#070f16"/>
        </g>
      </g>
    </g>
  </g>
</svg>
