<svg xmlns="http://www.w3.org/2000/svg" width="399" height="472" viewBox="0 0 399 472">
  <g id="Grupo_87749" data-name="Grupo 87749" transform="translate(-601 -31836.586)">
    <rect id="Rectángulo_33962" data-name="Rectángulo 33962" width="399" height="472" transform="translate(601 31836.586)" fill="#f2df85"/>
    <g id="Grupo_85817" data-name="Grupo 85817" transform="translate(1011.169 32056.803)">
      <g id="Grupo_85803" data-name="Grupo 85803" transform="translate(-242.192 -137.217)">
        <circle id="Elipse_4268" data-name="Elipse 4268" cx="49.718" cy="49.718" r="49.718" transform="translate(3.993 99.733) rotate(-73.139)" fill="#fd9000"/>
        <circle id="Elipse_4269" data-name="Elipse 4269" cx="49.138" cy="49.138" r="49.138" transform="translate(16.856 16.856)" fill="#ffe80d"/>
        <circle id="Elipse_4270" data-name="Elipse 4270" cx="46.664" cy="46.664" r="46.664" transform="translate(0 65.993) rotate(-45)" fill="#ffc40c"/>
        <path id="Trazado_108654" data-name="Trazado 108654" d="M273.97-9.986a40.924,40.924,0,0,1-40.924,40.924A40.924,40.924,0,0,1,192.122-9.986a40.923,40.923,0,0,1,40.924-40.923A40.923,40.923,0,0,1,273.97-9.986Z" transform="translate(-167.052 76.558)" fill="#fd9000"/>
        <path id="Trazado_108655" data-name="Trazado 108655" d="M276.083-6.325a39.376,39.376,0,0,1-39.376,39.376A39.376,39.376,0,0,1,197.331-6.325,39.376,39.376,0,0,1,236.707-45.7,39.376,39.376,0,0,1,276.083-6.325Z" transform="translate(-170.713 72.898)" fill="#feb200"/>
        <path id="Trazado_108656" data-name="Trazado 108656" d="M296.566,2.464c6.161-3.156,8.422-8.476,8.422-12.7a12.53,12.53,0,0,0-7.256-11.138,23.294,23.294,0,0,0-6.88-1.889v-6.844H285.48v6.278l-3.043-.049.049-6.229H277.23v6.377c-3.779.029-8.181.09-10.825.151l-.936.022-.067.934c-.087,1.218-.087,2.608-.087,3.953v1l6.325.169V27.123l-6.26.179-.062.934c-.087,1.3-.087,2.646-.087,3.948v1.03h10.9c.253,0,.634,0,1.1.006v6.155h5.6l-.049-5.885h2.994l-.049,5.885h5.127v-6.35c10.722-1.37,17.594-7.85,17.594-16.7C308.447,9.907,303.49,4.293,296.566,2.464Zm-16.208-20.12c.848-.075,2.106-.154,3.865-.154,7.653,0,12.043,3.282,12.043,9.006,0,6.178-6.682,9.513-12.97,9.513-1.377,0-2.367-.035-3.014-.075Zm5.974,45.015c-6.139,0-6.139-.877-6.139-2.086l.081-18.579c.865-.046,2.322-.046,4.034-.046C295.425,6.648,299.386,12,299.386,17S295.957,27.359,286.332,27.359Z" transform="translate(-218.433 61.94)" fill="#fd9000"/>
        <path id="Trazado_108657" data-name="Trazado 108657" d="M296.36,5.44V4.934C301.841,2.91,306.4-1.644,306.4-7.8a11.558,11.558,0,0,0-6.663-10.205,23.52,23.52,0,0,0-7.474-1.911v-6.724H288.9v6.426h-4.81v-6.426H280.7v6.369c-4.058.025-8.969.092-11.831.158-.084,1.181-.084,2.53-.084,3.879l6.325.169V30.151a.394.394,0,0,1-.422.422l-5.9.169c-.084,1.265-.084,2.615-.084,3.88h9.867c.42,0,1.191.006,2.133.015v6.147h3.588V34.356H288.8v6.426h3.459V34.541c10.783-1.06,17.594-7.2,17.594-15.776C309.854,12.018,303.95,6.367,296.36,5.44ZM281.769-16.151a40.9,40.9,0,0,1,4.892-.253c8.94,0,13.073,4.3,13.073,10.036,0,6.41-6.494,10.543-14,10.543a33.09,33.09,0,0,1-4.048-.169Zm7,46.976c-5.482,0-7.169-.591-7.169-3.12l.084-19.482a30.988,30.988,0,0,1,5.06-.169c12.145,0,16.108,6.241,16.108,11.386C302.854,27.705,295.517,30.826,288.77,30.826Z" transform="translate(-220.871 59.503)" fill="#ffe80d"/>
        <path id="Trazado_108658" data-name="Trazado 108658" d="M391.419,116.1l.435.434-.435.434a4.426,4.426,0,0,0-1.018,1.859l-.238.795-.238-.795a4.423,4.423,0,0,0-1.018-1.859l-.436-.434.436-.434a4.423,4.423,0,0,0,1.018-1.859l.238-.795.238.795A4.426,4.426,0,0,0,391.419,116.1Z" transform="translate(-305.05 -38.953)" fill="#fff"/>
        <path id="Trazado_108659" data-name="Trazado 108659" d="M400.342,129.01l.2.2-.2.2a2,2,0,0,0-.46.839l-.107.359-.107-.359a1.994,1.994,0,0,0-.46-.839l-.2-.2.2-.2a1.992,1.992,0,0,0,.46-.84l.107-.358.107.358A2,2,0,0,0,400.342,129.01Z" transform="translate(-312.458 -49.05)" fill="#fff"/>
      </g>
      <g id="Grupo_85804" data-name="Grupo 85804" transform="translate(-153.669 14.186)">
        <circle id="Elipse_4271" data-name="Elipse 4271" cx="27.875" cy="27.875" r="27.875" transform="translate(3.169 55.808) rotate(-69.777)" fill="#fd9000"/>
        <circle id="Elipse_4272" data-name="Elipse 4272" cx="27.55" cy="27.55" r="27.55" transform="translate(0 38.962) rotate(-45)" fill="#ffe80d"/>
        <circle id="Elipse_4273" data-name="Elipse 4273" cx="26.164" cy="26.164" r="26.164" transform="translate(5.176 54.046) rotate(-69.059)" fill="#ffc40c"/>
        <path id="Trazado_108660" data-name="Trazado 108660" d="M505.425,450.18a22.945,22.945,0,1,1-22.945-22.945A22.946,22.946,0,0,1,505.425,450.18Z" transform="translate(-443.518 -410.893)" fill="#fd9000"/>
        <circle id="Elipse_4274" data-name="Elipse 4274" cx="22.077" cy="22.077" r="22.077" transform="translate(12.634 56.069) rotate(-77.514)" fill="#feb200"/>
        <path id="Trazado_108661" data-name="Trazado 108661" d="M518.095,457.161a8.084,8.084,0,0,0,4.722-7.121,7.026,7.026,0,0,0-4.068-6.245,13.053,13.053,0,0,0-3.858-1.059V438.9h-3.012v3.52l-1.706-.028.027-3.492h-2.947v3.575c-2.119.016-4.587.05-6.07.085l-.525.012-.037.524c-.049.682-.049,1.462-.049,2.216v.562l3.546.095v25.019l-3.51.1-.035.524c-.049.728-.049,1.484-.049,2.214v.578h6.11l.618,0v3.452h3.14l-.028-3.3h1.678l-.028,3.3h2.875V474.3c6.011-.768,9.865-4.4,9.865-9.361C524.756,461.334,521.977,458.186,518.095,457.161Zm-9.087-11.281c.476-.042,1.181-.086,2.167-.086,4.291,0,6.752,1.84,6.752,5.049,0,3.464-3.747,5.334-7.272,5.334-.772,0-1.328-.02-1.69-.042Zm3.35,25.239c-3.442,0-3.442-.492-3.442-1.17l.045-10.417c.485-.026,1.3-.026,2.262-.026,6.233,0,8.454,3,8.454,5.806S517.753,471.119,512.357,471.119Z" transform="translate(-472.326 -419.09)" fill="#fd9000"/>
        <path id="Trazado_108662" data-name="Trazado 108662" d="M517.979,458.829v-.284c3.074-1.135,5.627-3.688,5.627-7.14a6.48,6.48,0,0,0-3.736-5.722,13.186,13.186,0,0,0-4.19-1.072v-3.77H513.8v3.6h-2.7v-3.6h-1.9v3.571c-2.275.014-5.029.051-6.634.089-.047.662-.047,1.418-.047,2.175l3.546.094v25.913a.221.221,0,0,1-.236.237l-3.31.095c-.047.709-.047,1.466-.047,2.175H508c.236,0,.668,0,1.2.008v3.446h2.012v-3.6h2.531v3.6h1.939v-3.5c6.046-.594,9.865-4.038,9.865-8.845C525.545,462.517,522.235,459.349,517.979,458.829ZM509.8,446.723a22.918,22.918,0,0,1,2.743-.142c5.012,0,7.329,2.412,7.329,5.627,0,3.594-3.641,5.911-7.85,5.911a18.667,18.667,0,0,1-2.27-.094Zm3.925,26.338c-3.073,0-4.019-.331-4.019-1.749l.047-10.924a17.377,17.377,0,0,1,2.837-.095c6.809,0,9.032,3.5,9.032,6.384C521.62,471.313,517.506,473.062,513.723,473.062Z" transform="translate(-473.693 -420.456)" fill="#ffe80d"/>
        <path id="Trazado_108663" data-name="Trazado 108663" d="M571.277,520.874l.244.243-.244.244a2.478,2.478,0,0,0-.571,1.042l-.133.446-.133-.446a2.479,2.479,0,0,0-.571-1.042l-.244-.244.244-.243a2.481,2.481,0,0,0,.571-1.042l.133-.445.133.445A2.48,2.48,0,0,0,571.277,520.874Z" transform="translate(-520.89 -475.658)" fill="#fff"/>
        <path id="Trazado_108664" data-name="Trazado 108664" d="M576.279,528.112l.11.11-.11.11a1.117,1.117,0,0,0-.258.471l-.06.2-.06-.2a1.117,1.117,0,0,0-.258-.471l-.11-.11.11-.11a1.119,1.119,0,0,0,.258-.471l.06-.2.06.2A1.119,1.119,0,0,0,576.279,528.112Z" transform="translate(-525.043 -481.319)" fill="#fff"/>
      </g>
      <g id="Grupo_85805" data-name="Grupo 85805" transform="translate(-79.031 114.918)">
        <path id="Trazado_108665" data-name="Trazado 108665" d="M691.183,728.4a17.2,17.2,0,1,1-17.2-17.2A17.2,17.2,0,0,1,691.183,728.4Z" transform="translate(-656.791 -711.204)" fill="#fd9000"/>
        <path id="Trazado_108666" data-name="Trazado 108666" d="M691.457,728.2a17,17,0,1,1-17-17A17,17,0,0,1,691.457,728.2Z" transform="translate(-657.265 -711.204)" fill="#ffe80d"/>
        <path id="Trazado_108667" data-name="Trazado 108667" d="M692.624,730.223a16.14,16.14,0,1,1-16.14-16.14A16.14,16.14,0,0,1,692.624,730.223Z" transform="translate(-659.288 -713.227)" fill="#ffc40c"/>
        <circle id="Elipse_4275" data-name="Elipse 4275" cx="14.155" cy="14.155" r="14.155" transform="translate(3.041 3.041)" fill="#fd9000"/>
        <path id="Trazado_108668" data-name="Trazado 108668" d="M696.065,736.859a13.619,13.619,0,1,1-13.619-13.619A13.619,13.619,0,0,1,696.065,736.859Z" transform="translate(-665.25 -719.663)" fill="#feb200"/>
        <path id="Trazado_108669" data-name="Trazado 108669" d="M703.15,739.9a4.987,4.987,0,0,0,2.913-4.393,4.334,4.334,0,0,0-2.51-3.852,8.072,8.072,0,0,0-2.379-.653v-2.367h-1.858V730.8l-1.052-.017.017-2.155h-1.818v2.206c-1.307.01-2.83.031-3.744.052l-.324.007-.023.323c-.03.421-.03.9-.03,1.367v.347l2.188.058v15.434l-2.165.062-.022.323c-.03.449-.03.915-.03,1.366v.356h3.769l.381,0v2.129H698.4l-.017-2.035h1.035l-.017,2.035h1.774v-2.2c3.708-.474,6.085-2.715,6.085-5.775A5.189,5.189,0,0,0,703.15,739.9Zm-5.606-6.959c.293-.026.728-.053,1.337-.053,2.647,0,4.165,1.135,4.165,3.115,0,2.137-2.311,3.29-4.486,3.29-.476,0-.819-.012-1.043-.026Zm2.066,15.569c-2.123,0-2.123-.3-2.123-.722l.028-6.426c.3-.016.8-.016,1.4-.016,3.845,0,5.215,1.85,5.215,3.581S702.939,748.509,699.61,748.509Z" transform="translate(-681.755 -723.453)" fill="#fd9000"/>
        <path id="Trazado_108670" data-name="Trazado 108670" d="M703.078,740.928v-.175a4.861,4.861,0,0,0,3.471-4.4,4,4,0,0,0-2.3-3.53,8.137,8.137,0,0,0-2.585-.661v-2.326H700.5v2.222h-1.663v-2.222h-1.173v2.2c-1.4.008-3.1.031-4.092.055-.029.408-.029.875-.029,1.342l2.188.058v15.985a.136.136,0,0,1-.146.146l-2.042.059c-.029.437-.029.9-.029,1.342h3.413c.146,0,.412,0,.738.005v2.126H698.9V750.93h1.561v2.222h1.2v-2.158c3.729-.367,6.085-2.491,6.085-5.457C707.745,743.2,705.7,741.249,703.078,740.928Zm-5.047-7.468a14.16,14.16,0,0,1,1.692-.087c3.092,0,4.522,1.487,4.522,3.471,0,2.217-2.246,3.646-4.842,3.646a11.453,11.453,0,0,1-1.4-.059Zm2.422,16.248c-1.9,0-2.48-.2-2.48-1.079l.029-6.739a10.712,10.712,0,0,1,1.75-.059c4.2,0,5.572,2.159,5.572,3.938C705.324,748.629,702.786,749.708,700.453,749.708Z" transform="translate(-682.598 -724.296)" fill="#ffe80d"/>
        <path id="Trazado_108671" data-name="Trazado 108671" d="M735.958,779.2l.15.15-.15.15a1.529,1.529,0,0,0-.353.643l-.082.275-.082-.275a1.532,1.532,0,0,0-.352-.643l-.151-.15.151-.15a1.53,1.53,0,0,0,.352-.643l.082-.275.082.275A1.526,1.526,0,0,0,735.958,779.2Z" transform="translate(-711.714 -758.35)" fill="#fff"/>
        <path id="Trazado_108672" data-name="Trazado 108672" d="M739.043,783.668l.068.068-.068.068a.691.691,0,0,0-.159.29l-.037.124-.037-.124a.691.691,0,0,0-.159-.29l-.068-.068.068-.068a.692.692,0,0,0,.159-.291l.037-.124.037.124A.692.692,0,0,0,739.043,783.668Z" transform="translate(-714.276 -761.841)" fill="#fff"/>
      </g>
      <g id="Grupo_85806" data-name="Grupo 85806" transform="translate(-50.357 157.673)">
        <path id="Trazado_108673" data-name="Trazado 108673" d="M770.721,863.794A8.722,8.722,0,1,1,762,855.072,8.722,8.722,0,0,1,770.721,863.794Z" transform="translate(-753.277 -855.072)" fill="#fd9000"/>
        <path id="Trazado_108674" data-name="Trazado 108674" d="M770.86,863.693a8.621,8.621,0,1,1-8.621-8.621A8.62,8.62,0,0,1,770.86,863.693Z" transform="translate(-753.517 -855.072)" fill="#ffe80d"/>
        <path id="Trazado_108675" data-name="Trazado 108675" d="M771.452,864.719a8.187,8.187,0,1,1-8.187-8.187A8.187,8.187,0,0,1,771.452,864.719Z" transform="translate(-754.543 -856.098)" fill="#ffc40c"/>
        <path id="Trazado_108676" data-name="Trazado 108676" d="M772.827,867.442a7.179,7.179,0,1,1-7.18-7.179A7.18,7.18,0,0,1,772.827,867.442Z" transform="translate(-756.925 -858.72)" fill="#fd9000"/>
        <path id="Trazado_108677" data-name="Trazado 108677" d="M773.2,868.085a6.908,6.908,0,1,1-6.908-6.908A6.908,6.908,0,0,1,773.2,868.085Z" transform="translate(-757.567 -859.363)" fill="#feb200"/>
        <path id="Trazado_108678" data-name="Trazado 108678" d="M776.791,869.627a2.53,2.53,0,0,0,1.478-2.228A2.2,2.2,0,0,0,777,865.445a4.084,4.084,0,0,0-1.207-.331v-1.2h-.942v1.1l-.534-.009.009-1.092H773.4v1.118c-.663.005-1.435.016-1.9.027l-.164,0-.012.164c-.016.213-.016.457-.016.694v.176l1.11.03v7.828l-1.1.031-.011.164c-.015.228-.015.464-.015.693v.181H773.4v1.08h.982l-.008-1.032h.525l-.009,1.032h.9v-1.114c1.881-.24,3.087-1.377,3.087-2.929A2.632,2.632,0,0,0,776.791,869.627Zm-2.843-3.53c.149-.013.37-.027.678-.027,1.343,0,2.113.576,2.113,1.58,0,1.084-1.173,1.669-2.276,1.669-.242,0-.415-.006-.529-.013Zm1.048,7.9c-1.077,0-1.077-.154-1.077-.366l.014-3.26c.152-.008.407-.008.708-.008,1.95,0,2.645.938,2.645,1.817S776.684,873.995,775,873.995Z" transform="translate(-765.939 -861.286)" fill="#fd9000"/>
        <path id="Trazado_108679" data-name="Trazado 108679" d="M776.755,870.149v-.089a2.466,2.466,0,0,0,1.761-2.234,2.027,2.027,0,0,0-1.169-1.79,4.13,4.13,0,0,0-1.311-.336v-1.18h-.589v1.127H774.6v-1.127h-.6v1.117c-.712,0-1.574.016-2.076.028-.015.207-.015.444-.015.681l1.109.029v8.108a.069.069,0,0,1-.074.074l-1.035.03c-.015.222-.015.459-.015.681h1.731l.374,0v1.078h.629v-1.127h.792v1.127h.607v-1.095c1.892-.186,3.087-1.263,3.087-2.768A2.527,2.527,0,0,0,776.755,870.149Zm-2.56-3.788a7.226,7.226,0,0,1,.858-.044c1.569,0,2.294.755,2.294,1.76,0,1.125-1.139,1.849-2.457,1.849a5.8,5.8,0,0,1-.71-.029Zm1.228,8.241c-.962,0-1.258-.1-1.258-.547l.015-3.418a5.358,5.358,0,0,1,.888-.03c2.13,0,2.826,1.1,2.826,2C777.894,874.055,776.607,874.6,775.423,874.6Z" transform="translate(-766.367 -861.713)" fill="#ffe80d"/>
        <path id="Trazado_108680" data-name="Trazado 108680" d="M793.431,889.563l.076.076-.076.076a.774.774,0,0,0-.179.326l-.042.14-.042-.14a.778.778,0,0,0-.179-.326l-.076-.076.076-.076a.775.775,0,0,0,.179-.326l.042-.139.042.139A.77.77,0,0,0,793.431,889.563Z" transform="translate(-781.134 -878.985)" fill="#fff"/>
        <path id="Trazado_108681" data-name="Trazado 108681" d="M795,891.828l.034.034L795,891.9a.354.354,0,0,0-.081.147l-.019.063-.019-.063a.35.35,0,0,0-.081-.147l-.034-.034.034-.034a.351.351,0,0,0,.081-.147l.019-.063.019.063A.355.355,0,0,0,795,891.828Z" transform="translate(-782.435 -880.757)" fill="#fff"/>
      </g>
      <path id="Trazado_108682" data-name="Trazado 108682" d="M-390.169-90.884l108.948-16.489S-235.286,33.966-235.286,32.2s46.524,1.767,46.524,1.767l45.346,82.447h34.157l18.846,61.836,39.4,36.309,18.857-13.125,1.63,49.958L-81.29,239l18.983-13.948-41.063-29.132-20.023-55.357-36.512,2.356L-202.9,72.245l-63.6,5.889Z" transform="translate(0 -20.975)" fill="#ed1c24"/>
      <g id="Grupo_85807" data-name="Grupo 85807" transform="translate(-269.375 77.895)">
        <path id="Trazado_108683" data-name="Trazado 108683" d="M19.792,596.5s13.419-13.666,26.487-8.849,26.14,22.122,31.775,28.469,14.2,41.464,3.953,39.821-26.6-4.253-40.695-14.317S8.422,611.075,19.792,596.5Z" transform="translate(-16.295 -586.623)" fill="#0067b4"/>
        <path id="Trazado_108684" data-name="Trazado 108684" d="M103.418,622.421c-4.7,6.58-28.009,23.715-33.2,22.135s-10.4-23.829-8.88-36.9c-5.264,8.233-1.388,19.327-.695,28.671a43.942,43.942,0,0,1-.566,6.417c-4.9-13.636-4.174-28.863.428-42.5-8.32,2.606-8.406,12.976-8.845,20.631a4.473,4.473,0,0,1-.093,1.462c.034-.473.064-.962.093-1.462a21.823,21.823,0,0,0-.67-2.938C49.477,612,40.834,603.379,44.571,597.4c1.955-3.025,7.988-5.937,10.3-5.592a35.12,35.12,0,0,0-7.709-4.156c-13.068-4.817-26.487,8.849-26.487,8.849-11.37,14.574,10.9,45.993,25,56.057s27.141,8.87,37.256,6.536C90.567,657.332,106.028,633.619,103.418,622.421Z" transform="translate(-17.177 -586.623)" fill="#005698"/>
      </g>
      <g id="Grupo_85808" data-name="Grupo 85808" transform="translate(-379.39 62.486)">
        <path id="Trazado_108685" data-name="Trazado 108685" d="M-113.809,596.7l19.648,2.777,5.955,19.68-14.413,33.006-39.06-14.672,3.493-45.692Z" transform="translate(204.748 -574.853)" fill="#f6c280"/>
        <path id="Trazado_108686" data-name="Trazado 108686" d="M-97.392,551.583l-10.128,3.945-10.812-4.084-43.685-16.671,16.691,22.607s14,11.245,22.595,13.647l8.6,2.4a50.272,50.272,0,0,1-2.338,6.972,15.657,15.657,0,0,0-.957,6.043,74.482,74.482,0,0,0-3.85,24l4.368,1.64s16.7-30.706,16.766-35.059S-97.392,551.583-97.392,551.583Z" transform="translate(219.041 -534.773)" fill="#e5a268"/>
        <path id="Trazado_108687" data-name="Trazado 108687" d="M-317.943,789.575h6.011l16.113-12.947c2.87.374,5.97,5.813,9.133,12.947h99.178a38.568,38.568,0,0,1-.295-9.381c1.961-20.419-3.2-39.876-.15-59.566,8.133-52.485-6.657-83.57-6.657-83.57s-7.386,8.251-11.02,13.07-23.361,17.032-46.588,9.4-57.545-33.569-59.435-30.4-6.779,61.168-4.625,87.037C-314.344,739.4-312.536,762.586-317.943,789.575Z" transform="translate(328.628 -600.895)" fill="#20c4f4"/>
        <path id="Trazado_108688" data-name="Trazado 108688" d="M87.438,1142.429c-2.379-3.116-5.564-6.641-5.35-10.662.172-3.222-7.61,3.159-15.876,10.662Z" transform="translate(58.638 -953.75)" fill="#00b5f1"/>
        <path id="Trazado_108689" data-name="Trazado 108689" d="M-350.711,737.179c.534,9.962-.715,16.475-.969,21.954h79.3c-4.879-5.083-9.746-10-14.174-12.722-5.759-3.537-25.312-19.773-29.679-34.264a55.982,55.982,0,0,1-1.292-6.865c.619.149,1.313-.011,1.857.448,11.009,14.127,24.453,23.6,37.373,35.238,2.723,2.3,5.67,3.663,8.468,5.649,3.182,1.751,6.748,3.267,10.678,1.922,0,0-42.872-36.894-48.808-63.889,4.2,10.157,11.13,17.338,12.849,19.72,11.191,17.448,24.128,23.944,45.795,18.36.384-.235,2.306-1.409,2-1.484-20.391.581-42.025-23.006-49.51-31.368-8.5-9.589-15.892-30.3-19.235-42.248a197.451,197.451,0,0,1-7.252-42.675c-7.588-4.531-23.6-20.543-24.315-19.351-1.889,3.166-7.97,67.641-5.817,93.512C-352.347,692.293-351.927,714.492-350.711,737.179Z" transform="translate(353.899 -570.454)" fill="#00b5f1"/>
        <path id="Trazado_108690" data-name="Trazado 108690" d="M-149.582,641.213s21.424,23.312,39.3,17.963,19.462-23.7,19.462-23.7,5.741,8.19,6.64,11.947-11.417,20.831-24.2,22.779-33.256-3.36-38.73-10.24S-149.582,641.213-149.582,641.213Z" transform="translate(210.879 -605.551)" fill="#005698"/>
      </g>
      <g id="Grupo_85809" data-name="Grupo 85809" transform="translate(-367.355 -119.781)">
        <path id="Trazado_108691" data-name="Trazado 108691" d="M-164.311,16.142c-.042-12.2,13.024-55.963-4.72-68.7q-1.252-.9-2.533-1.778c-19.057-13-31.1-18.307-31.1-18.307l12.285-1.579s-8-2.6-29.138-3.114-38.562,8.454-38.562,8.454l1.656-9.665a216.45,216.45,0,0,1-20.914,16.862C-289.19-53.325-313.4-11.653-313.4-11.653a404.009,404.009,0,0,0,4.724,44.77c2.135,12.777,5.188,26.015,9.524,36.329C-286.834,98.746-164.267,28.91-164.311,16.142Z" transform="translate(313.4 78.546)" fill="#472500"/>
        <path id="Trazado_108692" data-name="Trazado 108692" d="M-68.315-42.513q-1.251-.9-2.53-1.776-.947-.647-1.87-1.267c-.355,2.118-2.23,4.18-4.5,4.027a13.519,13.519,0,0,0-2.334.022c-.174.034-.722.125-.789.142-.413.1-.826.209-1.233.339-1.495.476-2.939,1.078-4.387,1.68a29.532,29.532,0,0,1-7.051,2.14c.664-.152.767-.849-.651-2.487-1.85-2.135-6.016-3.337-4.963-5.982a3.34,3.34,0,0,1,3.265-2.2c.742.046,6.035-.225,7.476-.821a29.3,29.3,0,0,1,7.072-2.118,184.753,184.753,0,0,0-21.1-11.759l11.7-3.008s-25.3-4.108-54.473,12.122c-1.912,1.064-3.338,2.844-5.071,4.188,2.194,1.806-6.964,11.033-6.845,12.3,1.509-.311,18.922,1.868,16.379,2.2-.317.042-.633.085-.948.133l-.075.013c-.533.1-1.065.2-1.6.314-1.134.246-2.265.514-3.383.823a63.863,63.863,0,0,0-7.524,2.555q-.531.222-1.06.453c-.024.013-.164.078-.424.2-.556.267-1.112.536-1.657.826-1.05.558-2.091,1.14-3.083,1.8-.472.312-.942.627-1.394.968l-.257.2c-.126.106-.252.211-.375.321a17.925,17.925,0,0,0-2.046,2.165,4.066,4.066,0,0,1-3.369,1.435c-.619,2.2-1.379,4.35-2.053,6.531a42.925,42.925,0,0,0-1.12,4.408c.07.028.139.053.208.084l.327.143c.244.083.488.165.736.237.481.133.962.264,1.451.364.671.137,1.344.264,2.025.354-.064-.008,1.134.119,1.03.119,2.181.176,4.367.235,6.552.34,5.363.257,10.717.964,16.074,1.361,20.6,1.525,41.27,2.218,61.9,3.252,6.874.345,13.765.606,20.644.975C-58.143-19.579-58.7-35.61-68.315-42.513Z" transform="translate(213.026 69.762)" fill="#5e3d33"/>
      </g>
      <g id="Grupo_85810" data-name="Grupo 85810" transform="translate(-355.866 -81.696)">
        <path id="Trazado_108693" data-name="Trazado 108693" d="M-84.668,96.162s-10.8,66.377-13.556,76.909c-1.291,4.929-23.211,49.61-51.325,48.018-22.263-1.259-63.5-28.708-63.436-53.83.029-12.322-2.306-11.8-1.652-76.753,0,0,7.005-40.675,69.674-40.9C-90.89,49.417-84.6,81.01-84.668,96.162Z" transform="translate(232.579 -49.608)" fill="#f6ce9b"/>
        <path id="Trazado_108694" data-name="Trazado 108694" d="M46.475,358.262c4.542-.85,6.229-3.064,6.909-4.314-4.546-6.707-5.019-15.39-5.437-21.717,0,0,3.753,12.642,9.385,18.934,3.529,3.943-3.306,9.429-8.84,10.745a7.407,7.407,0,0,1-8.145-3.564S41.932,359.113,46.475,358.262Z" transform="translate(53.291 -248.24)" fill="#e5a268"/>
        <path id="Trazado_108695" data-name="Trazado 108695" d="M-256.16,257.1s-4.4-10.727-10.588-8.081S-276.217,266.068-274.1,275s15.86,16.04,18.248,14.448a2.63,2.63,0,0,0,.8-3.814Z" transform="translate(274.741 -189.465)" fill="#e5a268"/>
        <path id="Trazado_108696" data-name="Trazado 108696" d="M-261.336,283.629s-.514-12.817,5.787-12.688,8.056,12.08,5.512,12.957-4.994,1.3-2.569,3.229a16.072,16.072,0,0,1,3.882,5.06s-4.624-.042-7.3-1.543-2.617-7.34-2.617-7.34,2,4.619,4.138,5.309-4.845-2.448.246-6.318,2.935-9.176.353-9.119C-259.974,273.3-261.336,283.629-261.336,283.629Z" transform="translate(265.327 -205.164)" fill="#e5a268"/>
      </g>
      <g id="Grupo_85811" data-name="Grupo 85811" transform="translate(-344.323 -91.442)">
        <path id="Trazado_108697" data-name="Trazado 108697" d="M-113.762,51.063s-14.724,4.147-47.057,3.609c-32.176-.535-52.686-3.257-52.686-3.257s-11.119,58.248-11.984,68.547-2.368,23.976-2.368,23.976-4.78-9.392-7.247-35.863-4.043-97,73.978-86.6,71.062,46.448,68.4,68.17c-3,24.473-9.79,23.439-10.011,33.44,0,0,.941-19.537,1.011-34.967S-113.762,51.063-113.762,51.063Z" transform="translate(235.9 -19.362)" fill="#5e3d33"/>
        <path id="Trazado_108698" data-name="Trazado 108698" d="M124.508,89.559c2.437-19.876,14.975-59.5-43.792-72.744-.688.37-4.04,3.884-1.829,5.454,1.459,1.035,1.1,3.008,1.347,4.682.947,4.1,7.927,7.529,10.474,11.7,2.466,3.667,5.278,7.75,6.918,11.921,8.425-1,9.326-2.054,9.326-2.054s12.106,21.631,12.034,37.059c-.061,13.376-.776,29.835-.966,33.981C118.656,110.582,121.61,113.2,124.508,89.559Z" transform="translate(15.186 -16.815)" fill="#472500"/>
      </g>
      <g id="Grupo_85812" data-name="Grupo 85812" transform="translate(-293.084 34.974)">
        <path id="Trazado_108699" data-name="Trazado 108699" d="M8,573.158a27.807,27.807,0,0,1-6.872-.563c-1.966-.381-4.126-1.065-5.056-2.838a52.108,52.108,0,0,0,20.614-.895C14.922,571.725,11.35,572.964,8,573.158Z" transform="translate(21.629 -531.22)" fill="#e5a268"/>
        <path id="Trazado_108700" data-name="Trazado 108700" d="M-18.264,466.448a45.7,45.7,0,0,1-.22-6.493,69.688,69.688,0,0,1,1.17-7.112,23.473,23.473,0,0,0,.732-6.161c-.083-.859-.221-1.711-.354-2.562a135.336,135.336,0,0,1-18.036-.141c-8.231-.6-23.435-3.375-27.65,9.439s7.316,27,28.3,25.6c6.488-.434,11.288-1.908,14.8-3.974A23.144,23.144,0,0,0-18.264,466.448Z" transform="translate(63.483 -442.981)" fill="#472500"/>
        <path id="Trazado_108701" data-name="Trazado 108701" d="M-38.808,449.666c1.969,1.958,5.5,1.556,8.391,1.693,7.092.317,14.557,1.075,21.115.17,3.679-.429,5.708-2.33,7.37-5.239a3.324,3.324,0,0,0-.591-.03,160.343,160.343,0,0,1-17.218-.1c-5.391-.316-14.143-1.434-19.629,1.322A2.107,2.107,0,0,0-38.808,449.666Z" transform="translate(46.598 -444.633)" fill="#fff"/>
        <path id="Trazado_108702" data-name="Trazado 108702" d="M-47.411,509.431C-49.657,521.1-43.154,525.3-23.944,525.4a36.631,36.631,0,0,0,12.634-1.88C-16.956,507.495-30.824,507.512-47.411,509.431Z" transform="translate(52.486 -488.844)" fill="#ee2c48"/>
        <path id="Trazado_108703" data-name="Trazado 108703" d="M-48.576,504.811c-1.629-2.216-4-2.788-5.616-.331-1.621,8.426,1.93,12.911,11.78,15.417C-46.833,515.514-48.878,511.236-48.576,504.811Z" transform="translate(57.218 -484.844)" fill="#dcddde"/>
        <path id="Trazado_108704" data-name="Trazado 108704" d="M-8.755,515.463c-1.769-1.024-5.218-.037-5.218-.037,2.383,1.984,7.629,7.595,6.8,8.21-6.851,6.8-20.865.441-29.535-.487,4.738,4.029,11.721,6.722,20.586,6.766,7.884.039,9.444.123,13.25-2.4C-2.194,521.683-6.985,516.487-8.755,515.463Z" transform="translate(44.668 -493.362)" fill="#fff"/>
        <path id="Trazado_108705" data-name="Trazado 108705" d="M-16.9,525.218A19.563,19.563,0,0,0-15.4,513.034c-1.506,12.184-10.2,14.135-18,14.375-16.445.5-25.755-13.2-25.755-13.2s1.546,7.443,6.8,12.532c3.539,3.425,11.73,6.374,20.931,5.7S-18.056,528.158-16.9,525.218Z" transform="translate(60.438 -491.982)" fill="#f6ce9b"/>
        <path id="Trazado_108706" data-name="Trazado 108706" d="M-6.581,442.879c-4.36-.326-11.89.306-15.221.143-4.054-.2-14.325-1.085-17.5-.752a14.119,14.119,0,0,0-9.351,4.525s3.065-2.55,9.652-2.877,12.171.551,16.478.538c4.764-.014,14.065-.016,16.145-.246C-6.444,443.766-6.515,443.323-6.581,442.879Z" transform="translate(53.059 -442.196)" fill="#e5a268"/>
      </g>
      <g id="Grupo_85813" data-name="Grupo 85813" transform="translate(-253.438 -34.911)">
        <path id="Trazado_108707" data-name="Trazado 108707" d="M106.914,239.122c-4.639-.976-11.287-.48-14.1-1.535s-9.337-6.261-10.187-7.435a3.212,3.212,0,0,1,4.766-.429c3.046,2.336,6.662,3.246,10.33,3.947,5.962,1.053,15.693,1.167,17.654,7.817A52.089,52.089,0,0,0,106.914,239.122Z" transform="translate(-78.852 -222.35)" fill="#472500"/>
        <path id="Trazado_108708" data-name="Trazado 108708" d="M71.056,207.394c-1.446,4.969-1.977,9.277,1.3,13.629.3.4,1.292.075.96-.366-3.189-4.233-2.635-8.4-1.236-13.209.155-.536-.885-.544-1.027-.055Z" transform="translate(-69.923 -207.037)" fill="#e5a268"/>
        <path id="Trazado_108709" data-name="Trazado 108709" d="M74.975,300.824a47.782,47.782,0,0,0,18.795,2.345c9.595-.8,11.44-7.5,11.44-7.5s.251-14.643-13.947-11.252C74.8,288.348,74.975,300.824,74.975,300.824Z" transform="translate(-73.473 -261.06)" fill="#dcddde"/>
        <path id="Trazado_108710" data-name="Trazado 108710" d="M80.145,316.016s3.183,2.736,10.073,3.245a49.445,49.445,0,0,0,7.185-.379c9.595-.8,8.936-6.358,8.936-6.358s1.037-7.746-9.929-6.01C79.872,309.133,80.145,316.016,80.145,316.016Z" transform="translate(-77.107 -276.773)" fill="#fff"/>
        <path id="Trazado_108711" data-name="Trazado 108711" d="M130.785,306.09a6.763,6.763,0,1,1-6.874-6.649A6.762,6.762,0,0,1,130.785,306.09Z" transform="translate(-103.192 -271.979)" fill="#83634b"/>
        <path id="Trazado_108712" data-name="Trazado 108712" d="M121.866,323.012c.9,2.253,2.317,3.891,5.273,3.84,3.734-.061,5.842-2.368,5.988-5.115C133.136,321.561,125.465,320.156,121.866,323.012Z" transform="translate(-106.429 -287.299)" fill="#a77f61"/>
        <path id="Trazado_108713" data-name="Trazado 108713" d="M136.428,315.8a2.846,2.846,0,1,1-2.893-2.771A2.832,2.832,0,0,1,136.428,315.8Z" transform="translate(-112.665 -281.532)" fill="#472500"/>
        <path id="Trazado_108714" data-name="Trazado 108714" d="M130.605,316.495a1.455,1.455,0,1,1-1.478-1.415A1.448,1.448,0,0,1,130.605,316.495Z" transform="translate(-110.527 -282.971)" fill="#fff"/>
        <path id="Trazado_108715" data-name="Trazado 108715" d="M74.975,299.762s5.138-15.469,19.152-14.653c13.3.775,9.931,11.348,8.279,13.834-.393.591,4.762-1.159,4.718-7.269-.035-4.625-6.619-9.606-13.977-9.266C76.187,283.194,74.975,299.762,74.975,299.762Z" transform="translate(-73.474 -259.998)" fill="#472500"/>
      </g>
      <g id="Grupo_85814" data-name="Grupo 85814" transform="translate(-316.256 -36.548)">
        <path id="Trazado_108716" data-name="Trazado 108716" d="M-128.559,230.59c4.931-.616,11.786.4,14.826-.438s10.4-5.547,11.42-6.657a3.368,3.368,0,0,0-4.907-.8c-3.426,2.1-7.285,2.733-11.177,3.15-6.315.591-20.276,1.985-23.059,8.5A56.252,56.252,0,0,1-128.559,230.59Z" transform="translate(141.456 -215.884)" fill="#472500"/>
        <path id="Trazado_108717" data-name="Trazado 108717" d="M-10.008,202.126c.929,4.843,1.127,8.943-2.377,12.832-.455.506.354.89.724.479,3.716-4.125,3.638-8.45,2.638-13.655-.1-.511-1.085-.181-.984.344Z" transform="translate(50.838 -201.527)" fill="#e5a268"/>
        <path id="Trazado_108718" data-name="Trazado 108718" d="M-93.405,297.994a86.113,86.113,0,0,1-25.389,2.384c-12.811-.789-14.781-7.519-14.781-7.519s2.134-14.925,20.924-11.541C-90.86,285.245-93.405,297.994-93.405,297.994Z" transform="translate(135.918 -257.254)" fill="#dcddde"/>
        <path id="Trazado_108719" data-name="Trazado 108719" d="M-87.521,313.629s-4.734,3.061-14.015,3.581a87.456,87.456,0,0,1-9.608-.369c-12.811-.789-11.509-6.373-11.509-6.373s-.844-7.447,13.771-6.051C-91.512,306.075-87.521,313.629-87.521,313.629Z" transform="translate(128.267 -273.717)" fill="#fff"/>
        <path id="Trazado_108720" data-name="Trazado 108720" d="M-68.018,302.959a7.18,7.18,0,0,0,6.827,7.515,7.178,7.178,0,0,0,7.515-6.827,7.178,7.178,0,0,0-6.826-7.515A7.179,7.179,0,0,0-68.018,302.959Z" transform="translate(89.848 -268.011)" fill="#83634b"/>
        <path id="Trazado_108721" data-name="Trazado 108721" d="M-50.608,317.959c-4.4-.967-8.127-.965-11.855,1.745.151,1.926,2.509,4.41,5.48,4.193C-51.25,323.479-50.3,318.381-50.608,317.959Z" transform="translate(85.938 -282.945)" fill="#a77f61"/>
        <path id="Trazado_108722" data-name="Trazado 108722" d="M-53.886,312.588a3.207,3.207,0,0,0,3.066,3.344,3.208,3.208,0,0,0,3.373-3.035,3.208,3.208,0,0,0-3.067-3.343A3.209,3.209,0,0,0-53.886,312.588Z" transform="translate(79.913 -277.448)" fill="#472500"/>
        <path id="Trazado_108723" data-name="Trazado 108723" d="M-57.678,314.1a1.535,1.535,0,0,0,1.468,1.6,1.537,1.537,0,0,0,1.614-1.454,1.536,1.536,0,0,0-1.469-1.6A1.534,1.534,0,0,0-57.678,314.1Z" transform="translate(82.576 -279.626)" fill="#fff"/>
        <path id="Trazado_108724" data-name="Trazado 108724" d="M-97.477,294.661s-7.665-18.471-24.588-14.689c-17.406,3.89-14.178,11.413-12.15,13.908.483.594-5.643-.806-5.124-6.944.393-4.646,9.965-11.312,19.788-10.836C-96.461,277.219-97.477,294.661-97.477,294.661Z" transform="translate(139.99 -253.921)" fill="#472500"/>
      </g>
      <g id="Grupo_85815" data-name="Grupo 85815" transform="translate(-252.054 -103.76)">
        <path id="Trazado_108725" data-name="Trazado 108725" d="M171.511,186.466s7.962,67.669,3.19,91.078-6.4,46.253-.414,61.594,9.746,25.328,24.107,17.309,29.36-31.725,24.924-55.686S196.036,183.4,192.662,177.168s-6.628-1.28-11.705,1.533A41.866,41.866,0,0,0,171.511,186.466Z" transform="translate(-141.939 -115.082)" fill="#e5a268"/>
        <path id="Trazado_108726" data-name="Trazado 108726" d="M174.876,69.032c-.851-8.62,1.01-22.58,1.94-31.533s-7.92-12.975-7.92-12.975l-18.8,26c1.435.773,2.062,3,.226,4-2.268,1.243-4.6.793-7,1.095.486,1.122.95,3.141.779,6.69-.131,2.762.743,5.416,1.147,9.937.593,6.647,2.181,13.843,5.98,17.611a55.039,55.039,0,0,1,9.4,12.1l16.432-12.836S175.865,79.031,174.876,69.032Z" transform="translate(-122.891 -9.915)" fill="#e5a268"/>
        <path id="Trazado_108727" data-name="Trazado 108727" d="M177.373,78.108s-.127-6.325-.4-9.076c-.851-8.62,1.01-22.58,1.94-31.533s-7.92-12.975-7.92-12.975L146.3,47.153a48.493,48.493,0,0,1,1.646,13.692c-.326,6.824.612,20.708,7,27.039a27.443,27.443,0,0,1,2.548,2.931C162.084,89.049,171.874,84.3,177.373,78.108Z" transform="translate(-124.989 -9.915)" fill="#f6ce9b"/>
        <path id="Trazado_108728" data-name="Trazado 108728" d="M158.692-4.743c-3.322-4.78-9.307-14.519-14.878-17.131s-21.726-4.338-22.729-.612,16.755,7.438,21.1,13.954L160.625,7.96S162.014.036,158.692-4.743Z" transform="translate(-107.236 24.635)" fill="#f6ce9b"/>
        <path id="Trazado_108729" data-name="Trazado 108729" d="M102.611-6.21C94.177-8.463,75.869-9.981,74.85-7.237,72.3-.372,88.269-.362,99.5,7.769s12.711,11.045,12.711,11.045l9.256-10.846C117.907,3.552,111.045-3.958,102.611-6.21Z" transform="translate(-74.579 13.444)" fill="#f6ce9b"/>
        <path id="Trazado_108730" data-name="Trazado 108730" d="M131.058-4.186a33.123,33.123,0,0,0-13.864-5.345,55.472,55.472,0,0,0-12.9-.034,83.331,83.331,0,0,1,11.267,1.539c5.7,1.382,9.4,2.6,13.992,5.564A49.143,49.143,0,0,1,140.572,8.019C140.931,8.459,135.723-1.177,131.058-4.186Z" transform="translate(-95.467 14.305)" fill="#e5a268"/>
        <path id="Trazado_108731" data-name="Trazado 108731" d="M106.432,16.044c-7.566-2.825-24.139-8.193-25.937-4.569s5.537,6.7,16.388,12.765,14.535,13.114,14.535,13.114l11.508-7.646S114,18.869,106.432,16.044Z" transform="translate(-78.546 0.11)" fill="#f6ce9b"/>
        <path id="Trazado_108732" data-name="Trazado 108732" d="M122.552,28.757c-4.756-5.73-7.065-10.8-14.116-13.465-18.852-7.135-26.454-4.58-26.408-4.378s5.8-.188,11.036,1.179c3.879,1.012,9.423,3.135,13.189,4.5,6.425,2.337,10.516,7.1,14.807,12.27C121.839,29.805,123.637,30.066,122.552,28.757Z" transform="translate(-79.814 0.079)" fill="#e5a268"/>
        <path id="Trazado_108733" data-name="Trazado 108733" d="M101.953,43.807c-6.712-3.665-10.976-5.764-11.874-3.025s9.02,8.1,13.388,14.417a30.175,30.175,0,0,1,4.886,13.432l12.082-9.872S108.666,47.472,101.953,43.807Z" transform="translate(-85.432 -20.462)" fill="#f6ce9b"/>
        <path id="Trazado_108734" data-name="Trazado 108734" d="M124.892,57.6s-5.875-6.85-10.544-10.418c-4.536-3.465-10.791-7.119-16.737-7.541a7.806,7.806,0,0,0,2.082,1.475c2.013.872,3.937,1.976,5.862,3.021a58.737,58.737,0,0,1,8.839,5.349c3.517,2.853,5.972,5.389,9.244,8.518C124.41,58.74,125.125,57.82,124.892,57.6Z" transform="translate(-90.766 -20.537)" fill="#e5a268"/>
        <path id="Trazado_108735" data-name="Trazado 108735" d="M173.844,187.664s5.629,64.048.857,87.456-6.4,48.677-.414,64.018,9.746,25.328,24.107,17.309,29.36-31.725,24.924-55.686S196.036,183.4,192.662,177.168s-6.628-1.28-11.705,1.533S173.844,187.664,173.844,187.664Z" transform="translate(-141.939 -115.082)" fill="#f6ce9b"/>
      </g>
      <g id="Grupo_85816" data-name="Grupo 85816" transform="translate(-385.897 -116.792)">
        <path id="Trazado_108736" data-name="Trazado 108736" d="M-328.381,531.671s-4.587-19.218-26-16.869-26.36,64.37-16.662,77.987,32.005,35.975,66.249,24.588C-289.347,612.242-322.947,536.058-328.381,531.671Z" transform="translate(375.793 -341.319)" fill="#005698"/>
        <path id="Trazado_108737" data-name="Trazado 108737" d="M-342.4,602.078a62.154,62.154,0,0,0-1.08-13.929c-1-4.342-2.405-8.44-2.282-13.194a83.328,83.328,0,0,1,.813-9.03c2.21-11.605,8.343-24.569,18.929-30.99a14.429,14.429,0,0,0-2.365-3.263s-4.587-19.218-26-16.869-26.36,64.37-16.662,77.987c4.068,5.712,10.2,10.391,18.41,13.73-.906-6.665-.158-13.617.437-20.475-.423,7.415.145,17.8,7.983,20.721-4.5-8.262-5.622-17.76-5.132-26.867C-348.475,587.625-350.012,596.823-342.4,602.078Z" transform="translate(375.793 -341.319)" fill="#0067b4"/>
        <path id="Trazado_108738" data-name="Trazado 108738" d="M-248.879,126.461a90.651,90.651,0,0,1-.654,17.144c-1.064,7.376-4.042,15-3.9,17.666,1.133,20.578,4.479,69.36,11.526,88.172,9.037,24.126,16.006,48.813,12.218,66.165s-7.473,27.993-24.123,21.878-36.633-28.831-35.955-55.1,9.231-129.607,11.771-136.82,6.844-2.484,12.726-.345S-248.879,126.461-248.879,126.461Z" transform="translate(315.342 -68.525)" fill="#e5a268"/>
        <path id="Trazado_108739" data-name="Trazado 108739" d="M-256.177,189.632s2.893,71.648,11.93,95.775,17.8,51.175,14.014,68.528-7.956,31.611-24.607,25.5-35.6-34.71-34.926-60.98,9.231-129.607,11.771-136.82,6.844-2.484,12.726-.345S-256.177,189.632-256.177,189.632Z" transform="translate(315.344 -104.592)" fill="#f6ce9b"/>
        <path id="Trazado_108740" data-name="Trazado 108740" d="M-223.834,65.052c1.583-16.053,3.371-20.309,3.406-23.512s-29.207-22.226-29.207-22.226,1.41,12.039-.188,21.365c-.7,4.064-2.705,23.639-1.28,32.905,5.21,11.439,7.932,4.69,20.087,7.316C-226.6,78.15-224.507,71.879-223.834,65.052Z" transform="translate(288.509 6.779)" fill="#f6ce9b"/>
        <path id="Trazado_108741" data-name="Trazado 108741" d="M-231.6-49.606c-6.45,1.964-12.092,8.667-13,13.087s.978,21.656.978,21.656l10.343-2.64s-3.059-12.849-1.686-16.581,1.856-5.733,7.007-7.656c4.169-1.557,6.787-3.975,7.772-7.831S-225.146-51.57-231.6-49.606Z" transform="translate(283.761 56.775)" fill="#f6ce9b"/>
        <path id="Trazado_108742" data-name="Trazado 108742" d="M-185.207-67.711c-3.01-2.76-13.722,3.788-24.181,11.182-14.25,10.073-17.568,26.746-17.568,26.746l9.777,3.23c1.337-3.866,14.312-19.979,19.466-23.694S-181.545-64.354-185.207-67.711Z" transform="translate(271.187 68.395)" fill="#e5a268"/>
        <path id="Trazado_108743" data-name="Trazado 108743" d="M-188.3-67.8c-3.01-2.76-14.16,3.205-24.181,11.182C-221.751-49.246-231.361-27-231.361-27l11.086.349c1.337-3.866,14.312-19.979,19.466-23.694S-184.642-64.448-188.3-67.8Z" transform="translate(274.284 68.489)" fill="#f6ce9b"/>
        <path id="Trazado_108744" data-name="Trazado 108744" d="M-164.913-29.428c-2.032-2.9-8.006.2-16.882,6.994S-198.052-.755-198.052-.755l9.218,2.019s6.513-7.782,10.546-11.785S-161.584-24.675-164.913-29.428Z" transform="translate(250.873 41.8)" fill="#e5a268"/>
        <path id="Trazado_108745" data-name="Trazado 108745" d="M-164.913-29.039c-2.032-2.9-7.188,1.373-16.064,8.171s-17.075,20.5-17.075,20.5l7.483,5.747s8.248-11.51,12.282-15.512S-161.584-24.285-164.913-29.039Z" transform="translate(250.873 41.411)" fill="#f6ce9b"/>
        <path id="Trazado_108746" data-name="Trazado 108746" d="M-151.947,3.381c-2.98-4.444-7.57,1.861-15.261,5.479s-16.434,19.3-16.434,19.3l9.65-.569a25.515,25.515,0,0,0,6.957-6.169C-164.165,17.573-149.249,7.406-151.947,3.381Z" transform="translate(240.746 19.052)" fill="#e5a268"/>
        <path id="Trazado_108747" data-name="Trazado 108747" d="M-151.947,3.75c-2.98-4.444-6.468,3.019-14.16,6.636S-183.642,28.53-183.642,28.53l10,7.587s3.733-10.474,6.6-14.324S-149.249,7.776-151.947,3.75Z" transform="translate(240.746 18.682)" fill="#f6ce9b"/>
      </g>
    </g>
  </g>
</svg>
