<svg xmlns="http://www.w3.org/2000/svg" width="399" height="472" viewBox="0 0 399 472">
  <g id="Grupo_87751" data-name="Grupo 87751" transform="translate(-601 -32845)">
    <rect id="Rectángulo_33960" data-name="Rectángulo 33960" width="399" height="472" transform="translate(601 32845)" fill="#91dcff"/>
    <g id="Grupo_85784" data-name="Grupo 85784" transform="translate(386.797 32891.336)">
      <g id="Grupo_85771" data-name="Grupo 85771" transform="translate(303.911 212.309)">
        <path id="Trazado_108455" data-name="Trazado 108455" d="M433.25,780.631a32.809,32.809,0,0,0,7.149,8.6,31,31,0,0,0,11.2,5.9c9.046,2.636-1.628,18.105,7.482,16.22,13.814-2.858,32.261-24.964,32.416-25.083,6.669-24.081,7.293-52.609,7.14-62.933-.233-15.675,26.42-95.063,4.493-89.355-4.4,1.147,12.093-6.713,6.68-5.067-7.1,2.157-28.139,6.886-34.534,10.956-20.959,13.338-33.358,71.678-38.276,86.576a330.586,330.586,0,0,0-9.47,38.293A49.451,49.451,0,0,0,433.25,780.631Z" transform="translate(-427.535 -604.015)" fill="#e1f4fd"/>
        <path id="Trazado_108456" data-name="Trazado 108456" d="M435.435,790.259a32.81,32.81,0,0,0,7.149,8.6,31,31,0,0,0,11.2,5.9,37.839,37.839,0,0,0,11.985,1.408c2.072-4.879,3.672-9.813,4.96-13.824.445-4.654.619-9.322,2.111-13.917-7.8,7.572-13.442,16.549-23.09,22.734-1.652.868-3.178-.5-3.744-1.815a5.454,5.454,0,0,1,.181-3.2c4.626-8.073,10.421-14.156,16.307-21.837,5.53-7.06,10.777-14.777,9.367-23.833-2.985,1.754-3.842,5.552-6.242,8.3-3.751,3.955-10.414,8.385-14.333,4-1.188-1.67,1.213-4.419,2.919-6.246,9.281-11.015,18.508-21.07,22.519-35.269,1.961-6.3,4.543-12.245,9.005-17.442,2.026-1.809,3.112-3.992,4.517-6.156,1.93-2.772,5.394-2.851,8.481-2.042,3.3-23.523,17.284-55.164,8.265-51.6,3.324-1.322-17.384,4.215-28.342,8.574-7.195,2.863-36.12,66.656-47.7,127.008A45.962,45.962,0,0,0,435.435,790.259Z" transform="translate(-429.72 -613.642)" fill="#fff"/>
        <path id="Trazado_108457" data-name="Trazado 108457" d="M580.711,781.047c-.167-.7,3.427-43.651,3.427-62.01,0-66.811,6.765-115.439,6.765-115.439s54.3-32.252,72.731-31.714,87.108,27.063,87.108,27.063c1.692.779,7.188,97.195-11.417,182.1Z" transform="translate(-525.478 -567.691)" fill="#fff"/>
        <path id="Trazado_108458" data-name="Trazado 108458" d="M643.848,587.835c-6.14,6.262-19.575,10.462-25.354,16.382s-9.021,11.981-11.277,11.417,4.646-5.868,8.807-11.629c-6.975,4.883-32.289,9.979-32.289,9.979S621.17,596.978,643.848,587.835Z" transform="translate(-527.416 -577.895)" fill="#e1f4fd"/>
        <path id="Trazado_108459" data-name="Trazado 108459" d="M866.2,876.405c-15.043,6.082-25.926,24.326-43.851,20.485,16.964-7.362,29.768-20.485,40.33-36.169,12.163-17.284,13.763-37.129,16.964-57.294.96-6.081,4.8-9.923,9.922-10.883a27.728,27.728,0,0,1,8.727-.91c-.423,35.618-3.473,84.411-13.441,129.9H808.3C832.371,913.01,855.269,900.015,866.2,876.405Z" transform="translate(-671.009 -708.18)" fill="#e1f4fd"/>
        <path id="Trazado_108460" data-name="Trazado 108460" d="M928.892,608.432c-4.8-1.921-8.962-6.082-14.4-7.042,4.161,3.841,9.6,8.642,8,14.4-.32.64-1.6-.64-2.241-1.28-5.218-10.129-13.968-16.137-23.428-22.258,25.75,8.016,56.057,19.722,56.057,19.722.219.1.5,1.806.787,4.875-5.411-2.355-11.539-3.82-17.413-5.539A35.055,35.055,0,0,1,928.892,608.432Z" transform="translate(-727.616 -580.721)" fill="#e1f4fd"/>
        <path id="Trazado_108461" data-name="Trazado 108461" d="M735.168,572.353s7.849,3.355,26.276,3.893c5.795.168,13.181-14.905,18.607-15.891,5.229-.95,5.014,6.007,7.973,8.333.6,10.82-10.548,30.8-15.228,36.743a.966.966,0,0,1-1.488.037c-2.928-3.422-5.363-10.17-6.964-12.536-1.524-2.254-.775,4.581-3.947,7.4,3.312,7.541,5.7,46.791,6.5,73.877,1.1,30.534-.586,80.17-6.911,99.413H741.6c-2.413-15.838,3.217-40.734.278-62.152-4.568-38.33,12.546-79.632,7.173-117.152-3.2,2.4-8.071,10.908-11.133,7.5-2.257-3.018-3.172-13.33-3.594-20.659S735.168,572.353,735.168,572.353Z" transform="translate(-623.652 -560.266)" fill="#e1f4fd"/>
        <path id="Trazado_108462" data-name="Trazado 108462" d="M1074.44,787.607c-6.733,21.275-49.413,2.341-57.87-24.3-11.469-36.127-10.937-56-15.034-68.72-3.764-11.7-1.477-54.427,5.619-54.382a31.12,31.12,0,0,1,17.443,4.846c11.459,6.875,23.907,28.551,34.124,58.958C1064.64,721.627,1083.371,759.384,1074.44,787.607Z" transform="translate(-793.425 -611.383)" fill="#fff"/>
        <path id="Trazado_108463" data-name="Trazado 108463" d="M579.817,905.738c-.174.066,6.238-137.782,6.238-137.782s-.1,36.265-.472,51.481C585.4,826.938,581.078,901.3,579.817,905.738Z" transform="translate(-524.908 -693.071)" fill="#b6d3e2"/>
      </g>
      <g id="Grupo_85772" data-name="Grupo 85772" transform="translate(415.273 186.443)">
        <path id="Trazado_108464" data-name="Trazado 108464" d="M743.841,532.9c3.889-4.217,1.208-12.234,1.724-17.38.6-6.036-2.957-18.548-2.957-18.548l46.124-8.447s-4.315,18.419-2.888,32.662-17.4,9.622-24.783,7.579C758.086,527.946,746.7,538.194,743.841,532.9Z" transform="translate(-740.367 -488.528)" fill="#f5d1a2"/>
        <path id="Trazado_108465" data-name="Trazado 108465" d="M774.8,513.793c-11.017,6.788-19.521,7.025-29.348,2.661.043-.318.08-.63.111-.931.6-6.036-2.957-18.548-2.957-18.548l46.124-8.447s-2.1,13.885-2.744,17.538A86.36,86.36,0,0,1,774.8,513.793Z" transform="translate(-740.367 -488.528)" fill="#ebaa7c"/>
        <path id="Trazado_108466" data-name="Trazado 108466" d="M767.834,644.58c.072,9.739,4.538,119.219-5.2,153.845H747.639c-7.473-35.22-1.59-147.695.229-157.113,2.208-11.42,6.056-17.318,6.056-17.318l-2.838-15.26s5.6-8.735,10.832-8.6,9.176,10.518,9.176,10.518-4.983,12.022-6.43,13.62S767.744,632.783,767.834,644.58Z" transform="translate(-741.223 -559.892)" fill="#ed1c24"/>
        <path id="Trazado_108467" data-name="Trazado 108467" d="M772.738,609.029c1.158.355,5.574,3.4,6.2,6.218.975,7.658-5.241,8.245-10.978,7.726,2.65,1.186,1.852,3.977,3.878,7.126a6.587,6.587,0,0,1,2.641-5.153,36.889,36.889,0,0,1,2.2,5.433,16.689,16.689,0,0,1,1.924-.173c-1.1-3.439-1.764-6.206-1.281-6.741,1.446-1.6,7.607-15.511,7.607-15.511s-7.353-8.946-12.589-9.081-8.6,9.054-8.6,9.054l1.58,8.5C769.505,614.218,771.575,608.671,772.738,609.029Z" transform="translate(-753.884 -559.086)" fill="#c9181f"/>
        <path id="Trazado_108468" data-name="Trazado 108468" d="M756.684,572.026c-.269.966-10.262,17.719-15.264,22.151-1.947,1.726-4.908-20.191-5.025-23.466s5.685-14.4,5.685-14.4a18.311,18.311,0,0,0,5.526,10.373A26.381,26.381,0,0,0,756.684,572.026Z" transform="translate(-736.393 -531.874)" fill="#fff"/>
        <path id="Trazado_108469" data-name="Trazado 108469" d="M817.743,548.048s7.435,9.535,7.646,12.138c.265,3.266-14.495,34.9-15.5,34.745-3.25-.492-8.849-20.961-17.216-28.19,0,0,10.25-3.329,16.038-7.974A42.449,42.449,0,0,0,817.743,548.048Z" transform="translate(-772.378 -526.587)" fill="#fff"/>
      </g>
      <g id="Grupo_85773" data-name="Grupo 85773" transform="translate(496.668 266.003)">
        <path id="Trazado_108470" data-name="Trazado 108470" d="M999.29,868.541C982,853.973,967.184,785.7,964.59,771.525,972.2,785.055,992.319,854.754,999.29,868.541Z" transform="translate(-963.706 -749.047)" fill="#b6d3e2"/>
        <path id="Trazado_108471" data-name="Trazado 108471" d="M1109.733,792.305c-17.288-14.568-30.7-46.682-33.291-60.854C1084.056,744.982,1103.858,772.934,1109.733,792.305Z" transform="translate(-1035.229 -723.423)" fill="#b6d3e2"/>
        <path id="Trazado_108472" data-name="Trazado 108472" d="M968.484,756.564s-1.065-2.793,7.578-6.867,24.14-7.556,28.088-7.549,5.1,1.078,5.1,1.078l-4.238-12.428s-1.713-1.389-13.409.345a55.055,55.055,0,0,0-22.938,9.344,10.776,10.776,0,0,0-4.076,4.659S966.606,753.371,968.484,756.564Z" transform="translate(-963.706 -722.668)" fill="#b6d3e2"/>
        <path id="Trazado_108473" data-name="Trazado 108473" d="M962.138,721.557s20.521,30.427,24.5,50.036-.4,30.571,14.67,43.018,14.79,9.9,28.54,12.275,13.2,2.091,8.859-14.18.219-32.567-16.542-55.934-27.008-41.516-30.686-46.349S962.3,716.09,962.138,721.557Z" transform="translate(-962.138 -709.184)" fill="#d69365"/>
        <path id="Trazado_108474" data-name="Trazado 108474" d="M962.138,721.557s20.521,30.427,24.5,50.036,4.368,29.65,19.434,42.1,17.471,20.766,31.221,23.144,11.909-1.19,7.573-17.462-5.939-39.232-22.7-62.6-27.008-41.516-30.686-46.349S962.3,716.09,962.138,721.557Z" transform="translate(-962.138 -709.184)" fill="#f5d1a2"/>
        <path id="Trazado_108475" data-name="Trazado 108475" d="M964.59,746.079s.863,2.862,10.195.807,23.726-8.767,26.847-11.185,3.38-3.97,3.38-3.97,49.3,85.731,49.664,98.943-6.118,30.422-16.437,36.195-35.581-15.137-43.91-31.626S965.054,749.754,964.59,746.079Z" transform="translate(-963.706 -723.602)" fill="#fff"/>
        <path id="Trazado_108476" data-name="Trazado 108476" d="M1068.821,735.269c.857,2.292,21.1,42.229,27.409,61.372a33.883,33.883,0,0,1-6.735-6.2c-1.658-1.8-1.824.7-.989,3,2.284,6.287,4.6,11.608,7.32,17.943,3.284,8,9.56,25.063,8.4,33.184-1.358,10.267-9.844,15.243-33.026,5.081,11.432,15.56,27.926,20.45,33.69,17.225,10.319-5.773,16.8-22.983,16.437-36.195s-49.664-98.943-49.664-98.943S1071.433,733.1,1068.821,735.269Z" transform="translate(-1030.355 -723.602)" fill="#e1f4fd"/>
      </g>
      <g id="Grupo_85774" data-name="Grupo 85774" transform="translate(301.21 277.852)">
        <path id="Trazado_108477" data-name="Trazado 108477" d="M560.646,874.469c9.406-18.849-6.318-80.357-10.017-92.929C549.52,795.625,561.065,860.436,560.646,874.469Z" transform="translate(-503.497 -767.3)" fill="#b6d3e2"/>
        <path id="Trazado_108478" data-name="Trazado 108478" d="M476.5,787.613s-.228-2.7-9.773-2.511-25.028,3.642-28.591,5.248-4.149,2.945-4.149,2.945l-1.471-11.821s.956-1.823,12.261-5.154a60.5,60.5,0,0,1,24.7-1.7,11,11,0,0,1,5.668,2.136S476.839,784.257,476.5,787.613Z" transform="translate(-428.022 -762.513)" fill="#b6d3e2"/>
        <path id="Trazado_108479" data-name="Trazado 108479" d="M465.077,745.538c3.905,8.041-2.094,35.227,2.67,52.782s8.7,25.873.393,42.1-6.928,23.962-18.336,31.468-11.265,3.859-14.285-11.125-11.363-34.3-6.185-60.089,6.7-44.7,7.958-50.115S461.171,737.5,465.077,745.538Z" transform="translate(-424.925 -742.047)" fill="#f5d1a2"/>
        <path id="Trazado_108480" data-name="Trazado 108480" d="M467.176,781.54s.441,2.676-8.866,4.788-25.171,2.49-29.021,1.79-4.747-1.858-4.747-1.858-7.985,89.674-2.677,100.561,18.5,22.251,30.281,22.761,25.689-26.727,26.181-43.507S468.323,784.715,467.176,781.54Z" transform="translate(-420.044 -767.3)" fill="#fff"/>
        <path id="Trazado_108481" data-name="Trazado 108481" d="M428.617,796.357c.2,2.211-1.057,42.881,1.407,61a29.872,29.872,0,0,0,3.439-7.774c.731-2.132,1.948-.167,2.173,2.039.617,6.036.8,11.3,1.037,17.552.445,7.835,2.049,24.248,6.561,30.38,5.6,7.8,15.392,8.4,32-9.256-3.693,17.283-16.508,27.943-23.09,27.658-11.782-.51-24.973-11.874-30.281-22.761s2.677-100.561,2.677-100.561S425.333,795.653,428.617,796.357Z" transform="translate(-420.044 -775.672)" fill="#e1f4fd"/>
      </g>
      <g id="Grupo_85775" data-name="Grupo 85775" transform="translate(365.59 16.107)">
        <path id="Trazado_108482" data-name="Trazado 108482" d="M602.283,73.141c-11.959,44.746,5.31,113.464,50.056,125.421s95.237-31.08,107.2-75.826S747.491,31.382,702.745,19.424,614.241,28.4,602.283,73.141Z" transform="translate(-598.598 -16.107)" fill="#002330"/>
        <path id="Trazado_108483" data-name="Trazado 108483" d="M613.238,91.02c-11.958,44.746-4.635,109.2,33.526,119.4s83.3-34.27,95.258-79.017-2.012-78.529-40.174-88.728S625.2,46.274,613.238,91.02Z" transform="translate(-604.597 -31.06)" fill="#002c3d"/>
        <path id="Trazado_108484" data-name="Trazado 108484" d="M972.9,78.286s7.623-.963,13.817,3.42,13.877,19.53,13.877,19.53S989.939,88.023,985.17,86.475a25.429,25.429,0,0,0-9.252-1.108Z" transform="translate(-837.941 -55.809)" fill="#002330"/>
      </g>
      <g id="Grupo_85776" data-name="Grupo 85776" transform="translate(367.533 37.702)">
        <path id="Trazado_108485" data-name="Trazado 108485" d="M937.128,312.254s8.323-11.143,14.717-6.22,5.9,22.635.763,32.381-22.342,14.065-24.639,11.5a3.89,3.89,0,0,1-.673-4.848Z" transform="translate(-810.371 -222.29)" fill="#f5d1a2"/>
        <path id="Trazado_108486" data-name="Trazado 108486" d="M616.508,115.342s-4.4,11.372-11.144,46.126c-3.793,19.553.737,45.75,7.615,59.026,5.805,11.2,12.8,25.543,32.058,29.381s31.31-2.678,40.653-5.932c10.1-3.517,30.592-16.6,37.2-39.7,6.472-22.615,14.621-40.9,18.5-52.945s-7.213-62.64-56.716-73.252S621.036,100.849,616.508,115.342Z" transform="translate(-603.987 -76.002)" fill="#ffe5c7"/>
        <path id="Trazado_108487" data-name="Trazado 108487" d="M621.036,222.914c-7.15-34.851,3.382-68.9,11.008-102.894,2.846-14.119,10.022-26.4,18.449-37.889-22.568,6.663-30.741,26.749-33.984,37.13,0,0-4.4,11.372-11.144,46.126-3.793,19.553.737,45.75,7.615,59.026,4.56,8.8,9.86,19.536,21.257,25.6C627.232,242.9,622.845,232.38,621.036,222.914Z" transform="translate(-603.987 -79.921)" fill="#f5d1a2"/>
        <path id="Trazado_108488" data-name="Trazado 108488" d="M626.276,307.174c9.888-2.161,13.057-13.733,18.08-21.565,1.932-3.012,11.059-1.071,12.912,2.669,4.139,9.456,2.777,22.186,12.837,27.447,8.855,4.489,18.45,7.643,28.769,7.906,14.687.375,21.722-21.176,24.249-21.836-1.284,2.5,4.568,4.321-2.983,16.688s-21.11,11.114-22.868,11.094c-12.583.263-25.962-4.065-34.238-13.964-4.3-4.966-5.491-11.854-7.709-18.208-1.785-4.375-8.923-3.852-11.457-1.226-4.716,4.968-5.67,13.879-12.091,16.733-8.286,4.154-18.981,1.228-27.782-3.441.018-2.551.131-5.074.351-7.538C611.717,304.028,618.741,308.99,626.276,307.174Z" transform="translate(-603.993 -209.088)" fill="#f5d1a2"/>
        <path id="Trazado_108489" data-name="Trazado 108489" d="M963.046,343.011s4.434-14.738-2.924-16.472-12.973,11.623-10.279,13.4,5.411,3.006,2.017,4.519a19.239,19.239,0,0,0-6.021,4.719s5.382,1.332,8.937.387,5.235-7.741,5.235-7.741-3.7,4.767-6.394,4.928,6.358-1.392,1.6-7.412-.665-11.537,2.318-10.7C964.554,330.608,963.046,343.011,963.046,343.011Z" transform="translate(-822.581 -236.105)" fill="#d69365"/>
        <path id="Trazado_108490" data-name="Trazado 108490" d="M687.585,277.559s4.269,6.053,1.3,15.039-13.032,16.356-11.065,19.268,6.13,4.545,10.13,5.3,15.491,2.613,13.555,4.574-15.756,2.847-19.572.235-10.069-9.164-6.488-13.474,10.056-14.062,11.6-19.179A27.744,27.744,0,0,0,687.585,277.559Z" transform="translate(-648.997 -204.885)" fill="#d69365"/>
      </g>
      <g id="Grupo_85777" data-name="Grupo 85777" transform="translate(429.019 104.315)">
        <path id="Trazado_108491" data-name="Trazado 108491" d="M813.891,323.286c-2,1.112-12.4-.171-21.07-2.539S780.3,317.1,778.5,316.765s-1.64-2.167-.091-4.48,7.7-8.2,22.97-5.339,21.371,7.364,19.249,9.757S817.247,321.419,813.891,323.286Z" transform="translate(-776.235 -289.798)" fill="#d4d3cb"/>
        <path id="Trazado_108492" data-name="Trazado 108492" d="M810.339,331.875a57.856,57.856,0,0,1-15.732-2.388c-8.668-2.366-12.52-3.645-14.317-3.982s4.636-7.872,19.908-5.013S814.393,332.077,810.339,331.875Z" transform="translate(-778.02 -298.538)" fill="#fff"/>
        <path id="Trazado_108493" data-name="Trazado 108493" d="M825.31,308.053a2.74,2.74,0,0,0,1.641.031c2.407,1.566,5.4,1.956,7.78,3.6-.682,5.629-5.142,9.192-9.15,10.785-2.388.949-13.374-1.288-15.335-3.335-2.843-2.963-4.39-9.122-3.86-13.446.83-.528,2.775.4,3.674.149C815.594,306.493,819.948,306.376,825.31,308.053Z" transform="translate(-794.829 -289.378)" fill="#975928"/>
        <path id="Trazado_108494" data-name="Trazado 108494" d="M834.393,325.579a11.993,11.993,0,0,1-21.757-4.718C819.506,319.115,828.074,321.87,834.393,325.579Z" transform="translate(-798.892 -298.843)" fill="#b96f36"/>
        <path id="Trazado_108495" data-name="Trazado 108495" d="M836.261,310.7c0,.031.013.058.016.088a8.957,8.957,0,1,1-17.826,1.763,6.922,6.922,0,0,1,1.528-4.608C822.618,305.568,834.378,310.02,836.261,310.7Z" transform="translate(-802.603 -290.486)" fill="#3e1a00"/>
        <path id="Trazado_108496" data-name="Trazado 108496" d="M849.874,332.8a2.75,2.75,0,1,0,3.209-2.2A2.75,2.75,0,0,0,849.874,332.8Z" transform="translate(-822.673 -305.384)" fill="#fff"/>
        <path id="Trazado_108497" data-name="Trazado 108497" d="M774.877,313.213s4.5-6.176,14.163-7.155,24.08,2.767,27.131,4.6-.261,5.368-1.615,6.954c-1.177,1.379-2.383,2.853-2.383,2.853s13.574-6.959,8.136-12.215c-6.172-5.965-19.292-6.6-26.569-6.471a23.939,23.939,0,0,0-15.613,5.624C775.217,309.8,773.8,313.012,774.877,313.213Z" transform="translate(-774.517 -286.976)" fill="#250000"/>
        <path id="Trazado_108498" data-name="Trazado 108498" d="M837.132,276.709c-.037.632-7.248-3.409-16.314-6.655s-23.49-5.875-26.816-5.338-3.481-1.281-.071-2.964,25.063-1.4,34.356,2.019A12.785,12.785,0,0,1,837.132,276.709Z" transform="translate(-785.339 -260.749)" fill="#000c12"/>
      </g>
      <g id="Grupo_85778" data-name="Grupo 85778" transform="translate(369.8 87.798)">
        <path id="Trazado_108499" data-name="Trazado 108499" d="M617.8,272.155c1.014,1.845,9.211,5.08,16.582,6.609s10.737,2.006,12.2,2.462,2.105-1.257,1.921-3.991-2.281-10.623-14.722-14.5-18.8-2.4-18.228.65S616.1,269.061,617.8,272.155Z" transform="translate(-613.627 -244.015)" fill="#d4d3cb"/>
        <path id="Trazado_108500" data-name="Trazado 108500" d="M630.9,286.486a41.049,41.049,0,0,0,12.585,4.491c7.368,1.531,10.737,2.006,12.2,2.462s-.159-9.036-12.6-12.91S627.827,284.957,630.9,286.486Z" transform="translate(-622.733 -256.229)" fill="#fff"/>
        <path id="Trazado_108501" data-name="Trazado 108501" d="M648.646,265.919a2.74,2.74,0,0,1-1.476-.719c-2.856.3-5.7-.716-8.565-.333-1.954,5.322.461,11.451,3.574,14.436,1.185,1.136,12.745,4.1,14.558,3.814,1.776-.276,3.678-2.063,5.287-3.813.325-.353-3.6-8.219-4.29-8.849C652.507,268.523,654.184,266.865,648.646,265.919Z" transform="translate(-627.941 -246.81)" fill="#975928"/>
        <path id="Trazado_108502" data-name="Trazado 108502" d="M645.182,281a11.99,11.99,0,0,0,18.761,8.367C664.424,289.029,652.5,280.569,645.182,281Z" transform="translate(-632.596 -257.17)" fill="#b96f36"/>
        <path id="Trazado_108503" data-name="Trazado 108503" d="M655.342,267.251c-.016.026-.038.046-.054.072A8.957,8.957,0,1,0,670.36,277c.341-.529-.625-2.232-1.182-4.3C667.911,269.383,657.33,267.5,655.342,267.251Z" transform="translate(-638.149 -248.39)" fill="#3e1a00"/>
        <path id="Trazado_108504" data-name="Trazado 108504" d="M681.675,298.244a2.75,2.75,0,1,1-1.859-3.416A2.749,2.749,0,0,1,681.675,298.244Z" transform="translate(-652.486 -265.951)" fill="#fff"/>
        <path id="Trazado_108505" data-name="Trazado 108505" d="M646.188,275.208a19.22,19.22,0,0,0-7.478-12.412c-6.721-4.961-18.895-7.674-21.9-7.315s-2.03,4.939-1.688,6.935c.3,1.736.576,3.571.576,3.571s-7.125-11.987-.942-14.419c7.019-2.76,16.951,2.21,22.262,5.394A20.575,20.575,0,0,1,646.2,268.61C647.351,271.992,647.066,275.482,646.188,275.208Z" transform="translate(-611.526 -237.847)" fill="#250000"/>
        <path id="Trazado_108506" data-name="Trazado 108506" d="M610.282,222.908c-.234.584,6.753-.008,14.779.9s19.747,4.63,21.976,6.517,3.1.316,1.279-2.636-17.9-11.835-26.161-12.683S610.658,221.963,610.282,222.908Z" transform="translate(-610.276 -214.941)" fill="#000c12"/>
      </g>
      <g id="Grupo_85779" data-name="Grupo 85779" transform="translate(364.455 22.784)">
        <path id="Trazado_108507" data-name="Trazado 108507" d="M701.9,60.643s11.214,34.673,40.206,56.375,38.695,25.8,42.535,33.324,1.436,30.38,1.436,30.38,17.916-16.744,20.751-58.141S776.552,51.561,745.965,46,701.9,60.643,701.9,60.643Z" transform="translate(-663.518 -41.282)" fill="#000c12"/>
        <path id="Trazado_108508" data-name="Trazado 108508" d="M806.1,106.268c2.835-41.4-30.268-65.251-60.853-70.809S701.9,53.988,701.9,53.988s12.965,31.622,41.958,53.324,38.025,24.38,41.866,31.9c1.961,3.842,3.337,6.369,4.216,7.932,2.018-18.155-9.653-35.533-22.377-48.154,18.176,8.562,26.093,30.042,24.25,49.8.155-.128.335-.288.537-.483,4.9-18.271,3.2-40.135-9.571-54.209,14.1,11.65,17.367,30.209,14.121,47.416C800.078,134.937,804.66,127.375,806.1,106.268Z" transform="translate(-663.518 -34.626)" fill="#002c3d"/>
        <path id="Trazado_108509" data-name="Trazado 108509" d="M909.415,124.163a16.057,16.057,0,0,1,1.58,10.546l-11.548-3.343s4.466,4.962,7.617,15.507q.754-3.26,1.509-6.52a26.081,26.081,0,0,1,16.859,15.253A48.518,48.518,0,0,0,909.415,124.163Z" transform="translate(-789.838 -91.879)" fill="#005b75"/>
        <path id="Trazado_108510" data-name="Trazado 108510" d="M639.367,92.645s-9.8,13.917-23.906,35.159-15.954,47.636-15.954,47.636-9.491-24.549.562-54.143S632.378,92.283,639.367,92.645Z" transform="translate(-595.45 -71.67)" fill="#000c12"/>
        <path id="Trazado_108511" data-name="Trazado 108511" d="M642.979,90.976s-11.445,8.279-25.549,29.519-15.2,24.277-15.2,24.277-5.551-5.934,7.962-34.12C623.058,83.812,635.99,90.615,642.979,90.976Z" transform="translate(-599.063 -70.001)" fill="#002c3d"/>
      </g>
      <g id="Grupo_85780" data-name="Grupo 85780" transform="translate(354.196 91.39)">
        <path id="Trazado_108512" data-name="Trazado 108512" d="M703.56,256.97c.3-9.027-40.812-16.816-60.594-18.224-1.2-.085-9.341-.46-14.336-1.165-2.374-.335-9.934-3.585-11.451-4.122-18.874-6.67-46.854-12.963-49.491-4.415-1.87,6.073.556,4.34,1.431,7.7.43,1.649.05,5.44.692,11.15s5.7,16.759,12.154,19.1c10.847,3.932,18.884,6.979,25.834,2.7,6.662-4.1,10.86-9.4,11.566-11.728s2.531-6.906,8.286-5.6c5.028,1.138,5.158,4.815,5.395,7.868s3.625,10.326,8.149,16.309c5.107,6.753,25.6,10.382,37,11.008,6.781.371,12.743-7.035,16.338-13.257,1.288-2.228,4.331-9.805,5.444-11.183C701.32,261.449,703.352,263.115,703.56,256.97ZM616.7,254.146c-1.15,4.326-4.778,9.3-10.952,13.105s-11.942,1.287-21.582-2.208c-9.17-3.325-13.354-23.159-8.912-29.345s19.193-2.827,35.914,3.117C620.219,242.033,617.854,249.819,616.7,254.146Zm60.062,30.706c-10.131-.559-28.335-3.782-32.87-9.782s-7.5-12.325-7.173-16.822.793-12.667,10.119-12.118c17.538,1.034,44.4,7.074,46.547,14.611S686.4,285.379,676.767,284.851Z" transform="translate(-566.998 -224.902)" fill="#350000"/>
        <path id="Trazado_108513" data-name="Trazado 108513" d="M920.779,310.384a7.953,7.953,0,0,0,.573-3.223,4.411,4.411,0,0,0-.121-1.507,3.867,3.867,0,0,0-2.365-2.1,5.7,5.7,0,0,0-3.774-.473.507.507,0,0,0-.336.881c.444.67,1.1,1.17,1.59,1.808.923,1.205,1.162,2.779,1.661,4.212.235.675.671,1.429,1.384,1.467A1.625,1.625,0,0,0,920.779,310.384Z" transform="translate(-789.267 -274.791)" fill="#4f1315"/>
        <path id="Trazado_108514" data-name="Trazado 108514" d="M751.708,272.928a7.958,7.958,0,0,1,.588-3.221,4.414,4.414,0,0,1,.639-1.37,3.868,3.868,0,0,1,2.95-1.147,5.7,5.7,0,0,1,3.7.873.507.507,0,0,1,.008.943c-.65.473-1.442.712-2.122,1.14-1.285.808-2.058,2.2-3.026,3.369-.456.551-1.126,1.105-1.81.892A1.625,1.625,0,0,1,751.708,272.928Z" transform="translate(-685.096 -251.936)" fill="#4f1315"/>
      </g>
      <g id="Grupo_85781" data-name="Grupo 85781" transform="translate(492.514 202.901)">
        <path id="Trazado_108515" data-name="Trazado 108515" d="M1124.134,589.341s15.931-7.724,25.1-8.448,10.379,3.621,9.9,6.276-16.173.483-23.172,3.862-15.689,7.724-15.689,7.724Z" transform="translate(-1059.102 -563.996)" fill="#ffe5c7"/>
        <path id="Trazado_108516" data-name="Trazado 108516" d="M953.617,591.38s-4.586,7.483-2.414,14,11.1,7.241,21.966,3.379,17.621-15.448,22.69-19.551,18.1-29.931,18.1-29.931-15.629,4.672-20.216,4.914.709-3.047,8.932-14.171c8.1-10.956,4.284-15.846-1.75-15.846S987.315,549.9,981.242,555.5c-5.4,4.975-14.35,8.848-20.384,15.607C956.062,576.475,953.617,591.38,953.617,591.38Z" transform="translate(-950.618 -534.173)" fill="#ffe5c7"/>
        <path id="Trazado_108517" data-name="Trazado 108517" d="M1096.481,617.377a1.775,1.775,0,0,1-.385-.041,1.476,1.476,0,0,1-1.044-.874c-.368-.86-.3-2.437,2.658-8.114,1.567-3,3.257-5.81,3.274-5.838l.092-.152.137-.113a42.918,42.918,0,0,1,19.837-8.435,27.723,27.723,0,0,1,3.564-.246c4.719,0,8.233,1.509,9.642,4.14a4.525,4.525,0,0,1-.138,4.711,3.839,3.839,0,0,1-3.45,1.6h0a21.553,21.553,0,0,1-2.359-.188,29.94,29.94,0,0,0-3.489-.252,16.053,16.053,0,0,0-5.46.93c-3.778,1.341-9.259,4.935-13.664,7.824C1100.639,615.648,1097.934,617.377,1096.481,617.377Z" transform="translate(-1042.875 -572.151)" fill="#ebaa7c"/>
        <path id="Trazado_108518" data-name="Trazado 108518" d="M1103.718,604.889a42.261,42.261,0,0,1,19.31-8.207c11.1-1.448,14,4.1,12.069,7s-6.758-.966-14.241,1.69-20.517,13.276-22.689,12.793S1103.718,604.889,1103.718,604.889Z" transform="translate(-1044.72 -573.992)" fill="#ffe5c7"/>
        <path id="Trazado_108519" data-name="Trazado 108519" d="M1092.628,599.45c-.479-1.09-1.572-1.743-3.342-2a7.989,7.989,0,0,0-1.132-.081c-5.227,0-9.007,5.065-12.342,9.535-1.015,1.361-1.974,2.646-2.9,3.675a38.562,38.562,0,0,1-8.127,6.22v14.4a25.848,25.848,0,0,0,9.765-4.856c5.987-4.489,8.211-6.761,11.41-13.159a47.128,47.128,0,0,1,3.265-5.231C1091.563,604.55,1093.577,601.607,1092.628,599.45Z" transform="translate(-1023.625 -574.586)" fill="#ebaa7c"/>
        <path id="Trazado_108520" data-name="Trazado 108520" d="M1049.549,622.289s9.172-4.586,13.276-9.172,8.69-13.759,15.448-12.793-.965,7.966-4.1,14.241-5.31,8.448-11.1,12.793a43.9,43.9,0,0,1-9.655,5.793S1044,629.289,1049.549,622.289Z" transform="translate(-1012.758 -576.427)" fill="#ffe5c7"/>
        <path id="Trazado_108521" data-name="Trazado 108521" d="M1038.33,647.573c-.651-1.429-2.536-1.594-3.9-1.594a26.188,26.188,0,0,0-2.719.172c-4.824.508-16.547,14.067-16.547,14.067-.016.122,11.827,5.069,11.827,5.069a30.728,30.728,0,0,1,8.99-12.112C1038.559,650.974,1038.931,648.892,1038.33,647.573Z" transform="translate(-991.894 -605.666)" fill="#ebaa7c"/>
        <path id="Trazado_108522" data-name="Trazado 108522" d="M1015.144,662.158s12.069-12.552,16.655-13.035,8.945.5,3.38,5.31c-8.517,7.364-8.207,12.793-8.207,12.793s-2.656,1.931-7.483.241S1015.144,662.158,1015.144,662.158Z" transform="translate(-991.87 -607.606)" fill="#ffe5c7"/>
      </g>
      <g id="Grupo_85782" data-name="Grupo 85782" transform="translate(234.203 233.43)">
        <path id="Trazado_108523" data-name="Trazado 108523" d="M375.358,680.859s9.655,1.69,17.621.724,9.655-11.828,6.276-16.9-6.517-7.241-9.414-12.31-6.517-9.9-21-12.311-18.827-8.69-22.931-12.31-11.017-12.569-17.443-7.28c-6.462,5.318,3.956,14.7,10.956,19.53s7.4,7.878,6.192,12.464-3.567,6.907-6.222,7.148,13.758,14.483,21,16.9S375.358,680.859,375.358,680.859Z" transform="translate(-293.181 -618.844)" fill="#ffe5c7"/>
        <path id="Trazado_108524" data-name="Trazado 108524" d="M281.029,735s-17.138,7.966-25.1,10.862-20.759,11.345-20.276,15.207,6.517,2.9,11.1,1.448,40.793-18.586,40.793-18.586Z" transform="translate(-235.12 -693.119)" fill="#ffe5c7"/>
        <path id="Trazado_108525" data-name="Trazado 108525" d="M239.287,781.109a4.83,4.83,0,0,1-4.4-2.023,4.119,4.119,0,0,1-.49-3.516c1.43-4.835,11.075-9.594,20-13.676,8.414-3.846,25.065-8.929,25.232-8.98l.667-.2,8.883,10.889-1.444.468c-.171.055-17.21,5.578-24.594,8.2-1.877.666-4.382,1.831-7.035,3.064-5.828,2.709-12.434,5.78-16.819,5.78Z" transform="translate(-234.203 -704.444)" fill="#ebaa7c"/>
        <path id="Trazado_108526" data-name="Trazado 108526" d="M281.777,756.029s-16.655,5.069-25.1,8.931S234.225,775.34,237.6,780.65s19.552-4.586,27.034-7.241S289.26,765.2,289.26,765.2Z" transform="translate(-236.048 -706.565)" fill="#ffe5c7"/>
        <path id="Trazado_108527" data-name="Trazado 108527" d="M354.056,745.214a27.242,27.242,0,0,1-3.982-.24c-6.367-.98-7.22-3.363-8.632-7.31-.123-.345-.252-.7-.391-1.082a45.861,45.861,0,0,0-3.84-7.139c-1.572-2.567-2.93-4.784-3.208-6.309a3.413,3.413,0,0,1,.8-2.827,6.792,6.792,0,0,1,5.29-2.046,13,13,0,0,1,4.99,1.073c3.329,1.387,4.538,4.411,5.605,7.079.968,2.422,1.8,4.513,3.965,5.2a33.415,33.415,0,0,0,9.578,1.411c.425,0,.668-.01.681-.011l.495-.022,9.078,10.248-1.888.286a154.742,154.742,0,0,1-18.537,1.688Z" transform="translate(-297.985 -682.414)" fill="#ebaa7c"/>
        <path id="Trazado_108528" data-name="Trazado 108528" d="M366.8,735.892a34.37,34.37,0,0,1-10.62-1.448c-5.31-1.69-3.862-9.9-9.655-12.31s-10.138,0-9.655,2.655,5.31,8.69,7,13.276,1.931,6.758,8.207,7.724,22.207-1.448,22.207-1.448Z" transform="translate(-299.826 -684.256)" fill="#ffe5c7"/>
        <path id="Trazado_108529" data-name="Trazado 108529" d="M422.414,738.447a11.447,11.447,0,0,1-1.8.136c-.271,0-3.359,1.255-4.312-.967-1.391-3.244-3.05-8.583-7.438-8.583-.1,0-.208,0-.314.008-2.273.108-3.831.857-4.634,2.227-1.046,1.787-.687,4.392,1.1,7.964a20.524,20.524,0,0,1,1.58,4.635c.564,2.311,1.051,4.307,3.687,5.713,2.779,1.482,8.96,2.556,14.041,1.366Z" transform="translate(-342.349 -689.302)" fill="#ebaa7c"/>
        <path id="Trazado_108530" data-name="Trazado 108530" d="M424.684,740.125s-4.608,2.854-6.539.682-2.633-9.129-7.7-8.888-5.069,3.862-2.655,8.689,1.207,7.966,4.828,9.9,13.759,2.655,13.759,2.655S430.236,742.78,424.684,740.125Z" transform="translate(-344.197 -691.144)" fill="#ffe5c7"/>
      </g>
      <g id="Grupo_85783" data-name="Grupo 85783" transform="translate(384.677 155.472)">
        <path id="Trazado_108531" data-name="Trazado 108531" d="M679.934,467.163s4.74,6.161,10.972,7.48c7.9,1.672,15.685-3.638,15.685-3.638Z" transform="translate(-669.695 -443.895)" fill="#d69365"/>
        <path id="Trazado_108532" data-name="Trazado 108532" d="M663.76,425.615s3.321,7.335,15.9,11.363,30.7-.279,30.7-.279-11.946-2.1-22.664-3.611c-3.344-.471-12.94-2.937-17.465-5.081A34.3,34.3,0,0,0,663.76,425.615Z" transform="translate(-659.352 -417.328)" fill="#d69365"/>
        <path id="Trazado_108533" data-name="Trazado 108533" d="M661.136,423.466c-.366-.281.446-.346.761-.807s-.421-.586-1.216-.071c-1.224.794-1.162,1.741-.78,1.479s.728-.339.754-.289c.9,1.728,7.945,10.528,18.432,13.152s28.839-1.864,28.839-1.864.19-.049.483.352-.384,1.055.495.865.136-2.744-.837-2.951c-1.038-.22.7,1.183-.326,1.216-3.892.128-22.858.52-28.624-.635A33.834,33.834,0,0,1,661.136,423.466Z" transform="translate(-656.729 -415.179)" fill="#9d4b3c"/>
        <path id="Trazado_108534" data-name="Trazado 108534" d="M662.425,426.482s2.586,12.905,9.379,17.452,16.651,3.755,23.36,1.862S709.7,437.77,709.7,437.77s-22.834,1.8-30.886-.238S662.425,426.482,662.425,426.482Z" transform="translate(-658.499 -417.882)" fill="#ffe5c7"/>
        <path id="Trazado_108535" data-name="Trazado 108535" d="M655.619,404.286a5.083,5.083,0,0,1-1.179.392,3.333,3.333,0,0,0-1.895,1.932,9.871,9.871,0,0,0-.58,2.718,8.492,8.492,0,0,1-.295-3.946,3.731,3.731,0,0,1,1.673-2.326,3,3,0,0,1,2.818-.136S655.969,404.061,655.619,404.286Z" transform="translate(-651.536 -402.63)" fill="#f5d1a2"/>
      </g>
    </g>
  </g>
</svg>
